<svg width="32" height="32" viewBox="0 0 32 32" fill="none" xmlns="http://www.w3.org/2000/svg">
<path d="M0 16C0 20.2435 1.68571 24.3131 4.68629 27.3137C7.68687 30.3143 11.7565 32 16 32C20.2435 32 24.3131 30.3143 27.3137 27.3137C30.3143 24.3131 32 20.2435 32 16C32 11.7565 30.3143 7.68687 27.3137 4.68629C24.3131 1.68571 20.2435 0 16 0C11.7565 0 7.68687 1.68571 4.68629 4.68629C1.68571 7.68687 0 11.7565 0 16Z" fill="black"/>
<path d="M19.6977 14.5924C19.6874 14.572 19.6806 14.5515 19.6704 14.5311C19.667 14.5276 19.667 14.5242 19.6636 14.5174C19.4182 14.0233 18.89 13.7029 18.3038 13.7472C17.5371 13.8086 16.9611 14.4799 17.0225 15.2467C17.0395 15.4444 17.094 15.625 17.1792 15.7886C17.5677 16.6644 17.3973 17.7311 16.6817 18.4501L12.933 22.2056C12.0027 23.136 10.4896 23.136 9.55921 22.2056C8.62886 21.2753 8.62886 19.7622 9.55921 18.8318L10.9564 17.4346L10.9462 17.4243C11.27 17.1449 11.4574 16.7189 11.4233 16.2623C11.362 15.4955 10.6906 14.9196 9.92386 14.9809C9.55581 15.0082 9.23546 15.1786 9.00373 15.4307L9.00032 15.4273L7.57583 16.8518C5.55155 18.8761 5.55155 22.1545 7.57583 24.1788C9.60011 26.203 12.8785 26.203 14.9028 24.1788L18.6617 20.4199C20.2361 18.842 20.5769 16.5076 19.6977 14.5924Z" fill="white"/>
<path d="M24.6217 7.44302C22.5974 5.41873 19.3191 5.41873 17.2948 7.44302L13.5359 11.2019C11.9615 12.7763 11.6207 15.1107 12.4965 17.026C12.5067 17.0464 12.5135 17.0669 12.5238 17.0873C12.5272 17.0907 12.5272 17.0941 12.5306 17.1009C12.7759 17.5951 13.3042 17.9154 13.8903 17.8711C14.6571 17.8098 15.233 17.1384 15.1717 16.3717C15.1546 16.174 15.1001 15.9934 15.0149 15.8298C14.6264 14.954 14.7968 13.8873 15.5125 13.1683L19.2645 9.41618C20.1949 8.48583 21.708 8.48583 22.6383 9.41618C23.5687 10.3465 23.5687 11.8596 22.6383 12.79L21.2411 14.1872L21.2513 14.1974C20.9276 14.4769 20.7402 14.9029 20.7742 15.3595C20.8356 16.1263 21.5069 16.7022 22.2737 16.6409C22.6418 16.6136 22.9621 16.4432 23.1938 16.191L23.1972 16.1945L24.6217 14.77C26.6426 12.7457 26.6426 9.46389 24.6217 7.44302Z" fill="white"/>
</svg>
