<svg width="32" height="32" viewBox="0 0 32 32" fill="none" xmlns="http://www.w3.org/2000/svg">
<path fill-rule="evenodd" clip-rule="evenodd" d="M16 0C24.8366 0 32 7.16344 32 16C32 24.8366 24.8366 32 16 32C7.16344 32 0 24.8366 0 16C0 7.16344 7.16344 0 16 0ZM22.5836 9.77777H9.86089C9.32406 9.77777 8.88889 10.2129 8.88889 10.7498V22.1391C8.88889 22.6759 9.32406 23.1111 9.86089 23.1111H22.5836C23.1204 23.1111 23.5556 22.6759 23.5556 22.1391V10.7498C23.5556 10.2129 23.1204 9.77777 22.5836 9.77777ZM21.7778 11.1111V19.2526C21.6298 18.8999 21.4577 18.5396 21.2616 18.1716C21.0655 17.8036 20.8509 17.4702 20.6179 17.1712C20.3847 16.8722 20.1313 16.6288 19.8575 16.441C19.5837 16.2532 19.2988 16.1593 19.0028 16.1593C18.655 16.1593 18.359 16.2302 18.1148 16.372C17.8706 16.5138 17.6597 16.6921 17.4821 16.9067C17.3045 17.1214 17.1454 17.3513 17.0048 17.5967C16.8642 17.842 16.7236 18.0719 16.5829 18.2866C16.4423 18.5012 16.2888 18.6795 16.1223 18.8214C15.9558 18.9632 15.7579 19.0341 15.5285 19.0341C15.2991 19.0341 15.103 19.0168 14.9402 18.9824C14.7774 18.9479 14.6312 18.9037 14.5018 18.8501C14.3722 18.7965 14.252 18.737 14.141 18.6719C14.03 18.6067 13.9098 18.5473 13.7803 18.4936C13.6508 18.4399 13.5028 18.3959 13.3362 18.3613C13.1697 18.3269 12.9718 18.3096 12.7424 18.3096C12.55 18.3096 12.3594 18.3613 12.1708 18.4648C11.982 18.5684 11.7989 18.7006 11.6213 18.8616C11.4437 19.0226 11.2735 19.2028 11.1107 19.402C10.9479 19.6013 10.7999 19.8007 10.6667 20V11.1111H21.7778ZM14.4494 12.4445C14.2307 12.4445 14.0269 12.4918 13.8381 12.5864C13.6493 12.6811 13.4853 12.8079 13.3461 12.967C13.207 13.126 13.096 13.3134 13.0131 13.5293C12.9303 13.7451 12.8889 13.9742 12.8889 14.2166C12.8889 14.4588 12.9303 14.688 13.0131 14.9038C13.096 15.1196 13.207 15.3089 13.3461 15.4717C13.4853 15.6345 13.6493 15.7633 13.8381 15.858C14.0269 15.9527 14.2307 16 14.4494 16C14.6615 16 14.8619 15.9527 15.0508 15.858C15.2396 15.7633 15.4036 15.6345 15.5428 15.4717C15.6819 15.3089 15.7929 15.1196 15.8757 14.9038C15.9585 14.688 16 14.4588 16 14.2166C16 13.9742 15.9585 13.7451 15.8757 13.5293C15.7929 13.3134 15.6819 13.126 15.5428 12.967C15.4036 12.8079 15.2396 12.6811 15.0508 12.5864C14.8619 12.4918 14.6615 12.4445 14.4494 12.4445Z" fill="#FF5C00"/>
</svg>
