<svg width="32" height="32" viewBox="0 0 32 32" fill="none" xmlns="http://www.w3.org/2000/svg">
<path d="M0 16C-4.42784e-08 18.1012 0.413852 20.1817 1.21793 22.1229C2.022 24.0641 3.20055 25.828 4.68629 27.3137C6.17203 28.7994 7.93586 29.978 9.87707 30.7821C11.8183 31.5861 13.8989 32 16 32C18.1012 32 20.1817 31.5861 22.1229 30.7821C24.0641 29.978 25.828 28.7994 27.3137 27.3137C28.7994 25.828 29.978 24.0641 30.7821 22.1229C31.5861 20.1817 32 18.1012 32 16C32 11.7565 30.3143 7.68687 27.3137 4.68629C24.3131 1.68571 20.2435 0 16 0C11.7565 0 7.68687 1.68571 4.68629 4.68629C1.68571 7.68687 0 11.7565 0 16Z" fill="#96B0EE"/>
<path d="M13.0908 15.9999C13.0908 16.7714 13.3973 17.5114 13.9429 18.0569C14.4884 18.6025 15.2284 18.909 15.9999 18.909C16.7714 18.909 17.5114 18.6025 18.0569 18.0569C18.6025 17.5114 18.909 16.7714 18.909 15.9999C18.909 15.6179 18.8338 15.2396 18.6876 14.8867C18.5414 14.5337 18.3271 14.213 18.0569 13.9429C17.7868 13.6727 17.4661 13.4585 17.1132 13.3123C16.7602 13.1661 16.3819 13.0908 15.9999 13.0908C15.6179 13.0908 15.2396 13.1661 14.8867 13.3123C14.5337 13.4585 14.213 13.6727 13.9429 13.9429C13.6727 14.213 13.4585 14.5337 13.3123 14.8867C13.1661 15.2396 13.0908 15.6179 13.0908 15.9999Z" fill="white"/>
<path d="M4.36377 15.9999C4.36377 16.3819 4.43902 16.7602 4.58521 17.1132C4.73141 17.4661 4.94569 17.7868 5.21582 18.0569C5.48596 18.3271 5.80665 18.5414 6.1596 18.6876C6.51255 18.8338 6.89083 18.909 7.27286 18.909C7.65489 18.909 8.03317 18.8338 8.38612 18.6876C8.73907 18.5414 9.05976 18.3271 9.3299 18.0569C9.60003 17.7868 9.81431 17.4661 9.96051 17.1132C10.1067 16.7602 10.182 16.3819 10.182 15.9999C10.182 15.2284 9.87546 14.4884 9.3299 13.9429C8.78434 13.3973 8.0444 13.0908 7.27286 13.0908C6.50132 13.0908 5.76138 13.3973 5.21582 13.9429C4.67026 14.4884 4.36377 15.2284 4.36377 15.9999Z" fill="white"/>
<path d="M21.8184 15.9999C21.8184 16.7714 22.1249 17.5114 22.6704 18.0569C23.216 18.6025 23.9559 18.909 24.7275 18.909C25.499 18.909 26.2389 18.6025 26.7845 18.0569C27.3301 17.5114 27.6365 16.7714 27.6365 15.9999C27.6365 15.2284 27.3301 14.4884 26.7845 13.9429C26.2389 13.3973 25.499 13.0908 24.7275 13.0908C23.9559 13.0908 23.216 13.3973 22.6704 13.9429C22.1249 14.4884 21.8184 15.2284 21.8184 15.9999Z" fill="white"/>
</svg>
