<svg width="46" height="46" viewBox="0 0 46 46" fill="none" xmlns="http://www.w3.org/2000/svg">
    <circle cx="23" cy="23" r="23" fill="#FFD7D4" />
    <path fill-rule="evenodd" clip-rule="evenodd" d="M24.0665 13.2574C23.4572 12.9142 22.7128 12.9142 22.1035 13.2574L15.0185 17.2482C14.3893 17.6026 14 18.2686 14 18.9907V26.8875C14 27.6096 14.3893 28.2757 15.0185 28.6301L22.1035 32.6208C22.7128 32.9641 23.4572 32.9641 24.0665 32.6208L31.1515 28.6301C31.7807 28.2757 32.17 27.6096 32.17 26.8875V18.9908C32.17 18.2686 31.7807 17.6026 31.1515 17.2482L24.0665 13.2574ZM23.656 18.272C23.4853 18.0907 23.2773 18 23.032 18C22.7973 18 22.5947 18.0907 22.424 18.272C22.2533 18.4427 22.168 18.6507 22.168 18.896C22.168 19.1307 22.248 19.3333 22.408 19.504C22.568 19.664 22.7707 19.744 23.016 19.744C23.2613 19.744 23.4747 19.6587 23.656 19.488C23.8373 19.3067 23.928 19.1093 23.928 18.896C23.928 18.6507 23.8373 18.4427 23.656 18.272ZM23.976 27.792C24.296 27.8027 24.5413 27.8187 24.712 27.84V27.488L24.056 27.312C23.9173 27.28 23.8213 27.2267 23.768 27.152C23.7253 27.0667 23.704 26.944 23.704 26.784V21.392H23.528C23.4747 21.3813 23.416 21.376 23.352 21.376C23.256 21.5147 23.128 21.6427 22.968 21.76C22.808 21.8773 22.632 21.9893 22.44 22.096C22.248 22.192 22.0507 22.2827 21.848 22.368C21.6453 22.4427 21.448 22.5013 21.256 22.544V22.864C21.64 22.9493 21.896 23.0507 22.024 23.168C22.152 23.2853 22.216 23.472 22.216 23.728V26.736C22.216 27.0667 22.0507 27.264 21.72 27.328L21 27.488V27.84C21.1707 27.8187 21.416 27.8027 21.736 27.792C22.056 27.7813 22.4293 27.776 22.856 27.776C23.2827 27.776 23.656 27.7813 23.976 27.792Z" fill="#23262F" />
</svg>
