<svg width="46" height="46" viewBox="0 0 46 46" fill="none" xmlns="http://www.w3.org/2000/svg">
    <circle cx="23" cy="23" r="23" fill="#F4D8E8" />
    <path fill-rule="evenodd" clip-rule="evenodd" d="M24.0665 13.2574C23.4572 12.9142 22.7128 12.9142 22.1035 13.2574L15.0185 17.2482C14.3893 17.6026 14 18.2686 14 18.9907V26.8875C14 27.6096 14.3893 28.2757 15.0185 28.6301L22.1035 32.6208C22.7128 32.9641 23.4572 32.9641 24.0665 32.6208L31.1515 28.6301C31.7807 28.2757 32.17 27.6096 32.17 26.8875V18.9908C32.17 18.2686 31.7807 17.6026 31.1515 17.2482L24.0665 13.2574ZM21.9565 18.6465C22.1066 18.2635 22.4761 18.0114 22.8876 18.0114H23.1769C23.5883 18.0114 23.9578 18.2635 24.1079 18.6465L26.8685 25.6905C27.0534 26.1622 26.7056 26.6722 26.1989 26.6722C25.8984 26.6722 25.6296 26.4854 25.5248 26.2038L24.891 24.5009H21.1735L20.5396 26.2038C20.4348 26.4854 20.166 26.6722 19.8656 26.6722C19.3589 26.6722 19.011 26.1622 19.1959 25.6905L21.9565 18.6465ZM23.0136 19.5398L21.6086 23.3364H24.4558L23.0633 19.5398H23.0136Z" fill="#23262F" />
</svg>
