<svg width="46" height="46" viewBox="0 0 46 46" fill="none" xmlns="http://www.w3.org/2000/svg">
    <circle cx="23" cy="23" r="23" fill="#FFEB90" />
    <path fill-rule="evenodd" clip-rule="evenodd" d="M24.0665 13.2574C23.4572 12.9142 22.7128 12.9142 22.1035 13.2574L15.0185 17.2482C14.3893 17.6026 14 18.2686 14 18.9907V26.8875C14 27.6096 14.3893 28.2757 15.0185 28.6301L22.1035 32.6208C22.7128 32.9641 23.4572 32.9641 24.0665 32.6208L31.1515 28.6301C31.7807 28.2757 32.17 27.6096 32.17 26.8875V18.9908C32.17 18.2686 31.7807 17.6026 31.1515 17.2482L24.0665 13.2574ZM18.7171 25.744C18.7171 26.3841 19.487 27 19.9778 27V26.9995H25.4038C25.9954 26.9995 26.6645 26.5245 26.6645 25.7825V20.6438C26.6645 19.9299 26.0158 19.385 25.4252 19.3845H24.8242V20.601H20.549V19.385H19.863C19.2709 19.385 18.7171 20.1008 18.7171 20.6396V25.744ZM24.9826 24.4552C24.9836 24.6027 24.8386 24.7226 24.6598 24.7226H20.7685C20.5897 24.7226 20.4442 24.6027 20.4442 24.4552C20.4442 24.3071 20.5897 24.1872 20.7685 24.1872H24.6588C24.8376 24.1872 24.9826 24.3071 24.9826 24.4552ZM24.9826 23.0273C24.9836 23.1749 24.8386 23.2948 24.6598 23.2948H20.7685C20.5897 23.2948 20.4442 23.1749 20.4442 23.0273C20.4442 22.8793 20.5897 22.7594 20.7685 22.7594H24.6588C24.8376 22.7594 24.9826 22.8793 24.9826 23.0273ZM21.2459 19.7305H22.4017H22.4027H24.1357V18.5773H23.558C23.558 18.2589 23.2988 18 22.9799 18H22.4017C22.0828 18 21.824 18.2584 21.824 18.5773H21.2459V19.7305ZM22.5488 18.715C22.5943 18.6984 22.6427 18.6907 22.6913 18.6925L22.6908 18.692C22.7867 18.692 22.8787 18.7285 22.9465 18.7935C23.0143 18.8585 23.0524 18.9466 23.0524 19.0385C23.0524 19.1304 23.0143 19.2185 22.9465 19.2835C22.8787 19.3485 22.7867 19.385 22.6908 19.385C22.6422 19.3867 22.5938 19.379 22.5484 19.3623C22.503 19.3457 22.4615 19.3204 22.4265 19.2881C22.3916 19.2557 22.3637 19.2169 22.3448 19.1741C22.3258 19.1312 22.316 19.0851 22.316 19.0385C22.3161 18.9919 22.3259 18.9458 22.345 18.903C22.364 18.8601 22.3919 18.8214 22.4269 18.7891C22.4619 18.7568 22.5034 18.7316 22.5488 18.715Z" fill="#23262F" />
</svg>
