<svg width="46" height="46" viewBox="0 0 46 46" fill="none" xmlns="http://www.w3.org/2000/svg">
    <circle cx="23" cy="23" r="23" fill="#DEECEC" />
    <path fill-rule="evenodd" clip-rule="evenodd" d="M24.0665 13.2574C23.4572 12.9142 22.7128 12.9142 22.1035 13.2574L15.0185 17.2482C14.3893 17.6026 14 18.2686 14 18.9907V26.8875C14 27.6096 14.3893 28.2757 15.0185 28.6301L22.1035 32.6208C22.7128 32.9641 23.4572 32.9641 24.0665 32.6208L31.1515 28.6301C31.7807 28.2757 32.17 27.6096 32.17 26.8875V18.9908C32.17 18.2686 31.7807 17.6026 31.1515 17.2482L24.0665 13.2574ZM23.781 22.8349C23.7395 22.8062 23.6899 22.7908 23.6391 22.7908C23.5032 22.7908 23.3931 22.8986 23.3931 23.0316V24.2088C23.1469 24.2355 22.4297 24.2489 21.2414 24.2489C19.5884 24.2489 18.9675 23.5557 18.7798 23.3462C18.7651 23.3298 18.7531 23.3164 18.7434 23.3065C18.8753 24.7987 19.708 25.5406 21.2414 25.532H23.3931V26.7592C23.3931 26.8108 23.41 26.861 23.4414 26.9025C23.5222 27.0094 23.6763 27.0319 23.7855 26.9527L26.4174 25.0452C26.4384 25.0299 26.4569 25.0115 26.472 24.9906C26.5503 24.8819 26.5239 24.7317 26.413 24.6549L23.781 22.8349ZM22.0411 19.2408C22.0411 19.1892 22.0242 19.139 21.9928 19.0975V19.0975C21.912 18.9906 21.7579 18.9681 21.6487 19.0473L19.0168 20.9548C18.9958 20.9701 18.9774 20.9885 18.9623 21.0094C18.8839 21.118 18.9103 21.2683 19.0212 21.3451L21.6532 23.1651C21.6947 23.1938 21.7443 23.2092 21.7951 23.2092C21.931 23.2092 22.0411 23.1014 22.0411 22.9684V21.7912C22.2873 21.7645 23.0045 21.7511 24.1928 21.7511C25.8459 21.7511 26.4667 22.4442 26.6544 22.6538C26.6691 22.6702 26.6811 22.6836 26.6908 22.6935C26.5589 21.2013 25.7262 20.4594 24.1928 20.468H22.0411V19.2408Z" fill="#23262F" />
</svg>
