<svg width="25" height="25" viewBox="0 0 25 25" fill="none" xmlns="http://www.w3.org/2000/svg">
<path d="M16.4529 7.32422C17.3753 7.32422 18.0888 7.43326 18.5935 7.65136C19.5246 8.05641 20.1468 8.79896 20.4601 9.87903C20.695 10.7099 20.8125 11.5978 20.8125 12.5429C20.8125 13.4442 20.7073 14.2973 20.4969 15.102L20.4731 15.1912C20.2469 16.0428 19.8727 16.6711 19.3506 17.0762C19.0199 17.3254 18.6566 17.4942 18.2607 17.5825L18.1947 17.5964C18.1595 17.6034 18.1242 17.6099 18.0889 17.6158L18.0138 17.6278L17.9351 17.639C17.9217 17.6408 17.9081 17.6426 17.8944 17.6444L17.8103 17.6544C17.7816 17.6576 17.7524 17.6607 17.7225 17.6637L17.6311 17.6722L17.5361 17.6799L17.4375 17.6869L17.3353 17.6931C17.3179 17.6941 17.3004 17.695 17.2827 17.6959L17.1751 17.7009C17.1568 17.7017 17.1384 17.7025 17.1199 17.7032L17.0068 17.707L16.89 17.7101C16.8703 17.7106 16.8504 17.711 16.8303 17.7114L16.7081 17.7133L16.5823 17.7145L16.4529 17.7149H12.9582V7.32422H16.4529ZM4.1875 7.32422H8.37199L8.6432 7.32967L8.84352 7.33487L8.98699 7.33942L9.11549 7.34433L9.22907 7.3496L9.32771 7.35524L9.39189 7.35971L9.44764 7.36439L9.48017 7.36764L9.50893 7.37096C9.67488 7.39174 9.85653 7.44366 10.0539 7.52674C10.5203 7.72405 10.8881 8.08754 11.1572 8.6172C11.4263 9.10532 11.5608 9.62979 11.5608 10.1906C11.5608 11.1565 11.1617 11.9094 10.3633 12.4494C11.1617 13.0518 11.5608 13.8878 11.5608 14.9575C11.5608 15.9268 11.2491 16.6505 10.6258 17.1287L10.5921 17.154C10.305 17.3721 9.99332 17.5201 9.65694 17.598C9.57539 17.6169 9.48397 17.6335 9.38266 17.6478L9.30481 17.6581C9.26497 17.663 9.22372 17.6676 9.1811 17.6719L9.09401 17.6801L9.00318 17.6874L8.90867 17.6938C8.89262 17.6948 8.87638 17.6958 8.86002 17.6967L8.75995 17.7019L8.65616 17.7062L8.54867 17.7096C8.53045 17.7101 8.51206 17.7106 8.49354 17.711L8.38049 17.7131L8.26372 17.7144L8.14327 17.7148H4.1875V15.8766H8.03561L8.08187 15.8764C8.58581 15.8714 8.92919 15.7832 9.11203 15.6118C9.34524 15.3937 9.46186 15.0718 9.46186 14.646C9.46186 14.1267 9.31384 13.7684 9.01784 13.5711C8.83575 13.4506 8.52373 13.3883 8.08179 13.3843L8.03561 13.3841H5.03517V11.5459H8.03561L8.08102 11.5457C8.62046 11.5413 8.97311 11.4583 9.13893 11.2966C9.34524 11.0993 9.44838 10.793 9.44838 10.3775C9.44838 9.92058 9.31384 9.58824 9.04475 9.38054C8.94607 9.29746 8.8317 9.24292 8.70163 9.21696C8.68319 9.21332 8.66466 9.21016 8.64606 9.20746L8.60378 9.20188L8.55733 9.19687L8.50672 9.19245L8.45194 9.18861L8.39298 9.18538L8.32985 9.18273L8.26255 9.18067L8.19108 9.17919L8.07604 9.17809L4.1875 9.17802V7.32422ZM16.4529 9.17802H14.7577V15.861H16.4529C17.2622 15.861 17.8234 15.6482 18.1367 15.2223C18.3281 14.9523 18.4826 14.5733 18.6001 14.0851C18.7175 13.597 18.7763 13.0778 18.7763 12.5273C18.7763 11.9146 18.7067 11.3538 18.5674 10.8449C18.4282 10.336 18.2455 9.95693 18.0192 9.70766C17.6961 9.3626 17.1901 9.18613 16.5013 9.1783L16.4529 9.17802Z" fill="white"/>
<defs>
<filter id="filter0_b" x="-40" y="-40" width="105" height="105" filterUnits="userSpaceOnUse" color-interpolation-filters="sRGB">
<feFlood flood-opacity="0" result="BackgroundImageFix"/>
<feGaussianBlur in="BackgroundImage" stdDeviation="20"/>
<feComposite in2="SourceAlpha" operator="in" result="effect1_backgroundBlur"/>
<feBlend mode="normal" in="SourceGraphic" in2="effect1_backgroundBlur" result="shape"/>
</filter>
</defs>
</svg>
