<svg width="14" height="14" viewBox="0 0 14 14" fill="none" xmlns="http://www.w3.org/2000/svg">
<path fill-rule="evenodd" clip-rule="evenodd" d="M10.3874 1.07611C10.7118 1.11834 10.9405 1.44561 10.8961 1.8028L10.7835 2.71601L1.30273 2.74768L1.57078 0.576397C1.61517 0.219209 1.91566 -0.0376853 2.24005 0.00454384L10.3874 1.07611ZM10.5222 9.13309C10.104 9.13309 9.7642 8.78294 9.7642 8.35009C9.7642 7.919 10.1057 7.56709 10.524 7.56709C10.9422 7.56709 11.282 7.91724 11.282 8.35009V8.35185C11.282 8.78294 10.9422 9.13309 10.5222 9.13309Z" fill="#373838"/>
<path d="M14 6.47988V4.88749C14 4.07809 13.358 3.4165 12.5727 3.4165H1.42732C0.641951 3.4165 0 4.07809 0 4.88749V12.5292C0 13.3386 0.641951 14.0002 1.42732 14.0002H12.5727C13.358 14.0002 14 13.3386 14 12.5292V10.1345C14 9.93739 13.8446 9.77728 13.6534 9.77728H10.4163C9.63098 9.77728 8.98902 9.11568 8.98902 8.30629C8.98902 7.4969 9.63098 6.83531 10.4163 6.83531H13.6534C13.8446 6.83707 14 6.67695 14 6.47988Z" fill="#373838"/>
</svg>
