<svg width="383" height="418" viewBox="0 0 383 418" fill="none" xmlns="http://www.w3.org/2000/svg">
<g filter="url(#filter0_d_27_29540)">
<mask id="mask0_27_29540" style="mask-type:alpha" maskUnits="userSpaceOnUse" x="4" y="0" width="375" height="394">
<path d="M4.10547 0.325195H378.731V393.989H4.10547V0.325195Z" fill="white"/>
</mask>
<g mask="url(#mask0_27_29540)">
<path fill-rule="evenodd" clip-rule="evenodd" d="M712.202 185.534C712.34 201.645 709.653 217.744 704.226 233.16C703.243 235.979 702.167 238.771 700.988 241.537C700.096 243.661 699.152 245.772 698.143 247.87C697.12 250.006 696.032 252.13 694.892 254.227L694.879 254.241C683.028 276.186 665.172 295.863 641.746 310.926H641.733C637.839 313.456 633.789 315.829 629.58 318.057C628.663 318.556 627.732 319.041 626.801 319.513C626.408 319.722 626.015 319.919 625.621 320.116C625.569 320.142 625.516 320.168 625.464 320.194C625.241 320.312 625.005 320.43 624.769 320.535C620.902 322.449 616.917 324.258 612.8 325.923C610.952 326.684 609.09 327.418 607.202 328.112C605.419 328.781 603.61 329.41 601.788 330.013C601.434 330.145 601.094 330.262 600.739 330.38C600.215 330.564 599.677 330.734 599.153 330.905C597.423 331.456 595.666 331.993 593.896 332.504C583.605 335.52 572.698 337.813 561.162 339.308C555.826 340.003 549.481 340.619 542.507 341.143C541.196 341.248 539.859 341.34 538.509 341.432C537.433 341.51 536.346 341.589 535.231 341.655C514.846 342.966 490.476 343.66 469.789 343.713C468.242 343.726 466.721 343.726 465.214 343.726C464.44 343.726 463.667 343.726 462.906 343.713C457.492 343.7 452.432 343.634 447.87 343.516C433.292 343.162 418.452 342.415 403.416 341.392C398.945 341.078 394.462 340.75 389.965 340.396C388.628 340.278 387.278 340.173 385.928 340.068C382.991 339.82 380.028 339.57 377.079 339.308C376.371 339.256 375.663 339.19 374.955 339.124C374.378 339.072 373.788 339.02 373.211 338.967C372.831 338.928 372.438 338.902 372.058 338.862C366.906 338.39 361.741 337.892 356.562 337.381C346.363 336.358 336.138 335.244 325.912 334.064C295.8 330.63 265.714 326.67 236.453 322.869C219.424 320.666 202.683 318.503 186.375 316.537C173.698 315.016 161.283 313.6 149.223 312.381C109.068 308.265 72.6503 306.141 42.6818 308.33C40.4139 308.501 38.1461 308.697 35.8779 308.946C27.711 309.759 19.4782 311.018 11.2191 312.617C10.5376 312.748 9.86914 312.879 9.18732 313.023C9.05615 313.05 8.93799 313.076 8.80713 313.102C5.37238 313.784 1.93762 314.544 -1.5101 315.357C-1.96887 315.449 -2.42795 315.567 -2.89969 315.685C-8.09091 316.917 -13.3084 318.267 -18.513 319.735C-23.2718 321.072 -28.0435 322.489 -32.8156 323.983C-34.8211 324.612 -36.827 325.255 -38.8328 325.91C-40.9432 326.592 -43.0409 327.287 -45.1516 327.995C-45.2302 328.021 -45.3088 328.06 -45.4007 328.086C-45.8857 328.244 -46.3578 328.414 -46.8559 328.571C-48.4422 329.108 -50.0283 329.659 -51.6276 330.21C-56.0981 331.77 -60.5685 333.382 -65.0387 335.021C-65.4059 335.152 -65.7861 335.296 -66.153 335.427C-67.8179 336.057 -69.4828 336.66 -71.1607 337.289C-72.4981 337.8 -73.8221 338.298 -75.1591 338.81C-75.6179 338.98 -76.09 339.151 -76.5487 339.334C-76.562 339.334 -76.562 339.334 -76.575 339.347C-77.6107 339.741 -78.6331 340.134 -79.6689 340.527C-81.1241 341.091 -82.5659 341.642 -84.0344 342.218C-90.4841 344.709 -96.9208 347.265 -103.305 349.795C-127.191 359.339 -150.578 368.922 -172.943 376.722C-181.018 379.554 -188.976 382.15 -196.776 384.418C-214.421 389.544 -231.267 393.018 -247.011 393.804C-249.332 393.935 -251.626 394.001 -253.894 393.989C-267.108 393.975 -279.483 391.89 -290.863 387.079C-372.037 352.758 -314.315 265.292 -277.937 211.294C-261.956 187.566 -260.881 175.702 -266.23 164.965C-273.06 151.266 -290.338 139.388 -300.406 107.047C-318.393 49.3263 -262.048 -2.45614 -100.841 0.441265C-9.97891 2.07958 34.7376 16.7887 199.222 50.3094C264.088 63.5241 326.45 56.2744 384.105 47.8056C388.497 47.163 392.875 46.5078 397.215 45.8653C398.381 45.6819 399.535 45.5117 400.689 45.3409C401.2 45.2624 401.711 45.1838 402.209 45.1182C483.239 32.9393 577.509 9.98477 660.073 78.639C688.756 102.485 705.235 132.886 710.413 164.506C710.781 166.669 711.095 168.845 711.318 171.008C711.881 175.833 712.17 180.683 712.202 185.534Z" fill="#EBF0FC"/>
</g>
<mask id="mask1_27_29540" style="mask-type:alpha" maskUnits="userSpaceOnUse" x="4" y="0" width="375" height="230">
<path d="M4.10547 0.325195H378.731V229.351H4.10547V0.325195Z" fill="white"/>
</mask>
<g mask="url(#mask1_27_29540)">
<path fill-rule="evenodd" clip-rule="evenodd" d="M712.197 185.534C688.862 164.663 655.551 137.946 607.203 112.619C472.071 41.8406 502.432 137.514 412.095 203.441C321.758 269.356 320.892 197.319 197.506 123.264C74.1065 49.1952 114.392 176.842 -3.97363 187.055C-111.262 196.31 -213.306 139.074 -266.229 164.965C-273.059 151.266 -290.337 139.388 -300.405 107.047C-318.391 49.3263 -262.047 -2.45614 -100.84 0.441265C-9.97787 2.07958 34.7387 16.7887 199.223 50.3094C264.089 63.5241 326.451 56.2744 384.106 47.8056C388.498 47.163 392.876 46.5078 397.216 45.8653C398.383 45.6819 399.536 45.5117 400.69 45.3409C401.201 45.2624 401.712 45.1838 402.21 45.1182C483.24 32.9393 577.51 9.98477 660.074 78.639C688.757 102.485 705.236 132.886 710.414 164.506C710.781 166.669 711.096 168.845 711.319 171.008C711.883 175.833 712.171 180.683 712.197 185.534Z" fill="#F5F7FC"/>
</g>
<path fill-rule="evenodd" clip-rule="evenodd" d="M300.626 192.356H126.55C125.109 192.356 123.779 191.897 122.703 191.122C121.107 189.972 120.072 188.124 120.072 186.041V77.0786C120.072 75.3348 120.797 73.7562 121.969 72.6133C123.142 71.4705 124.761 70.7637 126.55 70.7637H300.626C302.414 70.7637 304.034 71.4705 305.205 72.6133C306.378 73.7562 307.103 75.3348 307.103 77.0786V186.041C307.103 188.36 305.82 190.387 303.909 191.485C302.946 192.038 301.824 192.356 300.626 192.356Z" fill="white"/>
<mask id="mask2_27_29540" style="mask-type:alpha" maskUnits="userSpaceOnUse" x="4" y="0" width="375" height="418">
<path d="M4.10547 417.02H378.731V0.325195H4.10547V417.02Z" fill="white"/>
</mask>
<g mask="url(#mask2_27_29540)">
<path fill-rule="evenodd" clip-rule="evenodd" d="M143.871 157.639H187.702V153.575H143.871V157.639Z" fill="#C0D2FF"/>
<path fill-rule="evenodd" clip-rule="evenodd" d="M159.153 153.575L158.108 157.639L151.527 183.105L147.391 182.897L153.909 157.639L154.964 153.575H159.153Z" fill="#C0D2FF"/>
<path fill-rule="evenodd" clip-rule="evenodd" d="M186.956 65.3753V125.847C186.956 127.711 186.29 129.431 185.192 130.773C183.771 132.505 181.607 133.614 179.189 133.614H69.8961C68.1874 133.614 66.6007 133.059 65.3244 132.127C63.3828 130.707 62.1289 128.421 62.1289 125.847V65.3753C62.1289 65.0314 62.1513 64.6987 62.2065 64.3659C62.2844 63.6444 62.4731 62.9675 62.7503 62.324C63.1497 61.4032 63.7046 60.5818 64.4036 59.8831C65.8127 58.474 67.7546 57.6084 69.8961 57.6084H179.189C181.33 57.6084 183.272 58.474 184.681 59.8831C186.09 61.2922 186.956 63.2337 186.956 65.3753Z" fill="#9FC3FC"/>
<path fill-rule="evenodd" clip-rule="evenodd" d="M211.244 120.08H277.401V114.509H211.244V120.08Z" fill="#E6EAFD"/>
<path fill-rule="evenodd" clip-rule="evenodd" d="M211.244 136.716H277.401V122.518H211.244V136.716Z" fill="#E6EAFD"/>
<path fill-rule="evenodd" clip-rule="evenodd" d="M284.333 179.994H204.31C203.928 179.994 203.574 179.872 203.286 179.666C202.838 179.346 202.547 178.823 202.547 178.231V167.785C202.547 167.35 202.704 166.952 202.966 166.644C203.289 166.264 203.771 166.022 204.31 166.022H284.333C284.725 166.022 285.087 166.15 285.38 166.367C285.814 166.688 286.096 167.204 286.096 167.785V178.231C286.096 178.683 285.926 179.096 285.646 179.408C285.323 179.768 284.854 179.994 284.333 179.994Z" fill="#F1F4FF"/>
<path fill-rule="evenodd" clip-rule="evenodd" d="M212.115 141.494H206.37C205.976 141.494 205.616 141.349 205.34 141.109C205.011 140.821 204.803 140.399 204.803 139.927V106.414C204.803 106.02 204.948 105.66 205.188 105.384C205.476 105.055 205.899 104.847 206.37 104.847H212.115C212.548 104.847 212.939 105.022 213.223 105.306C213.506 105.589 213.682 105.981 213.682 106.414V139.927C213.682 140.36 213.506 140.752 213.223 141.035C212.939 141.319 212.548 141.494 212.115 141.494Z" fill="#F1F4FF"/>
<path fill-rule="evenodd" clip-rule="evenodd" d="M281.23 141.494H275.485C275.091 141.494 274.731 141.349 274.456 141.109C274.126 140.821 273.918 140.399 273.918 139.927V106.414C273.918 106.02 274.063 105.66 274.303 105.384C274.591 105.055 275.013 104.847 275.485 104.847H281.23C281.663 104.847 282.054 105.022 282.338 105.306C282.622 105.589 282.797 105.981 282.797 106.414V139.927C282.797 140.36 282.622 140.752 282.338 141.035C282.054 141.319 281.663 141.494 281.23 141.494Z" fill="#F1F4FF"/>
<path fill-rule="evenodd" clip-rule="evenodd" d="M284.333 169.897H204.31C203.928 169.897 203.574 169.561 203.286 168.991C202.838 168.108 202.547 166.661 202.547 165.026V136.163C202.547 134.96 202.704 133.86 202.966 133.01C203.289 131.959 203.771 131.292 204.31 131.292H284.333C284.725 131.292 285.087 131.645 285.38 132.243C285.814 133.13 286.096 134.555 286.096 136.163V165.026C286.096 166.276 285.926 167.416 285.646 168.278C285.323 169.272 284.854 169.897 284.333 169.897Z" fill="#C0D2FF"/>
<path fill-rule="evenodd" clip-rule="evenodd" d="M244.811 120.667C240.896 120.322 237.261 116.43 235.335 117.663C233.409 118.895 234.719 122.67 237.107 125.289C239.495 127.909 238.263 133.07 235.952 134.919C233.64 136.768 232.1 140.078 235.952 139.348C239.803 138.617 241.113 137.538 244.426 137.538C247.739 137.538 255.057 137.23 256.906 138.155C258.754 139.079 266.69 140.268 264.609 136.862C262.529 133.455 262.529 127.986 263.916 124.75C265.303 121.515 269.155 118.452 266.766 117.441C264.378 116.43 261.528 119.358 257.984 120.205C254.44 121.052 245.949 120.768 244.811 120.667Z" fill="#F1F4FF"/>
<path fill-rule="evenodd" clip-rule="evenodd" d="M226.664 122.71C222.75 122.365 219.115 118.473 217.189 119.706C215.263 120.938 216.572 124.713 218.96 127.333C221.349 129.952 220.116 135.113 217.805 136.962C215.494 138.811 213.953 142.121 217.805 141.39C221.657 140.66 222.967 139.581 226.279 139.581C229.592 139.581 236.91 139.273 238.759 140.197C240.608 141.122 248.543 142.311 246.463 138.905C244.383 135.498 244.383 130.029 245.769 126.793C247.156 123.558 251.008 120.495 248.62 119.484C246.232 118.473 243.381 121.401 239.838 122.248C236.294 123.096 227.802 122.811 226.664 122.71Z" fill="white"/>
<path fill-rule="evenodd" clip-rule="evenodd" d="M311.5 100.029H218.548C217.177 100.029 215.937 99.4741 215.039 98.5761C214.141 97.678 213.586 96.4378 213.586 95.0676V86.0027C213.586 84.8199 214 83.7335 214.691 82.881C215.601 81.7585 216.99 81.041 218.548 81.041H311.5C312.87 81.041 314.111 81.5962 315.009 82.4943C315.906 83.392 316.462 84.6326 316.462 86.0027V95.0676C316.462 96.6728 315.7 98.0998 314.518 99.0069C313.681 99.6482 312.635 100.029 311.5 100.029Z" fill="#FC8000"/>
<path fill-rule="evenodd" clip-rule="evenodd" d="M311 98.4619H218.548C217.177 98.4619 215.937 97.9068 215.039 97.0087C214.141 96.111 213.586 94.8704 213.586 93.5003V84.4353C213.586 83.2525 214 82.1662 214.691 81.3136C215.601 80.1912 216.99 79.4736 218.548 79.4736H311C312.37 79.4736 313.611 80.0292 314.509 80.9269C315.406 81.8246 315.962 83.0652 315.962 84.4353V93.5003C315.962 95.1055 315.2 96.5324 314.018 97.4392C313.181 98.0808 312.135 98.4619 311 98.4619Z" fill="#FDA218"/>
<path fill-rule="evenodd" clip-rule="evenodd" d="M34.9317 237.495C29.1934 245.919 18.2927 253.116 15.2888 261.957C12.2849 270.797 17.7411 279.969 12.1622 288.417C7.45375 295.516 -3.71638 300.029 -10.3378 306.539C-14.4453 310.573 -16.591 315.11 -18.5161 319.733C-23.2735 321.069 -28.0433 322.492 -32.8131 323.987C-34.8238 324.613 -36.8225 325.25 -38.8333 325.913C-40.9424 326.587 -43.0391 327.286 -45.1482 327.997C-45.2339 328.022 -45.3076 328.058 -45.3933 328.083C-45.8839 328.242 -46.3618 328.414 -46.8524 328.573C-48.4466 329.113 -50.0281 329.664 -51.6219 330.217C-56.0975 331.773 -60.5729 333.38 -65.0362 335.023C-65.404 335.158 -65.7842 335.292 -66.1521 335.427C-67.8196 336.053 -69.4872 336.666 -71.1547 337.291C-72.4914 337.794 -73.8154 338.297 -75.1521 338.811C-75.618 338.983 -76.0839 339.155 -76.5498 339.339C-76.5622 339.339 -76.5622 339.339 -76.5742 339.351C-77.6044 339.744 -78.6342 340.136 -79.6641 340.528C-81.1232 341.093 -82.5703 341.644 -84.029 342.22C-84.7648 341.693 -85.4518 341.129 -86.0891 340.54C-91.2758 335.857 -93.6547 329.689 -91.9625 323.522C-90.7118 318.997 -87.5975 314.706 -84.7161 310.377C-84.4339 309.948 -84.1518 309.531 -83.8823 309.114C-83.1953 308.035 -82.5333 306.969 -81.9326 305.89C-81.7609 305.571 -81.5771 305.24 -81.4053 304.921C-81.344 304.811 -81.3073 304.7 -81.2459 304.602C-78.0089 298.275 -77.0034 291.58 -75.3725 285.033C-73.6927 278.338 -71.3631 271.827 -65.3674 266.089C-55.2514 256.414 -37.031 251.485 -26.6209 241.946C-18.43 234.43 -16.2109 225.111 -10.2027 216.834C-4.19463 208.546 9.2807 200.539 21.5054 202.991C42.8158 208.644 45.2437 222.389 34.9317 237.495Z" fill="#C0D2FF"/>
<path fill-rule="evenodd" clip-rule="evenodd" d="M60.068 278.228C60.068 278.228 50.0381 287.865 45.0475 297.245C42.6323 301.782 39.4443 305.767 35.8761 308.942C27.7099 309.764 19.4826 311.015 11.2183 312.621C10.544 312.743 9.86962 312.878 9.18293 313.026C9.0602 313.05 8.9378 313.075 8.80273 313.099C17.2264 286.075 36.5505 278.362 60.068 278.228Z" fill="#9FC3FC"/>
<path fill-rule="evenodd" clip-rule="evenodd" d="M36.4635 292.169C34.2073 293.456 26.7524 298.655 19.567 304.798C18.7089 305.522 17.8505 306.27 17.0167 307.029C14.957 308.856 12.9706 310.745 11.217 312.621C10.5427 312.743 9.86833 312.878 9.18164 313.026C11.2417 310.733 13.6816 308.366 16.232 306.085L16.2443 306.073C17.5563 304.896 18.905 303.743 20.2417 302.616C27.0342 296.975 33.7294 292.316 35.8505 291.102C36.145 290.93 36.5248 291.029 36.6842 291.323C36.8557 291.617 36.7579 291.997 36.4635 292.169Z" fill="#C0D2FF"/>
<path fill-rule="evenodd" clip-rule="evenodd" d="M16.695 307.108C16.5064 307.108 16.3239 307.02 16.2061 306.864C16.0437 306.649 16.0405 306.354 16.1979 306.136L23.0918 296.584C23.2885 296.311 23.6723 296.245 23.947 296.446C24.222 296.644 24.2837 297.027 24.0856 297.302L18.3548 305.242L36.9703 298.513C37.2892 298.397 37.6395 298.561 37.7551 298.88C37.87 299.199 37.7054 299.55 37.3869 299.665L16.9035 307.071C16.8353 307.096 16.7651 307.108 16.695 307.108Z" fill="#C0D2FF"/>
<path fill-rule="evenodd" clip-rule="evenodd" d="M212.009 309.249L265.958 298.785L265.258 295.174L211.309 305.637L212.009 309.249Z" fill="#322FE6"/>
<path fill-rule="evenodd" clip-rule="evenodd" d="M213.639 310.543L248.375 303.806C249.109 303.664 249.575 302.878 249.414 302.051L248.692 298.33C248.532 297.503 247.806 296.948 247.072 297.091L212.337 303.827C211.602 303.97 211.137 304.756 211.297 305.583L212.019 309.304C212.179 310.13 212.905 310.686 213.639 310.543Z" fill="#4152F3"/>
<path fill-rule="evenodd" clip-rule="evenodd" d="M280.775 306.552C273.884 307.888 267.189 303.376 265.853 296.485C264.516 289.594 269.04 282.899 275.931 281.563C282.822 280.226 289.517 284.738 290.854 291.63C292.19 298.52 287.666 305.215 280.775 306.552ZM296.42 290.55C294.495 280.582 284.809 274.046 274.84 275.984C265.35 277.835 258.961 286.713 260.065 296.179C260.114 296.632 260.188 297.098 260.273 297.564C260.421 298.324 260.617 299.06 260.85 299.783C263.682 308.477 272.645 313.921 281.854 312.131C291.822 310.193 298.357 300.519 296.42 290.55Z" fill="#4152F3"/>
<path fill-rule="evenodd" clip-rule="evenodd" d="M225.986 182.69C220.636 184.408 213.133 185.372 205.366 185.148C201.119 185.051 196.788 184.576 192.709 183.695C195.182 172.98 194.93 159.834 194.595 150.25C194.567 149.426 194.539 148.63 194.511 147.861C194.511 147.861 227.16 123.553 224.645 141.449C224.142 145.011 223.667 148.937 223.346 152.989C222.508 163.285 222.633 174.349 225.707 182.005C225.804 182.229 225.889 182.466 225.986 182.69Z" fill="#FDB2D0"/>
<path fill-rule="evenodd" clip-rule="evenodd" d="M225.986 182.69C225.986 182.69 223.695 178.443 222.479 175.034C221.25 171.64 220.901 158.801 221.781 153.743L223.345 152.989C222.507 163.285 222.633 174.35 225.707 182.006C225.804 182.229 225.888 182.467 225.986 182.69Z" fill="#FCCDE0"/>
<path fill-rule="evenodd" clip-rule="evenodd" d="M222.647 153.213C221.432 159.164 216.193 161.595 211.737 168.58C208.593 173.498 206.456 180.972 205.366 185.149C201.119 185.051 196.788 184.576 192.709 183.696C195.182 172.981 194.93 159.835 194.595 150.251C196.467 147.75 198.786 145.738 201.79 146.451C207.112 147.708 222.647 153.213 222.647 153.213Z" fill="#FE93BC"/>
<path fill-rule="evenodd" clip-rule="evenodd" d="M231.197 142.566C230.847 143.237 230.261 143.824 229.59 144.327C227.634 145.752 224.924 146.45 224.924 146.45L226.573 136.419C227.592 136.126 228.486 136.224 229.227 136.601C231.337 137.579 232.202 140.639 231.197 142.566Z" fill="#FDB2D0"/>
<path fill-rule="evenodd" clip-rule="evenodd" d="M229.59 144.327C227.634 145.752 224.924 146.45 224.924 146.45L226.573 136.42C227.592 136.126 228.486 136.224 229.227 136.601C229.408 137.299 229.562 138.026 230.093 138.78C230.847 139.842 230.568 142.553 229.59 144.327Z" fill="#FE93BC"/>
<path fill-rule="evenodd" clip-rule="evenodd" d="M197.055 150.516C197.055 150.516 196.915 150.53 196.663 150.53C195.629 150.572 192.835 150.558 190.893 149.342C190.488 149.105 190.139 148.811 189.832 148.462C187.904 146.255 187.96 141.142 190.81 139.829H190.824C190.949 139.773 191.075 139.731 191.201 139.689H191.215C191.48 139.605 191.759 139.549 192.067 139.535L197.055 150.516Z" fill="#FDB2D0"/>
<path fill-rule="evenodd" clip-rule="evenodd" d="M196.662 150.53C195.628 150.572 192.834 150.558 190.893 149.343C191.06 148.7 190.697 147.569 190.222 146.312C189.594 144.677 189.97 141.897 190.809 139.829H190.823C190.948 139.773 191.074 139.731 191.2 139.689H191.214C192.122 141.128 196.075 147.387 196.662 150.53Z" fill="#FE93BC"/>
<path fill-rule="evenodd" clip-rule="evenodd" d="M286.184 252.179C277.439 264.906 239.104 289.522 238.937 292.903C238.769 296.297 242.555 304.652 239.328 309.499C238.909 310.114 238.42 310.645 237.861 311.05C234.103 313.928 227.704 312.028 227.327 303.394C226.908 293.503 224.645 282.201 228.193 276.655C231.728 271.095 259.305 251.033 251.762 243.168C249.093 240.388 250.253 235.275 252.865 229.826C255.268 224.825 258.886 219.544 261.904 215.534C264.866 211.581 267.24 208.856 267.24 208.856C280.484 218.063 287.763 227.116 289.649 235.624C290.962 241.45 289.733 247.01 286.184 252.179Z" fill="#FDB2D0"/>
<path fill-rule="evenodd" clip-rule="evenodd" d="M289.65 235.624C287.61 237.873 284.565 237.007 283.447 234.241C281.477 229.351 270.524 224.112 262.254 225.328C262.254 225.328 261.737 220.647 261.905 215.534C264.866 211.58 267.241 208.856 267.241 208.856C280.485 218.063 287.764 227.116 289.65 235.624Z" fill="#FCCDE0"/>
<path fill-rule="evenodd" clip-rule="evenodd" d="M261.331 260.578C251.091 269.533 237.698 275.569 236.771 290.611C236.706 291.657 238.015 300.432 238.015 303.226C238.015 304.958 238.825 308.591 237.861 311.05C234.103 313.927 227.704 312.027 227.327 303.394C226.908 293.503 224.645 282.201 228.193 276.654C231.728 271.094 259.305 251.032 251.761 243.168C249.093 240.387 250.336 239.223 252.949 233.775C258.565 231.078 256.209 231.795 256.209 231.795C260.473 236.336 271.571 251.609 261.331 260.578Z" fill="#FE93BC"/>
<path d="M172.463 60H137.074C135.376 60 134 61.3772 134 63.0761V98.5018C134 100.201 135.376 101.578 137.074 101.578H172.463C174.16 101.578 175.536 100.201 175.536 98.5018V63.0761C175.536 61.3772 174.16 60 172.463 60Z" fill="#FF5C00"/>
<path d="M175.544 92.7153V98.4703C175.544 99.2965 175.216 100.089 174.632 100.673C174.049 101.257 173.257 101.585 172.432 101.585H137.112C136.287 101.585 135.495 101.257 134.912 100.673C134.328 100.089 134 99.2965 134 98.4703V91.7964L148.209 77.5996L158.122 87.5677L164.23 81.4545L175.544 92.7153Z" fill="url(#paint0_linear_27_29540)"/>
<path d="M158.13 79.7334C159.308 79.7334 160.262 78.7781 160.262 77.5996C160.262 76.4211 159.308 75.4658 158.13 75.4658C156.953 75.4658 155.998 76.4211 155.998 77.5996C155.998 78.7781 156.953 79.7334 158.13 79.7334Z" fill="url(#paint1_linear_27_29540)"/>
<path fill-rule="evenodd" clip-rule="evenodd" d="M267.25 208.852V208.865C266.453 214.628 264.504 220.292 262.26 225.332C260.862 228.434 259.354 231.291 257.919 233.768C254.841 239.101 252.144 242.67 251.801 243.136C251.776 243.16 251.764 243.172 251.764 243.172C251.592 242.939 251.408 242.706 251.212 242.474C251.114 242.351 251.004 242.24 250.893 242.118C250.513 241.701 250.096 241.284 249.643 240.867C248.711 240.009 247.656 239.163 246.589 238.39C243.463 236.098 240.238 234.32 239.625 233.988C239.6 233.976 239.576 233.964 239.551 233.952C239.539 233.939 239.527 233.939 239.527 233.939V233.952V233.976C239.453 234.295 238.902 236.563 238.301 240.291C237.479 245.453 236.547 253.423 236.633 262.913C236.633 263.87 236.657 264.838 236.682 265.819C236.707 266.518 236.707 267.266 236.707 268.051C236.707 268.59 236.707 269.154 236.682 269.731C236.682 269.853 236.67 270.074 236.67 270.368C236.657 270.675 236.657 270.994 236.645 271.312C236.596 273.372 236.498 275.592 236.376 277.946C236.069 284.506 235.64 291.998 235.468 299.342L235.431 300.961C235.407 302.224 235.395 303.475 235.395 304.713C235.382 305.252 235.382 305.792 235.382 306.319C235.382 308.305 235.419 310.267 235.493 312.155C235.505 312.658 235.53 313.149 235.554 313.639V313.7C235.713 317.024 236.008 320.113 236.449 322.872C219.43 320.665 202.681 318.507 186.373 316.533C173.695 315.012 161.286 313.602 149.221 312.376C151.71 301.022 156.296 278.522 156.688 275.04C156.872 273.434 157.019 271.766 157.166 270.062C157.362 267.671 157.51 265.218 157.632 262.791C157.829 259.235 157.939 255.716 158.025 252.491C158.172 246.569 158.184 241.627 158.233 239.237C158.221 238.954 158.233 238.672 158.245 238.464C158.233 238.256 158.245 238.059 158.258 237.875C158.258 237.814 158.258 237.753 158.233 237.704C158.233 237.642 158.209 237.593 158.172 237.532C158.147 237.471 158.123 237.422 158.074 237.36C158.025 237.287 157.963 237.201 157.89 237.127C157.706 236.931 157.448 236.711 157.13 236.477C156.811 236.232 156.443 235.975 156.014 235.68C155.413 235.276 154.69 234.81 153.905 234.271C153.893 234.258 153.88 234.258 153.88 234.258C152.752 233.498 151.465 232.578 150.104 231.475C145.763 227.944 140.601 222.45 136.996 213.45C140.307 210.213 144.696 205.517 148.914 200.846C149.27 200.453 149.613 200.061 149.969 199.681C151.722 197.731 153.439 195.818 155.02 194.04C155.646 193.317 156.259 192.63 156.847 191.968C157.963 190.693 158.981 189.54 159.864 188.511C162.696 196.162 167 201.545 173.106 202.44C173.523 202.513 173.989 202.55 174.431 202.575H174.504C174.811 202.587 175.13 202.587 175.461 202.575C182.18 202.305 186.618 198.491 189.512 192.827C190.898 190.154 191.94 187.039 192.713 183.692C193.804 183.925 194.919 184.133 196.047 184.317C196.44 184.378 196.844 184.44 197.237 184.489L197.458 184.525C197.96 184.587 198.475 184.661 198.978 184.71C199.444 184.771 199.922 184.82 200.388 184.857C200.597 184.881 200.818 184.894 201.026 184.918C201.406 184.942 201.786 184.979 202.166 185.004C203.233 185.077 204.299 185.126 205.366 185.151C206.078 185.175 206.789 185.188 207.488 185.188C214.489 185.188 221.135 184.244 225.99 182.687C226.836 184.587 227.854 186.267 229.129 187.615C229.129 187.628 229.154 187.628 229.154 187.628C229.264 187.75 229.374 187.873 229.497 187.996C230.196 188.719 230.968 189.344 231.827 189.859C232.611 190.337 233.457 190.718 234.377 191.012C235.799 191.453 237.234 191.981 238.718 192.594C239.429 192.888 240.14 193.194 240.851 193.501C241.01 193.575 241.158 193.636 241.305 193.697C241.685 193.869 242.065 194.053 242.457 194.225C254.473 199.816 266.735 208.485 267.238 208.852H267.25Z" fill="#4152F3"/>
<path fill-rule="evenodd" clip-rule="evenodd" d="M194.625 145.636C192.573 151.258 192.37 161.851 196.196 161.465C200.022 161.079 203.366 158.166 206.736 159.136C210.107 160.106 212.975 158.097 215.115 160.426C217.254 162.754 219.951 160.907 221.185 159.503C222.419 158.097 221.662 154.933 223.923 153.642C226.184 152.352 225.746 145.788 225.333 143.945C224.92 142.103 194.625 145.636 194.625 145.636Z" fill="#040078"/>
<path fill-rule="evenodd" clip-rule="evenodd" d="M262.26 225.332C260.862 228.434 259.354 231.291 257.919 233.768C254.841 239.101 252.144 242.669 251.801 243.135C251.776 243.16 251.764 243.172 251.764 243.172C251.592 242.939 251.408 242.706 251.212 242.473C251.114 242.35 251.004 242.24 250.893 242.118C250.513 241.701 250.096 241.284 249.643 240.867C248.711 240.009 247.656 239.163 246.589 238.39C243.463 236.097 240.238 234.32 239.625 233.988C239.6 233.976 239.576 233.964 239.552 233.951C239.539 233.939 239.527 233.939 239.527 233.939V233.951V233.976C239.453 234.295 238.902 236.563 238.301 240.291C237.479 245.453 236.547 253.423 236.633 262.913C236.633 263.87 236.658 264.838 236.682 265.819C236.707 266.518 236.707 267.266 236.707 268.051C236.707 268.59 236.707 269.154 236.682 269.731C236.682 269.853 236.67 270.074 236.67 270.368C236.658 270.675 236.658 270.994 236.645 271.312C236.596 273.372 236.498 275.591 236.376 277.946C236.069 284.506 235.64 291.998 235.468 299.342L235.431 300.961C235.407 302.224 235.395 303.474 235.395 304.713C235.382 305.252 235.382 305.791 235.382 306.319C235.382 308.305 235.419 310.267 235.493 312.155C235.505 312.658 235.53 313.149 235.554 313.639V313.7C235.358 313.7 235.174 313.173 235.002 312.241C234.781 310.966 234.573 308.943 234.377 306.515C234.328 306.012 234.291 305.485 234.254 304.933C234.168 303.768 234.083 302.518 234.009 301.23C233.972 300.715 233.948 300.176 233.911 299.636C233.335 290.023 232.869 279.037 232.231 279.675C230.723 281.171 229.166 282.164 227.608 282.875C227.18 283.083 226.763 283.255 226.333 283.39C219.663 285.842 213.067 284.003 210.259 293.15C206.973 303.83 209.633 303.462 210.197 303.278C210.197 303.29 210.185 303.29 210.185 303.29C208.91 303.867 195.055 310.255 186.373 316.533C173.695 315.012 161.286 313.602 149.221 312.376C151.71 301.022 156.296 278.522 156.688 275.04C156.872 273.434 157.019 271.766 157.167 270.062C157.363 267.671 157.51 265.218 157.632 262.791C157.829 259.235 157.939 255.716 158.025 252.491C158.172 246.569 158.184 241.627 158.233 239.236C158.221 238.954 158.233 238.672 158.245 238.464C158.233 238.255 158.245 238.059 158.258 237.875C158.258 237.814 158.258 237.752 158.233 237.703C158.233 237.642 158.209 237.593 158.172 237.532C158.147 237.471 158.123 237.422 158.074 237.36C158.025 237.287 157.964 237.201 157.89 237.127C157.706 236.931 157.448 236.711 157.13 236.477C156.811 236.232 156.443 235.975 156.014 235.68C155.413 235.276 154.69 234.81 153.905 234.27C153.893 234.258 153.88 234.258 153.88 234.258C152.752 233.498 151.465 232.578 150.104 231.475C145.763 227.943 140.601 222.45 136.996 213.45C140.307 210.213 144.696 205.517 148.914 200.846C153.758 218.87 162.929 224.191 163.702 226.386C164.499 228.569 161.985 240.524 162.757 243.847C163.543 247.169 164.069 252.491 165.553 249.254C167.037 246.029 168.435 237.973 170.605 231.708C172.076 227.477 172.922 215.988 173.315 208.962C173.437 206.706 173.523 204.904 173.56 203.96C173.572 203.494 173.584 203.237 173.584 203.237C173.584 203.237 173.867 203.028 174.381 202.66C174.418 202.636 174.455 202.611 174.504 202.575C174.811 202.587 175.13 202.587 175.461 202.575C182.18 202.305 186.618 198.491 189.512 192.826C190.787 193.292 192.541 211.366 193.228 221.543C193.914 231.708 203 233.547 208.248 230.163C212.564 227.392 222.974 200.919 227.928 190.889C227.928 190.877 227.928 190.877 227.94 190.865C228.148 190.436 228.356 190.043 228.541 189.675C228.908 188.988 229.227 188.425 229.497 187.995C229.546 187.91 229.595 187.836 229.644 187.762C229.889 187.395 230.085 187.174 230.245 187.088C232.293 186.034 238.583 190.803 240.851 193.501C241.342 194.089 241.636 194.58 241.66 194.887C241.685 195.279 241.476 196.652 241.108 198.651C240.973 199.374 240.814 200.171 240.643 201.042C239.159 208.57 236.4 220.881 235.027 226.558C233.041 234.712 241.207 228.373 241.771 227.146C241.771 227.146 247.472 219.275 250.611 221.261C251.629 221.899 253.64 223.149 256.031 224.106C257.968 224.878 260.151 225.442 262.26 225.332Z" fill="#322FE6"/>
<path fill-rule="evenodd" clip-rule="evenodd" d="M159.809 188.375C159.823 188.417 159.837 188.473 159.865 188.515C158.985 189.535 157.965 190.695 156.847 191.966C154.514 194.634 151.748 197.736 148.912 200.851C144.693 205.517 140.306 210.211 136.995 213.452C136.87 213.159 136.744 212.852 136.632 212.544C135.068 208.395 133.824 203.547 133.14 197.819C130.08 172.421 137.359 125.271 146.356 106.621C148.815 101.535 151.385 98.5738 153.914 98.7274C156.75 98.9089 158.719 99.5238 159.991 100.683C164.056 104.33 161.248 113.396 157.462 131.418C154.221 146.772 153.9 172.421 159.809 188.375Z" fill="#FDB2D0"/>
<path fill-rule="evenodd" clip-rule="evenodd" d="M159.809 188.376C159.823 188.418 159.837 188.474 159.865 188.515C158.985 189.535 157.965 190.695 156.848 191.966C154.738 186.252 151.637 173.847 150.966 163.69C150.156 151.466 153.76 124.573 155.967 117.476C157.867 111.371 160.536 104.973 159.991 100.684C164.056 104.33 161.248 113.397 157.462 131.418C154.221 146.772 153.9 172.422 159.809 188.376Z" fill="#FCCDE0"/>
<path fill-rule="evenodd" clip-rule="evenodd" d="M148.912 200.851C144.693 205.518 140.306 210.211 136.995 213.453C136.87 213.159 136.744 212.852 136.632 212.544C135.068 208.395 133.824 203.547 133.14 197.82C130.08 172.422 137.359 125.271 146.356 106.621C132.43 170.908 143.701 179.169 148.912 200.851Z" fill="#FE93BC"/>
<path fill-rule="evenodd" clip-rule="evenodd" d="M174.436 202.57C173.807 203.799 172.634 205.49 170.958 205.434C168.345 205.336 159.432 197.918 156.848 191.966C157.965 190.695 158.985 189.535 159.865 188.516C162.701 196.158 167.004 201.55 173.109 202.444C173.529 202.514 173.989 202.556 174.436 202.57Z" fill="#86A8FF"/>
<path fill-rule="evenodd" clip-rule="evenodd" d="M267.255 208.856C258.593 205.391 260.2 210.141 250.323 206.132C240.46 202.108 238.28 200.712 238.545 193.726C238.545 193.726 230.89 191.519 228.738 189.842C226.573 188.166 225.986 182.689 225.986 182.689C226.908 184.771 228.054 186.573 229.492 187.998C230.848 189.381 232.468 190.415 234.382 191.016C235.793 191.449 237.232 191.98 238.713 192.595C239.426 192.888 240.138 193.195 240.851 193.502C253.605 199.147 267.255 208.856 267.255 208.856Z" fill="#86A8FF"/>
<path fill-rule="evenodd" clip-rule="evenodd" d="M191.807 143.168C192.749 148.101 196.141 160.275 208.629 160.168C227.421 160.008 228.35 137.964 228.35 137.964L191.807 143.168Z" fill="#EA6F00"/>
<path fill-rule="evenodd" clip-rule="evenodd" d="M228.346 137.957C227.802 138.432 216.276 146.018 210.381 146.926C204.485 147.834 192.988 144.509 191.8 143.168C190.92 142.148 190.319 135.806 192.359 129.491C193.449 126.054 195.32 122.631 198.352 120.075C206.93 112.838 218.986 113.802 224.658 121.542C230.33 129.267 228.892 137.496 228.346 137.957Z" fill="#FDA218"/>
<path fill-rule="evenodd" clip-rule="evenodd" d="M249.638 240.863C249.554 242.958 246.704 251.816 241.605 261.427V261.441C241.591 261.455 241.591 261.456 241.591 261.469C240.124 264.207 238.49 267.002 236.688 269.726C226.531 285.037 214.279 301.467 210.298 303.241C203.131 306.426 171.683 300.796 168.428 292.414C166.026 286.253 158.3 274.825 154.989 264.278C153.368 259.164 152.935 253.436 153.005 247.974C153.047 242.945 153.536 238.153 153.885 234.255C153.885 234.255 154.947 234.842 156.037 235.582C156.414 235.848 156.805 236.127 157.14 236.406C157.797 236.951 158.286 237.482 158.258 237.873C158.244 238.055 158.23 238.251 158.244 238.46C158.202 238.712 158.202 238.977 158.23 239.243C158.384 247.01 164.628 260.799 165.397 260.868C166.235 260.868 165.872 247.75 170.273 237.51C172.172 233.095 172.969 225.733 173.234 218.58C173.458 212.349 173.29 206.286 173.108 202.444C173.066 201.494 173.025 200.67 172.983 200.028C172.941 199.301 172.913 198.77 172.885 198.505C172.648 195.906 173.541 196.297 175.93 195.194C179.703 193.853 184.005 189.885 187.764 190.611C188.518 190.751 189.09 191.562 189.51 192.833C189.58 193.056 189.649 193.28 189.705 193.503C190.292 195.613 190.557 198.672 190.669 201.969C190.683 202.025 190.683 202.081 190.669 202.137C190.865 207.278 190.669 212.978 190.669 216.596C190.655 224.378 190.753 236.267 204.22 235.177C209.012 234.786 213.245 229.379 216.808 222.366C216.836 222.296 216.864 222.227 216.92 222.143C223.304 209.444 227.467 191.631 228.655 188.656C228.808 188.265 228.962 187.929 229.13 187.622C229.675 186.588 230.275 186.015 230.862 185.75C232.245 185.135 233.642 186.183 234.522 187.398C235.919 189.298 241.787 187.384 242.653 190.919C242.849 191.743 242.779 192.833 242.486 194.118C242.094 195.976 241.298 198.239 240.348 200.656C240.334 200.656 240.334 200.656 240.334 200.67C238.853 204.484 236.981 208.703 235.724 212.349C231.812 223.749 225.833 254.973 228.78 255.755C231.672 256.482 239.133 235.079 239.524 233.976V233.948C239.524 233.948 243.324 235.303 246.621 237.859C247.738 238.726 248.814 239.731 249.638 240.863Z" fill="#FDA218"/>
<path fill-rule="evenodd" clip-rule="evenodd" d="M189.509 192.832C187.316 191.602 182.231 194.187 181.644 195.067C181.057 195.933 178.151 197.68 176.224 197.386C174.589 197.149 173.737 198.183 172.982 200.027C172.94 199.3 172.913 198.77 172.885 198.504C172.647 195.905 173.541 196.297 175.93 195.193C179.702 193.852 184.005 189.884 187.763 190.61C188.517 190.75 189.09 191.561 189.509 192.832Z" fill="#FFBE71"/>
<path fill-rule="evenodd" clip-rule="evenodd" d="M242.485 194.118C242.024 193.992 241.479 193.783 240.85 193.503C238.755 192.539 235.22 194.691 233.39 192.763C231.56 190.849 232.342 188.306 229.129 187.622C229.674 186.588 230.275 186.015 230.861 185.75C232.244 185.135 233.642 186.183 234.522 187.398C235.919 189.298 241.786 187.384 242.652 190.919C242.848 191.743 242.778 192.833 242.485 194.118Z" fill="#FFBE71"/>
<path fill-rule="evenodd" clip-rule="evenodd" d="M156.037 235.582C155.171 238.628 153.593 243.126 153.523 246.172C153.509 246.898 153.313 247.527 153.006 247.974C153.048 242.944 153.537 238.153 153.886 234.255C153.886 234.255 154.948 234.842 156.037 235.582Z" fill="#FFBE71"/>
<path fill-rule="evenodd" clip-rule="evenodd" d="M249.638 240.863C249.554 242.958 246.704 251.815 241.605 261.427V261.441C241.591 261.455 241.591 261.455 241.591 261.469C240.124 264.207 238.49 267.001 236.688 269.725C226.531 285.037 214.279 301.466 210.298 303.241C203.131 306.426 171.683 300.796 168.428 292.414C166.026 286.253 158.3 274.825 154.989 264.277C153.368 259.164 152.935 253.436 153.005 247.974C156.274 269.209 163.458 265.063 171.637 283.341C175.495 291.962 186.008 284.069 198.581 285.815C211.154 287.561 212.784 285.233 223.612 277.382C234.439 269.516 244.818 249.916 245.405 246.968C245.992 244.02 238.714 240.262 238.197 240.262C237.665 240.262 236.8 243.713 233.74 252.877C230.68 262.056 227.453 260.659 225.581 257.376C223.695 254.107 228.068 235.47 229.633 229.617C231.155 223.945 235.067 207.543 240.334 200.67C238.853 204.484 236.981 208.703 235.724 212.349C231.812 223.749 225.833 254.973 228.78 255.755C231.672 256.482 239.133 235.079 239.524 233.975V233.948C239.524 233.948 243.324 235.303 246.621 237.859C247.738 238.725 248.814 239.731 249.638 240.863Z" fill="#FC8000"/>
<path fill-rule="evenodd" clip-rule="evenodd" d="M249.638 240.863C249.554 242.958 246.704 251.816 241.605 261.427C241.647 261.092 242.122 258.228 243.338 255.28C244.455 252.598 246.146 244.174 246.621 237.859C247.738 238.726 248.814 239.731 249.638 240.863Z" fill="#FFBE71"/>
<path fill-rule="evenodd" clip-rule="evenodd" d="M181.191 262.166C180.303 268.118 180.155 283.114 176.228 283.835C172.301 284.556 169.893 279.163 165.668 273C161.443 266.838 163.072 280.11 168.428 286.746C173.783 293.382 178.323 299.756 185.425 294.473C192.527 289.19 198.557 288.033 195.437 279.298C192.318 270.562 181.191 262.166 181.191 262.166Z" fill="#FC8000"/>
<path fill-rule="evenodd" clip-rule="evenodd" d="M216.808 222.366C214.028 228.304 211.402 233.123 210.103 235.582C206.848 241.743 203.187 239.829 201.315 238.558C199.457 237.3 197.892 238.125 195.057 237.566C192.221 236.993 189.552 229.882 189.51 223.497C189.482 219.097 190.768 210.002 190.67 202.137C190.865 207.278 190.67 212.978 190.67 216.596C190.656 224.378 190.754 236.267 204.221 235.177C209.013 234.786 213.246 229.379 216.808 222.366Z" fill="#FC8000"/>
<path fill-rule="evenodd" clip-rule="evenodd" d="M210.95 268.554C205.222 268.646 191.39 267.338 181.191 262.167C181.448 256.42 182.314 251.576 184.019 251.048C196.051 247.365 209.545 251.167 211.124 254.45C212.42 257.161 211.827 262.647 210.95 268.554Z" fill="#FC8000"/>
<path fill-rule="evenodd" clip-rule="evenodd" d="M210.95 268.554C210.769 269.836 210.562 271.148 210.367 272.445C209.244 279.722 208.145 293.542 198.754 294.409C189.364 295.276 183.563 287.205 182.063 279.01C181.304 274.871 180.942 268.039 181.192 262.166C191.391 267.337 205.222 268.645 210.95 268.554Z" fill="#E8740C"/>
<path fill-rule="evenodd" clip-rule="evenodd" d="M191.191 267.741C191.336 270.379 193.592 272.399 196.23 272.253C198.867 272.108 200.887 269.852 200.742 267.215C200.597 264.578 198.341 262.557 195.703 262.703C193.066 262.848 191.046 265.104 191.191 267.741Z" fill="#914B0C"/>
<path fill-rule="evenodd" clip-rule="evenodd" d="M169.044 244.104C167.032 250.656 167.996 263.844 167.032 264.78C166.068 265.716 163.191 263.579 159.88 257.641C156.778 252.095 156.638 241.617 157.141 236.406C157.798 236.951 158.287 237.482 158.259 237.873C158.245 238.055 158.231 238.251 158.245 238.46C158.203 238.712 158.203 238.977 158.231 239.242C158.385 247.01 164.63 260.799 165.398 260.868C166.236 260.868 165.873 247.75 170.274 237.51C172.173 233.095 172.97 225.733 173.235 218.58C173.654 229.687 170.846 238.264 169.044 244.104Z" fill="#FC8000"/>
<path fill-rule="evenodd" clip-rule="evenodd" d="M205.329 116.146C205.101 117.705 205.581 121.365 210.122 120.884C213.166 120.562 213.483 115.9 213.483 115.9L205.329 116.146Z" fill="#FC8000"/>
<path fill-rule="evenodd" clip-rule="evenodd" d="M213.763 115.23C213.884 117.429 212.083 119.316 209.739 119.445C207.396 119.574 205.398 117.896 205.277 115.697C205.156 113.499 206.958 111.611 209.301 111.483C211.644 111.354 213.642 113.032 213.763 115.23Z" fill="#FDA218"/>
<path fill-rule="evenodd" clip-rule="evenodd" d="M228.346 137.956C227.802 138.431 216.276 146.018 210.381 146.926C204.485 147.833 192.988 144.508 191.8 143.168C190.92 142.148 190.319 135.805 192.359 129.49C194.524 127.549 196.983 125.243 197.5 123.26C198.352 120.074 206.176 120.759 204.751 123.008C201.454 128.177 202.543 135.4 206.176 134.184C209.808 132.955 219.503 131.642 222.646 132.089C225.79 132.522 224.1 138.515 228.346 137.956Z" fill="#FC8000"/>
<path fill-rule="evenodd" clip-rule="evenodd" d="M96.0311 243.135C96.0925 243.466 95.8717 243.785 95.5285 243.834C95.5162 243.834 95.5038 243.834 95.4915 243.846C86.4181 245.379 77.8474 247.463 69.8282 250.075C66.4441 251.178 63.1581 252.368 59.9701 253.655C44.5821 259.848 31.5723 268.136 21.2974 278.252C20.2551 279.27 19.2376 280.312 18.2444 281.379C10.6912 289.496 4.81781 298.692 0.78404 308.82C0.24443 310.181 -0.258492 311.554 -0.736414 312.952C-1.00622 313.749 -1.27602 314.546 -1.50914 315.355C-1.96271 315.453 -2.42862 315.564 -2.89453 315.686C-1.28836 310.34 0.78404 305.227 3.30969 300.359C4.33988 298.373 5.45547 296.424 6.64475 294.523C13.0087 284.248 21.5548 275.199 32.0139 267.572C34.1107 266.027 36.2931 264.556 38.5493 263.146C54.0233 253.41 73.0775 246.421 95.124 242.669C95.1974 242.657 95.2587 242.644 95.3324 242.632C95.6633 242.571 95.9821 242.791 96.0311 243.135Z" fill="#4152F3"/>
<path fill-rule="evenodd" clip-rule="evenodd" d="M70.9727 248.423C79.4886 236.886 93.1295 225.442 110.602 221.61C110.602 221.61 97.5551 240.443 70.9727 248.423Z" fill="#4152F3"/>
<path fill-rule="evenodd" clip-rule="evenodd" d="M93.4238 243.503C106.22 237.032 123.551 232.95 140.879 237.389C140.879 237.389 120.754 248.337 93.4238 243.503Z" fill="#4152F3"/>
<path fill-rule="evenodd" clip-rule="evenodd" d="M58.8242 253.336C72.2236 248.23 89.8853 245.971 106.658 252.188C106.658 252.188 85.5038 260.985 58.8242 253.336Z" fill="#4152F3"/>
<path fill-rule="evenodd" clip-rule="evenodd" d="M31.7715 268.266C36.4767 254.721 46.103 239.742 61.6491 230.894C61.6491 230.894 54.7841 252.751 31.7715 268.266Z" fill="#4152F3"/>
<path fill-rule="evenodd" clip-rule="evenodd" d="M17.123 281.448C28.1899 272.33 44.2055 264.549 62.0854 265.084C62.0854 265.084 44.8484 280.176 17.123 281.448Z" fill="#4152F3"/>
<path fill-rule="evenodd" clip-rule="evenodd" d="M3.3226 300.464C2.02682 286.183 4.6239 268.568 15.1414 254.099C15.1414 254.099 17.8953 276.843 3.3226 300.464Z" fill="#4152F3"/>
<path fill-rule="evenodd" clip-rule="evenodd" d="M-1.92773 313.54C4.77194 300.863 16.5528 287.512 33.2583 281.116C33.2583 281.116 23.1667 301.684 -1.92773 313.54Z" fill="#4152F3"/>
<path fill-rule="evenodd" clip-rule="evenodd" d="M50.9562 202.992C50.9439 203.004 50.9319 203.004 50.9195 203.004C39.7494 208.791 29.4617 215.081 20.1309 221.801C16.2072 224.633 12.4429 227.527 8.86272 230.519C-8.58566 244.975 -22.0486 261.184 -31.1957 278.596C-31.1957 278.608 -31.2081 278.608 -31.2081 278.62C-32.1275 280.361 -32.9983 282.103 -33.8194 283.868C-40.2324 297.54 -44.0334 311.91 -45.0512 326.722C-45.0879 327.152 -45.1126 327.568 -45.1493 327.997C-45.235 328.022 -45.3087 328.059 -45.3944 328.083C-45.885 328.243 -46.3633 328.414 -46.8535 328.574C-46.6084 323.902 -46.0934 319.28 -45.2964 314.694C-44.7814 311.616 -44.1318 308.563 -43.359 305.534C-39.3373 289.607 -32.0295 274.366 -21.6441 260.155C-19.523 257.249 -17.2788 254.392 -14.8879 251.571C-14.8879 251.559 -14.8756 251.547 -14.8636 251.535C-5.04183 239.898 6.94973 229.035 20.977 219.152C21.4673 218.821 21.9455 218.478 22.4238 218.147C30.8965 212.261 40.0926 206.744 49.9877 201.618C50.0611 201.582 50.1225 201.545 50.1962 201.508C50.6007 201.287 51.1033 201.459 51.3241 201.876C51.5325 202.281 51.3731 202.783 50.9562 202.992Z" fill="#4152F3"/>
<path fill-rule="evenodd" clip-rule="evenodd" d="M20.9785 219.15C27.2435 200.634 40.2016 180.109 61.2961 167.876C61.2961 167.876 52.1782 197.747 20.9785 219.15Z" fill="#4152F3"/>
<path fill-rule="evenodd" clip-rule="evenodd" d="M48.084 203.438C62.0103 189.721 82.8174 177.221 107.16 175.788C107.16 175.788 85.5772 198.363 48.084 203.438Z" fill="#4152F3"/>
<path fill-rule="evenodd" clip-rule="evenodd" d="M7.24609 230.576C22.523 218.381 44.5165 208.112 68.8766 209.217C68.8766 209.217 45.0639 229.426 7.24609 230.576Z" fill="#4152F3"/>
<path fill-rule="evenodd" clip-rule="evenodd" d="M-35.2227 284.399C-24.6405 267.964 -7.0785 251.208 16.3588 244.476C16.3588 244.476 0.24715 271.23 -35.2227 284.399Z" fill="#4152F3"/>
<path fill-rule="evenodd" clip-rule="evenodd" d="M403.413 341.387C398.95 341.08 394.463 340.749 389.962 340.393C388.626 340.283 387.277 340.173 385.928 340.063C382.986 339.817 380.03 339.572 377.076 339.315C376.364 339.254 375.665 339.192 374.954 339.131C374.378 339.069 373.79 339.02 373.213 338.971C373.262 338.444 373.299 337.892 373.348 337.328C373.397 336.678 373.446 336.004 373.495 335.305C373.508 335.219 373.52 335.145 373.52 335.06C373.556 334.643 373.581 334.226 373.618 333.797C373.703 332.644 373.789 331.455 373.875 330.229C374.219 325.189 374.574 319.5 374.881 313.455C374.967 311.874 375.04 310.279 375.114 308.661C375.555 298.754 375.825 288.147 375.69 278.056C375.616 271.521 375.384 265.194 374.917 259.419C374.255 251.314 374.145 242.142 374.317 232.579C374.341 231.267 374.366 229.955 374.402 228.63C374.427 227.465 374.464 226.288 374.501 225.099V225.086C374.574 222.585 374.672 220.084 374.783 217.558V217.546C374.832 216.319 374.881 215.093 374.93 213.867C374.942 213.659 374.954 213.45 374.967 213.254V213.242C375.151 209.147 375.359 205.064 375.567 201.03C375.997 192.765 376.45 184.734 376.757 177.328V177.316C376.781 176.691 376.818 176.078 376.842 175.464V175.452C377.309 163.644 377.37 153.614 376.377 147.128C375.052 138.459 376.965 119.012 379.234 98.8668C379.283 98.413 379.332 97.9717 379.381 97.5178C379.393 97.3831 379.417 97.2483 379.43 97.1133C379.442 97.0152 379.454 96.9172 379.454 96.8315C379.552 95.9854 379.651 95.1393 379.749 94.2931C379.896 93.0305 380.03 91.7795 380.178 90.5289C380.19 90.5165 380.178 90.5165 380.178 90.5165C380.926 83.9324 381.674 77.4337 382.311 71.3396C382.409 70.4448 382.495 69.5617 382.581 68.6912V68.6789C383.415 60.5373 384.003 53.2909 384.102 47.81C388.503 47.16 392.881 46.5104 397.221 45.8604C397.258 47.3194 397.27 48.8522 397.27 50.4217C397.27 50.4217 397.282 50.4217 397.27 50.4337C397.27 50.8876 397.27 51.3412 397.258 51.8071C397.27 52.0279 397.258 52.2487 397.258 52.4691C397.258 53.1805 397.246 53.8915 397.234 54.6149V54.9094C397.209 55.7678 397.197 56.6383 397.172 57.5087V57.5211C396.767 71.9529 395.186 88.187 392.243 97.0766C390.723 101.675 390.306 107.707 390.453 114.439V114.451C390.477 115.297 390.502 116.143 390.539 117.014V117.026C391.066 129.557 393.236 144.087 393.763 156.189C393.801 156.925 393.825 157.648 393.849 158.372C393.96 162.725 393.825 166.71 393.285 170.106C391.716 179.866 391.961 198.442 393.101 216.7C394.156 233.657 395.97 250.357 397.81 259.505C399.612 268.48 401.071 290.428 402.114 311.052C402.383 316.618 402.641 322.087 402.862 327.188C403.082 332.411 403.266 337.255 403.413 341.387Z" fill="#C0D2FF"/>
<path fill-rule="evenodd" clip-rule="evenodd" d="M399.735 138.582C399.747 138.839 399.759 139.109 399.759 139.379C399.809 141.292 399.661 143.254 399.281 145.277C398.362 150.218 396.4 154.497 393.849 158.372C390.355 163.705 385.769 168.267 381.281 172.742C379.736 174.275 378.216 175.795 376.757 177.316V177.328C373.152 181.092 369.989 184.881 367.916 189.173C364.643 195.966 367.389 205.272 370.981 215.314C371.313 216.234 371.656 217.166 371.987 218.098C372.024 218.195 372.073 218.306 372.11 218.417C372.159 218.551 372.208 218.686 372.257 218.821C372.293 218.919 372.33 219.03 372.367 219.128C373.091 221.102 373.814 223.1 374.501 225.087V225.099C375.212 227.146 375.899 229.206 376.487 231.242C378.351 237.581 379.467 243.773 378.559 249.401L377.358 249.205C378.204 243.896 377.174 237.986 375.42 231.916C375.102 230.825 374.758 229.734 374.403 228.63C373.422 225.602 372.318 222.561 371.215 219.544C366.936 207.81 362.902 196.738 366.813 188.645C367.083 188.081 367.377 187.53 367.671 186.99C367.72 186.917 367.757 186.843 367.806 186.769C367.867 186.647 367.941 186.536 368.002 186.414C368.664 185.286 369.4 184.182 370.197 183.103C370.197 183.103 370.209 183.103 370.197 183.091C372.122 180.455 374.403 177.966 376.842 175.464V175.452C378.007 174.263 379.209 173.073 380.411 171.872C385.279 167.029 390.245 162.087 393.763 156.189C395.775 152.83 397.307 149.163 398.08 145.043C398.46 142.984 398.607 140.997 398.533 139.035C398.521 138.803 398.509 138.557 398.497 138.312C398.497 138.251 398.484 138.19 398.484 138.128C398.386 136.62 398.153 135.136 397.834 133.677C396.571 127.951 393.751 122.519 390.539 117.026V117.014C389.73 115.628 388.896 114.243 388.062 112.845C385.426 108.443 382.728 103.955 380.472 99.112C380.386 98.9282 380.301 98.7318 380.215 98.548C380.055 98.2169 379.908 97.8737 379.761 97.5425C379.663 97.2974 379.553 97.0643 379.455 96.8315C378.657 94.9552 377.946 93.0305 377.333 91.0438C376.512 88.3831 376.279 85.8084 376.5 83.3194C376.953 78.1818 379.356 73.3506 382.581 68.6912V68.6789C385.07 65.0987 388.025 61.6165 390.956 58.1711C393.175 55.547 395.37 52.972 397.27 50.4337C397.282 50.4217 397.27 50.4217 397.27 50.4217C398.558 48.7172 399.723 47.0253 400.691 45.3454C401.206 45.2594 401.709 45.186 402.212 45.1123C401.206 46.9883 399.968 48.8643 398.582 50.7406C398.153 51.3169 397.712 51.8931 397.258 52.4691C396.461 53.487 395.628 54.5172 394.769 55.547L394.401 55.9883C394.279 56.1233 394.168 56.2704 394.046 56.4055C393.334 57.2513 392.611 58.0974 391.888 58.9558C388.454 63.0019 384.972 67.1094 382.311 71.3399C379.565 75.7172 377.689 80.2415 377.652 84.999C377.64 86.8506 377.897 88.7509 378.498 90.6883C378.878 91.9146 379.295 93.1162 379.749 94.2931C380.215 95.4948 380.705 96.672 381.232 97.8367C383.525 102.913 386.358 107.609 389.117 112.207C389.57 112.955 390.012 113.703 390.453 114.439V114.451C394.585 121.379 398.3 128.123 399.429 135.48C399.563 136.375 399.661 137.27 399.71 138.177C399.723 138.312 399.735 138.447 399.735 138.582Z" fill="#9FC3FC"/>
<path fill-rule="evenodd" clip-rule="evenodd" d="M447.873 343.52C433.295 343.164 418.446 342.417 403.413 341.387C398.95 341.08 394.462 340.749 389.962 340.393C388.626 340.283 387.277 340.173 385.928 340.063C382.986 339.817 380.031 339.572 377.075 339.314C376.364 339.253 375.666 339.192 374.954 339.13C374.378 339.069 373.789 339.02 373.213 338.971C372.833 338.934 372.441 338.898 372.06 338.861C366.911 338.395 361.736 337.892 356.562 337.377C346.361 336.359 336.134 335.244 325.909 334.066C322.647 330.462 322.218 327.016 327.932 325.765C327.932 325.765 325.369 317.599 336.294 315.466C338.01 315.135 339.984 315.404 342.118 316.14C347.182 317.857 353.202 322.173 358.941 327.139V327.151C359.112 327.286 359.284 327.433 359.444 327.58C359.444 327.58 359.444 327.592 359.456 327.592C363.441 331.087 367.291 334.864 370.577 338.284C370.7 338.137 370.834 337.978 370.97 337.831C371.398 337.328 371.865 336.813 372.355 336.286C372.686 335.93 373.029 335.562 373.397 335.194C373.421 335.145 373.471 335.097 373.52 335.06C373.642 334.925 373.765 334.802 373.912 334.667C374.231 334.324 374.586 333.968 374.942 333.625C380.018 328.586 386.529 323.154 391.9 318.887C397.663 314.301 402.114 311.052 402.114 311.052C406.111 307.545 408.612 310.034 410.733 313.394C413.186 317.231 415.147 322.21 418.323 320.615C424.27 317.624 433.025 316.655 433.209 322.786C433.393 328.916 440.872 327.421 446.046 331.602C449.566 334.435 455.929 339.057 447.873 343.52Z" fill="#4152F3"/>
<path fill-rule="evenodd" clip-rule="evenodd" d="M410.734 313.394C409.005 318.237 406.443 322.884 402.863 327.188C400.95 329.493 398.755 331.7 396.229 333.785C394.01 336.47 391.95 338.714 389.963 340.393C388.627 340.283 387.278 340.173 385.929 340.063C382.987 339.817 380.032 339.572 377.077 339.315C376.366 339.253 375.666 339.192 374.955 339.131C374.379 339.069 373.791 339.02 373.214 338.971C372.834 338.934 372.442 338.898 372.062 338.861C371.706 338.542 371.338 338.199 370.97 337.831C368.739 335.648 366.323 332.816 363.613 329.272C363 328.451 362.351 327.58 361.701 326.673C360.634 325.214 359.53 323.644 358.378 321.977C347.526 306.172 348.605 282.47 354.467 263.391C358.905 248.898 366.09 237.066 372.908 233.375C373.386 233.118 373.852 232.848 374.318 232.578C374.686 232.37 375.053 232.149 375.421 231.916C375.777 231.695 376.132 231.475 376.488 231.242C382.999 227.024 388.774 221.457 393.102 216.7C397.32 212.077 400.141 208.203 400.937 207.099C399.38 209.551 389.853 225.969 400.374 246.74C408.956 263.722 418.876 290.734 410.734 313.394Z" fill="#9FC3FC"/>
<path fill-rule="evenodd" clip-rule="evenodd" d="M391.9 318.887C391.79 320.383 391.569 321.879 391.238 323.35C389.51 330.989 387.805 336.396 385.929 340.063C382.986 339.817 380.031 339.572 377.076 339.315C376.365 339.254 375.666 339.192 374.955 339.131C374.379 339.07 373.79 339.02 373.214 338.971C372.834 338.934 372.441 338.898 372.061 338.861C366.911 338.395 361.737 337.892 356.563 337.377C349.243 332.031 344.755 324.417 342.119 316.14C338.318 304.222 338.33 290.931 339.213 281.06C340.856 262.742 328.852 253.631 327.295 252.516C328.889 253.533 341.702 261.626 354.466 263.392C354.712 263.428 354.957 263.465 355.202 263.49C360.793 264.152 368.665 269.829 375.691 278.056C385.12 289.092 393.029 304.688 391.9 318.887Z" fill="white"/>
<path fill-rule="evenodd" clip-rule="evenodd" d="M373.115 327.494C373.115 327.531 373.091 327.58 373.091 327.617C373.348 328.488 373.606 329.37 373.875 330.229C374.219 331.369 374.574 332.497 374.942 333.625C375.567 335.489 376.23 337.328 376.965 339.155C376.977 339.18 376.977 339.18 377.014 339.216C377.039 339.241 377.063 339.278 377.075 339.314C376.364 339.253 375.665 339.192 374.954 339.131C374.415 338.493 373.875 337.892 373.348 337.328C373.005 336.972 372.686 336.617 372.355 336.286C368.787 332.619 365.795 330.486 363.612 329.272C361.05 327.826 359.591 327.629 359.554 327.617C359.517 327.617 359.48 327.605 359.456 327.593C359.444 327.593 359.444 327.58 359.444 327.58C359.211 327.531 359.026 327.359 358.941 327.151V327.139C358.904 327.028 358.879 326.906 358.892 326.783C358.929 326.378 359.296 326.084 359.713 326.121C359.799 326.133 360.498 326.219 361.7 326.673C363.968 327.531 368.076 329.714 373.397 335.194C373.434 335.231 373.459 335.268 373.495 335.305C373.826 335.636 374.157 335.979 374.488 336.347C374.292 335.783 374.096 335.231 373.912 334.667C373.814 334.373 373.716 334.079 373.618 333.797C372.992 331.884 372.416 329.971 371.877 328.034C371.717 327.899 371.607 327.69 371.619 327.47C371.607 327.359 371.619 327.273 371.632 327.163C370.749 324.024 369.964 320.873 369.191 317.709C368.787 316.03 368.382 314.325 367.978 312.621C366.506 306.491 365.059 300.372 363.428 294.278C361.356 286.517 358.941 278.804 355.557 271.496C359.26 278.657 361.81 286.357 364.127 294.081C366.004 300.519 367.634 307.042 369.302 313.553C369.633 314.84 369.976 316.14 370.307 317.44C370.786 319.279 371.3 321.131 371.779 322.97C371.975 320.137 372.306 317.734 372.735 315.723C373.434 312.413 374.341 310.132 375.114 308.661C375.899 307.128 376.524 306.454 376.598 306.38C376.892 306.086 377.37 306.073 377.664 306.38C377.958 306.65 377.971 307.128 377.689 307.434C377.664 307.459 376.156 309.102 374.881 313.455C374.611 314.362 374.353 315.392 374.121 316.545C373.544 319.365 373.127 322.982 373.115 327.494Z" fill="#C0D2FF"/>
<path fill-rule="evenodd" clip-rule="evenodd" d="M376.704 83.6055C379.656 87.6097 381.27 92.5779 381.257 97.548C381.248 98.0382 381.196 98.5954 380.851 98.9142C380.805 98.959 380.747 99.0042 380.676 99.0399C380.66 99.047 380.638 99.0606 380.622 99.0678C380.224 99.2382 379.747 99.0863 379.349 98.9152C374.536 96.9282 370.401 93.3428 367.748 88.859C365.09 84.3818 363.927 79.0272 364.484 73.8496C369.239 75.3129 373.756 79.5947 376.704 83.6055Z" fill="white"/>
<path fill-rule="evenodd" clip-rule="evenodd" d="M370.262 83.1396C370.28 83.1549 370.328 83.2354 370.429 83.3903C370.546 83.6007 370.691 83.8539 370.875 84.1601C371.249 84.8289 371.805 85.7926 372.508 86.9692C373.914 89.3228 375.961 92.5121 378.467 95.8604C379.274 96.9361 380.075 97.9549 380.853 98.9137C380.806 98.9582 380.748 99.0036 380.678 99.0393C380.661 99.0465 380.64 99.0601 380.624 99.0672C379.846 98.1085 379.05 97.0945 378.245 96.0306C375.731 92.6656 373.705 89.4517 372.336 87.0659C371.654 85.8757 371.119 84.8984 370.772 84.2101C370.609 83.8906 370.481 83.6302 370.375 83.4185C370.294 83.239 370.25 83.1406 370.262 83.1396Z" fill="#C0D2FF"/>
<path fill-rule="evenodd" clip-rule="evenodd" d="M370.917 171.374C371.878 176.256 371.218 181.438 369.085 185.927C368.868 186.366 368.583 186.848 368.135 186.99C368.074 187.01 368.002 187.026 367.923 187.028C367.905 187.028 367.88 187.031 367.862 187.03C367.429 187.015 367.063 186.674 366.776 186.349C363.271 182.499 361.061 177.491 360.575 172.304C360.082 167.121 361.315 161.782 364.028 157.337C367.704 160.69 369.962 166.49 370.917 171.374Z" fill="white"/>
<path fill-rule="evenodd" clip-rule="evenodd" d="M365.288 168.204C365.299 168.226 365.308 168.319 365.333 168.502C365.349 168.743 365.372 169.034 365.408 169.389C365.46 170.153 365.552 171.262 365.686 172.626C365.954 175.355 366.444 179.112 367.282 183.21C367.552 184.527 367.842 185.791 368.136 186.989C368.075 187.01 368.003 187.026 367.924 187.028C367.906 187.028 367.881 187.031 367.863 187.031C367.569 185.832 367.283 184.575 367.008 183.269C366.171 179.153 365.709 175.382 365.489 172.64C365.38 171.273 365.313 170.161 365.293 169.39C365.282 169.032 365.278 168.741 365.271 168.505C365.276 168.308 365.278 168.2 365.288 168.204Z" fill="#C0D2FF"/>
<path fill-rule="evenodd" clip-rule="evenodd" d="M374.279 203.019C371.726 207.288 370.597 212.389 371.089 217.334C371.145 217.822 371.251 218.371 371.624 218.656C371.675 218.695 371.737 218.735 371.81 218.764C371.828 218.769 371.85 218.781 371.867 218.786C372.28 218.918 372.74 218.72 373.12 218.512C377.719 216.071 381.49 212.104 383.699 207.386C385.914 202.673 386.556 197.232 385.504 192.132C380.911 194.046 376.827 198.743 374.279 203.019Z" fill="white"/>
<path fill-rule="evenodd" clip-rule="evenodd" d="M380.649 201.936C380.632 201.952 380.592 202.037 380.507 202.201C380.41 202.422 380.291 202.688 380.137 203.011C379.829 203.712 379.368 204.725 378.781 205.963C377.608 208.441 375.879 211.813 373.706 215.387C373.006 216.535 372.307 217.626 371.625 218.656C371.676 218.695 371.738 218.735 371.811 218.764C371.829 218.769 371.851 218.781 371.868 218.787C372.551 217.757 373.244 216.672 373.943 215.535C376.122 211.944 377.829 208.55 378.963 206.043C379.526 204.793 379.965 203.769 380.244 203.05C380.375 202.716 380.478 202.445 380.563 202.224C380.626 202.037 380.66 201.936 380.649 201.936Z" fill="#C0D2FF"/>
<path fill-rule="evenodd" clip-rule="evenodd" d="M377.405 109.857L377.585 110.447C377.586 110.447 377.587 110.447 377.587 110.447L377.405 109.857ZM388.335 113.503C384.556 113.503 376.812 111.544 376.536 110.144C376.47 109.811 376.657 109.41 377.223 109.266C377.582 109.177 377.954 109.365 378.056 109.691C378.082 109.777 378.087 109.864 378.073 109.947C379.74 110.829 387.245 112.973 389.881 112.076C390.396 111.901 390.47 111.685 390.474 111.477C390.481 111.143 390.782 110.874 391.149 110.874H391.16C391.533 110.88 391.831 111.159 391.825 111.497C391.813 112.161 391.424 113.302 388.959 113.482C388.766 113.496 388.557 113.503 388.335 113.503Z" fill="#040078"/>
</g>
<path d="M92.0567 48H58.714C56.4492 48 54.6133 49.8374 54.6133 52.1041V85.4738C54.6133 87.7404 56.4492 89.5779 58.714 89.5779H92.0567C94.3214 89.5779 96.1574 87.7404 96.1574 85.4738V52.1041C96.1574 49.8374 94.3214 48 92.0567 48Z" fill="#DEB040"/>
<path d="M75.3438 66.3554C75.3438 66.3554 76.6666 72.3752 77.8882 74.5168C77.9406 74.6098 78.0005 74.6983 78.0672 74.7816C78.1544 74.8859 78.248 74.9847 78.3473 75.0775C79.2934 75.8293 80.3811 76.3828 81.5454 76.7051C82.1453 76.9018 82.7789 76.9747 83.4078 76.9193C84.0366 76.864 84.6478 76.6816 85.2042 76.3831C85.7606 76.0847 86.2508 75.6764 86.6451 75.1829C87.0393 74.6895 87.3295 74.1211 87.4981 73.5122C87.712 72.7984 87.773 72.0474 87.677 71.3083C87.2179 68.754 85.8173 63.2949 85.8173 63.2949C85.7393 63.3902 85.6561 63.4812 85.5683 63.5675C84.938 64.2372 83.2339 65.9038 81.3353 66.3554C78.962 66.9161 75.3438 66.3554 75.3438 66.3554Z" fill="url(#paint2_linear_27_29540)"/>
<path d="M74.9238 65.9267C74.9238 65.9267 76.2466 71.9387 77.4761 74.0803C77.6357 74.3478 77.8412 74.585 78.083 74.7812C78.0163 74.6979 77.9565 74.6094 77.904 74.5164C76.6824 72.3748 75.3596 66.355 75.3596 66.355C75.3596 66.355 78.9779 66.9158 81.32 66.355C83.1875 65.9112 84.9227 64.2368 85.553 63.5671C85.6409 63.4808 85.724 63.3898 85.802 63.2945L85.374 62.8662C85.374 62.8662 83.2342 65.3582 80.8843 65.9267C78.5343 66.4952 74.9238 65.9267 74.9238 65.9267Z" fill="url(#paint3_linear_27_29540)"/>
<path d="M83.623 69.9068C83.9185 69.5228 84.2609 69.1774 84.6424 68.8788C85.2493 68.4038 85.6617 68.1779 85.5761 67.8353C85.4905 67.4926 84.798 67.3992 84.37 67.9755C84.0413 68.5854 83.7904 69.2343 83.623 69.9068Z" fill="#DEB040"/>
<path d="M82.121 70.3273C81.6734 70.1454 81.2059 70.0174 80.7282 69.9457C79.95 69.8445 79.4909 69.8523 79.3976 69.5096C79.3042 69.167 79.8255 68.7309 80.5025 69.0268C81.0944 69.3906 81.6382 69.8276 82.121 70.3273Z" fill="#DEB040"/>
<path d="M85.5457 70.9033C84.9444 71.6443 84.1691 72.2248 83.2892 72.5932C82.0675 73.0683 79.2741 71.9858 79.3986 72.5932C79.5231 73.2006 81.4295 75.2021 82.7056 75.0775C84.3941 74.8905 85.4057 74.4311 85.8803 73.5744C86.355 72.7178 86.7129 70.2258 86.3161 70.2102C86.0671 70.1946 85.5457 70.9033 85.5457 70.9033Z" fill="#DEB040"/>
<path d="M80.83 64.5015C80.83 64.5015 78.9236 73.1458 77.165 76.2219C77.0902 76.3517 77.007 76.4766 76.916 76.5957C76.7915 76.7358 76.6592 76.8838 76.5114 77.024C75.1497 78.0976 73.5895 78.8916 71.9204 79.3603C71.0583 79.6498 70.1461 79.7598 69.2399 79.6835C68.3338 79.6072 67.4527 79.3463 66.6511 78.9167C65.8494 78.487 65.1439 77.8979 64.5782 77.1853C64.0124 76.4728 63.5982 75.652 63.3611 74.7734C63.0515 73.747 62.9666 72.666 63.1121 71.6038C63.7657 67.9437 65.8199 60.1016 65.8199 60.1016C65.8199 60.1016 65.9444 60.2573 66.1779 60.4987C67.0805 61.4488 69.5783 63.863 72.255 64.5015C75.6321 65.3037 80.83 64.5015 80.83 64.5015Z" fill="url(#paint4_linear_27_29540)"/>
<path d="M81.4529 63.8784C81.4529 63.8784 79.5465 72.5149 77.7879 75.5598C77.5582 75.943 77.2633 76.283 76.9164 76.5644C77.0074 76.4453 77.0906 76.3205 77.1654 76.1906C78.924 73.0756 80.8304 64.4703 80.8304 64.4703C80.8304 64.4703 75.6325 65.249 72.271 64.4703C69.5943 63.8317 67.0965 61.4175 66.1939 60.4675C65.9604 60.226 65.8359 60.0703 65.8359 60.0703L66.4584 59.4551C66.4584 59.4551 69.5709 63.0374 72.8935 63.8473C76.2161 64.6572 81.4529 63.8784 81.4529 63.8784Z" fill="url(#paint5_linear_27_29540)"/>
<path d="M68.9311 69.5949C68.506 69.0483 68.0176 68.5543 67.476 68.123C66.6045 67.4377 66.0131 67.1107 66.1376 66.62C66.2621 66.1294 67.2192 65.9892 67.8651 66.8147C68.3325 67.6944 68.6905 68.6281 68.9311 69.5949Z" fill="#DEB040"/>
<path d="M71.0957 70.2024C71.737 69.938 72.4088 69.7549 73.0955 69.6573C74.1926 69.5016 74.8696 69.5171 75.0097 69.0343C75.1497 68.5515 74.3872 67.9363 73.4534 68.3334C72.5925 68.8553 71.8004 69.4832 71.0957 70.2024Z" fill="#DEB040"/>
<path d="M66.1694 71.0353C67.0363 72.098 68.1541 72.9277 69.4219 73.4494C71.1727 74.1425 75.1801 72.585 75.0166 73.4494C74.8532 74.3138 72.0831 77.2264 70.2545 77.0239C67.8423 76.7591 66.3639 76.0972 65.6947 74.859C65.1033 73.7843 64.5042 70.054 65.0722 70.0307C65.4224 70.0073 66.1694 71.0353 66.1694 71.0353Z" fill="#DEB040"/>
<path d="M125.443 107H92.1007C89.8359 107 88 108.837 88 111.104V144.474C88 146.74 89.8359 148.578 92.1007 148.578H125.443C127.708 148.578 129.544 146.74 129.544 144.474V111.104C129.544 108.837 127.708 107 125.443 107Z" fill="#FF5C00"/>
<path d="M117.903 136.67C117.253 136.667 116.616 136.481 116.067 136.133C115.518 135.791 115.078 135.3 114.798 134.716L113.001 131.001C112.79 130.562 112.447 130.2 112.021 129.965C111.673 129.773 111.282 129.671 110.884 129.669H106.651C106.21 129.672 105.778 129.798 105.404 130.034C105.03 130.269 104.729 130.604 104.535 131.001L102.745 134.716C102.461 135.298 102.019 135.789 101.469 136.133C100.92 136.483 100.283 136.67 99.6327 136.67C99.0888 136.673 98.5519 136.547 98.0655 136.303C97.5792 136.059 97.1572 135.704 96.8336 135.266C96.51 134.829 96.294 134.321 96.203 133.784C96.1121 133.248 96.1488 132.697 96.3102 132.177L98.9324 123.759C99.1526 123.032 99.5575 122.374 100.107 121.851C100.672 121.327 101.36 120.955 102.107 120.768C102.485 120.667 102.875 120.618 103.267 120.62H114.277C114.666 120.618 115.053 120.668 115.429 120.768C115.944 120.906 116.431 121.133 116.868 121.438C117.684 122.005 118.289 122.827 118.588 123.774L121.21 132.177C121.371 132.696 121.408 133.245 121.318 133.78C121.228 134.316 121.013 134.823 120.691 135.26C120.37 135.697 119.95 136.053 119.465 136.298C118.981 136.543 118.446 136.67 117.903 136.67Z" fill="url(#paint6_linear_27_29540)"/>
<path d="M116.868 121.399C113.624 123.066 112.021 129.965 112.021 129.965C111.673 129.773 111.282 129.671 110.885 129.669H106.652C106.059 129.669 105.489 129.895 105.056 130.3C104.903 129.29 104.682 128.291 104.395 127.31C103.588 125.084 102.091 123.174 100.123 121.858C100.683 121.334 101.365 120.96 102.107 120.768C102.485 120.667 102.875 120.618 103.267 120.62H114.277C114.666 120.618 115.053 120.668 115.429 120.768C115.941 120.894 116.428 121.107 116.868 121.399Z" fill="url(#paint7_linear_27_29540)"/>
<path d="M102.607 127.31C102.437 127.308 102.275 127.239 102.155 127.118C102.036 126.997 101.969 126.834 101.969 126.664V123.946C101.969 123.776 102.036 123.613 102.155 123.492C102.275 123.371 102.437 123.302 102.607 123.3C102.778 123.3 102.942 123.368 103.064 123.489C103.185 123.61 103.253 123.775 103.253 123.946V126.664C103.253 126.835 103.185 127 103.064 127.121C102.942 127.242 102.778 127.31 102.607 127.31Z" fill="url(#paint8_linear_27_29540)"/>
<path d="M100.605 125.301C100.608 125.131 100.676 124.968 100.797 124.849C100.918 124.729 101.081 124.662 101.251 124.662H103.967C104.137 124.662 104.3 124.729 104.421 124.849C104.542 124.968 104.611 125.131 104.613 125.301C104.613 125.472 104.545 125.637 104.424 125.758C104.303 125.879 104.138 125.947 103.967 125.947H101.251C101.08 125.947 100.916 125.879 100.795 125.758C100.674 125.637 100.605 125.472 100.605 125.301Z" fill="url(#paint9_linear_27_29540)"/>
<path d="M115.981 123.938C115.983 124.067 115.946 124.192 115.876 124.3C115.806 124.407 115.706 124.491 115.588 124.541C115.47 124.591 115.34 124.605 115.214 124.581C115.088 124.557 114.972 124.496 114.881 124.406C114.79 124.316 114.728 124.201 114.702 124.075C114.677 123.95 114.689 123.819 114.738 123.701C114.787 123.582 114.869 123.481 114.976 123.409C115.082 123.338 115.207 123.3 115.335 123.3C115.505 123.3 115.668 123.367 115.789 123.486C115.91 123.606 115.979 123.768 115.981 123.938Z" fill="url(#paint10_linear_27_29540)"/>
<path d="M115.981 127.411C115.983 127.539 115.946 127.665 115.876 127.772C115.806 127.88 115.706 127.964 115.588 128.014C115.47 128.064 115.34 128.078 115.214 128.054C115.088 128.03 114.972 127.969 114.881 127.879C114.79 127.789 114.728 127.673 114.702 127.548C114.677 127.422 114.689 127.292 114.738 127.173C114.787 127.055 114.869 126.953 114.976 126.882C115.082 126.811 115.207 126.772 115.335 126.772C115.505 126.772 115.668 126.839 115.789 126.959C115.91 127.079 115.979 127.241 115.981 127.411Z" fill="url(#paint11_linear_27_29540)"/>
<path d="M117.072 126.321C116.944 126.321 116.819 126.283 116.713 126.212C116.607 126.141 116.524 126.04 116.475 125.922C116.426 125.804 116.413 125.674 116.438 125.549C116.463 125.423 116.525 125.308 116.615 125.218C116.705 125.127 116.82 125.066 116.946 125.041C117.071 125.016 117.201 125.029 117.319 125.078C117.437 125.126 117.538 125.209 117.609 125.316C117.68 125.422 117.717 125.547 117.717 125.675C117.717 125.846 117.649 126.011 117.528 126.132C117.407 126.253 117.243 126.321 117.072 126.321Z" fill="url(#paint12_linear_27_29540)"/>
<path d="M113.609 126.321C113.481 126.323 113.355 126.286 113.248 126.216C113.141 126.146 113.057 126.045 113.006 125.927C112.956 125.809 112.943 125.679 112.967 125.553C112.991 125.427 113.051 125.312 113.141 125.22C113.231 125.129 113.347 125.067 113.472 125.041C113.598 125.016 113.728 125.028 113.846 125.077C113.965 125.125 114.066 125.208 114.137 125.315C114.209 125.421 114.247 125.546 114.247 125.675C114.247 125.845 114.18 126.008 114.06 126.129C113.941 126.25 113.779 126.319 113.609 126.321Z" fill="url(#paint13_linear_27_29540)"/>
<path d="M107.943 125.036H106.924V125.48H107.943V125.036Z" fill="url(#paint14_linear_27_29540)"/>
<path d="M109.812 124.795V125.714L110.653 125.254L109.812 124.795Z" fill="url(#paint15_linear_27_29540)"/>
<path d="M323.443 105H290.101C287.836 105 286 106.837 286 109.104V142.474C286 144.74 287.836 146.578 290.101 146.578H323.443C325.708 146.578 327.544 144.74 327.544 142.474V109.104C327.544 106.837 325.708 105 323.443 105Z" fill="black"/>
<path d="M315.694 117.25H299.742V119.563H315.694V117.25Z" fill="url(#paint16_linear_27_29540)"/>
<path d="M300.691 133.923L299.135 133.518C299.562 131.533 299.835 129.518 299.952 127.49C300.072 124.506 299.991 121.516 299.711 118.542L301.337 118.387C301.631 121.451 301.714 124.532 301.586 127.607C301.464 129.734 301.164 131.846 300.691 133.923Z" fill="url(#paint17_linear_27_29540)"/>
<path d="M315.095 133.923L313.539 133.518C313.976 131.534 314.252 129.519 314.364 127.49C314.484 124.506 314.403 121.516 314.123 118.542L315.749 118.387C316.043 121.451 316.126 124.532 315.998 127.607C315.868 129.733 315.566 131.846 315.095 133.923Z" fill="url(#paint18_linear_27_29540)"/>
<path d="M300.808 133.518C300.808 134.655 299.555 135.574 298.006 135.574C296.458 135.574 295.205 134.655 295.205 133.518C295.205 132.381 296.458 131.462 298.006 131.462C299.555 131.462 300.808 132.35 300.808 133.518Z" fill="url(#paint19_linear_27_29540)"/>
<path d="M315.251 133.518C315.251 134.655 313.99 135.574 312.45 135.574C310.909 135.574 309.648 134.624 309.648 133.518C309.648 132.412 310.901 131.462 312.45 131.462C313.998 131.462 315.251 132.35 315.251 133.518Z" fill="url(#paint20_linear_27_29540)"/>
<path d="M218.306 83.148V84.426H222.842V96H224.3V84.426H228.836V83.148H218.306ZM234.419 86.442C233.015 86.442 231.917 86.91 231.089 87.882C230.297 88.8 229.901 89.952 229.901 91.356C229.901 92.742 230.297 93.894 231.089 94.794C231.917 95.766 233.015 96.252 234.419 96.252C235.805 96.252 236.921 95.766 237.767 94.794C238.541 93.894 238.937 92.742 238.937 91.356C238.937 89.952 238.541 88.8 237.749 87.882C236.921 86.91 235.805 86.442 234.419 86.442ZM234.419 87.648C235.391 87.648 236.165 88.026 236.741 88.782C237.227 89.466 237.479 90.312 237.479 91.356C237.479 92.364 237.227 93.228 236.741 93.912C236.165 94.668 235.391 95.046 234.419 95.046C233.429 95.046 232.655 94.668 232.115 93.912C231.611 93.228 231.377 92.382 231.377 91.356C231.377 90.312 231.611 89.466 232.115 88.782C232.655 88.026 233.429 87.648 234.419 87.648ZM240.807 82.896V96H242.247V92.706L243.723 91.374L247.359 96H249.213L244.713 90.438L248.817 86.694H246.909L242.247 91.014V82.896H240.807ZM254.169 86.442C252.819 86.442 251.757 86.928 250.965 87.9C250.173 88.818 249.795 89.97 249.795 91.338C249.795 92.85 250.191 94.038 251.019 94.938C251.811 95.802 252.891 96.252 254.223 96.252C255.429 96.252 256.419 95.892 257.193 95.208C257.823 94.632 258.237 93.912 258.453 93.012H257.013C256.779 93.66 256.473 94.146 256.077 94.47C255.609 94.848 254.979 95.046 254.223 95.046C253.341 95.046 252.639 94.758 252.135 94.182C251.631 93.606 251.361 92.796 251.289 91.752H258.633C258.597 90.132 258.237 88.854 257.553 87.954C256.797 86.946 255.663 86.442 254.169 86.442ZM254.205 87.648C255.969 87.648 256.959 88.638 257.139 90.636H251.325C251.415 89.718 251.703 88.998 252.207 88.458C252.711 87.918 253.377 87.648 254.205 87.648ZM264.675 86.442C264.063 86.442 263.505 86.586 263.001 86.874C262.497 87.144 262.083 87.54 261.759 88.062V86.694H260.319V96H261.759V90.384C261.813 89.538 262.083 88.872 262.587 88.368C263.055 87.9 263.613 87.666 264.261 87.666C265.881 87.666 266.709 88.566 266.709 90.384V96H268.149V90.276C268.149 87.72 266.979 86.442 264.675 86.442ZM271.634 93.858C271.31 93.858 271.058 93.966 270.86 94.182C270.644 94.398 270.536 94.65 270.536 94.974C270.536 95.28 270.644 95.532 270.86 95.748C271.058 95.964 271.31 96.072 271.634 96.072C271.922 96.072 272.192 95.964 272.408 95.748C272.624 95.532 272.732 95.28 272.732 94.974C272.732 94.65 272.624 94.398 272.408 94.182C272.192 93.966 271.922 93.858 271.634 93.858ZM279.134 86.442C277.748 86.442 276.65 86.928 275.858 87.918C275.12 88.818 274.76 89.97 274.76 91.392C274.76 92.814 275.12 93.966 275.858 94.848C276.632 95.784 277.712 96.252 279.116 96.252C280.268 96.252 281.186 95.946 281.888 95.352C282.608 94.74 283.058 93.822 283.274 92.634H281.834C281.618 94.236 280.7 95.046 279.116 95.046C278.18 95.046 277.46 94.704 276.974 94.056C276.47 93.408 276.236 92.508 276.236 91.374C276.236 90.24 276.488 89.34 276.992 88.674C277.514 87.99 278.234 87.648 279.134 87.648C279.872 87.648 280.466 87.81 280.934 88.17C281.384 88.53 281.672 89.07 281.798 89.79H283.22C283.058 88.656 282.626 87.81 281.906 87.252C281.204 86.712 280.286 86.442 279.134 86.442ZM286.152 83.184C285.846 83.184 285.594 83.274 285.378 83.49C285.162 83.67 285.072 83.922 285.072 84.246C285.072 84.552 285.162 84.804 285.378 85.02C285.594 85.218 285.846 85.326 286.152 85.326C286.458 85.326 286.71 85.218 286.926 85.02C287.142 84.804 287.25 84.552 287.25 84.246C287.25 83.922 287.142 83.67 286.926 83.49C286.71 83.274 286.458 83.184 286.152 83.184ZM285.432 86.694V96H286.872V86.694H285.432ZM292.053 83.688L290.631 84.282V86.694H288.759V87.9H290.631V93.822C290.631 94.524 290.775 95.046 291.081 95.406C291.405 95.802 291.963 96 292.719 96H294.123V94.794H292.935C292.611 94.794 292.377 94.704 292.251 94.56C292.107 94.416 292.053 94.164 292.053 93.822V87.9H294.357V86.694H292.053V83.688ZM294.942 86.694L298.632 95.784L297.03 99.564H298.596L303.69 86.694H302.106L299.352 94.038L296.508 86.694H294.942Z" fill="white"/>
</g>
<defs>
<filter id="filter0_d_27_29540" x="0" y="0" width="383" height="426" filterUnits="userSpaceOnUse" color-interpolation-filters="sRGB">
<feFlood flood-opacity="0" result="BackgroundImageFix"/>
<feColorMatrix in="SourceAlpha" type="matrix" values="0 0 0 0 0 0 0 0 0 0 0 0 0 0 0 0 0 0 127 0" result="hardAlpha"/>
<feOffset dy="4"/>
<feGaussianBlur stdDeviation="2"/>
<feComposite in2="hardAlpha" operator="out"/>
<feColorMatrix type="matrix" values="0 0 0 0 0 0 0 0 0 0 0 0 0 0 0 0 0 0 0.25 0"/>
<feBlend mode="normal" in2="BackgroundImageFix" result="effect1_dropShadow_27_29540"/>
<feBlend mode="normal" in="SourceGraphic" in2="effect1_dropShadow_27_29540" result="shape"/>
</filter>
<linearGradient id="paint0_linear_27_29540" x1="134" y1="4649.28" x2="2352.04" y2="4649.28" gradientUnits="userSpaceOnUse">
<stop stop-color="#FFE9F1"/>
<stop offset="1" stop-color="#FFE9F4"/>
</linearGradient>
<linearGradient id="paint1_linear_27_29540" x1="276.545" y1="823.148" x2="299.912" y2="823.148" gradientUnits="userSpaceOnUse">
<stop stop-color="#FFE9F1"/>
<stop offset="1" stop-color="#FFE9F4"/>
</linearGradient>
<linearGradient id="paint2_linear_27_29540" x1="589.501" y1="642.687" x2="786.549" y2="642.687" gradientUnits="userSpaceOnUse">
<stop stop-color="#E9EAFF"/>
<stop offset="1" stop-color="#EBE9FF"/>
</linearGradient>
<linearGradient id="paint3_linear_27_29540" x1="74.9083" y1="68.8237" x2="85.7865" y2="68.8237" gradientUnits="userSpaceOnUse">
<stop stop-color="#949BFF"/>
<stop offset="1" stop-color="#BFBFFF"/>
</linearGradient>
<linearGradient id="paint4_linear_27_29540" x1="520.703" y1="887.452" x2="927.314" y2="887.452" gradientUnits="userSpaceOnUse">
<stop stop-color="#E9EAFF"/>
<stop offset="1" stop-color="#EBE9FF"/>
</linearGradient>
<linearGradient id="paint5_linear_27_29540" x1="523.569" y1="740.406" x2="837.158" y2="740.406" gradientUnits="userSpaceOnUse">
<stop stop-color="#949BFF"/>
<stop offset="1" stop-color="#BFBFFF"/>
</linearGradient>
<linearGradient id="paint6_linear_27_29540" x1="96.1701" y1="128.626" x2="121.366" y2="128.626" gradientUnits="userSpaceOnUse">
<stop stop-color="#FFE9F1"/>
<stop offset="1" stop-color="#FFE9F4"/>
</linearGradient>
<linearGradient id="paint7_linear_27_29540" x1="100.123" y1="125.441" x2="116.868" y2="125.441" gradientUnits="userSpaceOnUse">
<stop stop-color="#FFE9F1"/>
<stop offset="1" stop-color="#FFAAC8"/>
</linearGradient>
<linearGradient id="paint8_linear_27_29540" x1="101.969" y1="125.301" x2="103.253" y2="125.301" gradientUnits="userSpaceOnUse">
<stop stop-color="#FF2A83"/>
<stop offset="1" stop-color="#FF7FAD"/>
</linearGradient>
<linearGradient id="paint9_linear_27_29540" x1="1144.61" y1="162.979" x2="1165.24" y2="162.979" gradientUnits="userSpaceOnUse">
<stop stop-color="#FF7FAD"/>
<stop offset="1" stop-color="#FF2A83"/>
</linearGradient>
<linearGradient id="paint10_linear_27_29540" x1="474.592" y1="159.6" x2="476.723" y2="159.6" gradientUnits="userSpaceOnUse">
<stop stop-color="#FF7FAD"/>
<stop offset="1" stop-color="#FF2A83"/>
</linearGradient>
<linearGradient id="paint11_linear_27_29540" x1="474.592" y1="168.825" x2="476.723" y2="168.825" gradientUnits="userSpaceOnUse">
<stop stop-color="#FF7FAD"/>
<stop offset="1" stop-color="#FF2A83"/>
</linearGradient>
<linearGradient id="paint12_linear_27_29540" x1="479.209" y1="164.198" x2="481.34" y2="164.198" gradientUnits="userSpaceOnUse">
<stop stop-color="#FF7FAD"/>
<stop offset="1" stop-color="#FF2A83"/>
</linearGradient>
<linearGradient id="paint13_linear_27_29540" x1="469.969" y1="164.198" x2="472.1" y2="164.198" gradientUnits="userSpaceOnUse">
<stop stop-color="#FF7FAD"/>
<stop offset="1" stop-color="#FF2A83"/>
</linearGradient>
<linearGradient id="paint14_linear_27_29540" x1="380.762" y1="138.246" x2="382.097" y2="138.246" gradientUnits="userSpaceOnUse">
<stop stop-color="#FF7FAD"/>
<stop offset="1" stop-color="#FF2A83"/>
</linearGradient>
<linearGradient id="paint15_linear_27_29540" x1="338.685" y1="152.142" x2="339.593" y2="152.142" gradientUnits="userSpaceOnUse">
<stop stop-color="#FF7FAD"/>
<stop offset="1" stop-color="#FF2A83"/>
</linearGradient>
<linearGradient id="paint16_linear_27_29540" x1="4834.29" y1="467.864" x2="5161.46" y2="467.864" gradientUnits="userSpaceOnUse">
<stop stop-color="#E9EAFF"/>
<stop offset="1" stop-color="#EBE9FF"/>
</linearGradient>
<linearGradient id="paint17_linear_27_29540" x1="1010.49" y1="2628.11" x2="1018.65" y2="2628.11" gradientUnits="userSpaceOnUse">
<stop stop-color="#E9EAFF"/>
<stop offset="1" stop-color="#EBE9FF"/>
</linearGradient>
<linearGradient id="paint18_linear_27_29540" x1="1073.64" y1="2628.11" x2="1081.85" y2="2628.11" gradientUnits="userSpaceOnUse">
<stop stop-color="#E9EAFF"/>
<stop offset="1" stop-color="#EBE9FF"/>
</linearGradient>
<linearGradient id="paint19_linear_27_29540" x1="1855.17" y1="834.421" x2="1895.51" y2="834.421" gradientUnits="userSpaceOnUse">
<stop stop-color="#E9EAFF"/>
<stop offset="1" stop-color="#EBE9FF"/>
</linearGradient>
<linearGradient id="paint20_linear_27_29540" x1="1973.59" y1="834.421" x2="2013.93" y2="834.421" gradientUnits="userSpaceOnUse">
<stop stop-color="#E9EAFF"/>
<stop offset="1" stop-color="#EBE9FF"/>
</linearGradient>
</defs>
</svg>
