<svg width="375" height="418" viewBox="0 0 375 418" fill="none" xmlns="http://www.w3.org/2000/svg">
<mask id="mask0_1104_101" style="mask-type:alpha" maskUnits="userSpaceOnUse" x="0" y="0" width="375" height="394">
<path d="M0.10498 0.325134H374.73V393.989H0.10498V0.325134Z" fill="white"/>
</mask>
<g mask="url(#mask0_1104_101)">
<path fill-rule="evenodd" clip-rule="evenodd" d="M708.202 185.534C708.34 201.645 705.653 217.744 700.226 233.16C699.243 235.979 698.167 238.771 696.988 241.537C696.096 243.661 695.152 245.772 694.143 247.869C693.12 250.006 692.032 252.13 690.892 254.227L690.879 254.241C679.028 276.186 661.172 295.863 637.746 310.926H637.733C633.839 313.456 629.789 315.829 625.58 318.057C624.663 318.556 623.732 319.041 622.801 319.513C622.408 319.722 622.015 319.919 621.621 320.116C621.569 320.142 621.516 320.168 621.464 320.194C621.241 320.312 621.005 320.43 620.769 320.535C616.902 322.449 612.917 324.258 608.8 325.923C606.952 326.684 605.09 327.417 603.202 328.112C601.419 328.781 599.61 329.41 597.788 330.013C597.434 330.144 597.093 330.262 596.739 330.38C596.215 330.564 595.677 330.734 595.153 330.905C593.423 331.455 591.666 331.993 589.896 332.504C579.605 335.519 568.698 337.813 557.162 339.308C551.826 340.003 545.481 340.619 538.507 341.143C537.196 341.248 535.859 341.34 534.509 341.432C533.433 341.51 532.346 341.589 531.231 341.655C510.846 342.966 486.476 343.66 465.789 343.713C464.242 343.726 462.721 343.726 461.214 343.726C460.44 343.726 459.667 343.726 458.906 343.713C453.492 343.7 448.432 343.634 443.87 343.516C429.292 343.162 414.452 342.415 399.416 341.392C394.945 341.078 390.462 340.75 385.965 340.396C384.628 340.278 383.278 340.173 381.928 340.068C378.991 339.819 376.028 339.57 373.079 339.308C372.371 339.255 371.663 339.19 370.955 339.124C370.378 339.072 369.788 339.019 369.211 338.967C368.831 338.928 368.438 338.902 368.058 338.862C362.906 338.39 357.741 337.892 352.562 337.381C342.363 336.358 332.138 335.244 321.912 334.064C291.8 330.629 261.714 326.67 232.453 322.869C215.424 320.666 198.683 318.503 182.375 316.537C169.698 315.016 157.283 313.6 145.223 312.381C105.068 308.265 68.6503 306.141 38.6818 308.33C36.4139 308.501 34.1461 308.697 31.8779 308.946C23.711 309.759 15.4782 311.018 7.21912 312.617C6.53762 312.748 5.86914 312.879 5.18732 313.023C5.05615 313.05 4.93797 313.076 4.80713 313.102C1.37239 313.784 -2.06237 314.544 -5.5101 315.357C-5.96887 315.449 -6.42794 315.567 -6.89969 315.685C-12.0909 316.917 -17.3085 318.267 -22.513 319.735C-27.2718 321.072 -32.0435 322.489 -36.8156 323.983C-38.8211 324.612 -40.827 325.255 -42.8328 325.91C-44.9432 326.592 -47.0409 327.287 -49.1516 327.994C-49.2302 328.021 -49.3088 328.06 -49.4007 328.086C-49.8857 328.243 -50.3578 328.414 -50.8559 328.571C-52.4422 329.108 -54.0283 329.659 -55.6276 330.21C-60.0981 331.77 -64.5685 333.382 -69.0387 335.021C-69.4059 335.152 -69.7861 335.296 -70.153 335.427C-71.8179 336.057 -73.4828 336.66 -75.1607 337.289C-76.4981 337.8 -77.8221 338.298 -79.1591 338.81C-79.6179 338.98 -80.09 339.151 -80.5487 339.334C-80.562 339.334 -80.562 339.334 -80.575 339.347C-81.6107 339.741 -82.6331 340.134 -83.6689 340.527C-85.124 341.091 -86.5659 341.642 -88.0344 342.218C-94.4841 344.709 -100.921 347.265 -107.305 349.795C-131.191 359.339 -154.578 368.922 -176.943 376.722C-185.018 379.554 -192.976 382.15 -200.776 384.417C-218.421 389.543 -235.267 393.017 -251.011 393.804C-253.332 393.935 -255.626 394.001 -257.894 393.989C-271.108 393.975 -283.483 391.89 -294.863 387.079C-376.037 352.758 -318.315 265.292 -281.937 211.294C-265.956 187.566 -264.881 175.702 -270.23 164.965C-277.06 151.266 -294.338 139.388 -304.406 107.047C-322.393 49.3263 -266.048 -2.4562 -104.841 0.441204C-13.9789 2.07952 30.7376 16.7886 195.222 50.3094C260.088 63.524 322.45 56.2743 380.105 47.8055C384.497 47.163 388.875 46.5078 393.215 45.8652C394.381 45.6818 395.535 45.5117 396.689 45.3409C397.2 45.2623 397.711 45.1837 398.209 45.1182C479.239 32.9393 573.509 9.98471 656.073 78.6389C684.756 102.485 701.235 132.886 706.413 164.506C706.781 166.669 707.095 168.845 707.318 171.008C707.882 175.833 708.17 180.683 708.202 185.534Z" fill="#EBF0FC"/>
</g>
<mask id="mask1_1104_101" style="mask-type:alpha" maskUnits="userSpaceOnUse" x="0" y="0" width="375" height="230">
<path d="M0.10498 0.325134H374.73V229.351H0.10498V0.325134Z" fill="white"/>
</mask>
<g mask="url(#mask1_1104_101)">
<path fill-rule="evenodd" clip-rule="evenodd" d="M708.196 185.534C684.861 164.663 651.55 137.946 603.202 112.619C468.07 41.8406 498.432 137.514 408.094 203.441C317.757 269.356 316.891 197.319 193.505 123.264C70.1056 49.1951 110.391 176.842 -7.97461 187.055C-115.263 196.31 -217.307 139.074 -270.23 164.965C-277.06 151.266 -294.338 139.388 -304.406 107.047C-322.392 49.3263 -266.048 -2.4562 -104.841 0.441204C-13.9788 2.07952 30.7377 16.7886 195.222 50.3094C260.088 63.524 322.45 56.2743 380.105 47.8055C384.497 47.163 388.875 46.5078 393.215 45.8652C394.382 45.6818 395.535 45.5117 396.689 45.3409C397.2 45.2623 397.711 45.1837 398.209 45.1182C479.239 32.9393 573.509 9.98471 656.073 78.6389C684.757 102.485 701.235 132.886 706.413 164.506C706.781 166.669 707.095 168.845 707.318 171.008C707.882 175.833 708.17 180.683 708.196 185.534Z" fill="#F5F7FC"/>
</g>
<path fill-rule="evenodd" clip-rule="evenodd" d="M296.625 192.355H122.549C121.108 192.355 119.778 191.897 118.702 191.122C117.106 189.972 116.071 188.124 116.071 186.04V77.0781C116.071 75.3343 116.796 73.7557 117.968 72.6129C119.141 71.47 120.76 70.7632 122.549 70.7632H296.625C298.413 70.7632 300.033 71.47 301.204 72.6129C302.377 73.7557 303.102 75.3343 303.102 77.0781V186.04C303.102 188.36 301.819 190.387 299.908 191.485C298.945 192.038 297.823 192.355 296.625 192.355Z" fill="white"/>
<mask id="mask2_1104_101" style="mask-type:alpha" maskUnits="userSpaceOnUse" x="0" y="0" width="375" height="418">
<path d="M0.10498 417.019H374.73V0.325012H0.10498V417.019Z" fill="white"/>
</mask>
<g mask="url(#mask2_1104_101)">
<path fill-rule="evenodd" clip-rule="evenodd" d="M139.871 157.638H183.702V153.575H139.871V157.638Z" fill="#C0D2FF"/>
<path fill-rule="evenodd" clip-rule="evenodd" d="M155.153 153.575L154.108 157.638L147.527 183.105L143.391 182.896L149.909 157.638L150.964 153.575H155.153Z" fill="#C0D2FF"/>
<path fill-rule="evenodd" clip-rule="evenodd" d="M182.956 65.375V125.847C182.956 127.711 182.29 129.431 181.192 130.773C179.772 132.504 177.608 133.614 175.189 133.614H65.8966C64.1878 133.614 62.6012 133.059 61.3249 132.127C59.3833 130.707 58.1294 128.421 58.1294 125.847V65.375C58.1294 65.0312 58.1518 64.6984 58.207 64.3656C58.2849 63.6442 58.4736 62.9672 58.7508 62.3237C59.1502 61.403 59.705 60.5815 60.4041 59.8828C61.8132 58.4737 63.755 57.6082 65.8966 57.6082H175.189C177.331 57.6082 179.273 58.4737 180.682 59.8828C182.091 61.2919 182.956 63.2335 182.956 65.375Z" fill="#9FC3FC"/>
<path fill-rule="evenodd" clip-rule="evenodd" d="M207.243 120.08H273.4V114.509H207.243V120.08Z" fill="#E6EAFD"/>
<path fill-rule="evenodd" clip-rule="evenodd" d="M207.243 136.715H273.4V122.517H207.243V136.715Z" fill="#E6EAFD"/>
<path fill-rule="evenodd" clip-rule="evenodd" d="M280.333 179.993H200.31C199.928 179.993 199.574 179.872 199.286 179.666C198.838 179.346 198.547 178.823 198.547 178.231V167.785C198.547 167.35 198.704 166.951 198.966 166.644C199.289 166.263 199.771 166.022 200.31 166.022H280.333C280.725 166.022 281.087 166.15 281.38 166.366C281.814 166.687 282.096 167.203 282.096 167.785V178.231C282.096 178.683 281.926 179.096 281.646 179.408C281.323 179.767 280.854 179.993 280.333 179.993Z" fill="#F1F4FF"/>
<path fill-rule="evenodd" clip-rule="evenodd" d="M208.114 141.494H202.369C201.975 141.494 201.615 141.348 201.339 141.108C201.01 140.821 200.802 140.398 200.802 139.927V106.413C200.802 106.019 200.947 105.659 201.187 105.384C201.475 105.054 201.898 104.846 202.369 104.846H208.114C208.547 104.846 208.938 105.022 209.222 105.305C209.505 105.589 209.681 105.981 209.681 106.413V139.927C209.681 140.36 209.505 140.751 209.222 141.035C208.938 141.318 208.547 141.494 208.114 141.494Z" fill="#F1F4FF"/>
<path fill-rule="evenodd" clip-rule="evenodd" d="M277.23 141.494H271.485C271.091 141.494 270.731 141.348 270.456 141.108C270.126 140.821 269.918 140.398 269.918 139.927V106.413C269.918 106.019 270.063 105.659 270.303 105.384C270.591 105.054 271.013 104.846 271.485 104.846H277.23C277.663 104.846 278.054 105.022 278.338 105.305C278.622 105.589 278.797 105.981 278.797 106.413V139.927C278.797 140.36 278.622 140.751 278.338 141.035C278.054 141.318 277.663 141.494 277.23 141.494Z" fill="#F1F4FF"/>
<path fill-rule="evenodd" clip-rule="evenodd" d="M280.333 169.896H200.31C199.928 169.896 199.574 169.561 199.286 168.991C198.838 168.108 198.547 166.661 198.547 165.025V136.162C198.547 134.96 198.704 133.859 198.966 133.01C199.289 131.959 199.771 131.292 200.31 131.292H280.333C280.725 131.292 281.087 131.645 281.38 132.242C281.814 133.13 282.096 134.555 282.096 136.162V165.025C282.096 166.275 281.926 167.415 281.646 168.278C281.323 169.271 280.854 169.896 280.333 169.896Z" fill="#C0D2FF"/>
<path fill-rule="evenodd" clip-rule="evenodd" d="M240.811 120.668C236.896 120.322 233.261 116.431 231.335 117.663C229.409 118.896 230.719 122.671 233.107 125.29C235.495 127.909 234.263 133.071 231.952 134.92C229.64 136.768 228.1 140.078 231.952 139.348C235.803 138.617 237.113 137.538 240.426 137.538C243.739 137.538 251.057 137.231 252.906 138.155C254.754 139.079 262.69 140.268 260.609 136.862C258.529 133.456 258.529 127.986 259.916 124.75C261.303 121.515 265.155 118.452 262.766 117.441C260.378 116.431 257.528 119.358 253.984 120.205C250.44 121.053 241.949 120.768 240.811 120.668Z" fill="#F1F4FF"/>
<path fill-rule="evenodd" clip-rule="evenodd" d="M222.663 122.71C218.749 122.364 215.114 118.473 213.188 119.706C211.262 120.938 212.571 124.713 214.959 127.332C217.348 129.951 216.115 135.113 213.804 136.962C211.493 138.811 209.952 142.121 213.804 141.39C217.656 140.66 218.966 139.581 222.278 139.581C225.591 139.581 232.909 139.273 234.758 140.197C236.607 141.122 244.542 142.311 242.462 138.904C240.382 135.498 240.382 130.028 241.768 126.793C243.155 123.557 247.007 120.495 244.619 119.484C242.231 118.473 239.38 121.4 235.837 122.248C232.293 123.095 223.801 122.811 222.663 122.71Z" fill="white"/>
<path fill-rule="evenodd" clip-rule="evenodd" d="M263.817 100.029H214.548C213.177 100.029 211.937 99.4741 211.039 98.5761C210.141 97.678 209.586 96.4378 209.586 95.0676V86.0027C209.586 84.8199 210 83.7335 210.691 82.881C211.601 81.7585 212.99 81.041 214.548 81.041H263.817C265.188 81.041 266.428 81.5962 267.326 82.4943C268.224 83.392 268.779 84.6326 268.779 86.0027V95.0676C268.779 96.6728 268.017 98.0998 266.835 99.0069C265.999 99.6482 264.953 100.029 263.817 100.029Z" fill="#FC8000"/>
<path fill-rule="evenodd" clip-rule="evenodd" d="M30.9307 237.495C25.1924 245.918 14.2917 253.116 11.2878 261.956C8.28395 270.797 13.7401 279.968 8.16122 288.417C3.45278 295.516 -7.71735 300.029 -14.3388 306.539C-18.4463 310.573 -20.592 315.11 -22.517 319.732C-27.2745 321.069 -32.0443 322.492 -36.8141 323.987C-38.8248 324.613 -40.8235 325.25 -42.8342 325.913C-44.9433 326.587 -47.0401 327.286 -49.1492 327.997C-49.2349 328.021 -49.3086 328.058 -49.3943 328.083C-49.8849 328.242 -50.3628 328.414 -50.8534 328.573C-52.4475 329.113 -54.029 329.664 -55.6229 330.217C-60.0985 331.773 -64.5738 333.38 -69.0372 335.023C-69.405 335.157 -69.7852 335.292 -70.1531 335.427C-71.8206 336.053 -73.4881 336.666 -75.1557 337.291C-76.4924 337.794 -77.8164 338.296 -79.1531 338.811C-79.619 338.983 -80.0849 339.155 -80.5508 339.339C-80.5631 339.339 -80.5631 339.339 -80.5751 339.351C-81.6053 339.743 -82.6352 340.136 -83.6651 340.528C-85.1242 341.093 -86.5713 341.644 -88.03 342.22C-88.7657 341.693 -89.4527 341.129 -90.0901 340.54C-95.2768 335.857 -97.6557 329.689 -95.9635 323.521C-94.7128 318.997 -91.5985 314.706 -88.717 310.377C-88.4349 309.948 -88.1527 309.531 -87.8833 309.114C-87.1962 308.035 -86.5342 306.969 -85.9336 305.89C-85.7618 305.57 -85.5781 305.24 -85.4063 304.921C-85.345 304.811 -85.3083 304.7 -85.2469 304.602C-82.0099 298.275 -81.0044 291.58 -79.3735 285.033C-77.6937 278.338 -75.3641 271.827 -69.3683 266.089C-59.2524 256.414 -41.032 251.485 -30.6219 241.946C-22.431 234.43 -20.2118 225.111 -14.2037 216.834C-8.1956 208.545 5.27973 200.539 17.5044 202.991C38.8148 208.643 41.2427 222.389 30.9307 237.495Z" fill="#C0D2FF"/>
<path fill-rule="evenodd" clip-rule="evenodd" d="M56.0665 278.228C56.0665 278.228 46.0367 287.865 41.0461 297.245C38.6308 301.782 35.4428 305.767 31.8746 308.943C23.7084 309.764 15.4811 311.015 7.21685 312.621C6.5425 312.743 5.86815 312.879 5.18146 313.026C5.05874 313.05 4.93633 313.075 4.80127 313.099C13.225 286.075 32.549 278.362 56.0665 278.228Z" fill="#9FC3FC"/>
<path fill-rule="evenodd" clip-rule="evenodd" d="M32.4635 292.169C30.2073 293.456 22.7524 298.655 15.567 304.798C14.7089 305.522 13.8505 306.27 13.0167 307.03C10.957 308.856 8.9706 310.745 7.21703 312.621C6.54268 312.743 5.86833 312.879 5.18164 313.026C7.24171 310.733 9.68164 308.366 12.232 306.085L12.2443 306.073C13.5563 304.896 14.905 303.743 16.2417 302.616C23.0342 296.975 29.7294 292.316 31.8505 291.102C32.145 290.931 32.5248 291.029 32.6842 291.323C32.8557 291.617 32.7579 291.997 32.4635 292.169Z" fill="#C0D2FF"/>
<path fill-rule="evenodd" clip-rule="evenodd" d="M12.6945 307.108C12.5059 307.108 12.3234 307.02 12.2056 306.863C12.0432 306.649 12.04 306.353 12.1974 306.136L19.0913 296.584C19.288 296.311 19.6718 296.245 19.9465 296.446C20.2215 296.644 20.2832 297.027 20.0851 297.302L14.3543 305.242L32.9699 298.513C33.2887 298.397 33.639 298.561 33.7546 298.88C33.8695 299.199 33.7049 299.55 33.3864 299.665L12.903 307.071C12.8348 307.096 12.7647 307.108 12.6945 307.108Z" fill="#C0D2FF"/>
<path fill-rule="evenodd" clip-rule="evenodd" d="M208.008 309.249L261.957 298.785L261.257 295.173L207.308 305.637L208.008 309.249Z" fill="#322FE6"/>
<path fill-rule="evenodd" clip-rule="evenodd" d="M209.639 310.542L244.375 303.805C245.109 303.663 245.575 302.877 245.414 302.05L244.692 298.329C244.532 297.502 243.806 296.948 243.072 297.09L208.337 303.827C207.602 303.969 207.137 304.755 207.297 305.582L208.019 309.303C208.179 310.13 208.905 310.685 209.639 310.542Z" fill="#4152F3"/>
<path fill-rule="evenodd" clip-rule="evenodd" d="M276.774 306.552C269.883 307.888 263.188 303.376 261.852 296.485C260.515 289.594 265.039 282.899 271.93 281.563C278.821 280.226 285.516 284.738 286.853 291.629C288.189 298.52 283.665 305.215 276.774 306.552ZM292.419 290.55C290.494 280.582 280.808 274.046 270.839 275.984C261.349 277.835 254.96 286.713 256.064 296.178C256.113 296.632 256.187 297.098 256.272 297.564C256.42 298.324 256.616 299.06 256.849 299.783C259.681 308.477 268.644 313.921 277.853 312.131C287.821 310.193 294.356 300.519 292.419 290.55Z" fill="#4152F3"/>
<path fill-rule="evenodd" clip-rule="evenodd" d="M221.986 182.69C216.636 184.408 209.133 185.372 201.366 185.148C197.119 185.051 192.788 184.576 188.709 183.695C191.182 172.98 190.93 159.834 190.595 150.25C190.567 149.426 190.539 148.63 190.511 147.861C190.511 147.861 223.16 123.553 220.645 141.449C220.142 145.011 219.667 148.937 219.346 152.989C218.508 163.285 218.633 174.349 221.707 182.005C221.804 182.229 221.889 182.466 221.986 182.69Z" fill="#FDB2D0"/>
<path fill-rule="evenodd" clip-rule="evenodd" d="M221.986 182.69C221.986 182.69 219.695 178.443 218.479 175.034C217.25 171.639 216.901 158.8 217.781 153.743L219.345 152.989C218.507 163.285 218.633 174.349 221.707 182.005C221.804 182.229 221.888 182.466 221.986 182.69Z" fill="#FCCDE0"/>
<path fill-rule="evenodd" clip-rule="evenodd" d="M218.647 153.212C217.432 159.164 212.193 161.594 207.737 168.58C204.593 173.497 202.456 180.971 201.366 185.148C197.119 185.051 192.788 184.576 188.709 183.695C191.182 172.98 190.93 159.834 190.595 150.25C192.467 147.75 194.786 145.738 197.79 146.45C203.112 147.708 218.647 153.212 218.647 153.212Z" fill="#FE93BC"/>
<path fill-rule="evenodd" clip-rule="evenodd" d="M227.197 142.567C226.847 143.237 226.261 143.824 225.59 144.327C223.634 145.752 220.924 146.45 220.924 146.45L222.573 136.42C223.592 136.126 224.486 136.224 225.227 136.601C227.337 137.579 228.202 140.639 227.197 142.567Z" fill="#FDB2D0"/>
<path fill-rule="evenodd" clip-rule="evenodd" d="M225.59 144.327C223.634 145.752 220.924 146.451 220.924 146.451L222.573 136.42C223.592 136.126 224.486 136.224 225.227 136.601C225.408 137.3 225.562 138.026 226.093 138.781C226.847 139.842 226.568 142.553 225.59 144.327Z" fill="#FE93BC"/>
<path fill-rule="evenodd" clip-rule="evenodd" d="M193.054 150.516C193.054 150.516 192.914 150.53 192.662 150.53C191.628 150.572 188.834 150.558 186.893 149.342C186.487 149.105 186.138 148.811 185.831 148.462C183.903 146.255 183.959 141.142 186.809 139.829H186.823C186.948 139.773 187.074 139.731 187.2 139.689H187.214C187.479 139.605 187.758 139.549 188.066 139.535L193.054 150.516Z" fill="#FDB2D0"/>
<path fill-rule="evenodd" clip-rule="evenodd" d="M192.662 150.53C191.628 150.572 188.834 150.558 186.893 149.342C187.06 148.699 186.697 147.568 186.222 146.311C185.594 144.676 185.97 141.896 186.809 139.829H186.823C186.948 139.773 187.074 139.731 187.2 139.689H187.214C188.122 141.128 192.075 147.387 192.662 150.53Z" fill="#FE93BC"/>
<path fill-rule="evenodd" clip-rule="evenodd" d="M282.184 252.178C273.439 264.905 235.104 289.521 234.937 292.902C234.769 296.297 238.555 304.651 235.328 309.499C234.909 310.114 234.42 310.645 233.861 311.05C230.103 313.927 223.704 312.027 223.327 303.394C222.908 293.503 220.645 282.201 224.193 276.654C227.728 271.094 255.305 251.033 247.762 243.168C245.093 240.388 246.253 235.274 248.865 229.826C251.268 224.825 254.886 219.543 257.904 215.534C260.866 211.58 263.24 208.856 263.24 208.856C276.484 218.063 283.763 227.115 285.649 235.624C286.962 241.449 285.733 247.01 282.184 252.178Z" fill="#FDB2D0"/>
<path fill-rule="evenodd" clip-rule="evenodd" d="M285.649 235.623C283.609 237.873 280.564 237.007 279.446 234.24C277.476 229.351 266.523 224.112 258.253 225.327C258.253 225.327 257.736 220.647 257.904 215.534C260.865 211.58 263.24 208.856 263.24 208.856C276.484 218.063 283.763 227.115 285.649 235.623Z" fill="#FCCDE0"/>
<path fill-rule="evenodd" clip-rule="evenodd" d="M257.331 260.578C247.091 269.534 233.698 275.569 232.771 290.611C232.706 291.657 234.015 300.432 234.015 303.226C234.015 304.959 234.825 308.591 233.861 311.05C230.103 313.927 223.704 312.027 223.327 303.394C222.908 293.503 220.645 282.201 224.193 276.654C227.728 271.094 255.305 251.033 247.761 243.168C245.093 240.388 246.336 239.223 248.949 233.775C254.565 231.078 252.209 231.796 252.209 231.796C256.473 236.336 267.571 251.609 257.331 260.578Z" fill="#FE93BC"/>
<path d="M168.463 60.0001H133.074C131.376 60.0001 130 61.3773 130 63.0762V98.5019C130 100.201 131.376 101.578 133.074 101.578H168.463C170.16 101.578 171.536 100.201 171.536 98.5019V63.0762C171.536 61.3773 170.16 60.0001 168.463 60.0001Z" fill="#FF5C00"/>
<path d="M171.544 92.7157V98.4708C171.544 99.2969 171.216 100.089 170.632 100.673C170.049 101.258 169.257 101.586 168.432 101.586H133.112C132.287 101.586 131.495 101.258 130.912 100.673C130.328 100.089 130 99.2969 130 98.4708V91.7968L144.209 77.6L154.122 87.5681L160.23 81.4549L171.544 92.7157Z" fill="url(#paint0_linear_1104_101)"/>
<path d="M154.13 79.7338C155.308 79.7338 156.262 78.7785 156.262 77.6C156.262 76.4216 155.308 75.4662 154.13 75.4662C152.953 75.4662 151.998 76.4216 151.998 77.6C151.998 78.7785 152.953 79.7338 154.13 79.7338Z" fill="url(#paint1_linear_1104_101)"/>
<path fill-rule="evenodd" clip-rule="evenodd" d="M263.249 208.852V208.864C262.452 214.627 260.503 220.292 258.259 225.331C256.861 228.434 255.353 231.29 253.918 233.767C250.84 239.101 248.143 242.669 247.8 243.135C247.775 243.159 247.763 243.172 247.763 243.172C247.591 242.939 247.407 242.706 247.211 242.473C247.113 242.35 247.003 242.24 246.892 242.118C246.512 241.7 246.095 241.284 245.642 240.867C244.71 240.009 243.655 239.162 242.588 238.39C239.462 236.097 236.237 234.319 235.624 233.988C235.599 233.976 235.575 233.964 235.55 233.951C235.538 233.939 235.526 233.939 235.526 233.939V233.951V233.976C235.452 234.295 234.901 236.563 234.3 240.29C233.478 245.452 232.546 253.422 232.632 262.913C232.632 263.869 232.656 264.838 232.681 265.819C232.706 266.518 232.706 267.266 232.706 268.05C232.706 268.59 232.706 269.154 232.681 269.73C232.681 269.853 232.669 270.073 232.669 270.368C232.656 270.674 232.656 270.993 232.644 271.312C232.595 273.372 232.497 275.591 232.375 277.946C232.068 284.505 231.639 291.997 231.467 299.342L231.431 300.96C231.406 302.223 231.394 303.474 231.394 304.712C231.381 305.252 231.381 305.791 231.381 306.319C231.381 308.305 231.418 310.267 231.492 312.155C231.504 312.658 231.529 313.148 231.553 313.639V313.7C231.712 317.023 232.007 320.113 232.448 322.872C215.429 320.664 198.68 318.507 182.372 316.533C169.694 315.012 157.285 313.602 145.22 312.376C147.709 301.021 152.295 278.522 152.687 275.039C152.871 273.433 153.018 271.766 153.165 270.061C153.361 267.671 153.509 265.218 153.631 262.79C153.828 259.234 153.938 255.715 154.024 252.491C154.171 246.568 154.183 241.627 154.232 239.236C154.22 238.954 154.232 238.672 154.244 238.464C154.232 238.255 154.244 238.059 154.257 237.875C154.257 237.814 154.257 237.752 154.232 237.703C154.232 237.642 154.208 237.593 154.171 237.532C154.146 237.471 154.122 237.421 154.073 237.36C154.024 237.286 153.962 237.2 153.889 237.127C153.705 236.931 153.447 236.71 153.129 236.477C152.81 236.232 152.442 235.974 152.013 235.68C151.412 235.275 150.689 234.809 149.904 234.27C149.892 234.258 149.879 234.258 149.879 234.258C148.751 233.497 147.464 232.578 146.103 231.474C141.762 227.943 136.6 222.45 132.995 213.45C136.306 210.213 140.695 205.517 144.913 200.845C145.269 200.453 145.612 200.06 145.968 199.68C147.721 197.731 149.438 195.818 151.019 194.04C151.645 193.317 152.258 192.63 152.846 191.968C153.962 190.693 154.98 189.54 155.863 188.51C158.695 196.161 162.999 201.544 169.106 202.439C169.522 202.513 169.988 202.549 170.43 202.574H170.503C170.81 202.586 171.129 202.586 171.46 202.574C178.179 202.304 182.618 198.491 185.511 192.826C186.897 190.153 187.939 187.039 188.712 183.691C189.803 183.924 190.918 184.133 192.046 184.317C192.439 184.378 192.844 184.439 193.236 184.488L193.457 184.525C193.959 184.586 194.474 184.66 194.977 184.709C195.443 184.771 195.921 184.819 196.387 184.856C196.596 184.881 196.817 184.893 197.025 184.918C197.405 184.942 197.785 184.979 198.165 185.003C199.232 185.077 200.298 185.126 201.365 185.151C202.077 185.175 202.788 185.187 203.487 185.187C210.488 185.187 217.134 184.243 221.989 182.686C222.835 184.586 223.853 186.266 225.128 187.615C225.128 187.627 225.153 187.627 225.153 187.627C225.263 187.75 225.373 187.872 225.496 187.995C226.195 188.719 226.967 189.344 227.826 189.859C228.61 190.337 229.456 190.717 230.376 191.011C231.798 191.453 233.233 191.98 234.717 192.593C235.428 192.888 236.139 193.194 236.85 193.501C237.009 193.574 237.157 193.635 237.304 193.697C237.684 193.869 238.064 194.052 238.456 194.224C250.472 199.815 262.734 208.484 263.237 208.852H263.249Z" fill="#4152F3"/>
<path fill-rule="evenodd" clip-rule="evenodd" d="M190.624 145.636C188.572 151.258 188.369 161.85 192.195 161.465C196.021 161.079 199.365 158.165 202.735 159.135C206.106 160.106 208.974 158.096 211.114 160.425C213.253 162.754 215.95 160.907 217.184 159.502C218.418 158.097 217.661 154.932 219.922 153.642C222.183 152.351 221.745 145.787 221.332 143.945C220.919 142.102 190.624 145.636 190.624 145.636Z" fill="#040078"/>
<path fill-rule="evenodd" clip-rule="evenodd" d="M258.259 225.331C256.861 228.434 255.353 231.29 253.918 233.767C250.84 239.101 248.143 242.669 247.8 243.135C247.775 243.16 247.763 243.172 247.763 243.172C247.591 242.939 247.407 242.706 247.211 242.473C247.113 242.35 247.003 242.24 246.892 242.117C246.512 241.701 246.095 241.284 245.642 240.867C244.71 240.009 243.655 239.163 242.588 238.39C239.462 236.097 236.237 234.319 235.624 233.988C235.599 233.976 235.575 233.963 235.551 233.951C235.538 233.939 235.526 233.939 235.526 233.939V233.951V233.976C235.452 234.294 234.901 236.563 234.3 240.29C233.478 245.452 232.546 253.423 232.632 262.913C232.632 263.869 232.657 264.838 232.681 265.819C232.706 266.518 232.706 267.266 232.706 268.05C232.706 268.59 232.706 269.154 232.681 269.73C232.681 269.853 232.669 270.074 232.669 270.368C232.657 270.675 232.657 270.993 232.644 271.312C232.595 273.372 232.497 275.591 232.375 277.946C232.068 284.505 231.639 291.997 231.467 299.342L231.431 300.96C231.406 302.223 231.394 303.474 231.394 304.712C231.381 305.252 231.381 305.791 231.381 306.318C231.381 308.305 231.418 310.267 231.492 312.155C231.504 312.658 231.529 313.148 231.553 313.639V313.7C231.357 313.7 231.173 313.173 231.001 312.241C230.781 310.966 230.572 308.942 230.376 306.515C230.327 306.012 230.29 305.485 230.253 304.933C230.168 303.768 230.082 302.517 230.008 301.23C229.971 300.715 229.947 300.176 229.91 299.636C229.334 290.023 228.868 279.037 228.231 279.674C226.722 281.17 225.165 282.163 223.607 282.875C223.179 283.083 222.762 283.255 222.332 283.389C215.662 285.842 209.066 284.003 206.258 293.15C202.972 303.829 205.632 303.462 206.196 303.278C206.196 303.29 206.184 303.29 206.184 303.29C204.909 303.866 191.054 310.254 182.372 316.532C169.694 315.012 157.285 313.602 145.22 312.376C147.709 301.022 152.295 278.522 152.687 275.039C152.871 273.433 153.018 271.766 153.166 270.062C153.362 267.67 153.509 265.218 153.631 262.79C153.828 259.235 153.938 255.715 154.024 252.491C154.171 246.568 154.183 241.627 154.232 239.236C154.22 238.954 154.232 238.672 154.244 238.463C154.232 238.255 154.244 238.059 154.257 237.875C154.257 237.813 154.257 237.752 154.232 237.703C154.232 237.642 154.208 237.593 154.171 237.532C154.146 237.47 154.122 237.421 154.073 237.36C154.024 237.286 153.963 237.201 153.889 237.127C153.705 236.931 153.447 236.71 153.129 236.477C152.81 236.232 152.442 235.974 152.013 235.68C151.412 235.276 150.689 234.81 149.904 234.27C149.892 234.258 149.879 234.258 149.879 234.258C148.751 233.498 147.464 232.578 146.103 231.474C141.762 227.943 136.6 222.45 132.995 213.45C136.306 210.213 140.695 205.517 144.913 200.845C149.757 218.87 158.928 224.191 159.701 226.386C160.498 228.568 157.984 240.524 158.756 243.846C159.542 247.169 160.068 252.491 161.552 249.253C163.036 246.029 164.434 237.973 166.604 231.707C168.075 227.477 168.921 215.988 169.314 208.962C169.436 206.706 169.522 204.904 169.559 203.96C169.571 203.494 169.583 203.236 169.583 203.236C169.583 203.236 169.866 203.028 170.381 202.66C170.417 202.636 170.454 202.611 170.503 202.574C170.81 202.586 171.129 202.586 171.46 202.574C178.179 202.304 182.618 198.491 185.511 192.826C186.786 193.292 188.54 211.365 189.227 221.543C189.913 231.707 198.999 233.547 204.247 230.163C208.563 227.391 218.973 200.919 223.927 190.889C223.927 190.876 223.927 190.876 223.939 190.864C224.147 190.435 224.356 190.043 224.54 189.675C224.907 188.988 225.226 188.424 225.496 187.995C225.545 187.909 225.594 187.836 225.643 187.762C225.888 187.394 226.084 187.174 226.244 187.088C228.292 186.033 234.582 190.803 236.85 193.501C237.341 194.089 237.635 194.58 237.659 194.886C237.684 195.278 237.475 196.652 237.107 198.651C236.972 199.374 236.813 200.171 236.642 201.041C235.158 208.57 232.399 220.881 231.026 226.558C229.04 234.712 237.206 228.372 237.77 227.146C237.77 227.146 243.471 219.274 246.61 221.261C247.628 221.898 249.639 223.149 252.03 224.105C253.967 224.878 256.15 225.442 258.259 225.331Z" fill="#322FE6"/>
<path fill-rule="evenodd" clip-rule="evenodd" d="M155.808 188.376C155.822 188.417 155.836 188.473 155.864 188.515C154.984 189.535 153.964 190.695 152.846 191.966C150.513 194.634 147.747 197.736 144.911 200.851C140.692 205.517 136.306 210.211 132.994 213.453C132.869 213.159 132.743 212.852 132.631 212.544C131.067 208.395 129.823 203.547 129.139 197.819C126.079 172.421 133.358 125.271 142.355 106.621C144.814 101.536 147.384 98.574 149.913 98.7276C152.749 98.909 154.719 99.524 155.99 100.683C160.055 104.33 157.247 113.396 153.461 131.418C150.22 146.772 149.899 172.421 155.808 188.376Z" fill="#FDB2D0"/>
<path fill-rule="evenodd" clip-rule="evenodd" d="M155.808 188.376C155.822 188.417 155.836 188.473 155.864 188.515C154.984 189.535 153.964 190.695 152.847 191.966C150.737 186.252 147.636 173.846 146.965 163.69C146.155 151.466 149.759 124.573 151.966 117.476C153.866 111.371 156.535 104.972 155.99 100.683C160.055 104.33 157.247 113.396 153.461 131.418C150.22 146.772 149.899 172.421 155.808 188.376Z" fill="#FCCDE0"/>
<path fill-rule="evenodd" clip-rule="evenodd" d="M144.911 200.851C140.692 205.517 136.306 210.211 132.994 213.453C132.869 213.159 132.743 212.852 132.631 212.544C131.067 208.395 129.823 203.547 129.139 197.82C126.079 172.422 133.358 125.271 142.355 106.621C128.429 170.908 139.7 179.169 144.911 200.851Z" fill="#FE93BC"/>
<path fill-rule="evenodd" clip-rule="evenodd" d="M170.435 202.57C169.806 203.799 168.633 205.489 166.957 205.434C164.344 205.336 155.431 197.917 152.847 191.966C153.964 190.695 154.984 189.535 155.864 188.515C158.7 196.157 163.003 201.55 169.108 202.444C169.528 202.514 169.988 202.556 170.435 202.57Z" fill="#86A8FF"/>
<path fill-rule="evenodd" clip-rule="evenodd" d="M263.255 208.856C254.593 205.392 256.2 210.142 246.323 206.132C236.46 202.108 234.28 200.712 234.545 193.726C234.545 193.726 226.89 191.519 224.738 189.842C222.573 188.166 221.986 182.69 221.986 182.69C222.908 184.771 224.054 186.573 225.492 187.998C226.848 189.381 228.468 190.415 230.382 191.016C231.793 191.449 233.232 191.98 234.713 192.595C235.426 192.888 236.138 193.195 236.851 193.503C249.605 199.147 263.255 208.856 263.255 208.856Z" fill="#86A8FF"/>
<path fill-rule="evenodd" clip-rule="evenodd" d="M187.806 143.168C188.748 148.1 192.14 160.274 204.628 160.168C223.42 160.008 224.349 137.963 224.349 137.963L187.806 143.168Z" fill="#EA6F00"/>
<path fill-rule="evenodd" clip-rule="evenodd" d="M224.346 137.956C223.802 138.431 212.276 146.017 206.381 146.926C200.485 147.833 188.988 144.508 187.8 143.167C186.92 142.148 186.319 135.805 188.359 129.49C189.449 126.054 191.32 122.631 194.352 120.074C202.93 112.838 214.986 113.802 220.658 121.541C226.33 129.267 224.892 137.495 224.346 137.956Z" fill="#FDA218"/>
<path fill-rule="evenodd" clip-rule="evenodd" d="M245.638 240.862C245.554 242.958 242.704 251.815 237.605 261.427V261.441C237.591 261.455 237.591 261.455 237.591 261.469C236.124 264.207 234.49 267.001 232.688 269.725C222.531 285.037 210.279 301.466 206.298 303.24C199.131 306.425 167.683 300.795 164.428 292.413C162.026 286.252 154.3 274.824 150.989 264.277C149.368 259.164 148.935 253.436 149.005 247.973C149.047 242.944 149.536 238.152 149.885 234.254C149.885 234.254 150.947 234.841 152.037 235.582C152.414 235.847 152.805 236.126 153.14 236.406C153.797 236.951 154.286 237.482 154.258 237.873C154.244 238.055 154.23 238.25 154.244 238.459C154.202 238.711 154.202 238.976 154.23 239.242C154.384 247.009 160.628 260.798 161.397 260.868C162.235 260.868 161.872 247.75 166.273 237.509C168.172 233.095 168.969 225.732 169.234 218.58C169.458 212.349 169.29 206.286 169.108 202.444C169.066 201.494 169.025 200.669 168.983 200.027C168.941 199.3 168.913 198.77 168.885 198.504C168.648 195.906 169.541 196.297 171.93 195.193C175.703 193.852 180.005 189.884 183.764 190.611C184.518 190.751 185.09 191.561 185.51 192.832C185.58 193.056 185.649 193.279 185.705 193.503C186.292 195.612 186.557 198.672 186.669 201.969C186.683 202.025 186.683 202.081 186.669 202.136C186.865 207.278 186.669 212.977 186.669 216.596C186.655 224.377 186.753 236.266 200.22 235.176C205.012 234.785 209.245 229.379 212.808 222.366C212.836 222.296 212.864 222.226 212.92 222.142C219.304 209.443 223.467 191.631 224.655 188.655C224.808 188.264 224.962 187.929 225.13 187.621C225.675 186.587 226.275 186.015 226.862 185.749C228.245 185.134 229.642 186.182 230.522 187.398C231.919 189.298 237.787 187.384 238.653 190.918C238.849 191.742 238.779 192.832 238.486 194.117C238.094 195.976 237.298 198.239 236.348 200.656C236.334 200.656 236.334 200.656 236.334 200.669C234.853 204.483 232.981 208.703 231.724 212.349C227.812 223.749 221.833 254.972 224.78 255.755C227.672 256.481 235.133 235.079 235.524 233.975V233.947C235.524 233.947 239.324 235.302 242.621 237.859C243.738 238.725 244.814 239.731 245.638 240.862Z" fill="#FDA218"/>
<path fill-rule="evenodd" clip-rule="evenodd" d="M185.509 192.832C183.316 191.603 178.231 194.187 177.644 195.068C177.057 195.933 174.151 197.68 172.224 197.387C170.589 197.149 169.737 198.183 168.982 200.027C168.94 199.3 168.913 198.77 168.885 198.504C168.647 195.905 169.541 196.297 171.93 195.193C175.702 193.852 180.005 189.884 183.763 190.611C184.517 190.751 185.09 191.561 185.509 192.832Z" fill="#FFBE71"/>
<path fill-rule="evenodd" clip-rule="evenodd" d="M238.485 194.117C238.024 193.992 237.479 193.782 236.85 193.503C234.755 192.539 231.22 194.69 229.39 192.762C227.56 190.849 228.342 188.306 225.129 187.621C225.674 186.587 226.275 186.014 226.861 185.749C228.244 185.135 229.642 186.182 230.522 187.398C231.919 189.298 237.786 187.384 238.652 190.918C238.848 191.742 238.778 192.832 238.485 194.117Z" fill="#FFBE71"/>
<path fill-rule="evenodd" clip-rule="evenodd" d="M152.036 235.582C151.17 238.627 149.592 243.125 149.522 246.171C149.508 246.898 149.312 247.526 149.005 247.973C149.047 242.944 149.536 238.152 149.885 234.254C149.885 234.254 150.947 234.841 152.036 235.582Z" fill="#FFBE71"/>
<path fill-rule="evenodd" clip-rule="evenodd" d="M245.638 240.862C245.554 242.958 242.704 251.815 237.605 261.427V261.441C237.591 261.455 237.591 261.455 237.591 261.469C236.124 264.207 234.49 267.001 232.688 269.725C222.531 285.037 210.279 301.466 206.298 303.24C199.131 306.425 167.683 300.795 164.428 292.413C162.026 286.252 154.3 274.824 150.989 264.277C149.368 259.164 148.935 253.436 149.005 247.973C152.274 269.208 159.458 265.063 167.637 283.341C171.495 291.961 182.008 284.068 194.581 285.815C207.154 287.561 208.784 285.232 219.612 277.381C230.439 269.516 240.818 249.915 241.405 246.968C241.992 244.02 234.714 240.262 234.197 240.262C233.665 240.262 232.8 243.712 229.74 252.877C226.68 262.055 223.453 260.658 221.581 257.375C219.695 254.107 224.068 235.47 225.633 229.616C227.155 223.944 231.067 207.543 236.334 200.669C234.853 204.483 232.981 208.703 231.724 212.349C227.812 223.749 221.833 254.972 224.78 255.755C227.672 256.481 235.133 235.079 235.524 233.975V233.947C235.524 233.947 239.324 235.302 242.621 237.859C243.738 238.725 244.814 239.731 245.638 240.862Z" fill="#FC8000"/>
<path fill-rule="evenodd" clip-rule="evenodd" d="M245.638 240.862C245.554 242.958 242.704 251.815 237.605 261.427C237.647 261.092 238.122 258.228 239.338 255.28C240.455 252.598 242.146 244.173 242.621 237.859C243.738 238.725 244.814 239.731 245.638 240.862Z" fill="#FFBE71"/>
<path fill-rule="evenodd" clip-rule="evenodd" d="M177.191 262.166C176.303 268.119 176.155 283.114 172.228 283.835C168.301 284.556 165.893 279.164 161.668 273.001C157.443 266.838 159.072 280.11 164.428 286.746C169.783 293.382 174.323 299.756 181.425 294.473C188.527 289.191 194.557 288.034 191.437 279.298C188.318 270.563 177.191 262.166 177.191 262.166Z" fill="#FC8000"/>
<path fill-rule="evenodd" clip-rule="evenodd" d="M212.807 222.366C210.027 228.303 207.401 233.123 206.102 235.582C202.847 241.742 199.187 239.829 197.314 238.557C195.456 237.3 193.891 238.124 191.056 237.565C188.22 236.992 185.551 229.882 185.509 223.497C185.481 219.097 186.767 210.002 186.669 202.136C186.864 207.278 186.669 212.977 186.669 216.596C186.655 224.377 186.753 236.266 200.22 235.177C205.012 234.785 209.245 229.379 212.807 222.366Z" fill="#FC8000"/>
<path fill-rule="evenodd" clip-rule="evenodd" d="M206.95 268.554C201.222 268.645 187.39 267.338 177.191 262.166C177.448 256.419 178.314 251.575 180.019 251.048C192.051 247.365 205.545 251.166 207.124 254.449C208.42 257.16 207.827 262.646 206.95 268.554Z" fill="#FC8000"/>
<path fill-rule="evenodd" clip-rule="evenodd" d="M206.95 268.554C206.769 269.836 206.562 271.148 206.367 272.445C205.244 279.722 204.145 293.542 194.754 294.409C185.364 295.276 179.563 287.205 178.063 279.01C177.304 274.871 176.942 268.039 177.192 262.166C187.391 267.338 201.222 268.645 206.95 268.554Z" fill="#E8740C"/>
<path fill-rule="evenodd" clip-rule="evenodd" d="M187.19 267.741C187.335 270.379 189.591 272.399 192.229 272.253C194.866 272.108 196.886 269.852 196.741 267.215C196.596 264.578 194.34 262.557 191.702 262.703C189.065 262.848 187.045 265.104 187.19 267.741Z" fill="#914B0C"/>
<path fill-rule="evenodd" clip-rule="evenodd" d="M165.043 244.104C163.031 250.656 163.995 263.844 163.031 264.78C162.067 265.716 159.19 263.578 155.879 257.641C152.777 252.094 152.637 241.617 153.14 236.406C153.797 236.951 154.286 237.481 154.258 237.873C154.244 238.055 154.23 238.25 154.244 238.459C154.202 238.711 154.202 238.976 154.23 239.242C154.384 247.009 160.629 260.798 161.397 260.868C162.235 260.868 161.872 247.75 166.273 237.509C168.172 233.095 168.969 225.732 169.234 218.58C169.653 229.686 166.845 238.264 165.043 244.104Z" fill="#FC8000"/>
<path fill-rule="evenodd" clip-rule="evenodd" d="M201.328 116.145C201.1 117.704 201.58 121.364 206.121 120.884C209.165 120.562 209.482 115.9 209.482 115.9L201.328 116.145Z" fill="#FC8000"/>
<path fill-rule="evenodd" clip-rule="evenodd" d="M209.762 115.23C209.883 117.429 208.082 119.316 205.738 119.445C203.395 119.574 201.397 117.896 201.276 115.697C201.155 113.498 202.957 111.611 205.3 111.482C207.643 111.353 209.641 113.031 209.762 115.23Z" fill="#FDA218"/>
<path fill-rule="evenodd" clip-rule="evenodd" d="M224.346 137.956C223.802 138.431 212.276 146.017 206.381 146.926C200.485 147.833 188.988 144.508 187.8 143.167C186.92 142.148 186.319 135.805 188.359 129.49C190.524 127.549 192.983 125.243 193.5 123.26C194.352 120.074 202.176 120.759 200.751 123.008C197.454 128.177 198.543 135.4 202.176 134.184C205.808 132.955 215.503 131.642 218.646 132.089C221.79 132.522 220.1 138.515 224.346 137.956Z" fill="#FC8000"/>
<path fill-rule="evenodd" clip-rule="evenodd" d="M92.0297 243.135C92.091 243.466 91.8702 243.785 91.5271 243.834C91.5147 243.834 91.5024 243.834 91.49 243.846C82.4167 245.379 73.8459 247.464 65.8267 250.075C62.4426 251.179 59.1566 252.368 55.9686 253.656C40.5806 259.848 27.5709 268.136 17.2959 278.252C16.2537 279.27 15.2361 280.312 14.243 281.379C6.68972 289.496 0.816342 298.692 -3.21742 308.82C-3.75704 310.181 -4.25996 311.554 -4.73788 312.952C-5.00768 313.749 -5.27749 314.546 -5.51061 315.355C-5.96418 315.454 -6.43009 315.564 -6.896 315.686C-5.28983 310.341 -3.21742 305.227 -0.691775 300.359C0.338419 298.373 1.454 296.424 2.64329 294.523C9.00725 284.248 17.5534 275.199 28.0124 267.572C30.1092 266.027 32.2917 264.556 34.5478 263.146C50.0219 253.41 69.0761 246.421 91.1225 242.669C91.1959 242.657 91.2572 242.645 91.3309 242.632C91.6618 242.571 91.9806 242.792 92.0297 243.135Z" fill="#4152F3"/>
<path fill-rule="evenodd" clip-rule="evenodd" d="M66.9731 248.422C75.4891 236.886 89.13 225.442 106.603 221.61C106.603 221.61 93.5556 240.442 66.9731 248.422Z" fill="#4152F3"/>
<path fill-rule="evenodd" clip-rule="evenodd" d="M89.4229 243.503C102.219 237.032 119.55 232.949 136.878 237.389C136.878 237.389 116.753 248.337 89.4229 243.503Z" fill="#4152F3"/>
<path fill-rule="evenodd" clip-rule="evenodd" d="M54.8242 253.336C68.2236 248.23 85.8853 245.971 102.658 252.188C102.658 252.188 81.5038 260.985 54.8242 253.336Z" fill="#4152F3"/>
<path fill-rule="evenodd" clip-rule="evenodd" d="M27.772 268.267C32.4772 254.721 42.1035 239.742 57.6496 230.894C57.6496 230.894 50.7846 252.751 27.772 268.267Z" fill="#4152F3"/>
<path fill-rule="evenodd" clip-rule="evenodd" d="M13.1226 281.448C24.1894 272.33 40.205 264.549 58.0849 265.083C58.0849 265.083 40.8479 280.175 13.1226 281.448Z" fill="#4152F3"/>
<path fill-rule="evenodd" clip-rule="evenodd" d="M-0.677892 300.464C-1.97367 286.183 0.623407 268.568 11.1409 254.099C11.1409 254.099 13.8948 276.843 -0.677892 300.464Z" fill="#4152F3"/>
<path fill-rule="evenodd" clip-rule="evenodd" d="M-5.92773 313.54C0.771941 300.862 12.5528 287.511 29.2583 281.116C29.2583 281.116 19.1667 301.684 -5.92773 313.54Z" fill="#4152F3"/>
<path fill-rule="evenodd" clip-rule="evenodd" d="M46.9567 202.991C46.9444 203.003 46.9324 203.003 46.92 203.003C35.7499 208.791 25.4622 215.081 16.1314 221.8C12.2077 224.633 8.4434 227.526 4.8632 230.518C-12.5852 244.974 -26.0482 261.184 -35.1952 278.595C-35.1952 278.608 -35.2076 278.608 -35.2076 278.62C-36.1271 280.361 -36.9978 282.102 -37.8189 283.868C-44.2319 297.539 -48.0329 311.91 -49.0508 326.722C-49.0874 327.151 -49.1121 327.568 -49.1488 327.997C-49.2345 328.021 -49.3082 328.058 -49.3939 328.083C-49.8845 328.242 -50.3628 328.414 -50.853 328.573C-50.6079 323.902 -50.093 319.279 -49.2959 314.693C-48.7809 311.615 -48.1313 308.562 -47.3585 305.534C-43.3368 289.606 -36.029 274.365 -25.6436 260.154C-23.5225 257.248 -21.2784 254.391 -18.8874 251.571C-18.8874 251.559 -18.8751 251.547 -18.8631 251.534C-9.04134 239.898 2.95022 229.034 16.9775 219.152C17.4678 218.821 17.946 218.477 18.4242 218.146C26.897 212.261 36.0931 206.743 45.9882 201.618C46.0616 201.581 46.1229 201.544 46.1966 201.507C46.6012 201.287 47.1038 201.458 47.3246 201.875C47.533 202.28 47.3736 202.783 46.9567 202.991Z" fill="#4152F3"/>
<path fill-rule="evenodd" clip-rule="evenodd" d="M16.978 219.15C23.243 200.634 36.2011 180.109 57.2956 167.876C57.2956 167.876 48.1777 197.748 16.978 219.15Z" fill="#4152F3"/>
<path fill-rule="evenodd" clip-rule="evenodd" d="M44.0825 203.438C58.0088 189.721 78.816 177.221 103.159 175.788C103.159 175.788 81.5757 198.362 44.0825 203.438Z" fill="#4152F3"/>
<path fill-rule="evenodd" clip-rule="evenodd" d="M3.24512 230.576C18.5221 218.381 40.5156 208.112 64.8756 209.217C64.8756 209.217 41.063 229.426 3.24512 230.576Z" fill="#4152F3"/>
<path fill-rule="evenodd" clip-rule="evenodd" d="M-39.2231 284.398C-28.641 267.963 -11.079 251.207 12.3583 244.475C12.3583 244.475 -3.75334 271.23 -39.2231 284.398Z" fill="#4152F3"/>
<path fill-rule="evenodd" clip-rule="evenodd" d="M399.413 341.386C394.95 341.08 390.463 340.749 385.962 340.393C384.626 340.283 383.277 340.173 381.928 340.062C378.986 339.817 376.03 339.572 373.076 339.314C372.364 339.253 371.665 339.192 370.954 339.13C370.378 339.069 369.79 339.02 369.213 338.971C369.262 338.444 369.299 337.892 369.348 337.328C369.397 336.678 369.446 336.004 369.495 335.305C369.508 335.219 369.52 335.145 369.52 335.06C369.556 334.642 369.581 334.226 369.618 333.797C369.703 332.644 369.789 331.454 369.875 330.229C370.219 325.189 370.574 319.5 370.881 313.455C370.967 311.873 371.04 310.279 371.114 308.661C371.555 298.753 371.825 288.147 371.69 278.056C371.616 271.52 371.384 265.193 370.917 259.418C370.255 251.314 370.145 242.142 370.317 232.578C370.341 231.266 370.366 229.954 370.402 228.63C370.427 227.465 370.464 226.288 370.501 225.098V225.086C370.574 222.585 370.672 220.083 370.783 217.558V217.545C370.832 216.319 370.881 215.093 370.93 213.867C370.942 213.659 370.954 213.45 370.967 213.254V213.241C371.151 209.146 371.359 205.063 371.567 201.029C371.997 192.765 372.45 184.734 372.757 177.328V177.316C372.781 176.69 372.818 176.077 372.842 175.464V175.452C373.309 163.644 373.37 153.614 372.377 147.128C371.052 138.459 372.965 119.012 375.234 98.8665C375.283 98.4126 375.332 97.9713 375.381 97.5175C375.393 97.3827 375.417 97.248 375.43 97.1129C375.442 97.0149 375.454 96.9168 375.454 96.8311C375.552 95.985 375.651 95.1389 375.749 94.2928C375.896 93.0301 376.03 91.7791 376.178 90.5285C376.19 90.5162 376.178 90.5162 376.178 90.5162C376.926 83.9321 377.674 77.4334 378.311 71.3392C378.409 70.4444 378.495 69.5613 378.581 68.6908V68.6785C379.415 60.5369 380.003 53.2905 380.102 47.8097C384.503 47.1597 388.881 46.51 393.221 45.86C393.258 47.3191 393.27 48.8519 393.27 50.4213C393.27 50.4213 393.282 50.4214 393.27 50.4334C393.27 50.8873 393.27 51.3408 393.258 51.8067C393.27 52.0275 393.258 52.2483 393.258 52.4688C393.258 53.1801 393.246 53.8912 393.234 54.6145V54.909C393.209 55.7675 393.197 56.6379 393.172 57.5084V57.5207C392.767 71.9525 391.186 88.1866 388.243 97.0762C386.723 101.674 386.306 107.707 386.453 114.438V114.451C386.477 115.297 386.502 116.143 386.539 117.014V117.026C387.066 129.557 389.236 144.087 389.763 156.189C389.801 156.925 389.825 157.648 389.849 158.371C389.96 162.724 389.825 166.709 389.285 170.106C387.716 179.866 387.961 198.442 389.101 216.699C390.156 233.657 391.97 250.357 393.81 259.504C395.612 268.479 397.071 290.428 398.114 311.052C398.383 316.618 398.641 322.087 398.862 327.188C399.082 332.411 399.266 337.254 399.413 341.386Z" fill="#C0D2FF"/>
<path fill-rule="evenodd" clip-rule="evenodd" d="M395.735 138.581C395.747 138.839 395.759 139.109 395.759 139.378C395.809 141.291 395.661 143.253 395.281 145.276C394.362 150.217 392.4 154.497 389.849 158.371C386.355 163.705 381.769 168.266 377.281 172.742C375.736 174.275 374.216 175.795 372.757 177.315V177.328C369.152 181.092 365.989 184.881 363.916 189.172C360.643 195.965 363.389 205.272 366.981 215.314C367.313 216.233 367.656 217.165 367.987 218.097C368.024 218.195 368.073 218.306 368.11 218.416C368.159 218.551 368.208 218.686 368.257 218.821C368.293 218.919 368.33 219.029 368.367 219.127C369.091 221.101 369.814 223.1 370.501 225.086V225.099C371.212 227.146 371.899 229.206 372.487 231.241C374.351 237.581 375.467 243.773 374.559 249.401L373.358 249.205C374.204 243.895 373.174 237.985 371.42 231.916C371.102 230.825 370.758 229.733 370.403 228.63C369.422 225.601 368.318 222.56 367.215 219.544C362.936 207.81 358.902 196.738 362.813 188.645C363.083 188.081 363.377 187.529 363.671 186.99C363.72 186.916 363.757 186.843 363.806 186.769C363.867 186.646 363.941 186.536 364.002 186.414C364.664 185.285 365.4 184.182 366.197 183.103C366.197 183.103 366.209 183.103 366.197 183.09C368.122 180.454 370.403 177.965 372.842 175.464V175.452C374.007 174.262 375.209 173.073 376.411 171.871C381.279 167.028 386.245 162.087 389.763 156.189C391.775 152.829 393.307 149.163 394.08 145.043C394.46 142.983 394.607 140.997 394.533 139.035C394.521 138.802 394.509 138.557 394.497 138.312C394.497 138.25 394.484 138.189 394.484 138.128C394.386 136.62 394.153 135.136 393.834 133.677C392.571 127.951 389.751 122.519 386.539 117.026V117.014C385.73 115.628 384.896 114.242 384.062 112.844C381.426 108.442 378.728 103.955 376.472 99.1116C376.386 98.9278 376.301 98.7314 376.215 98.5476C376.055 98.2164 375.908 97.8732 375.761 97.5421C375.663 97.2969 375.553 97.0638 375.455 96.831C374.657 94.9547 373.946 93.0301 373.333 91.0434C372.512 88.3827 372.279 85.808 372.5 83.319C372.953 78.1814 375.356 73.3502 378.581 68.6908V68.6784C381.07 65.0982 384.025 61.6161 386.956 58.1706C389.175 55.5466 391.37 52.9716 393.27 50.4333C393.282 50.4213 393.27 50.4213 393.27 50.4213C394.558 48.7167 395.723 47.0249 396.691 45.345C397.206 45.259 397.709 45.1856 398.212 45.1119C397.206 46.9879 395.968 48.8638 394.582 50.7401C394.153 51.3164 393.712 51.8927 393.258 52.4687C392.461 53.4866 391.628 54.5167 390.769 55.5466L390.401 55.9879C390.279 56.1229 390.168 56.27 390.046 56.4051C389.334 57.2508 388.611 58.0969 387.888 58.9554C384.454 63.0015 380.972 67.109 378.311 71.3395C375.565 75.7167 373.689 80.2411 373.652 84.9986C373.64 86.8502 373.897 88.7505 374.498 90.6879C374.878 91.9142 375.295 93.1158 375.749 94.2927C376.215 95.4943 376.705 96.6716 377.232 97.8362C379.525 102.913 382.358 107.609 385.117 112.207C385.57 112.955 386.012 113.703 386.453 114.439V114.451C390.585 121.378 394.3 128.122 395.429 135.479C395.563 136.374 395.661 137.269 395.71 138.177C395.723 138.312 395.735 138.446 395.735 138.581Z" fill="#9FC3FC"/>
<path fill-rule="evenodd" clip-rule="evenodd" d="M443.873 343.52C429.295 343.164 414.446 342.417 399.413 341.386C394.95 341.08 390.462 340.749 385.962 340.393C384.626 340.283 383.277 340.172 381.928 340.062C378.986 339.817 376.031 339.572 373.075 339.314C372.364 339.253 371.666 339.192 370.954 339.13C370.378 339.069 369.789 339.02 369.213 338.971C368.833 338.934 368.441 338.897 368.06 338.86C362.911 338.395 357.736 337.892 352.562 337.377C342.361 336.359 332.134 335.244 321.909 334.066C318.647 330.461 318.218 327.016 323.932 325.765C323.932 325.765 321.369 317.599 332.294 315.466C334.01 315.134 335.984 315.404 338.118 316.14C343.182 317.856 349.202 322.173 354.941 327.139V327.151C355.112 327.286 355.284 327.433 355.444 327.58C355.444 327.58 355.444 327.592 355.456 327.592C359.441 331.087 363.291 334.863 366.577 338.284C366.7 338.137 366.834 337.978 366.97 337.831C367.398 337.328 367.865 336.813 368.355 336.286C368.686 335.93 369.029 335.562 369.397 335.194C369.421 335.145 369.471 335.096 369.52 335.059C369.642 334.924 369.765 334.802 369.912 334.667C370.231 334.324 370.586 333.968 370.942 333.625C376.018 328.585 382.529 323.154 387.9 318.887C393.663 314.301 398.114 311.052 398.114 311.052C402.111 307.545 404.612 310.034 406.733 313.394C409.186 317.231 411.147 322.209 414.323 320.615C420.27 317.624 429.025 316.655 429.209 322.786C429.393 328.916 436.872 327.42 442.046 331.602C445.566 334.434 451.929 339.057 443.873 343.52Z" fill="#4152F3"/>
<path fill-rule="evenodd" clip-rule="evenodd" d="M406.733 313.394C405.004 318.237 402.442 322.884 398.862 327.188C396.949 329.493 394.754 331.7 392.228 333.784C390.009 336.47 387.949 338.713 385.962 340.393C384.626 340.283 383.277 340.172 381.929 340.062C378.986 339.817 376.031 339.572 373.076 339.314C372.365 339.253 371.666 339.192 370.954 339.131C370.378 339.069 369.79 339.02 369.213 338.971C368.833 338.934 368.441 338.897 368.061 338.86C367.705 338.542 367.337 338.198 366.969 337.831C364.738 335.648 362.322 332.816 359.612 329.272C358.999 328.451 358.35 327.58 357.7 326.672C356.633 325.214 355.529 323.644 354.377 321.977C343.525 306.171 344.604 282.47 350.466 263.391C354.904 248.898 362.089 237.066 368.907 233.375C369.385 233.118 369.851 232.848 370.317 232.578C370.685 232.37 371.053 232.149 371.42 231.916C371.776 231.695 372.131 231.474 372.487 231.242C378.998 227.023 384.773 221.457 389.101 216.699C393.319 212.077 396.14 208.202 396.936 207.098C395.379 209.551 385.852 225.969 396.373 246.74C404.955 263.722 414.875 290.734 406.733 313.394Z" fill="#9FC3FC"/>
<path fill-rule="evenodd" clip-rule="evenodd" d="M387.899 318.887C387.789 320.382 387.568 321.879 387.237 323.35C385.509 330.989 383.804 336.396 381.928 340.062C378.986 339.817 376.03 339.572 373.075 339.314C372.364 339.253 371.665 339.192 370.954 339.131C370.378 339.069 369.789 339.02 369.213 338.971C368.833 338.934 368.44 338.897 368.061 338.861C362.911 338.395 357.737 337.892 352.562 337.377C345.242 332.031 340.754 324.417 338.118 316.14C334.317 304.222 334.329 290.931 335.212 281.06C336.855 262.741 324.851 253.631 323.294 252.515C324.888 253.533 337.701 261.626 350.465 263.391C350.711 263.428 350.956 263.465 351.201 263.489C356.792 264.151 364.664 269.828 371.69 278.056C381.119 289.091 389.028 304.688 387.899 318.887Z" fill="white"/>
<path fill-rule="evenodd" clip-rule="evenodd" d="M369.115 327.494C369.115 327.531 369.091 327.58 369.091 327.617C369.348 328.488 369.606 329.37 369.875 330.228C370.219 331.369 370.574 332.497 370.942 333.625C371.567 335.489 372.23 337.328 372.965 339.155C372.977 339.179 372.977 339.179 373.014 339.216C373.039 339.241 373.063 339.277 373.075 339.314C372.364 339.253 371.665 339.191 370.954 339.13C370.415 338.493 369.875 337.892 369.348 337.328C369.005 336.972 368.686 336.617 368.355 336.286C364.787 332.619 361.795 330.486 359.612 329.272C357.05 327.826 355.591 327.629 355.554 327.617C355.517 327.617 355.48 327.605 355.456 327.592C355.444 327.592 355.444 327.58 355.444 327.58C355.211 327.531 355.026 327.359 354.941 327.151V327.139C354.904 327.028 354.879 326.906 354.892 326.783C354.929 326.378 355.296 326.084 355.713 326.121C355.799 326.133 356.498 326.219 357.7 326.673C359.968 327.531 364.076 329.714 369.397 335.194C369.434 335.231 369.459 335.268 369.495 335.305C369.826 335.636 370.157 335.979 370.488 336.347C370.292 335.783 370.096 335.231 369.912 334.667C369.814 334.373 369.716 334.078 369.618 333.797C368.992 331.884 368.416 329.971 367.877 328.034C367.717 327.899 367.607 327.69 367.619 327.47C367.607 327.359 367.619 327.273 367.632 327.163C366.749 324.024 365.964 320.873 365.191 317.709C364.787 316.029 364.382 314.325 363.978 312.621C362.506 306.491 361.059 300.372 359.428 294.278C357.356 286.516 354.941 278.804 351.557 271.496C355.26 278.657 357.81 286.357 360.127 294.081C362.004 300.519 363.634 307.042 365.302 313.553C365.633 314.84 365.976 316.14 366.307 317.44C366.786 319.279 367.3 321.13 367.779 322.97C367.975 320.137 368.306 317.734 368.735 315.723C369.434 312.413 370.341 310.132 371.114 308.661C371.899 307.128 372.524 306.453 372.598 306.38C372.892 306.086 373.37 306.073 373.664 306.38C373.958 306.65 373.971 307.128 373.689 307.434C373.664 307.459 372.156 309.102 370.881 313.455C370.611 314.362 370.353 315.392 370.121 316.545C369.544 319.365 369.127 322.982 369.115 327.494Z" fill="#C0D2FF"/>
<path fill-rule="evenodd" clip-rule="evenodd" d="M372.704 83.6051C375.656 87.6093 377.27 92.5775 377.257 97.5476C377.248 98.0378 377.196 98.595 376.851 98.9138C376.805 98.9586 376.747 99.0038 376.676 99.0395C376.66 99.0466 376.638 99.0602 376.622 99.0674C376.224 99.2378 375.747 99.0859 375.349 98.9148C370.536 96.9278 366.401 93.3424 363.748 88.8586C361.09 84.3814 359.927 79.0268 360.484 73.8492C365.239 75.3125 369.756 79.5943 372.704 83.6051Z" fill="white"/>
<path fill-rule="evenodd" clip-rule="evenodd" d="M366.261 83.1399C366.279 83.1552 366.327 83.2357 366.428 83.3906C366.545 83.601 366.69 83.8542 366.874 84.1604C367.248 84.8292 367.804 85.7929 368.507 86.9695C369.913 89.323 371.96 92.5123 374.466 95.8607C375.273 96.9364 376.074 97.9552 376.852 98.9139C376.805 98.9584 376.747 99.0039 376.677 99.0396C376.66 99.0467 376.639 99.0604 376.623 99.0675C375.845 98.1088 375.049 97.0948 374.244 96.0308C371.73 92.6659 369.704 89.4519 368.335 87.0662C367.653 85.876 367.118 84.8987 366.771 84.2104C366.608 83.8909 366.48 83.6305 366.374 83.4188C366.293 83.2393 366.249 83.1409 366.261 83.1399Z" fill="#C0D2FF"/>
<path fill-rule="evenodd" clip-rule="evenodd" d="M366.917 171.374C367.878 176.256 367.218 181.438 365.085 185.926C364.868 186.366 364.583 186.848 364.135 186.989C364.074 187.01 364.002 187.026 363.923 187.028C363.905 187.028 363.88 187.031 363.862 187.03C363.429 187.014 363.063 186.674 362.776 186.349C359.271 182.499 357.061 177.491 356.575 172.304C356.082 167.121 357.315 161.782 360.028 157.337C363.704 160.69 365.962 166.489 366.917 171.374Z" fill="white"/>
<path fill-rule="evenodd" clip-rule="evenodd" d="M361.287 168.204C361.298 168.226 361.307 168.319 361.332 168.502C361.348 168.743 361.371 169.033 361.407 169.389C361.459 170.153 361.551 171.262 361.685 172.626C361.953 175.355 362.443 179.112 363.281 183.21C363.551 184.527 363.841 185.791 364.135 186.989C364.074 187.01 364.002 187.026 363.923 187.028C363.905 187.028 363.88 187.031 363.862 187.031C363.568 185.831 363.282 184.575 363.007 183.269C362.17 179.153 361.708 175.382 361.488 172.64C361.379 171.273 361.312 170.161 361.292 169.39C361.281 169.032 361.277 168.741 361.271 168.505C361.275 168.308 361.277 168.2 361.287 168.204Z" fill="#C0D2FF"/>
<path fill-rule="evenodd" clip-rule="evenodd" d="M370.279 203.018C367.726 207.288 366.597 212.388 367.089 217.334C367.145 217.821 367.251 218.371 367.624 218.655C367.675 218.695 367.737 218.735 367.81 218.763C367.828 218.769 367.85 218.78 367.867 218.786C368.28 218.917 368.74 218.72 369.12 218.512C373.719 216.07 377.49 212.104 379.699 207.386C381.914 202.673 382.556 197.232 381.504 192.131C376.911 194.046 372.827 198.742 370.279 203.018Z" fill="white"/>
<path fill-rule="evenodd" clip-rule="evenodd" d="M376.648 201.935C376.631 201.952 376.591 202.037 376.506 202.201C376.409 202.422 376.29 202.687 376.136 203.01C375.828 203.711 375.367 204.724 374.781 205.963C373.607 208.441 371.878 211.812 369.705 215.387C369.006 216.535 368.306 217.626 367.624 218.655C367.675 218.695 367.737 218.735 367.81 218.763C367.828 218.769 367.85 218.78 367.867 218.786C368.55 217.757 369.243 216.671 369.943 215.534C372.121 211.943 373.828 208.549 374.962 206.043C375.525 204.792 375.964 203.768 376.243 203.05C376.374 202.716 376.477 202.444 376.562 202.224C376.625 202.037 376.659 201.935 376.648 201.935Z" fill="#C0D2FF"/>
<path fill-rule="evenodd" clip-rule="evenodd" d="M373.405 109.856L373.585 110.447C373.586 110.447 373.587 110.447 373.587 110.447L373.405 109.856ZM384.335 113.503C380.556 113.503 372.812 111.544 372.536 110.144C372.47 109.811 372.657 109.41 373.223 109.266C373.582 109.177 373.954 109.365 374.056 109.69C374.082 109.777 374.087 109.864 374.073 109.947C375.74 110.829 383.245 112.973 385.881 112.076C386.396 111.901 386.47 111.685 386.474 111.477C386.481 111.142 386.782 110.874 387.149 110.874H387.16C387.533 110.879 387.831 111.159 387.825 111.497C387.813 112.161 387.424 113.302 384.959 113.482C384.766 113.496 384.557 113.503 384.335 113.503Z" fill="#040078"/>
</g>
<defs>
<linearGradient id="paint0_linear_1104_101" x1="130" y1="4649.28" x2="2348.04" y2="4649.28" gradientUnits="userSpaceOnUse">
<stop stop-color="#FFE9F1"/>
<stop offset="1" stop-color="#FFE9F4"/>
</linearGradient>
<linearGradient id="paint1_linear_1104_101" x1="272.545" y1="823.149" x2="295.912" y2="823.149" gradientUnits="userSpaceOnUse">
<stop stop-color="#FFE9F1"/>
<stop offset="1" stop-color="#FFE9F4"/>
</linearGradient>
</defs>
</svg>
