<svg width="375" height="431" viewBox="0 0 375 431" fill="none" xmlns="http://www.w3.org/2000/svg">
<mask id="mask0" mask-type="alpha" maskUnits="userSpaceOnUse" x="30" y="0" width="344" height="394">
<path d="M30.0205 0H373.976V393.591H30.0205V0Z" fill="white"/>
</mask>
<g mask="url(#mask0)">
<path fill-rule="evenodd" clip-rule="evenodd" d="M1074.07 185.174C1074.21 201.283 1071.52 217.378 1066.09 232.792C1065.11 235.61 1064.04 238.402 1062.86 241.167C1061.96 243.291 1061.02 245.401 1060.01 247.498C1058.99 249.635 1057.9 251.758 1056.76 253.855L1056.75 253.868C1044.9 275.809 1027.05 295.483 1003.62 310.543H1003.61C999.719 313.073 995.669 315.445 991.461 317.673C990.544 318.172 989.613 318.657 988.682 319.128C988.289 319.338 987.896 319.535 987.503 319.731C987.451 319.757 987.398 319.783 987.346 319.81C987.123 319.928 986.887 320.046 986.651 320.151C982.785 322.064 978.8 323.873 974.684 325.537C972.836 326.298 970.975 327.032 969.088 327.726C967.305 328.395 965.497 329.024 963.674 329.627C963.321 329.758 962.98 329.876 962.626 329.994C962.102 330.178 961.564 330.348 961.04 330.518C959.31 331.069 957.554 331.606 955.784 332.117C945.495 335.132 934.59 337.426 923.056 338.92C917.721 339.614 911.377 340.231 904.404 340.755C903.094 340.86 901.757 340.952 900.407 341.043C899.332 341.122 898.244 341.2 897.13 341.266C876.748 342.577 852.383 343.272 831.7 343.324C830.153 343.337 828.633 343.337 827.125 343.337C826.352 343.337 825.579 343.337 824.818 343.324C819.405 343.311 814.346 343.245 809.784 343.127C795.21 342.774 780.372 342.026 765.339 341.004C760.869 340.69 756.387 340.362 751.891 340.008C750.554 339.89 749.204 339.785 747.854 339.68C744.918 339.431 741.956 339.182 739.006 338.92C738.299 338.867 737.591 338.802 736.883 338.736C736.307 338.684 735.717 338.632 735.14 338.579C734.76 338.54 734.367 338.514 733.987 338.474C728.836 338.002 723.671 337.504 718.494 336.993C708.297 335.971 698.073 334.857 687.85 333.677C657.743 330.243 627.662 326.285 598.407 322.484C581.381 320.282 564.644 318.119 548.338 316.153C535.664 314.632 523.252 313.217 511.193 311.998C471.046 307.882 434.635 305.759 404.672 307.948C402.405 308.118 400.137 308.315 397.869 308.564C389.704 309.377 381.472 310.635 373.215 312.234C372.533 312.365 371.865 312.496 371.183 312.64C371.052 312.666 370.934 312.693 370.803 312.719C367.369 313.4 363.935 314.161 360.488 314.973C360.029 315.065 359.571 315.183 359.099 315.301C353.908 316.533 348.692 317.883 343.488 319.351C338.73 320.688 333.959 322.104 329.189 323.598C327.183 324.227 325.178 324.869 323.172 325.524C321.062 326.206 318.965 326.901 316.855 327.609C316.776 327.635 316.697 327.674 316.606 327.7C316.121 327.857 315.649 328.028 315.151 328.185C313.565 328.722 311.979 329.273 310.38 329.824C305.91 331.383 301.441 332.995 296.971 334.634C296.604 334.765 296.224 334.909 295.857 335.04C294.192 335.669 292.528 336.272 290.85 336.902C289.513 337.413 288.189 337.91 286.853 338.422C286.394 338.592 285.922 338.763 285.463 338.946C285.45 338.946 285.45 338.946 285.437 338.959C284.402 339.353 283.379 339.746 282.344 340.139C280.889 340.703 279.447 341.253 277.979 341.83C271.53 344.32 265.095 346.876 258.712 349.405C234.831 358.948 211.448 368.529 189.087 376.327C181.013 379.159 173.057 381.754 165.259 384.021C147.616 389.146 130.774 392.62 115.032 393.406C112.712 393.537 110.419 393.602 108.151 393.591C94.9391 393.576 82.5661 391.492 71.1893 386.682C-9.96965 352.368 47.7408 264.918 84.1129 210.93C100.09 187.206 101.165 175.344 95.8172 164.609C88.9886 150.912 71.7136 139.037 61.6476 106.702C43.6646 48.992 99.9986 -2.78082 261.176 0.116048C352.021 1.75406 396.729 16.4604 561.183 49.975C626.037 63.1871 688.387 55.9388 746.032 47.4715C750.423 46.8291 754.801 46.1741 759.139 45.5316C760.305 45.3482 761.459 45.1781 762.612 45.0074C763.124 44.9288 763.635 44.8503 764.133 44.7847C845.147 32.6081 939.4 9.65778 1021.95 78.2993C1050.63 102.141 1067.1 132.536 1072.28 164.151C1072.65 166.313 1072.96 168.489 1073.18 170.652C1073.75 175.475 1074.04 180.325 1074.07 185.174Z" fill="#EBF0FC"/>
</g>
<mask id="mask1" mask-type="alpha" maskUnits="userSpaceOnUse" x="59" y="14" width="316" height="229">
<path d="M59.46 14.0096H375V242.993H59.46V14.0096Z" fill="white"/>
</mask>
<g mask="url(#mask1)">
<path fill-rule="evenodd" clip-rule="evenodd" d="M1075.09 199.184C1051.76 178.317 1018.45 151.605 970.111 126.282C835.004 55.5174 865.36 151.173 775.039 217.088C684.718 282.99 683.853 210.967 560.49 136.925C437.113 62.8705 477.391 190.494 359.048 200.704C251.779 209.958 149.754 152.732 96.8411 178.619C90.0125 164.922 72.7374 153.047 62.6714 120.712C44.6884 63.0017 101.022 11.2288 262.2 14.1257C353.045 15.7637 397.753 30.4701 562.207 63.9846C627.06 77.1968 689.411 69.9485 747.055 61.4812C751.447 60.8388 755.824 60.1837 760.162 59.5413C761.329 59.3579 762.483 59.1878 763.636 59.017C764.147 58.9385 764.658 58.8599 765.156 58.7944C846.171 46.6177 940.424 23.6674 1022.97 92.3089C1051.65 116.151 1068.13 146.546 1073.3 178.16C1073.67 180.323 1073.98 182.499 1074.21 184.661C1074.77 189.485 1075.06 194.334 1075.09 199.184Z" fill="#F5F7FC"/>
</g>
<mask id="mask2" mask-type="alpha" maskUnits="userSpaceOnUse" x="0" y="14" width="375" height="417">
<path d="M0 430.627H375V14.0095H0V430.627Z" fill="white"/>
</mask>
<g mask="url(#mask2)">
<path d="M326.18 71.0483H243.42C237.753 71.0483 233.158 75.6436 233.158 81.3122V249.397C233.158 255.066 237.753 259.661 243.42 259.661H326.18C331.848 259.661 336.442 255.066 336.442 249.397V81.3122C336.442 75.6436 331.848 71.0483 326.18 71.0483Z" fill="#0C01FF"/>
<path d="M330.157 87.4142V235.937C330.157 237.92 329.37 239.821 327.97 241.224C326.569 242.627 324.669 243.416 322.687 243.418H242.27C241.523 243.418 240.806 243.121 240.277 242.593C239.749 242.064 239.452 241.347 239.452 240.6V87.1596C239.452 85.1756 240.24 83.2729 241.643 81.87C243.045 80.4671 244.948 79.679 246.931 79.679H322.423C324.474 79.679 326.442 80.494 327.892 81.9446C329.342 83.3952 330.157 85.3627 330.157 87.4142Z" fill="url(#paint0_linear)"/>
<path d="M330.157 86.4485V235.938C330.156 237.372 329.741 238.777 328.963 239.982C328.184 241.187 327.075 242.142 325.768 242.733L241.287 82.234C241.988 81.4318 242.853 80.7887 243.824 80.3481C244.794 79.9074 245.848 79.6793 246.913 79.679H323.38C324.27 79.6767 325.151 79.8502 325.974 80.1894C326.797 80.5287 327.544 81.0271 328.174 81.6561C328.804 82.285 329.303 83.0321 329.643 83.8545C329.983 84.6769 330.158 85.5584 330.157 86.4485Z" fill="url(#paint1_linear)"/>
<path d="M285.327 257.01C288.488 257.01 291.05 254.447 291.05 251.285C291.05 248.123 288.488 245.56 285.327 245.56C282.166 245.56 279.604 248.123 279.604 251.285C279.604 254.447 282.166 257.01 285.327 257.01Z" fill="url(#paint2_linear)"/>
<path d="M287.583 251.821C287.479 252.268 287.244 252.674 286.909 252.988C286.574 253.302 286.153 253.51 285.7 253.585C285.248 253.661 284.782 253.6 284.364 253.412C283.945 253.223 283.591 252.915 283.348 252.526C283.104 252.137 282.98 251.684 282.993 251.225C283.006 250.766 283.154 250.321 283.419 249.946C283.685 249.571 284.055 249.283 284.483 249.118C284.912 248.953 285.38 248.919 285.828 249.02C286.128 249.087 286.411 249.213 286.662 249.391C286.913 249.568 287.126 249.794 287.289 250.054C287.453 250.314 287.563 250.605 287.613 250.908C287.664 251.211 287.653 251.521 287.583 251.821Z" fill="url(#paint3_linear)"/>
<path d="M272.133 76.9835C272.783 76.9835 273.31 76.4567 273.31 75.807C273.31 75.1572 272.783 74.6304 272.133 74.6304C271.484 74.6304 270.957 75.1572 270.957 75.807C270.957 76.4567 271.484 76.9835 272.133 76.9835Z" fill="url(#paint4_linear)"/>
<path d="M297.757 76.7026H278.05C277.817 76.7026 277.594 76.6101 277.429 76.4454C277.264 76.2808 277.172 76.0575 277.172 75.8246C277.172 75.5917 277.264 75.3684 277.429 75.2038C277.594 75.0391 277.817 74.9466 278.05 74.9466H297.757C297.989 74.9466 298.213 75.0391 298.377 75.2038C298.542 75.3684 298.634 75.5917 298.634 75.8246C298.634 76.0575 298.542 76.2808 298.377 76.4454C298.213 76.6101 297.989 76.7026 297.757 76.7026Z" fill="url(#paint5_linear)"/>
<path d="M319.501 125.862V178.34C319.502 178.625 319.447 178.907 319.339 179.17C319.231 179.433 319.072 179.672 318.871 179.873C318.671 180.075 318.432 180.235 318.17 180.344C317.907 180.453 317.626 180.509 317.341 180.509H289.4C289.349 179.325 288.842 178.206 287.986 177.386C287.13 176.567 285.99 176.109 284.805 176.109C283.62 176.109 282.481 176.567 281.624 177.386C280.768 178.206 280.261 179.325 280.21 180.509H252.269C251.985 180.509 251.703 180.453 251.44 180.344C251.178 180.235 250.939 180.075 250.739 179.873C250.538 179.672 250.379 179.433 250.271 179.17C250.163 178.907 250.108 178.625 250.109 178.34V125.862C250.109 125.289 250.337 124.74 250.742 124.335C251.147 123.93 251.696 123.702 252.269 123.702H280.21C280.261 124.886 280.768 126.005 281.624 126.825C282.481 127.644 283.62 128.102 284.805 128.102C285.99 128.102 287.13 127.644 287.986 126.825C288.842 126.005 289.349 124.886 289.4 123.702H317.341C317.625 123.702 317.906 123.758 318.168 123.867C318.43 123.975 318.668 124.134 318.868 124.335C319.069 124.535 319.228 124.773 319.336 125.035C319.445 125.298 319.501 125.578 319.501 125.862Z" fill="url(#paint6_linear)"/>
<path d="M315.322 109.277H254.288C251.979 109.277 250.109 108.126 250.109 106.722C250.109 105.308 251.979 104.158 254.288 104.158H315.322C317.631 104.158 319.51 105.308 319.51 106.722C319.51 108.126 317.657 109.277 315.322 109.277Z" fill="url(#paint7_linear)"/>
<path d="M297.107 234.261H270.843C269.906 234.263 269.006 233.895 268.339 233.238C267.671 232.58 267.29 231.686 267.279 230.749C267.279 229.803 267.654 228.896 268.323 228.228C268.991 227.559 269.898 227.184 270.843 227.184H297.107C298.052 227.184 298.959 227.559 299.627 228.228C300.295 228.896 300.671 229.803 300.671 230.749C300.659 231.686 300.279 232.58 299.611 233.238C298.944 233.895 298.044 234.263 297.107 234.261Z" fill="url(#paint8_linear)"/>
<path d="M306.632 138.163H262.978C262.574 138.151 262.191 137.982 261.91 137.692C261.63 137.401 261.474 137.013 261.477 136.609C261.472 136.203 261.627 135.812 261.907 135.52C262.188 135.228 262.573 135.057 262.978 135.046H306.632C307.041 135.046 307.434 135.209 307.724 135.499C308.014 135.788 308.177 136.181 308.177 136.591C308.18 136.796 308.143 137 308.067 137.191C307.991 137.381 307.877 137.555 307.733 137.701C307.59 137.847 307.418 137.964 307.229 138.043C307.04 138.122 306.837 138.163 306.632 138.163Z" fill="url(#paint9_linear)"/>
<path d="M306.632 150.956H262.978C262.568 150.956 262.175 150.793 261.886 150.503C261.596 150.213 261.433 149.82 261.433 149.41C261.432 149.207 261.471 149.005 261.548 148.816C261.625 148.628 261.739 148.456 261.883 148.312C262.026 148.167 262.197 148.053 262.385 147.975C262.573 147.896 262.774 147.856 262.978 147.856H306.632C306.836 147.856 307.037 147.896 307.225 147.975C307.413 148.053 307.584 148.167 307.728 148.312C307.871 148.456 307.985 148.628 308.062 148.816C308.139 149.005 308.178 149.207 308.177 149.41C308.177 149.82 308.014 150.213 307.724 150.503C307.435 150.793 307.042 150.956 306.632 150.956Z" fill="url(#paint10_linear)"/>
<path d="M306.632 163.142H262.978C262.568 163.142 262.175 162.979 261.886 162.689C261.596 162.4 261.433 162.007 261.433 161.597C261.432 161.393 261.471 161.191 261.548 161.003C261.625 160.814 261.739 160.643 261.883 160.498C262.026 160.354 262.197 160.239 262.385 160.161C262.573 160.083 262.774 160.043 262.978 160.043H306.632C306.836 160.043 307.037 160.083 307.225 160.161C307.413 160.239 307.584 160.354 307.728 160.498C307.871 160.643 307.985 160.814 308.062 161.003C308.139 161.191 308.178 161.393 308.177 161.597C308.177 162.007 308.014 162.4 307.724 162.689C307.435 162.979 307.042 163.142 306.632 163.142Z" fill="url(#paint11_linear)"/>
<path fill-rule="evenodd" clip-rule="evenodd" d="M101.867 353.086H86.6512C85.9042 353.086 85.2988 352.481 85.2988 351.734C85.2988 350.987 85.9042 350.381 86.6512 350.381H101.867C102.613 350.381 103.219 350.987 103.219 351.734C103.219 352.481 102.613 353.086 101.867 353.086Z" fill="#FF473D"/>
<path fill-rule="evenodd" clip-rule="evenodd" d="M122.679 353.086H107.464C106.717 353.086 106.111 352.481 106.111 351.734C106.111 350.987 106.717 350.381 107.464 350.381H122.679C123.426 350.381 124.032 350.987 124.032 351.734C124.032 352.481 123.426 353.086 122.679 353.086Z" fill="#EAEAEA"/>
<path fill-rule="evenodd" clip-rule="evenodd" d="M143.493 353.086H128.278C127.531 353.086 126.925 352.481 126.925 351.734C126.925 350.987 127.531 350.381 128.278 350.381H143.493C144.24 350.381 144.846 350.987 144.846 351.734C144.846 352.481 144.24 353.086 143.493 353.086Z" fill="#EAEAEA"/>
<mask id="mask3" mask-type="alpha" maskUnits="userSpaceOnUse" x="270" y="216" width="106" height="140">
<path d="M270.536 216.189H375V355.841H270.536V216.189Z" fill="white"/>
</mask>
<g mask="url(#mask3)">
<path fill-rule="evenodd" clip-rule="evenodd" d="M397.946 251.135C392.209 259.558 381.31 266.754 378.307 275.593C375.304 284.431 380.759 293.601 375.181 302.048C370.473 309.146 359.305 313.658 352.685 320.167C348.578 324.2 346.433 328.736 344.508 333.358C339.752 334.694 334.983 336.116 330.214 337.612C328.204 338.237 326.205 338.875 324.195 339.537C322.086 340.211 319.99 340.91 317.881 341.621C317.795 341.645 317.722 341.682 317.636 341.707C317.146 341.866 316.667 342.038 316.177 342.197C314.583 342.736 313.002 343.288 311.408 343.84C306.934 345.396 302.459 347.003 297.997 348.645C297.629 348.78 297.249 348.915 296.881 349.05C295.214 349.675 293.547 350.288 291.879 350.913C290.543 351.416 289.219 351.918 287.883 352.433C287.417 352.605 286.951 352.777 286.485 352.96C286.473 352.96 286.473 352.96 286.461 352.973C285.431 353.365 284.401 353.757 283.372 354.149C281.913 354.714 280.466 355.265 279.007 355.841C278.272 355.314 277.585 354.75 276.948 354.162C271.762 349.479 269.384 343.312 271.076 337.146C272.326 332.623 275.44 328.332 278.321 324.004C278.603 323.575 278.884 323.158 279.154 322.741C279.841 321.663 280.503 320.596 281.104 319.517C281.275 319.198 281.459 318.868 281.631 318.549C281.692 318.439 281.729 318.328 281.79 318.23C285.026 311.904 286.032 305.211 287.662 298.665C289.342 291.971 291.671 285.461 297.666 279.724C307.779 270.051 325.997 265.123 336.405 255.586C344.594 248.071 346.813 238.754 352.82 230.478C358.827 222.191 372.3 214.186 384.522 216.638C405.829 222.289 408.256 236.032 397.946 251.135Z" fill="#C0D2FF"/>
</g>
<path fill-rule="evenodd" clip-rule="evenodd" d="M125.22 217.825H139.59V207.493H125.22V217.825Z" fill="#C0D2FF"/>
<path fill-rule="evenodd" clip-rule="evenodd" d="M183.724 361.266C180.083 362.786 176.295 364.171 172.396 365.422C154.547 371.098 134.356 373.77 115.869 372.409C110.892 372.054 106.037 371.392 101.379 370.423C100.729 358.838 100.839 345.145 102.2 330.127C102.298 328.938 102.421 327.737 102.543 326.523C105.608 296.61 113.626 261.831 130.224 228.204C137.212 214.057 145.708 200.118 156.006 186.829C158.347 191.831 161.951 195.962 166.549 199.052C170.815 201.945 175.927 203.931 181.677 204.924C181.456 214.486 187.414 236.479 190.454 254.5C190.908 257.222 191.3 259.857 191.594 262.334C191.656 262.885 191.717 263.486 191.754 264.124C193.212 285.246 183.221 350.661 183.724 361.266Z" fill="#4152F3"/>
<path fill-rule="evenodd" clip-rule="evenodd" d="M134.207 224.195C124.88 239.752 137.905 269.021 150.471 278.981C163.037 288.942 183.111 303.5 183.111 303.5V274.997L134.207 224.195Z" fill="#322FE6"/>
<path fill-rule="evenodd" clip-rule="evenodd" d="M183.724 361.266C180.083 362.786 176.295 364.171 172.396 365.422C174.394 361.352 178.085 355.357 180.046 348.124C183.724 334.528 179.739 311.162 175.902 265.19C175.902 265.19 182.927 261.708 191.753 264.124C193.212 285.246 183.221 350.661 183.724 361.266Z" fill="#86A8FF"/>
<path fill-rule="evenodd" clip-rule="evenodd" d="M190.115 390.339C182.036 393.171 174.08 395.757 166.283 398.026C148.642 403.15 131.798 406.631 116.057 407.416C113.74 407.551 111.448 407.612 109.18 407.6C108.812 407.232 108.432 406.717 108.052 406.067C107.954 405.908 107.868 405.736 107.77 405.552C106.483 403.088 105.232 399.068 104.153 393.722C104.068 393.293 103.982 392.864 103.896 392.423C103.798 391.92 103.712 391.405 103.614 390.903C103.479 390.13 103.344 389.333 103.222 388.512C102.842 386.048 102.486 383.388 102.192 380.544C102.033 379.048 101.886 377.516 101.763 375.922C101.616 374.144 101.493 372.305 101.383 370.418C106.041 371.386 110.896 372.048 115.873 372.404C134.36 373.764 154.551 371.092 172.4 365.416L172.413 365.404C173.062 365.195 173.712 364.987 174.35 364.766C174.669 364.656 174.987 364.558 175.306 364.447C175.576 364.362 175.845 364.264 176.115 364.165C176.532 364.018 176.936 363.883 177.353 363.724C177.795 363.577 178.224 363.417 178.665 363.246C179.229 363.05 179.793 362.829 180.344 362.608C181.485 362.179 182.613 361.726 183.728 361.26V361.419C184.255 370.393 190.691 382.775 190.115 390.339Z" fill="#421CBF"/>
<path fill-rule="evenodd" clip-rule="evenodd" d="M190.454 254.5C190.356 254.868 190.307 255.076 190.307 255.076C190.307 255.076 184.828 234.493 183.884 231.244C182.927 227.996 181.652 217.759 177.435 211.482C173.23 205.193 166.635 202.975 166.549 199.052C170.815 201.945 175.927 203.931 181.677 204.924C181.456 214.486 187.414 236.479 190.454 254.5Z" fill="#86A8FF"/>
<path fill-rule="evenodd" clip-rule="evenodd" d="M171.257 292.871C163.595 303.598 146.027 336.674 134.381 348.124C126.364 356.018 122.318 365.936 115.87 372.409C110.892 372.054 106.038 371.392 101.379 370.423C100.68 357.919 100.864 342.95 102.544 326.523C109.115 327.933 117.696 328.202 128.546 320.565C152.365 303.807 158.52 287.048 165.25 288.482C171.98 289.917 171.257 292.871 171.257 292.871Z" fill="#322FE6"/>
<path fill-rule="evenodd" clip-rule="evenodd" d="M147.559 308.097C147.559 308.097 126.412 335.546 103.426 330.397C103.021 330.311 102.617 330.213 102.2 330.127C102.298 328.938 102.421 327.737 102.544 326.523C105.608 296.611 113.626 261.831 130.225 228.204C133.964 225.961 136.134 225.066 136.134 225.066C128.717 244.656 124.586 253.335 120.589 269.297C116.605 285.271 116.311 310.083 120.589 311.162C124.88 312.241 143.109 305.854 160.272 282.451C177.435 259.06 147.559 308.097 147.559 308.097Z" fill="#322FE6"/>
<path fill-rule="evenodd" clip-rule="evenodd" d="M190.115 390.339C182.037 393.171 174.08 395.757 166.283 398.026C166.063 397.682 165.83 397.339 165.597 396.971C161.245 390.228 165.339 375.37 172.401 365.416L172.413 365.404C173.063 365.195 173.713 364.987 174.35 364.766C177.574 363.7 180.7 362.523 183.728 361.26V361.419C184.255 370.393 190.691 382.775 190.115 390.339Z" fill="#322FE6"/>
<path fill-rule="evenodd" clip-rule="evenodd" d="M116.057 407.416C113.74 407.551 111.448 407.612 109.179 407.6C108.812 407.232 108.432 406.717 108.052 406.067C107.954 405.908 107.868 405.736 107.77 405.553C106.483 403.088 105.232 399.067 104.153 393.722C104.067 393.293 103.982 392.864 103.896 392.423C103.798 391.92 103.712 391.405 103.614 390.903C103.479 390.13 103.344 389.333 103.222 388.512C102.842 386.048 102.498 383.388 102.192 380.544C102.032 379.048 101.885 377.516 101.763 375.922C101.616 374.144 101.493 372.305 101.383 370.417C106.041 371.386 110.896 372.048 115.873 372.404C109.253 384.565 109.253 402.794 115.076 406.778C115.407 406.999 115.726 407.207 116.057 407.416Z" fill="#211280"/>
<path fill-rule="evenodd" clip-rule="evenodd" d="M221.115 165.008C220.796 165.522 220.404 166.025 219.962 166.491C218.92 167.619 217.657 168.612 216.665 169.458C215.671 170.316 214.936 171.015 214.985 171.554C215.022 171.897 215.022 173.479 214.605 175.551C214.58 175.661 214.556 175.784 214.531 175.906C213.526 180.54 210.437 187.356 201.255 188.852C199.845 189.085 198.276 189.183 196.559 189.134C195.505 189.109 194.402 189.023 193.225 188.876C192.269 188.754 191.006 189.06 189.657 189.808C187.034 191.255 184.104 194.344 182.633 199.015C182.081 200.731 181.738 202.668 181.677 204.814V204.924C177.447 204.188 173.549 202.926 170.092 201.136C168.853 200.51 167.676 199.812 166.549 199.052C161.952 195.962 158.347 191.831 156.006 186.829C162.013 179.081 168.621 171.542 175.903 164.321C175.903 164.321 179.433 157.922 183.283 152.552C185.906 148.899 188.664 145.724 190.565 145.356C195.272 144.437 210.388 145.356 210.388 145.356C213.502 146.754 214.924 148.679 215.598 150.64C216.53 153.337 216.039 156.12 216.566 157.714C217.486 160.472 222.954 162.016 221.115 165.008Z" fill="#FDB2D0"/>
<path fill-rule="evenodd" clip-rule="evenodd" d="M221.115 165.008C220.796 165.522 220.404 166.025 219.962 166.491C219.154 163.353 214.225 159.651 213.968 154.036C213.968 154.036 214.52 152.172 215.598 150.64C216.53 153.337 216.039 156.12 216.567 157.714C217.486 160.472 222.954 162.016 221.115 165.008Z" fill="#FCCDE0"/>
<path fill-rule="evenodd" clip-rule="evenodd" d="M214.532 175.906C213.527 180.54 210.437 187.356 201.255 188.852C205.313 186.547 210.535 181.925 214.532 175.906Z" fill="#FCCDE0"/>
<path fill-rule="evenodd" clip-rule="evenodd" d="M214.298 178.579C214.323 178.493 214.396 178.284 214.507 177.99C214.47 178.137 214.421 178.272 214.372 178.407C214.335 178.493 214.311 178.542 214.298 178.579Z" fill="#FE93BC"/>
<path fill-rule="evenodd" clip-rule="evenodd" d="M214.985 171.554C215.022 171.897 215.022 173.479 214.605 175.551C214.47 173.994 214.102 172.425 214.164 171.689C214.262 170.647 214.862 170.193 216.664 169.458C215.671 170.316 214.936 171.015 214.985 171.554Z" fill="#FE93BC"/>
<path fill-rule="evenodd" clip-rule="evenodd" d="M199.891 161.157C202.318 162.136 203.467 160.118 203.467 160.118C203.467 160.118 204.437 159.505 207.247 160.399C210.056 161.293 213.479 156.364 213.479 156.364C213.479 156.364 204.974 152.558 202.369 155.112C199.763 157.667 199.891 161.157 199.891 161.157Z" fill="#FE93BC"/>
<path fill-rule="evenodd" clip-rule="evenodd" d="M195.064 168.134C192.207 169.47 187.304 173.601 185.82 174.729C184.337 175.845 179.997 176.875 174.431 177.39C168.853 177.892 160.787 188.264 164.722 194.32C166.083 196.404 166.659 198.083 166.549 199.052C161.952 195.962 158.347 191.831 156.006 186.829C162.013 179.081 168.62 171.542 175.903 164.321C175.903 164.321 179.433 157.922 183.283 152.552C183.589 152.577 183.883 152.626 184.177 152.712C193.372 155.323 195.064 168.134 195.064 168.134Z" fill="#FE93BC"/>
<path fill-rule="evenodd" clip-rule="evenodd" d="M212.153 158.155C207.323 162.446 203.952 156.929 203.952 156.929C204.749 163.242 200.482 160.742 197.173 161.268C196.67 161.342 196.192 161.489 195.751 161.747C194.978 162.2 194.439 163.095 193.924 164.235C192.257 167.95 190.92 174.263 183.062 176.617C172.789 179.682 170.693 168.134 173.709 157.738C173.709 157.738 189.265 151.228 201.194 147.587C206.526 145.957 211.136 144.903 213.306 145.27C213.845 145.356 214.237 145.528 214.446 145.81C217.363 149.721 216.984 153.864 212.153 158.155Z" fill="#05009F"/>
<path fill-rule="evenodd" clip-rule="evenodd" d="M212.153 158.155C207.323 162.445 203.952 156.929 203.952 156.929C204.749 163.242 200.482 160.742 197.173 161.268C197.062 161.195 197.001 161.158 197.001 161.158C197.001 161.158 198.533 160.521 199.894 159.001C201.243 157.456 201.194 153.373 204.209 153.484C207.225 153.582 208.034 153.116 208.5 147.967C208.5 147.967 210.474 146.595 213.306 145.27C213.845 145.356 214.237 145.528 214.446 145.81C217.363 149.721 216.984 153.864 212.153 158.155Z" fill="#322FE6"/>
<path fill-rule="evenodd" clip-rule="evenodd" d="M202.566 147.882C199.821 150.26 200.654 155.703 198.742 156.23C196.829 156.77 192.379 155.396 189.596 157.309C186.814 159.221 186.176 158.608 183.786 159.454C181.383 160.3 178.342 158.351 177.975 162.213C177.619 166.074 186.715 163.819 189.596 162.213C189.596 162.213 191.607 162.961 193.924 164.235C192.257 167.95 190.92 174.263 183.062 176.617C172.789 179.682 170.693 168.134 173.709 157.738C173.709 157.738 189.265 151.228 201.194 147.587C202.481 147.403 203.045 147.477 202.566 147.882Z" fill="#040078"/>
<path fill-rule="evenodd" clip-rule="evenodd" d="M196.363 169.642C194.794 167.41 186.102 165.743 187.929 161.44L187.941 161.428C187.978 161.318 188.027 161.207 188.088 161.097C190.405 156.794 196.093 156.451 200.458 161.073C200.715 161.33 200.96 161.612 201.193 161.906C201.193 161.906 203.081 168.906 196.363 169.642Z" fill="#FDB2D0"/>
<path fill-rule="evenodd" clip-rule="evenodd" d="M196.559 189.134C195.505 189.109 194.402 189.023 193.225 188.876C190.393 188.509 184.852 191.966 182.633 199.015C183.295 196.097 185.06 192.113 187.095 190.201C189.706 187.736 188.223 184.316 188.125 184.083C190.282 185.885 192.624 188.018 196.559 189.134Z" fill="#FE93BC"/>
<path fill-rule="evenodd" clip-rule="evenodd" d="M212.374 148.262C210.376 148.875 207.385 149.807 203.768 150.898C203.204 151.069 202.616 151.253 202.015 151.437C202.003 151.449 201.991 151.461 201.978 151.461C198.386 152.552 194.292 153.778 190.001 155.041C189.989 155.053 189.964 155.053 189.94 155.066C171.293 160.509 149.031 166.418 148.626 163.586C148.013 159.295 176.062 158.535 177.595 148.262C178.661 141.127 181.064 132.643 188.886 128.671C189.805 128.206 190.81 127.789 191.889 127.458C194.806 126.551 198.325 126.171 202.567 126.514C203.131 126.563 203.694 126.612 204.234 126.685C222.206 128.892 229.782 142.892 212.374 148.262Z" fill="#FDA218"/>
<path fill-rule="evenodd" clip-rule="evenodd" d="M200.458 161.073C195.076 159.442 191.104 157.861 187.941 161.428C187.978 161.318 188.027 161.208 188.089 161.097C190.406 156.794 196.094 156.451 200.458 161.073Z" fill="#FCCDE0"/>
<path fill-rule="evenodd" clip-rule="evenodd" d="M212.374 148.262C210.376 148.875 207.384 149.807 203.768 150.898C209.125 146.962 216.321 140.759 214.299 137.155C211.148 131.564 200.887 128.193 194.561 128.966L191.889 127.458C194.806 126.551 198.325 126.171 202.567 126.514C203.13 126.563 203.694 126.612 204.234 126.685C222.206 128.892 229.782 142.892 212.374 148.262Z" fill="#FFBE71"/>
<path fill-rule="evenodd" clip-rule="evenodd" d="M189.939 155.066C171.293 160.509 149.03 166.418 148.626 163.586C148.013 159.295 176.062 158.535 177.594 148.262C178.661 141.127 181.064 132.643 188.885 128.671C189.057 128.929 189.142 129.211 189.142 129.517C183.467 134.017 180.586 143.358 180.892 148.421C181.198 153.484 171.918 156.39 176.442 156.696C179.311 156.892 185.661 155.85 189.939 155.066Z" fill="#FC8000"/>
<path fill-rule="evenodd" clip-rule="evenodd" d="M187.167 127.971C187.465 130.138 189.74 131.616 192.249 131.272C194.757 130.927 196.55 128.891 196.253 126.724C195.955 124.557 193.68 123.079 191.171 123.424C188.662 123.768 186.87 125.804 187.167 127.971Z" fill="#FDA218"/>
<path fill-rule="evenodd" clip-rule="evenodd" d="M193.455 124.228C191.501 123.807 189.873 124.113 191.214 125.071C192.555 126.029 193.895 127.025 193.799 128.117C193.704 129.208 196.136 127.944 195.715 126.24C195.294 124.535 193.455 124.228 193.455 124.228Z" fill="#FFBE71"/>
<path fill-rule="evenodd" clip-rule="evenodd" d="M165.85 266.821L183.111 267.642C178.122 280.637 163.754 300.166 147.878 318.052V318.064C135.864 331.61 122.992 344.201 112.658 352.292C108.943 355.21 105.547 357.539 102.654 359.12C81.053 370.926 54.6959 363.57 53.1634 322.195C51.6312 280.821 70.02 243.124 94.3298 229.43C117.12 216.607 113.344 205.573 135.987 200.706C137.507 200.376 139.137 200.081 140.915 199.812C145.488 199.113 149.766 199.199 153.738 199.959C174.321 203.833 186.752 225.482 188.113 248.432L182.829 246.054L175.486 242.756L133.498 223.877C118.922 243.258 105.363 311.775 105.572 314.019C105.584 314.104 105.609 314.19 105.658 314.288C106.761 316.703 119.621 321.766 139.493 305.437C160.125 288.482 165.85 266.821 165.85 266.821Z" fill="#FDA218"/>
<path fill-rule="evenodd" clip-rule="evenodd" d="M133.498 223.877C118.922 243.258 105.363 311.775 105.571 314.019C102.654 302.581 113.074 266.269 117.524 252.784C121.974 239.299 132.897 210.171 149.558 212.328C157.808 213.383 167.75 226.794 175.486 242.756L133.498 223.877Z" fill="#FC8000"/>
<path fill-rule="evenodd" clip-rule="evenodd" d="M188.113 248.432L182.829 246.054C170.937 233.905 152.157 216.607 148.074 214.719C142.558 212.169 159.107 206.444 151.544 207.057C143.979 207.67 139.137 207.339 144.948 204.924C150.06 202.803 147.694 200.486 153.738 199.959C174.321 203.832 186.752 225.482 188.113 248.432Z" fill="#FFBE71"/>
<path fill-rule="evenodd" clip-rule="evenodd" d="M183.111 267.642C178.122 280.637 163.754 300.166 147.878 318.052C147.511 310.108 145.61 305.609 140.363 310.856C133.67 317.549 108.894 325.346 105.657 314.288C106.761 316.703 119.621 321.766 139.493 305.437C160.125 288.483 165.85 266.82 165.85 266.82L183.111 267.642Z" fill="#FC8000"/>
<path fill-rule="evenodd" clip-rule="evenodd" d="M137.85 202.766C125.628 206.076 123.556 209.815 113.233 219.524C102.911 229.234 97.3949 225.556 87.1705 237.864C76.9464 250.173 71.2455 282.353 69.3578 296.88C67.4699 311.407 65.5206 330.372 71.4786 341.896C76.8603 352.317 89.0217 363.031 112.657 352.292C108.943 355.21 105.547 357.539 102.654 359.12C81.0531 370.926 54.6956 363.57 53.1635 322.195C51.6309 280.821 70.0197 243.123 94.3298 229.43C117.12 216.607 113.344 205.573 135.987 200.706C140.289 201.344 146.247 200.498 137.85 202.766Z" fill="#FC8000"/>
<path fill-rule="evenodd" clip-rule="evenodd" d="M79.9747 348.087C67.985 347.486 66.2197 325.04 67.7032 308.171C68.0834 303.892 68.6719 299.982 69.3581 296.88C76.162 300.693 89.2671 297.898 95.2007 292.994C95.5562 295.115 95.1637 298.094 95.4211 305.131C95.5438 308.465 95.8136 312.719 96.3775 318.211C98.5228 339.211 95.2988 348.859 79.9747 348.087Z" fill="#E8740C"/>
<path fill-rule="evenodd" clip-rule="evenodd" d="M95.2007 292.994C89.2674 297.898 76.162 300.692 69.3584 296.88C69.4194 296.573 69.4808 296.279 69.5545 295.985C72.6192 280.894 92.6998 287.612 94.5385 291.033C94.8819 291.67 95.0903 292.283 95.2007 292.994Z" fill="#FC8000"/>
<path fill-rule="evenodd" clip-rule="evenodd" d="M76.959 299.738C76.959 302.559 79.2459 304.846 82.0671 304.846C84.888 304.846 87.1749 302.559 87.1749 299.738C87.1749 296.917 84.888 294.63 82.0671 294.63C79.2459 294.63 76.959 296.917 76.959 299.738Z" fill="#914B0C"/>
<path fill-rule="evenodd" clip-rule="evenodd" d="M284.973 174.239C283.036 177.72 270.863 183.875 279.959 187.246C282.668 188.251 283.318 189.734 282.423 191.733C282.436 191.733 282.436 191.733 282.423 191.745C280.916 195.08 275.105 199.849 267.516 206.187C264.439 208.749 261.08 211.58 257.586 214.67C246.161 224.771 228.372 304.935 211.614 307.582C200.311 309.372 189.388 301.968 174.064 291.253C182.842 284.572 194.353 270.265 198.497 259.588C202.505 264.994 206.245 268.39 209.064 266.82C217.486 262.125 241.76 219.12 246.479 209.57C252.609 197.151 265.628 182.673 275.215 175.465C284.789 168.269 286.922 170.769 284.973 174.239Z" fill="#FDB2D0"/>
<path fill-rule="evenodd" clip-rule="evenodd" d="M267.516 206.187C264.439 208.749 261.08 211.58 257.586 214.67C246.161 224.771 228.373 304.934 211.614 307.582C200.311 309.372 189.388 301.968 174.064 291.253C182.842 284.572 194.353 270.265 198.497 259.588C198.595 268.868 202.567 293.693 212.84 286.484C223.113 279.288 234.907 254.316 240.73 241.285C246.553 228.253 251.604 217.073 254.056 214.768C255.539 213.383 262.368 209.239 267.516 206.187Z" fill="#FE93BC"/>
<path fill-rule="evenodd" clip-rule="evenodd" d="M284.973 174.239C283.036 177.72 270.863 183.875 279.959 187.246C282.668 188.251 283.318 189.734 282.423 191.733C282.374 190.053 281.798 188.08 279.42 188.153C275.325 188.264 274.896 184.316 274.859 182.134C274.822 179.952 281.418 171.947 274.136 177.537C266.854 183.127 254.521 195.104 243.39 216.631C232.246 238.146 212.227 267.409 208.316 269.714C204.406 272.006 198.975 266.085 198.497 259.588C202.505 264.994 206.244 268.39 209.064 266.82C217.486 262.125 241.759 219.12 246.479 209.57C252.609 197.151 265.628 182.673 275.215 175.465C284.789 168.269 286.922 170.769 284.973 174.239Z" fill="#FCCDE0"/>
<path fill-rule="evenodd" clip-rule="evenodd" d="M198.496 259.588C197.123 263.118 194.953 267.041 192.342 270.952C187.046 278.883 179.936 286.779 174.063 291.253C166.671 286.08 158.249 280.134 148.27 274.078C117.622 255.481 127.258 226.647 136.832 217.833C144.126 211.127 156.128 209.435 167.529 217.33C171.097 219.794 174.615 223.215 177.901 227.701C183 234.665 191.079 249.535 198.496 259.588Z" fill="#4152F3"/>
<path fill-rule="evenodd" clip-rule="evenodd" d="M198.496 259.588C197.123 263.118 194.953 267.041 192.342 270.952C185.513 266.735 157.317 227.419 145.879 219.059C141.883 216.153 154.142 217.22 160.737 220.53C166.205 223.264 163.349 219.096 167.529 217.33C171.097 219.794 174.615 223.215 177.901 227.701C183 234.665 191.079 249.535 198.496 259.588Z" fill="#86A8FF"/>
<path fill-rule="evenodd" clip-rule="evenodd" d="M247.994 64.2542H152.544C146.034 59.073 141.131 50.6369 149.626 42.9182C162.633 31.121 170.761 47.8738 171.129 48.6574C171.006 47.6741 168.052 22.5389 194.63 19.2969C221.735 15.9891 218.548 42.6657 218.548 42.6657C218.548 42.6657 226.197 35.6644 232.131 40.5667C238.077 45.469 231.775 50.743 231.775 50.743C238.077 49.8929 248.828 49.5076 251.525 55.4328C253.425 59.5911 252.052 62.4607 247.994 64.2542Z" fill="white"/>
<path fill-rule="evenodd" clip-rule="evenodd" d="M313.774 337.563C312.842 339.917 312.07 342.001 311.408 343.84C306.933 345.397 302.459 347.002 297.996 348.645C297.628 348.78 297.249 348.915 296.88 349.05C295.213 349.675 293.546 350.288 291.879 350.913C290.543 351.416 289.219 351.918 287.882 352.433C287.417 352.605 286.951 352.776 286.485 352.96C286.472 352.96 286.472 352.96 286.46 352.973L286.448 352.96C281.556 350.362 277.609 347.983 277.609 347.983C275.525 345.727 274.36 343.251 273.821 340.591C271.296 328.27 281.863 311.929 274.14 294.459C264.737 273.202 259.22 254.004 285.578 255.23C309.361 256.333 293.228 280.41 296.746 294.631C297.126 296.164 297.739 297.598 298.658 298.86C308.049 311.818 319.499 323.06 313.774 337.563Z" fill="#9FC3FC"/>
<path fill-rule="evenodd" clip-rule="evenodd" d="M303.255 320.412C303.219 320.449 298.965 323.722 296.832 335.883C296.832 335.92 296.807 335.945 296.807 335.969C296.832 336.165 296.869 336.362 296.893 336.558C297.04 337.367 297.065 338.213 297.138 339.034C297.199 339.855 297.297 340.689 297.261 341.523L297.236 344.011L297.261 345.176L297.433 346.341C297.567 347.113 297.764 347.885 297.996 348.645C297.629 348.78 297.249 348.915 296.881 349.05C296.636 348.228 296.427 347.395 296.28 346.537L296.096 345.262L296.084 343.962L296.121 341.535C296.157 340.726 296.072 339.917 296.01 339.12C295.949 338.311 295.925 337.502 295.79 336.692C295.765 336.484 295.729 336.276 295.704 336.068C295.63 335.957 295.594 335.81 295.618 335.675C295.63 335.65 295.63 335.638 295.63 335.626C295.164 332.353 294.478 329.116 293.693 325.892C293.669 325.868 293.632 325.843 293.62 325.818C291.781 322.631 290.028 320.253 288.471 318.487C284.83 314.307 282.304 313.51 282.268 313.498C281.937 313.4 281.753 313.057 281.851 312.738C281.937 312.407 282.28 312.223 282.599 312.309C282.758 312.358 285.382 313.155 289.121 317.347C290.236 318.598 291.45 320.155 292.737 322.08C292.333 320.584 291.94 319.076 291.536 317.58C291.241 316.526 290.96 315.472 290.665 314.418C289.206 309.146 287.723 303.874 286.436 298.566C284.94 292.167 283.629 285.694 283.334 279.136C283.911 285.67 285.333 292.094 287.012 298.419C288.324 303.384 289.783 308.3 291.229 313.228C291.634 314.589 292.038 315.962 292.431 317.323C293.166 319.861 293.889 322.41 294.539 324.985C294.588 325.059 294.637 325.12 294.674 325.194C294.772 325.353 294.772 325.536 294.723 325.696C295.299 327.989 295.814 330.306 296.243 332.635C298.597 322.398 302.361 319.542 302.532 319.419C302.814 319.223 303.194 319.284 303.391 319.554C303.587 319.836 303.525 320.216 303.255 320.412Z" fill="#C0D2FF"/>
<path fill-rule="evenodd" clip-rule="evenodd" d="M291.879 350.913C290.543 351.416 289.219 351.918 287.882 352.433C287.417 352.605 286.951 352.776 286.485 352.96C286.473 352.96 286.473 352.96 286.461 352.973C285.431 353.365 284.401 353.757 283.371 354.149C275.452 357.19 267.569 360.304 259.735 363.418C252.012 364.398 243.235 365.624 232.704 368.873C210.686 375.664 218.152 358.403 226.525 352.482C234.91 346.561 222.651 337.158 246.557 332.867C259.821 330.489 266.797 335.209 273.821 340.591C277.266 343.214 280.723 346.009 284.94 348.191C287.024 349.283 289.317 350.227 291.879 350.913Z" fill="#C0D2FF"/>
<path fill-rule="evenodd" clip-rule="evenodd" d="M286.485 352.96C286.472 352.96 286.472 352.96 286.46 352.973C285.43 353.365 284.4 353.757 283.371 354.149C282.746 354.149 282.133 354.137 281.507 354.125C278.32 354.002 275.145 353.733 271.994 353.316C268.831 352.862 265.742 352.396 262.604 352.2C259.465 352.004 256.315 352.078 253.201 352.532C251.644 352.764 250.099 353.059 248.592 353.524C247.844 353.77 247.108 354.027 246.385 354.346C245.674 354.677 244.95 355.02 244.362 355.547C245.502 354.431 247.01 353.794 248.493 353.218C249.989 352.654 251.534 352.262 253.103 351.943C256.241 351.354 259.453 351.17 262.64 351.256C265.84 351.305 269.015 351.833 272.129 352.212C275.255 352.58 278.406 352.813 281.544 352.899C283.175 352.973 284.805 352.997 286.448 352.96C286.46 352.973 286.472 352.973 286.485 352.96Z" fill="#9FC3FC"/>
<path fill-rule="evenodd" clip-rule="evenodd" d="M423.078 291.861C423.078 291.861 413.05 301.496 408.06 310.875C405.645 315.41 402.458 319.395 398.89 322.57C390.725 323.391 382.5 324.641 374.237 326.247C373.563 326.37 372.888 326.505 372.202 326.652C372.079 326.676 371.957 326.701 371.822 326.726C380.244 299.706 399.564 291.995 423.078 291.861Z" fill="#9FC3FC"/>
<path fill-rule="evenodd" clip-rule="evenodd" d="M399.478 305.799C397.222 307.086 389.769 312.284 382.585 318.426C381.727 319.15 380.868 319.898 380.035 320.657C377.975 322.484 375.989 324.372 374.236 326.247C373.562 326.37 372.888 326.505 372.201 326.652C374.261 324.36 376.7 321.994 379.25 319.713L379.263 319.701C380.574 318.524 381.923 317.372 383.259 316.244C390.05 310.605 396.744 305.946 398.865 304.732C399.159 304.561 399.539 304.659 399.699 304.953C399.87 305.247 399.772 305.627 399.478 305.799Z" fill="#C0D2FF"/>
<path fill-rule="evenodd" clip-rule="evenodd" d="M459.034 256.775C459.095 257.106 458.874 257.424 458.531 257.473C458.519 257.473 458.507 257.473 458.494 257.486C449.423 259.018 440.853 261.102 432.836 263.713C429.452 264.817 426.167 266.006 422.979 267.293C407.594 273.484 394.587 281.771 384.314 291.885C383.272 292.903 382.254 293.945 381.261 295.011C373.71 303.127 367.837 312.321 363.804 322.447C363.265 323.808 362.762 325.181 362.284 326.579C362.014 327.375 361.745 328.172 361.512 328.981C361.058 329.08 360.592 329.19 360.126 329.312C361.732 323.968 363.804 318.855 366.33 313.988C367.359 312.002 368.475 310.053 369.664 308.153C376.027 297.88 384.571 288.832 395.028 281.207C397.125 279.663 399.307 278.191 401.563 276.782C417.034 267.048 436.084 260.06 458.126 256.309C458.2 256.296 458.261 256.284 458.335 256.272C458.666 256.211 458.985 256.431 459.034 256.775Z" fill="#4152F3"/>
<path fill-rule="evenodd" clip-rule="evenodd" d="M366.343 314.093C365.047 299.815 367.644 282.203 378.159 267.736C378.159 267.736 380.913 290.476 366.343 314.093Z" fill="#4152F3"/>
<path fill-rule="evenodd" clip-rule="evenodd" d="M361.094 327.166C367.792 314.491 379.571 301.142 396.274 294.748C396.274 294.748 386.184 315.312 361.094 327.166Z" fill="#4152F3"/>
<path fill-rule="evenodd" clip-rule="evenodd" d="M413.968 216.638C413.956 216.65 413.944 216.65 413.932 216.65C402.763 222.437 392.478 228.725 383.149 235.444C379.226 238.276 375.462 241.168 371.883 244.16C354.438 258.614 340.977 274.82 331.832 292.228C331.832 292.24 331.819 292.24 331.819 292.253C330.9 293.993 330.029 295.734 329.208 297.5C322.797 311.169 318.996 325.536 317.979 340.346C317.942 340.775 317.917 341.191 317.881 341.621C317.795 341.645 317.721 341.682 317.636 341.707C317.145 341.866 316.667 342.037 316.177 342.197C316.422 337.526 316.937 332.904 317.733 328.319C318.248 325.242 318.898 322.19 319.67 319.162C323.691 303.237 330.998 287.999 341.381 273.79C343.503 270.885 345.746 268.028 348.136 265.209C348.136 265.196 348.149 265.184 348.161 265.172C357.98 253.538 369.97 242.676 383.995 232.796C384.485 232.465 384.963 232.121 385.441 231.79C393.912 225.906 403.107 220.389 413 215.265C413.073 215.228 413.135 215.191 413.208 215.154C413.613 214.934 414.115 215.105 414.336 215.522C414.545 215.927 414.385 216.43 413.968 216.638Z" fill="#4152F3"/>
<path fill-rule="evenodd" clip-rule="evenodd" d="M370.265 244.218C385.539 232.025 407.529 221.758 431.884 222.863C431.884 222.863 408.076 243.068 370.265 244.218Z" fill="#4152F3"/>
<path fill-rule="evenodd" clip-rule="evenodd" d="M341.348 274.835C341.831 255.297 348.107 231.854 364.613 213.911C364.613 213.911 364.779 245.137 341.348 274.835Z" fill="#4152F3"/>
<path fill-rule="evenodd" clip-rule="evenodd" d="M327.804 298.03C338.384 281.598 355.943 264.845 379.376 258.114C379.376 258.114 363.267 284.864 327.804 298.03Z" fill="#4152F3"/>
<path fill-rule="evenodd" clip-rule="evenodd" d="M317.787 328.447C310.175 310.447 306.23 286.501 313.874 263.35C313.874 263.35 326.895 291.732 317.787 328.447Z" fill="#4152F3"/>
<path fill-rule="evenodd" clip-rule="evenodd" d="M348.615 290.892C348.615 290.892 344.937 315.778 324.194 339.537C322.086 340.211 319.99 340.91 317.881 341.621C317.795 341.645 317.721 341.682 317.636 341.707C317.746 341.253 317.856 340.799 317.979 340.346C322.392 322.962 331.942 304.254 348.615 290.892Z" fill="#4152F3"/>
<path d="M353.566 50.034H313.871C311.297 50.034 309.21 52.1214 309.21 54.6962V94.3996C309.21 96.9745 311.297 99.0618 313.871 99.0618H353.566C356.14 99.0618 358.227 96.9745 358.227 94.3996V54.6962C358.227 52.1214 356.14 50.034 353.566 50.034Z" fill="#FF5C00"/>
<path d="M329.944 85.6634C329.714 85.6674 329.486 85.6198 329.276 85.5241C329.067 85.4284 328.881 85.287 328.733 85.1103L322.343 76.9624C322.2 76.8054 322.091 76.6206 322.023 76.4196C321.954 76.2186 321.928 76.0057 321.946 75.7941C321.963 75.5826 322.024 75.3769 322.125 75.19C322.226 75.0031 322.364 74.8389 322.53 74.7077C322.697 74.5765 322.889 74.4811 323.095 74.4274C323.3 74.3738 323.514 74.363 323.724 74.3958C323.934 74.4285 324.134 74.5042 324.314 74.618C324.493 74.7318 324.646 74.8812 324.765 75.0571L329.883 81.5719L342.629 63.6167C342.733 63.4256 342.875 63.2585 343.048 63.1264C343.221 62.9942 343.419 62.9 343.631 62.8499C343.842 62.7998 344.062 62.7949 344.276 62.8356C344.489 62.8762 344.692 62.9615 344.87 63.0858C345.049 63.2101 345.199 63.3707 345.311 63.557C345.423 63.7433 345.494 63.9512 345.521 64.1671C345.547 64.3829 345.527 64.6019 345.463 64.8096C345.399 65.0174 345.292 65.2093 345.148 65.3727L331.209 85.0137C331.068 85.2095 330.883 85.37 330.67 85.4828C330.457 85.5955 330.221 85.6573 329.98 85.6634H329.944Z" fill="url(#paint12_linear)"/>
<path d="M182.45 78.053H142.755C140.181 78.053 138.094 80.1404 138.094 82.7152V122.419C138.094 124.993 140.181 127.081 142.755 127.081H182.45C185.025 127.081 187.112 124.993 187.112 122.419V82.7152C187.112 80.1404 185.025 78.053 182.45 78.053Z" fill="#DEB040"/>
<path d="M158.942 105.861H157.811L153.516 99.2867V105.861H152.385V97.3297H153.516L157.823 103.933V97.3297H158.942V105.861ZM165.645 102.093H162.065V105.861H160.94V97.3297H166.225V98.2554H162.065V101.173H165.645V102.093ZM173.584 98.2554H170.842V105.861H169.723V98.2554H166.987V97.3297H173.584V98.2554Z" fill="white"/>
</g>
<defs>
<linearGradient id="paint0_linear" x1="239.452" y1="161.553" x2="330.157" y2="161.553" gradientUnits="userSpaceOnUse">
<stop stop-color="#949BFF"/>
<stop offset="1" stop-color="#BFBFFF"/>
</linearGradient>
<linearGradient id="paint1_linear" x1="241.304" y1="161.211" x2="330.157" y2="161.211" gradientUnits="userSpaceOnUse">
<stop stop-color="#BFBFFF"/>
<stop offset="0.07" stop-color="#B9BAFF"/>
<stop offset="0.39" stop-color="#A5A9FF"/>
<stop offset="0.7" stop-color="#989EFF"/>
<stop offset="1" stop-color="#949BFF"/>
</linearGradient>
<linearGradient id="paint2_linear" x1="2038.28" y1="2768.85" x2="2187.66" y2="2768.85" gradientUnits="userSpaceOnUse">
<stop stop-color="#E9EAFF"/>
<stop offset="1" stop-color="#EBE9FF"/>
</linearGradient>
<linearGradient id="paint3_linear" x1="1015.84" y1="1274.53" x2="1040.46" y2="1274.53" gradientUnits="userSpaceOnUse">
<stop stop-color="#0B00FF"/>
<stop offset="1" stop-color="#555BFF"/>
</linearGradient>
<linearGradient id="paint4_linear" x1="609.252" y1="122.939" x2="615.58" y2="122.939" gradientUnits="userSpaceOnUse">
<stop stop-color="#E9EAFF"/>
<stop offset="1" stop-color="#EBE9FF"/>
</linearGradient>
<linearGradient id="paint5_linear" x1="3515.02" y1="110.997" x2="4040.64" y2="110.997" gradientUnits="userSpaceOnUse">
<stop stop-color="#E9EAFF"/>
<stop offset="1" stop-color="#EBE9FF"/>
</linearGradient>
<linearGradient id="paint6_linear" x1="8580.55" y1="6226.47" x2="14065.9" y2="6226.47" gradientUnits="userSpaceOnUse">
<stop stop-color="#E9EAFF"/>
<stop offset="1" stop-color="#EBE9FF"/>
</linearGradient>
<linearGradient id="paint7_linear" x1="8581.6" y1="389.478" x2="14068.4" y2="389.478" gradientUnits="userSpaceOnUse">
<stop stop-color="#E9EAFF"/>
<stop offset="1" stop-color="#EBE9FF"/>
</linearGradient>
<linearGradient id="paint8_linear" x1="4929.16" y1="1621.02" x2="6199.39" y2="1621.02" gradientUnits="userSpaceOnUse">
<stop stop-color="#E9EAFF"/>
<stop offset="1" stop-color="#EBE9FF"/>
</linearGradient>
<linearGradient id="paint9_linear" x1="6470.27" y1="414.883" x2="8957.05" y2="414.883" gradientUnits="userSpaceOnUse">
<stop stop-color="#0B00FF"/>
<stop offset="1" stop-color="#555BFF"/>
</linearGradient>
<linearGradient id="paint10_linear" x1="6476.02" y1="471.306" x2="8965.13" y2="471.306" gradientUnits="userSpaceOnUse">
<stop stop-color="#0B00FF"/>
<stop offset="1" stop-color="#555BFF"/>
</linearGradient>
<linearGradient id="paint11_linear" x1="6476.02" y1="526.355" x2="8965.13" y2="526.355" gradientUnits="userSpaceOnUse">
<stop stop-color="#0B00FF"/>
<stop offset="1" stop-color="#555BFF"/>
</linearGradient>
<linearGradient id="paint12_linear" x1="322.009" y1="74.3108" x2="345.429" y2="74.3108" gradientUnits="userSpaceOnUse">
<stop stop-color="#FFD4DF"/>
<stop offset="1" stop-color="#FFE9EF"/>
</linearGradient>
</defs>
</svg>
