<svg width="370" height="415" viewBox="0 0 370 415" fill="none" xmlns="http://www.w3.org/2000/svg">
<mask id="mask0" mask-type="alpha" maskUnits="userSpaceOnUse" x="-3" y="0" width="373" height="415">
<path d="M-2.97168 0H370V415H-2.97168V0Z" fill="white"/>
</mask>
<g mask="url(#mask0)">
<path fill-rule="evenodd" clip-rule="evenodd" d="M370.001 195.247C370.147 212.231 367.314 229.202 361.593 245.454C360.556 248.426 359.422 251.37 358.179 254.285C357.239 256.524 356.244 258.749 355.18 260.961C354.102 263.213 352.955 265.452 351.752 267.663L351.739 267.677C339.246 290.812 320.423 311.555 295.727 327.435H295.713C291.608 330.102 287.338 332.603 282.901 334.953C281.934 335.478 280.953 335.99 279.972 336.487C279.557 336.708 279.143 336.915 278.728 337.122C278.673 337.15 278.617 337.178 278.562 337.205C278.327 337.33 278.078 337.454 277.83 337.565C273.752 339.583 269.551 341.49 265.212 343.245C263.263 344.047 261.301 344.82 259.311 345.553C257.431 346.258 255.524 346.921 253.603 347.557C253.23 347.695 252.871 347.819 252.497 347.943C251.945 348.137 251.378 348.317 250.825 348.497C249.001 349.077 247.149 349.643 245.284 350.182C234.435 353.361 222.937 355.779 210.775 357.355C205.15 358.087 198.461 358.737 191.109 359.29C189.727 359.4 188.317 359.497 186.894 359.594C185.76 359.677 184.614 359.76 183.439 359.829C161.949 361.211 136.258 361.943 114.45 361.998C112.819 362.013 111.216 362.013 109.626 362.013C108.811 362.013 107.996 362.013 107.194 361.998C101.487 361.985 96.1519 361.916 91.3426 361.791C75.9749 361.418 60.3307 360.63 44.4787 359.552C39.7667 359.221 35.0399 358.875 30.2994 358.502C28.8899 358.378 27.4664 358.267 26.0432 358.156C22.9474 357.894 19.8242 357.631 16.7146 357.355C15.9681 357.3 15.2223 357.231 14.4758 357.161C13.8679 357.106 13.2457 357.051 12.6378 356.996C12.237 356.954 11.8221 356.927 11.4214 356.885C5.99017 356.388 0.545349 355.863 -4.91388 355.323C-15.6656 354.246 -26.4452 353.071 -37.2251 351.827C-68.9694 348.206 -100.686 344.033 -131.532 340.025C-149.485 337.703 -167.133 335.423 -184.325 333.35C-197.689 331.746 -210.777 330.254 -223.491 328.969C-265.821 324.629 -304.213 322.39 -335.806 324.698C-338.197 324.878 -340.587 325.085 -342.978 325.348C-351.588 326.205 -360.267 327.532 -368.974 329.218C-369.692 329.356 -370.397 329.494 -371.116 329.646C-371.254 329.674 -371.379 329.701 -371.516 329.729C-375.137 330.448 -378.758 331.249 -382.393 332.106C-382.876 332.203 -383.36 332.327 -383.858 332.452C-389.331 333.751 -394.831 335.174 -400.317 336.722C-405.334 338.131 -410.365 339.624 -415.395 341.199C-417.51 341.863 -419.624 342.54 -421.738 343.231C-423.963 343.949 -426.175 344.682 -428.4 345.428C-428.483 345.456 -428.566 345.498 -428.662 345.525C-429.174 345.691 -429.671 345.871 -430.196 346.036C-431.869 346.603 -433.541 347.184 -435.227 347.764C-439.939 349.409 -444.652 351.108 -449.365 352.836C-449.752 352.974 -450.152 353.126 -450.539 353.264C-452.294 353.928 -454.05 354.563 -455.818 355.227C-457.228 355.766 -458.624 356.291 -460.034 356.83C-460.517 357.01 -461.015 357.189 -461.498 357.383C-461.512 357.383 -461.512 357.383 -461.526 357.397C-462.618 357.811 -463.696 358.226 -464.788 358.64C-466.322 359.235 -467.842 359.815 -469.39 360.423C-476.189 363.049 -482.975 365.744 -489.705 368.411C-514.885 378.472 -539.54 388.574 -563.117 396.797C-571.63 399.783 -580.019 402.519 -588.242 404.91C-606.843 410.313 -624.602 413.976 -641.2 414.805C-643.646 414.943 -646.065 415.012 -648.455 415C-662.386 414.985 -675.432 412.787 -687.428 407.715C-773.001 371.534 -712.152 279.327 -673.801 222.403C-656.955 197.389 -655.821 184.882 -661.46 173.563C-668.66 159.121 -686.875 146.6 -697.489 112.506C-716.45 51.6569 -657.051 -2.93208 -487.107 0.12236C-391.321 1.84947 -344.181 17.3558 -170.781 52.6933C-102.4 66.6241 -36.6583 58.9815 24.1221 50.0537C28.752 49.3764 33.3676 48.6856 37.942 48.0083C39.1721 47.8149 40.3882 47.6356 41.6047 47.4555C42.1434 47.3727 42.6824 47.2899 43.2075 47.2207C128.629 34.3818 228.008 10.1831 315.047 82.5583C345.285 107.697 362.657 139.745 368.115 173.079C368.503 175.36 368.834 177.654 369.069 179.934C369.663 185.02 369.967 190.133 370.001 195.247Z" fill="#EBF0FC"/>
</g>
<mask id="mask1" mask-type="alpha" maskUnits="userSpaceOnUse" x="-3" y="0" width="373" height="242">
<path d="M-2.97168 0H369.994V241.438H-2.97168V0Z" fill="white"/>
</mask>
<g mask="url(#mask1)">
<path fill-rule="evenodd" clip-rule="evenodd" d="M369.995 195.247C345.395 173.245 310.278 145.08 259.31 118.38C116.854 43.7655 148.861 144.624 53.6277 214.125C-41.6061 283.612 -42.5183 207.671 -172.592 129.602C-302.679 51.5186 -260.211 186.084 -384.991 196.85C-498.094 206.607 -605.669 146.268 -661.46 173.563C-668.66 159.121 -686.875 146.6 -697.489 112.506C-716.45 51.6569 -657.052 -2.93208 -487.107 0.12236C-391.321 1.84947 -344.181 17.3558 -170.782 52.6933C-102.4 66.6241 -36.6586 58.9815 24.1218 50.0537C28.7516 49.3763 33.3672 48.6856 37.9417 48.0083C39.1718 47.8149 40.3879 47.6355 41.6044 47.4555C42.1431 47.3727 42.6821 47.2899 43.2072 47.2207C128.629 34.3817 228.008 10.1831 315.046 82.5583C345.285 107.697 362.656 139.745 368.115 173.079C368.502 175.36 368.834 177.654 369.069 179.934C369.663 185.02 369.967 190.133 369.995 195.247Z" fill="#F5F7FC"/>
</g>
<path fill-rule="evenodd" clip-rule="evenodd" d="M355.566 180.183C355.552 180.335 355.525 180.487 355.483 180.653C354.295 186.609 337.338 212.01 333.468 215.493C329.612 218.961 312.406 222.389 305.317 224.352C302.566 225.112 303.99 222.541 306.754 219.1C306.768 219.1 306.768 219.086 306.782 219.086C308.813 216.571 311.577 213.586 313.954 211.126C316.649 208.306 318.847 206.164 318.847 206.164C336.716 200.913 340.848 195.993 345.215 187.521C347.205 183.652 349.762 180.639 351.849 179.077C354.212 177.322 355.953 177.405 355.566 180.183Z" fill="#FDB2D0"/>
<path fill-rule="evenodd" clip-rule="evenodd" d="M351.849 179.077C348.352 184.025 346.984 192.164 341.636 199.213C337.738 204.34 325.784 208.403 313.954 211.126C316.649 208.306 318.847 206.164 318.847 206.164C336.716 200.913 340.848 195.993 345.215 187.521C347.205 183.651 349.762 180.639 351.849 179.077Z" fill="#FCCDE0"/>
<path fill-rule="evenodd" clip-rule="evenodd" d="M355.566 180.183C355.552 180.335 355.525 180.487 355.483 180.653C354.295 186.609 337.338 212.01 333.468 215.493C329.612 218.961 312.406 222.389 305.317 224.352C302.566 225.112 303.99 222.541 306.754 219.1C306.768 219.1 306.768 219.086 306.782 219.086C306.837 219.045 306.865 219.017 306.865 219.017C315.157 216.834 330.483 212.701 335.43 209.937C340.378 207.159 349.361 191.239 351.089 185.959C351.724 184.011 353.452 181.8 355.566 180.183Z" fill="#FE93BC"/>
<path fill-rule="evenodd" clip-rule="evenodd" d="M230.641 165.242C243.405 160.357 246.007 138.987 241.536 127.382C237.066 115.777 253.483 106.745 253.483 106.745C253.483 106.745 208.023 103.64 201.37 125.087C194.716 146.533 211.496 160.672 230.641 165.242Z" fill="#9FC3FC"/>
<path fill-rule="evenodd" clip-rule="evenodd" d="M260.039 176.026C268.422 183.445 284.93 177.24 291.665 169.597C298.4 161.954 311.179 170.456 311.179 170.456C311.179 170.456 296.213 136.262 278.116 139.554C260.018 142.845 256.106 160.389 260.039 176.026Z" fill="#9FC3FC"/>
<path fill-rule="evenodd" clip-rule="evenodd" d="M217.597 174.316C217.941 163.127 202.614 154.403 192.431 154.112C182.248 153.821 180.613 138.56 180.613 138.56C180.613 138.56 163.894 171.932 177.997 183.741C192.1 195.55 208.09 187.339 217.597 174.316Z" fill="#9FC3FC"/>
<path fill-rule="evenodd" clip-rule="evenodd" d="M275.814 169.724C275.725 169.379 275.373 169.171 275.026 169.261C260.873 172.945 245.501 182.139 242.008 192.744C241.182 189.313 239.811 186.336 237.885 183.785C236.576 182.053 235.01 180.534 233.2 179.212C231.207 174.058 231.416 167.307 231.626 160.772C231.932 151.282 232.247 141.47 225.84 136.067C225.569 135.839 225.161 135.871 224.93 136.145C224.699 136.418 224.734 136.825 225.007 137.056C230.935 142.054 230.643 151.126 230.334 160.73C230.141 166.74 229.954 172.925 231.447 178.042C224.031 173.537 212.993 171.921 198.011 173.12C197.655 173.149 197.39 173.461 197.419 173.817C197.447 174.173 197.764 174.442 198.115 174.409C213.9 173.141 225.164 175.028 232.293 180.153C232.296 180.155 232.298 180.156 232.302 180.159C234.068 181.43 235.591 182.892 236.854 184.564C239.218 187.695 240.697 191.524 241.317 196.104C241.317 196.111 241.315 196.119 241.315 196.127C241.307 196.219 241.321 196.307 241.349 196.389C242.549 205.847 240.088 218.513 233.883 235.126C233.759 235.461 233.929 235.833 234.263 235.958C234.338 235.986 234.414 235.999 234.49 235.999C234.75 235.999 234.998 235.838 235.095 235.578C241.379 218.75 243.856 205.858 242.611 196.152C243.575 184.782 260.178 174.461 275.351 170.512C275.697 170.423 275.905 170.069 275.814 169.724Z" fill="#4152F3"/>
<path fill-rule="evenodd" clip-rule="evenodd" d="M280.137 215.12C280.137 215.12 279.473 215.921 278.326 217.303C273.697 222.845 261.176 237.743 252.248 247.445C252.22 247.458 252.193 247.486 252.179 247.514L238.041 228.014L236.064 225.277C236.092 225.264 236.12 225.264 236.148 225.264C252.621 219.901 269.495 215.507 280.137 215.12Z" fill="#FE93BC"/>
<path fill-rule="evenodd" clip-rule="evenodd" d="M236.148 225.264C252.621 219.901 269.495 215.507 280.137 215.12C280.137 215.12 279.473 215.921 278.326 217.303C264.478 220.316 247.494 225.07 238.041 228.014L236.064 225.278C236.092 225.264 236.12 225.264 236.148 225.264Z" fill="#FCCDE0"/>
<path fill-rule="evenodd" clip-rule="evenodd" d="M181.794 226.01C180.785 228.083 177.979 228.622 174.842 228.124C174.483 228.069 174.124 228 173.751 227.917C173.723 227.917 173.695 227.903 173.668 227.889C168.762 226.742 163.51 223.246 163.317 219.114C163.178 216.101 158.438 217.11 152.717 220.136C148.46 222.361 143.665 225.706 139.795 229.327C139.145 229.921 138.537 230.529 137.971 231.137C137.805 231.303 137.653 231.469 137.501 231.634C135.29 233.998 133.617 236.389 132.843 238.627C128.905 249.753 108.092 226.977 108.092 226.977C108.99 225.996 110.054 224.725 111.257 223.246C113.164 220.938 115.416 218.133 118.001 215.23C126.39 205.805 139.615 199.973 153.145 202.018C169.895 204.547 180.274 215.396 181.946 222.251C181.96 222.278 181.96 222.306 181.974 222.334C182.319 223.785 182.264 225.042 181.794 226.01Z" fill="#FDB2D0"/>
<path fill-rule="evenodd" clip-rule="evenodd" d="M152.716 220.136C148.459 222.361 143.664 225.706 139.794 229.327C139.145 229.921 138.537 230.529 137.97 231.137C137.804 231.303 137.652 231.469 137.5 231.635C136.256 229.631 135.842 227.461 135.842 227.461L136.049 227.254C139.421 224.725 145.986 219.805 151.624 220.039C152.011 220.054 152.37 220.095 152.716 220.136Z" fill="#FE93BC"/>
<path fill-rule="evenodd" clip-rule="evenodd" d="M127.434 326.921C127.034 330.773 125.108 336.693 122.652 343.014C120.118 349.529 117.016 356.483 114.444 362.002C112.815 362.015 111.212 362.015 109.622 362.015C108.808 362.015 107.994 362.015 107.192 362.002C106.636 358.305 106.249 354.169 106.43 350.485C106.921 340.958 106.973 308.475 120.7 299.918C120.7 299.918 120.92 300.319 121.281 301.056C123.104 304.727 128.507 316.658 127.434 326.921Z" fill="#E8740C"/>
<path fill-rule="evenodd" clip-rule="evenodd" d="M193.035 349.645C192.738 352.773 191.988 356.147 191.109 359.288C189.726 359.404 188.317 359.494 186.896 359.598C185.758 359.675 184.608 359.753 183.444 359.831C181.997 355.048 180.342 349.27 178.933 343.583C176.956 335.646 175.443 327.89 175.624 323.315C175.96 314.641 181.001 305.463 183.987 300.758C185.254 298.755 186.159 297.553 186.159 297.553C198.516 307.997 193.914 340.144 193.035 349.645Z" fill="#E8740C"/>
<path fill-rule="evenodd" clip-rule="evenodd" d="M189.688 337.404C188.835 345.819 187.723 354.001 186.896 359.598C185.758 359.675 184.608 359.753 183.445 359.83C161.949 361.213 136.251 361.938 114.445 362.002C112.817 362.015 111.214 362.015 109.624 362.015C109.973 355.94 110.735 345.857 112.235 335.245C114.006 322.668 116.836 309.354 121.283 301.056C121.749 300.164 122.239 299.337 122.757 298.574C122.757 298.574 167.714 295.174 183.987 300.759C186.805 301.728 188.77 302.969 189.481 304.546C191.769 309.587 191.071 323.819 189.688 337.404Z" fill="#FDA218"/>
<path fill-rule="evenodd" clip-rule="evenodd" d="M189.688 337.404C188.835 345.819 187.723 354.001 186.896 359.598C185.758 359.675 184.608 359.753 183.445 359.83C161.949 361.213 136.251 361.938 114.445 362.002C112.817 362.015 111.214 362.015 109.624 362.015C109.973 355.94 110.735 345.857 112.235 335.245C114.355 338.955 118.142 341.359 122.653 343.014C127.035 344.629 132.089 345.534 136.962 346.22C142.172 346.969 147.174 347.46 150.884 348.326C153.159 348.856 155.964 348.934 159.014 348.676C165.361 348.12 172.806 346.077 178.933 343.583C183.677 341.644 187.633 339.433 189.688 337.404Z" fill="#FC8000"/>
<path fill-rule="evenodd" clip-rule="evenodd" d="M165.088 331.629C158.98 331.79 144.255 330.976 133.462 327.068C133.824 322.545 134.822 318.724 136.648 318.282C149.533 315.201 163.859 317.981 165.492 320.538C166.831 322.65 166.114 326.972 165.088 331.629Z" fill="#FC8000"/>
<path fill-rule="evenodd" clip-rule="evenodd" d="M165.089 331.629C164.876 332.64 164.634 333.675 164.408 334.698C163.097 340.436 161.713 351.319 151.687 352.145C141.663 352.972 135.604 346.716 134.132 340.296C133.386 337.054 133.105 331.689 133.463 327.068C144.256 330.976 158.981 331.79 165.089 331.629Z" fill="#E8740C"/>
<path fill-rule="evenodd" clip-rule="evenodd" d="M144.037 331.296C144.151 333.367 146.525 334.92 149.339 334.766C152.153 334.611 154.342 332.806 154.228 330.735C154.114 328.664 151.74 327.11 148.926 327.265C146.112 327.42 143.923 329.224 144.037 331.296Z" fill="#914B0C"/>
<path fill-rule="evenodd" clip-rule="evenodd" d="M369.075 179.939C323.717 235.056 245.941 308.734 173.724 312.004C70.7417 316.67 67.2906 243.561 62.2493 203.774C57.2083 163.988 32.2607 117.196 32.2607 117.196C32.2607 117.196 34.8719 118.075 49.5691 145.336C64.2656 172.597 74.4386 261.438 119.679 276.742C164.934 292.046 270.824 258.839 298.24 243.755C305.207 239.916 315.613 230.467 327.285 218.484L327.298 218.471C333.153 212.461 339.306 205.83 345.511 198.94L345.523 198.927C353.189 190.422 360.88 181.567 368.118 173.075C368.506 175.363 368.829 177.651 369.075 179.939Z" fill="#040078"/>
<path fill-rule="evenodd" clip-rule="evenodd" d="M105.036 107.264H198.359C204.723 102.198 209.518 93.9502 201.211 86.4034C188.494 74.8695 180.548 91.2483 180.188 92.015C180.308 91.0535 183.196 66.4784 157.211 63.3093C130.71 60.0748 133.826 86.157 133.826 86.157C133.826 86.157 126.347 79.3116 120.546 84.1044C114.733 88.8976 120.894 94.0542 120.894 94.0542C114.733 93.2229 104.221 92.846 101.584 98.6393C99.7264 102.705 101.069 105.51 105.036 107.264Z" fill="white"/>
<path fill-rule="evenodd" clip-rule="evenodd" d="M297.079 284.51C297.066 284.524 297.066 284.524 297.052 284.524C290.971 289.195 285.471 294.059 280.592 299.104C280.578 299.104 280.579 299.118 280.579 299.118C279.943 299.767 279.307 300.43 278.699 301.094C277.331 302.559 276.018 304.037 274.76 305.544L274.747 305.558C273.945 306.498 273.171 307.451 272.425 308.405C264.699 318.12 259.144 328.319 255.841 338.726V338.753C255.468 339.887 255.136 341.02 254.832 342.167V342.181C254.348 343.963 253.933 345.76 253.602 347.557C253.229 347.695 252.87 347.819 252.496 347.944C253.809 340.743 256.186 333.612 259.6 326.633L259.614 326.619C260.567 324.643 261.604 322.694 262.737 320.746L262.751 320.732C265.501 315.964 268.749 311.265 272.48 306.691C274.346 304.383 276.322 302.13 278.423 299.891C279.196 299.062 279.984 298.247 280.8 297.431C281.062 297.183 281.311 296.92 281.56 296.671C286.023 292.221 290.957 287.924 296.347 283.791C296.388 283.764 296.416 283.722 296.458 283.694C296.679 283.529 296.997 283.57 297.176 283.805C297.342 284.026 297.301 284.344 297.079 284.51Z" fill="#4152F3"/>
<path fill-rule="evenodd" clip-rule="evenodd" d="M280.803 297.43C282.58 285.636 288.161 271.919 299.52 262.309C299.52 262.309 297.247 281.228 280.803 297.43Z" fill="#4152F3"/>
<path fill-rule="evenodd" clip-rule="evenodd" d="M295.396 285.085C302.289 275.352 313.446 265.613 327.913 262.141C327.913 262.141 317.371 278.015 295.396 285.085Z" fill="#4152F3"/>
<path fill-rule="evenodd" clip-rule="evenodd" d="M273.778 305.766C281.646 296.803 293.755 288.275 308.505 286.326C308.505 286.326 296.37 301.018 273.778 305.766Z" fill="#4152F3"/>
<path fill-rule="evenodd" clip-rule="evenodd" d="M259.691 327.261C257.885 315.472 259.14 300.715 267.132 288.165C267.132 288.165 270.581 306.907 259.691 327.261Z" fill="#4152F3"/>
<path fill-rule="evenodd" clip-rule="evenodd" d="M254.042 342.648C258.635 331.642 267.387 319.694 280.742 313.136C280.742 313.136 273.934 330.934 254.042 342.648Z" fill="#4152F3"/>
<path fill-rule="evenodd" clip-rule="evenodd" d="M241.952 323.303C241.952 323.303 248.724 333.059 250.825 348.496C249.001 349.077 247.149 349.644 245.283 350.182C242.201 342.139 240.584 332.88 241.952 323.303Z" fill="#4152F3"/>
<path fill-rule="evenodd" clip-rule="evenodd" d="M265.212 343.245C263.263 344.047 261.301 344.82 259.311 345.553C261.052 342.25 263.194 339.085 265.778 336.127C265.778 336.127 265.861 338.85 265.212 343.245Z" fill="#4152F3"/>
<path fill-rule="evenodd" clip-rule="evenodd" d="M349.361 256.22C349.347 256.234 349.347 256.234 349.333 256.234C341.082 260.505 333.495 265.148 326.599 270.109C326.585 270.123 326.558 270.137 326.544 270.151C323.669 272.238 320.905 274.338 318.293 276.536L318.28 276.55C314.424 279.742 310.831 283.059 307.527 286.472C305.689 288.338 303.934 290.273 302.276 292.207C302.276 292.221 302.276 292.222 302.262 292.235C296.858 298.537 292.325 305.157 288.704 312.025C288.704 312.039 288.691 312.053 288.691 312.067C288.014 313.352 287.378 314.61 286.784 315.909V315.923L286.77 315.937C283.647 322.57 281.366 329.439 279.971 336.487C279.556 336.708 279.141 336.915 278.727 337.122C278.671 337.15 278.616 337.178 278.561 337.205C278.893 335.423 279.279 333.667 279.722 331.926C282.693 320.179 288.097 308.916 295.753 298.427C295.753 298.427 295.753 298.413 295.767 298.413C296.527 297.376 297.301 296.353 298.116 295.331V295.317C298.973 294.239 299.843 293.161 300.742 292.097C300.742 292.097 300.742 292.083 300.756 292.097C300.756 292.083 300.77 292.07 300.783 292.056C302.276 290.287 303.824 288.545 305.468 286.832L305.482 286.818C311.743 280.184 319.012 273.951 327.221 268.161C327.401 268.036 327.58 267.912 327.76 267.788C327.94 267.663 328.119 267.539 328.299 267.415C334.532 263.075 341.318 259.012 348.614 255.225C348.614 255.225 348.628 255.212 348.642 255.212C348.697 255.184 348.739 255.156 348.794 255.128C349.098 254.963 349.471 255.101 349.637 255.405C349.789 255.695 349.665 256.068 349.361 256.22Z" fill="#4152F3"/>
<path fill-rule="evenodd" clip-rule="evenodd" d="M327.227 268.156C331.852 254.486 341.419 239.332 356.993 230.301C356.993 230.301 350.261 252.355 327.227 268.156Z" fill="#4152F3"/>
<path fill-rule="evenodd" clip-rule="evenodd" d="M361.591 245.455C360.555 248.426 359.421 251.369 358.178 254.286C355.4 255.073 352.442 255.737 349.333 256.234C348.642 256.358 347.937 256.455 347.232 256.552C347.675 256.11 348.145 255.667 348.614 255.225C348.614 255.225 348.628 255.211 348.642 255.211C352.387 251.701 356.74 248.343 361.591 245.455Z" fill="#4152F3"/>
<path fill-rule="evenodd" clip-rule="evenodd" d="M355.179 260.961C354.102 263.213 352.954 265.452 351.752 267.663L351.738 267.677C344.054 271.616 332.57 275.9 318.294 276.536C317.893 276.563 317.493 276.577 317.092 276.591C319.938 274.311 323.117 272.127 326.544 270.151C326.558 270.137 326.586 270.123 326.6 270.109C334.836 265.369 344.607 261.804 355.179 260.961Z" fill="#4152F3"/>
<path fill-rule="evenodd" clip-rule="evenodd" d="M295.734 299.2C296.091 284.773 300.725 267.462 312.914 254.213C312.914 254.213 313.036 277.27 295.734 299.2Z" fill="#4152F3"/>
<path fill-rule="evenodd" clip-rule="evenodd" d="M285.733 316.328C293.546 304.194 306.512 291.824 323.816 286.853C323.816 286.853 311.92 306.606 285.733 316.328Z" fill="#4152F3"/>
<path fill-rule="evenodd" clip-rule="evenodd" d="M279.722 331.926C279.46 333.626 279.128 335.354 278.727 337.123C278.672 337.15 278.617 337.178 278.561 337.205C278.326 337.33 278.078 337.454 277.829 337.565C276.24 333.612 274.899 329.287 273.946 324.74C273.476 322.529 273.103 320.276 272.854 317.968C272.494 314.845 272.342 311.653 272.426 308.405C272.439 307.838 272.453 307.271 272.481 306.691V306.677C272.771 301.398 273.697 296.036 275.452 290.715C275.452 290.715 277 294.087 278.423 299.892C278.492 300.182 278.561 300.486 278.644 300.804C278.658 300.9 278.686 300.997 278.7 301.094C278.935 302.103 279.156 303.181 279.377 304.328C279.861 306.981 280.275 309.98 280.524 313.242C280.524 313.366 280.538 313.504 280.538 313.629V313.642C280.911 319.088 280.786 325.251 279.722 331.926Z" fill="#4152F3"/>
<path fill-rule="evenodd" clip-rule="evenodd" d="M301.101 311.058C301.101 311.058 300.079 318.01 295.726 327.435H295.712C291.607 330.102 287.337 332.603 282.9 334.953C286.853 326.205 292.782 317.733 301.101 311.058Z" fill="#4152F3"/>
<path fill-rule="evenodd" clip-rule="evenodd" d="M44.4748 359.546C39.7696 359.223 35.0387 358.874 30.2948 358.499C28.886 358.383 27.4642 358.267 26.0421 358.15C22.9401 357.891 19.8247 357.633 16.7097 357.362C15.9598 357.297 15.2232 357.232 14.4736 357.168C13.8658 357.103 13.2456 357.052 12.6377 357C12.6897 356.444 12.7284 355.862 12.7801 355.268C12.8318 354.582 12.8834 353.871 12.9355 353.135C12.9485 353.044 12.9611 352.966 12.9611 352.876C12.9998 352.437 13.0255 351.997 13.0645 351.545C13.1549 350.33 13.2456 349.076 13.3359 347.783C13.6977 342.471 14.0728 336.473 14.3959 330.101C14.4863 328.433 14.5637 326.753 14.6414 325.047C15.1068 314.602 15.3909 303.421 15.2489 292.783C15.1715 285.893 14.9258 279.224 14.4346 273.136C13.7367 264.591 13.6204 254.923 13.8014 244.841C13.8271 243.458 13.8531 242.074 13.8914 240.678C13.9178 239.45 13.9565 238.209 13.9951 236.955V236.942C14.0728 234.306 14.1762 231.669 14.2922 229.006V228.993C14.3443 227.7 14.3959 226.408 14.4476 225.115C14.4606 224.896 14.4736 224.676 14.4863 224.469V224.456C14.68 220.139 14.9001 215.834 15.1195 211.582C15.5723 202.87 16.0505 194.403 16.3736 186.596V186.583C16.3996 185.924 16.4383 185.277 16.464 184.631V184.618C16.9555 172.17 17.0198 161.597 15.9731 154.759C14.5767 145.62 16.5933 125.119 18.9844 103.882C19.0365 103.404 19.0882 102.938 19.1395 102.46C19.1528 102.318 19.1785 102.176 19.1915 102.033C19.2045 101.93 19.2172 101.827 19.2172 101.736C19.3209 100.844 19.4243 99.9524 19.5273 99.0605C19.6827 97.7294 19.8247 96.4106 19.9801 95.0922C19.9928 95.0792 19.9801 95.0792 19.9801 95.0792C20.7684 88.1382 21.557 81.2873 22.2292 74.8629C22.3326 73.9196 22.4229 72.9886 22.5136 72.0709V72.0579C23.3922 63.4751 24.0128 55.836 24.1165 50.0581C28.7567 49.3728 33.3715 48.6879 37.9474 48.0027C37.986 49.5409 37.9987 51.1568 37.9987 52.8113C37.9987 52.8113 38.0117 52.8113 37.9987 52.824C37.9987 53.3025 37.9987 53.7806 37.986 54.2718C37.9987 54.5045 37.986 54.7373 37.986 54.9697C37.986 55.7196 37.973 56.4692 37.96 57.2317V57.5422C37.9343 58.4472 37.9213 59.3648 37.8953 60.2824V60.2954C37.4689 75.5094 35.8013 92.6234 32.6993 101.995C31.0964 106.842 30.657 113.202 30.812 120.298V120.311C30.8377 121.203 30.8637 122.095 30.9027 123.013V123.025C31.4582 136.236 33.746 151.553 34.3018 164.311C34.3408 165.087 34.3665 165.849 34.3925 166.612C34.5089 171.201 34.3665 175.402 33.798 178.982C32.1434 189.271 32.4022 208.854 33.6039 228.101C34.7156 245.978 36.6286 263.583 38.5675 273.226C40.4678 282.688 42.006 305.825 43.1047 327.567C43.3891 333.435 43.6606 339.201 43.8933 344.578C44.1257 350.084 44.3198 355.19 44.4748 359.546Z" fill="#C0D2FF"/>
<path fill-rule="evenodd" clip-rule="evenodd" d="M40.5974 145.75C40.6104 146.021 40.6234 146.305 40.6234 146.59C40.6751 148.606 40.5197 150.674 40.1196 152.807C39.1499 158.016 37.0819 162.528 34.393 166.612C30.7091 172.235 25.8745 177.043 21.144 181.761C19.5151 183.377 17.9123 184.98 16.3744 186.583V186.596C12.5738 190.564 9.23908 194.558 7.05436 199.082C3.60323 206.243 6.49851 216.054 10.2857 226.641C10.6349 227.61 10.997 228.593 11.3458 229.575C11.3844 229.678 11.4365 229.795 11.4751 229.911C11.5268 230.053 11.5785 230.195 11.6302 230.338C11.6689 230.441 11.7079 230.557 11.7466 230.661C12.5095 232.742 13.2717 234.849 13.9956 236.943V236.956C14.7456 239.114 15.4691 241.286 16.0897 243.432C18.0546 250.114 19.2307 256.642 18.274 262.575L17.0073 262.368C17.8996 256.771 16.8136 250.541 14.965 244.142C14.6292 242.992 14.2671 241.842 13.8923 240.678C12.8583 237.486 11.6949 234.28 10.5315 231.1C6.02035 218.73 1.76762 207.058 5.89132 198.527C6.1754 197.932 6.48584 197.35 6.79594 196.782C6.84797 196.704 6.8863 196.627 6.93799 196.549C7.00302 196.419 7.08037 196.303 7.14506 196.174C7.84295 194.985 8.6182 193.821 9.45848 192.684C9.45848 192.684 9.47183 192.684 9.45848 192.671C11.4882 189.892 13.8923 187.268 16.4644 184.631V184.618C17.6925 183.364 18.9593 182.11 20.2257 180.844C25.358 175.738 30.5931 170.529 34.3023 164.311C36.4223 160.769 38.0382 156.904 38.8525 152.561C39.2533 150.39 39.4083 148.296 39.331 146.228C39.318 145.982 39.305 145.724 39.2919 145.465C39.2919 145.4 39.2789 145.336 39.2789 145.271C39.1759 143.682 38.9302 142.117 38.5937 140.579C37.2626 134.542 34.2896 128.816 30.9032 123.025V123.013C30.0499 121.552 29.171 120.091 28.292 118.618C25.5128 113.977 22.6692 109.247 20.2907 104.141C20.2 103.947 20.11 103.74 20.0193 103.546C19.8512 103.197 19.6962 102.835 19.5408 102.486C19.4378 102.228 19.3214 101.982 19.2177 101.736C18.3774 99.7584 17.6282 97.7294 16.9816 95.635C16.1157 92.8301 15.8699 90.1159 16.1027 87.492C16.5808 82.0759 19.1143 76.9829 22.5141 72.071V72.058C25.138 68.2837 28.2533 64.6129 31.3423 60.9807C33.6821 58.2144 35.9959 55.4999 37.9992 52.824C38.0122 52.8113 37.9992 52.8113 37.9992 52.8113C39.3566 51.0144 40.5847 49.2308 41.6057 47.4599C42.1485 47.3692 42.6784 47.2918 43.2086 47.2141C42.1485 49.1918 40.8431 51.1694 39.3823 53.1474C38.9302 53.755 38.465 54.3625 37.9865 54.9697C37.1462 56.0427 36.2673 57.1287 35.3623 58.2144C35.2333 58.3695 35.1039 58.5245 34.9745 58.6796C34.8455 58.822 34.7291 58.977 34.6001 59.1194C33.8502 60.011 33.0876 60.903 32.325 61.8079C28.7055 66.0733 25.0346 70.4034 22.2297 74.8632C19.3341 79.4777 17.3567 84.2473 17.3174 89.2626C17.3047 91.2146 17.5761 93.2179 18.2097 95.2602C18.6105 96.553 19.05 97.8198 19.5278 99.0605C20.0193 100.327 20.5365 101.568 21.0923 102.796C23.5094 108.148 26.4954 113.098 29.4037 117.946C29.8815 118.734 30.3473 119.523 30.8125 120.298V120.311C35.1686 127.614 39.0852 134.724 40.2746 142.479C40.4166 143.423 40.5197 144.366 40.5717 145.323C40.5847 145.465 40.5974 145.607 40.5974 145.75Z" fill="#9FC3FC"/>
<mask id="mask2" mask-type="alpha" maskUnits="userSpaceOnUse" x="-3" y="325" width="99" height="37">
<path d="M-2.97168 325.776H95.4567V361.795H-2.97168V325.776Z" fill="white"/>
</mask>
<g mask="url(#mask2)">
<path fill-rule="evenodd" clip-rule="evenodd" d="M91.3453 361.795C75.9762 361.42 60.3228 360.632 44.4756 359.546C39.77 359.223 35.0391 358.874 30.2956 358.499C28.8868 358.383 27.4647 358.266 26.0429 358.15C22.9409 357.892 19.8255 357.633 16.7101 357.362C15.9606 357.297 15.224 357.232 14.4741 357.168C13.8665 357.103 13.246 357.052 12.6385 357C12.238 356.961 11.8242 356.922 11.4234 356.883C5.99462 356.392 0.539833 355.862 -4.91496 355.319C-15.6695 354.246 -26.4497 353.07 -37.2299 351.829C-40.6684 348.029 -41.1212 344.397 -35.0972 343.078C-35.0972 343.078 -37.7987 334.47 -26.2816 332.22C-24.472 331.871 -22.391 332.156 -20.142 332.931C-14.8035 334.741 -8.45679 339.291 -2.40747 344.526V344.539C-2.22641 344.681 -2.04535 344.836 -1.8773 344.991C-1.8773 344.991 -1.8773 345.004 -1.86429 345.004C2.33642 348.688 6.39542 352.669 9.85956 356.276C9.98893 356.121 10.131 355.953 10.273 355.798C10.7255 355.268 11.217 354.725 11.7335 354.169C12.0826 353.794 12.4444 353.406 12.8322 353.018C12.8582 352.967 12.9099 352.915 12.9616 352.876C13.0909 352.734 13.2203 352.605 13.3754 352.462C13.7115 352.101 14.0863 351.726 14.4611 351.364C19.8125 346.051 26.6764 340.325 32.3379 335.827C38.4133 330.993 43.1055 327.567 43.1055 327.567C47.3192 323.87 49.956 326.494 52.1921 330.036C54.7776 334.082 56.8456 339.33 60.1934 337.649C66.4628 334.496 75.6918 333.475 75.8856 339.938C76.0793 346.4 83.9645 344.823 89.4193 349.231C93.1292 352.217 99.8377 357.09 91.3453 361.795Z" fill="#4152F3"/>
</g>
<path fill-rule="evenodd" clip-rule="evenodd" d="M42.0595 217.696C42.0207 217.748 41.9689 217.839 41.8652 217.981C41.9558 217.851 42.0207 217.748 42.0595 217.696Z" fill="#C0D2FF"/>
<mask id="mask3" mask-type="alpha" maskUnits="userSpaceOnUse" x="-3" y="217" width="59" height="142">
<path d="M-2.97168 217.98H55.385V358.499H-2.97168V217.98Z" fill="white"/>
</mask>
<g mask="url(#mask3)">
<path fill-rule="evenodd" clip-rule="evenodd" d="M52.193 330.036C50.3704 335.142 47.6689 340.041 43.8947 344.578C41.878 347.008 39.5646 349.335 36.9014 351.532C34.5619 354.363 32.3905 356.728 30.2962 358.499C28.8874 358.383 27.4656 358.266 26.0438 358.15C22.9414 357.892 19.8264 357.633 16.7111 357.362C15.9615 357.297 15.2246 357.232 14.475 357.168C13.8671 357.103 13.2469 357.052 12.6391 357C12.2389 356.961 11.8251 356.922 11.4243 356.883C11.0495 356.547 10.6617 356.185 10.2736 355.798C7.92118 353.497 5.37502 350.511 2.51807 346.775C1.87186 345.909 1.18697 344.991 0.501745 344.035C-0.62296 342.497 -1.786 340.842 -3.00141 339.084C-14.4408 322.423 -13.3031 297.437 -7.12476 277.324C-2.44556 262.045 5.12926 249.571 12.316 245.681C12.8205 245.409 13.3113 245.125 13.8028 244.84C14.1906 244.621 14.5784 244.388 14.9658 244.143C15.341 243.91 15.7157 243.677 16.0905 243.432C22.9545 238.985 29.0424 233.117 33.6053 228.101C38.0521 223.228 41.025 219.144 41.865 217.98C40.2234 220.566 30.1802 237.873 41.2705 259.77C50.3188 277.673 60.7759 306.149 52.193 330.036Z" fill="#9FC3FC"/>
</g>
<mask id="mask4" mask-type="alpha" maskUnits="userSpaceOnUse" x="-3" y="265" width="36" height="94">
<path d="M-2.97168 265.858H32.451V358.15H-2.97168V265.858Z" fill="white"/>
</mask>
<g mask="url(#mask4)">
<path fill-rule="evenodd" clip-rule="evenodd" d="M32.3385 335.827C32.2221 337.404 31.9893 338.981 31.6406 340.532C29.818 348.585 28.0214 354.285 26.0434 358.15C22.9414 357.891 19.826 357.633 16.711 357.362C15.9611 357.297 15.2245 357.232 14.4749 357.168C13.8671 357.103 13.2469 357.052 12.639 357C12.2385 356.961 11.8247 356.922 11.4243 356.883C5.99514 356.392 0.540699 355.862 -4.91444 355.319C-12.6313 349.683 -17.3622 341.656 -20.1411 332.931C-24.1481 320.368 -24.1354 306.356 -23.2044 295.95C-21.4729 276.638 -34.127 267.034 -35.7686 265.858C-34.0883 266.931 -20.5806 275.462 -7.12483 277.324C-6.86607 277.362 -6.60766 277.401 -6.34924 277.427C-0.454971 278.125 7.84376 284.11 15.2502 292.783C25.1905 304.417 33.5279 320.859 32.3385 335.827Z" fill="white"/>
</g>
<mask id="mask5" mask-type="alpha" maskUnits="userSpaceOnUse" x="-3" y="285" width="21" height="73">
<path d="M-2.97168 285.868H17.5715V357.362H-2.97168V285.868Z" fill="white"/>
</mask>
<g mask="url(#mask5)">
<path fill-rule="evenodd" clip-rule="evenodd" d="M12.5355 344.901C12.5355 344.94 12.5098 344.992 12.5098 345.03C12.7812 345.948 13.0526 346.878 13.3371 347.783C13.6985 348.986 14.0736 350.175 14.4614 351.364C15.1206 353.329 15.8189 355.268 16.5941 357.194C16.6071 357.22 16.6071 357.22 16.6462 357.258C16.6718 357.284 16.6975 357.323 16.7105 357.362C15.9609 357.297 15.224 357.232 14.4744 357.168C13.9056 356.496 13.3371 355.862 12.7812 355.268C12.4191 354.893 12.083 354.518 11.7339 354.169C7.97264 350.304 4.8186 348.055 2.5175 346.775C-0.183708 345.25 -1.72188 345.043 -1.7609 345.03C-1.79957 345.03 -1.83825 345.018 -1.86392 345.005C-1.87693 345.005 -1.87693 344.992 -1.87693 344.992C-2.12268 344.94 -2.31675 344.759 -2.40711 344.539V344.526C-2.44613 344.41 -2.4718 344.281 -2.45879 344.151C-2.41977 343.724 -2.03232 343.414 -1.5925 343.453C-1.50248 343.466 -0.765228 343.557 0.501178 344.035C2.89263 344.94 7.22306 347.241 12.8326 353.019C12.8712 353.057 12.8976 353.096 12.9363 353.135C13.285 353.484 13.6342 353.846 13.9829 354.234C13.7762 353.639 13.5695 353.057 13.3757 352.463C13.272 352.153 13.169 351.842 13.0656 351.545C12.4061 349.529 11.7989 347.512 11.23 345.47C11.0616 345.328 10.9453 345.108 10.9586 344.875C10.9453 344.759 10.9586 344.668 10.9716 344.552C10.0406 341.243 9.21337 337.921 8.39911 334.586C7.97264 332.815 7.54616 331.018 7.11969 329.221C5.56852 322.759 4.04301 316.308 2.32378 309.884C0.139396 301.702 -2.40711 293.572 -5.97461 285.868C-2.071 293.417 0.617893 301.534 3.06069 309.677C5.03834 316.464 6.75757 323.34 8.51548 330.204C8.86425 331.561 9.22638 332.931 9.5755 334.302C10.0793 336.24 10.6222 338.192 11.1267 340.131C11.3334 337.145 11.6825 334.611 12.1347 332.492C12.8712 329.002 13.8279 326.597 14.6421 325.047C15.4694 323.431 16.129 322.72 16.2067 322.643C16.5168 322.332 17.0206 322.319 17.331 322.643C17.6411 322.927 17.6541 323.431 17.3571 323.754C17.331 323.78 15.7412 325.512 14.3967 330.101C14.1123 331.057 13.8409 332.143 13.5955 333.358C12.9876 336.331 12.5485 340.144 12.5355 344.901Z" fill="#C0D2FF"/>
</g>
<path fill-rule="evenodd" clip-rule="evenodd" d="M54.9188 138.718C51.4502 142.652 46.6905 145.422 41.5664 146.515C41.0591 146.615 40.4732 146.685 40.0679 146.401C40.0118 146.363 39.9519 146.314 39.8995 146.249C39.8886 146.233 39.8697 146.214 39.8588 146.199C39.5946 145.826 39.6449 145.302 39.7325 144.853C40.708 139.452 43.4817 134.393 47.5106 130.66C51.5323 126.924 56.7906 124.533 62.2495 123.954C61.8005 129.179 58.3945 134.787 54.9188 138.718Z" fill="white"/>
<path fill-rule="evenodd" clip-rule="evenodd" d="M53.9624 131.975C53.9508 131.997 53.8785 132.065 53.7413 132.203C53.5507 132.371 53.322 132.577 53.0472 132.834C52.4417 133.368 51.573 134.156 50.5168 135.143C48.4049 137.116 45.5743 139.935 42.6821 143.263C41.7539 144.334 40.8821 145.386 40.0675 146.401C40.0114 146.363 39.9515 146.314 39.8991 146.249C39.8882 146.234 39.8694 146.214 39.8584 146.199C40.673 145.184 41.5407 144.139 42.4576 143.072C45.3649 139.732 48.2252 136.929 50.3785 134.987C51.4532 134.019 52.3411 133.25 52.9729 132.739C53.2659 132.501 53.5058 132.31 53.6999 132.154C53.8676 132.031 53.9586 131.964 53.9624 131.975Z" fill="#C0D2FF"/>
<path fill-rule="evenodd" clip-rule="evenodd" d="M16.3185 87.7935C19.4315 92.0147 21.1326 97.2522 21.1183 102.492C21.1096 103.009 21.0542 103.596 20.691 103.932C20.6421 103.979 20.5808 104.027 20.5062 104.064C20.4894 104.072 20.4665 104.086 20.449 104.094C20.0291 104.274 19.5273 104.113 19.1073 103.933C14.0335 101.838 9.67466 98.0586 6.87761 93.3318C4.07543 88.6119 2.84976 82.9671 3.43641 77.5089C8.44967 79.0515 13.2114 83.5654 16.3185 87.7935Z" fill="white"/>
<path fill-rule="evenodd" clip-rule="evenodd" d="M9.5253 87.3032C9.54515 87.3192 9.59546 87.4041 9.70157 87.5674C9.82547 87.7892 9.97778 88.0562 10.1722 88.3789C10.5658 89.084 11.1528 90.0999 11.8938 91.3403C13.3759 93.8214 15.5332 97.1835 18.1752 100.713C19.0261 101.847 19.8705 102.921 20.6906 103.932C20.6416 103.979 20.5803 104.027 20.5057 104.065C20.4886 104.072 20.466 104.086 20.4486 104.094C19.6288 103.083 18.7903 102.014 17.9411 100.893C15.2916 97.3454 13.1551 93.9573 11.7121 91.4423C10.9933 90.1875 10.4292 89.1572 10.063 88.4316C9.89153 88.0948 9.75667 87.8203 9.64441 87.5972C9.55987 87.4079 9.51332 87.3042 9.5253 87.3032Z" fill="#C0D2FF"/>
<path fill-rule="evenodd" clip-rule="evenodd" d="M10.217 180.32C11.2312 185.466 10.535 190.928 8.28625 195.661C8.05761 196.124 7.75675 196.632 7.28544 196.781C7.22075 196.802 7.14477 196.82 7.0616 196.822C7.04277 196.822 7.01607 196.825 6.99759 196.824C6.54066 196.807 6.15526 196.448 5.85235 196.106C2.15752 192.047 -0.171982 186.768 -0.684706 181.3C-1.20462 175.835 0.0953321 170.207 2.95502 165.521C6.83022 169.056 9.21107 175.17 10.217 180.32Z" fill="white"/>
<path fill-rule="evenodd" clip-rule="evenodd" d="M4.2844 176.978C4.29501 177.001 4.30459 177.099 4.33095 177.292C4.34841 177.546 4.37271 177.852 4.41001 178.227C4.46546 179.032 4.56267 180.201 4.70368 181.64C4.98572 184.516 5.5022 188.477 6.38527 192.797C6.67072 194.185 6.97603 195.517 7.28647 196.781C7.22212 196.803 7.14614 196.82 7.06297 196.822C7.04414 196.822 7.01744 196.825 6.99896 196.824C6.68818 195.56 6.38664 194.236 6.09707 192.859C5.21401 188.52 4.72798 184.545 4.49558 181.654C4.38126 180.213 4.31075 179.04 4.28953 178.228C4.2779 177.85 4.2731 177.544 4.2666 177.295C4.27071 177.087 4.2731 176.974 4.2844 176.978Z" fill="#C0D2FF"/>
<path fill-rule="evenodd" clip-rule="evenodd" d="M13.764 213.678C11.072 218.18 9.88226 223.556 10.4011 228.77C10.4597 229.284 10.5716 229.863 10.9649 230.163C11.0186 230.205 11.084 230.247 11.1613 230.277C11.1795 230.283 11.2034 230.295 11.2212 230.301C11.6569 230.439 12.1409 230.231 12.5414 230.012C17.3903 227.438 21.3651 223.257 23.6943 218.283C26.0289 213.315 26.706 207.578 25.5967 202.202C20.7556 204.22 16.4501 209.171 13.764 213.678Z" fill="white"/>
<path fill-rule="evenodd" clip-rule="evenodd" d="M20.477 212.537C20.4588 212.554 20.4171 212.644 20.3271 212.817C20.2251 213.05 20.0991 213.33 19.9369 213.67C19.6127 214.409 19.1264 215.477 18.5079 216.783C17.2716 219.395 15.448 222.949 13.1575 226.717C12.4202 227.928 11.683 229.078 10.9639 230.163C11.0173 230.205 11.083 230.247 11.1603 230.277C11.1785 230.283 11.2021 230.295 11.2202 230.301C11.9393 229.216 12.6704 228.071 13.408 226.873C15.7043 223.087 17.504 219.509 18.6992 216.867C19.2934 215.549 19.7558 214.469 20.0502 213.712C20.1884 213.36 20.2966 213.074 20.3866 212.841C20.453 212.644 20.489 212.537 20.477 212.537Z" fill="#C0D2FF"/>
<path fill-rule="evenodd" clip-rule="evenodd" d="M51.1484 59.4854C46.1944 61.2091 40.6882 61.2837 35.688 59.7188C35.1968 59.5576 34.6522 59.3303 34.4387 58.8847C34.4082 58.8234 34.3808 58.7509 34.3668 58.6687C34.3647 58.6499 34.3576 58.6242 34.3555 58.6054C34.3083 58.1509 34.6098 57.7189 34.9066 57.3712C38.4094 53.1451 43.31 50.1003 48.6529 48.8281C53.991 47.5487 59.7452 48.0487 64.7855 50.2252C61.8276 54.5567 56.1062 57.7689 51.1484 59.4854Z" fill="white"/>
<path fill-rule="evenodd" clip-rule="evenodd" d="M53.6288 53.1421C53.6075 53.1562 53.5114 53.1791 53.3238 53.2321C53.0753 53.2849 52.7755 53.3516 52.4092 53.4416C51.6196 53.609 50.4757 53.8688 49.0714 54.2093C46.2627 54.8905 42.4125 55.956 38.2587 57.4349C36.9238 57.9117 35.6478 58.4001 34.44 58.8844C34.4095 58.8235 34.3821 58.7509 34.3681 58.6688C34.366 58.65 34.3588 58.6243 34.3564 58.6055C35.565 58.1212 36.8342 57.6372 38.1567 57.158C42.3293 55.677 46.198 54.6396 49.0279 54.0053C50.4388 53.6908 51.5898 53.4567 52.3914 53.3218C52.7642 53.2578 53.0661 53.2099 53.3122 53.1688C53.5186 53.1438 53.6312 53.1305 53.6288 53.1421Z" fill="#C0D2FF"/>
<path fill-rule="evenodd" clip-rule="evenodd" d="M38.5265 140.493C39.6443 142.018 40.2519 143.908 40.2413 145.797C40.2375 145.983 40.2166 146.195 40.0859 146.315C40.0677 146.332 40.0455 146.35 40.0188 146.363C40.0126 146.366 40.0044 146.371 39.9983 146.373C39.8466 146.438 39.6659 146.38 39.5146 146.314C37.6879 145.554 36.1206 144.187 35.1171 142.479C34.1122 140.775 33.6761 138.739 33.8935 136.772C35.6986 137.333 37.4107 138.966 38.5265 140.493Z" fill="white"/>
<path fill-rule="evenodd" clip-rule="evenodd" d="M36.0778 140.309C36.085 140.315 36.1031 140.345 36.1414 140.405C36.1856 140.485 36.2404 140.581 36.3098 140.697C36.4512 140.952 36.6617 141.319 36.9273 141.767C37.4588 142.663 38.2334 143.877 39.1818 145.153C39.4875 145.562 39.7907 145.95 40.0854 146.315C40.0673 146.332 40.0454 146.349 40.0187 146.363C40.0122 146.366 40.0043 146.371 39.9978 146.373C39.7035 146.008 39.4026 145.622 39.0973 145.217C38.1458 143.935 37.3794 142.712 36.8616 141.803C36.6042 141.35 36.4016 140.979 36.2705 140.716C36.2092 140.595 36.1606 140.496 36.1206 140.415C36.0901 140.347 36.0737 140.309 36.0778 140.309Z" fill="#C0D2FF"/>
<path fill-rule="evenodd" clip-rule="evenodd" d="M17.0575 115.468L17.2464 116.091C17.2481 116.091 17.2495 116.09 17.2495 116.09L17.0575 115.468ZM28.5794 119.312C24.5957 119.312 16.4318 117.247 16.1412 115.771C16.0717 115.42 16.2689 114.997 16.8655 114.845C17.2437 114.751 17.6356 114.949 17.7431 115.293C17.7708 115.384 17.7763 115.476 17.7609 115.563C19.5181 116.493 27.4311 118.753 30.209 117.808C30.7528 117.623 30.8305 117.395 30.8346 117.176C30.8415 116.823 31.1584 116.541 31.5466 116.541H31.5575C31.9511 116.546 32.2653 116.84 32.2583 117.197C32.2458 117.897 31.8358 119.1 29.2369 119.29C29.0339 119.304 28.8132 119.312 28.5794 119.312Z" fill="#040078"/>
<path fill-rule="evenodd" clip-rule="evenodd" d="M252.178 247.514C247.617 252.461 244.011 256.041 242.877 256.276C238.994 257.133 189.435 266.184 188.371 260.159C187.293 254.12 190.734 242.912 190.734 242.912C192.793 241.834 195.696 240.493 199.22 238.973C208.52 234.965 222.147 229.783 236.064 225.277L238.04 228.014L252.178 247.514Z" fill="#421CBF"/>
<path fill-rule="evenodd" clip-rule="evenodd" d="M337.837 164.442C337.837 164.456 337.822 164.469 337.822 164.483C335.197 169.417 332.391 175.691 332.391 182.504C332.391 190.34 333.303 194.086 326.697 198.301C321.722 201.493 297.095 240.797 260.389 266.834C259.339 264.374 257.639 261.126 255.635 257.575C252.374 251.839 248.283 245.317 244.62 240.134C242.658 237.342 240.806 234.924 239.3 233.238C272.205 218.422 308.925 196.172 316.222 186.305C326.932 171.766 337.062 148.77 341.637 153.717C341.831 153.925 342.024 154.174 342.19 154.492C342.963 155.887 340.504 159.48 337.837 164.442Z" fill="#FDB2D0"/>
<path fill-rule="evenodd" clip-rule="evenodd" d="M139.795 229.327C136.492 232.408 133.88 235.656 132.843 238.627C130.204 246.076 120.019 238.337 113.565 232.408C110.607 229.686 108.424 227.337 108.133 227.032C108.106 226.991 108.092 226.977 108.092 226.977C110.413 224.462 113.786 219.971 118.001 215.23C120.088 217.179 123.197 219.39 126.5 221.518C129.776 223.633 133.23 225.664 136.05 227.254C137.501 228.083 138.786 228.788 139.795 229.327Z" fill="#4152F3"/>
<path fill-rule="evenodd" clip-rule="evenodd" d="M126.5 221.518C120.986 226.521 116.688 231.248 113.565 232.408C110.372 229.465 108.092 226.977 108.092 226.977C110.413 224.462 113.786 219.97 118.001 215.23C120.088 217.179 123.197 219.39 126.5 221.518Z" fill="#86A8FF"/>
<path fill-rule="evenodd" clip-rule="evenodd" d="M139.795 229.327C136.492 232.409 133.88 235.656 132.843 238.627C130.204 246.076 120.019 238.337 113.565 232.409C110.607 229.686 108.424 227.337 108.133 227.032C108.106 226.991 108.092 226.977 108.092 226.977C116.453 230.667 122.686 232.892 127.882 232.409C130.95 232.118 133.797 229.492 136.05 227.254C137.501 228.083 138.786 228.788 139.795 229.327Z" fill="#322FE6"/>
<path fill-rule="evenodd" clip-rule="evenodd" d="M260.388 266.834C248.379 275.361 235.084 282.451 220.766 286.403C206.421 290.356 194.108 292.525 183.687 293.534C151.915 296.685 137.833 289.181 137.833 289.181L190.998 250.499L194.232 248.149L195.006 247.583C196.595 247.472 198.323 247.251 200.174 246.906C210.429 245.054 224.47 239.899 239.299 233.238C240.805 234.924 242.657 237.342 244.62 240.134C248.282 245.316 252.373 251.839 255.634 257.575C257.638 261.126 259.338 264.374 260.388 266.834Z" fill="#421CBF"/>
<path fill-rule="evenodd" clip-rule="evenodd" d="M244.618 240.134C228.408 247.265 215.223 250.07 200.173 246.906C210.427 245.054 224.469 239.899 239.298 233.238C240.804 234.924 242.656 237.342 244.618 240.134Z" fill="#322FE6"/>
<path fill-rule="evenodd" clip-rule="evenodd" d="M260.388 266.834C248.378 275.361 235.083 282.451 220.766 286.403C206.421 290.356 194.107 292.525 183.687 293.534C174.884 276.467 185.953 257.657 190.998 250.499C192.338 248.592 193.25 247.514 193.25 247.514C193.513 247.583 193.845 247.804 194.232 248.15C198.143 251.646 207.568 268.106 207.25 270.593C207.25 270.593 225.05 258.97 239.299 262.522C243.527 263.573 249.263 261.444 255.634 257.575C257.638 261.126 259.338 264.374 260.388 266.834Z" fill="#211280"/>
<path fill-rule="evenodd" clip-rule="evenodd" d="M100.767 219.114C97.9896 221.367 93.4155 223.039 88.7715 224.213C88.7715 224.213 88.7578 224.213 88.7301 224.227C83.8517 225.471 78.9042 226.162 75.9603 226.397C69.631 208.541 66.9086 198.536 68.1246 195.412C68.7466 193.837 70.2255 193.215 72.1878 193.215C73.9566 193.215 76.1126 193.713 78.3651 194.486V194.5C85.2889 196.864 93.0698 201.701 93.0698 201.701C92.9452 201.977 92.8483 202.281 92.7932 202.599H92.7795C92.5725 203.511 92.5998 204.575 92.8346 205.764C93.5397 209.44 96.2758 214.235 100.767 219.114Z" fill="#FDB2D0"/>
<path fill-rule="evenodd" clip-rule="evenodd" d="M198.489 285.076C197.84 288.103 196.734 290.314 195.061 291.24C189.423 294.336 175.327 295.718 156.794 293.465C146.457 292.207 134.737 289.844 122.327 286.003C120.323 285.394 118.305 284.731 116.26 284.04C113.247 283.004 110.387 281.58 107.692 279.825C101.957 276.079 96.9535 270.842 92.6693 264.789C84.5571 253.359 79.0013 239.028 75.9609 226.397C78.9185 226.162 83.8797 225.471 88.7718 224.213C93.4158 223.039 97.9899 221.366 100.768 219.114C106.793 225.706 115.97 232.422 127.537 236.748C132.706 238.683 137.805 240.286 142.67 241.599H142.698C160.318 246.311 175.064 247.016 180.468 244.432C181.808 243.796 183.052 243.119 184.199 242.456C185.775 241.543 187.198 240.7 188.456 240.106C191.026 238.876 192.933 238.738 194.274 241.405C194.302 241.461 194.329 241.529 194.357 241.599C194.357 241.599 194.371 241.599 194.371 241.613C194.633 242.207 194.937 243.147 195.269 244.376C197.535 252.752 200.866 274.159 198.489 285.076Z" fill="#4152F3"/>
<path fill-rule="evenodd" clip-rule="evenodd" d="M101.775 196.518C101.775 196.532 101.762 196.532 101.762 196.532C101.582 196.725 101.402 196.905 101.209 197.098C100.38 197.927 99.3572 198.757 98.1822 199.558C97.4634 200.042 96.6758 200.526 95.8054 200.982C90.6087 204.354 84.3896 204.962 79.2768 204.133C75.8352 203.566 72.8917 202.35 71.0811 200.885C71.399 198.204 71.7861 195.509 72.2561 192.8C72.2561 192.8 72.2147 192.496 72.1729 191.971C71.9655 190.147 71.5373 185.558 71.551 181.288C71.551 177.557 71.8827 174.088 72.9745 172.913C75.711 170.025 86.3522 163.336 86.3522 163.336C89.1301 162.77 91.0235 163.391 92.4193 164.373C94.3538 165.755 95.3629 167.869 96.4961 168.684C97.2009 169.182 98.2099 169.306 99.2326 169.389C101.07 169.527 102.95 169.541 103.088 171.407C103.13 171.905 103.102 172.444 103.033 172.969C102.895 173.991 102.618 175.042 102.383 175.968C102.328 176.175 102.273 176.368 102.232 176.562C101.982 177.626 101.817 178.455 102.121 178.787C102.273 178.98 102.895 179.823 103.517 181.095C103.572 181.192 103.627 181.302 103.669 181.413L103.793 181.661C103.821 181.758 103.863 181.855 103.918 181.938C105.424 185.421 106.612 191.225 101.775 196.518Z" fill="#FDB2D0"/>
<path fill-rule="evenodd" clip-rule="evenodd" d="M198.489 285.076C178.672 287.467 141.606 286.265 132.734 281.124C122.756 275.333 110.622 242.4 126.501 252.309C142.38 262.204 167.753 270.496 173.973 268.036C180.192 265.59 175.009 257.602 157.845 254.603C140.68 251.618 142.532 244.239 142.67 241.599H142.698C160.319 246.311 175.064 247.016 180.468 244.432C181.809 243.796 183.052 243.119 184.199 242.456C185.623 242.345 187.668 242.29 188.94 242.705C190.723 243.285 192.519 243.81 195.269 244.377C197.536 252.752 200.866 274.159 198.489 285.076Z" fill="#322FE6"/>
<path fill-rule="evenodd" clip-rule="evenodd" d="M176.678 240.037C190.536 243.344 200.383 246.051 197.343 249.278C194.302 252.504 175.454 250.547 169.01 249.528C162.565 248.51 176.678 240.037 176.678 240.037Z" fill="#FC8000"/>
<path fill-rule="evenodd" clip-rule="evenodd" d="M173.708 250.043C171.981 250.361 163.371 248.509 155.825 246.685C149.924 245.275 144.673 243.879 143.83 243.561C141.384 242.635 140.734 227.682 148.888 219.349C155.576 212.536 171.525 214.318 177.523 222.196C178.85 223.951 179.692 225.996 179.831 228.318C179.845 228.539 179.858 228.746 179.858 228.953C179.872 229.133 179.886 229.313 179.872 229.479C180.356 241.626 176.708 249.504 173.708 250.043Z" fill="#FDA218"/>
<path fill-rule="evenodd" clip-rule="evenodd" d="M169.354 216.058C169.311 217.575 167.685 218.758 165.723 218.702C163.76 218.646 162.204 217.371 162.248 215.854C162.291 214.338 163.918 213.154 165.88 213.211C167.842 213.267 169.398 214.542 169.354 216.058Z" fill="#FC8000"/>
<path fill-rule="evenodd" clip-rule="evenodd" d="M179.927 229.161C179.914 229.271 179.9 229.382 179.872 229.479C179.002 235.407 174.938 236.099 172.34 233.238C169.701 230.308 165.79 220.634 160.372 222.361C154.969 224.089 150.933 234.343 154.623 238.945C157.346 242.359 158.755 245.455 155.825 246.684C149.924 245.275 144.673 243.879 143.83 243.561C141.384 242.635 140.734 227.682 148.888 219.349C155.576 212.536 171.525 214.318 177.523 222.195C178.753 225.429 179.623 228.193 179.858 228.953C179.9 229.092 179.927 229.161 179.927 229.161Z" fill="#FC8000"/>
<path fill-rule="evenodd" clip-rule="evenodd" d="M177.054 231.068C176.004 230.612 175.368 229.548 174.843 228.124C174.704 227.779 174.58 227.392 174.456 227.005C174.414 226.853 174.359 226.701 174.317 226.535C173.405 223.536 172.493 219.68 169.577 216.681C169.577 216.681 170.572 216.709 172.01 216.902C172.783 217.013 173.682 217.165 174.622 217.372C176.749 217.856 179.072 218.727 180.578 220.164C181.2 220.758 181.683 221.435 181.946 222.251C182.057 222.569 182.126 222.9 182.167 223.246C182.817 229.478 180.454 232.533 177.054 231.068Z" fill="#FDB2D0"/>
<path fill-rule="evenodd" clip-rule="evenodd" d="M177.053 231.068C175.74 230.502 175.077 228.967 174.455 227.005C175.782 225.305 178.532 221.698 179.126 220.579C179.416 220.026 179.955 219.929 180.577 220.164C181.448 220.979 182.029 221.988 182.166 223.246C182.816 229.478 180.453 232.533 177.053 231.068Z" fill="#FCCDE0"/>
<path fill-rule="evenodd" clip-rule="evenodd" d="M181.794 226.01C180.785 228.083 177.979 228.622 174.842 228.124C174.704 227.779 174.58 227.392 174.456 227.005C174.414 226.853 174.359 226.701 174.317 226.535C175.16 224.669 175.782 223.633 175.119 219.114C175.036 218.547 174.87 217.967 174.621 217.372C172.313 211.761 163.096 204.99 153.352 203.525C142.573 201.921 139.187 213.89 126.5 221.518C123.197 219.39 120.088 217.179 118.001 215.23C126.39 205.805 139.615 199.973 153.145 202.018C169.895 204.547 180.274 215.396 181.946 222.251C182.319 223.729 182.278 225.029 181.794 226.01Z" fill="#FCCDE0"/>
<path fill-rule="evenodd" clip-rule="evenodd" d="M194.355 241.599C193.042 240.839 192.614 242.442 191.619 241.599C190.803 240.908 189.905 240.617 188.454 240.106C191.025 238.876 192.932 238.738 194.272 241.405C194.3 241.461 194.327 241.53 194.355 241.599Z" fill="#86A8FF"/>
<path fill-rule="evenodd" clip-rule="evenodd" d="M156.794 293.465C146.457 292.207 134.738 289.844 122.327 286.002C120.323 285.394 118.305 284.731 116.26 284.04C113.247 283.004 110.387 281.58 107.692 279.825C101.957 276.08 96.9535 270.842 92.6693 264.789C84.5571 253.36 79.0017 239.028 75.9609 226.397C78.9189 226.162 83.8801 225.471 88.7722 224.213C90.4719 229.962 94.3553 254.285 100.768 265.673C106.227 275.389 146.581 287.509 156.794 293.465Z" fill="#05009F"/>
<path fill-rule="evenodd" clip-rule="evenodd" d="M143.236 262.522C142.227 265.231 141.121 267.953 139.905 270.593C138.219 274.324 136.326 277.918 134.253 281.124C132.29 284.15 130.162 286.831 127.882 288.96C118.457 285.768 110.261 281.718 104.872 277.157C94.6999 268.575 91.8669 257.713 93.4147 250.084C93.8846 247.762 94.755 245.745 95.9574 244.183C97.243 242.483 98.915 241.336 100.85 240.908C111.09 238.641 119.327 242.248 134.626 256.096C137.003 258.252 139.919 260.408 143.236 262.522Z" fill="#4152F3"/>
<path fill-rule="evenodd" clip-rule="evenodd" d="M235.36 286.914C232.278 287.73 228.16 288.186 223.475 288.283C209.558 288.587 212.806 291.213 188.538 295.704C172.189 298.73 147.382 295.607 127.882 288.96C130.162 286.832 132.291 284.137 134.253 281.124C136.326 277.918 138.219 274.324 139.905 270.593C141.122 267.94 142.227 265.217 143.236 262.522C161.257 274.034 190.556 283.749 202.455 277.78C216.523 270.717 230.73 271.284 238.456 277.945C240.142 279.396 241.04 280.696 241.261 281.829C241.731 284.151 239.437 285.85 235.36 286.914Z" fill="#FDB2D0"/>
<path fill-rule="evenodd" clip-rule="evenodd" d="M241.261 281.829C239.506 283.363 234.572 279.521 228.588 277.019C221.499 274.076 206.214 277.558 203.975 279.7C201.722 281.829 199.995 284.316 188.165 283.971C176.805 283.639 147.451 275.154 139.905 270.593C141.122 267.94 142.227 265.217 143.236 262.522C161.257 274.034 190.556 283.75 202.455 277.779C216.524 270.718 230.73 271.284 238.456 277.945C240.142 279.397 241.04 280.695 241.261 281.829Z" fill="#FCCDE0"/>
<path fill-rule="evenodd" clip-rule="evenodd" d="M235.36 286.915C232.278 287.73 228.16 288.186 223.475 288.283C209.558 288.587 212.806 291.213 188.538 295.704C172.189 298.73 147.382 295.607 127.882 288.96C130.162 286.832 132.291 284.137 134.253 281.124C142.061 288.656 157.747 293.728 172.935 292.954C189.049 292.152 205.979 289.499 206.103 287.896C206.214 286.279 207.941 288.697 213.469 288.241C218.997 287.771 221.07 285.616 227.801 286.362C230.786 286.693 233.356 286.859 235.36 286.915Z" fill="#FE93BC"/>
<path fill-rule="evenodd" clip-rule="evenodd" d="M134.253 281.124C132.29 284.151 130.162 286.832 127.882 288.96C118.456 285.768 110.261 281.718 104.871 277.158C94.6997 268.575 91.8667 257.713 93.4148 250.084C93.4148 250.084 94.4786 262.481 105.231 269.349C115.996 276.218 129.167 278.844 134.253 281.124Z" fill="#322FE6"/>
<path fill-rule="evenodd" clip-rule="evenodd" d="M143.236 262.522C142.228 265.231 141.122 267.953 139.906 270.593C126.749 268.202 124.22 262.55 114.422 259.095C105.273 255.861 104.071 244.169 95.958 244.183C97.2436 242.483 98.9156 241.336 100.85 240.908C111.091 238.641 119.328 242.248 134.627 256.096C137.004 258.252 139.92 260.408 143.236 262.522Z" fill="#86A8FF"/>
<path fill-rule="evenodd" clip-rule="evenodd" d="M88.7715 224.213C88.7715 224.213 88.7578 224.213 88.7301 224.227C83.8517 225.471 78.9042 226.162 75.9603 226.397C69.631 208.541 66.9086 198.536 68.1246 195.412C69.299 192.4 73.625 192.87 78.3651 194.486V194.5C77.5775 197.112 78.324 200.18 80.2171 204.464C82.2899 209.149 88.1637 220.178 88.7715 224.213Z" fill="#FE93BC"/>
<path fill-rule="evenodd" clip-rule="evenodd" d="M79.4147 203.884C79.3733 203.967 79.3319 204.05 79.2768 204.133C75.8352 203.566 72.8917 202.35 71.0811 200.885C71.399 198.204 71.7861 195.509 72.2561 192.8C72.2561 192.8 72.2147 192.496 72.1729 191.971C75.5036 188.489 79.7049 187.065 79.7049 187.065C81.3078 189.995 80.907 200.83 79.4147 203.884Z" fill="#FE93BC"/>
<path fill-rule="evenodd" clip-rule="evenodd" d="M91.7841 161.636C91.7841 161.636 93.9815 167.883 87.2651 170.536C86.7538 170.744 86.187 170.937 85.5514 171.089C85.5514 171.089 83.202 176.299 78.0193 178.248C76.6513 178.773 75.1035 179.063 73.3346 178.967C66.1065 178.593 74.2328 183.956 76.7341 185.517C77.1626 185.794 77.4251 185.946 77.4251 185.946C77.4251 185.946 82.2762 199.116 76.7755 203.58C74.3433 205.542 71.5932 204.92 69.1469 203.179H69.1329C66.0097 200.996 63.3838 197.057 62.4993 194.445C60.9238 189.774 57.3447 183.099 61.4492 180.445C61.4492 180.445 57.7041 176.604 57.9663 169.984C58.2154 163.364 63.5775 164.013 63.5775 164.013C63.4532 163.17 63.3701 162.327 63.3009 161.471V161.429C63.1767 159.826 63.163 158.209 63.3009 156.716C63.6189 152.957 64.8076 149.986 67.3363 149.737C69.6306 149.516 70.7087 150.774 71.2201 151.907L71.2338 151.921C71.6346 152.819 71.6897 153.648 71.6897 153.648C71.6897 153.648 72.2976 150.926 73.7628 148.272C75.0758 145.923 77.0657 143.629 79.885 143.366C83.8927 142.993 85.1506 146.628 85.5236 149.102C85.7307 150.345 85.703 151.299 85.703 151.299C85.703 151.299 85.9381 151.119 86.3666 150.843C88.1355 149.668 93.1385 146.835 96.4411 149.433C100.505 152.626 95.0039 160.78 91.7841 161.636Z" fill="#05009F"/>
<path fill-rule="evenodd" clip-rule="evenodd" d="M92.8347 205.764C92.8347 205.749 92.8211 205.749 92.8211 205.736C92.4476 205.072 90.4026 204.381 88.7165 203.898C87.4587 203.539 86.3809 203.304 86.3809 203.304C86.3809 203.304 90.126 203.552 92.2683 202.806C92.4476 202.751 92.6277 202.682 92.7796 202.599C92.5722 203.511 92.5996 204.575 92.8347 205.764Z" fill="#FE93BC"/>
<path fill-rule="evenodd" clip-rule="evenodd" d="M103.033 172.969C102.895 173.991 102.618 175.042 102.383 175.968C101.029 174.254 101.582 174.005 101.582 172.844C101.582 171.794 101.14 170.619 99.2324 169.389C101.07 169.528 102.95 169.541 103.088 171.407C103.13 171.905 103.102 172.443 103.033 172.969Z" fill="#FCCDE0"/>
<path fill-rule="evenodd" clip-rule="evenodd" d="M101.775 196.518C104.083 191.985 104.926 184.578 103.669 181.413L103.793 181.661C103.821 181.758 103.863 181.855 103.918 181.938C105.424 185.421 106.612 191.225 101.775 196.518Z" fill="#FCCDE0"/>
<path fill-rule="evenodd" clip-rule="evenodd" d="M71.2199 151.907C71.0539 151.769 69.3128 150.47 66.8662 151.078C65.1946 151.479 64.0196 154.74 63.3008 156.716C63.6188 152.957 64.8075 149.986 67.3362 149.737C69.6304 149.516 70.7086 150.774 71.2199 151.907Z" fill="#322FE6"/>
<path fill-rule="evenodd" clip-rule="evenodd" d="M85.5235 149.102C83.7269 147.319 79.5118 145.522 76.5406 146.6C75.407 147.015 74.4952 147.609 73.7627 148.272C75.0757 145.923 77.0656 143.629 79.8849 143.366C83.8926 142.993 85.1504 146.628 85.5235 149.102Z" fill="#322FE6"/>
<path fill-rule="evenodd" clip-rule="evenodd" d="M91.7837 161.636C91.7837 161.636 93.9811 167.883 87.2647 170.536C87.7483 169.583 88.453 168.436 89.3792 167.372C91.5071 164.953 89.0886 162.009 91.1618 161.042C93.2346 160.061 93.6354 159.025 94.8518 154.643C96.0542 150.263 89.6691 149.751 86.3662 150.843C88.1351 149.668 93.1381 146.835 96.4406 149.433C100.504 152.626 95.0034 160.78 91.7837 161.636Z" fill="#322FE6"/>
<path fill-rule="evenodd" clip-rule="evenodd" d="M81.3082 174.89C79.9125 175.94 78.8206 177.087 78.0193 178.248C76.0982 180.957 75.7111 183.679 76.5681 185.13C76.6372 185.255 76.6927 185.379 76.7341 185.517C77.4248 187.701 74.6196 191.833 73.0164 197.914C72.3944 200.291 70.9436 202.129 69.147 203.179H69.1329C66.0097 200.996 63.3838 197.057 62.4994 194.445C60.9235 189.774 57.3444 183.099 61.4493 180.445C61.4493 180.445 57.7038 176.603 57.9663 169.984C58.2151 163.364 63.5772 164.013 63.5772 164.013C63.4529 163.17 63.3701 162.327 63.301 161.47V161.429C63.301 158.789 71.6343 159.398 75.0895 158.789C78.5444 158.182 70.1731 162.417 72.2456 167.254C74.3187 172.091 85.9792 171.38 81.3082 174.89Z" fill="#040078"/>
<path fill-rule="evenodd" clip-rule="evenodd" d="M80.7697 177.125C74.0311 173.771 66.9508 173.807 68.2918 179.89C69.6329 185.974 74.1067 188.52 79.2866 188.784C84.4669 189.048 80.7697 177.125 80.7697 177.125Z" fill="#FDB2D0"/>
<path fill-rule="evenodd" clip-rule="evenodd" d="M341.637 153.717C335.874 157.836 324.141 177.654 322.648 183.085C321.031 188.958 317.576 189.304 309.408 197.375C301.227 205.432 274.389 225.706 253.479 236.002C250.411 237.508 247.467 238.904 244.62 240.134C242.658 237.342 240.806 234.924 239.3 233.238C272.205 218.422 308.925 196.172 316.222 186.305C326.932 171.766 337.062 148.77 341.637 153.717Z" fill="#FCCDE0"/>
<path fill-rule="evenodd" clip-rule="evenodd" d="M332.39 182.504C332.39 190.34 333.302 194.086 326.696 198.301C321.721 201.493 297.094 240.797 260.388 266.834C259.338 264.374 257.638 261.126 255.634 257.575C270.753 248.384 289.368 229.396 299.498 219.832C313.899 206.234 324.72 196.214 327.83 190.34C330.179 185.904 332.197 171.476 337.821 164.483C335.195 169.417 332.39 175.691 332.39 182.504Z" fill="#FE93BC"/>
<path fill-rule="evenodd" clip-rule="evenodd" d="M238.04 228.014C236.133 228.788 234.64 229.451 233.742 229.962C228.877 232.671 212.68 237.701 199.22 238.973C208.52 234.965 222.147 229.783 236.064 225.277L238.04 228.014Z" fill="#322FE6"/>
</svg>
