<svg width="34" height="34" viewBox="0 0 34 34" fill="none" xmlns="http://www.w3.org/2000/svg">
  <path d="M0.600098 17.0706C0.600098 26.1882 7.95304 33.5412 17.0707 33.5412C26.1883 33.5412 33.5413 26.1882 33.5413 17.0706C33.5413 7.95294 26.1883 0.6 17.0707 0.6C7.95304 0.6 0.600098 7.95294 0.600098 17.0706Z" fill="#1BA3E7"/>
  <path d="M20.5414 19.1294C20.5414 19.1294 21.1296 18.3059 21.7178 16.6588C22.3649 15.0118 22.4237 14.0706 22.4237 14.0706L17.7178 14.0118V12.4235L23.4237 12.3647V11.1882H17.659V8.6H14.8355V11.1882H9.42371V12.3647L14.7767 12.3059V14.0706H10.5414V15.0118H19.3649C19.3061 15.6 19.1296 16.1294 18.9531 16.6588C18.6002 17.5412 18.2472 18.3647 18.2472 18.3647C18.2472 18.3647 14.1296 16.8941 11.8943 16.8941C9.71783 16.8941 7.07077 17.7765 6.77665 20.3059C6.54136 22.8353 8.01195 24.2471 10.1296 24.7176C12.1884 25.1882 14.1296 24.7176 15.8355 23.8941C17.5414 23.0706 19.1884 21.1882 19.1884 21.1882L27.9531 25.4823C27.9531 25.4823 28.4825 24.6588 28.8943 23.8941C29.1884 23.3647 29.4237 22.7765 29.659 22.2471L20.5414 19.1294V19.1294ZM11.4825 23.3059C8.36489 23.3059 7.77665 21.7765 7.77665 20.7176C7.77665 19.6588 8.42371 18.4235 11.0708 18.2471C13.659 18.0706 17.2472 20.1294 17.2472 20.1294C17.2472 20.1294 14.6002 23.3059 11.4825 23.3059V23.3059Z" fill="white"/>
  </svg>
