<svg width="23" height="23" viewBox="0 0 23 23" fill="none" xmlns="http://www.w3.org/2000/svg">
<path d="M21.9772 8.02268L18.7112 11.2896C18.2162 11.7845 17.5451 12.0626 16.8452 12.0626C16.1454 12.0626 15.4742 11.7845 14.9793 11.2896L11.7133 8.02268C11.2185 7.52765 10.9405 6.8563 10.9405 6.15629C10.9405 5.45627 11.2185 4.78492 11.7133 4.28989L14.9793 1.02298C15.4742 0.528043 16.1454 0.25 16.8452 0.25C17.5451 0.25 18.2162 0.528043 18.7112 1.02298L21.9772 4.28989C22.472 4.78492 22.75 5.45627 22.75 6.15629C22.75 6.8563 22.472 7.52765 21.9772 8.02268ZM7.50987 11.1032H2.88731C1.43184 11.1032 0.25 9.9211 0.25 8.46525V3.84732C0.25 2.38565 1.43184 1.2035 2.88731 1.2035H7.50405C8.96534 1.2035 10.1472 2.38565 10.1472 3.84149V8.45943C10.1472 9.9211 8.96534 11.1032 7.50987 11.1032ZM19.1536 22.75H14.5369C13.0814 22.75 11.8996 21.5679 11.8996 20.112V15.4941C11.8996 14.0382 13.0814 12.8561 14.5369 12.8561H19.1536C20.6091 12.8561 21.7909 14.0382 21.7909 15.4941V20.112C21.7909 21.5679 20.6091 22.75 19.1536 22.75ZM7.50987 22.75H2.88731C1.43184 22.75 0.25 21.5679 0.25 20.112V15.4941C0.25 14.0324 1.43184 12.8503 2.88731 12.8503H7.50405C8.95952 12.8503 10.1414 14.0324 10.1414 15.4882V20.1062C10.1429 20.4528 10.076 20.7964 9.9444 21.1171C9.81284 21.4377 9.61925 21.7293 9.37474 21.9749C9.13023 22.2206 8.83962 22.4155 8.5196 22.5485C8.19957 22.6815 7.85643 22.75 7.50987 22.75Z" fill="#767676"/>
</svg>
