<svg width="18" height="18" viewBox="0 0 16 16" fill="none" xmlns="http://www.w3.org/2000/svg">
<path d="M13.6815 4H2.28295C1.57548 4 1 4.55797 1 5.24383V11.7552C1 12.4411 1.58348 12.9995 2.30095 12.9995H5.41484C5.94432 12.9995 6.41631 12.6964 6.6188 12.2251L7.52327 10.0804C7.60376 9.89279 7.79126 9.77201 8.00075 9.77201C8.20974 9.77201 8.39674 9.89327 8.47573 10.078L9.3822 12.2284C9.58019 12.6902 10.0577 13 10.5692 13H13.682C14.4085 13 15 12.4416 15 11.7557V5.24383C14.999 4.55844 14.408 4 13.6815 4ZM4.78636 9.67112C3.8214 9.67112 3.03643 8.92748 3.03643 8.01331C3.03643 7.09915 3.8214 6.35551 4.78636 6.35551C5.75133 6.35551 6.5363 7.09915 6.5363 8.01331C6.5363 8.92748 5.75133 9.67112 4.78636 9.67112ZM11.2751 9.67112C10.3102 9.67112 9.52519 8.92748 9.52519 8.01331C9.52519 7.09915 10.3102 6.35551 11.2751 6.35551C12.2401 6.35551 13.0251 7.09915 13.0251 8.01331C13.0251 8.92748 12.2401 9.67112 11.2751 9.67112Z" fill="white"/>
</svg>
