<svg width="12" height="12" viewBox="0 0 12 12" fill="none" xmlns="http://www.w3.org/2000/svg">
<path d="M2.41821 0.00698865H9.20821C9.61435 0.00683247 10.0059 0.15861 10.3058 0.432482C10.6057 0.706353 10.7923 1.08251 10.8289 1.48699L11.6182 10.1643C11.6388 10.3895 11.6122 10.6165 11.5401 10.8308C11.4681 11.0451 11.3521 11.242 11.1997 11.409C11.0472 11.576 10.8617 11.7094 10.6548 11.8006C10.4479 11.8919 10.2243 11.939 9.99821 11.939H1.62821C1.40211 11.939 1.17849 11.8919 0.971622 11.8006C0.764753 11.7094 0.57918 11.576 0.426745 11.409C0.27431 11.242 0.158361 11.0451 0.0862977 10.8308C0.0142347 10.6165 -0.0123597 10.3895 0.00821177 10.1643L0.796879 1.48766C0.833487 1.08329 1.02 0.707229 1.31976 0.433373C1.61952 0.159518 2.01086 0.00766559 2.41688 0.00765531L2.41821 0.00698865Z" fill="white"/>
<path d="M7.73121 2.04C7.7682 1.93966 7.84322 1.85793 7.94003 1.8125C8.03684 1.76707 8.14765 1.7616 8.24846 1.79728C8.34927 1.83296 8.43198 1.90691 8.47866 2.00312C8.52534 2.09934 8.53225 2.21007 8.49788 2.31133C8.30151 2.86652 7.93787 3.34718 7.45702 3.68715C6.97618 4.02711 6.40177 4.20966 5.81288 4.20966C5.22399 4.20966 4.64958 4.02711 4.16873 3.68715C3.68788 3.34718 3.32425 2.86652 3.12788 2.31133C3.10926 2.26081 3.10085 2.20709 3.10316 2.15329C3.10546 2.09949 3.11843 2.04668 3.1413 1.99793C3.16418 1.94919 3.19651 1.90547 3.23641 1.86931C3.27632 1.83316 3.32301 1.80529 3.37377 1.78732C3.42454 1.76936 3.47836 1.76165 3.53213 1.76466C3.58589 1.76766 3.63852 1.78131 3.68697 1.80482C3.73542 1.82832 3.77871 1.86122 3.81435 1.90159C3.84998 1.94196 3.87724 1.98901 3.89455 2.04C4.03478 2.43672 4.29457 2.7802 4.63812 3.02314C4.98168 3.26608 5.3921 3.39653 5.81288 3.39653C6.23365 3.39653 6.64408 3.26608 6.98763 3.02314C7.33119 2.7802 7.59097 2.43672 7.73121 2.04Z" fill="#5065E5"/>
</svg>
