<svg width="14" height="14" viewBox="0 0 14 14" fill="none" xmlns="http://www.w3.org/2000/svg">
<path d="M2.821 0.00701918H10.7427C11.2165 0.00683698 11.6733 0.183911 12.0231 0.503428C12.373 0.822945 12.5907 1.26179 12.6334 1.73369L13.5543 11.8572C13.5783 12.1199 13.5473 12.3847 13.4632 12.6348C13.3792 12.8848 13.2439 13.1146 13.066 13.3094C12.8882 13.5042 12.6717 13.6598 12.4304 13.7663C12.189 13.8727 11.9281 13.9277 11.6643 13.9277H1.89934C1.63555 13.9277 1.37466 13.8727 1.13331 13.7663C0.891968 13.6598 0.675466 13.5042 0.497625 13.3094C0.319784 13.1146 0.18451 12.8848 0.100436 12.6348C0.016363 12.3847 -0.0146638 12.1199 0.00933626 11.8572L0.929448 1.73446C0.972157 1.2627 1.18975 0.823966 1.53947 0.504468C1.88919 0.18497 2.34576 0.00780895 2.81945 0.00779696L2.821 0.00701918Z" fill="white"/>
<path d="M9.01995 2.38002C9.0631 2.26295 9.15062 2.1676 9.26357 2.1146C9.37652 2.0616 9.5058 2.05522 9.62341 2.09684C9.74102 2.13847 9.83751 2.22475 9.89197 2.337C9.94643 2.44925 9.95449 2.57843 9.9144 2.69658C9.6853 3.34429 9.26106 3.90507 8.70007 4.30169C8.13908 4.69832 7.46893 4.91129 6.7819 4.91129C6.09486 4.91129 5.42471 4.69832 4.86372 4.30169C4.30274 3.90507 3.87849 3.34429 3.6494 2.69658C3.62767 2.63763 3.61786 2.57495 3.62055 2.51219C3.62324 2.44942 3.63837 2.38781 3.66505 2.33094C3.69174 2.27407 3.72946 2.22306 3.77602 2.18088C3.82258 2.1387 3.87705 2.10619 3.93627 2.08523C3.99549 2.06427 4.05829 2.05528 4.12102 2.05878C4.18374 2.06229 4.24515 2.07821 4.30167 2.10564C4.35819 2.13306 4.4087 2.17144 4.45028 2.21854C4.49185 2.26564 4.52365 2.32053 4.54384 2.38002C4.70745 2.84285 5.01054 3.24358 5.41135 3.52701C5.81216 3.81045 6.29099 3.96264 6.7819 3.96264C7.2728 3.96264 7.75163 3.81045 8.15244 3.52701C8.55326 3.24358 8.85634 2.84285 9.01995 2.38002Z" fill="#FB5D3B"/>
</svg>
