<svg width="25" height="20" viewBox="0 0 25 20" fill="none" xmlns="http://www.w3.org/2000/svg">
<g clip-path="url(#clip0)">
<path d="M12.6396 9.31938C12.83 9.39239 20.351 6.95977 20.501 6.69327C20.651 6.42676 17.6617 3.61931 17.6617 3.61931L10.9093 5.92488C10.9111 5.92477 12.4491 9.24636 12.6396 9.31938Z" fill="white"/>
<path d="M4.48501 5.12603C4.49913 5.30856 8.73327 8.77012 8.99661 8.74829C9.25981 8.72473 10.94 5.97829 10.94 5.97829L6.42457 2.85855C6.42457 2.85855 4.47077 4.9418 4.48501 5.12603ZM13.7606 0.589932L13.3965 3.67974L12.7368 0.507442C12.7368 0.507442 6.90803 2.34791 6.91735 2.5376C6.92846 2.72717 10.7306 5.31789 11.0634 5.34307C11.3944 5.36836 17.1272 3.38999 17.1946 3.18001C17.2619 2.97003 13.7606 0.589932 13.7606 0.589932Z" fill="white"/>
<path d="M10.7634 7.22013C10.7634 7.22013 9.37383 9.45084 9.05989 9.49118C8.74417 9.53163 6.41048 7.49634 6.41048 7.49634C6.41048 7.49634 6.52707 9.79314 6.60247 9.98066C6.67786 10.1682 10.8714 13.4843 11.398 13.5309C11.9247 13.5774 18.4462 11.1368 18.5516 11.0178C18.6569 10.8971 18.7036 7.90755 18.7036 7.90755C18.7036 7.90755 12.4912 10.0835 12.2786 10.0221C12.0661 9.96071 10.7634 7.22013 10.7634 7.22013Z" fill="white"/>
<path d="M7.61561 15.8857V13.5296L12.4277 16.7213L7.61561 19.9131V17.5843C3.12139 16.4611 0 13.7898 0 10.6117C0 9.146 0.679191 7.74874 1.90751 6.55696C2.23988 6.22819 2.78902 6.21449 3.13584 6.52956C3.48266 6.84463 3.49711 7.36518 3.16474 7.69394L3.13584 7.72134C2.21098 8.61175 1.7341 9.61175 1.7341 10.6254C1.7341 12.8172 4.06069 14.872 7.61561 15.8857Z" fill="white"/>
<path d="M15.2602 17.968C14.7833 18.0502 14.3353 17.7488 14.2486 17.2968C14.1619 16.8447 14.4798 16.4201 14.9567 16.3379C14.9712 16.3379 14.9856 16.3379 15.0145 16.3242C19.7978 15.653 23.1359 13.2283 23.1359 10.5845C23.1359 9.61186 22.6879 8.65296 21.8353 7.78995C21.503 7.46118 21.5319 6.94063 21.8787 6.62556C22.2255 6.3105 22.7746 6.33789 23.107 6.66666C24.2486 7.83104 24.8845 9.17351 24.8845 10.5845C24.8556 14.242 20.7949 17.2009 15.2602 17.968Z" fill="white"/>
</g>
<defs>
<clipPath id="clip0">
<rect width="25" height="20" fill="white"/>
</clipPath>
</defs>
</svg>
