<svg t="1621930624212" class="icon" viewBox="0 0 1024 1024" version="1.1" xmlns="http://www.w3.org/2000/svg" p-id="2333" width="200" height="200"><path d="M512 1024c136.752 0 265.328-53.264 362.016-149.968C970.736 777.328 1024 648.752 1024 512s-53.264-265.328-149.968-362.016C777.328 53.264 648.752 0 512 0S246.672 53.264 149.984 149.968C53.264 246.672 0 375.248 0 512s53.264 265.328 149.968 362.016C246.672 970.736 375.248 1024 512 1024zM195.232 195.232C279.84 110.608 392.336 64 512 64s232.16 46.608 316.768 131.232C913.392 279.84 960 392.336 960 512s-46.608 232.16-131.232 316.768C744.16 913.392 631.664 960 512 960s-232.16-46.608-316.768-131.232C110.608 744.16 64 631.664 64 512s46.608-232.16 131.232-316.768z" p-id="2334" fill="#ffffff"></path><path d="M382.992 768H384a32 32 0 0 0 23.072-9.824l400-416a32 32 0 1 0-46.144-44.352L385.52 688.256l-153.088-180.928a32 32 0 1 0-48.864 41.344l176 208c5.856 6.928 14.368 11.328 23.424 11.328z" p-id="2335" fill="#ffffff"></path></svg>
