<svg width="375" height="415" viewBox="0 0 375 415" fill="none" xmlns="http://www.w3.org/2000/svg">
<mask id="mask0" mask-type="alpha" maskUnits="userSpaceOnUse" x="0" y="0" width="375" height="415">
<path d="M0 0H375V415H0V0Z" fill="white"/>
</mask>
<g mask="url(#mask0)">
<path fill-rule="evenodd" clip-rule="evenodd" d="M384.825 200.247C384.972 217.231 382.123 234.202 376.371 250.454C375.329 253.426 374.189 256.37 372.939 259.285C371.994 261.524 370.993 263.749 369.923 265.961C368.839 268.213 367.686 270.452 366.477 272.663L366.464 272.677C353.902 295.812 334.977 316.555 310.147 332.435H310.133C306.005 335.102 301.712 337.603 297.252 339.953C296.279 340.478 295.293 340.99 294.306 341.487C293.889 341.708 293.472 341.915 293.055 342.122C293 342.15 292.944 342.178 292.888 342.205C292.652 342.33 292.402 342.454 292.152 342.565C288.053 344.583 283.829 346.49 279.466 348.245C277.507 349.047 275.534 349.82 273.533 350.553C271.643 351.258 269.725 351.921 267.794 352.557C267.419 352.695 267.058 352.819 266.682 352.943C266.127 353.137 265.557 353.317 265.001 353.497C263.167 354.077 261.305 354.644 259.429 355.182C248.521 358.361 236.961 360.779 224.733 362.355C219.078 363.087 212.353 363.737 204.96 364.29C203.571 364.4 202.153 364.497 200.722 364.594C199.582 364.677 198.43 364.76 197.248 364.829C175.641 366.211 149.81 366.943 127.884 366.998C126.244 367.013 124.632 367.013 123.034 367.013C122.214 367.013 121.394 367.013 120.589 366.998C114.85 366.985 109.486 366.916 104.651 366.791C89.1996 366.418 73.4703 365.63 57.5321 364.552C52.7944 364.221 48.0419 363.875 43.2756 363.502C41.8585 363.378 40.4272 363.267 38.9963 363.156C35.8837 362.894 32.7435 362.631 29.617 362.355C28.8665 362.3 28.1166 362.231 27.366 362.161C26.7548 362.106 26.1292 362.051 25.518 361.996C25.1151 361.954 24.6979 361.927 24.295 361.885C18.8343 361.388 13.3598 360.863 7.87085 360.323C-2.93945 359.246 -13.7776 358.071 -24.6161 356.827C-56.5331 353.206 -88.4227 349.033 -119.436 345.025C-137.486 342.703 -155.23 340.423 -172.516 338.35C-185.953 336.746 -199.112 335.254 -211.895 333.969C-254.456 329.629 -293.057 327.39 -324.821 329.698C-327.225 329.878 -329.629 330.085 -332.033 330.348C-340.689 331.205 -349.415 332.532 -358.169 334.218C-358.892 334.356 -359.601 334.494 -360.323 334.646C-360.462 334.674 -360.587 334.701 -360.726 334.729C-364.367 335.448 -368.007 336.249 -371.661 337.106C-372.148 337.203 -372.634 337.327 -373.134 337.452C-378.637 338.751 -384.167 340.174 -389.683 341.722C-394.728 343.131 -399.785 344.624 -404.843 346.199C-406.969 346.863 -409.095 347.54 -411.221 348.231C-413.458 348.949 -415.681 349.682 -417.919 350.428C-418.002 350.456 -418.085 350.498 -418.183 350.525C-418.697 350.691 -419.197 350.871 -419.725 351.036C-421.406 351.603 -423.087 352.184 -424.783 352.764C-429.521 354.409 -434.259 356.108 -438.997 357.836C-439.387 357.974 -439.79 358.126 -440.179 358.264C-441.943 358.928 -443.708 359.563 -445.486 360.227C-446.904 360.766 -448.307 361.291 -449.725 361.83C-450.211 362.01 -450.711 362.189 -451.197 362.383C-451.211 362.383 -451.211 362.383 -451.225 362.397C-452.323 362.811 -453.407 363.226 -454.504 363.64C-456.047 364.235 -457.575 364.815 -459.132 365.423C-465.968 368.049 -472.791 370.744 -479.557 373.411C-504.875 383.472 -529.663 393.574 -553.369 401.797C-561.928 404.783 -570.362 407.519 -578.63 409.91C-597.333 415.313 -615.188 418.976 -631.876 419.805C-634.336 419.943 -636.767 420.012 -639.171 420C-653.177 419.985 -666.295 417.787 -678.356 412.715C-764.395 376.534 -703.214 284.327 -664.655 227.403C-647.717 202.389 -646.577 189.882 -652.247 178.563C-659.486 164.121 -677.8 151.6 -688.471 117.506C-707.536 56.6569 -647.814 2.06792 -476.945 5.12236C-380.638 6.84947 -333.241 22.3558 -158.899 57.6933C-90.1454 71.6241 -24.0463 63.9815 37.0647 55.0537C41.7198 54.3764 46.3605 53.6856 50.9598 53.0083C52.1967 52.8149 53.4194 52.6356 54.6425 52.4555C55.1841 52.3727 55.7261 52.2899 56.254 52.2207C142.14 39.3818 242.06 15.1831 329.572 87.5583C359.975 112.697 377.441 144.745 382.929 178.079C383.319 180.36 383.652 182.654 383.888 184.934C384.485 190.02 384.791 195.133 384.825 200.247Z" fill="#EBF0FC"/>
<mask id="mask1" mask-type="alpha" maskUnits="userSpaceOnUse" x="0" y="0" width="375" height="242">
<path d="M0 0H374.994V241.438H0V0Z" fill="white"/>
</mask>
<g mask="url(#mask1)">
<path fill-rule="evenodd" clip-rule="evenodd" d="M374.995 195.247C350.262 173.245 314.954 145.08 263.709 118.38C120.477 43.7655 152.659 144.624 56.9072 214.125C-38.8447 283.612 -39.7618 207.671 -170.543 129.602C-301.338 51.5186 -258.638 186.084 -384.098 196.85C-497.816 206.607 -605.976 146.268 -662.071 173.563C-669.31 159.121 -687.624 146.6 -698.295 112.506C-717.359 51.6569 -657.638 -2.93208 -486.769 0.12236C-390.462 1.84947 -343.065 17.3558 -168.723 52.6933C-99.9694 66.6241 -33.8702 58.9815 27.2408 50.0537C31.8959 49.3763 36.5366 48.6856 41.1359 48.0083C42.3727 47.8149 43.5954 47.6355 44.8185 47.4555C45.3602 47.3727 45.9021 47.2899 46.4301 47.2207C132.316 34.3817 232.236 10.1831 319.748 82.5583C350.151 107.697 367.617 139.745 373.105 173.079C373.495 175.36 373.828 177.654 374.064 179.934C374.661 185.02 374.967 190.133 374.995 195.247Z" fill="#F5F7FC"/>
</g>
<path fill-rule="evenodd" clip-rule="evenodd" d="M166.865 260.008L154.132 540.01H125.17C125.17 540.01 112.657 503.999 121.892 441.212C128.777 394.217 117.793 318.205 116.263 291.702C113.312 240.335 166.865 260.008 166.865 260.008Z" fill="#322FE6"/>
<path d="M134.515 540.011C134.515 540.011 121.673 495.256 131.673 436.895C138.886 395.036 131.017 341.32 126.974 313.669" stroke="#040078" stroke-width="2" stroke-miterlimit="10" stroke-linecap="round" stroke-linejoin="round"/>
<path fill-rule="evenodd" clip-rule="evenodd" d="M152.001 256.292L119.542 328.205L63.2025 539.956H37.4645C37.4645 539.956 31.5628 479.955 54.35 425.966C73.5305 380.391 69.7053 309.134 79.3775 277.658C94.569 228.149 152.001 256.292 152.001 256.292Z" fill="#322FE6"/>
<path d="M102.055 284.762C102.055 284.762 97.9571 293.942 92.3286 304.544C89.7056 309.571 83.4214 308.915 83.4214 308.915" stroke="#040078" stroke-width="2" stroke-miterlimit="10" stroke-linecap="round" stroke-linejoin="round"/>
<path d="M140.307 282.467L119.542 328.26" stroke="#040078" stroke-width="2" stroke-miterlimit="10" stroke-linecap="round" stroke-linejoin="round"/>
<path d="M47.5194 540.011C47.5194 540.011 41.1259 478.152 62.8201 426.02C84.9515 372.686 78.0115 310.555 87.6837 279.079" stroke="#040078" stroke-width="2" stroke-miterlimit="10" stroke-linecap="round" stroke-linejoin="round"/>
<path fill-rule="evenodd" clip-rule="evenodd" d="M176.537 229.024C185.226 226.455 192.657 225.854 193.204 227.712C193.75 229.57 187.138 233.122 178.504 235.69C169.816 238.259 162.384 238.86 161.837 237.002C161.291 235.144 167.848 231.592 176.537 229.024Z" fill="#322FE6"/>
<path fill-rule="evenodd" clip-rule="evenodd" d="M176.537 229.352C173.313 230.335 170.362 231.428 167.958 232.521L165.827 285.09C165.827 285.09 151.291 291.046 113.968 289.625C85.8803 288.532 77.9021 282.521 77.9021 282.521L79.2682 194.215C79.8693 181.755 90.1427 171.974 102.602 171.974H106.318C106.864 170.498 107.684 168.149 108.176 166.619C109.651 161.755 112.055 159.788 116.919 159.296C117.028 159.679 117.028 160.17 116.864 160.772C115.443 160.99 110.58 166.236 121.564 171.974L141.018 172.029C141.072 171.755 141.072 171.427 141.072 171.1C141.072 166.892 138.121 165.799 138.121 165.799L138.231 164.324C138.231 164.324 141.946 165.416 145.061 171.974H146.1C160.69 172.029 175.553 182.357 181.346 195.745L193.259 227.111C193.204 227.166 188.286 225.909 176.537 229.352Z" fill="#86A8FF"/>
<path d="M147.029 183.122C147.466 180.335 146.755 175.253 145.171 172.302M106.263 171.974C105.553 175.635 109.924 182.138 116.646 184.542L106.263 171.974Z" stroke="#322FE6" stroke-width="2" stroke-miterlimit="10" stroke-linecap="round" stroke-linejoin="round"/>
<path fill-rule="evenodd" clip-rule="evenodd" d="M128.995 159.624C136.7 161.7 142.11 166.619 141.017 170.662C139.925 174.706 132.821 176.291 125.061 174.269C117.356 172.192 111.946 167.274 113.039 163.231C114.132 159.132 121.29 157.547 128.995 159.624Z" fill="black"/>
<path fill-rule="evenodd" clip-rule="evenodd" d="M146.81 183.668L135.936 181.428C135.936 181.428 135.28 177.329 136.482 175.581C137.63 173.777 141.4 174.324 146.81 183.668Z" fill="#322FE6"/>
<path fill-rule="evenodd" clip-rule="evenodd" d="M116.646 184.979L131.946 181.81C131.946 181.81 130.089 175.635 126.591 174.433C124.569 173.723 118.941 179.679 116.646 184.979Z" fill="#322FE6"/>
<path d="M137.138 174.87C139.214 174.16 140.526 172.903 140.744 171.154C140.963 169.515 140.58 167.657 138.941 165.963M115.116 161.209C114.241 161.919 113.64 162.466 113.531 163.504C113.039 167.493 119.323 172.63 126.864 174.706L115.116 161.209Z" stroke="#4152F3" stroke-width="2" stroke-miterlimit="10" stroke-linecap="round"/>
<path d="M135.498 190.717C135.225 190.717 134.952 190.499 134.952 190.171C134.897 184.761 134.952 175.526 136.263 174.651C136.81 174.269 137.466 174.16 138.176 174.269C141.892 174.979 147.028 182.466 147.247 182.794C147.411 183.067 147.356 183.395 147.083 183.559C146.81 183.723 146.482 183.668 146.318 183.395C144.897 181.318 140.635 175.799 137.957 175.307C137.52 175.198 137.138 175.307 136.864 175.471C136.263 176.236 135.935 183.504 136.045 190.061C136.045 190.499 135.826 190.717 135.498 190.717Z" fill="#322FE6"/>
<path d="M135.225 190.499C135.007 190.499 134.788 190.335 134.679 190.116C133.476 186.4 129.651 176.4 126.646 175.253C126.373 175.143 126.209 174.815 126.318 174.542C126.427 174.269 126.755 174.105 127.028 174.214C131.072 175.799 135.28 188.313 135.717 189.734C135.826 190.007 135.662 190.335 135.389 190.444C135.334 190.499 135.28 190.499 135.225 190.499Z" fill="#4152F3"/>
<path d="M169.215 202.849L167.903 237.439" stroke="#322FE6" stroke-width="2" stroke-miterlimit="10" stroke-linecap="round" stroke-linejoin="round"/>
<path fill-rule="evenodd" clip-rule="evenodd" d="M168.777 233.341C167.958 232.521 167.848 234.707 167.848 234.707C167.794 234.652 167.794 234.597 167.794 234.597L169.542 207.931C169.542 207.931 169.105 218.586 172.22 223.614C174.46 227.22 175.28 228.805 175.772 230.444C172.93 231.319 170.471 231.975 168.777 233.341Z" fill="#322FE6"/>
<path fill-rule="evenodd" clip-rule="evenodd" d="M189.707 269.024C183.914 268.586 178.887 264.871 176.756 259.515L167.848 236.728L167.794 236.674C167.357 235.253 172.493 232.411 179.269 230.335C186.045 228.313 191.892 227.821 192.33 229.242C192.384 229.351 192.33 229.46 192.33 229.57L198.668 248.477L245.062 255.034L248.505 273.505L189.707 269.024Z" fill="#FE93BC"/>
<path fill-rule="evenodd" clip-rule="evenodd" d="M169.597 241.209L167.849 236.729L167.794 236.674C167.357 235.253 172.166 231.483 178.942 229.461C183.586 228.04 188.067 228.313 190.417 228.477C184.898 229.297 172.767 232.193 169.597 241.209Z" fill="#211280"/>
<path fill-rule="evenodd" clip-rule="evenodd" d="M221.292 237.002H277.467V286.346H221.292V237.002Z" fill="#E46923"/>
<path fill-rule="evenodd" clip-rule="evenodd" d="M193.422 237.001H249.598V286.346H193.422V237.001Z" fill="#F18C22"/>
<path fill-rule="evenodd" clip-rule="evenodd" d="M214.078 236.892H225.772V286.456H214.078V236.892Z" fill="#040078"/>
<path fill-rule="evenodd" clip-rule="evenodd" d="M127.028 174.269C127.957 174.542 128.886 175.526 129.761 176.783C131.947 179.788 133.914 184.651 134.952 187.602C134.952 182.247 135.171 175.471 136.264 174.706C136.755 174.324 137.411 174.214 138.067 174.324V152.247C142.165 150.99 145.007 147.493 145.007 141.973C145.007 127.82 144.952 114.651 144.952 114.651C142.438 108.039 120.908 101.427 115.444 121.864L115.498 130.389C115.17 130.279 114.843 130.225 114.46 130.225C112.547 130.225 111.017 131.755 111.017 133.667C111.017 135.58 112.547 137.11 114.46 137.11C114.843 137.11 115.225 137.055 115.553 136.946L115.771 168.039C115.771 167.985 120.471 172.52 127.028 174.269Z" fill="#FDB2D0"/>
<path d="M116.099 134.487C116.318 134.487 116.482 134.378 116.591 134.214C116.7 133.941 116.591 133.613 116.372 133.503L114.187 132.465C113.913 132.356 113.586 132.465 113.476 132.684C113.367 132.957 113.476 133.285 113.695 133.394L115.881 134.432C115.935 134.487 116.045 134.487 116.099 134.487Z" fill="black"/>
<path d="M141.072 126.235L143.968 126.782" stroke="black" stroke-width="2" stroke-miterlimit="10" stroke-linecap="round"/>
<path d="M131.017 126.235L128.121 126.782" stroke="black" stroke-width="2" stroke-miterlimit="10" stroke-linecap="round"/>
<path fill-rule="evenodd" clip-rule="evenodd" d="M142.22 128.312C141.455 128.312 140.854 128.913 140.854 129.678C140.854 130.443 141.455 131.044 142.22 131.044C142.985 131.044 143.586 130.443 143.586 129.678C143.586 128.913 142.985 128.312 142.22 128.312Z" fill="black"/>
<path fill-rule="evenodd" clip-rule="evenodd" d="M130.471 128.312C129.706 128.312 129.105 128.913 129.105 129.678C129.105 130.443 129.706 131.044 130.471 131.044C131.236 131.044 131.837 130.443 131.837 129.678C131.837 128.913 131.236 128.312 130.471 128.312Z" fill="black"/>
<path fill-rule="evenodd" clip-rule="evenodd" d="M138.067 160.608V152.465C137.302 152.52 136.482 152.575 136.264 152.629C134.023 152.957 123.258 146.181 117.028 141.919C118.176 150.935 128.668 159.569 138.067 160.608Z" fill="#FE93BC"/>
<path d="M135.28 142.902C136.701 142.902 137.684 142.465 137.739 142.411C138.012 142.301 138.121 141.973 138.012 141.7C137.903 141.427 137.575 141.318 137.302 141.427C137.138 141.482 133.422 143.176 130.307 138.913C130.143 138.695 129.815 138.64 129.542 138.804C129.324 138.968 129.214 139.296 129.433 139.569C131.345 142.301 133.586 142.902 135.28 142.902Z" fill="black"/>
<path d="M139.815 138.421L134.296 137.875C134.023 137.82 133.804 137.602 133.804 137.274C133.859 137.001 134.078 136.727 134.406 136.782L139.105 137.274L137.083 127.766C137.029 127.492 137.192 127.164 137.52 127.11C137.794 127.055 138.121 127.219 138.176 127.547L140.362 137.766C140.417 137.93 140.362 138.094 140.253 138.258C140.143 138.312 139.979 138.421 139.815 138.421Z" fill="black"/>
<path fill-rule="evenodd" clip-rule="evenodd" d="M147.794 110.607C147.411 112.902 147.52 111.372 149.761 115.197C149.979 115.634 150.089 116.181 150.089 116.673C150.089 118.64 148.504 120.225 146.537 120.225C145.225 120.225 144.078 119.514 143.477 118.421C141.837 119.788 139.761 120.662 137.466 120.662C132.711 120.662 128.832 117.11 128.23 112.574C118.285 113.558 120.416 130.389 120.416 130.389C120.416 130.389 113.749 129.897 112.165 131.208C112.165 131.208 110.143 129.241 110.744 125.689C111.946 118.039 113.258 116.29 113.258 116.29C113.586 112.356 120.635 110.88 122.165 108.421L147.794 110.607Z" fill="#322FE6"/>
<path fill-rule="evenodd" clip-rule="evenodd" d="M140.144 115.883C138.467 116.397 135.957 117.179 132.923 118.095C132.449 118.238 131.956 118.393 131.452 118.547C131.441 118.557 131.431 118.568 131.421 118.568C128.407 119.483 124.971 120.512 121.371 121.571C121.361 121.581 121.34 121.581 121.32 121.592C105.674 126.159 86.9934 131.117 86.6541 128.741C86.1398 125.141 109.675 124.503 110.961 115.883C111.856 109.896 113.872 102.778 120.435 99.445C121.206 99.0542 122.05 98.7044 122.955 98.4266C125.403 97.6656 128.355 97.3466 131.915 97.6345C132.388 97.6757 132.861 97.7168 133.314 97.7786C148.393 99.6303 154.751 111.377 140.144 115.883Z" fill="#FDA218"/>
<path fill-rule="evenodd" clip-rule="evenodd" d="M140.144 115.883C138.467 116.397 135.957 117.179 132.923 118.095C137.418 114.792 143.456 109.588 141.759 106.563C139.115 101.872 130.505 99.0438 125.197 99.6921L122.955 98.4266C125.403 97.6656 128.355 97.3466 131.914 97.6345C132.388 97.6757 132.861 97.7168 133.313 97.7786C148.393 99.6303 154.75 111.377 140.144 115.883Z" fill="#FFBE71"/>
<path fill-rule="evenodd" clip-rule="evenodd" d="M121.319 121.592C105.673 126.159 86.9932 131.117 86.6536 128.741C86.1393 125.141 109.675 124.503 110.961 115.883C111.855 109.896 113.872 102.778 120.434 99.4452C120.579 99.6612 120.65 99.8979 120.65 100.155C115.888 103.93 113.471 111.768 113.728 116.017C113.985 120.265 106.198 122.703 109.994 122.96C112.401 123.125 117.729 122.25 121.319 121.592Z" fill="#FC8000"/>
<path fill-rule="evenodd" clip-rule="evenodd" d="M118.993 98.8576C119.243 100.676 121.151 101.916 123.257 101.627C125.362 101.338 126.866 99.6295 126.616 97.8111C126.367 95.9927 124.458 94.7528 122.353 95.0418C120.247 95.3308 118.743 97.0392 118.993 98.8576Z" fill="#FDA218"/>
<path fill-rule="evenodd" clip-rule="evenodd" d="M124.269 95.7169C122.629 95.3633 121.263 95.6204 122.388 96.4242C123.514 97.2278 124.638 98.0634 124.558 98.9797C124.478 99.8957 126.519 98.8351 126.165 97.4045C125.812 95.974 124.269 95.7169 124.269 95.7169Z" fill="#FFBE71"/>
<path fill-rule="evenodd" clip-rule="evenodd" d="M122.243 217.214L134.633 217.803C131.051 227.131 120.738 241.149 109.342 253.989V253.997C100.718 263.721 91.4782 272.759 84.06 278.567C81.3936 280.661 78.956 282.333 76.8791 283.468C61.3736 291.943 42.4539 286.662 41.3538 256.963C40.254 227.263 53.4538 200.204 70.9039 190.374C87.263 181.169 82.4139 175.817 98.6675 172.323C99.7587 172.086 104.222 171.97 105.498 171.777C108.78 171.275 110.024 175.603 112.875 176.148C127.651 178.929 139.651 208.389 134.633 217.803L125.99 217.392L122.243 217.214L99.0198 186.388C88.5567 200.3 78.8241 249.483 78.9735 251.093C78.9823 251.155 79 251.217 79.0352 251.287C79.8272 253.02 89.0581 256.655 103.323 244.933C118.133 232.763 122.243 217.214 122.243 217.214Z" fill="#FDA218"/>
<path d="M160.963 194.455C157.958 182.433 149.123 179.336 147.029 172.323C149.67 172.779 160.417 165.766 166.974 178.881C169.753 184.438 170.253 196.367 168.887 202.651L166.974 252.925L162.876 248.007C161.145 238.444 163.46 204.441 160.963 194.455Z" fill="#FDA218" stroke="#FDA218"/>
<path fill-rule="evenodd" clip-rule="evenodd" d="M135.016 218.905C131.434 228.233 121.121 242.251 109.725 255.09C109.461 249.388 108.097 246.158 104.331 249.925C99.5258 254.73 81.7414 260.326 79.418 252.389C80.21 254.122 89.4411 257.757 103.706 246.035C118.516 233.865 122.626 218.315 122.626 218.315L135.016 218.905Z" fill="#FC8000"/>
<path fill-rule="evenodd" clip-rule="evenodd" d="M99.4028 187.489C88.9397 201.402 79.2071 250.585 79.3565 252.195C77.2621 243.985 84.7422 217.919 87.9366 208.24C91.1308 198.56 96.5443 180.611 108.504 182.159C114.426 182.916 107.869 182.177 113.422 193.635L99.4028 187.489Z" fill="#FC8000"/>
<path fill-rule="evenodd" clip-rule="evenodd" d="M98.0924 177.627C89.3189 180.003 92.2658 177.396 84.8564 184.365C77.447 191.335 73.4871 188.695 66.1478 197.53C58.8088 206.365 54.7166 229.465 53.3616 239.893C52.0064 250.321 50.6071 263.934 54.8839 272.206C58.747 279.686 66.9471 286.317 83.9132 278.609C81.2468 280.703 78.0663 282.938 75.9897 284.073C60.4841 292.547 42.8367 287.764 41.7369 258.065C40.6368 228.365 53.8367 201.305 71.287 191.476C87.6461 182.271 80.5014 179.642 96.7549 176.148C99.8435 176.606 104.12 175.999 98.0924 177.627Z" fill="#FC8000"/>
<path fill-rule="evenodd" clip-rule="evenodd" d="M60.9825 276.65C52.3761 276.219 51.109 260.106 52.1738 247.997C52.4467 244.926 52.8692 242.119 53.3618 239.893C58.2458 242.63 67.6528 240.623 71.9121 237.103C72.1673 238.625 71.8855 240.764 72.0703 245.815C72.1584 248.209 72.352 251.262 72.7568 255.205C74.2968 270.279 71.9825 277.204 60.9825 276.65Z" fill="#E8740C"/>
<path fill-rule="evenodd" clip-rule="evenodd" d="M71.9119 237.103C67.6529 240.623 58.2456 242.629 53.3618 239.893C53.4056 239.673 53.4497 239.461 53.5026 239.25C55.7025 228.418 70.1168 233.24 71.4366 235.695C71.6831 236.153 71.8327 236.593 71.9119 237.103Z" fill="#FC8000"/>
<path fill-rule="evenodd" clip-rule="evenodd" d="M58.8176 241.944C58.8176 243.969 60.4592 245.611 62.4844 245.611C64.5093 245.611 66.1509 243.969 66.1509 241.944C66.1509 239.919 64.5093 238.278 62.4844 238.278C60.4592 238.278 58.8176 239.919 58.8176 241.944Z" fill="#914B0C"/>
<path fill-rule="evenodd" clip-rule="evenodd" d="M94.733 241.811L86.9187 219.591L86.2997 206.592C85.8669 197.505 91.9915 189.408 100.853 187.351L112.875 193.088L123.313 231.155L94.733 241.811Z" fill="#86A8FF"/>
<path fill-rule="evenodd" clip-rule="evenodd" d="M105.771 229.024C114.46 226.455 121.892 225.854 122.438 227.712C122.985 229.57 116.373 233.122 107.739 235.69C99.0501 238.259 91.6183 238.86 91.0719 237.002C90.5254 235.144 97.1375 231.592 105.771 229.024Z" fill="#322FE6"/>
<path d="M88.2849 226.018L91.6183 237.002" stroke="#322FE6" stroke-width="2" stroke-miterlimit="10" stroke-linecap="round" stroke-linejoin="round"/>
<path d="M112.875 202.302L121.892 227.657" stroke="#322FE6" stroke-width="2" stroke-miterlimit="10" stroke-linecap="round" stroke-linejoin="round"/>
<path fill-rule="evenodd" clip-rule="evenodd" d="M223.86 271.975C223.587 272.904 222.713 273.505 221.893 273.396L201.292 270.499C201.073 270.499 200.909 270.609 200.854 270.827C200.8 271.046 200.854 271.264 201.073 271.319L219.543 276.346C220.363 276.51 220.8 277.385 220.527 278.314C220.254 279.243 219.325 279.789 218.505 279.625L198.45 275.527C197.849 275.417 197.193 275.8 197.576 276.346C204.898 278.368 211.456 280.172 211.456 280.172C212.275 280.335 212.713 281.21 212.439 282.139C212.166 283.068 211.237 283.614 210.417 283.45L184.789 278.15C181.783 277.439 179.215 276.018 177.193 274.598L168.996 271.155C167.575 270.991 166.373 273.341 165.663 267.712C165.335 264.816 164.843 264.106 164.679 263.942C164.788 263.942 164.952 263.887 165.226 263.723L172.33 256.51C174.789 251.756 180.308 250.827 184.133 250.007C193.914 247.876 195.062 247.821 195.062 247.821C195.062 247.821 194.953 250.335 195.062 253.286C195.117 255.035 195.007 256.893 196.1 257.712C200.636 258.86 221.237 264.051 221.237 264.051C222.057 264.215 222.549 265.035 222.275 265.964C222.002 266.893 221.128 267.494 220.308 267.385L200.8 264.652C200.8 264.652 200.363 264.543 200.199 265.089C200.035 265.636 200.527 265.636 200.527 265.636L222.931 270.226C223.642 270.226 224.133 271.046 223.86 271.975Z" fill="#FDB2D0"/>
<path fill-rule="evenodd" clip-rule="evenodd" d="M118.067 271.702C111.837 271.21 106.427 267.275 104.132 261.428L94.569 237.275C94.2958 237.111 94.0772 236.947 94.0226 236.728C93.5854 235.198 99.1046 232.138 106.427 230.007C113.75 227.876 120.471 227.603 120.908 229.133C120.963 229.242 120.908 229.023 120.908 229.133L127.793 249.57L177.685 256.619L181.401 276.456L118.067 271.702Z" fill="#FDB2D0"/>
<path fill-rule="evenodd" clip-rule="evenodd" d="M119.542 228.368C116.099 228.095 101.017 233.177 96.3724 241.92C96.3724 241.92 92.8204 234.707 93.4215 236.619C92.9844 235.089 98.8861 231.592 106.209 229.461C112.001 227.712 117.411 227.439 119.542 228.368Z" fill="#322FE6"/>
</g>
<path fill-rule="evenodd" clip-rule="evenodd" d="M234.884 165.242C247.716 160.357 250.333 138.987 245.838 127.382C241.343 115.777 257.849 106.745 257.849 106.745C257.849 106.745 212.143 103.641 205.453 125.087C198.763 146.533 215.634 160.672 234.884 165.242Z" fill="#9FC3FC"/>
<path fill-rule="evenodd" clip-rule="evenodd" d="M264.441 176.026C272.87 183.445 289.468 177.24 296.239 169.597C303.011 161.954 315.86 170.456 315.86 170.456C315.86 170.456 300.812 136.262 282.616 139.554C264.42 142.845 260.487 160.389 264.441 176.026Z" fill="#9FC3FC"/>
<path fill-rule="evenodd" clip-rule="evenodd" d="M221.768 174.316C222.114 163.127 206.704 154.403 196.466 154.112C186.227 153.821 184.583 138.56 184.583 138.56C184.583 138.56 167.773 171.932 181.953 183.741C196.133 195.55 212.209 187.339 221.768 174.316Z" fill="#9FC3FC"/>
<path fill-rule="evenodd" clip-rule="evenodd" d="M280.302 169.724C280.213 169.379 279.859 169.171 279.51 169.261C265.28 172.945 249.824 182.139 246.313 192.744C245.482 189.313 244.104 186.336 242.167 183.785C240.851 182.053 239.276 180.534 237.457 179.212C235.453 174.057 235.663 167.307 235.874 160.772C236.181 151.282 236.499 141.47 230.056 136.067C229.784 135.839 229.374 135.871 229.141 136.145C228.909 136.417 228.945 136.825 229.219 137.055C235.179 142.054 234.885 151.126 234.575 160.73C234.381 166.74 234.193 172.925 235.694 178.042C228.237 173.537 217.139 171.921 202.076 173.12C201.718 173.149 201.452 173.461 201.481 173.817C201.509 174.173 201.827 174.442 202.18 174.409C218.052 173.141 229.377 175.028 236.545 180.153C236.548 180.155 236.55 180.156 236.553 180.158C238.329 181.43 239.86 182.892 241.13 184.564C243.507 187.695 244.994 191.524 245.618 196.104C245.618 196.111 245.616 196.119 245.615 196.126C245.608 196.219 245.622 196.307 245.65 196.389C246.856 205.847 244.382 218.512 238.144 235.126C238.018 235.461 238.189 235.833 238.525 235.958C238.6 235.986 238.677 235.998 238.753 235.998C239.015 235.998 239.264 235.838 239.362 235.578C245.68 218.75 248.17 205.858 246.919 196.152C247.888 184.782 264.581 174.461 279.837 170.512C280.185 170.423 280.393 170.069 280.302 169.724Z" fill="#4152F3"/>
<path fill-rule="evenodd" clip-rule="evenodd" d="M133.299 91.2323H227.129C233.528 86.1667 238.349 77.9186 229.997 70.3719C217.211 58.838 209.221 75.2167 208.859 75.9834C208.98 75.022 211.884 50.4469 185.758 47.2778C159.112 44.0433 162.245 70.1254 162.245 70.1254C162.245 70.1254 154.726 63.28 148.893 68.0728C143.048 72.866 149.242 78.0227 149.242 78.0227C143.048 77.1913 132.479 76.8145 129.828 82.6078C127.96 86.6733 129.31 89.4789 133.299 91.2323Z" fill="white"/>
<path fill-rule="evenodd" clip-rule="evenodd" d="M301.683 284.51C301.67 284.524 301.67 284.524 301.656 284.524C295.542 289.195 290.011 294.059 285.106 299.104C285.093 299.104 285.093 299.118 285.093 299.118C284.454 299.767 283.814 300.43 283.203 301.094C281.827 302.559 280.507 304.037 279.243 305.544L279.229 305.558C278.423 306.498 277.645 307.451 276.895 308.405C269.127 318.12 263.541 328.319 260.22 338.726V338.753C259.845 339.887 259.512 341.02 259.206 342.167V342.181C258.72 343.963 258.302 345.76 257.969 347.557C257.594 347.695 257.233 347.819 256.857 347.944C258.178 340.743 260.568 333.612 264 326.633L264.014 326.619C264.972 324.643 266.015 322.694 267.154 320.746L267.168 320.732C269.933 315.964 273.198 311.265 276.95 306.691C278.826 304.383 280.813 302.13 282.925 299.891C283.703 299.062 284.495 298.247 285.315 297.431C285.579 297.183 285.829 296.92 286.079 296.671C290.567 292.221 295.528 287.924 300.947 283.791C300.988 283.764 301.017 283.722 301.058 283.694C301.28 283.529 301.6 283.57 301.781 283.805C301.948 284.026 301.906 284.344 301.683 284.51Z" fill="#4152F3"/>
<path fill-rule="evenodd" clip-rule="evenodd" d="M285.318 297.43C287.105 285.636 292.717 271.919 304.137 262.309C304.137 262.309 301.852 281.228 285.318 297.43Z" fill="#4152F3"/>
<path fill-rule="evenodd" clip-rule="evenodd" d="M299.99 285.085C306.921 275.352 318.138 265.613 332.685 262.141C332.685 262.141 322.085 278.015 299.99 285.085Z" fill="#4152F3"/>
<path fill-rule="evenodd" clip-rule="evenodd" d="M278.255 305.766C286.166 296.803 298.34 288.275 313.171 286.326C313.171 286.326 300.97 301.018 278.255 305.766Z" fill="#4152F3"/>
<path fill-rule="evenodd" clip-rule="evenodd" d="M264.092 327.261C262.276 315.472 263.538 300.715 271.573 288.165C271.573 288.165 275.041 306.907 264.092 327.261Z" fill="#4152F3"/>
<path fill-rule="evenodd" clip-rule="evenodd" d="M258.412 342.648C263.03 331.642 271.829 319.694 285.256 313.136C285.256 313.136 278.412 330.934 258.412 342.648Z" fill="#4152F3"/>
<path fill-rule="evenodd" clip-rule="evenodd" d="M246.256 323.303C246.256 323.303 253.065 333.059 255.177 348.496C253.343 349.077 251.481 349.644 249.605 350.182C246.506 342.139 244.881 332.88 246.256 323.303Z" fill="#4152F3"/>
<path fill-rule="evenodd" clip-rule="evenodd" d="M269.642 343.245C267.683 344.047 265.71 344.82 263.709 345.553C265.46 342.25 267.613 339.085 270.212 336.127C270.212 336.127 270.295 338.85 269.642 343.245Z" fill="#4152F3"/>
<path fill-rule="evenodd" clip-rule="evenodd" d="M354.249 256.22C354.235 256.234 354.235 256.234 354.221 256.234C345.926 260.505 338.297 265.148 331.364 270.109C331.35 270.123 331.322 270.137 331.308 270.151C328.417 272.238 325.639 274.338 323.012 276.536L322.999 276.55C319.122 279.742 315.509 283.059 312.188 286.472C310.34 288.338 308.575 290.273 306.908 292.207C306.908 292.221 306.908 292.222 306.894 292.235C301.461 298.537 296.903 305.157 293.263 312.025C293.263 312.039 293.249 312.053 293.249 312.067C292.568 313.352 291.929 314.61 291.332 315.909V315.923L291.318 315.937C288.178 322.57 285.885 329.439 284.482 336.487C284.064 336.708 283.648 336.915 283.231 337.122C283.175 337.15 283.12 337.178 283.064 337.205C283.398 335.423 283.786 333.667 284.231 331.926C287.219 320.179 292.652 308.916 300.35 298.427C300.35 298.427 300.35 298.413 300.363 298.413C301.128 297.376 301.906 296.353 302.725 295.331V295.317C303.587 294.239 304.462 293.161 305.366 292.097C305.366 292.097 305.366 292.083 305.379 292.097C305.379 292.083 305.394 292.07 305.407 292.056C306.908 290.287 308.464 288.545 310.118 286.832L310.132 286.818C316.426 280.184 323.735 273.951 331.989 268.161C332.17 268.036 332.35 267.912 332.531 267.788C332.712 267.663 332.892 267.539 333.073 267.415C339.34 263.075 346.162 259.012 353.498 255.225C353.498 255.225 353.512 255.212 353.526 255.212C353.582 255.184 353.624 255.156 353.679 255.128C353.985 254.963 354.36 255.101 354.527 255.405C354.68 255.695 354.555 256.068 354.249 256.22Z" fill="#4152F3"/>
<path fill-rule="evenodd" clip-rule="evenodd" d="M331.994 268.156C336.645 254.486 346.264 239.332 361.923 230.301C361.923 230.301 355.154 252.355 331.994 268.156Z" fill="#4152F3"/>
<path fill-rule="evenodd" clip-rule="evenodd" d="M366.546 245.455C365.504 248.426 364.364 251.369 363.114 254.286C360.321 255.073 357.348 255.737 354.221 256.234C353.526 256.358 352.817 256.455 352.109 256.552C352.554 256.11 353.026 255.667 353.498 255.225C353.498 255.225 353.513 255.211 353.526 255.211C357.292 251.701 361.669 248.343 366.546 245.455Z" fill="#4152F3"/>
<path fill-rule="evenodd" clip-rule="evenodd" d="M360.099 260.961C359.016 263.213 357.862 265.452 356.653 267.663L356.639 267.677C348.914 271.616 337.366 275.9 323.013 276.536C322.61 276.563 322.207 276.577 321.804 276.591C324.667 274.311 327.863 272.127 331.308 270.151C331.323 270.137 331.35 270.123 331.364 270.109C339.645 265.369 349.469 261.804 360.099 260.961Z" fill="#4152F3"/>
<path fill-rule="evenodd" clip-rule="evenodd" d="M300.331 299.2C300.689 284.773 305.349 267.462 317.604 254.213C317.604 254.213 317.727 277.27 300.331 299.2Z" fill="#4152F3"/>
<path fill-rule="evenodd" clip-rule="evenodd" d="M290.275 316.328C298.13 304.194 311.167 291.824 328.565 286.853C328.565 286.853 316.605 306.606 290.275 316.328Z" fill="#4152F3"/>
<path fill-rule="evenodd" clip-rule="evenodd" d="M284.232 331.926C283.968 333.626 283.635 335.354 283.231 337.123C283.176 337.15 283.121 337.178 283.064 337.205C282.828 337.33 282.578 337.454 282.328 337.565C280.73 333.612 279.383 329.287 278.424 324.74C277.951 322.529 277.576 320.276 277.326 317.968C276.965 314.845 276.812 311.653 276.896 308.405C276.909 307.838 276.923 307.271 276.951 306.691V306.677C277.242 301.398 278.174 296.036 279.938 290.715C279.938 290.715 281.495 294.087 282.926 299.892C282.995 300.182 283.064 300.486 283.148 300.804C283.162 300.9 283.19 300.997 283.204 301.094C283.44 302.103 283.662 303.181 283.885 304.328C284.371 306.981 284.788 309.98 285.038 313.242C285.038 313.366 285.052 313.504 285.052 313.629V313.642C285.427 319.088 285.302 325.251 284.232 331.926Z" fill="#4152F3"/>
<path fill-rule="evenodd" clip-rule="evenodd" d="M305.727 311.058C305.727 311.058 304.699 318.01 300.322 327.435H300.308C296.181 330.102 291.887 332.603 287.427 334.953C291.401 326.205 297.362 317.733 305.727 311.058Z" fill="#4152F3"/>
<path fill-rule="evenodd" clip-rule="evenodd" d="M47.7046 359.546C42.9738 359.223 38.2172 358.874 33.4475 358.499C32.0311 358.383 30.6015 358.267 29.1717 358.15C26.0528 357.891 22.9205 357.633 19.7885 357.362C19.0345 357.297 18.2939 357.232 17.5403 357.168C16.9291 357.103 16.3055 357.051 15.6943 357C15.7466 356.444 15.7855 355.862 15.8375 355.268C15.8895 354.582 15.9414 353.871 15.9937 353.135C16.0068 353.044 16.0195 352.966 16.0195 352.876C16.0584 352.437 16.0842 351.997 16.1235 351.545C16.2143 350.33 16.3055 349.076 16.3964 347.783C16.7601 342.471 17.1373 336.473 17.4622 330.101C17.553 328.433 17.6308 326.753 17.7089 325.047C18.1769 314.602 18.4625 303.421 18.3197 292.783C18.242 285.893 17.9949 279.224 17.501 273.136C16.7993 264.591 16.6823 254.923 16.8644 244.841C16.8902 243.458 16.9164 242.074 16.9549 240.678C16.9814 239.45 17.0203 238.209 17.0592 236.955V236.942C17.1373 234.306 17.2412 231.669 17.3579 229.006V228.993C17.4102 227.7 17.4622 226.408 17.5141 225.115C17.5272 224.896 17.5403 224.676 17.553 224.469V224.456C17.7478 220.139 17.9691 215.834 18.1897 211.582C18.6449 202.87 19.1257 194.403 19.4506 186.596V186.583C19.4767 185.924 19.5156 185.277 19.5414 184.631V184.618C20.0356 172.17 20.1003 161.597 19.0479 154.759C17.6439 145.62 19.6715 125.119 22.0756 103.882C22.1279 103.404 22.1799 102.938 22.2315 102.46C22.2449 102.318 22.2707 102.176 22.2838 102.033C22.2969 101.93 22.3096 101.827 22.3096 101.736C22.4139 100.844 22.5178 99.9524 22.6214 99.0604C22.7776 97.7294 22.9205 96.4106 23.0767 95.0921C23.0894 95.0791 23.0767 95.0791 23.0767 95.0791C23.8692 88.1382 24.6621 81.2873 25.338 74.8628C25.4419 73.9195 25.5328 72.9886 25.624 72.0709V72.0579C26.5074 63.4751 27.1313 55.8359 27.2356 50.058C31.901 49.3728 36.5409 48.6879 41.1417 48.0027C41.1806 49.5409 41.1933 51.1567 41.1933 52.8113C41.1933 52.8113 41.2064 52.8113 41.1933 52.8239C41.1933 53.3024 41.1933 53.7806 41.1805 54.2717C41.1933 54.5045 41.1805 54.7372 41.1805 54.9696C41.1805 55.7196 41.1675 56.4691 41.1544 57.2317V57.5422C41.1286 58.4471 41.1155 59.3648 41.0894 60.2824V60.2954C40.6606 75.5094 38.9839 92.6233 35.8651 101.995C34.2535 106.842 33.8116 113.202 33.9675 120.298V120.311C33.9933 121.203 34.0195 122.095 34.0587 123.013V123.025C34.6172 136.236 36.9174 151.553 37.4763 164.311C37.5155 165.087 37.5413 165.849 37.5675 166.612C37.6845 171.201 37.5413 175.402 36.9697 178.982C35.3062 189.271 35.5664 208.854 36.7746 228.101C37.8924 245.978 39.8157 263.583 41.7652 273.226C43.6759 282.688 45.2224 305.825 46.3271 327.567C46.613 333.435 46.8859 339.201 47.12 344.578C47.3536 350.084 47.5487 355.19 47.7046 359.546Z" fill="#C0D2FF"/>
<path fill-rule="evenodd" clip-rule="evenodd" d="M43.806 145.749C43.8191 146.021 43.8322 146.305 43.8322 146.59C43.8841 148.606 43.7279 150.674 43.3256 152.807C42.3507 158.016 40.2714 162.528 37.5679 166.612C33.864 172.235 29.0031 177.043 24.2468 181.761C22.6091 183.377 20.9975 184.98 19.4513 186.583V186.596C15.63 190.564 12.2771 194.558 10.0805 199.082C6.61062 206.243 9.52165 216.054 13.3295 226.641C13.6805 227.61 14.0446 228.593 14.3953 229.575C14.4342 229.678 14.4865 229.795 14.5254 229.911C14.5773 230.053 14.6293 230.195 14.6813 230.338C14.7201 230.441 14.7594 230.557 14.7983 230.661C15.5653 232.742 16.3317 234.849 17.0596 236.943V236.956C17.8136 239.114 18.5411 241.286 19.165 243.432C21.1406 250.114 22.3231 256.642 21.3612 262.575L20.0876 262.368C20.9848 256.771 19.8928 250.541 18.0341 244.142C17.6966 242.992 17.3325 241.842 16.9556 240.678C15.916 237.486 14.7463 234.28 13.5766 231.1C9.0409 218.73 4.76503 207.058 8.91116 198.526C9.19679 197.932 9.50892 197.35 9.8207 196.782C9.87301 196.704 9.91156 196.627 9.96352 196.549C10.0289 196.419 10.1067 196.303 10.1717 196.174C10.8734 194.985 11.6529 193.821 12.4977 192.684C12.4977 192.684 12.5111 192.684 12.4977 192.671C14.5384 189.892 16.9556 187.268 19.5418 184.631V184.618C20.7766 183.364 22.0502 182.11 23.3235 180.844C28.4838 175.738 33.7473 170.529 37.4767 164.311C39.6083 160.769 41.2329 156.904 42.0516 152.561C42.4546 150.39 42.6105 148.296 42.5327 146.228C42.5196 145.982 42.5065 145.724 42.4935 145.465C42.4935 145.4 42.4804 145.336 42.4804 145.271C42.3768 143.681 42.1297 142.117 41.7914 140.579C40.4531 134.542 37.464 128.816 34.0591 123.025V123.013C33.2012 121.552 32.3174 120.091 31.4337 118.618C28.6393 113.977 25.7803 109.246 23.3889 104.14C23.2977 103.947 23.2072 103.74 23.116 103.546C22.947 103.197 22.7911 102.835 22.6349 102.486C22.5313 102.228 22.4143 101.982 22.31 101.736C21.4652 99.7584 20.7119 97.7294 20.0618 95.635C19.1911 92.8301 18.944 90.1159 19.1781 87.492C19.6588 82.0759 22.2061 76.9829 25.6244 72.0709V72.0579C28.2625 68.2837 31.3948 64.6128 34.5006 60.9806C36.8531 58.2144 39.1795 55.4998 41.1937 52.8239C41.2068 52.8113 41.1937 52.8113 41.1937 52.8113C42.5585 51.0144 43.7933 49.2308 44.8198 47.4599C45.3656 47.3692 45.8983 47.2918 46.4314 47.2141C45.3656 49.1918 44.0531 51.1694 42.5843 53.1474C42.1297 53.7549 41.662 54.3625 41.1809 54.9697C40.3361 56.0427 39.4524 57.1287 38.5425 58.2144C38.4127 58.3694 38.2826 58.5245 38.1526 58.6795C38.0228 58.8219 37.9058 58.977 37.7761 59.1194C37.0221 60.011 36.2554 60.9029 35.4886 61.8079C31.8494 66.0733 28.1586 70.4034 25.3384 74.8632C22.427 79.4777 20.439 84.2473 20.3994 89.2626C20.3866 91.2146 20.6595 93.2179 21.2965 95.2602C21.6995 96.553 22.1414 97.8197 22.6218 99.0605C23.116 100.327 23.636 101.568 24.1948 102.796C26.6251 108.148 29.6273 113.098 32.5514 117.946C33.0319 118.734 33.5002 119.523 33.9679 120.298V120.311C38.3477 127.614 42.2856 134.724 43.4815 142.479C43.6243 143.423 43.7279 144.366 43.7802 145.323C43.7933 145.465 43.806 145.607 43.806 145.749Z" fill="#9FC3FC"/>
<mask id="mask2" mask-type="alpha" maskUnits="userSpaceOnUse" x="0" y="325" width="99" height="37">
<path d="M0.000488281 325.776H98.9643V361.795H0.000488281V325.776Z" fill="white"/>
</mask>
<g mask="url(#mask2)">
<path fill-rule="evenodd" clip-rule="evenodd" d="M94.8306 361.795C79.3779 361.42 63.6393 360.632 47.7059 359.546C42.9747 359.223 38.2181 358.874 33.4488 358.499C32.0323 358.383 30.6024 358.266 29.1729 358.15C26.054 357.892 22.9217 357.633 19.7894 357.362C19.0358 357.297 18.2952 357.232 17.5412 357.168C16.9304 357.103 16.3064 357.052 15.6956 357C15.293 356.961 14.8769 356.922 14.4739 356.883C9.01562 356.392 3.53115 355.862 -1.95331 355.319C-12.7663 354.246 -23.6052 353.07 -34.444 351.829C-37.9012 348.029 -38.3565 344.397 -32.2997 343.078C-32.2997 343.078 -35.016 334.47 -23.4362 332.22C-21.6168 331.871 -19.5244 332.156 -17.2631 332.931C-11.8957 334.741 -5.5144 339.291 0.567822 344.526V344.539C0.749866 344.681 0.931911 344.836 1.10088 344.991C1.10088 344.991 1.10088 345.004 1.11396 345.004C5.33751 348.688 9.41859 352.669 12.9016 356.276C13.0317 356.121 13.1745 355.953 13.3173 355.798C13.7722 355.268 14.2664 354.725 14.7857 354.169C15.1367 353.794 15.5005 353.406 15.8904 353.018C15.9165 352.967 15.9685 352.915 16.0205 352.876C16.1505 352.734 16.2806 352.605 16.4365 352.462C16.7745 352.101 17.1513 351.726 17.5281 351.364C22.9086 346.051 29.8099 340.325 35.5022 335.827C41.6106 330.993 46.3283 327.567 46.3283 327.567C50.565 323.87 53.2162 326.494 55.4644 330.036C58.064 334.082 60.1432 339.33 63.5092 337.649C69.8127 334.496 79.0919 333.475 79.2867 339.938C79.4815 346.4 87.4097 344.823 92.8941 349.231C96.6242 352.217 103.369 357.09 94.8306 361.795Z" fill="#4152F3"/>
</g>
<path fill-rule="evenodd" clip-rule="evenodd" d="M45.2761 217.696C45.2371 217.748 45.185 217.839 45.0808 217.981C45.1719 217.851 45.2371 217.748 45.2761 217.696Z" fill="#C0D2FF"/>
<mask id="mask3" mask-type="alpha" maskUnits="userSpaceOnUse" x="0" y="217" width="59" height="142">
<path d="M0.000488281 217.98H58.6746V358.499H0.000488281V217.98Z" fill="white"/>
</mask>
<g mask="url(#mask3)">
<path fill-rule="evenodd" clip-rule="evenodd" d="M55.4653 330.036C53.6327 335.142 50.9165 340.041 47.1217 344.578C45.0941 347.008 42.7681 349.335 40.0904 351.532C37.7382 354.363 35.555 356.728 33.4493 358.499C32.0328 358.383 30.6033 358.266 29.1738 358.15C26.0545 357.892 22.9226 357.633 19.7903 357.362C19.0366 357.297 18.2957 357.232 17.542 357.168C16.9309 357.103 16.3073 357.052 15.6961 357C15.2938 356.961 14.8778 356.922 14.4748 356.883C14.0979 356.547 13.708 356.185 13.3178 355.798C10.9526 353.497 8.39255 350.511 5.52007 346.775C4.87034 345.909 4.18173 344.991 3.49277 344.035C2.36195 342.497 1.19258 340.842 -0.0294361 339.084C-11.5311 322.423 -10.3872 297.437 -4.17522 277.324C0.529437 262.045 8.14546 249.571 15.3712 245.681C15.8785 245.409 16.372 245.125 16.8662 244.84C17.2561 244.621 17.646 244.388 18.0355 244.143C18.4127 243.91 18.7895 243.677 19.1664 243.432C26.0676 238.985 32.1887 233.117 36.7764 228.101C41.2474 223.228 44.2365 219.144 45.081 217.98C43.4305 220.566 33.3326 237.873 44.4832 259.77C53.5808 277.673 64.0948 306.149 55.4653 330.036Z" fill="#9FC3FC"/>
</g>
<mask id="mask4" mask-type="alpha" maskUnits="userSpaceOnUse" x="0" y="265" width="36" height="94">
<path d="M0.000488281 265.858H35.6159V358.15H0.000488281V265.858Z" fill="white"/>
</mask>
<g mask="url(#mask4)">
<path fill-rule="evenodd" clip-rule="evenodd" d="M35.5026 335.827C35.3856 337.404 35.1516 338.981 34.801 340.532C32.9684 348.585 31.1621 354.285 29.1733 358.15C26.0544 357.891 22.9221 357.633 19.7902 357.362C19.0362 357.297 18.2956 357.232 17.5419 357.168C16.9308 357.103 16.3072 357.052 15.696 357C15.2934 356.961 14.8773 356.922 14.4747 356.883C9.01603 356.392 3.53191 355.862 -1.9529 355.319C-9.71174 349.683 -14.4684 341.656 -17.2624 332.931C-21.2912 320.368 -21.2784 306.356 -20.3424 295.95C-18.6014 276.638 -31.3244 267.034 -32.9749 265.858C-31.2855 266.931 -17.7043 275.462 -4.17531 277.324C-3.91515 277.362 -3.65533 277.401 -3.39551 277.427C2.53082 278.125 10.8747 284.11 18.3214 292.783C28.3158 304.417 36.6985 320.859 35.5026 335.827Z" fill="white"/>
</g>
<mask id="mask5" mask-type="alpha" maskUnits="userSpaceOnUse" x="0" y="285" width="21" height="73">
<path d="M0.000488281 285.868H20.6554V357.362H0.000488281V285.868Z" fill="white"/>
</mask>
<g mask="url(#mask5)">
<path fill-rule="evenodd" clip-rule="evenodd" d="M15.592 344.901C15.592 344.94 15.5662 344.992 15.5662 345.03C15.8391 345.948 16.1119 346.878 16.3979 347.783C16.7613 348.986 17.1385 350.175 17.5284 351.364C18.1912 353.329 18.8932 355.268 19.6727 357.194C19.6858 357.22 19.6858 357.22 19.725 357.258C19.7508 357.284 19.7766 357.323 19.7897 357.362C19.0361 357.297 18.2951 357.232 17.5415 357.168C16.9695 356.496 16.3979 355.862 15.8391 355.268C15.475 354.893 15.137 354.518 14.786 354.169C11.0043 350.304 7.83312 348.055 5.51951 346.775C2.8036 345.25 1.25706 345.043 1.21783 345.03C1.17895 345.03 1.14006 345.018 1.11425 345.005C1.10117 345.005 1.10117 344.992 1.10117 344.992C0.854084 344.94 0.65896 344.759 0.568109 344.539V344.526C0.528877 344.41 0.503067 344.281 0.516145 344.151C0.555376 343.724 0.944935 343.414 1.38715 343.453C1.47765 343.466 2.21892 343.557 3.49221 344.035C5.89668 344.94 10.2507 347.241 15.8907 353.019C15.9296 353.057 15.9561 353.096 15.9949 353.135C16.3456 353.484 16.6966 353.846 17.0473 354.234C16.8394 353.639 16.6316 353.057 16.4368 352.463C16.3325 352.153 16.229 351.842 16.125 351.545C15.4619 349.529 14.8514 347.512 14.2794 345.47C14.1101 345.328 13.9931 345.108 14.0065 344.875C13.9931 344.759 14.0065 344.668 14.0196 344.552C13.0836 341.243 12.2518 337.921 11.4331 334.586C11.0043 332.815 10.5755 331.018 10.1467 329.221C8.58712 322.759 7.05331 316.308 5.32473 309.884C3.12846 301.702 0.568109 293.572 -3.0188 285.868C0.906048 293.417 3.60956 301.534 6.06565 309.677C8.05405 316.464 9.78264 323.34 11.5501 330.204C11.9008 331.561 12.2649 332.931 12.6159 334.302C13.1225 336.24 13.6683 338.192 14.1755 340.131C14.3834 337.145 14.7344 334.611 15.189 332.492C15.9296 329.002 16.8914 326.597 17.7101 325.047C18.5419 323.431 19.205 322.72 19.2831 322.643C19.5949 322.332 20.1015 322.319 20.4136 322.643C20.7254 322.927 20.7385 323.431 20.4398 323.754C20.4136 323.78 18.8151 325.512 17.4634 330.101C17.1774 331.057 16.9045 332.143 16.6577 333.358C16.0466 336.331 15.605 340.144 15.592 344.901Z" fill="#C0D2FF"/>
</g>
<path fill-rule="evenodd" clip-rule="evenodd" d="M58.2054 138.718C54.7179 142.652 49.9324 145.422 44.7804 146.515C44.2704 146.615 43.6812 146.685 43.2737 146.402C43.2173 146.363 43.1571 146.314 43.1044 146.249C43.0934 146.233 43.0745 146.214 43.0635 146.199C42.7978 145.827 42.8484 145.302 42.9365 144.853C43.9173 139.452 46.7061 134.393 50.7569 130.66C54.8005 126.924 60.0874 124.533 65.576 123.954C65.1245 129.179 61.7 134.788 58.2054 138.718Z" fill="white"/>
<path fill-rule="evenodd" clip-rule="evenodd" d="M57.2437 131.975C57.232 131.997 57.1594 132.065 57.0214 132.203C56.8297 132.371 56.5998 132.577 56.3235 132.834C55.7147 133.368 54.8413 134.156 53.7793 135.143C51.656 137.116 48.81 139.935 45.9021 143.263C44.9688 144.334 44.0923 145.386 43.2733 146.401C43.2168 146.363 43.1566 146.314 43.1039 146.249C43.0929 146.234 43.074 146.214 43.063 146.199C43.882 145.184 44.7544 144.139 45.6763 143.072C48.5994 139.732 51.4753 136.929 53.6403 134.987C54.7209 134.019 55.6136 133.25 56.2488 132.739C56.5434 132.501 56.7846 132.31 56.9798 132.154C57.1484 132.031 57.2399 131.964 57.2437 131.975Z" fill="#C0D2FF"/>
<path fill-rule="evenodd" clip-rule="evenodd" d="M19.3952 87.7935C22.5251 92.0147 24.2355 97.2522 24.2211 102.492C24.2124 103.009 24.1567 103.596 23.7915 103.932C23.7423 103.979 23.6807 104.027 23.6057 104.064C23.5888 104.072 23.5658 104.086 23.5482 104.094C23.126 104.274 22.6215 104.113 22.1992 103.933C17.0978 101.838 12.7152 98.0586 9.90297 93.3318C7.08555 88.6119 5.8532 82.9671 6.44305 77.5089C11.4836 79.0515 16.2712 83.5654 19.3952 87.7935Z" fill="white"/>
<path fill-rule="evenodd" clip-rule="evenodd" d="M12.5649 87.3032C12.5848 87.3193 12.6354 87.4042 12.7421 87.5675C12.8667 87.7892 13.0198 88.0562 13.2153 88.379C13.611 89.0841 14.2012 90.0999 14.9463 91.3403C16.4364 93.8215 18.6054 97.1836 21.2618 100.713C22.1173 101.847 22.9663 102.921 23.7909 103.932C23.7416 103.979 23.68 104.027 23.605 104.065C23.5878 104.072 23.5651 104.087 23.5476 104.094C22.7233 103.083 21.8802 102.014 21.0264 100.893C18.3625 97.3455 16.2144 93.9573 14.7635 91.4423C14.0409 90.1876 13.4737 89.1573 13.1055 88.4317C12.9331 88.0949 12.7975 87.8204 12.6846 87.5972C12.5996 87.408 12.5528 87.3042 12.5649 87.3032Z" fill="#C0D2FF"/>
<path fill-rule="evenodd" clip-rule="evenodd" d="M13.2603 180.32C14.28 185.466 13.58 190.928 11.3191 195.661C11.0892 196.124 10.7867 196.632 10.3128 196.781C10.2478 196.802 10.1714 196.82 10.0877 196.822C10.0688 196.822 10.042 196.825 10.0234 196.824C9.56397 196.808 9.17648 196.449 8.87192 196.106C5.15699 192.047 2.81482 186.768 2.2993 181.3C1.77656 175.836 3.08358 170.208 5.95882 165.521C9.85511 169.056 12.2489 175.17 13.2603 180.32Z" fill="white"/>
<path fill-rule="evenodd" clip-rule="evenodd" d="M7.29548 176.978C7.30615 177.001 7.31579 177.099 7.34229 177.292C7.35984 177.546 7.38427 177.852 7.42178 178.227C7.47753 179.032 7.57526 180.201 7.71705 181.639C8.00061 184.516 8.51991 188.477 9.40778 192.797C9.69478 194.185 10.0018 195.517 10.3139 196.781C10.2492 196.802 10.1728 196.82 10.0892 196.822C10.0702 196.822 10.0434 196.825 10.0248 196.824C9.71234 195.56 9.40915 194.236 9.11802 192.859C8.23015 188.52 7.74148 184.545 7.50781 181.654C7.39287 180.213 7.32198 179.04 7.30064 178.228C7.28894 177.85 7.28413 177.544 7.27759 177.295C7.28172 177.087 7.28413 176.974 7.29548 176.978Z" fill="#C0D2FF"/>
<path fill-rule="evenodd" clip-rule="evenodd" d="M16.8266 213.678C14.12 218.18 12.9238 223.556 13.4455 228.77C13.5043 229.284 13.6169 229.863 14.0123 230.163C14.0663 230.205 14.132 230.247 14.2098 230.277C14.2281 230.283 14.2521 230.295 14.27 230.301C14.7081 230.439 15.1947 230.231 15.5974 230.012C20.4727 227.438 24.4691 223.257 26.811 218.283C29.1583 213.315 29.839 207.578 28.7237 202.202C23.8562 204.22 19.5274 209.171 16.8266 213.678Z" fill="white"/>
<path fill-rule="evenodd" clip-rule="evenodd" d="M23.5761 212.537C23.5578 212.554 23.5159 212.644 23.4254 212.817C23.3228 213.05 23.1962 213.33 23.033 213.67C22.7072 214.409 22.2181 215.477 21.5963 216.783C20.3533 219.395 18.5197 222.949 16.2168 226.717C15.4755 227.928 14.7343 229.078 14.0112 230.163C14.0649 230.205 14.131 230.247 14.2088 230.277C14.227 230.283 14.2507 230.295 14.269 230.301C14.992 229.216 15.7271 228.071 16.4687 226.873C18.7775 223.087 20.5869 219.509 21.7887 216.867C22.3861 215.549 22.851 214.469 23.147 213.712C23.286 213.36 23.3947 213.074 23.4852 212.841C23.552 212.644 23.5881 212.537 23.5761 212.537Z" fill="#C0D2FF"/>
<path fill-rule="evenodd" clip-rule="evenodd" d="M54.4146 59.4854C49.4336 61.2091 43.8975 61.2837 38.87 59.7188C38.3762 59.5576 37.8287 59.3303 37.614 58.8847C37.5833 58.8234 37.5558 58.7509 37.5417 58.6687C37.5396 58.6499 37.5324 58.6242 37.5303 58.6054C37.4828 58.1509 37.786 57.7189 38.0844 57.3712C41.6063 53.1451 46.5336 50.1003 51.9055 48.8281C57.2726 47.5487 63.0582 48.0487 68.1259 50.2252C65.1519 54.5567 59.3994 57.7689 54.4146 59.4854Z" fill="white"/>
<path fill-rule="evenodd" clip-rule="evenodd" d="M56.9084 53.1422C56.8871 53.1562 56.7904 53.1792 56.6018 53.2322C56.3519 53.2849 56.0505 53.3517 55.6822 53.4417C54.8883 53.6091 53.7382 53.8688 52.3263 54.2094C49.5023 54.8905 45.6311 55.956 41.4547 57.435C40.1126 57.9118 38.8297 58.4002 37.6152 58.8845C37.5846 58.8236 37.5571 58.751 37.543 58.6689C37.5409 58.65 37.5337 58.6244 37.5312 58.6055C38.7464 58.1212 40.0224 57.6373 41.3522 57.1581C45.5475 55.6771 49.4373 54.6396 52.2826 54.0054C53.7011 53.6909 54.8584 53.4567 55.6644 53.3219C56.0391 53.2579 56.3426 53.21 56.5901 53.1689C56.7976 53.1439 56.9108 53.1306 56.9084 53.1422Z" fill="#C0D2FF"/>
<path fill-rule="evenodd" clip-rule="evenodd" d="M41.7239 140.493C42.8478 142.018 43.4586 143.908 43.448 145.797C43.4442 145.983 43.4232 146.195 43.2917 146.315C43.2735 146.332 43.2511 146.35 43.2243 146.363C43.2181 146.366 43.2098 146.371 43.2036 146.373C43.0512 146.438 42.8695 146.38 42.7174 146.314C40.8807 145.554 39.3049 144.187 38.2959 142.479C37.2856 140.775 36.8471 138.739 37.0657 136.772C38.8806 137.333 40.602 138.966 41.7239 140.493Z" fill="white"/>
<path fill-rule="evenodd" clip-rule="evenodd" d="M39.2619 140.309C39.2691 140.315 39.2873 140.345 39.3259 140.405C39.3703 140.485 39.4253 140.581 39.4952 140.698C39.6373 140.952 39.8489 141.319 40.116 141.767C40.6504 142.663 41.4292 143.877 42.3828 145.153C42.6901 145.562 42.995 145.95 43.2913 146.315C43.2731 146.332 43.2511 146.349 43.2242 146.363C43.2177 146.366 43.2098 146.371 43.2032 146.373C42.9073 146.008 42.6048 145.622 42.2978 145.217C41.3411 143.935 40.5706 142.712 40.0499 141.803C39.7911 141.35 39.5874 140.979 39.4556 140.716C39.394 140.595 39.3451 140.496 39.3049 140.415C39.2742 140.347 39.2577 140.309 39.2619 140.309Z" fill="#C0D2FF"/>
</svg>
