<svg width="30" height="29" viewBox="0 0 30 29" fill="none" xmlns="http://www.w3.org/2000/svg">
  <path fill-rule="evenodd" clip-rule="evenodd" d="M29.8111 14.661C29.6786 6.572 23.0258 0 14.9064 0C6.70501 0 0 6.70501 0 14.9064V18.9195V21.7863V26.3727C0 26.981 0.241614 27.5643 0.671689 27.9943C1.10176 28.4244 1.68507 28.666 2.29329 28.666H6.87987C7.7922 28.666 8.66716 28.3036 9.31227 27.6585C9.95739 27.0134 10.3198 26.1384 10.3198 25.2261V20.0662C10.3198 19.1539 9.95739 18.2789 9.31227 17.6338C8.66716 16.9887 7.7922 16.6262 6.87987 16.6262H2.29329L2.29329 14.9064L2.29501 14.6989C2.40681 7.85854 8.04143 2.29329 14.9064 2.29329C21.8407 2.29329 27.5195 7.97205 27.5195 14.9064L27.5195 16.6262H22.9329C22.0206 16.6262 21.1456 16.9887 20.5005 17.6338C19.8554 18.2789 19.493 19.1539 19.493 20.0662V25.2261C19.493 26.1384 19.8554 27.0134 20.5005 27.6585C21.1456 28.3036 22.0206 28.666 22.9329 28.666H27.5195C28.1277 28.666 28.711 28.4244 29.1411 27.9943C29.5712 27.5643 29.8128 26.981 29.8128 26.3727V21.7973C29.8128 21.7936 29.8128 21.79 29.8128 21.7863V14.9064L29.8111 14.661ZM2.29329 18.9195L2.29329 21.7863C2.29331 21.7897 2.29331 21.7932 2.29329 21.7966V26.3727H6.87987C7.18398 26.3727 7.47564 26.2519 7.69067 26.0369C7.90571 25.8219 8.02652 25.5302 8.02652 25.2261V20.0662C8.02652 19.9156 7.99686 19.7665 7.93924 19.6274C7.88161 19.4883 7.79715 19.3619 7.69067 19.2554C7.5842 19.1489 7.45779 19.0644 7.31868 19.0068C7.17956 18.9492 7.03045 18.9195 6.87987 18.9195H2.29329ZM27.5195 18.9195H22.9329C22.7823 18.9195 22.6332 18.9492 22.4941 19.0068C22.355 19.0644 22.2286 19.1489 22.1221 19.2554C22.0156 19.3619 21.9312 19.4883 21.8735 19.6274C21.8159 19.7665 21.7863 19.9156 21.7863 20.0662V25.2261C21.7863 25.5302 21.9071 25.8219 22.1221 26.0369C22.3371 26.2519 22.6288 26.3727 22.9329 26.3727H27.5195V18.9195Z" fill="#5065E5"/>
  </svg>
