<svg width="20" height="20" viewBox="0 0 20 20" fill="none" xmlns="http://www.w3.org/2000/svg">
<path fill-rule="evenodd" clip-rule="evenodd" d="M20 1.33333C20 0.596954 19.403 0 18.6667 0L5.66667 0C4.93029 0 4.33333 0.596954 4.33333 1.33333L4.33333 4.33333L1.33333 4.33333C0.596954 4.33333 0 4.93029 0 5.66667L0 18.6667C0 19.403 0.596954 20 1.33333 20L14.3333 20C15.0697 20 15.6667 19.403 15.6667 18.6667L15.6667 15.6667L18.6667 15.6667C19.403 15.6667 20 15.0697 20 14.3333L20 1.33333ZM15.6667 13.6667L18 13.6667L18 2L6.33333 2L6.33333 4.33333L14.3333 4.33333C15.0697 4.33333 15.6667 4.93029 15.6667 5.66667V13.6667ZM13.6667 6.33333L2 6.33333L2 18L13.6667 18L13.6667 6.33333Z" fill="black" fill-opacity="0.8"/>
</svg>
