<svg width="16" height="16" viewBox="0 0 16 16" fill="none" xmlns="http://www.w3.org/2000/svg">
<path d="M11.9896 9.67095C12.0046 9.92046 12.2651 10.0888 12.4769 9.95592C13.7923 9.13063 14.6668 7.66744 14.6668 5.99998C14.6668 3.42265 12.5775 1.33331 10.0002 1.33331C8.3327 1.33331 6.8695 2.20785 6.04421 3.52327C5.91137 3.73501 6.07967 3.99552 6.32918 4.01052C9.31307 4.1899 11.8102 6.68964 11.9896 9.67095Z" fill="#5065E5"/>
<path d="M10.6668 9.99998C10.6668 12.5773 8.57749 14.6666 6.00016 14.6666C3.42283 14.6666 1.3335 12.5773 1.3335 9.99998C1.3335 7.42265 3.42283 5.33331 6.00016 5.33331C8.57749 5.33331 10.6668 7.42265 10.6668 9.99998Z" fill="#5065E5"/>
</svg>
