<svg width="168" height="184" viewBox="0 0 168 184" fill="none" xmlns="http://www.w3.org/2000/svg">
<mask id="mask0" mask-type="alpha" maskUnits="userSpaceOnUse" x="0" y="0" width="168" height="184">
<rect width="168" height="184" rx="25" fill="#7CD7F5"/>
</mask>
<g mask="url(#mask0)">
<rect width="168" height="184" rx="25" fill="#7CD7F5"/>
<path d="M125.253 139.273C126.562 139.918 127.911 140.474 129.15 141.212C135.241 144.819 139.015 150.109 140.361 157.074C140.646 158.573 140.752 160.118 140.757 161.641C140.791 171.226 140.772 180.811 140.772 190.395V191.044C125.244 193.653 109.773 193.649 94.2795 191.05C94.2686 190.871 94.2555 190.756 94.2555 190.635C94.2555 180.732 94.197 170.832 94.2823 160.927C94.362 151.452 100.26 143.087 109.093 139.644C109.326 139.555 109.559 139.459 109.882 139.325C104.947 136.988 101.5 133.38 99.6642 128.316C98.225 124.347 98.1852 120.312 99.4238 116.293C101.847 108.416 109.185 103.046 117.49 103C125.743 102.955 133.24 108.459 135.618 116.357C136.998 120.941 136.747 125.452 134.754 129.813C132.772 134.154 129.538 137.277 125.253 139.273ZM145.167 183.561V182.751C145.167 175.778 145.165 168.8 145.167 161.832C145.17 157.902 144.485 154.113 142.928 150.496C142.872 150.367 142.824 150.236 142.764 150.105C142.168 148.807 142.155 148.794 143.22 147.876C144.415 146.84 145.769 146.037 147.211 145.398C147.59 145.232 147.978 145.085 148.49 144.876C145.036 143.225 142.583 140.755 141.22 137.293C139.849 133.822 139.9 130.325 141.313 126.879C143.621 121.252 149.426 117.851 155.559 118.472C161.442 119.071 166.403 123.572 167.591 129.472C168.819 135.556 165.895 141.903 159.655 144.855C159.906 144.965 160.082 145.048 160.268 145.131C166.395 147.782 169.986 152.382 170.876 159.025C170.972 159.741 170.992 160.457 170.994 161.175C171.002 168.092 171 175.003 171 181.917V182.538C162.434 183.987 153.874 184.346 145.167 183.561ZM75.3433 144.884C67.7256 141.293 66.0591 133.252 67.8305 127.967C69.8013 122.078 75.1729 118.337 81.0897 118.404C87.7906 118.479 92.8862 123.074 94.3489 128.749C95.9488 134.935 93.1294 141.815 86.5864 144.871C86.8563 144.991 87.0596 145.09 87.271 145.173C89.197 145.936 90.9149 147.03 92.4524 148.418C92.76 148.697 92.8693 148.903 92.6633 149.315C90.716 153.235 89.868 157.412 89.8713 161.778C89.8762 168.77 89.8713 175.768 89.8713 182.76V183.56C81.1826 184.349 72.607 183.987 64.026 182.536V181.917C64.026 174.979 63.9566 168.043 64.0446 161.115C64.1413 153.863 67.554 148.641 74.0544 145.436C74.4587 145.232 74.8838 145.079 75.3433 144.884Z" fill="white" fill-opacity="0.3"/>
</g>
</svg>
