<svg width="63" height="53" viewBox="0 0 63 53" fill="none" xmlns="http://www.w3.org/2000/svg">
<path d="M35.8565 21.3606C36.6232 21.7404 37.4129 22.068 38.1377 22.5029C41.7033 24.6268 43.9129 27.7421 44.7006 31.8436C44.8673 32.7262 44.9293 33.6364 44.9325 34.5331C44.9527 40.1773 44.9412 45.8218 44.9412 51.466V51.8484C35.8517 53.3846 26.7949 53.382 17.7252 51.8516C17.7188 51.7463 17.7112 51.6788 17.7112 51.6073C17.7112 45.7758 17.6769 39.9456 17.7268 34.1125C17.7735 28.533 21.2263 23.6069 26.397 21.5791C26.5332 21.527 26.6698 21.4703 26.8588 21.3915C23.97 20.0149 21.9517 17.8906 20.8774 14.9082C20.0349 12.5708 20.0115 10.1948 20.7366 7.82786C22.1552 3.18917 26.4504 0.0268758 31.3124 0.000163887C36.1434 -0.026548 40.5324 3.21461 41.924 7.86585C42.732 10.565 42.5852 13.2216 41.4184 15.7901C40.2579 18.3463 38.3651 20.1851 35.8565 21.3606ZM47.5144 47.4417V46.9647C47.5144 42.8584 47.5131 38.7489 47.5144 34.6458C47.5156 32.3313 47.1149 30.1001 46.2036 27.9697C46.1704 27.8937 46.1425 27.8168 46.1073 27.7396C45.7587 26.9755 45.751 26.9674 46.3741 26.427C47.0739 25.8171 47.8662 25.3443 48.7106 24.9677C48.9326 24.8702 49.1597 24.7836 49.459 24.6603C47.4376 23.688 46.0012 22.2338 45.2035 20.1948C44.401 18.151 44.4307 16.0914 45.2582 14.062C46.6092 10.7484 50.007 8.74549 53.5973 9.11113C57.0411 9.46422 59.9456 12.1144 60.6406 15.5889C61.3597 19.1719 59.6478 22.9097 55.9952 24.6481C56.1423 24.7128 56.2453 24.7614 56.354 24.8103C59.9408 26.3717 62.0426 29.0808 62.5636 32.9927C62.6202 33.414 62.6317 33.836 62.633 34.2586C62.6375 38.3317 62.6362 42.402 62.6362 46.4736V46.8389C57.6219 47.6921 52.6111 47.9039 47.5144 47.4417ZM6.64024 24.6648C2.18091 22.5502 1.20536 17.8152 2.24231 14.7028C3.39601 11.2348 6.54044 9.03194 10.0041 9.07152C13.9267 9.11561 16.9096 11.8212 17.7659 15.1634C18.7024 18.8063 17.052 22.8579 13.2218 24.6571C13.3798 24.7279 13.4988 24.7861 13.6225 24.8351C14.75 25.2844 15.7556 25.9288 16.6557 26.7463C16.8357 26.9104 16.8997 27.0318 16.7791 27.2745C15.6392 29.5829 15.1428 32.0426 15.1447 34.6139C15.1476 38.7315 15.1447 42.852 15.1447 46.9696V47.4411C10.0585 47.9055 5.03844 47.6925 0.0152148 46.8376V46.4736C0.0152148 42.3875 -0.0254041 38.3031 0.0260942 34.2235C0.0827116 29.9527 2.08048 26.8776 5.88572 24.9899C6.12241 24.8698 6.37124 24.78 6.64024 24.6648Z" fill="#7CD7F5"/>
</svg>
