<svg id="图层_1" data-name="图层 1" xmlns="http://www.w3.org/2000/svg" viewBox="0 0 320 320"><defs><style>.cls-1{fill:#2471fe;}.cls-2{fill:#00df9b;}</style></defs><title>default-das</title><path class="cls-1" d="M36,248.64l.02-.03a104.69258,104.69258,0,0,1,32.83-30.14l.4-.23a131.84879,131.84879,0,0,0,183.17,0l.37.21a104.52112,104.52112,0,0,1,32.9,30.19h0a176.99992,176.99992,0,0,1-249.69,0Z"/><path class="cls-2" d="M259.21,25.83H160.83c-54.25,0-98.38,44.05-98.38,98.19s44.14,98.19,98.38,98.19,98.38-44.05,98.38-98.19a97.43246,97.43246,0,0,0-19.83-58.87A48.89423,48.89423,0,0,0,259.21,25.83ZM160.84,177.27a53.25008,53.25008,0,1,1,53.34-53.25A53.36649,53.36649,0,0,1,160.84,177.27Z"/></svg>