<svg width="12" height="13" viewBox="0 0 12 13" fill="none" xmlns="http://www.w3.org/2000/svg">
<path fill-rule="evenodd" clip-rule="evenodd" d="M6 12.5C9.31371 12.5 12 9.81371 12 6.5C12 3.18629 9.31371 0.5 6 0.5C2.68629 0.5 0 3.18629 0 6.5C0 9.81371 2.68629 12.5 6 12.5ZM5 2.7C5 2.14772 5.44772 1.7 6 1.7C6.55228 1.7 7 2.14772 7 2.7V7.5C7 8.05229 6.55228 8.5 6 8.5C5.44772 8.5 5 8.05229 5 7.5V2.7ZM5 10.3C5 9.74771 5.44772 9.3 6 9.3C6.55228 9.3 7 9.74771 7 10.3C7 10.8523 6.55228 11.3 6 11.3C5.44772 11.3 5 10.8523 5 10.3Z" fill="#D03A3A"/>
<mask id="mask0" mask-type="alpha" maskUnits="userSpaceOnUse" x="0" y="0" width="12" height="13">
<path fill-rule="evenodd" clip-rule="evenodd" d="M6 12.5C9.31371 12.5 12 9.81371 12 6.5C12 3.18629 9.31371 0.5 6 0.5C2.68629 0.5 0 3.18629 0 6.5C0 9.81371 2.68629 12.5 6 12.5ZM5 2.7C5 2.14772 5.44772 1.7 6 1.7C6.55228 1.7 7 2.14772 7 2.7V7.5C7 8.05229 6.55228 8.5 6 8.5C5.44772 8.5 5 8.05229 5 7.5V2.7ZM5 10.3C5 9.74771 5.44772 9.3 6 9.3C6.55228 9.3 7 9.74771 7 10.3C7 10.8523 6.55228 11.3 6 11.3C5.44772 11.3 5 10.8523 5 10.3Z" fill="white"/>
</mask>
<g mask="url(#mask0)">
<rect y="0.5" width="12" height="12" fill="#D03A3A"/>
</g>
</svg>
