<svg width="168" height="184" viewBox="0 0 168 184" fill="none" xmlns="http://www.w3.org/2000/svg">
<mask id="mask0" mask-type="alpha" maskUnits="userSpaceOnUse" x="0" y="0" width="168" height="184">
<rect width="168" height="184" rx="25" fill="#B48CF7"/>
</mask>
<g mask="url(#mask0)">
<rect width="168" height="184" rx="25" fill="#B48CF7"/>
<path d="M129.396 141.778L133.564 134.467C127.007 130.131 119.038 128.473 111.295 129.833C103.553 131.193 96.6255 135.467 91.9378 141.778C94.9981 134.842 100.01 128.945 106.363 124.808C112.715 120.67 120.134 118.47 127.716 118.476C132.355 118.481 136.957 119.303 141.311 120.902L145.667 113.342L155.249 129.924L162.062 141.778H129.396ZM126.284 177.587C121.645 177.581 117.043 176.759 112.689 175.16L108.333 182.658L98.72 166.076L91.9378 154.222H124.604L120.436 161.502C126.985 165.856 134.956 167.528 142.702 166.173C150.449 164.818 157.379 160.54 162.062 154.222C158.993 161.147 153.977 167.03 147.625 171.156C141.273 175.282 133.859 177.473 126.284 177.462V177.587ZM127 92C115.924 92 105.097 95.2843 95.8881 101.438C86.6789 107.591 79.5013 116.337 75.2628 126.57C71.0243 136.802 69.9153 148.062 72.076 158.925C74.2368 169.788 79.5703 179.766 87.402 187.598C95.2338 195.43 105.212 200.763 116.075 202.924C126.938 205.085 138.198 203.976 148.43 199.737C158.663 195.499 167.409 188.321 173.562 179.112C179.716 169.903 183 159.076 183 148C183 133.148 177.1 118.904 166.598 108.402C156.096 97.9 141.852 92 127 92V92Z" fill="white" fill-opacity="0.3"/>
</g>
</svg>
