<svg width="71" height="70" viewBox="0 0 71 70" fill="none" xmlns="http://www.w3.org/2000/svg">
<g clip-path="url(#clip0)">
<path d="M35.5 70C16.17 70 0.5 54.33 0.5 35C0.5 15.67 16.17 0 35.5 0C54.83 0 70.5 15.67 70.5 35C70.5 54.33 54.83 70 35.5 70ZM27.695 48.737C28.3805 49.4201 29.3088 49.8037 30.2765 49.8037C31.2442 49.8037 32.1725 49.4201 32.858 48.737L54.96 26.635C55.6412 25.9471 56.0242 25.0186 56.0259 24.0505C56.0276 23.0824 55.6479 22.1526 54.9691 21.4623C54.2903 20.7721 53.3669 20.3769 52.3989 20.3624C51.4309 20.348 50.4962 20.7153 49.797 21.385L30.11 40.845L21.36 32.095C21.0227 31.7429 20.6188 31.4612 20.1718 31.2664C19.7248 31.0716 19.2436 30.9676 18.756 30.9603C18.2684 30.953 17.7843 31.0426 17.3316 31.224C16.879 31.4053 16.4669 31.6748 16.1192 32.0167C15.7716 32.3586 15.4953 32.7661 15.3064 33.2157C15.1175 33.6652 15.0198 34.1478 15.019 34.6354C15.0181 35.123 15.1141 35.6059 15.3014 36.0561C15.4887 36.5064 15.7635 36.9149 16.11 37.258L27.695 48.738V48.737Z" fill="#45B26B"/>
</g>
<defs>
<clipPath id="clip0">
<rect width="70" height="70" fill="white" transform="translate(0.5)"/>
</clipPath>
</defs>
</svg>
