<svg width="53" height="53" viewBox="0 0 53 53" fill="none" xmlns="http://www.w3.org/2000/svg">
<path d="M27.6336 23.5556L29.6064 20.0958C26.5033 18.0443 22.7321 17.2596 19.0683 17.9031C15.4044 18.5466 12.1263 20.5694 9.90806 23.5556C11.3562 20.2733 13.7279 17.4831 16.7341 15.5252C19.7403 13.5673 23.2511 12.5261 26.8386 12.5286C29.0339 12.5313 31.2116 12.92 33.2722 13.6769L35.3333 10.0994L39.8678 17.9464L43.0919 23.5556H27.6336ZM26.1614 40.5008C23.9661 40.4981 21.7884 40.1094 19.7278 39.3525L17.6667 42.9005L13.1175 35.0536L9.90806 29.4444H25.3664L23.3936 32.8894C26.4928 34.9497 30.2648 35.7409 33.9306 35.0998C37.5964 34.4587 40.876 32.4342 43.0919 29.4444C41.6394 32.7212 39.2658 35.5052 36.26 37.4577C33.2542 39.4102 29.7457 40.447 26.1614 40.4419V40.5008ZM26.5 0C21.2588 0 16.1353 1.5542 11.7774 4.46605C7.4195 7.37791 4.02293 11.5166 2.0172 16.3589C0.0114819 21.2011 -0.513306 26.5294 0.509202 31.6699C1.53171 36.8104 4.05559 41.5322 7.76168 45.2383C11.4678 48.9444 16.1896 51.4683 21.3301 52.4908C26.4706 53.5133 31.7989 52.9885 36.6411 50.9828C41.4834 48.9771 45.6221 45.5805 48.5339 41.2226C51.4458 36.8647 53 31.7412 53 26.5C53 19.4718 50.208 12.7314 45.2383 7.76167C40.2686 2.79196 33.5282 0 26.5 0V0Z" fill="#B48CF7"/>
</svg>
