<svg width="83" height="18" viewBox="0 0 83 18" fill="none" xmlns="http://www.w3.org/2000/svg">
<path d="M0 0L8.71451 6.43256L17.429 0L17.4788 17.6471H0.0497972L0 0Z" fill="#020202"/>
<path d="M29.0148 0V17.6471H19.9258V0H29.0148Z" fill="#020202"/>
<path d="M40.6383 0C41.7475 0 42.7475 0.247899 43.6383 0.743697C44.529 1.2395 45.2265 1.88655 45.7307 2.68487C46.2349 3.48319 46.487 4.31933 46.487 5.19328C46.487 6.33613 46.092 7.33613 45.3021 8.19328C45.9408 8.66387 46.4155 9.21428 46.7265 9.84454C47.0374 10.4748 47.1928 11.1429 47.1928 11.8487C47.1928 12.8067 46.9113 13.7311 46.3483 14.6218C45.7853 15.5126 44.9828 16.2395 43.9408 16.8025C42.8988 17.3655 41.7055 17.6471 40.361 17.6471H31.4619V0H40.6383Z" fill="#020202"/>
<path d="M56.4561 0.352905L66.419 17.647H46.4932L56.4561 0.352905Z" fill="#020202"/>
<path d="M73.7609 0.352905C75.3385 0.352905 76.799 0.747165 78.1423 1.53568C79.4856 2.3242 80.5478 3.39659 81.3288 4.75284C82.1098 6.10909 82.5003 7.58363 82.5003 9.17643C82.5003 10.7692 82.1098 12.2438 81.3288 13.6C80.5478 14.9563 79.4856 16.0287 78.1423 16.8172C76.799 17.6057 75.3385 18 73.7609 18C72.1833 18 70.7228 17.6057 69.3795 16.8172C68.0362 16.0287 66.974 14.9563 66.193 13.6C65.412 12.2438 65.0215 10.7692 65.0215 9.17643C65.0215 7.58363 65.412 6.10909 66.193 4.75284C66.974 3.39659 68.0362 2.3242 69.3795 1.53568C70.7228 0.747165 72.1833 0.352905 73.7609 0.352905Z" fill="#020202"/>
</svg>
