<svg width="23" height="23" viewBox="0 0 23 23" fill="none" xmlns="http://www.w3.org/2000/svg">
<path d="M21.096 5.80882C19.3758 8.19118 16.8617 11.1029 13.9506 14.0147C13.289 14.6765 9.3855 18.5147 5.74665 21.0956C7.46683 22.1544 9.45166 22.75 11.5688 22.75C17.7879 22.75 22.75 17.7868 22.75 11.6324C22.75 9.51471 22.1546 7.46324 21.096 5.80882ZM14.4137 18.7132C13.5536 18.7132 12.892 18.0515 12.892 17.1912C12.892 16.3309 13.5536 15.6691 14.4137 15.6691C15.2738 15.6691 15.9354 16.3309 15.9354 17.1912C15.9354 18.0515 15.2738 18.7132 14.4137 18.7132ZM20.2359 4.61765C21.7576 2.5 22.4192 0.911765 21.9561 0.448529C21.8237 0.316177 21.6253 0.25 21.4268 0.25C20.699 0.25 19.3096 0.977941 17.5233 2.23529C17.3248 2.10294 17.1263 1.97059 16.8617 1.83824C16.6632 1.70588 16.3986 1.63971 16.1339 1.50735C14.7445 0.911765 13.2228 0.514706 11.5688 0.514706C5.482 0.514706 0.519937 5.47794 0.519937 11.6324C0.519937 13.2868 0.850741 14.8088 1.51235 16.1985C1.64467 16.4632 1.71083 16.6618 1.84315 16.9265C1.97548 17.125 2.1078 17.3235 2.24012 17.5882C0.652258 19.8382 -0.0755116 21.4926 0.387615 21.9559C0.519937 22.0221 0.652258 22.0882 0.850741 22.0882C1.57851 22.0882 2.90173 21.4265 4.62191 20.2353C6.93754 18.6471 9.91479 16.0662 13.0243 13.0221C16.0677 9.91177 18.5819 6.93382 20.2359 4.61765ZM6.73906 13.5515C5.68049 13.5515 4.82039 12.6912 4.82039 11.6324C4.82039 10.5735 5.68049 9.71324 6.73906 9.71324C7.79764 9.71324 8.65773 10.5735 8.65773 11.6324C8.65773 12.6912 7.8638 13.5515 6.73906 13.5515ZM10.2456 8.45588C8.92237 8.45588 7.8638 7.39706 7.8638 6.07353C7.8638 4.75 8.92237 3.69118 10.2456 3.69118C11.5688 3.69118 12.6274 4.75 12.6274 6.07353C12.6274 7.39706 11.5688 8.45588 10.2456 8.45588Z" fill="#767676"/>
</svg>
