<svg width="82" height="21" viewBox="0 0 82 21" fill="none" xmlns="http://www.w3.org/2000/svg">
<path d="M35.001 8.48199L31.8932 12.6245C31.8484 12.6839 31.7904 12.7322 31.7238 12.7654C31.6572 12.7986 31.5838 12.8159 31.5093 12.8159V12.8159C31.4339 12.816 31.3595 12.7982 31.2921 12.7642C31.2248 12.7301 31.1664 12.6807 31.1218 12.6199L28.1107 8.50316C28.0412 8.41207 27.9451 8.34482 27.8358 8.31074C27.7264 8.27665 27.6092 8.2774 27.5003 8.31289C27.3914 8.34839 27.2962 8.41686 27.2279 8.50884C27.1596 8.60082 27.1217 8.71175 27.1192 8.82627V16.0287C27.1192 16.1051 27.1042 16.1807 27.0749 16.2513C27.0457 16.3219 27.0028 16.386 26.9488 16.44C26.8948 16.4941 26.8307 16.5369 26.7601 16.5662C26.6895 16.5954 26.6138 16.6104 26.5374 16.6104H24.665V4.17749C24.665 4.10101 24.6801 4.02528 24.7094 3.95464C24.7387 3.88399 24.7816 3.81981 24.8358 3.76578C24.8899 3.71174 24.9541 3.66891 25.0248 3.63973C25.0955 3.61054 25.1713 3.59558 25.2477 3.5957H27.1956C27.2873 3.59577 27.3777 3.61748 27.4595 3.65906C27.5412 3.70065 27.612 3.76095 27.666 3.83505L31.5636 9.19265L35.4612 3.83505C35.5152 3.76084 35.5859 3.70046 35.6677 3.65886C35.7494 3.61726 35.8399 3.59562 35.9316 3.5957H37.8648C38.0191 3.5957 38.1671 3.657 38.2762 3.7661C38.3853 3.87521 38.4466 4.02319 38.4466 4.17749V16.6104H36.5705C36.4941 16.6104 36.4184 16.5954 36.3479 16.5662C36.2773 16.5369 36.2131 16.4941 36.1591 16.44C36.1051 16.386 36.0622 16.3219 36.033 16.2513C36.0038 16.1807 35.9887 16.1051 35.9887 16.0287V8.81338C35.987 8.69908 35.9498 8.58813 35.8824 8.49583C35.8149 8.40353 35.7205 8.33444 35.6121 8.29808C35.5038 8.26172 35.3868 8.25988 35.2773 8.29282C35.1678 8.32576 35.0713 8.39185 35.001 8.48199V8.48199Z" fill="#201C3D"/>
<path d="M39.6875 16.0096V4.15845C39.6875 4.00415 39.7488 3.85617 39.8579 3.74706C39.967 3.63796 40.115 3.57666 40.2693 3.57666H41.5406C41.6949 3.57666 41.8428 3.63796 41.952 3.74706C42.0611 3.85617 42.1224 4.00415 42.1224 4.15845V16.0096C42.1224 16.1639 42.0611 16.3119 41.952 16.421C41.8428 16.5301 41.6949 16.5914 41.5406 16.5914H40.2693C40.115 16.5914 39.967 16.5301 39.8579 16.421C39.7488 16.3119 39.6875 16.1639 39.6875 16.0096V16.0096Z" fill="#201C3D"/>
<path d="M56.0144 7.35726C56.0144 8.36066 55.5311 9.32816 54.3224 9.86761C55.8469 10.3316 56.4084 11.9499 56.4084 12.771C56.4084 15.6717 54.2331 16.6014 51.5369 16.6014H45.3618V3.58301H51.5295C54.0997 3.58301 56.0144 4.73554 56.0144 7.35726ZM47.7773 8.80713H51.5295C53.0733 8.80713 53.575 8.1563 53.575 7.4125C53.575 6.81782 53.0917 5.8135 51.5295 5.8135H47.7737L47.7773 8.80713ZM47.7773 14.3111H51.5295C52.5338 14.3111 53.9653 13.976 53.9653 12.7462C53.9689 11.5743 52.5421 10.964 51.5295 10.964H47.7737L47.7773 14.3111Z" fill="#201C3D"/>
<path d="M66.6395 14.1436H59.8348L58.8747 16.2608C58.8284 16.3626 58.7538 16.449 58.6597 16.5095C58.5657 16.5701 58.4563 16.6023 58.3444 16.6024H56.0605L61.7477 3.92637C61.7938 3.82408 61.8684 3.73726 61.9626 3.67636C62.0569 3.61545 62.1667 3.58303 62.2789 3.58301H64.2028C64.315 3.58303 64.4248 3.61545 64.519 3.67636C64.6132 3.73726 64.6879 3.82408 64.734 3.92637L70.4174 16.5978H68.1161C68.0038 16.5976 67.8939 16.5651 67.7997 16.504C67.7054 16.4429 67.6308 16.3559 67.5849 16.2535L66.6395 14.1436ZM63.2335 6.31888L60.8161 11.8588H65.6508L63.2335 6.31888Z" fill="#201C3D"/>
<path d="M81.9998 10.1437C81.9639 13.3767 79.982 16.6097 75.5873 16.6097C71.1926 16.6097 69.1572 13.4485 69.1572 10.1612C69.1572 6.87392 71.2644 3.57007 75.5873 3.57007C79.8945 3.57007 82.0376 6.87945 81.9998 10.1437ZM71.4807 10.1934C71.5341 12.2481 72.6415 14.4445 75.5891 14.4445C78.5367 14.4445 79.6395 12.2297 79.68 10.1759C79.715 8.06788 78.5367 5.71035 75.5891 5.71035C72.6415 5.71035 71.4273 8.08905 71.4807 10.1934Z" fill="#201C3D"/>
<path d="M18.3766 3.55859H12.9985V7.31376H18.3766V3.55859Z" fill="#E5CC6D"/>
<path d="M5.82484 2.68903C5.82484 1.20392 4.62092 0 3.13581 0C1.6507 0 0.446777 1.20392 0.446777 2.68903V4.62477C0.446777 6.10989 1.6507 7.31381 3.13581 7.31381C4.62092 7.31381 5.82484 6.10989 5.82484 4.62477V2.68903Z" fill="#FC6621"/>
<path opacity="0.86" d="M9.41149 16.5302C11.8128 16.5302 13.7595 14.5836 13.7595 12.1822C13.7595 9.7809 11.8128 7.83423 9.41149 7.83423C7.01015 7.83423 5.06348 9.7809 5.06348 12.1822C5.06348 14.5836 7.01015 16.5302 9.41149 16.5302Z" fill="#06F4ED"/>
<path opacity="0.8" d="M0 10.7659C0 13.262 0.991579 15.6559 2.7566 17.4209C4.52162 19.1859 6.91551 20.1775 9.41162 20.1775C11.9077 20.1775 14.3016 19.1859 16.0666 17.4209C17.8317 15.6559 18.8232 13.262 18.8232 10.7659H0Z" fill="url(#paint0_linear_2924_4068)"/>
<defs>
<linearGradient id="paint0_linear_2924_4068" x1="9.50478" y1="9.68519" x2="8.69979" y2="20.5523" gradientUnits="userSpaceOnUse">
<stop stop-color="#683FD7"/>
<stop offset="1" stop-color="#3D45FB"/>
</linearGradient>
</defs>
</svg>
