<svg width="100" height="100" viewBox="0 0 100 100" fill="none" xmlns="http://www.w3.org/2000/svg">
<path d="M50 100C77.6142 100 100 77.6142 100 50C100 22.3858 77.6142 0 50 0C22.3858 0 0 22.3858 0 50C0 77.6142 22.3858 100 50 100Z" fill="#F8F8F8"/>
<path d="M54.1322 71.5901L58.6798 76.1343H61.5659H66.5053H77.6611V69.0189L73.1135 64.4748H66.5053H65.9281V63.8976V39.7354V39.1582H66.5053H79.1479V32.0463L74.5932 27.4951H17.4219V34.6L21.9801 39.1582H30.1974H30.7746V39.7354V71.5552L35.3537 76.1343H42.5671V39.7354V39.1582H43.1443H53.5549H54.1322V39.7354V71.5901Z" fill="#D8D8D8"/>
</svg>
