<svg width="530" height="530" viewBox="0 0 530 530" fill="none" xmlns="http://www.w3.org/2000/svg">
<rect width="530" height="530" fill="white"/>
<path d="M345.233 206.556H297.1V240.164H345.233V206.556Z" fill="#E5CC6D"/>
<path d="M232.9 198.775C232.9 185.483 222.125 174.708 208.834 174.708C195.542 174.708 184.767 185.483 184.767 198.775V216.098C184.767 229.389 195.542 240.164 208.834 240.164C222.125 240.164 232.9 229.389 232.9 216.098V198.775Z" fill="#FC6621"/>
<path opacity="0.86" d="M265 322.656C286.492 322.656 303.915 305.233 303.915 283.741C303.915 262.248 286.492 244.825 265 244.825C243.508 244.825 226.085 262.248 226.085 283.741C226.085 305.233 243.508 322.656 265 322.656Z" fill="#06F4ED"/>
<path opacity="0.8" d="M180.768 271.06C180.768 317.581 218.479 355.292 265 355.292C311.521 355.292 349.232 317.581 349.232 271.06H180.768Z" fill="url(#paint0_linear)"/>
<defs>
<linearGradient id="paint0_linear" x1="265.833" y1="261.388" x2="258.63" y2="358.648" gradientUnits="userSpaceOnUse">
<stop stop-color="#683FD7"/>
<stop offset="1" stop-color="#3D45FB"/>
</linearGradient>
</defs>
</svg>
