<svg width="18" height="19" viewBox="0 0 18 19" fill="none" xmlns="http://www.w3.org/2000/svg">
<path fill-rule="evenodd" clip-rule="evenodd" d="M8.22174 12.5148L10.3868 13.7648C10.7861 13.9954 10.941 14.4716 10.7335 14.831C10.526 15.1904 10.0361 15.2944 9.6368 15.0639L7.47174 13.8139L6.34674 15.7624C6.13924 16.1218 5.64938 16.2258 5.25005 15.9953C4.85071 15.7647 4.69586 15.2885 4.90336 14.9291L6.02836 12.9805L3.8633 11.7305C3.46396 11.5 3.30911 11.0237 3.51661 10.6643C3.72411 10.3049 4.21396 10.2009 4.6133 10.4315L6.77836 11.6815L7.56169 10.3247C5.69448 8.8329 5.05576 6.33179 6.16992 4.402C7.41242 2.24992 10.3589 1.62433 12.75 3.00488C15.1412 4.38544 16.0727 7.24992 14.8302 9.402C13.7152 11.3332 11.2306 12.0292 9.00507 11.158L8.22174 12.5148ZM12 4.30392C10.4059 3.38355 8.44163 3.80061 7.6133 5.23533C6.78496 6.67005 7.40592 8.5797 9.00005 9.50007C10.5942 10.4204 12.5585 10.0034 13.3868 8.56866C14.2151 7.13395 13.5942 5.22429 12 4.30392Z" fill="#FF375F"/>
</svg>
