<svg width="113" height="29" viewBox="0 0 113 29" fill="none" xmlns="http://www.w3.org/2000/svg">
  <path d="M48.0904 12.1799L43.8204 17.8716C43.7589 17.9533 43.6792 18.0196 43.5877 18.0652C43.4962 18.1109 43.3953 18.1347 43.293 18.1347C43.1893 18.1347 43.0871 18.1104 42.9946 18.0635C42.9021 18.0167 42.8219 17.9488 42.7605 17.8652L38.6233 12.209C38.5279 12.0839 38.3959 11.9915 38.2457 11.9446C38.0954 11.8978 37.9343 11.8988 37.7847 11.9476C37.6351 11.9964 37.5043 12.0905 37.4105 12.2168C37.3167 12.3432 37.2645 12.4956 37.2611 12.653V22.5488C37.2611 22.6538 37.2405 22.7578 37.2003 22.8548C37.1601 22.9517 37.1012 23.0399 37.027 23.1141C36.9528 23.1883 36.8647 23.2472 36.7677 23.2874C36.6707 23.3275 36.5668 23.3482 36.4618 23.3482H33.8892V6.26567C33.8892 6.16059 33.9099 6.05654 33.9501 5.95947C33.9904 5.86241 34.0494 5.77423 34.1237 5.69999C34.1981 5.62574 34.2864 5.56689 34.3835 5.52679C34.4806 5.4867 34.5847 5.46614 34.6898 5.46631H37.3661C37.4921 5.4664 37.6163 5.49622 37.7286 5.55337C37.841 5.61051 37.9382 5.69335 38.0124 5.79516L43.3676 13.1564L48.7228 5.79516C48.797 5.6932 48.8942 5.61025 49.0065 5.55309C49.1188 5.49593 49.2431 5.46619 49.3692 5.46631H52.0253C52.2373 5.46631 52.4406 5.55053 52.5905 5.70044C52.7404 5.85034 52.8246 6.05367 52.8246 6.26567V23.3482H50.2469C50.142 23.3482 50.038 23.3275 49.941 23.2874C49.8441 23.2472 49.7559 23.1883 49.6817 23.1141C49.6075 23.0399 49.5486 22.9517 49.5084 22.8548C49.4683 22.7578 49.4476 22.6538 49.4476 22.5488V12.6353C49.4452 12.4782 49.3942 12.3258 49.3015 12.199C49.2088 12.0721 49.0791 11.9772 48.9302 11.9272C48.7813 11.8773 48.6205 11.8748 48.4701 11.92C48.3197 11.9653 48.1871 12.0561 48.0904 12.1799Z" fill="#201C3D"/>
  <path d="M54.5298 22.5235V6.24028C54.5298 6.02828 54.614 5.82496 54.7639 5.67505C54.9138 5.52514 55.1171 5.44092 55.3291 5.44092H57.0759C57.2879 5.44092 57.4912 5.52514 57.6411 5.67505C57.791 5.82496 57.8752 6.02828 57.8752 6.24028V22.5235C57.8752 22.7355 57.791 22.9388 57.6411 23.0887C57.4912 23.2386 57.2879 23.3228 57.0759 23.3228H55.3291C55.1171 23.3228 54.9138 23.2386 54.7639 23.0887C54.614 22.9388 54.5298 22.7355 54.5298 22.5235Z" fill="#201C3D"/>
  <path d="M76.9621 10.6357C76.9621 12.0143 76.298 13.3436 74.6373 14.0848C76.7319 14.7223 77.5034 16.9458 77.5034 18.074C77.5034 22.0595 74.5147 23.3369 70.81 23.3369H62.3257V5.44995H70.7999C74.3313 5.44995 76.9621 7.0335 76.9621 10.6357ZM65.6445 12.6278H70.7999C72.921 12.6278 73.6103 11.7335 73.6103 10.7116C73.6103 9.8945 72.9463 8.51459 70.7999 8.51459H65.6395L65.6445 12.6278ZM65.6445 20.1901H70.7999C72.1798 20.1901 74.1466 19.7297 74.1466 18.0399C74.1517 16.4298 72.1912 15.5912 70.7999 15.5912H65.6395L65.6445 20.1901Z" fill="#201C3D"/>
  <path d="M91.5606 19.9599H82.2111L80.8919 22.8689C80.8283 23.0088 80.7258 23.1274 80.5966 23.2106C80.4674 23.2938 80.317 23.3381 80.1634 23.3382H77.0254L84.8394 5.92173C84.9027 5.78118 85.0052 5.6619 85.1347 5.57821C85.2642 5.49452 85.415 5.44998 85.5692 5.44995H88.2126C88.3668 5.44998 88.5176 5.49452 88.6471 5.57821C88.7766 5.6619 88.8791 5.78118 88.9424 5.92173L96.7514 23.3319H93.5893C93.435 23.3317 93.2841 23.287 93.1546 23.2031C93.0251 23.1191 92.9227 22.9996 92.8595 22.8588L91.5606 19.9599ZM86.8808 9.20897L83.5594 16.8206H90.2022L86.8808 9.20897Z" fill="#201C3D"/>
  <path d="M112.665 14.4641C112.616 18.9062 109.893 23.3482 103.855 23.3482C97.8165 23.3482 95.02 19.0048 95.02 14.4882C95.02 9.97154 97.9152 5.43213 103.855 5.43213C109.773 5.43213 112.717 9.97913 112.665 14.4641ZM98.2124 14.5324C98.2858 17.3555 99.8073 20.3733 103.857 20.3733C107.907 20.3733 109.422 17.3302 109.478 14.5084C109.526 11.612 107.907 8.37281 103.857 8.37281C99.8073 8.37281 98.139 11.6411 98.2124 14.5324Z" fill="#201C3D"/>
  <path d="M25.2487 5.4165H17.8594V10.576H25.2487V5.4165Z" fill="#E5CC6D"/>
  <path d="M8.00309 4.22176C8.00309 2.18126 6.34894 0.5271 4.30843 0.5271C2.26793 0.5271 0.61377 2.18126 0.61377 4.22176V6.88141C0.61377 8.92192 2.26793 10.5761 4.30843 10.5761C6.34894 10.5761 8.00309 8.92192 8.00309 6.88141V4.22176Z" fill="#FC6621"/>
  <path opacity="0.86" d="M12.9311 23.2393C16.2305 23.2393 18.9051 20.5647 18.9051 17.2653C18.9051 13.9659 16.2305 11.2913 12.9311 11.2913C9.6317 11.2913 6.95703 13.9659 6.95703 17.2653C6.95703 20.5647 9.6317 23.2393 12.9311 23.2393Z" fill="#06F4ED"/>
  <path opacity="0.8" d="M0 15.3191C0 18.7487 1.3624 22.0378 3.7875 24.4629C6.21259 26.888 9.50172 28.2504 12.9313 28.2504C16.3609 28.2504 19.65 26.888 22.0751 24.4629C24.5002 22.0378 25.8626 18.7487 25.8626 15.3191H0Z" fill="url(#paint0_linear_311:2838)"/>
  <defs>
  <linearGradient id="paint0_linear_311:2838" x1="13.0593" y1="13.8343" x2="11.9533" y2="28.7653" gradientUnits="userSpaceOnUse">
  <stop stop-color="#683FD7"/>
  <stop offset="1" stop-color="#3D45FB"/>
  </linearGradient>
  </defs>
  </svg>
