<svg width="30" height="30" viewBox="0 0 30 30" fill="none" xmlns="http://www.w3.org/2000/svg">
<path d="M27.0674 9.90234C26.4082 8.34375 25.4648 6.94336 24.2607 5.73926C23.0596 4.53809 21.6592 3.5918 20.0977 2.93262C18.4834 2.25 16.7666 1.9043 15 1.9043C13.2334 1.9043 11.5166 2.25 9.90234 2.93262C8.34375 3.5918 6.94336 4.53516 5.73926 5.73926C4.53809 6.94043 3.5918 8.34082 2.93262 9.90234C2.25 11.5166 1.9043 13.2334 1.9043 15C1.9043 16.7666 2.25 18.4834 2.93262 20.0977C3.5918 21.6562 4.53516 23.0566 5.73926 24.2607C6.94043 25.4619 8.34082 26.4082 9.90234 27.0674C11.5166 27.75 13.2334 28.0957 15 28.0957C16.7666 28.0957 18.4834 27.75 20.0977 27.0674C21.6562 26.4082 23.0566 25.4648 24.2607 24.2607C25.4619 23.0596 26.4082 21.6592 27.0674 20.0977C27.75 18.4834 28.0957 16.7666 28.0957 15C28.0957 13.2334 27.75 11.5166 27.0674 9.90234ZM22.6025 22.6025C20.5723 24.6328 17.8711 25.752 15 25.752C12.1289 25.752 9.42773 24.6328 7.39746 22.6025C5.36719 20.5723 4.24805 17.8711 4.24805 15C4.24805 12.1289 5.36719 9.42773 7.39746 7.39746C9.42773 5.36719 12.1289 4.24805 15 4.24805C17.8711 4.24805 20.5723 5.36719 22.6025 7.39746C24.6328 9.42773 25.752 12.1289 25.752 15C25.752 17.8711 24.6328 20.5723 22.6025 22.6025Z" fill="black"/>
<path d="M16.166 21.1611C16.1631 21.1436 16.1602 21.123 16.1602 21.1025C16.1572 21.085 16.1543 21.0645 16.1514 21.0469C16.1484 21.0293 16.1426 21.0088 16.1396 20.9912C16.1338 20.9736 16.1309 20.9531 16.125 20.9355C16.1191 20.918 16.1133 20.9004 16.1074 20.8799C16.1016 20.8623 16.0928 20.8447 16.0869 20.8271C16.0811 20.8096 16.0723 20.792 16.0635 20.7744L16.0371 20.7217C16.0283 20.7041 16.0195 20.6895 16.0078 20.6719C15.999 20.6572 15.9873 20.6396 15.9785 20.625C15.9668 20.6074 15.958 20.5928 15.9463 20.5781L15.9111 20.5342C15.8994 20.5195 15.8848 20.5049 15.873 20.4902C15.8613 20.4756 15.8467 20.4609 15.832 20.4492C15.8174 20.4346 15.8027 20.4229 15.791 20.4082C15.7764 20.3965 15.7617 20.3818 15.7471 20.3701C15.7324 20.3584 15.7178 20.3467 15.7002 20.335C15.6855 20.3232 15.668 20.3115 15.6533 20.3027C15.6387 20.291 15.6211 20.2822 15.6035 20.2734C15.5859 20.2646 15.5713 20.2529 15.5537 20.2441L15.501 20.2178C15.4834 20.209 15.4658 20.2031 15.4482 20.1943C15.4307 20.1885 15.4131 20.1797 15.3955 20.1738C15.3779 20.168 15.3604 20.1621 15.3398 20.1562C15.3223 20.1504 15.3018 20.1445 15.2842 20.1416C15.2666 20.1387 15.2461 20.1328 15.2285 20.1299C15.2109 20.127 15.1904 20.124 15.1729 20.1211C15.1523 20.1182 15.1348 20.1152 15.1143 20.1152C15.0967 20.1123 15.0762 20.1123 15.0557 20.1123C15.0176 20.1094 14.9795 20.1094 14.9414 20.1123C14.9238 20.1123 14.9033 20.1152 14.8828 20.1152C14.8652 20.1182 14.8447 20.1182 14.8242 20.1211C14.8066 20.124 14.7861 20.127 14.7686 20.1299C14.751 20.1328 14.7305 20.1387 14.7129 20.1416C14.6953 20.1445 14.6748 20.1504 14.6572 20.1562C14.6396 20.1621 14.6221 20.168 14.6016 20.1738C14.584 20.1797 14.5664 20.1885 14.5488 20.1943C14.5313 20.2002 14.5137 20.209 14.4961 20.2178L14.4434 20.2441C14.4258 20.2529 14.4111 20.2617 14.3936 20.2734C14.376 20.2822 14.3613 20.2939 14.3438 20.3027C14.3291 20.3145 14.3115 20.3232 14.2969 20.335L14.2529 20.3701C14.2383 20.3818 14.2236 20.3965 14.209 20.4082C14.1943 20.4199 14.1797 20.4346 14.168 20.4492L14.127 20.4902C14.1152 20.5049 14.1006 20.5195 14.0889 20.5342L14.0537 20.5781C14.042 20.5928 14.0303 20.6104 14.0215 20.625C14.0098 20.6396 14.001 20.6572 13.9893 20.6719C13.9805 20.6895 13.9688 20.7041 13.96 20.7217L13.9336 20.7744C13.9248 20.792 13.9189 20.8096 13.9102 20.8271C13.9043 20.8447 13.8955 20.8623 13.8896 20.8799C13.8838 20.8975 13.8779 20.915 13.8721 20.9355C13.8662 20.9531 13.8604 20.9707 13.8574 20.9912C13.8545 21.0117 13.8486 21.0293 13.8457 21.0469C13.8428 21.0645 13.8398 21.085 13.8369 21.1025C13.834 21.1201 13.8311 21.1406 13.8311 21.1611C13.8281 21.1816 13.8281 21.1992 13.8281 21.2197V21.3369C13.8281 21.3545 13.8311 21.375 13.8311 21.3955C13.834 21.4131 13.8369 21.4336 13.8369 21.4541C13.8398 21.4717 13.8428 21.4922 13.8457 21.5098C13.8486 21.5273 13.8545 21.5479 13.8574 21.5654C13.8604 21.583 13.8662 21.6035 13.8721 21.6211C13.8779 21.6387 13.8838 21.6562 13.8896 21.6768C13.8955 21.6943 13.9043 21.7119 13.9102 21.7295C13.916 21.7471 13.9248 21.7646 13.9336 21.7822L13.96 21.835C13.9688 21.8525 13.9775 21.8672 13.9893 21.8848C13.998 21.9023 14.0098 21.917 14.0215 21.9346C14.0332 21.9492 14.042 21.9668 14.0537 21.9814L14.0889 22.0254C14.1006 22.04 14.1123 22.0547 14.127 22.0693C14.1387 22.084 14.1533 22.0986 14.168 22.1104L14.209 22.1514C14.2236 22.1631 14.2383 22.1777 14.2529 22.1895L14.2969 22.2246C14.3115 22.2363 14.3291 22.248 14.3438 22.2568C14.3584 22.2686 14.376 22.2773 14.3936 22.2861C14.4111 22.2949 14.4258 22.3066 14.4434 22.3154L14.4961 22.3418C14.5137 22.3506 14.5313 22.3564 14.5488 22.3652C14.5664 22.3711 14.584 22.3799 14.6016 22.3857C14.6191 22.3916 14.6367 22.3975 14.6572 22.4033C14.6748 22.4092 14.6953 22.415 14.7129 22.418C14.7305 22.4209 14.751 22.4268 14.7686 22.4297C14.7861 22.4326 14.8066 22.4355 14.8242 22.4385C14.8418 22.4414 14.8623 22.4443 14.8828 22.4443C14.9033 22.4473 14.9209 22.4473 14.9414 22.4473H15.0586C15.0791 22.4473 15.0967 22.4443 15.1172 22.4443C15.1348 22.4414 15.1553 22.4414 15.1758 22.4385C15.1934 22.4355 15.2139 22.4326 15.2314 22.4297C15.249 22.4268 15.2695 22.4209 15.2871 22.418C15.3047 22.415 15.3252 22.4092 15.3428 22.4033C15.3604 22.3975 15.3779 22.3916 15.3984 22.3857C15.416 22.3799 15.4336 22.3711 15.4512 22.3652C15.4688 22.3594 15.4863 22.3506 15.5039 22.3418L15.5566 22.3154C15.5742 22.3066 15.5889 22.2979 15.6064 22.2861C15.624 22.2773 15.6387 22.2656 15.6563 22.2568C15.6709 22.2451 15.6885 22.2363 15.7031 22.2246C15.7178 22.2129 15.7324 22.2012 15.75 22.1895C15.7646 22.1777 15.7793 22.1631 15.7939 22.1514C15.8086 22.1396 15.8232 22.125 15.835 22.1104L15.876 22.0693C15.8877 22.0547 15.9023 22.04 15.9141 22.0254L15.9492 21.9814C15.9609 21.9668 15.9727 21.9492 15.9814 21.9346C15.9932 21.9199 16.002 21.9023 16.0107 21.8848C16.0195 21.8701 16.0313 21.8525 16.04 21.835L16.0664 21.7822C16.0752 21.7646 16.0811 21.7471 16.0898 21.7295C16.0957 21.7119 16.1045 21.6943 16.1104 21.6768C16.1162 21.6592 16.1221 21.6416 16.1279 21.6211C16.1338 21.6035 16.1396 21.5859 16.1426 21.5654C16.1484 21.5479 16.1514 21.5273 16.1543 21.5098C16.1572 21.4922 16.1602 21.4717 16.1631 21.4541C16.166 21.4365 16.1689 21.416 16.1689 21.3955C16.1719 21.375 16.1719 21.3574 16.1719 21.3369C16.1719 21.3164 16.1748 21.2988 16.1748 21.2783C16.1748 21.2607 16.1748 21.2402 16.1719 21.2197C16.1689 21.1992 16.1689 21.1787 16.166 21.1611ZM15 7.55273C13.6318 7.55273 12.3486 8.08887 11.3906 9.06152C10.459 10.0078 9.94336 11.2588 9.94336 12.583C9.94336 13.2305 10.4678 13.7549 11.1152 13.7549C11.7627 13.7549 12.2871 13.2305 12.2871 12.583C12.2871 11.877 12.5625 11.2119 13.0576 10.708C13.5732 10.1865 14.2617 9.89941 15 9.89941C16.4971 9.89941 17.7129 11.1035 17.7129 12.5859C17.7129 14.0654 16.4971 15.2725 15 15.2725C14.3525 15.2725 13.8281 15.7969 13.8281 16.4443V17.7686C13.8281 18.416 14.3525 18.9404 15 18.9404C15.6475 18.9404 16.1719 18.416 16.1719 17.7686V17.4785C18.3984 16.9512 20.0566 14.959 20.0566 12.5859C20.0566 9.80859 17.7891 7.55273 15 7.55273Z" fill="black"/>
</svg>
