<svg width="23" height="23" viewBox="0 0 23 23" fill="none" xmlns="http://www.w3.org/2000/svg">
<path d="M20.7686 5.09375L14.6837 2.375C13.7907 1.97917 12.4408 1.97917 11.5478 2.375L5.46298 5.09375C3.9262 5.78125 3.69775 6.71875 3.69775 7.21875C3.69775 7.71875 3.9262 8.65625 5.46298 9.34375L11.5478 12.0625C11.9943 12.2604 12.5551 12.3646 13.1158 12.3646C13.6765 12.3646 14.2372 12.2604 14.6837 12.0625L20.7686 9.34375C22.3053 8.65625 22.5338 7.71875 22.5338 7.21875C22.5338 6.71875 22.3157 5.78125 20.7686 5.09375Z"/>
<path d="M13.1159 17.75C12.7213 17.75 12.3267 17.6667 11.9633 17.5104L4.96467 14.3854C3.89515 13.9063 3.06445 12.625 3.06445 11.4479C3.06445 11.0208 3.40712 10.6771 3.83285 10.6771C4.25858 10.6771 4.60124 11.0208 4.60124 11.4479C4.60124 12.0104 5.06851 12.7396 5.58769 12.9687L12.5863 16.0937C12.9186 16.2396 13.3028 16.2396 13.6351 16.0937L20.6337 12.9687C21.1529 12.7396 21.6201 12.0208 21.6201 11.4479C21.6201 11.0208 21.9628 10.6771 22.3885 10.6771C22.8143 10.6771 23.1569 11.0208 23.1569 11.4479C23.1569 12.6146 22.3262 13.9063 21.2567 14.3854L14.2581 17.5104C13.905 17.6667 13.5105 17.75 13.1159 17.75Z" />
<path d="M13.1159 22.9167C12.7213 22.9167 12.3267 22.8333 11.9633 22.6771L4.96467 19.5521C3.81208 19.0417 3.06445 17.8854 3.06445 16.6146C3.06445 16.1875 3.40712 15.8438 3.83285 15.8438C4.25858 15.8438 4.60124 16.1875 4.60124 16.6146C4.60124 17.2708 4.98544 17.8646 5.58769 18.1354L12.5863 21.2604C12.9186 21.4062 13.3028 21.4062 13.6351 21.2604L20.6337 18.1354C21.2255 17.875 21.6201 17.2708 21.6201 16.6146C21.6201 16.1875 21.9628 15.8438 22.3885 15.8438C22.8143 15.8438 23.1569 16.1875 23.1569 16.6146C23.1569 17.8854 22.4093 19.0312 21.2567 19.5521L14.2581 22.6771C13.905 22.8333 13.5105 22.9167 13.1159 22.9167Z" />
</svg>
