<svg width="20" height="21" viewBox="0 0 20 21" fill="none" xmlns="http://www.w3.org/2000/svg">
<path d="M9.99606 13.1048C10.3352 13.1048 10.627 12.8496 10.627 12.5519V5.27143L10.5797 4.20807L11.1082 4.71139L12.307 5.85982C12.4175 5.97324 12.5752 6.02995 12.733 6.02995C13.0563 6.02995 13.3087 5.81728 13.3087 5.52663C13.3087 5.37776 13.2377 5.26434 13.1194 5.158L10.4535 2.84697C10.2958 2.70519 10.1617 2.65556 9.99606 2.65556C9.83831 2.65556 9.70423 2.70519 9.53859 2.84697L6.87268 5.158C6.75437 5.26434 6.69127 5.37776 6.69127 5.52663C6.69127 5.81728 6.92789 6.02995 7.25915 6.02995C7.40901 6.02995 7.58254 5.97324 7.69296 5.85982L8.88394 4.71139L9.42028 4.20807L9.37296 5.27143V12.5519C9.37296 12.8496 9.6569 13.1048 9.99606 13.1048ZM5.47662 18.6556H14.5234C16.1718 18.6556 17 17.9183 17 16.458V9.38308C17 7.92273 16.1718 7.18547 14.5234 7.18547H12.3228V8.32681H14.4997C15.2806 8.32681 15.7301 8.70962 15.7301 9.44688V16.3942C15.7301 17.1314 15.2806 17.5142 14.4997 17.5142H5.49239C4.70366 17.5142 4.26986 17.1314 4.26986 16.3942V9.44688C4.26986 8.70962 4.70366 8.32681 5.49239 8.32681H7.67718V7.18547H5.47662C3.82817 7.18547 3 7.92273 3 9.38308V16.458C3 17.9183 3.82817 18.6556 5.47662 18.6556Z" fill="#007AFF"/>
</svg>
