<svg width="14" height="16" viewBox="0 0 14 16" fill="none" xmlns="http://www.w3.org/2000/svg">
<path d="M13.6468 6.62344C12.3343 6.62344 11.0578 6.19688 10.0078 5.40781V10.9125C10.0078 13.7234 7.84214 16 5.17026 16C2.49839 16 0.332764 13.7234 0.332764 10.9125C0.332764 8.10156 2.49839 5.825 5.17026 5.825C5.43745 5.825 5.69683 5.84844 5.94995 5.89219V8.80781C5.70776 8.7125 5.44995 8.66406 5.19058 8.66406C3.99839 8.66406 3.0312 9.67969 3.0312 10.9344C3.0312 12.1875 3.99839 13.2047 5.19058 13.2047C6.3812 13.2047 7.34839 12.1875 7.34839 10.9344V0H10.0468C10.0468 2.10156 11.6671 3.80469 13.6656 3.80469V6.62187L13.6468 6.62344Z" fill="black"/>
</svg>
