<svg width="16" height="16" viewBox="0 0 16 16" fill="none" xmlns="http://www.w3.org/2000/svg">
<path fill-rule="evenodd" clip-rule="evenodd" d="M8.00004 13.3334C10.9456 13.3334 13.3334 10.9456 13.3334 8.00004C13.3334 5.05452 10.9456 2.66671 8.00004 2.66671C5.05452 2.66671 2.66671 5.05452 2.66671 8.00004C2.66671 10.9456 5.05452 13.3334 8.00004 13.3334ZM8.00004 14.6667C11.6819 14.6667 14.6667 11.6819 14.6667 8.00004C14.6667 4.31814 11.6819 1.33337 8.00004 1.33337C4.31814 1.33337 1.33337 4.31814 1.33337 8.00004C1.33337 11.6819 4.31814 14.6667 8.00004 14.6667Z" fill="#23262F"/>
<path d="M8.00004 6.66663C8.00004 6.29844 8.29851 5.99996 8.66671 5.99996H9.33337C9.70157 5.99996 10 5.70149 10 5.33329C10 4.96511 9.70157 4.66663 9.33337 4.66663H8.66671C7.56211 4.66663 6.66671 5.56206 6.66671 6.66663V7.99996H6.00004C5.63185 7.99996 5.33337 8.29843 5.33337 8.66663C5.33337 9.03483 5.63185 9.33329 6.00004 9.33329H6.66671V13.3333C6.66671 13.7015 6.96517 14 7.33337 14C7.70157 14 8.00004 13.7015 8.00004 13.3333V9.33329H9.33337C9.70157 9.33329 10 9.03483 10 8.66663C10 8.29843 9.70157 7.99996 9.33337 7.99996H8.00004V6.66663Z" fill="#23262F"/>
</svg>
