<svg width="16" height="10" viewBox="0 0 16 10" fill="none" xmlns="http://www.w3.org/2000/svg">
<path d="M4.99996 4.33337C5.35358 4.33337 5.69272 4.1929 5.94277 3.94285C6.19282 3.6928 6.33329 3.35366 6.33329 3.00004C6.33329 2.64642 6.19282 2.30728 5.94277 2.05723C5.69272 1.80718 5.35358 1.66671 4.99996 1.66671H1.99996V4.33337H4.99996V4.33337ZM5.66663 5.66671H1.99996V8.33337H5.66663C6.02025 8.33337 6.35939 8.1929 6.60944 7.94285C6.85948 7.6928 6.99996 7.35366 6.99996 7.00004C6.99996 6.64642 6.85948 6.30728 6.60944 6.05723C6.35939 5.80718 6.02025 5.66671 5.66663 5.66671V5.66671ZM7.04196 4.71471C7.54165 5.01517 7.92909 5.47113 8.14496 6.01276C8.36082 6.55439 8.39322 7.15185 8.23719 7.71365C8.08116 8.27545 7.7453 8.77063 7.28104 9.12337C6.81677 9.47611 6.24969 9.66696 5.66663 9.66671H0.666626V0.333374H4.99996C5.50761 0.333433 6.0047 0.478394 6.4328 0.751221C6.86091 1.02405 7.20224 1.41341 7.41669 1.87353C7.63114 2.33366 7.7098 2.84545 7.64342 3.34874C7.57704 3.85203 7.36838 4.32592 7.04196 4.71471V4.71471ZM10.3333 1.00004H14V2.00004H10.3333V1.00004ZM15.3333 6.66671H10.3333V6.83337C10.3331 7.2452 10.4717 7.64508 10.7265 7.96858C10.9814 8.29207 11.3377 8.52034 11.7381 8.6166C12.1385 8.71285 12.5597 8.67148 12.9337 8.49916C13.3078 8.32684 13.6129 8.03361 13.8 7.66671H15.2226C15.0195 8.40556 14.5555 9.04575 13.9165 9.46868C13.2775 9.89162 12.5069 10.0686 11.7475 9.96692C10.988 9.86521 10.2911 9.49168 9.78592 8.91552C9.28074 8.33936 9.00151 7.59963 8.99996 6.83337V5.83337C8.99993 5.4175 9.08182 5.0057 9.24094 4.62148C9.40007 4.23725 9.63332 3.88813 9.92738 3.59406C10.2214 3.29998 10.5705 3.06671 10.9547 2.90755C11.339 2.7484 11.7508 2.66649 12.1666 2.66649C12.5825 2.66649 12.9943 2.7484 13.3785 2.90755C13.7627 3.06671 14.1118 3.29998 14.4059 3.59406C14.6999 3.88813 14.9332 4.23725 15.0923 4.62148C15.2514 5.0057 15.3333 5.4175 15.3333 5.83337V6.66671ZM13.9306 5.33337C13.8215 4.9497 13.5902 4.61207 13.2719 4.37168C12.9535 4.13129 12.5655 4.00123 12.1666 4.00123C11.7677 4.00123 11.3797 4.13129 11.0614 4.37168C10.7431 4.61207 10.5118 4.9497 10.4026 5.33337H13.9306Z" fill="black"/>
</svg>
