<svg width="16" height="16" viewBox="0 0 16 16" fill="none" xmlns="http://www.w3.org/2000/svg">
<path fill-rule="evenodd" clip-rule="evenodd" d="M10.6667 2.66671H5.33337C3.86061 2.66671 2.66671 3.86061 2.66671 5.33337V10.6667C2.66671 12.1394 3.86061 13.3334 5.33337 13.3334H10.6667C12.1394 13.3334 13.3334 12.1394 13.3334 10.6667V5.33337C13.3334 3.86061 12.1394 2.66671 10.6667 2.66671ZM5.33337 1.33337C3.12423 1.33337 1.33337 3.12423 1.33337 5.33337V10.6667C1.33337 12.8758 3.12423 14.6667 5.33337 14.6667H10.6667C12.8758 14.6667 14.6667 12.8758 14.6667 10.6667V5.33337C14.6667 3.12423 12.8758 1.33337 10.6667 1.33337H5.33337Z" fill="#23262F"/>
<path d="M11.3333 5.33333C11.7015 5.33333 12 5.03485 12 4.66667C12 4.29848 11.7015 4 11.3333 4C10.9651 4 10.6666 4.29848 10.6666 4.66667C10.6666 5.03485 10.9651 5.33333 11.3333 5.33333Z" fill="#23262F"/>
<path fill-rule="evenodd" clip-rule="evenodd" d="M11.3333 7.99996C11.3333 9.84089 9.84089 11.3333 7.99996 11.3333C6.15901 11.3333 4.66663 9.84089 4.66663 7.99996C4.66663 6.15901 6.15901 4.66663 7.99996 4.66663C9.84089 4.66663 11.3333 6.15901 11.3333 7.99996ZM9.99996 7.99996C9.99996 9.10456 9.10456 9.99996 7.99996 9.99996C6.89536 9.99996 5.99996 9.10456 5.99996 7.99996C5.99996 6.89536 6.89536 5.99996 7.99996 5.99996C9.10456 5.99996 9.99996 6.89536 9.99996 7.99996Z" fill="#23262F"/>
</svg>
