<svg width="16" height="16" viewBox="0 0 16 16" fill="none" xmlns="http://www.w3.org/2000/svg">
<path d="M4.78137 1.83801L6.94271 4.00001H9.05671L11.2187 1.83867C11.3438 1.71358 11.5135 1.6433 11.6904 1.6433C11.8673 1.6433 12.0369 1.71358 12.162 1.83867C12.2871 1.96377 12.3574 2.13343 12.3574 2.31034C12.3574 2.48725 12.2871 2.65691 12.162 2.78201L10.9427 4.00001H12.3334C12.6398 4.00001 12.9432 4.06036 13.2263 4.17762C13.5094 4.29488 13.7666 4.46675 13.9833 4.68342C14.2 4.90009 14.3718 5.15732 14.4891 5.44041C14.6064 5.7235 14.6667 6.02692 14.6667 6.33334V11.6667C14.6667 11.9731 14.6064 12.2765 14.4891 12.5596C14.3718 12.8427 14.2 13.0999 13.9833 13.3166C13.7666 13.5333 13.5094 13.7051 13.2263 13.8224C12.9432 13.9397 12.6398 14 12.3334 14H3.66671C3.36029 14 3.05687 13.9397 2.77378 13.8224C2.49069 13.7051 2.23346 13.5333 2.01679 13.3166C1.80012 13.0999 1.62825 12.8427 1.51099 12.5596C1.39373 12.2765 1.33337 11.9731 1.33337 11.6667V6.33334C1.33337 6.02692 1.39373 5.7235 1.51099 5.44041C1.62825 5.15732 1.80012 4.90009 2.01679 4.68342C2.23346 4.46675 2.49069 4.29488 2.77378 4.17762C3.05687 4.06036 3.36029 4.00001 3.66671 4.00001H5.05671L3.83804 2.78067C3.7761 2.71873 3.72697 2.6452 3.69345 2.56427C3.65992 2.48334 3.64267 2.3966 3.64267 2.30901C3.64267 2.1321 3.71295 1.96243 3.83804 1.83734C3.96313 1.71224 4.1328 1.64197 4.30971 1.64197C4.3973 1.64197 4.48404 1.65922 4.56497 1.69274C4.6459 1.72626 4.71943 1.7754 4.78137 1.83734V1.83801ZM12.3334 5.33334H3.66671C3.41812 5.33335 3.17845 5.42595 2.99443 5.59308C2.81041 5.76022 2.69524 5.9899 2.67137 6.23734L2.66671 6.33334V11.6667C2.66672 11.9153 2.75932 12.1549 2.92645 12.339C3.09359 12.523 3.32327 12.6381 3.57071 12.662L3.66671 12.6667H12.3334C12.582 12.6667 12.8216 12.5741 13.0057 12.4069C13.1897 12.2398 13.3048 12.0101 13.3287 11.7627L13.3334 11.6667V6.33334C13.3334 6.06812 13.228 5.81377 13.0405 5.62623C12.8529 5.4387 12.5986 5.33334 12.3334 5.33334ZM5.33337 7.33334C5.51019 7.33334 5.67975 7.40358 5.80478 7.5286C5.9298 7.65363 6.00004 7.82319 6.00004 8.00001V9.33334C6.00001 9.51013 5.92976 9.67968 5.80474 9.80468C5.67972 9.92968 5.51017 9.9999 5.33337 9.9999C5.15658 9.9999 4.98703 9.92968 4.86201 9.80468C4.73698 9.67968 4.66673 9.51013 4.66671 9.33334V8.00001C4.66671 7.82319 4.73695 7.65363 4.86197 7.5286C4.98699 7.40358 5.15656 7.33334 5.33337 7.33334ZM10.6667 7.33334C10.8435 7.33334 11.0131 7.40358 11.1381 7.5286C11.2631 7.65363 11.3334 7.82319 11.3334 8.00001V9.33334C11.3333 9.51013 11.2631 9.67968 11.1381 9.80468C11.0131 9.92968 10.8435 9.9999 10.6667 9.9999C10.4899 9.9999 10.3204 9.92968 10.1953 9.80468C10.0703 9.67968 10.0001 9.51013 10 9.33334V8.00001C10 7.82319 10.0703 7.65363 10.1953 7.5286C10.3203 7.40358 10.4899 7.33334 10.6667 7.33334Z" fill="black"/>
</svg>
