<svg width="14" height="14" viewBox="0 0 14 14" fill="none" xmlns="http://www.w3.org/2000/svg">
<path d="M14 7C14 6.043 13.807 5.131 13.459 4.301V4.275H13.45C12.396 1.787 9.944 0.0369999 7.081 0.00399995C7.08 0.00299995 7.073 0 7.073 0C7.073 0 7.068 0.00300002 7.067 0.00300002C7.044 0.00300002 7.022 0 7 0C3.134 0 0 3.135 0 7C0 10.866 3.133 14 7 14C7.022 14 7.044 13.997 7.066 13.997C7.067 13.997 7.073 14 7.073 14C7.073 14 7.08 13.997 7.081 13.996C10.909 13.952 14 10.839 14 7ZM7.074 13.035C6.587 12.631 5.713 11.635 5.312 9.509H8.832C8.431 11.64 7.557 12.635 7.074 13.035ZM5.201 8.704C5.142 8.2 5.1 7.663 5.1 7.048C5.1 6.305 5.16 5.668 5.244 5.081H8.9C8.985 5.668 9.046 6.306 9.046 7.048C9.046 7.663 9.004 8.2 8.945 8.704H5.201ZM0.805 7C0.805 6.33 0.915 5.686 1.113 5.081H4.419C4.341 5.671 4.295 6.324 4.295 7.048C4.295 7.652 4.332 8.196 4.388 8.704H1.049C0.893 8.162 0.805 7.592 0.805 7ZM7.07 0.985C7.533 1.397 8.332 2.372 8.757 4.275H5.383C5.804 2.366 6.599 1.398 7.07 0.985ZM9.727 5.081H12.887C13.084 5.686 13.194 6.33 13.194 7C13.194 7.592 13.106 8.162 12.95 8.704H9.758C9.814 8.196 9.851 7.652 9.851 7.048C9.851 6.324 9.805 5.671 9.727 5.081ZM12.555 4.275H9.593C9.254 2.613 8.642 1.559 8.104 0.91C10.063 1.265 11.7 2.542 12.555 4.275ZM6.063 0.884C5.521 1.53 4.896 2.591 4.553 4.275H1.445C2.323 2.492 4.03 1.194 6.063 0.884ZM1.34 9.509H4.502C4.822 11.317 5.463 12.442 6.028 13.111C3.929 12.777 2.179 11.393 1.34 9.509ZM8.141 13.085C8.701 12.413 9.328 11.292 9.644 9.509H12.659C11.843 11.342 10.164 12.706 8.141 13.085Z" fill="black"/>
</svg>
