<svg width="14" height="14" viewBox="0 0 14 14" fill="none" xmlns="http://www.w3.org/2000/svg">
<path d="M9.82674 13.6666C9.64993 13.6666 9.48036 13.5964 9.35534 13.4713C9.23031 13.3463 9.16007 13.1767 9.16007 12.9999V11.2666C9.18079 11.0672 9.15945 10.8657 9.09744 10.6751C9.03543 10.4845 8.93413 10.309 8.80007 10.1599C8.71708 10.0699 8.66047 9.95878 8.63647 9.83872C8.61246 9.71866 8.62199 9.5943 8.664 9.47929C8.70601 9.36428 8.77888 9.26307 8.87462 9.18674C8.97036 9.11041 9.08526 9.06193 9.20674 9.0466C10.8334 8.85327 12.3334 8.33327 12.3334 5.51327C12.3339 4.98665 12.1785 4.47168 11.8867 4.03327C11.6175 3.62969 11.5192 3.13585 11.6134 2.65993C11.6735 2.34948 11.6735 2.03039 11.6134 1.71994C11.1142 1.88872 10.6442 2.13385 10.2201 2.4466C10.1399 2.50354 10.0481 2.54204 9.95128 2.55933C9.85446 2.57662 9.75501 2.57227 9.66007 2.5466C8.45696 2.20664 7.18319 2.20664 5.98007 2.5466C5.88513 2.57227 5.78569 2.57662 5.68887 2.55933C5.59206 2.54204 5.50026 2.50354 5.42007 2.4466C4.99337 2.13023 4.51836 1.88485 4.01341 1.71994C3.95001 2.03006 3.95001 2.34981 4.01341 2.65993C4.1008 3.14184 3.99805 3.63885 3.72674 4.0466C3.43625 4.48808 3.28101 5.00479 3.28007 5.53327C3.28007 8.1266 4.53341 8.81993 6.41341 9.05993C6.53643 9.0752 6.65275 9.12446 6.74932 9.20219C6.84589 9.27991 6.91887 9.38302 6.96007 9.49993C6.99884 9.61338 7.00629 9.73518 6.98165 9.8525C6.95701 9.96982 6.9012 10.0783 6.82007 10.1666C6.69041 10.3052 6.59088 10.4692 6.52777 10.6482C6.46466 10.8272 6.43934 11.0173 6.45341 11.2066V12.9999C6.45338 13.1767 6.38313 13.3463 6.25811 13.4713C6.13309 13.5963 5.96353 13.6665 5.78674 13.6665C5.60995 13.6665 5.44039 13.5963 5.31537 13.4713C5.19035 13.3463 5.1201 13.1767 5.12007 12.9999V12.6199C4.46498 12.6953 3.80143 12.6075 3.18846 12.3644C2.5755 12.1213 2.03214 11.7304 1.60674 11.2266C1.38808 10.9842 1.12573 10.7852 0.833408 10.6399C0.748486 10.618 0.668707 10.5796 0.598626 10.5269C0.528544 10.4742 0.469533 10.4082 0.424961 10.3327C0.380389 10.2572 0.351129 10.1736 0.338852 10.0868C0.326575 9.99992 0.331521 9.91152 0.353408 9.8266C0.375295 9.74168 0.413694 9.6619 0.466413 9.59182C0.519132 9.52174 0.585138 9.46273 0.660663 9.41815C0.736188 9.37358 0.819753 9.34432 0.906586 9.33204C0.993419 9.31977 1.08182 9.32471 1.16674 9.3466C1.67957 9.53342 2.13781 9.84502 2.50007 10.2533C3.16674 10.9199 3.83341 11.5066 5.10007 11.2666C5.0778 10.9087 5.13001 10.55 5.25341 10.2133C3.88007 9.8666 1.92007 8.87993 1.92007 5.5466C1.91832 4.75702 2.15028 3.98458 2.58674 3.3266C2.66781 3.20514 2.69886 3.05707 2.67341 2.91327C2.53869 2.19365 2.6151 1.45043 2.89341 0.773268C2.93122 0.682978 2.98846 0.602123 3.06105 0.536448C3.13363 0.470773 3.2198 0.421888 3.31341 0.393268C3.54007 0.326602 4.35341 0.193268 5.89341 1.19327C7.14006 0.893271 8.44009 0.893271 9.68674 1.19327C11.2267 0.193268 12.0401 0.319935 12.2601 0.393268C12.3537 0.421888 12.4398 0.470773 12.5124 0.536448C12.585 0.602123 12.6423 0.682978 12.6801 0.773268C12.9589 1.45262 13.0353 2.19814 12.9001 2.91993C12.8864 2.98497 12.8859 3.05207 12.8985 3.11732C12.9111 3.18256 12.9365 3.24465 12.9734 3.29994C13.4111 3.95981 13.6432 4.73475 13.6401 5.5266C13.6401 8.9066 11.6934 9.8866 10.3067 10.1933C10.4289 10.551 10.4787 10.9294 10.4534 11.3066V12.9999C10.4537 13.17 10.389 13.3338 10.2725 13.4577C10.156 13.5817 9.99653 13.6564 9.82674 13.6666Z" fill="black"/>
</svg>
