<svg width="16" height="12" viewBox="0 0 16 12" fill="none" xmlns="http://www.w3.org/2000/svg">
<path d="M15.0394 3.7103C14.9858 2.61715 14.5035 1.63332 13.6826 0.938851C12.9238 0.297968 11.9271 -0.0428367 10.9519 0.00431862C10.6925 0.0171792 10.491 0.237952 10.5039 0.49945C10.5167 0.758804 10.7375 0.960286 10.999 0.947425C12.4201 0.878835 14.0084 1.93126 14.0984 3.75531C14.1113 4.00823 14.3192 4.20328 14.5699 4.20328C14.5785 4.20328 14.585 4.20328 14.5935 4.20328C14.8507 4.19257 15.0522 3.96965 15.0394 3.7103Z" fill="black"/>
<path d="M11.5047 1.85818C11.479 1.8496 11.464 1.84317 11.4426 1.8346C11.2732 1.76172 11.1596 1.74243 10.731 1.74243C10.4695 1.74243 10.2594 1.95249 10.2594 2.21399C10.2594 2.47548 10.4695 2.68554 10.731 2.68554C10.9646 2.68554 11.0375 2.69197 11.0589 2.69626C11.0632 2.6984 11.0696 2.70054 11.0739 2.70269C11.1061 2.71555 11.1553 2.73698 11.2261 2.76056C11.7362 2.91917 12.1435 3.31571 12.3149 3.82155C12.3814 4.01875 12.5657 4.14092 12.7608 4.14092C12.8101 4.14092 12.8615 4.13235 12.913 4.1152C13.1595 4.03161 13.2923 3.76368 13.2088 3.51719C12.9387 2.72626 12.3042 2.10681 11.5047 1.85818Z" fill="black"/>
<path d="M11.2563 5.79368C11.2563 5.79368 10.9133 5.70794 11.1555 5.365C11.1555 5.365 12.0129 3.47879 9.59728 3.6224C9.59728 3.6224 8.6113 3.82173 8.01114 4.07894C8.01114 4.07894 7.67248 4.18826 7.6982 3.93533C7.6982 3.93533 8.3841 1.84979 6.26854 2.03412C6.26854 2.03412 3.53996 2.3342 1.26794 6.25023C1.26794 6.25023 -0.431796 9.39463 3.42636 11.0236C3.42636 11.0236 6.08421 12.2089 9.35721 11.253C9.35721 11.253 12.5145 10.3099 12.9732 8.23718C12.971 8.23718 13.6419 6.36383 11.2563 5.79368ZM6.51932 10.8307C4.18942 10.9979 2.03528 10.297 1.86595 8.82448C1.67304 7.15261 3.7886 5.365 6.1185 5.19781C8.4484 5.03062 10.7311 6.28452 10.7311 8.01855C10.7311 9.46536 8.84922 10.6635 6.51932 10.8307Z" fill="black"/>
<path d="M5.46256 6.4173C4.14864 6.64236 3.2334 7.70336 3.42631 8.82651C3.58064 9.72032 4.89027 10.3612 6.20419 10.1361C7.5181 9.91109 8.30903 8.88653 8.18685 8.00987C8.01752 6.8074 6.77862 6.19224 5.46256 6.4173ZM5.12176 9.27878C4.63306 9.36237 4.1465 9.12445 4.08863 8.79222C4.01789 8.37425 4.35655 7.982 4.84526 7.89627C5.33396 7.81267 5.79479 8.03987 5.85695 8.48785C5.90411 8.81365 5.61046 9.19518 5.12176 9.27878ZM6.20633 8.11918C6.01771 8.15133 5.82694 8.03987 5.80122 7.89198C5.76907 7.7055 5.89553 7.53403 6.08415 7.50187C6.27277 7.46972 6.45282 7.57689 6.48069 7.77623C6.50212 7.91984 6.39281 8.08703 6.20633 8.11918Z" fill="black"/>
</svg>
