<svg width="30" height="30" viewBox="0 0 30 30" fill="none" xmlns="http://www.w3.org/2000/svg">
<path d="M25.6946 23.3433C25.5074 23.3433 25.3278 23.2688 25.1955 23.1362C25.0631 23.0035 24.9887 22.8237 24.9887 22.6361V5.39586C24.9887 5.18795 24.9478 4.98207 24.8683 4.79002C24.7888 4.59797 24.6723 4.4235 24.5254 4.27662C24.3786 4.12973 24.2042 4.0133 24.0124 3.93399C23.8206 3.85468 23.615 3.81405 23.4075 3.81443H6.21223C6.02502 3.81443 5.84547 3.73991 5.7131 3.60727C5.58072 3.47464 5.50635 3.29474 5.50635 3.10716C5.50635 2.91959 5.58072 2.73969 5.7131 2.60705C5.84547 2.47442 6.02502 2.3999 6.21223 2.3999H23.4075C23.8004 2.39972 24.1894 2.47706 24.5525 2.62752C24.9155 2.77798 25.2454 2.99861 25.5233 3.27681C25.8012 3.55501 26.0217 3.88534 26.1722 4.24893C26.3227 4.61251 26.4003 5.00224 26.4005 5.39586V22.6361C26.4005 22.8237 26.3261 23.0035 26.1937 23.1362C26.0614 23.2688 25.8818 23.3433 25.6946 23.3433Z" fill="black" stroke="black" stroke-width="0.5"/>
<path d="M20.7533 26.3959H4.94157C4.26761 26.3959 3.62125 26.1277 3.14468 25.6502C2.66812 25.1727 2.40039 24.5251 2.40039 23.8498V7.99438C2.40039 7.31911 2.66812 6.67148 3.14468 6.19399C3.62125 5.7165 4.26761 5.44824 4.94157 5.44824H20.7533C21.4273 5.44824 22.0737 5.7165 22.5502 6.19399C23.0268 6.67148 23.2945 7.31911 23.2945 7.99438V23.854C23.2934 24.5286 23.0252 25.1751 22.5487 25.6517C22.0723 26.1283 21.4266 26.3959 20.7533 26.3959ZM4.94157 6.86701C4.64203 6.86701 4.35476 6.98623 4.14295 7.19845C3.93115 7.41067 3.81216 7.6985 3.81216 7.99863V23.854C3.81216 24.1541 3.93115 24.442 4.14295 24.6542C4.35476 24.8664 4.64203 24.9856 4.94157 24.9856H20.7533C21.0529 24.9856 21.3402 24.8664 21.552 24.6542C21.7638 24.442 21.8828 24.1541 21.8828 23.854V7.99438C21.8828 7.69426 21.7638 7.40643 21.552 7.19421C21.3402 6.98199 21.0529 6.86277 20.7533 6.86277L4.94157 6.86701Z" fill="black" stroke="black" stroke-width="0.5"/>
<path d="M17.9074 19.4786C17.9085 19.5508 17.8935 19.6223 17.8634 19.6878C17.8334 19.7534 17.7891 19.8115 17.7337 19.8577C17.6166 19.9597 17.4654 20.0138 17.3102 20.009C17.1946 20.0137 17.0807 19.9809 16.9853 19.9153C16.8899 19.8498 16.8181 19.7552 16.7808 19.6455L15.7135 17.1899H10.0114L8.92291 19.6455C8.88557 19.7552 8.81385 19.8498 8.71845 19.9153C8.62304 19.9809 8.50906 20.0137 8.3935 20.009C8.23726 20.0112 8.08599 19.9541 7.96997 19.8492C7.91269 19.8026 7.86659 19.7437 7.83507 19.6769C7.80355 19.61 7.78741 19.537 7.78785 19.463C7.7885 19.3787 7.80932 19.2958 7.84856 19.2211L12.1742 9.58117C12.2276 9.44792 12.3234 9.33604 12.4467 9.2629C12.5681 9.19151 12.7068 9.15482 12.8476 9.15682C12.9916 9.15511 13.133 9.19435 13.2556 9.26998C13.3754 9.34416 13.4703 9.45253 13.5281 9.58117L17.8537 19.2211C17.8919 19.3014 17.9103 19.3897 17.9074 19.4786ZM15.2603 16.1587L12.8603 10.7184L10.466 16.1587H15.2603Z" fill="black" stroke="black" stroke-width="0.5"/>
<path d="M17.3168 20.151C17.1736 20.1554 17.0327 20.114 16.9145 20.0329C16.7962 19.9518 16.7068 19.8351 16.659 19.6998L15.6227 17.3319H10.1027L9.05095 19.7026C9.00304 19.8377 8.91346 19.954 8.79517 20.0346C8.67688 20.1152 8.53604 20.156 8.39306 20.151C8.20246 20.1534 8.01797 20.0837 7.87636 19.9558C7.8038 19.8961 7.74549 19.821 7.70567 19.7358C7.66586 19.6506 7.64555 19.5576 7.64624 19.4636C7.64738 19.3573 7.67298 19.2527 7.72106 19.158L12.0453 9.52371C12.1112 9.36389 12.2271 9.22986 12.3757 9.14179C12.5199 9.05813 12.684 9.01491 12.8507 9.01665C13.0173 9.01839 13.1805 9.06504 13.323 9.15169C13.4659 9.24008 13.5795 9.36909 13.6491 9.52229L17.9747 19.1623C18.0234 19.2607 18.0486 19.3692 18.0481 19.4791C18.0496 19.5716 18.0304 19.6632 17.9917 19.7472C17.9531 19.8312 17.8962 19.9054 17.8251 19.9643C17.6845 20.0873 17.5035 20.1538 17.3168 20.151ZM9.91918 17.049H15.8119L16.923 19.5951C16.9484 19.6802 17.0016 19.7543 17.074 19.8056C17.1464 19.8569 17.2339 19.8824 17.3225 19.878C17.4412 19.8812 17.5567 19.8393 17.6458 19.7606C17.6861 19.7281 17.7184 19.6866 17.7402 19.6395C17.762 19.5924 17.7727 19.5409 17.7714 19.489C17.7714 19.4214 17.756 19.3546 17.7262 19.2938L13.3921 9.6397C13.3447 9.53727 13.2687 9.4508 13.1733 9.39074C13.0754 9.32985 12.9624 9.29797 12.8472 9.2988C12.7341 9.29765 12.6228 9.32749 12.5253 9.38508C12.4279 9.4435 12.3525 9.5325 12.3107 9.63828L7.97659 19.2797C7.94644 19.3364 7.93 19.3994 7.92859 19.4636C7.92749 19.5178 7.93889 19.5715 7.96191 19.6206C7.98492 19.6697 8.01894 19.7127 8.0613 19.7465C8.15222 19.8285 8.27075 19.8729 8.39306 19.871C8.48145 19.8752 8.56872 19.8497 8.6409 19.7984C8.71309 19.7471 8.766 19.673 8.79118 19.588L9.91918 17.049ZM15.4773 16.3007H10.2538L12.8542 10.3682L15.4773 16.3007ZM10.6773 16.0178H15.0425L12.8557 11.067L10.6773 16.0178ZM17.6472 23.28H8.32953C8.14234 23.2799 7.96283 23.2054 7.83048 23.0728C7.69813 22.9401 7.62378 22.7602 7.62378 22.5727C7.62378 22.3851 7.69813 22.2053 7.83048 22.0726C7.96283 21.94 8.14234 21.8655 8.32953 21.8654H17.6472C17.8344 21.8655 18.0139 21.94 18.1462 22.0726C18.2786 22.2053 18.3529 22.3851 18.3529 22.5727C18.3529 22.7602 18.2786 22.9401 18.1462 23.0728C18.0139 23.2054 17.8344 23.2799 17.6472 23.28Z" fill="black" stroke="black" stroke-width="0.5"/>
</svg>
