<svg width="15" height="15" viewBox="0 0 15 15" fill="none" xmlns="http://www.w3.org/2000/svg">
<path d="M7.5 15C3.35787 15 0 11.6421 0 7.5C0 3.35787 3.35787 0 7.5 0C11.6421 0 15 3.35787 15 7.5C15 11.6421 11.6421 15 7.5 15ZM10.765 8.85458L11.5808 8.03868C12.4721 7.14049 12.4672 5.68695 11.5681 4.78787C10.669 3.88879 9.2155 3.88383 8.31728 4.77514V4.77512L7.50137 5.59102L6.68547 4.77514C5.78728 3.88383 4.33374 3.88879 3.43468 4.78787C2.53558 5.68695 2.53062 7.14047 3.42193 8.03868L4.23781 8.85458L7.50139 12.1182L10.765 8.85458H10.765Z" fill="#FF888F"/>
</svg>
