<svg width="118" height="118" viewBox="0 0 118 118" fill="none" xmlns="http://www.w3.org/2000/svg">
<path d="M59 116C90.4802 116 116 90.4802 116 59C116 27.5198 90.4802 2 59 2C27.5198 2 2 27.5198 2 59C2 90.4802 27.5198 116 59 116Z" fill="#FDB80A" stroke="url(#paint0_linear)" stroke-width="4"/>
<path d="M59 104C83.8528 104 104 83.8528 104 59C104 34.1472 83.8528 14 59 14C34.1472 14 14 34.1472 14 59C14 83.8528 34.1472 104 59 104Z" fill="#FDDF55" stroke="#FDA60C" stroke-width="4"/>
<path opacity="0.282715" fill-rule="evenodd" clip-rule="evenodd" d="M114 59C114 28.6243 89.3757 4 59 4C28.6243 4 4 28.6243 4 59C4 70.5833 26.73 37.6787 36.9869 47.9463C76 87 114 77.7924 114 59Z" fill="white"/>
<g filter="url(#filter0_d)">
<path d="M51.2961 77.2022L47.7786 78.9904C46.3017 79.7412 44.4957 79.1526 43.7449 77.6756C43.4586 77.1125 43.3574 76.4735 43.4556 75.8495L45.4134 63.4146L36.5205 54.5052C35.35 53.3326 35.3517 51.4331 36.5244 50.2626C36.9714 49.8164 37.5479 49.5226 38.1717 49.4232L50.603 47.4426L56.3283 36.2317C57.0818 34.7562 58.8889 34.1708 60.3645 34.9244C60.927 35.2117 61.3845 35.6692 61.6718 36.2317L67.397 47.4426L79.8283 49.4232C81.4645 49.6839 82.5796 51.2217 82.3189 52.8579C82.2195 53.4817 81.9258 54.0582 81.4796 54.5052L72.5866 63.4146L74.5444 75.8495C74.8021 77.4862 73.6842 79.0219 72.0475 79.2796C71.4235 79.3778 70.7845 79.2766 70.2214 78.9904L66.7039 77.2022C61.8628 74.7412 56.1372 74.7412 51.2961 77.2022Z" fill="black"/>
</g>
<path d="M51.2961 77.2022L47.7786 78.9904C46.3017 79.7412 44.4957 79.1526 43.7449 77.6756C43.4586 77.1125 43.3574 76.4735 43.4556 75.8495L45.4134 63.4146L36.5205 54.5052C35.35 53.3326 35.3517 51.4331 36.5244 50.2626C36.9714 49.8164 37.5479 49.5226 38.1717 49.4232L50.603 47.4426L56.3283 36.2317C57.0818 34.7562 58.8889 34.1708 60.3645 34.9244C60.927 35.2117 61.3845 35.6692 61.6718 36.2317L67.397 47.4426L79.8283 49.4232C81.4645 49.6839 82.5796 51.2217 82.3189 52.8579C82.2195 53.4817 81.9258 54.0582 81.4796 54.5052L72.5866 63.4146L74.5444 75.8495C74.8021 77.4862 73.6842 79.0219 72.0475 79.2796C71.4235 79.3778 70.7845 79.2766 70.2214 78.9904L66.7039 77.2022C61.8628 74.7412 56.1372 74.7412 51.2961 77.2022Z" fill="#FFF881"/>
<defs>
<filter id="filter0_d" x="25.6437" y="25.5955" width="66.713" height="64.7212" filterUnits="userSpaceOnUse" color-interpolation-filters="sRGB">
<feFlood flood-opacity="0" result="BackgroundImageFix"/>
<feColorMatrix in="SourceAlpha" type="matrix" values="0 0 0 0 0 0 0 0 0 0 0 0 0 0 0 0 0 0 127 0"/>
<feOffset dy="1"/>
<feGaussianBlur stdDeviation="5"/>
<feColorMatrix type="matrix" values="0 0 0 0 0.980392 0 0 0 0 0.392157 0 0 0 0 0 0 0 0 0.476699 0"/>
<feBlend mode="normal" in2="BackgroundImageFix" result="effect1_dropShadow"/>
<feBlend mode="normal" in="SourceGraphic" in2="effect1_dropShadow" result="shape"/>
</filter>
<linearGradient id="paint0_linear" x1="13.3062" y1="20.202" x2="59" y2="116" gradientUnits="userSpaceOnUse">
<stop stop-color="#FFEB90"/>
<stop offset="1" stop-color="#FF8201"/>
</linearGradient>
</defs>
</svg>
