<svg width="16" height="16" viewBox="0 0 16 16" fill="none" xmlns="http://www.w3.org/2000/svg">
<path fill-rule="evenodd" clip-rule="evenodd" d="M13.6569 13.6569C16.781 10.5327 16.781 5.46734 13.6569 2.34315C10.5327 -0.781049 5.46734 -0.781049 2.34315 2.34315C-0.781049 5.46734 -0.781049 10.5327 2.34315 13.6569C5.46734 16.781 10.5327 16.781 13.6569 13.6569ZM12.5962 12.5962C15.1346 10.0578 15.1346 5.94221 12.5962 3.40381C10.0578 0.865398 5.94221 0.865398 3.40381 3.40381C1.04476 5.76285 0.878071 9.48405 2.90374 12.0356L8.78625 6.15309L4.5473 6.62408L4.38165 5.13326L11.6774 4.32262L10.8667 11.6183L9.37592 11.4527L9.84691 7.21375L3.9644 13.0963C6.51594 15.1219 10.2371 14.9552 12.5962 12.5962Z" fill="black" fill-opacity="0.5"/>
</svg>
