<?xml version="1.0" standalone="no"?><!DOCTYPE svg PUBLIC "-//W3C//DTD SVG 1.1//EN" "http://www.w3.org/Graphics/SVG/1.1/DTD/svg11.dtd"><svg t="1632898789789" class="icon" viewBox="0 0 1024 1024" version="1.1" xmlns="http://www.w3.org/2000/svg" p-id="3300" xmlns:xlink="http://www.w3.org/1999/xlink" width="200" height="200"><defs><style type="text/css"></style></defs><path d="M512 233.4976a30.55104 30.55104 0 0 1-30.59712-30.59712V63.88224A30.55616 30.55616 0 0 1 512 33.28a30.55616 30.55616 0 0 1 30.592 30.60224v139.12064c0 16.82944-13.76768 30.49472-30.592 30.49472z m-154.51136 41.41056a30.5152 30.5152 0 0 1-26.51648-15.29856L261.42208 139.15648c-8.46848-14.58688-3.46624-33.3568 11.21792-41.82016 14.58176-8.46848 33.34656-3.46624 41.81504 11.21792l69.55008 120.45824c8.46336 14.58176 3.46624 33.35168-11.21792 41.81504a30.99136 30.99136 0 0 1-15.29856 4.08064z m-113.2032 113.11616a30.99136 30.99136 0 0 1-15.29344-4.08064L108.54912 314.38336c-14.58688-8.46848-19.6864-27.13088-11.22304-41.82016a30.55616 30.55616 0 0 1 41.81504-11.22304L259.584 330.9056c14.58688 8.46848 19.68128 27.13088 11.2128 41.82016-5.60128 9.89184-15.90272 15.29856-26.51136 15.29856z m-41.40544 154.52672H63.87712A30.55616 30.55616 0 0 1 33.28 511.9488a30.55616 30.55616 0 0 1 30.59712-30.60224h139.10528a30.55616 30.55616 0 0 1 30.592 30.60224c-0.09728 16.93184-13.76256 30.60224-30.6944 30.60224z m-78.93504 224.0768a30.49472 30.49472 0 0 1-26.51648-15.29856c-8.46848-14.58176-3.46624-33.35168 11.2128-41.80992l120.448-69.56544a30.58688 30.58688 0 0 1 41.81504 11.21792c8.46848 14.58688 3.47136 33.3568-11.21792 41.81504l-120.54528 69.56544a30.35136 30.35136 0 0 1-15.19616 4.07552z m163.8912 164.11648a30.96064 30.96064 0 0 1-15.29856-4.08576c-14.58176-8.46336-19.67616-27.12576-11.21792-41.81504l69.5552-120.45312c8.46336-14.58688 27.12576-19.69152 41.81504-11.21792 14.58176 8.46336 19.6864 27.13088 11.21792 41.82016l-69.5552 120.45312a30.50496 30.50496 0 0 1-26.51648 15.29856zM512 990.72a30.55616 30.55616 0 0 1-30.59712-30.60224V821.0944a30.55104 30.55104 0 0 1 30.59712-30.59712 30.55104 30.55104 0 0 1 30.592 30.59712v139.12576c0 16.82944-13.76768 30.49984-30.592 30.49984z m224.05632-59.97568a30.50496 30.50496 0 0 1-26.51136-15.29856l-69.5552-120.45312a30.592 30.592 0 0 1 11.2128-41.82016c14.58688-8.46848 33.3568-3.47136 41.81504 11.21792l69.5552 120.45312a30.58176 30.58176 0 0 1-11.21792 41.81504 30.96064 30.96064 0 0 1-15.29856 4.08576z m163.8912-164.11648a31.04256 31.04256 0 0 1-15.29856-4.07552l-120.44288-69.56544c-14.58688-8.45824-19.67616-27.13088-11.2128-41.81504 8.46336-14.58688 27.12576-19.68128 41.81504-11.21792l120.44288 69.56544c14.58688 8.45824 19.67616 27.13088 11.2128 41.80992-5.61152 9.90208-15.90272 15.29856-26.51648 15.29856z m60.07296-224.0768h-139.008a30.5664 30.5664 0 0 1-30.59712-30.60224 30.55616 30.55616 0 0 1 30.59712-30.60224h139.11552a30.55616 30.55616 0 0 1 30.59712 30.60224c-0.11264 16.93184-13.77792 30.60224-30.70464 30.60224z m-180.41344-154.52672a30.5152 30.5152 0 0 1-26.51648-15.29856 30.58688 30.58688 0 0 1 11.21792-41.82016l120.448-69.56032c14.58176-8.46336 33.34144-3.46624 41.8048 11.22304 8.46336 14.58176 3.47136 33.35168-11.20768 41.82016l-120.44288 69.5552a30.04416 30.04416 0 0 1-15.30368 4.08064z m-113.20832-113.11616a31.06816 31.06816 0 0 1-15.29856-4.07552c-14.58176-8.46848-19.67616-27.13088-11.20768-41.81504l69.55008-120.45824c8.46848-14.58688 27.13088-19.6864 41.81504-11.21792 14.58176 8.46336 19.6864 27.12576 11.2128 41.82016l-69.55008 120.45312c-5.61152 9.89184-15.90784 15.29344-26.5216 15.29344z" fill="#333333" p-id="3301"></path></svg>