<svg width="53" height="66" viewBox="0 0 53 66" fill="none" xmlns="http://www.w3.org/2000/svg">
<g filter="url(#filter0_b)">
<path d="M41.2302 66H10.9956C4.9236 66 0 61.0764 0 55.0044V35.7654C0 30.6438 3.5046 26.3538 8.2434 25.1328V24.7698H8.2236V17.9586C8.2236 7.9662 15.9588 0 25.9116 0C35.871 0 43.9956 7.9662 43.9956 17.9586V24.7632H43.9758V25.1262C48.7146 26.3472 52.2258 30.6372 52.2258 35.7588V54.9978C52.2258 61.0764 47.3022 66 41.2302 66ZM23.364 47.883V55.0044C23.364 56.5224 24.5916 57.75 26.1096 57.75C27.6276 57.75 28.8552 56.5224 28.8552 55.0044V47.883C31.449 46.8072 33.2772 44.2464 33.2772 41.2632C33.2772 37.3032 30.0696 34.089 26.103 34.089C22.143 34.089 18.9288 37.3032 18.9288 41.2632C18.942 44.2464 20.7636 46.8072 23.364 47.883ZM38.478 24.7698L38.4714 17.9652C38.4714 11.3718 32.5116 6.0192 25.9116 5.9928C19.3512 5.9928 13.7412 11.3652 13.7412 17.9652V24.7764L38.478 24.7698Z" fill="white" fill-opacity="0.9"/>
<path d="M39.479 25.7695L38.4783 25.7698L13.7415 25.7764L12.7412 25.7767V24.7764V17.9652C12.7412 10.7897 18.8224 4.9928 25.9116 4.9928H25.9156C32.9984 5.02114 39.4708 10.7553 39.4714 17.9642L39.479 25.7695ZM39.479 25.7695L39.478 24.7688L39.4714 17.9652L39.479 25.7695ZM8.49291 26.1012L9.2434 25.9078V25.1328V24.7698V23.7698H9.2236V17.9586C9.2236 8.49998 16.5294 1 25.9116 1C35.329 1 42.9956 8.52872 42.9956 17.9586V23.7632H42.9758V24.7632V25.1262V25.9012L43.7263 26.0946C48.0367 27.2052 51.2258 31.1071 51.2258 35.7588V54.9978C51.2258 60.5245 46.7495 65 41.2302 65H10.9956C5.47588 65 1 60.5241 1 55.0044V35.7654C1 31.1128 4.18337 27.2116 8.49291 26.1012ZM17.9288 41.2632L17.9288 41.2676C17.9428 44.4232 19.7344 47.1644 22.364 48.5206V55.0044C22.364 57.0747 24.0393 58.75 26.1096 58.75C28.1799 58.75 29.8552 57.0747 29.8552 55.0044V48.5199C32.4784 47.164 34.2772 44.4229 34.2772 41.2632C34.2772 36.7515 30.6225 33.089 26.103 33.089C21.5907 33.089 17.9288 36.7509 17.9288 41.2632Z" stroke="#E6E6E6" stroke-opacity="0.2" stroke-width="2"/>
</g>
<defs>
<filter id="filter0_b" x="-4" y="-4" width="60.2258" height="74" filterUnits="userSpaceOnUse" color-interpolation-filters="sRGB">
<feFlood flood-opacity="0" result="BackgroundImageFix"/>
<feGaussianBlur in="BackgroundImage" stdDeviation="2"/>
<feComposite in2="SourceAlpha" operator="in" result="effect1_backgroundBlur"/>
<feBlend mode="normal" in="SourceGraphic" in2="effect1_backgroundBlur" result="shape"/>
</filter>
</defs>
</svg>
