<svg id="图层_1" data-name="图层 1" xmlns="http://www.w3.org/2000/svg" viewBox="0 0 285.86 285.86"><defs><style>.cls-1{fill:#3233ff;}.cls-2{fill:#fff;}</style></defs><circle class="cls-1" cx="142.93" cy="142.93" r="142.93"/><polygon class="cls-2" points="154.74 204.65 167.74 217.64 175.99 217.64 190.11 217.64 222 217.64 222 197.3 209 184.31 190.11 184.31 188.46 184.31 188.46 182.66 188.46 113.59 188.46 111.94 190.11 111.94 226.25 111.94 226.25 91.61 213.23 78.6 49.8 78.6 49.8 98.91 62.83 111.94 86.32 111.94 87.97 111.94 87.97 113.59 87.97 204.55 101.06 217.64 121.68 217.64 121.68 113.59 121.68 111.94 123.33 111.94 153.09 111.94 154.74 111.94 154.74 113.59 154.74 204.65"/></svg>