<svg width="17" height="21" viewBox="0 0 17 21" fill="none" xmlns="http://www.w3.org/2000/svg">
<path fill-rule="evenodd" clip-rule="evenodd" d="M11.9059 6.28303L10.0082 9.5698C11.8817 11.0988 12.4584 13.7374 11.2519 15.8272C9.90663 18.1573 6.85924 18.9157 4.44562 17.5222C2.03201 16.1287 1.16517 13.1104 2.51044 10.7803C3.71695 8.69055 6.2904 7.8707 8.5497 8.72772L10.4473 5.44095L8.62205 5.89578C8.18018 6.0069 7.71883 5.74053 7.5925 5.30137C7.46618 4.8622 7.72298 4.41741 8.16648 4.30722L11.9093 3.37595C12.1352 3.32117 12.365 3.36434 12.5542 3.47775C12.747 3.58491 12.9002 3.76074 12.9648 3.98532L14.0281 7.69143C14.1544 8.1306 13.8976 8.5754 13.4541 8.68558C13.0123 8.7967 12.5509 8.53034 12.4246 8.09117L11.9059 6.28303ZM3.96735 11.6214C3.0708 13.1743 3.6484 15.1871 5.25747 16.1161C6.86655 17.0451 8.89844 16.5389 9.79499 14.986C10.6915 13.4332 10.1139 11.4204 8.50487 10.4914C6.89579 9.5624 4.8639 10.0686 3.96735 11.6214Z" fill="#0A7AFF"/>
</svg>
