<svg width="32" height="32" viewBox="0 0 32 32" fill="none" xmlns="http://www.w3.org/2000/svg">
<rect opacity="0.01" width="32" height="32" fill="black"/>
<path d="M24.2906 32H7.70937C3.46875 32 0 28.5312 0 24.2906V7.7125C0 3.46875 3.46875 0 7.70937 0H24.2875C28.5313 0 32 3.46875 32 7.70937V24.2875C32 28.5313 28.5312 32 24.2906 32Z" fill="#FFF6EB" fill-opacity="0.553224"/>
<path d="M24.8235 10.3529H7.17647C6.52678 10.3529 6 9.82618 6 9.17647C6 8.52676 6.52678 8 7.17647 8H24.8235C25.4732 8 26 8.52678 26 9.17647C26 9.82618 25.4732 10.3529 24.8235 10.3529ZM18.9412 17.4488H7.17647C6.52678 17.4488 6 16.922 6 16.2724C6 15.6226 6.52678 15.0959 7.17647 15.0959H18.9412C19.5909 15.0959 20.1176 15.6227 20.1176 16.2724C20.1176 16.922 19.5909 17.4488 18.9412 17.4488ZM22.4706 24.5444H7.17647C6.52678 24.5444 6 24.0176 6 23.368C6 22.7182 6.52678 22.1915 7.17647 22.1915H22.4706C23.1203 22.1915 23.647 22.7182 23.647 23.368C23.647 24.0176 23.1203 24.5444 22.4706 24.5444Z" fill="black"/>
</svg>
