<svg width="21" height="21" viewBox="0 0 21 21" fill="none" xmlns="http://www.w3.org/2000/svg">
<path fill-rule="evenodd" clip-rule="evenodd" d="M16.8342 9.84716C16.9461 10.7999 16.8049 11.8155 16.4236 12.8089C15.1692 16.0767 11.5043 17.7194 8.25274 16.4713C7.33361 16.1184 6.50679 15.5511 5.79492 14.7879C7.53422 14.3258 9.53609 13.5945 11.4826 12.722C12.4887 12.2784 14.9393 11.1294 16.8342 9.84716ZM17.8793 9.06853C19.2536 7.97631 19.7782 7.12789 19.4853 6.4656C19.1977 5.81527 18.4119 5.6336 16.9357 5.87679C16.7755 5.90525 16.6453 5.98527 16.5518 6.09935C16.4549 6.22219 16.412 6.38566 16.4433 6.53763C16.497 6.83821 16.7583 7.0385 17.0793 7.03172L17.1 7.02965C17.8581 6.92074 18.221 6.96011 18.3752 6.99926C18.2655 7.20711 17.83 7.7198 16.584 8.58132C15.569 9.28148 13.7737 10.382 10.9927 11.6141C8.23431 12.8649 6.21192 13.4683 5.00727 13.7557C3.65108 14.075 2.90907 14.0901 2.64956 14.0404C2.76456 13.8446 3.11265 13.3784 4.1116 12.642L4.12697 12.6279C4.30792 12.4674 4.3796 12.255 4.33037 12.0461C4.03603 10.8433 4.12483 9.49765 4.5965 8.26892C5.85756 4.98373 9.54646 3.33024 12.8154 4.58508C13.6998 4.92456 14.4639 5.44788 15.1512 6.17163L15.1565 6.18368C15.2664 6.28585 15.4052 6.33912 15.552 6.34552C15.7108 6.3464 15.8516 6.2905 15.9572 6.17109C16.1769 5.93542 16.176 5.5752 15.956 5.37078C15.1135 4.50743 14.2153 3.89268 13.1921 3.49993C9.33359 2.01878 4.97512 3.96508 3.48323 7.8516C2.9848 9.15005 2.86066 10.5621 3.11077 11.9579C1.71716 13.0226 1.20588 13.8362 1.51812 14.5259L1.52878 14.5501C1.64669 14.7353 1.81325 14.9492 2.15143 15.079C2.63695 15.2654 3.43768 15.2529 4.52758 15.0313C5.32447 16.117 6.49001 16.9944 7.80791 17.5003C11.6665 18.9815 16.025 17.0352 17.5169 13.1487C18.0273 11.8448 18.1475 10.3912 17.8793 9.06853Z" fill="white"/>
<path fill-rule="evenodd" clip-rule="evenodd" d="M10.9954 15.3293C11.4411 15.5004 11.9443 15.2866 12.117 14.8367C12.2 14.6205 12.189 14.3879 12.0969 14.1839C12.0048 13.9797 11.8282 13.8127 11.6184 13.7322C11.1727 13.5611 10.6782 13.7783 10.5089 14.2194C10.4259 14.4357 10.4369 14.6683 10.529 14.8723C10.6178 15.085 10.7856 15.2488 10.9954 15.3293ZM7.09515 9.84211C6.86793 9.75488 6.74335 9.47873 6.82968 9.25382C6.91602 9.02889 7.19335 8.90713 7.42057 8.99436C7.65656 9.08494 7.8041 9.37975 7.72109 9.596C7.63142 9.82958 7.34864 9.93941 7.09515 9.84211ZM7.746 8.14659C7.07306 7.88827 6.28038 8.22914 6.02138 8.90388C5.7657 9.56994 6.11462 10.359 6.7963 10.6206C7.49548 10.889 8.29692 10.5515 8.55593 9.8768C8.80951 9.19003 8.44517 8.41497 7.746 8.14659ZM10.6091 6.56576C10.7386 6.22831 11.1124 6.06415 11.4533 6.19499C11.7942 6.32586 11.9622 6.698 11.8326 7.03545C11.7031 7.37282 11.3293 7.53697 10.9884 7.40611C10.6563 7.27862 10.4796 6.90313 10.6091 6.56576ZM10.6629 8.25387C11.4496 8.55583 12.33 8.16922 12.6288 7.39069C12.9277 6.61208 12.5321 5.73574 11.7455 5.43379C10.9589 5.13185 10.0818 5.50979 9.78297 6.28832C9.48745 7.05819 9.89388 7.95866 10.6629 8.25387Z" fill="white"/>
</svg>
