<svg width="20" height="20" viewBox="0 0 20 20" fill="none" xmlns="http://www.w3.org/2000/svg">
<g clip-path="url(#clip0)">
<path d="M20 19.2111C20 19.6471 19.6552 20 19.2292 20C18.8032 20 18.4584 19.6471 18.4584 19.2111V18.7854C18.4584 16.813 14.5335 14.0205 10.0304 14.0205C6.4503 14.0205 1.54158 16.3666 1.54158 18.7024V19.2111C1.54158 19.6471 1.19675 20 0.770791 20C0.344828 20 0 19.6471 0 19.2111V18.2249C0 17.0414 1.714 14.0101 6.38945 12.889C4.70588 11.7055 3.59026 9.7227 3.59026 7.47C3.59026 3.84698 6.46045 0.909119 10 0.909119C13.5396 0.909119 16.4097 3.84698 16.4097 7.47C16.4097 9.68118 15.3347 11.6328 13.6917 12.8267C18.4179 13.9063 20 17.0933 20 18.2249V19.2111ZM14.8682 7.45962C14.8682 4.70862 12.6877 2.47667 10 2.47667C7.31241 2.47667 5.13189 4.70862 5.13189 7.45962C5.13189 10.2106 7.31241 12.4426 10 12.4426C12.6877 12.4426 14.8682 10.2106 14.8682 7.45962Z" fill="black"/>
<g clip-path="url(#clip1)">
<circle cx="15" cy="13" r="5" fill="white"/>
<mask id="path-3-outside-1" maskUnits="userSpaceOnUse" x="-65" y="-67" width="160" height="160" fill="black">
<rect fill="white" x="-65" y="-67" width="160" height="160"/>
<path d="M15 18C12.2386 18 10 15.7614 10 13C10 10.2386 12.2386 8 15 8C17.7614 8 20 10.2386 20 13C20 15.7614 17.7614 18 15 18ZM15 17.3023C15.565 17.3023 16.1244 17.191 16.6464 16.9748C17.1684 16.7586 17.6427 16.4417 18.0422 16.0422C18.4417 15.6427 18.7586 15.1684 18.9748 14.6464C19.191 14.1244 19.3023 13.565 19.3023 13C19.3023 12.435 19.191 11.8756 18.9748 11.3536C18.7586 10.8316 18.4417 10.3573 18.0422 9.9578C17.6427 9.55829 17.1684 9.24138 16.6464 9.02517C16.1244 8.80896 15.565 8.69767 15 8.69767C13.859 8.69767 12.7646 9.15095 11.9578 9.9578C11.151 10.7646 10.6977 11.859 10.6977 13C10.6977 14.141 11.151 15.2354 11.9578 16.0422C12.7646 16.849 13.859 17.3023 15 17.3023Z"/>
</mask>
<path d="M15 18C12.2386 18 10 15.7614 10 13C10 10.2386 12.2386 8 15 8C17.7614 8 20 10.2386 20 13C20 15.7614 17.7614 18 15 18ZM15 17.3023C15.565 17.3023 16.1244 17.191 16.6464 16.9748C17.1684 16.7586 17.6427 16.4417 18.0422 16.0422C18.4417 15.6427 18.7586 15.1684 18.9748 14.6464C19.191 14.1244 19.3023 13.565 19.3023 13C19.3023 12.435 19.191 11.8756 18.9748 11.3536C18.7586 10.8316 18.4417 10.3573 18.0422 9.9578C17.6427 9.55829 17.1684 9.24138 16.6464 9.02517C16.1244 8.80896 15.565 8.69767 15 8.69767C13.859 8.69767 12.7646 9.15095 11.9578 9.9578C11.151 10.7646 10.6977 11.859 10.6977 13C10.6977 14.141 11.151 15.2354 11.9578 16.0422C12.7646 16.849 13.859 17.3023 15 17.3023Z" fill="black"/>
<path d="M15 17.3023L15 92.3023L15 17.3023ZM15 8.69767L15 83.6977L15 8.69767ZM10.6977 13H-64.3023H10.6977ZM15 -57C53.66 -57 85 -25.66 85 13H-65C-65 57.1828 -29.1828 93 15 93V-57ZM85 13C85 51.66 53.66 83 15 83V-67C-29.1828 -67 -65 -31.1828 -65 13H85ZM15 83C-23.66 83 -55 51.66 -55 13H95C95 -31.1828 59.1828 -67 15 -67V83ZM-55 13C-55 -25.66 -23.66 -57 15 -57V93C59.1828 93 95 57.1828 95 13H-55ZM15 92.3023C25.4142 92.3023 35.7263 90.2511 45.3477 86.2658L-12.0548 -52.3161C-3.47741 -55.869 5.71583 -57.6977 15 -57.6977L15 92.3023ZM45.3477 86.2658C54.9691 82.2805 63.7114 76.4391 71.0752 69.0752L-34.9908 -36.9908C-28.426 -43.5556 -20.6323 -48.7632 -12.0548 -52.3161L45.3477 86.2658ZM71.0752 69.0752C78.4391 61.7114 84.2805 52.9692 88.2658 43.3477L-50.3161 -14.0548C-46.7632 -22.6323 -41.5556 -30.426 -34.9908 -36.9908L71.0752 69.0752ZM88.2658 43.3477C92.2511 33.7262 94.3023 23.4141 94.3023 13H-55.6977C-55.6977 3.71592 -53.869 -5.47733 -50.3161 -14.0548L88.2658 43.3477ZM94.3023 13C94.3023 2.58594 92.2511 -7.72622 88.2658 -17.3477L-50.3161 40.0548C-53.869 31.4773 -55.6977 22.2841 -55.6977 13H94.3023ZM88.2658 -17.3477C84.2805 -26.9691 78.4391 -35.7113 71.0752 -43.0752L-34.9908 62.9908C-41.5557 56.4259 -46.7632 48.6323 -50.3161 40.0548L88.2658 -17.3477ZM71.0752 -43.0752C63.7113 -50.4391 54.9691 -56.2805 45.3477 -60.2658L-12.0548 78.3161C-20.6323 74.7632 -28.4259 69.5557 -34.9908 62.9908L71.0752 -43.0752ZM45.3477 -60.2658C35.7263 -64.2511 25.4141 -66.3023 15 -66.3023L15 83.6977C5.71584 83.6977 -3.4774 81.869 -12.0548 78.3161L45.3477 -60.2658ZM15 -66.3023C-6.03228 -66.3023 -26.2031 -57.9473 -41.0752 -43.0752L64.9908 62.9908C51.7324 76.2492 33.7502 83.6977 15 83.6977L15 -66.3023ZM-41.0752 -43.0752C-55.9473 -28.2031 -64.3023 -8.03227 -64.3023 13H85.6977C85.6977 31.7502 78.2492 49.7324 64.9908 62.9908L-41.0752 -43.0752ZM-64.3023 13C-64.3023 34.0323 -55.9473 54.2031 -41.0752 69.0752L64.9908 -36.9908C78.2492 -23.7324 85.6977 -5.75019 85.6977 13H-64.3023ZM-41.0752 69.0752C-26.2032 83.9473 -6.03232 92.3023 15 92.3023L15 -57.6977C33.7502 -57.6977 51.7324 -50.2492 64.9908 -36.9908L-41.0752 69.0752Z" fill="black" mask="url(#path-3-outside-1)"/>
<path fill-rule="evenodd" clip-rule="evenodd" d="M16.4133 10.0164L17.7633 11.3664C17.8035 11.4038 17.8357 11.449 17.8581 11.4992C17.8804 11.5493 17.8925 11.6035 17.8934 11.6584C17.8944 11.7134 17.8843 11.7679 17.8637 11.8189C17.8431 11.8698 17.8125 11.9161 17.7737 11.9549C17.7411 11.9874 17.7034 12.0142 17.6621 12.0341C17.5967 12.1326 17.482 12.1818 17.3182 12.1818H12.6818C12.4091 12.1818 12.2727 12.0454 12.2727 11.7727C12.2727 11.5 12.4091 11.3636 12.6818 11.3636H16.6035L15.8346 10.5956C15.7623 10.5181 15.723 10.4155 15.7248 10.3095C15.7267 10.2035 15.7696 10.1024 15.8446 10.0275C15.9195 9.95252 16.0206 9.90959 16.1266 9.90772C16.2326 9.90585 16.3352 9.94519 16.4127 10.0174L16.4133 10.0164ZM12.5618 14.4133L13.9118 15.7633C13.9493 15.8035 13.9944 15.8357 14.0446 15.8581C14.0948 15.8804 14.149 15.8924 14.2039 15.8934C14.2588 15.8944 14.3134 15.8843 14.3643 15.8637C14.4153 15.8431 14.4615 15.8125 14.5004 15.7737C14.5392 15.7348 14.5699 15.6885 14.5904 15.6376C14.611 15.5867 14.6211 15.5321 14.6201 15.4772C14.6192 15.4222 14.6072 15.3681 14.5848 15.3179C14.5624 15.2677 14.5302 15.2225 14.49 15.1851L13.6695 14.3636H17.3182C17.5909 14.3636 17.7273 14.2273 17.7273 13.9545C17.7273 13.6818 17.5909 13.5454 17.3182 13.5454H12.6818C12.4091 13.5454 12.2727 13.6818 12.2727 13.9545C12.2727 14.1617 12.3514 14.2902 12.5089 14.34C12.524 14.366 12.5421 14.3904 12.5629 14.4127L12.5618 14.4133Z" fill="black"/>
</g>
</g>
<defs>
<clipPath id="clip0">
<rect width="20" height="20" fill="white"/>
</clipPath>
<clipPath id="clip1">
<rect width="12" height="12" fill="white" transform="translate(9 7)"/>
</clipPath>
</defs>
</svg>
