<svg width="20" height="20" viewBox="0 0 20 20" fill="none" xmlns="http://www.w3.org/2000/svg">
<circle cx="7.34109" cy="9.79568" r="1.02273" fill="white"/>
<circle cx="12.659" cy="9.79568" r="1.02273" fill="white"/>
<path fill-rule="evenodd" clip-rule="evenodd" d="M1 10C1 14.9706 5.02944 19 10 19C14.9706 19 19 14.9706 19 10C19 5.02944 14.9706 1 10 1C5.02944 1 1 5.02944 1 10ZM17.3636 10C17.3636 14.0668 14.0668 17.3636 10 17.3636C5.93318 17.3636 2.63636 14.0668 2.63636 10C2.63636 5.93318 5.93318 2.63636 10 2.63636C14.0668 2.63636 17.3636 5.93318 17.3636 10Z" fill="white"/>
<path fill-rule="evenodd" clip-rule="evenodd" d="M7.98602 12.7595C7.79131 12.053 8.80292 12.0454 8.80292 12.0454H10H11.1972C11.1972 12.0454 12.2088 12.053 12.0141 12.7595C11.8194 13.4659 11.2889 14.5 10 14.5C8.71117 14.5 8.18073 13.4659 7.98602 12.7595Z" fill="white"/>
</svg>
