<svg width="23" height="23" viewBox="0 0 23 23" fill="none" xmlns="http://www.w3.org/2000/svg">
<path d="M11.5 22.7501C5.28648 22.7501 0.25 17.7136 0.25 11.5001C0.25 5.28661 5.28648 0.250122 11.5 0.250122C17.7135 0.250122 22.75 5.28661 22.75 11.5001C22.75 17.7136 17.7135 22.7501 11.5 22.7501ZM7.63281 10.797C8.09901 10.797 8.54612 10.6118 8.87577 10.2821C9.20543 9.95249 9.39063 9.50539 9.39063 9.03919C9.39063 8.57298 9.20543 8.12588 8.87577 7.79622C8.54612 7.46657 8.09901 7.28137 7.63281 7.28137C7.16661 7.28137 6.71951 7.46657 6.38985 7.79622C6.0602 8.12588 5.875 8.57298 5.875 9.03919C5.875 9.50539 6.0602 9.95249 6.38985 10.2821C6.71951 10.6118 7.16661 10.797 7.63281 10.797ZM15.3672 10.797C15.8334 10.797 16.2805 10.6118 16.6101 10.2821C16.9398 9.95249 17.125 9.50539 17.125 9.03919C17.125 8.57298 16.9398 8.12588 16.6101 7.79622C16.2805 7.46657 15.8334 7.28137 15.3672 7.28137C14.901 7.28137 14.4539 7.46657 14.1242 7.79622C13.7946 8.12588 13.6094 8.57298 13.6094 9.03919C13.6094 9.50539 13.7946 9.95249 14.1242 10.2821C14.4539 10.6118 14.901 10.797 15.3672 10.797ZM7.21938 16.2877C8.62211 17.3079 10.053 17.8282 11.5 17.8282C12.947 17.8282 14.3779 17.3079 15.7806 16.2877C15.9315 16.1781 16.0326 16.013 16.0618 15.8288C16.0909 15.6445 16.0457 15.4563 15.936 15.3054C15.8264 15.1546 15.6613 15.0534 15.4771 15.0243C15.2929 14.9952 15.1046 15.0404 14.9538 15.15C13.7781 16.005 12.6313 16.422 11.5 16.422C10.3687 16.422 9.22188 16.005 8.04625 15.15C7.97155 15.0958 7.88689 15.0567 7.7971 15.0351C7.70731 15.0136 7.61415 15.0099 7.52294 15.0243C7.43172 15.0387 7.34425 15.071 7.2655 15.1192C7.18675 15.1675 7.11828 15.2307 7.06399 15.3054C6.95433 15.4563 6.90911 15.6445 6.93825 15.8288C6.96739 16.013 7.06851 16.1781 7.21938 16.2877Z"/>
</svg>
