<svg id="图层_1" data-name="图层 1" xmlns="http://www.w3.org/2000/svg" viewBox="0 0 717.5 285.86"><defs><style>.cls-1{fill:#3233ff;}.cls-2{fill:#fff;}</style></defs><path d="M329.21,32.79h64.65V45.18H369.2v80.25H354V45.18H329.21Z"/><path d="M441.05,126.63c-20.93,0-36.79-14.93-36.79-38s16.53-37.86,37.45-37.86,37.46,14.8,37.46,37.86S462.11,126.63,441.05,126.63Zm0-13.2c11.33,0,22.52-8.13,22.52-24.79S452.78,64,441.45,64s-21.73,8-21.73,24.66S429.58,113.43,441.05,113.43Z"/><path d="M494.23,26.79h15.2V84.11L536.09,52h21.06L523.29,88.77l33.86,36.66H536.62L509.43,93.84v31.59h-15.2Z"/><path d="M599.67,126.63c-21.06,0-36.65-14.93-36.65-38s14.92-37.86,36.65-37.86c20.93,0,35.72,14.53,35.72,36.13a46.8,46.8,0,0,1-.53,7.46H578.74c1.07,12.13,9.73,19.46,20.93,19.46,9.33,0,14.53-4.53,17.33-10.26h16.39C629.26,116.36,617.67,126.63,599.67,126.63ZM578.88,82.11h40.65c-.26-11.33-9.2-18.53-20.53-18.53C588.74,63.58,580.48,70.51,578.88,82.11Z"/><path d="M702.44,84.37c0-13.46-7.33-20.39-18.39-20.39s-18.53,6.93-18.53,20.39v41.06H650.33V52h15.19v8.4c4.93-6,13.06-9.6,21.86-9.6,17.2,0,30.12,10.8,30.12,31.33v43.32H702.44Z"/><path d="M376.26,154.92c19.33,0,36,9.73,43.06,27.86H401.06c-4.94-9.86-13.73-14.53-24.8-14.53-18.39,0-31.72,13.06-31.72,34s13.33,34.13,31.72,34.13c11.07,0,19.86-4.67,24.8-14.53h18.26c-7.07,18.12-23.73,27.72-43.06,27.72-26.12,0-47.32-19.46-47.32-47.32S350.14,154.92,376.26,154.92Z"/><path d="M435.05,155.86a9.67,9.67,0,1,1,9.73,9.73A9.62,9.62,0,0,1,435.05,155.86Zm2,19.46h15.2v73.44h-15.2Z"/><path d="M474.64,187.71H466V175.32h8.66V157.06H490v18.26h17.86v12.39H490v40.66c0,5.46,2.13,7.73,8.53,7.73h9.33v12.66h-12c-13.06,0-21.19-5.46-21.19-20.39Z"/><path d="M572.21,175.32h15.73l-45.05,108H527.16l14.93-35.72-28.93-72.24h16.93l20.66,56Z"/><circle class="cls-1" cx="142.93" cy="142.93" r="142.93"/><polygon class="cls-2" points="154.74 204.65 167.74 217.64 175.99 217.64 190.11 217.64 222 217.64 222 197.3 209 184.31 190.11 184.31 188.46 184.31 188.46 182.66 188.46 113.59 188.46 111.94 190.11 111.94 226.25 111.94 226.25 91.61 213.23 78.6 49.8 78.6 49.8 98.91 62.83 111.94 86.32 111.94 87.97 111.94 87.97 113.59 87.97 204.55 101.06 217.64 121.68 217.64 121.68 113.59 121.68 111.94 123.33 111.94 153.09 111.94 154.74 111.94 154.74 113.59 154.74 204.65"/></svg>