<svg width="26" height="28" viewBox="0 0 26 28" fill="none" xmlns="http://www.w3.org/2000/svg">
<path d="M21.8923 5.97927L15.5 2.28868C13.953 1.39551 12.047 1.39551 10.5 2.28868L4.1077 5.97927C2.56069 6.87244 1.6077 8.52307 1.6077 10.3094V17.6906C1.6077 19.4769 2.56069 21.1276 4.1077 22.0207L10.5 25.7113C12.047 26.6045 13.953 26.6045 15.5 25.7113L21.8923 22.0207C23.4393 21.1276 24.3923 19.4769 24.3923 17.6906V10.3094C24.3923 8.52307 23.4393 6.87244 21.8923 5.97927Z" fill="url(#paint0_linear)" stroke="#FCFCFD" stroke-width="2"/>
<path d="M12.1022 9.56368C12.2067 9.38071 12.0519 9.15841 11.844 9.19305L10.8723 9.355C10.7238 9.37976 10.6307 9.52922 10.674 9.67344L10.9766 10.6823C11.0398 10.8928 11.3242 10.9253 11.4332 10.7345L12.1022 9.56368Z" fill="#FCFCFD"/>
<path d="M9.81676 10.296C9.76102 10.1102 9.525 10.0567 9.39841 10.2037C9.00585 10.6594 8.63509 11.1383 8.25114 11.599C8.22978 11.6246 8.20939 11.6508 8.18999 11.6775C8.08587 11.8206 8.20416 12.0002 8.38117 12.0002H9.99202C10.1595 12.0002 10.2796 11.8388 10.2315 11.6784L9.81676 10.296Z" fill="#FCFCFD"/>
<path d="M8.30794 13C8.13978 13 8.02038 13.1639 8.10458 13.3095C8.1316 13.3562 8.16136 13.4018 8.19385 13.4461L11.7905 18.3506C11.8506 18.4326 11.917 18.5064 11.9884 18.5719C12.1437 18.7145 12.3383 18.5502 12.2762 18.3487L10.6824 13.1764C10.6501 13.0715 10.5532 13 10.4435 13H8.30794Z" fill="#FCFCFD"/>
<path d="M13.7238 18.3488C13.6617 18.5503 13.8563 18.7147 14.0116 18.5721C14.0831 18.5065 14.1495 18.4327 14.2097 18.3506L17.8063 13.4461C17.8388 13.4018 17.8686 13.3562 17.8956 13.3095C17.9798 13.1639 17.8604 13 17.6922 13H15.5567C15.4469 13 15.35 13.0715 15.3177 13.1764L13.7238 18.3488Z" fill="#FCFCFD"/>
<path d="M17.619 12.0003C17.796 12.0003 17.9143 11.8207 17.8102 11.6776C17.7907 11.6509 17.7704 11.6247 17.749 11.5991C17.365 11.1383 16.9943 10.6595 16.6017 10.2037C16.4751 10.0567 16.2391 10.1102 16.1833 10.296L15.7686 11.6784C15.7205 11.8389 15.8406 12.0003 16.0081 12.0003H17.619Z" fill="#FCFCFD"/>
<path d="M15.1277 9.35502C15.2762 9.37977 15.3693 9.52923 15.3261 9.67345L15.0234 10.6824C14.9603 10.8928 14.6759 10.9254 14.5669 10.7346L13.8978 9.56369C13.7932 9.38071 13.9481 9.15841 14.1559 9.19305L15.1277 9.35502Z" fill="#FCFCFD"/>
<path d="M13 10.0078L13.9247 11.626C14.02 11.7927 13.8996 12 13.7077 12H12.2924C12.1005 12 11.9801 11.7927 12.0754 11.626L13 10.0078Z" fill="#FCFCFD"/>
<path d="M13.239 16.5232C13.1666 16.7586 12.8335 16.7586 12.7611 16.5232L11.7765 13.3235C11.7271 13.1628 11.8473 13 12.0155 13H13.9846C14.1528 13 14.273 13.1628 14.2235 13.3235L13.239 16.5232Z" fill="#FCFCFD"/>
<defs>
<linearGradient id="paint0_linear" x1="5" y1="3.2" x2="18.2" y2="26.8" gradientUnits="userSpaceOnUse">
<stop stop-color="#FFC635"/>
<stop offset="0.553987" stop-color="#DEB46F"/>
<stop offset="1" stop-color="#BD7600"/>
</linearGradient>
</defs>
</svg>
