<svg width="229" height="203" viewBox="0 0 229 203" fill="none" xmlns="http://www.w3.org/2000/svg">
<g clip-path="url(#clip0_2706:4211)">
<path d="M114.5 130C61.2045 130 18 173.428 18 227H211C211 173.428 167.795 130 114.5 130Z" fill="url(#paint0_linear_2706:4211)"/>
<path d="M116.534 46.7828C119.435 46.532 127.826 44.8925 133.506 39.27C139.185 33.6476 140.958 28.534 141.719 26.8139" stroke="#E6E8EC" stroke-width="2" stroke-linecap="round"/>
<path d="M106.859 30.5802C109.761 30.3294 118.152 28.6898 123.831 23.0674C129.51 17.445 131.283 12.3314 132.044 10.6113" stroke="#E6E8EC" stroke-width="2" stroke-linecap="round"/>
<path d="M101.644 64.6272C95.5541 67.1187 88.0179 65.4183 85.011 64.2566C88.4194 62.226 90.7091 60.5061 92.4497 56.7568C93.6208 54.2342 96.4895 49.353 100.031 49.1089C102.864 48.9137 105.543 50.5701 106.529 51.4227L108.73 48.066L110.484 48.6128C109.172 50.3534 105.987 54.3341 103.748 56.3313C101.508 58.3285 96.6743 61.2177 94.5373 62.4126C95.8472 62.0187 99.0018 60.9355 101.141 59.7541C103.28 58.5727 106.938 55.4644 108.499 54.058C108.799 54.5365 109.409 55.7084 109.449 56.568C109.499 57.6424 109.256 61.5129 101.644 64.6272Z" fill="#E6E8EC"/>
<path d="M63.7923 88.2237C62.8161 84.4272 65.6832 80.7295 69.6033 80.7295L137.402 80.7295C140.14 80.7295 142.531 82.5833 143.213 85.2352L156.911 138.506C157.887 142.302 155.02 146 151.1 146H83.3014C80.5631 146 78.1723 144.146 77.4904 141.494L63.7923 88.2237Z" fill="#E6E8EC"/>
<path d="M62.0669 84.5787C61.026 80.7619 63.8993 77 67.8555 77H96.4442C99.15 77 101.521 78.8109 102.233 81.4213L115.744 130.962C116.785 134.779 113.912 138.541 109.955 138.541H81.3666C78.6609 138.541 76.2899 136.73 75.578 134.119L62.0669 84.5787Z" fill="#E6E8EC"/>
<path d="M88.0991 89.2145C88.6872 86.4422 91.1347 84.4595 93.9685 84.4595H161.891C165.706 84.4595 168.552 87.9727 167.76 91.7045L157.252 141.245C156.663 144.017 154.216 146 151.382 146H83.4599C79.6452 146 76.799 142.487 77.5905 138.755L88.0991 89.2145Z" fill="#F6F6F6"/>
<g clip-path="url(#clip1_2706:4211)">
<path d="M130.708 123.602C129.557 123.94 127.717 124 125.725 124C121.895 124 119 123.56 119 122.5C119 120.485 120.999 118.712 123.872 118.17C123.063 117.818 122.403 117.208 122.003 116.442C121.602 115.676 121.486 114.801 121.672 113.962C121.859 113.124 122.337 112.372 123.028 111.833C123.718 111.294 124.579 111 125.466 111C126.346 111 127.199 111.288 127.886 111.817C128.574 112.347 129.055 113.087 129.251 113.915C129.446 114.744 129.345 115.612 128.964 116.377C128.582 117.143 127.943 117.76 127.151 118.129C127.603 118.212 128.04 118.332 128.453 118.486C128.245 118.666 128.079 118.887 127.966 119.134C127.852 119.38 127.794 119.647 127.794 119.917C127.794 121.791 129.657 122.893 130.708 123.602V123.602ZM130.3 118.5C130.75 118.5 131.146 118.705 131.415 119.017C131.685 118.705 132.082 118.5 132.531 118.5C133.34 118.5 134.002 119.144 134.002 119.938C134.002 121.564 132.128 122.417 131.496 122.932L131.415 123L131.335 122.932C130.702 122.417 128.829 121.564 128.829 119.938C128.829 119.145 129.491 118.5 130.3 118.5H130.3Z" fill="#B8C2FF"/>
</g>
</g>
<defs>
<linearGradient id="paint0_linear_2706:4211" x1="114.5" y1="130" x2="114.5" y2="227" gradientUnits="userSpaceOnUse">
<stop stop-color="#E5EFF5"/>
<stop offset="0.477843" stop-color="#E5EFF5" stop-opacity="0"/>
</linearGradient>
<clipPath id="clip0_2706:4211">
<rect width="229" height="203" fill="white"/>
</clipPath>
<clipPath id="clip1_2706:4211">
<rect width="15" height="13" fill="white" transform="translate(119 111)"/>
</clipPath>
</defs>
</svg>
