<svg width="229" height="203" viewBox="0 0 229 203" fill="none" xmlns="http://www.w3.org/2000/svg">
<g clip-path="url(#clip0_2706:4188)">
<path d="M114.5 130C61.2045 130 18 173.428 18 227H211C211 173.428 167.795 130 114.5 130Z" fill="url(#paint0_linear_2706:4188)"/>
<path d="M63.7923 97.2237C62.8161 93.4272 65.6832 89.7295 69.6033 89.7295L137.402 89.7295C140.14 89.7295 142.531 91.5833 143.213 94.2352L156.911 147.506C157.887 151.302 155.02 155 151.1 155H83.3014C80.5631 155 78.1723 153.146 77.4904 150.494L63.7923 97.2237Z" fill="#E6E8EC"/>
<path d="M62.0669 93.5787C61.026 89.7619 63.8993 86 67.8555 86H96.4442C99.15 86 101.521 87.8109 102.233 90.4213L115.744 139.962C116.785 143.779 113.912 147.541 109.955 147.541H81.3666C78.6609 147.541 76.2899 145.73 75.578 143.119L62.0669 93.5787Z" fill="#E6E8EC"/>
<path d="M88.0991 98.2145C88.6872 95.4422 91.1347 93.4595 93.9685 93.4595H161.891C165.706 93.4595 168.552 96.9727 167.76 100.704L157.252 150.245C156.663 153.017 154.216 155 151.382 155H83.4599C79.6452 155 76.799 151.487 77.5905 147.755L88.0991 98.2145Z" fill="#F6F6F6"/>
<path d="M126.406 117.703L128.984 121.614L133.5 122.857L130.577 126.517L130.79 131.197L126.406 129.548L122.021 131.197L122.234 126.517L119.311 122.857L123.828 121.614L126.406 117.703Z" fill="#FFE600"/>
<path d="M116.534 46.7828C119.435 46.532 127.826 44.8925 133.506 39.27C139.185 33.6476 140.958 28.534 141.719 26.8139" stroke="#E6E8EC" stroke-width="2" stroke-linecap="round"/>
<path d="M106.859 30.5802C109.761 30.3294 118.152 28.6898 123.831 23.0674C129.51 17.445 131.283 12.3314 132.044 10.6113" stroke="#E6E8EC" stroke-width="2" stroke-linecap="round"/>
<path d="M101.644 64.6272C95.5541 67.1187 88.0179 65.4183 85.011 64.2566C88.4194 62.226 90.7091 60.5061 92.4497 56.7568C93.6208 54.2342 96.4895 49.353 100.031 49.1089C102.864 48.9137 105.543 50.5701 106.529 51.4227L108.73 48.066L110.484 48.6128C109.172 50.3534 105.987 54.3341 103.748 56.3313C101.508 58.3285 96.6743 61.2177 94.5373 62.4126C95.8472 62.0187 99.0018 60.9355 101.141 59.7541C103.28 58.5727 106.938 55.4644 108.499 54.058C108.799 54.5365 109.409 55.7084 109.449 56.568C109.499 57.6424 109.256 61.5129 101.644 64.6272Z" fill="#E6E8EC"/>
</g>
<defs>
<linearGradient id="paint0_linear_2706:4188" x1="114.5" y1="130" x2="114.5" y2="227" gradientUnits="userSpaceOnUse">
<stop stop-color="#E5EFF5"/>
<stop offset="0.477843" stop-color="#E5EFF5" stop-opacity="0"/>
</linearGradient>
<clipPath id="clip0_2706:4188">
<rect width="229" height="203" fill="white"/>
</clipPath>
</defs>
</svg>
