<svg width="60" height="60" viewBox="0 0 60 60" fill="none" xmlns="http://www.w3.org/2000/svg">
  <path d="M30 0C13.433 0 0 13.433 0 30C0 46.567 13.433 60 30 60C46.567 60 60 46.567 60 30C60 13.433 46.567 0 30 0ZM27.8571 15.5357C27.8571 15.2411 28.0982 15 28.3929 15H31.6071C31.9018 15 32.1429 15.2411 32.1429 15.5357V33.75C32.1429 34.0446 31.9018 34.2857 31.6071 34.2857H28.3929C28.0982 34.2857 27.8571 34.0446 27.8571 33.75V15.5357ZM30 45C29.1589 44.9828 28.358 44.6366 27.7692 44.0357C27.1804 43.4348 26.8507 42.627 26.8507 41.7857C26.8507 40.9444 27.1804 40.1366 27.7692 39.5357C28.358 38.9348 29.1589 38.5886 30 38.5714C30.8411 38.5886 31.642 38.9348 32.2308 39.5357C32.8196 40.1366 33.1493 40.9444 33.1493 41.7857C33.1493 42.627 32.8196 43.4348 32.2308 44.0357C31.642 44.6366 30.8411 44.9828 30 45Z" fill="#E6E8EC"/>
  </svg>
