<svg width="70" height="70" viewBox="0 0 70 70" fill="none" xmlns="http://www.w3.org/2000/svg">
  <path d="M35.0006 5C18.4326 5 5.00024 18.4315 5.00024 35.0003C5.00024 51.5688 18.4326 65 35.0006 65C51.5696 65 65.0009 51.5688 65.0009 35.0003C65.0009 18.4315 51.5696 5 35.0006 5ZM45.4856 41.0022L33.7025 41.0027C33.6304 41.0133 33.5575 41.0186 33.4845 41.0187C32.6555 41.0187 31.9845 40.3467 31.9845 39.5189L31.9839 17.0208C31.9839 16.1923 32.6638 15.5205 33.4922 15.5205C34.321 15.5205 35.0006 16.1915 35.0006 17.0208V38.0171H45.4862C46.3138 38.0171 46.9856 38.6818 46.9856 39.5093C46.9856 40.3378 46.3138 41.0022 45.4856 41.0022Z" fill="#5065E5"/>
  </svg>
