<svg width="78" height="78" viewBox="0 0 78 78" fill="none" xmlns="http://www.w3.org/2000/svg">
  <path d="M39 74.75C19.2563 74.75 3.25003 58.7437 3.25003 39C3.25003 19.2562 19.2563 3.25 39 3.25C58.7438 3.25 74.75 19.2562 74.75 39C74.75 58.7437 58.7438 74.75 39 74.75ZM35.1585 49.9102L23.66 38.415C23.198 37.9844 22.5868 37.75 21.9553 37.7612C21.3239 37.7723 20.7213 38.0281 20.2748 38.4747C19.8282 38.9213 19.5724 39.5238 19.5612 40.1553C19.5501 40.7868 19.7845 41.3979 20.215 41.86L33.5238 55.172C33.5324 55.1807 33.541 55.1894 33.5498 55.198L33.5693 55.2142C33.8311 55.476 34.1491 55.6746 34.4991 55.7951C34.8492 55.9156 35.2221 55.9548 35.5895 55.9097C35.9569 55.8645 36.3093 55.7363 36.6198 55.5348C36.9303 55.3332 37.1908 55.0635 37.3815 54.7462L63.0858 25.831C63.515 25.3474 63.7346 24.7132 63.6962 24.0677C63.6578 23.4223 63.3646 22.8185 62.881 22.3892C62.3975 21.96 61.7632 21.7404 61.1177 21.7788C60.4723 21.8172 59.8685 22.1104 59.4393 22.594L35.1585 49.9102Z" fill="#52C41A"/>
  </svg>
