<svg width="40" height="40" viewBox="0 0 40 40" fill="none" xmlns="http://www.w3.org/2000/svg">
<path d="M29.7889 12.9177C29.7617 13.0878 29.7307 13.2629 29.6959 13.4429C28.5165 19.5032 24.4783 21.5977 19.3227 21.5977H16.6972C16.392 21.5984 16.0972 21.7077 15.866 21.9058C15.6349 22.1038 15.4827 22.3776 15.4371 22.6776L14.0927 31.2071L13.712 33.6233C13.6972 33.7187 13.7033 33.8162 13.7297 33.9091C13.7561 34.0019 13.8022 34.0881 13.865 34.1617C13.9278 34.2354 14.0057 34.2947 14.0936 34.3358C14.1814 34.3769 14.2771 34.3988 14.3742 34.4H19.0313C19.2986 34.3993 19.5569 34.3039 19.7597 34.1307C19.9625 33.9576 20.0965 33.7183 20.1375 33.4557L20.1834 33.219L21.0603 27.653L21.1173 27.3485C21.1578 27.0855 21.2916 26.8456 21.4945 26.672C21.6973 26.4984 21.9559 26.4025 22.2236 26.4018H22.9194C27.4313 26.4018 30.9634 24.5686 31.9953 19.2665C32.4269 17.0512 32.2037 15.2008 31.0626 13.9002C30.7013 13.4984 30.2693 13.1654 29.7877 12.9177H29.7889Z" fill="#179BD7"/>
<path d="M28.5536 12.4246C28.1766 12.3158 27.793 12.231 27.4051 12.1707C26.6395 12.053 25.8656 11.9965 25.0909 12.0018H18.0774C17.8096 12.002 17.5507 12.0977 17.3478 12.2714C17.1448 12.4451 17.0112 12.6853 16.9712 12.9485L15.4792 22.4027L15.437 22.6776C15.4826 22.3776 15.6348 22.1038 15.8659 21.9058C16.0971 21.7077 16.3919 21.5984 16.6971 21.5977H19.3226C24.4782 21.5977 28.5164 19.502 29.6958 13.4429C29.7318 13.2629 29.7616 13.0878 29.7876 12.9177C29.395 12.7103 28.9813 12.545 28.5536 12.4246V12.4246Z" fill="#222D65"/>
<path d="M16.9712 12.9473C17.0111 12.6841 17.1447 12.4439 17.3477 12.2703C17.5507 12.0968 17.8097 12.0015 18.0775 12.0018H25.091C25.9219 12.0018 26.6983 12.056 27.4052 12.1707C27.8852 12.2459 28.3577 12.3593 28.8191 12.5084C29.1663 12.6231 29.49 12.7599 29.7889 12.9177C30.1399 10.6778 29.7864 9.15284 28.5747 7.77091C27.2403 6.2509 24.8318 5.6 21.7498 5.6H12.8004C12.1716 5.6 11.6346 6.05859 11.5366 6.68114L7.80973 30.3171C7.79215 30.4267 7.79856 30.5389 7.82852 30.6459C7.85849 30.7529 7.9113 30.8523 7.98336 30.9371C8.12971 31.1073 8.34303 31.2059 8.56751 31.2071H14.0927L15.4793 22.4027L16.9712 12.9473V12.9473Z" fill="#253B80"/>
</svg>
