<svg width="30" height="30" viewBox="0 0 30 30" fill="none" xmlns="http://www.w3.org/2000/svg">
<path d="M21.9752 11.1325C21.9752 6.68837 18.4196 3.13184 13.9726 3.13184C9.52555 3.13184 5.97116 6.68813 5.97116 11.1325C5.97116 14.1546 7.5713 16.7317 10.0608 18.064C6.58978 19.428 4.07252 22.4483 3.3933 26.0645C3.30441 26.5092 3.5713 27.043 4.10508 27.1318H4.27762C4.72275 27.1318 5.07876 26.8649 5.1674 26.4203C5.9531 22.2682 9.58996 19.2262 13.8816 19.1314H14.0596C18.3288 19.1314 21.9742 15.4874 21.9742 11.1321L21.9752 11.1325ZM7.74764 11.1325C7.74764 7.66537 10.5042 4.90903 13.9726 4.90903C17.4409 4.90903 20.1973 7.66537 20.1973 11.1325C20.1973 14.5094 17.4407 17.2653 14.0615 17.3544H13.7946C10.4153 17.1762 7.74764 14.4205 7.74764 11.1325ZM20.1082 19.1316C20.1082 19.6651 20.4642 20.0209 20.998 20.0209H25.4433C25.9771 20.0209 26.3331 19.6651 26.3331 19.1316C26.3331 18.5981 25.9771 18.2423 25.4433 18.2423H20.998C20.5531 18.2423 20.1082 18.5995 20.1082 19.1316ZM25.4433 21.7095H18.3305C17.7967 21.7095 17.4407 22.0655 17.4407 22.599C17.4407 23.1325 17.7967 23.4883 18.3305 23.4883H25.4433C25.9771 23.4883 26.3331 23.1325 26.3331 22.599C26.3331 22.0655 25.9771 21.7095 25.4433 21.7095ZM25.4433 25.2658H18.4194C17.8854 25.2658 17.5296 25.6215 17.5296 26.1553C17.5296 26.6891 17.8854 27.0427 18.4194 27.0427H25.4433C25.9771 27.0427 26.3331 26.6867 26.3331 26.1534C26.3331 25.6201 25.8882 25.2639 25.4433 25.2639V25.2658Z" fill="black" stroke="black" stroke-width="0.25"/>
</svg>
