<svg width="22" height="22" viewBox="0 0 22 22" fill="none" xmlns="http://www.w3.org/2000/svg">
<path d="M0.680101 0C3.61737 0 6.55467 0 9.49196 0C10.388 0.087566 10.1721 1.64398 10.1721 2.65518C10.1721 4.47147 10.1721 5.66857 10.1721 7.4695C10.1721 8.51585 10.3717 9.7983 9.66936 10.0955C9.21196 10.2891 7.98433 10.1539 7.39247 10.1539C5.76753 10.1539 4.44667 10.1539 2.72042 10.1539C1.6404 10.1539 0.165719 10.4082 0 9.48276C0 6.54554 0 3.60832 0 0.671102C0.120747 0.342875 0.333185 0.105101 0.680101 0ZM1.89248 1.98408C1.89248 4.07517 1.89248 6.16622 1.89248 8.25729C4.01168 8.25729 6.13082 8.25729 8.25 8.25729C8.25 6.13703 8.25 4.01679 8.25 1.89653C6.14069 1.89653 4.03135 1.89653 1.92204 1.89653C1.88759 1.90144 1.88993 1.94267 1.89248 1.98408ZM12.5081 0C15.4453 0 18.3827 0 21.3199 0C21.6794 0.131597 21.9263 0.374196 22 0.787792C22 3.6472 22 6.50666 22 9.36605C21.9194 9.72252 21.7307 10.027 21.379 10.1247C20.8043 10.2843 19.8492 10.1538 19.1613 10.1538C17.5405 10.1538 16.2115 10.1538 14.6371 10.1538C13.9548 10.1538 12.9437 10.2957 12.3898 10.1247C11.6079 9.88328 11.828 8.37717 11.828 7.3236C11.828 5.92413 11.828 4.29054 11.828 2.83022C11.828 1.6138 11.5574 0.169962 12.5081 0ZM13.7204 1.98408C13.7204 4.07517 13.7204 6.16622 13.7204 8.25729C15.8396 8.25729 17.9588 8.25729 20.078 8.25729C20.078 6.13703 20.078 4.01679 20.078 1.89653C17.9687 1.89653 15.8593 1.89653 13.75 1.89653C13.7156 1.90144 13.7179 1.94267 13.7204 1.98408ZM4.79033 3.82227C5.67575 3.65739 6.37205 4.24771 6.38711 5.04774C6.40696 6.10274 5.31495 6.68231 4.46507 6.24403C3.49276 5.74261 3.55675 4.05199 4.79033 3.82227ZM16.6183 3.82227C18.7039 3.4378 18.6639 6.69693 16.6183 6.36074C15.3165 6.14683 15.2745 4.07002 16.6183 3.82227ZM9.43282 22C6.52513 22 3.61742 22 0.709682 22C0.347549 21.8905 0.102933 21.6651 2.18398e-05 21.2998C2.18398e-05 18.3723 2.18398e-05 15.4447 2.18398e-05 12.5172C0.0861451 12.2602 0.284982 11.9604 0.591401 11.8753C1.17023 11.7146 2.11573 11.8462 2.80915 11.8462C4.40283 11.8462 5.84653 11.8462 7.33336 11.8462C8.00197 11.8462 8.97507 11.6989 9.58064 11.8753C10.3999 12.114 10.1721 13.5957 10.1721 14.6472C10.1721 16.2637 10.1721 17.6426 10.1721 19.2865C10.1721 20.4214 10.4197 21.8987 9.43282 22ZM1.89248 13.8303C1.89248 15.9213 1.89248 18.0124 1.89248 20.1034C4.01168 20.1034 6.13082 20.1034 8.25 20.1034C8.25 17.9832 8.25 15.863 8.25 13.7427C6.14069 13.7427 4.03135 13.7427 1.92204 13.7427C1.88759 13.7476 1.88993 13.7888 1.89248 13.8303ZM22 12.634C22 13.4509 22 14.2679 22 15.0849C21.931 15.9116 21.9901 16.8647 21.9704 17.7401C19.871 17.7401 17.7715 17.7401 15.672 17.7401C15.672 17.2635 15.672 16.7869 15.672 16.3103C15.0806 16.2423 14.3612 16.3006 13.7204 16.2812C13.6515 18.1291 13.7106 20.1034 13.6909 22C13.3065 22 12.9221 22 12.5376 22C11.5461 21.8039 11.828 20.3357 11.828 19.1697C11.828 17.5434 11.828 16.2052 11.828 14.6472C11.828 13.9672 11.6885 12.9478 11.8575 12.4005C12.0592 11.7477 12.9339 11.8462 13.8091 11.8462C15.2888 11.8462 16.6071 11.8462 18.0968 11.8462C18.0968 13.1397 18.0968 14.4333 18.0968 15.7268C18.7571 15.7268 19.4175 15.7268 20.0779 15.7268C20.0976 14.443 20.0385 13.0813 20.1075 11.8462C21.0609 11.7905 21.944 11.8042 22 12.634ZM4.93817 15.6393C5.8836 15.536 6.66513 16.4326 6.29837 17.4191C5.79001 18.7865 3.35935 18.2726 3.81453 16.5438C3.94034 16.0659 4.30376 15.7086 4.93817 15.6393ZM17.8011 22C17.0914 22 16.3817 22 15.672 22C15.6918 21.2511 15.6326 20.4244 15.7016 19.7241C16.4014 19.7241 17.1013 19.7241 17.8011 19.7241C17.8011 20.4827 17.8011 21.2414 17.8011 22ZM22 19.7241C22 20.2202 22 20.7162 22 21.2122C21.9178 21.6271 21.6719 21.8805 21.2903 22C20.7876 22 20.2849 22 19.7823 22C19.802 21.2511 19.7429 20.4244 19.8118 19.7241C20.5413 19.7241 21.2706 19.7241 22 19.7241Z" fill="#5065E5"/>
</svg>
