<svg width="20" height="20" viewBox="0 0 20 20" fill="none" xmlns="http://www.w3.org/2000/svg">
<path d="M7.95036 11.4044L8.01516 11.49L8.71676 12.376C8.89516 12.6015 9.13103 12.7748 9.39956 12.8776V19.1004C9.13101 18.9976 8.89513 18.8243 8.71676 18.5988L3.08676 11.49C2.92237 11.2827 2.79343 11.0497 2.70516 10.8004H7.63316C7.70836 11.0124 7.81396 11.216 7.95036 11.4044ZM16.8556 11.49L11.2256 18.5988C11.0536 18.8156 10.8376 18.9756 10.6 19.0768V12.8544C10.8179 12.7615 11.0124 12.6212 11.1692 12.4436L11.2252 12.376L11.9272 11.49C12.0916 11.2827 12.2205 11.0497 12.3088 10.8004H17.2372C17.1489 11.0497 17.02 11.2827 16.8556 11.49ZM10.9644 1.14036C11.0612 1.21693 11.1488 1.30444 11.2256 1.40116L16.8556 8.50996C17.1067 8.82653 17.2736 9.2015 17.3408 9.59996H12.4124C12.3513 9.2373 12.2074 8.89361 11.992 8.59556L11.9272 8.50996L11.2256 7.62396C11.0601 7.41466 10.8449 7.25007 10.5996 7.14516V0.999962C10.5996 0.972762 10.5976 0.945962 10.5944 0.919962C10.7236 0.975162 10.8484 1.04836 10.9644 1.14036ZM9.40836 0.896362C9.40246 0.930579 9.39951 0.96524 9.39956 0.999962V7.12236C9.15868 7.21414 8.94372 7.36308 8.77316 7.55636L8.71716 7.62396L8.01516 8.50996C7.76403 8.82653 7.59712 9.2015 7.52996 9.59996H2.60156C2.66871 9.2015 2.83563 8.82653 3.08676 8.50996L8.71676 1.40116C8.89272 1.17844 9.125 1.00679 9.38956 0.903962L9.40836 0.896362Z" fill="#F9E0B7"/>
</svg>
