<svg width="44" height="53" viewBox="0 0 44 53" fill="none" xmlns="http://www.w3.org/2000/svg">
<path d="M37.8731 0C39.4184 0 40.9004 0.613875 41.9931 1.70658C43.0858 2.79928 43.6997 4.28131 43.6997 5.82663V14.2898C40.3348 22.1033 31.4958 27.6765 21.1215 27.6765C12.0058 27.6765 4.07427 23.3677 0 17.0196V5.82663C0 4.28131 0.613875 2.79928 1.70658 1.70658C2.79928 0.613875 4.28131 0 5.82663 0H37.8731Z" fill="#FF8201"/>
<path d="M43.6997 14.8502V47.1734C43.6997 48.7188 43.0858 50.2008 41.9931 51.2935C40.9004 52.3862 39.4184 53.0001 37.8731 53.0001H5.82663C4.28131 53.0001 2.79928 52.3862 1.70658 51.2935C0.613875 50.2008 0 48.7188 0 47.1734V17.58C4.07135 23.9281 12.0028 28.2369 21.1215 28.2369C31.3094 28.2369 40.0173 22.8589 43.5147 15.2668L43.7012 14.8517L43.6997 14.8502Z" fill="#FF8201"/>
<path fill-rule="evenodd" clip-rule="evenodd" d="M13.7764 31.6114C13.3373 30.551 13.1113 29.4144 13.1113 28.2666C13.1113 27.1188 13.3373 25.9822 13.7764 24.9218C14.2156 23.8613 14.8594 22.8978 15.671 22.0861C16.4826 21.2745 17.4461 20.6306 18.5065 20.1914C19.5669 19.7521 20.7035 19.526 21.8513 19.526C22.9991 19.526 24.1356 19.7521 25.1961 20.1914C26.2565 20.6306 27.22 21.2745 28.0316 22.0861C28.8432 22.8978 29.4869 23.8613 29.9261 24.9218C30.3653 25.9822 30.5913 27.1188 30.5912 28.2666C30.5913 29.4144 30.3653 30.551 29.9261 31.6114C29.4869 32.6719 28.8432 33.6355 28.0316 34.4471C27.22 35.2588 26.2565 35.9026 25.1961 36.3419C24.1356 36.7811 22.9991 37.0072 21.8513 37.0072C20.7035 37.0072 19.5669 36.7811 18.5065 36.3419C17.4461 35.9026 16.4826 35.2588 15.671 34.4471C14.8594 33.6355 14.2156 32.6719 13.7764 31.6114ZM21.9052 26.7633L18.6408 23.4975C18.5975 23.4542 18.546 23.4198 18.4894 23.3964C18.4328 23.3729 18.3721 23.3608 18.3109 23.3608C18.2496 23.3608 18.1889 23.3729 18.1323 23.3964C18.0757 23.4198 18.0243 23.4542 17.9809 23.4975C17.9376 23.5408 17.9032 23.5923 17.8798 23.6489C17.8563 23.7055 17.8443 23.7662 17.8443 23.8274C17.8443 23.8887 17.8563 23.9494 17.8798 24.006C17.9032 24.0626 17.9376 24.114 17.9809 24.1574L21.4099 27.5863V27.8485H18.3101C18.1865 27.8485 18.068 27.8976 17.9805 27.9851C17.8931 28.0725 17.844 28.191 17.844 28.3147C17.844 28.4383 17.8931 28.5569 17.9805 28.6443C18.068 28.7317 18.1865 28.7808 18.3101 28.7808H21.4099V30.2957H18.3101C18.1865 30.2957 18.068 30.3448 17.9805 30.4322C17.8931 30.5197 17.844 30.6382 17.844 30.7618C17.844 30.8855 17.8931 31.004 17.9805 31.0915C18.068 31.1789 18.1865 31.228 18.3101 31.228H21.4099V33.2935C21.4099 33.4171 21.459 33.5357 21.5464 33.6231C21.6339 33.7105 21.7524 33.7597 21.876 33.7597C21.9997 33.7597 22.1182 33.7105 22.2056 33.6231C22.2931 33.5357 22.3422 33.4171 22.3422 33.2935V31.228H25.5352C25.6588 31.228 25.7773 31.1789 25.8648 31.0915C25.9522 31.004 26.0013 30.8855 26.0013 30.7618C26.0013 30.6382 25.9522 30.5197 25.8648 30.4322C25.7773 30.3448 25.6588 30.2957 25.5352 30.2957H22.3422V28.7808H25.5352C25.6588 28.7808 25.7773 28.7317 25.8648 28.6443C25.9522 28.5569 26.0013 28.4383 26.0013 28.3147C26.0013 28.191 25.9522 28.0725 25.8648 27.9851C25.7773 27.8976 25.6588 27.8485 25.5352 27.8485H22.3422V27.6446L25.7056 24.2812L25.7726 24.1967C25.8276 24.1074 25.8509 24.0022 25.8387 23.8981C25.8266 23.794 25.7797 23.697 25.7056 23.6228L25.6211 23.5558C25.5318 23.5008 25.4266 23.4775 25.3225 23.4896C25.2184 23.5018 25.1214 23.5487 25.0472 23.6228L21.9052 26.7633Z" fill="#FFF881"/>
</svg>
