<svg width="168" height="184" viewBox="0 0 168 184" fill="none" xmlns="http://www.w3.org/2000/svg">
<mask id="mask0" mask-type="alpha" maskUnits="userSpaceOnUse" x="0" y="0" width="168" height="184">
<rect width="168" height="184" rx="4" fill="#FF8201"/>
</mask>
<g mask="url(#mask0)">
<rect width="168" height="184" rx="25" fill="#FF8201"/>
<g opacity="0.4">
<path d="M148.753 104C151.966 104 155.048 105.276 157.32 107.549C159.592 109.821 160.869 112.903 160.869 116.116V133.714C153.872 149.961 135.492 161.55 113.92 161.55C94.9646 161.55 78.472 152.59 70 139.39V116.116C70 112.903 71.2765 109.821 73.5486 107.549C75.8208 105.276 78.9025 104 82.1158 104H148.753Z" fill="white"/>
<path d="M160.869 134.879V202.092C160.869 205.305 159.592 208.387 157.32 210.659C155.048 212.931 151.966 214.207 148.753 214.207H82.1158C78.9025 214.207 75.8208 212.931 73.5486 210.659C71.2765 208.387 70 205.305 70 202.092V140.555C78.4659 153.756 94.9586 162.715 113.92 162.715C135.104 162.715 153.211 151.532 160.484 135.745L160.872 134.882L160.869 134.879Z" fill="#F6F6F6"/>
<path fill-rule="evenodd" clip-rule="evenodd" d="M98.6467 162.447C97.7334 160.242 97.2635 157.879 97.2637 155.492C97.2635 153.106 97.7334 150.742 98.6467 148.537C99.5599 146.332 100.899 144.328 102.586 142.641C104.274 140.953 106.277 139.614 108.482 138.701C110.687 137.787 113.051 137.317 115.437 137.317C117.824 137.317 120.187 137.787 122.392 138.701C124.598 139.614 126.601 140.953 128.289 142.641C129.976 144.328 131.315 146.332 132.228 148.537C133.141 150.742 133.611 153.106 133.611 155.492C133.611 157.879 133.141 160.242 132.228 162.447C131.315 164.653 129.976 166.656 128.289 168.344C126.601 170.032 124.598 171.37 122.392 172.284C120.187 173.197 117.824 173.667 115.437 173.667C113.051 173.667 110.687 173.197 108.482 172.284C106.277 171.37 104.274 170.032 102.586 168.344C100.899 166.656 99.5599 164.653 98.6467 162.447ZM115.549 152.366L108.762 145.575C108.671 145.485 108.565 145.414 108.447 145.365C108.329 145.316 108.203 145.291 108.076 145.291C107.948 145.291 107.822 145.316 107.704 145.365C107.586 145.414 107.48 145.485 107.389 145.575C107.299 145.666 107.228 145.772 107.179 145.89C107.13 146.008 107.105 146.134 107.105 146.261C107.105 146.389 107.13 146.515 107.179 146.633C107.228 146.75 107.299 146.857 107.389 146.948L114.52 154.078V154.623H108.074C107.817 154.623 107.57 154.725 107.389 154.907C107.207 155.089 107.105 155.335 107.105 155.592C107.105 155.849 107.207 156.096 107.389 156.278C107.57 156.459 107.817 156.561 108.074 156.561H114.52V159.712H108.074C107.817 159.712 107.57 159.814 107.389 159.995C107.207 160.177 107.105 160.424 107.105 160.681C107.105 160.938 107.207 161.184 107.389 161.366C107.57 161.548 107.817 161.65 108.074 161.65H114.52V165.945C114.52 166.202 114.622 166.449 114.803 166.631C114.985 166.812 115.232 166.914 115.489 166.914C115.746 166.914 115.992 166.812 116.174 166.631C116.356 166.449 116.458 166.202 116.458 165.945V161.65H123.098C123.355 161.65 123.601 161.548 123.783 161.366C123.965 161.184 124.067 160.938 124.067 160.681C124.067 160.424 123.965 160.177 123.783 159.995C123.601 159.814 123.355 159.712 123.098 159.712H116.458V156.561H123.098C123.355 156.561 123.601 156.459 123.783 156.278C123.965 156.096 124.067 155.849 124.067 155.592C124.067 155.335 123.965 155.089 123.783 154.907C123.601 154.725 123.355 154.623 123.098 154.623H116.458V154.199L123.452 147.205L123.591 147.029C123.706 146.844 123.754 146.625 123.729 146.408C123.704 146.192 123.606 145.99 123.452 145.836L123.276 145.697C123.091 145.582 122.872 145.534 122.655 145.559C122.439 145.584 122.237 145.682 122.083 145.836L115.549 152.366Z" fill="#FF8201"/>
</g>
</g>
</svg>
