<svg width="15" height="15" viewBox="0 0 15 15" fill="none" xmlns="http://www.w3.org/2000/svg">
<path d="M12.3664 7.18334C11.5272 8.0187 10.8404 7.31084 11.4057 6.69442L13.2954 3.75013C10.3361 3.69477 8.58679 4.79799 7.84072 5.79585C7.29751 6.52477 6.97144 8.22477 6.86144 8.67477C6.76929 9.05299 6.46429 9.30442 6.08644 9.24763C5.68537 9.14977 5.46608 8.53513 5.56394 8.13513C5.58287 8.05763 5.98251 6.23227 6.81822 5.11406C7.55251 4.12977 9.00465 2.87085 12.3507 2.69977L10.1429 1.33406C9.80001 1.10406 9.59179 0.726203 9.95751 0.271917C10.1889 -0.067726 10.6279 0.194417 10.9689 0.423703L14.6479 2.7462C14.8116 2.85681 14.9248 3.02791 14.9625 3.22191C15.0002 3.41591 14.9594 3.61695 14.8489 3.78085L12.3664 7.18334ZM13.2814 3.75299C13.2497 3.7587 13.1807 3.77156 13.2814 3.75299V3.75299ZM13.2954 3.75013L13.2814 3.75299C13.2861 3.75214 13.2907 3.75119 13.2954 3.75013ZM7.50001 0.957988C3.89251 0.957988 0.957866 3.89263 0.957866 7.50013C0.957866 11.1076 3.89251 14.0423 7.50001 14.0423C11.1075 14.0423 14.0422 11.1076 14.0422 7.50013C14.0422 7.37316 14.0926 7.25139 14.1824 7.1616C14.2722 7.07182 14.3939 7.02138 14.5209 7.02138C14.6479 7.02138 14.7696 7.07182 14.8594 7.1616C14.9492 7.25139 14.9997 7.37316 14.9997 7.50013C14.9997 11.6355 11.6354 14.9998 7.50001 14.9998C3.36465 14.9998 0.000366211 11.6355 0.000366211 7.50013C0.000366211 3.36477 3.36465 0.000488281 7.50001 0.000488281C7.62698 0.000488281 7.74875 0.0509279 7.83854 0.140711C7.92832 0.230494 7.97876 0.352266 7.97876 0.479238C7.97876 0.606211 7.92832 0.727983 7.83854 0.817766C7.74875 0.907549 7.62698 0.957988 7.50001 0.957988Z" fill="#5065E5"/>
</svg>
