<svg width="16" height="16" viewBox="0 0 16 16" fill="none" xmlns="http://www.w3.org/2000/svg">
<path d="M12.9992 0.00334098C14.6589 0.00334098 16 1.34308 16 3.00355V12.9998C16 14.6536 14.6589 16 12.9992 16H3.00083C1.34108 15.9967 0 14.6569 0 12.9964V3.00021C0 1.34308 1.34108 0 3.00083 0H12.9992V0.00334098ZM13.0921 1.41324H12.7734V5.24869C12.7734 5.673 12.4315 6.01712 12.01 6.01712H4.00664C3.58506 6.01712 3.24315 5.673 3.24315 5.24869V1.41324H2.92448C2.09129 1.41324 1.41411 2.08478 1.40083 2.92337V13.1802C1.40083 14.0188 2.07137 14.7004 2.90124 14.7137H13.0921C13.9253 14.7137 14.6025 14.0422 14.6158 13.2036V2.94675C14.6158 2.10816 13.9485 1.4266 13.1154 1.41324H13.0921ZM11.4191 1.41324H4.60083V4.654H11.4191V1.41324ZM9.97842 2.26853C10.0946 2.26853 10.1909 2.36542 10.1909 2.48236V3.42117C10.1909 3.53811 10.0946 3.635 9.97842 3.635H9.04564C8.92946 3.635 8.83319 3.53811 8.83319 3.42117V2.47901C8.83319 2.36208 8.92946 2.26519 9.04564 2.26519C9.04896 2.26853 9.97842 2.26853 9.97842 2.26853Z" fill="white"/>
</svg>
