<svg width="24" height="24" viewBox="0 0 24 24" fill="none" xmlns="http://www.w3.org/2000/svg">
  <path d="M23.1236 12.8556H0.8764C0.403993 12.8556 0.0206604 12.4723 0.0206604 12C0.0206604 11.5276 0.403993 11.1443 0.8764 11.1443H23.1236C23.5968 11.1443 23.9793 11.5276 23.9793 12C23.9793 12.4723 23.5967 12.8556 23.1236 12.8556Z" fill="#23262F"/>
  <path d="M20.5566 23.1237H15.4227C14.9495 23.1237 14.5669 22.7412 14.5669 22.268C14.5669 21.7948 14.9495 21.4123 15.4227 21.4123H20.5566C21.029 21.4123 21.4123 21.0289 21.4123 20.5567V16.2784C21.4123 15.8052 21.7947 15.4226 22.268 15.4226C22.7412 15.4226 23.1236 15.8052 23.1236 16.2784V20.5567C23.1236 21.9719 21.9719 23.1237 20.5566 23.1237Z" fill="#23262F"/>
  <path d="M7.72157 23.1237H3.44323C2.0281 23.1237 0.876373 21.9719 0.876373 20.5567V16.2784C0.876373 15.8052 1.25968 15.4226 1.73195 15.4226C2.20433 15.4226 2.58766 15.8052 2.58766 16.2784V20.5567C2.58766 21.0289 2.97178 21.4123 3.44323 21.4123H7.72157C8.19396 21.4123 8.57734 21.7949 8.57734 22.2681C8.57731 22.7412 8.19396 23.1237 7.72157 23.1237Z" fill="#23262F"/>
  <path d="M1.73195 8.57726C1.25968 8.57726 0.876373 8.19397 0.876373 7.72171V3.44337C0.876373 2.02807 2.0281 0.876343 3.44323 0.876343H7.72157C8.19396 0.876343 8.57734 1.25967 8.57734 1.73206C8.57734 2.20427 8.194 2.58763 7.72157 2.58763H3.44323C2.97178 2.58763 2.58766 2.97185 2.58766 3.44335V7.72169C2.58769 8.19395 2.20433 8.57726 1.73195 8.57726Z" fill="#23262F"/>
  <path d="M22.268 8.57723C21.7947 8.57723 21.4123 8.19395 21.4123 7.72169V3.44335C21.4123 2.97185 21.029 2.58763 20.5566 2.58763H15.4227C14.9495 2.58763 14.5669 2.20427 14.5669 1.73206C14.5669 1.25967 14.9495 0.876343 15.4227 0.876343H20.5566C21.9719 0.876343 23.1236 2.02807 23.1236 3.44337V7.72171C23.1236 8.19392 22.7412 8.57723 22.268 8.57723Z" fill="#23262F"/>
  </svg>
