<svg width="107" height="162" viewBox="0 0 107 162" fill="none" xmlns="http://www.w3.org/2000/svg">
<path fill-rule="evenodd" clip-rule="evenodd" d="M53.6511 29.36C64.3369 29.36 73.1389 37.728 73.6473 48.3704L75.0088 76.8618C75.8044 79.5217 76.4902 82.4207 77.0707 85.5514C84.1755 115.456 86.2828 140.88 83.3926 161.824H24.0055C20.3485 141.763 22.2202 116.339 29.6207 85.5514C30.215 82.3646 30.8905 79.4534 31.6541 76.8084L33.3987 48.3565C34.053 37.6826 42.9258 29.36 53.6511 29.36Z" fill="url(#paint0_linear_23_8843)"/>
<path fill-rule="evenodd" clip-rule="evenodd" d="M46.1461 45.2133C43.9995 45.2133 42.2594 47.2375 42.2594 49.7345V53.555C42.2594 56.4432 43.8127 59.0228 46.1461 60.0098C48.4795 59.0228 50.0327 56.4432 50.0327 53.555V49.7345C50.0327 47.2375 48.2926 45.2133 46.1461 45.2133Z" fill="white"/>
<path fill-rule="evenodd" clip-rule="evenodd" d="M59.5727 45.2133C57.4262 45.2133 55.686 47.2375 55.686 49.7345V53.555C55.686 56.4432 57.2393 59.0228 59.5727 60.0098C61.9061 59.0228 63.4594 56.4432 63.4594 53.555V49.7345C63.4594 47.2375 61.7193 45.2133 59.5727 45.2133Z" fill="white"/>
<path d="M46.8527 56.4869C48.2187 56.4869 49.3261 55.3828 49.3261 54.0208C49.3261 52.6588 48.2187 51.5547 46.8527 51.5547C45.4867 51.5547 44.3794 52.6588 44.3794 54.0208C44.3794 55.3828 45.4867 56.4869 46.8527 56.4869Z" fill="#616161"/>
<path d="M60.2795 56.4869C61.6455 56.4869 62.7528 55.3828 62.7528 54.0208C62.7528 52.6588 61.6455 51.5547 60.2795 51.5547C58.9135 51.5547 57.8062 52.6588 57.8062 54.0208C57.8062 55.3828 58.9135 56.4869 60.2795 56.4869Z" fill="#616161"/>
<path d="M47.7361 55.43C48.224 55.43 48.6194 55.0357 48.6194 54.5492C48.6194 54.0628 48.224 53.6685 47.7361 53.6685C47.2483 53.6685 46.8528 54.0628 46.8528 54.5492C46.8528 55.0357 47.2483 55.43 47.7361 55.43Z" fill="white"/>
<path d="M61.1628 55.43C61.6506 55.43 62.0461 55.0357 62.0461 54.5492C62.0461 54.0628 61.6506 53.6685 61.1628 53.6685C60.6749 53.6685 60.2794 54.0628 60.2794 54.5492C60.2794 55.0357 60.6749 55.43 61.1628 55.43Z" fill="white"/>
<path d="M9.00006 45.8474C9.00006 47.5815 7.81553 51.4056 6.2915 51.6827" stroke="#777E90"/>
<path d="M6.5182 43.5783C5.54561 45.016 2.41893 47.5258 1 46.9059" stroke="#777E90"/>
<path d="M13.1992 44.2441C14.9385 44.2441 18.7738 45.4251 19.0518 46.9447" stroke="#777E90"/>
<path d="M12.3397 45.6073C11.9189 47.29 12.1404 51.2862 13.5519 51.9227" stroke="#777E90"/>
<path fill-rule="evenodd" clip-rule="evenodd" d="M10.2827 48.3214L9.72822 49.4197L9.34841 48.2499L8.63228 49.2509L8.43602 48.037L7.57501 48.9173L7.56691 47.6877L6.58122 48.4267L6.76146 47.2103L5.67418 47.7906L6.03854 46.6158L4.87516 47.0239L5.41511 45.9183L4.20289 46.1445L4.90576 45.1341L3.67313 45.1732L4.52245 44.2816L3.29829 44.1325L4.27415 43.3807L3.08715 43.0471L4.16669 42.4526L3.04468 41.9422L4.20258 41.519L3.17186 40.8438L4.38098 40.6018L3.4657 39.7776L4.69772 39.7225L3.91934 38.7687L5.14536 38.9017L4.52212 37.8406L5.71342 38.1586L5.25993 37.0151L6.38858 37.5108L6.11547 36.3117L7.15501 36.9732L7.06869 35.7466L7.99475 36.5587L8.09723 35.3333L8.88812 36.2768L9.17701 35.0814L9.81418 36.1342L10.2827 34.9967L10.7512 36.1342L11.3884 35.0814L11.6773 36.2768L12.4682 35.3333L12.5706 36.5587L13.4967 35.7466L13.4104 36.9732L14.4499 36.3117L14.1768 37.5108L15.3055 37.0151L14.852 38.1586L16.0433 37.8406L15.42 38.9017L16.6461 38.7687L15.8677 39.7225L17.0997 39.7776L16.1844 40.6018L17.3935 40.8438L16.3628 41.519L17.5207 41.9422L16.3987 42.4526L17.4782 43.0471L16.2912 43.3807L17.2671 44.1325L16.0429 44.2816L16.8923 45.1732L15.6596 45.1341L16.3625 46.1445L15.1503 45.9183L15.6902 47.0239L14.5268 46.6158L14.8912 47.7906L13.8039 47.2103L13.9842 48.4267L12.9985 47.6877L12.9904 48.9173L12.1294 48.037L11.9331 49.2509L11.217 48.2499L10.8372 49.4197L10.2827 48.3214Z" fill="#777E90"/>
<path opacity="0.332314" d="M10.2827 1V35.1799" stroke="white" stroke-linecap="square"/>
<path d="M8.33948 44.5088C9.51033 44.5088 10.4595 43.5624 10.4595 42.395C10.4595 41.2276 9.51033 40.2812 8.33948 40.2812C7.16864 40.2812 6.21948 41.2276 6.21948 42.395C6.21948 43.5624 7.16864 44.5088 8.33948 44.5088Z" fill="white"/>
<path d="M8.86954 43.4519C9.35739 43.4519 9.75287 43.0575 9.75287 42.5711C9.75287 42.0847 9.35739 41.6904 8.86954 41.6904C8.38169 41.6904 7.98621 42.0847 7.98621 42.5711C7.98621 43.0575 8.38169 43.4519 8.86954 43.4519Z" fill="#4B4B4B"/>
<path d="M13.9928 44.5088C15.1636 44.5088 16.1128 43.5624 16.1128 42.395C16.1128 41.2276 15.1636 40.2812 13.9928 40.2812C12.822 40.2812 11.8728 41.2276 11.8728 42.395C11.8728 43.5624 12.822 44.5088 13.9928 44.5088Z" fill="white"/>
<path d="M14.5229 43.4519C15.0107 43.4519 15.4062 43.0575 15.4062 42.5711C15.4062 42.0847 15.0107 41.6904 14.5229 41.6904C14.035 41.6904 13.6395 42.0847 13.6395 42.5711C13.6395 43.0575 14.035 43.4519 14.5229 43.4519Z" fill="#4B4B4B"/>
<path d="M99.5456 79.3156C99.5456 81.0498 100.73 84.8738 102.254 85.151" stroke="#777E90"/>
<path d="M101.123 77.87C101.966 79.3867 104.862 82.1587 106.33 81.6645" stroke="#777E90"/>
<path d="M95.3212 77.7952C93.6265 78.1853 90.156 80.1963 90.228 81.7392" stroke="#777E90"/>
<path d="M96.206 79.0756C96.6268 80.7583 96.4052 84.7544 94.9937 85.391" stroke="#777E90"/>
<path fill-rule="evenodd" clip-rule="evenodd" d="M98.2628 81.7897L98.8173 82.888L99.1971 81.7181L99.9133 82.7192L100.11 81.5053L100.971 82.3856L100.979 81.156L101.964 81.895L101.784 80.6786L102.871 81.2589L102.507 80.0841L103.67 80.4921L103.13 79.3866L104.343 79.6128L103.64 78.6024L104.872 78.6414L104.023 77.7499L105.247 77.6008L104.271 76.849L105.458 76.5154L104.379 75.9208L105.501 75.4105L104.343 74.9872L105.374 74.3121L104.165 74.07L105.08 73.2459L103.848 73.1907L104.626 72.237L103.4 72.3699L104.023 71.3089L102.832 71.6269L103.286 70.4834L102.157 70.979L102.43 69.7799L101.391 70.4415L101.477 69.2149L100.551 70.027L100.448 68.8016L99.6574 69.7451L99.3685 68.5496L98.7314 69.6024L98.2628 68.465L97.7943 69.6024L97.1572 68.5496L96.8683 69.7451L96.0774 68.8016L95.9749 70.027L95.0488 69.2149L95.1352 70.4415L94.0956 69.7799L94.3687 70.979L93.2401 70.4834L93.6936 71.6269L92.5023 71.3089L93.1255 72.3699L91.8995 72.237L92.6779 73.1907L91.4459 73.2459L92.3611 74.07L91.152 74.3121L92.1827 74.9872L91.0248 75.4105L92.1468 75.9208L91.0673 76.5154L92.2543 76.849L91.2784 77.6008L92.5026 77.7499L91.6533 78.6414L92.8859 78.6024L92.183 79.6128L93.3953 79.3866L92.8553 80.4921L94.0187 80.0841L93.6543 81.2589L94.7416 80.6786L94.5614 81.895L95.5471 81.156L95.5552 82.3856L96.4162 81.5053L96.6124 82.7192L97.3286 81.7181L97.7084 82.888L98.2628 81.7897Z" fill="#777E90"/>
<path d="M100.206 77.977C99.0352 77.977 98.0861 77.0306 98.0861 75.8632C98.0861 74.6958 99.0352 73.7495 100.206 73.7495C101.377 73.7495 102.326 74.6958 102.326 75.8632C102.326 77.0306 101.377 77.977 100.206 77.977Z" fill="white"/>
<path d="M99.6761 76.2155C99.1883 76.2155 98.7928 75.8212 98.7928 75.3348C98.7928 74.8484 99.1883 74.454 99.6761 74.454C100.164 74.454 100.559 74.8484 100.559 75.3348C100.559 75.8212 100.164 76.2155 99.6761 76.2155Z" fill="#4B4B4B"/>
<path d="M94.5527 77.977C93.3819 77.977 92.4327 77.0306 92.4327 75.8632C92.4327 74.6958 93.3819 73.7495 94.5527 73.7495C95.7236 73.7495 96.6727 74.6958 96.6727 75.8632C96.6727 77.0306 95.7236 77.977 94.5527 77.977Z" fill="white"/>
<path d="M94.0227 76.2155C93.5348 76.2155 93.1393 75.8212 93.1393 75.3348C93.1393 74.8484 93.5348 74.454 94.0227 74.454C94.5105 74.454 94.906 74.8484 94.906 75.3348C94.906 75.8212 94.5105 76.2155 94.0227 76.2155Z" fill="#4B4B4B"/>
<path opacity="0.332314" d="M97.026 1.17615V68.8243" stroke="white" stroke-linecap="square"/>
<defs>
<linearGradient id="paint0_linear_23_8843" x1="53.4204" y1="161.824" x2="53.413" y2="73.0145" gradientUnits="userSpaceOnUse">
<stop stop-color="#B7C4CB" stop-opacity="0"/>
<stop offset="0.369261" stop-color="white" stop-opacity="0.251302"/>
<stop offset="1" stop-color="#F1F1F1"/>
</linearGradient>
</defs>
</svg>
