<svg width="20" height="20" viewBox="0 0 20 20" fill="none" xmlns="http://www.w3.org/2000/svg">
<path fill-rule="evenodd" clip-rule="evenodd" d="M14.6667 9.16666C14.6667 12.2042 12.2043 14.6667 9.16669 14.6667C6.12912 14.6667 3.66669 12.2042 3.66669 9.16666C3.66669 6.12909 6.12912 3.66666 9.16669 3.66666C12.2043 3.66666 14.6667 6.12909 14.6667 9.16666ZM13.7158 15.13C12.454 16.094 10.8772 16.6667 9.16669 16.6667C5.02455 16.6667 1.66669 13.3088 1.66669 9.16666C1.66669 5.02452 5.02455 1.66666 9.16669 1.66666C13.3088 1.66666 16.6667 5.02452 16.6667 9.16666C16.6667 10.8772 16.0941 12.454 15.13 13.7158L18.2071 16.7929L16.7929 18.2071L13.7158 15.13Z" fill="#777E90"/>
</svg>
