<svg width="14" height="16" viewBox="0 0 14 16" fill="none" xmlns="http://www.w3.org/2000/svg">
<path fill-rule="evenodd" clip-rule="evenodd" d="M13.5625 5.48526L12.2547 6.83526C12.4281 7.61104 12.4164 8.40322 12.25 9.15791L13.5602 10.5103C13.2977 11.1946 12.9273 11.8415 12.4563 12.4228L10.6305 11.9657C10.3469 12.2235 10.0352 12.4579 9.68828 12.6571C9.34141 12.8563 8.98281 13.011 8.61719 13.1259L8.10156 14.9353C7.36562 15.0548 6.61797 15.0524 5.89375 14.9353L5.37578 13.1235C4.6375 12.8915 3.94844 12.5048 3.3625 11.9681L1.54141 12.4251C1.31172 12.1439 1.10078 11.8392 0.913281 11.5134C0.725781 11.1876 0.56875 10.8524 0.4375 10.5126L1.74297 9.16494C1.56953 8.38916 1.58125 7.59932 1.74766 6.84229L0.4375 5.4876C0.7 4.80322 1.07031 4.15635 1.54141 3.5751L3.36719 4.03213C3.65078 3.77432 3.9625 3.53994 4.30938 3.34072C4.65625 3.14151 5.01484 2.98682 5.38047 2.87197L5.89609 1.0626C6.63203 0.945412 7.37969 0.947756 8.10391 1.0626L8.62422 2.87432C9.3625 3.10635 10.0539 3.49307 10.6375 4.02979L12.4586 3.57276C12.6883 3.85401 12.8992 4.15869 13.0867 4.48447C13.2742 4.81026 13.4312 5.14541 13.5625 5.48526ZM4.41016 9.49541C5.2375 10.9251 7.06562 11.4149 8.49531 10.5899C9.925 9.76494 10.4172 7.93447 9.58984 6.50479C8.7625 5.0751 6.93437 4.58526 5.50469 5.41026C4.075 6.2376 3.58281 8.06572 4.41016 9.49541Z" fill="#383676"/>
</svg>
