<svg width="20" height="20" viewBox="0 0 20 20" fill="none" xmlns="http://www.w3.org/2000/svg">
<path fill-rule="evenodd" clip-rule="evenodd" d="M16.6038 6.79245C18.4795 6.79245 20 5.27191 20 3.39623C20 1.52054 18.4795 0 16.6038 0C14.7281 0 13.2075 1.52054 13.2075 3.39623C13.2075 3.65163 13.2357 3.90044 13.2892 4.13973L6.14701 7.81903C5.52981 6.96833 4.52762 6.41509 3.39623 6.41509C1.52054 6.41509 0 7.93564 0 9.81132C0 11.687 1.52054 13.2075 3.39623 13.2075C4.50594 13.2075 5.49134 12.6753 6.1111 11.8522L13.3086 15.7781C13.2426 16.0424 13.2075 16.319 13.2075 16.6038C13.2075 18.4795 14.7281 20 16.6038 20C18.4795 20 20 18.4795 20 16.6038C20 14.7281 18.4795 13.2075 16.6038 13.2075C15.6943 13.2075 14.8683 13.565 14.2587 14.1471L6.7828 10.0694C6.7892 9.98418 6.79245 9.89813 6.79245 9.81132C6.79245 9.74439 6.79052 9.67791 6.7867 9.61193L14.1984 5.7938C14.8133 6.4107 15.6639 6.79245 16.6038 6.79245Z" fill="black"/>
</svg>
