<svg width="17" height="18" viewBox="0 0 17 18" fill="none" xmlns="http://www.w3.org/2000/svg">
  <path d="M5.11093 1.32915L5.46424 0.66758L5.11093 1.32915ZM14.4348 6.30862L14.0815 6.97019L14.4348 6.30862ZM14.431 11.715L14.7832 12.3771L14.431 11.715ZM5.112 16.6729L4.75973 16.0108H4.75973L5.112 16.6729ZM1.14654 13.046L0.428314 12.83L1.14654 13.046ZM1.14065 4.95083L0.422198 5.16607L1.14065 4.95083ZM5.32953 9.76594C5.74375 9.76594 6.07953 9.43015 6.07953 9.01594C6.07953 8.60172 5.74375 8.26594 5.32953 8.26594V9.76594ZM4.75761 1.99071L14.0815 6.97019L14.7881 5.64706L5.46424 0.66758L4.75761 1.99071ZM14.0787 11.0529L4.75973 16.0108L5.46426 17.3351L14.7832 12.3771L14.0787 11.0529ZM1.86476 13.262L3.07675 9.23193L1.64031 8.79994L0.428314 12.83L1.86476 13.262ZM3.07698 8.80069L1.8591 4.73559L0.422198 5.16607L1.64008 9.23118L3.07698 8.80069ZM2.35853 9.76594H5.32953V8.26594H2.35853V9.76594ZM4.75973 16.0108C3.95053 16.4413 3.10735 16.2587 2.50636 15.7091C1.90044 15.1549 1.56934 14.2443 1.86476 13.262L0.428314 12.83C-0.0422485 14.3947 0.486922 15.8948 1.494 16.8159C2.50601 17.7415 4.02855 18.0989 5.46426 17.3351L4.75973 16.0108ZM14.0815 6.97019C15.6409 7.80302 15.639 10.2228 14.0787 11.0529L14.7832 12.3771C17.4035 10.9831 17.4061 7.04518 14.7881 5.64706L14.0815 6.97019ZM5.46424 0.66758C4.02937 -0.098721 2.50602 0.256438 1.49263 1.18085C0.484184 2.10076 -0.0468369 3.60051 0.422198 5.16607L1.8591 4.73559C1.56462 3.75266 1.89688 2.84243 2.50352 2.28905C3.10522 1.74018 3.94877 1.55875 4.75761 1.99071L5.46424 0.66758Z" fill="#23262F"/>
</svg>
