<svg width="32" height="32" viewBox="0 0 32 32" fill="none" xmlns="http://www.w3.org/2000/svg">
  <path d="M16 0C7.16343 0 0 7.16343 0 16C0 24.8366 7.16343 32 16 32C24.8366 32 32 24.8366 32 16C32 7.16343 24.8366 0 16 0ZM22.4692 17.6767L16.7909 23.3554C16.7654 23.3881 16.7383 23.4198 16.7082 23.4495C16.5127 23.6451 16.2563 23.7417 16 23.7404C15.744 23.742 15.4873 23.6451 15.2918 23.4495C15.2617 23.4194 15.2343 23.3881 15.2091 23.3554L9.53078 17.6771C9.14286 17.2891 9.14286 16.6602 9.53078 16.2723C9.91869 15.8844 10.5476 15.8844 10.9358 16.2723L15.0067 20.3429V9.2529C15.0067 8.70433 15.4514 8.25959 16 8.25959C16.5486 8.25959 16.9933 8.70433 16.9933 9.2529V20.3429L21.0645 16.272C21.4524 15.8841 22.0813 15.8841 22.4696 16.272C22.8575 16.6599 22.8575 17.2888 22.4692 17.6767Z" fill="#96B0EE"/>
</svg>
