<?xml version="1.0" standalone="no"?><!DOCTYPE svg PUBLIC "-//W3C//DTD SVG 1.1//EN" "http://www.w3.org/Graphics/SVG/1.1/DTD/svg11.dtd"><svg t="1620887551981" class="icon" viewBox="0 0 1024 1024" version="1.1" xmlns="http://www.w3.org/2000/svg" p-id="1326" xmlns:xlink="http://www.w3.org/1999/xlink" width="200" height="200"><defs><style type="text/css"></style></defs><path d="M751.968 624.096c-55.68 0-103.456 31.968-127.392 78.24l-257.216-156.288c10.336-19.872 16.736-42.08 16.736-66.016 0-16.352-3.328-31.776-8.32-46.432L645.28 288c26.368 29.312 64.192 48.096 106.688 48.096 79.552 0 144-64.48 144-144s-64.448-144-144-144c-79.488 0-144 64.48-144 144 0 13.952 2.592 27.168 6.304 39.904l-271.84 146.848c-26.08-26.4-62.272-42.816-102.368-42.816-79.52 0-144 64.48-144 144s64.48 144 144 144c32.064 0 61.408-10.848 85.344-28.576l282.656 171.744c0 0.32-0.096 0.608-0.096 0.864 0 79.52 64.512 144 144 144 79.552 0 144-64.48 144-144S831.52 624.096 751.968 624.096zM751.968 112.096c44.128 0 80 35.904 80 80s-35.872 80-80 80-80-35.904-80-80S707.84 112.096 751.968 112.096zM240.064 560.032c-44.096 0-80-35.904-80-80s35.904-80 80-80 80 35.904 80 80S284.192 560.032 240.064 560.032zM751.968 848.096c-44.128 0-80-35.872-80-80s35.872-80 80-80 80 35.872 80 80S796.096 848.096 751.968 848.096z" p-id="1327"></path></svg>