<svg width="32" height="32" viewBox="0 0 32 32" fill="none" xmlns="http://www.w3.org/2000/svg">
  <path d="M0 16C-4.42784e-08 18.1012 0.413852 20.1817 1.21793 22.1229C2.022 24.0641 3.20055 25.828 4.68629 27.3137C6.17203 28.7994 7.93586 29.978 9.87707 30.7821C11.8183 31.5861 13.8989 32 16 32C18.1012 32 20.1817 31.5861 22.1229 30.7821C24.0641 29.978 25.828 28.7994 27.3137 27.3137C28.7994 25.828 29.978 24.0641 30.7821 22.1229C31.5861 20.1817 32 18.1012 32 16C32 11.7565 30.3143 7.68687 27.3137 4.68629C24.3131 1.68571 20.2435 0 16 0C11.7565 0 7.68687 1.68571 4.68629 4.68629C1.68571 7.68687 0 11.7565 0 16Z" fill="#96B0EE"/>
  <path d="M13.0908 16C13.0908 16.7715 13.3973 17.5114 13.9429 18.057C14.4884 18.6026 15.2284 18.9091 15.9999 18.9091C16.7714 18.9091 17.5114 18.6026 18.0569 18.057C18.6025 17.5114 18.909 16.7715 18.909 16C18.909 15.6179 18.8338 15.2397 18.6876 14.8867C18.5414 14.5338 18.3271 14.2131 18.0569 13.9429C17.7868 13.6728 17.4661 13.4585 17.1132 13.3123C16.7602 13.1661 16.3819 13.0909 15.9999 13.0909C15.6179 13.0909 15.2396 13.1661 14.8867 13.3123C14.5337 13.4585 14.213 13.6728 13.9429 13.9429C13.6727 14.2131 13.4585 14.5338 13.3123 14.8867C13.1661 15.2397 13.0908 15.6179 13.0908 16Z" fill="white"/>
  <path d="M4.36328 16C4.36328 16.382 4.43853 16.7603 4.58472 17.1132C4.73092 17.4662 4.9452 17.7869 5.21533 18.057C5.48547 18.3271 5.80616 18.5414 6.15911 18.6876C6.51206 18.8338 6.89034 18.9091 7.27237 18.9091C7.6544 18.9091 8.03269 18.8338 8.38563 18.6876C8.73858 18.5414 9.05928 18.3271 9.32941 18.057C9.59954 17.7869 9.81383 17.4662 9.96002 17.1132C10.1062 16.7603 10.1815 16.382 10.1815 16C10.1815 15.2284 9.87497 14.4885 9.32941 13.9429C8.78385 13.3974 8.04391 13.0909 7.27237 13.0909C6.50083 13.0909 5.76089 13.3974 5.21533 13.9429C4.66977 14.4885 4.36328 15.2284 4.36328 16Z" fill="white"/>
  <path d="M21.8184 16C21.8184 16.7715 22.1249 17.5114 22.6704 18.057C23.216 18.6026 23.9559 18.9091 24.7275 18.9091C25.499 18.9091 26.2389 18.6026 26.7845 18.057C27.3301 17.5114 27.6365 16.7715 27.6365 16C27.6365 15.2284 27.3301 14.4885 26.7845 13.9429C26.2389 13.3974 25.499 13.0909 24.7275 13.0909C23.9559 13.0909 23.216 13.3974 22.6704 13.9429C22.1249 14.4885 21.8184 15.2284 21.8184 16Z" fill="white"/>
</svg>
