<svg width="375" height="250" viewBox="0 0 375 250" fill="none" xmlns="http://www.w3.org/2000/svg">
<mask id="mask0_27_28564" style="mask-type:alpha" maskUnits="userSpaceOnUse" x="0" y="0" width="375" height="250">
<rect width="375" height="250" fill="#D44537"/>
</mask>
<g mask="url(#mask0_27_28564)">
<g filter="url(#filter0_d_27_28564)">
<path d="M-9 -451H384.182V194.955C384.182 194.955 324.609 250.5 187.591 250.5C50.573 250.5 -9 194.955 -9 194.955V-451Z" fill="#D44537"/>
<path d="M-8.25 -450.25H383.432V194.622C383.322 194.72 383.174 194.85 382.988 195.011C382.526 195.412 381.826 196.003 380.886 196.756C379.004 198.262 376.159 200.42 372.313 203.012C364.623 208.195 352.935 215.115 336.97 222.039C305.042 235.885 255.995 249.75 187.591 249.75C119.187 249.75 70.1403 235.885 38.2121 222.039C22.2468 215.115 10.5587 208.195 2.86837 203.012C-0.976814 200.42 -3.82258 198.262 -5.70379 196.756C-6.6444 196.003 -7.34386 195.412 -7.80653 195.011C-7.99253 194.85 -8.14025 194.72 -8.25 194.622V-450.25Z" stroke="url(#paint0_radial_27_28564)" stroke-width="1.5"/>
</g>
</g>
<defs>
<filter id="filter0_d_27_28564" x="-13" y="-453" width="401.182" height="709.5" filterUnits="userSpaceOnUse" color-interpolation-filters="sRGB">
<feFlood flood-opacity="0" result="BackgroundImageFix"/>
<feColorMatrix in="SourceAlpha" type="matrix" values="0 0 0 0 0 0 0 0 0 0 0 0 0 0 0 0 0 0 127 0" result="hardAlpha"/>
<feOffset dy="2"/>
<feGaussianBlur stdDeviation="2"/>
<feComposite in2="hardAlpha" operator="out"/>
<feColorMatrix type="matrix" values="0 0 0 0 0 0 0 0 0 0 0 0 0 0 0 0 0 0 0.25 0"/>
<feBlend mode="normal" in2="BackgroundImageFix" result="effect1_dropShadow_27_28564"/>
<feBlend mode="normal" in="SourceGraphic" in2="effect1_dropShadow_27_28564" result="shape"/>
</filter>
<radialGradient id="paint0_radial_27_28564" cx="0" cy="0" r="1" gradientUnits="userSpaceOnUse" gradientTransform="translate(187.591 93.5) rotate(90) scale(157 87.9965)">
<stop stop-color="#FBEBA5"/>
<stop offset="1" stop-color="#FFBE40"/>
</radialGradient>
</defs>
</svg>
