<svg width="375" height="250" viewBox="0 0 375 250" fill="none" xmlns="http://www.w3.org/2000/svg">
<mask id="mask0_4_9848" style="mask-type:alpha" maskUnits="userSpaceOnUse" x="0" y="0" width="375" height="250">
<rect width="375" height="250" fill="#D44537"/>
</mask>
<g mask="url(#mask0_4_9848)">
<g filter="url(#filter0_d_4_9848)">
<path d="M-9 -451H384.182V194.955C384.182 194.955 324.609 250.5 187.591 250.5C50.573 250.5 -9 194.955 -9 194.955V-451Z" fill="#D44537"/>
<path d="M-8.25 -450.25H383.432V194.622C383.322 194.72 383.174 194.85 382.988 195.011C382.526 195.412 381.826 196.003 380.886 196.756C379.004 198.262 376.159 200.42 372.313 203.012C364.623 208.195 352.935 215.115 336.97 222.039C305.042 235.885 255.995 249.75 187.591 249.75C119.187 249.75 70.1403 235.885 38.2121 222.039C22.2468 215.115 10.5587 208.195 2.86837 203.012C-0.976814 200.42 -3.82258 198.262 -5.70379 196.756C-6.6444 196.003 -7.34386 195.412 -7.80653 195.011C-7.99253 194.85 -8.14025 194.72 -8.25 194.622V-450.25Z" stroke="url(#paint0_radial_4_9848)" stroke-width="1.5"/>
</g>
<mask id="mask1_4_9848" style="mask-type:alpha" maskUnits="userSpaceOnUse" x="-9" y="-451" width="394" height="702">
<path d="M-9 -451H384.182V194.955C384.182 194.955 324.609 250.5 187.591 250.5C50.573 250.5 -9 194.955 -9 194.955V-451Z" fill="#E94030"/>
<path d="M-8.25 -450.25H383.432V194.622C383.322 194.72 383.174 194.85 382.988 195.011C382.526 195.412 381.826 196.003 380.886 196.756C379.004 198.262 376.159 200.42 372.313 203.012C364.623 208.195 352.935 215.115 336.97 222.039C305.042 235.885 255.995 249.75 187.591 249.75C119.187 249.75 70.1403 235.885 38.2121 222.039C22.2468 215.115 10.5587 208.195 2.86837 203.012C-0.976814 200.42 -3.82258 198.262 -5.70379 196.756C-6.6444 196.003 -7.34386 195.412 -7.80653 195.011C-7.99253 194.85 -8.14025 194.72 -8.25 194.622V-450.25Z" stroke="url(#paint1_radial_4_9848)" stroke-opacity="0.5" stroke-width="1.5"/>
</mask>
<g mask="url(#mask1_4_9848)">
<path opacity="0.8" fill-rule="evenodd" clip-rule="evenodd" d="M26.6153 -2C29.6696 -2 32.1456 0.475999 32.1456 3.5303V8.23081C32.1456 11.2851 29.6696 13.7611 26.6153 13.7611C23.561 13.7611 21.085 11.2851 21.085 8.23081V3.5303C21.085 0.475999 23.561 -2 26.6153 -2ZM33.1456 3.5303C33.1456 -0.0762854 30.2218 -3 26.6153 -3C23.0087 -3 20.085 -0.0762866 20.085 3.5303V8.23081C20.085 11.8374 23.0087 14.7611 26.6153 14.7611C30.2218 14.7611 33.1456 11.8374 33.1456 8.23081V3.5303ZM51.5654 6.64197L62.626 6.64197V13.7612L51.5654 13.7612V6.64197ZM63.626 5.64197H62.626L51.5654 5.64197H50.5654V6.64197V13.7612V14.7612H51.5654L62.626 14.7612H63.626V13.7612V6.64197V5.64197ZM41.8562 36.1444C47.1356 36.1444 51.4155 31.8645 51.4155 26.5851C51.4155 25.7415 51.3062 24.9234 51.1011 24.1443H32.6113C32.4061 24.9234 32.2969 25.7415 32.2969 26.5851C32.2969 31.8645 36.5767 36.1444 41.8562 36.1444ZM31.5804 24.1443C31.395 24.9277 31.2969 25.7449 31.2969 26.5851C31.2969 32.4168 36.0244 37.1444 41.8562 37.1444C47.6879 37.1444 52.4155 32.4168 52.4155 26.5851C52.4155 25.7449 52.3174 24.9277 52.132 24.1443L63.6889 24.1443C63.1662 35.7509 53.5913 45 41.8557 45C30.12 45 20.5451 35.7509 20.0225 24.1443L31.5804 24.1443ZM31.8702 23.1443L20 23.1443H19C19 23.4794 19.0072 23.8127 19.0215 24.1443C19.5449 36.3034 29.5677 46 41.8557 46C54.1437 46 64.1664 36.3034 64.6899 24.1443C64.7041 23.8127 64.7113 23.4794 64.7113 23.1443H63.7113L51.8422 23.1443C50.4152 19.0019 46.4832 16.0258 41.8562 16.0258C37.2291 16.0258 33.2972 19.0019 31.8702 23.1443ZM50.7775 23.1443C49.3961 19.5649 45.9227 17.0258 41.8562 17.0258C37.7897 17.0258 34.3162 19.5649 32.9348 23.1443H50.7775ZM154.615 -2C157.67 -2 160.146 0.475999 160.146 3.5303V8.23081C160.146 11.2851 157.67 13.7611 154.615 13.7611C151.561 13.7611 149.085 11.2851 149.085 8.23081V3.5303C149.085 0.475999 151.561 -2 154.615 -2ZM161.146 3.5303C161.146 -0.0762854 158.222 -3 154.615 -3C151.009 -3 148.085 -0.0762866 148.085 3.5303V8.23081C148.085 11.8374 151.009 14.7611 154.615 14.7611C158.222 14.7611 161.146 11.8374 161.146 8.23081V3.5303ZM179.565 6.64197L190.626 6.64197V13.7612L179.565 13.7612V6.64197ZM191.626 5.64197H190.626L179.565 5.64197H178.565V6.64197V13.7612V14.7612H179.565L190.626 14.7612H191.626V13.7612V6.64197V5.64197ZM169.856 36.1444C175.136 36.1444 179.415 31.8645 179.415 26.5851C179.415 25.7415 179.306 24.9234 179.101 24.1443H160.611C160.406 24.9234 160.297 25.7415 160.297 26.5851C160.297 31.8645 164.577 36.1444 169.856 36.1444ZM159.58 24.1443C159.395 24.9277 159.297 25.7449 159.297 26.5851C159.297 32.4168 164.024 37.1444 169.856 37.1444C175.688 37.1444 180.415 32.4168 180.415 26.5851C180.415 25.7449 180.317 24.9277 180.132 24.1443L191.689 24.1443C191.166 35.7509 181.591 45 169.856 45C158.12 45 148.545 35.7509 148.022 24.1443L159.58 24.1443ZM159.87 23.1443L148 23.1443H147C147 23.4794 147.007 23.8127 147.021 24.1443C147.545 36.3034 157.568 46 169.856 46C182.144 46 192.166 36.3034 192.69 24.1443C192.704 23.8127 192.711 23.4794 192.711 23.1443H191.711L179.842 23.1443C178.415 19.0019 174.483 16.0258 169.856 16.0258C165.229 16.0258 161.297 19.0019 159.87 23.1443ZM178.778 23.1443C177.396 19.5649 173.923 17.0258 169.856 17.0258C165.79 17.0258 162.316 19.5649 160.935 23.1443H178.778ZM288.146 3.5303C288.146 0.475999 285.67 -2 282.615 -2C279.561 -2 277.085 0.475999 277.085 3.5303V8.23081C277.085 11.2851 279.561 13.7611 282.615 13.7611C285.67 13.7611 288.146 11.2851 288.146 8.23081V3.5303ZM282.615 -3C286.222 -3 289.146 -0.0762854 289.146 3.5303V8.23081C289.146 11.8374 286.222 14.7611 282.615 14.7611C279.009 14.7611 276.085 11.8374 276.085 8.23081V3.5303C276.085 -0.0762866 279.009 -3 282.615 -3ZM318.626 6.64197L307.565 6.64197V13.7612L318.626 13.7612V6.64197ZM318.626 5.64197H319.626V6.64197V13.7612V14.7612H318.626L307.565 14.7612H306.565V13.7612V6.64197V5.64197H307.565L318.626 5.64197ZM307.415 26.5851C307.415 31.8645 303.136 36.1444 297.856 36.1444C292.577 36.1444 288.297 31.8645 288.297 26.5851C288.297 25.7415 288.406 24.9234 288.611 24.1443H307.101C307.306 24.9234 307.415 25.7415 307.415 26.5851ZM287.297 26.5851C287.297 25.7449 287.395 24.9277 287.58 24.1443L276.022 24.1443C276.545 35.7509 286.12 45 297.856 45C309.591 45 319.166 35.7509 319.689 24.1443L308.132 24.1443C308.317 24.9277 308.415 25.7449 308.415 26.5851C308.415 32.4168 303.688 37.1444 297.856 37.1444C292.024 37.1444 287.297 32.4168 287.297 26.5851ZM276 23.1443L287.87 23.1443C289.297 19.0019 293.229 16.0258 297.856 16.0258C302.483 16.0258 306.415 19.0019 307.842 23.1443L319.711 23.1443H320.711C320.711 23.4794 320.704 23.8127 320.69 24.1443C320.166 36.3034 310.144 46 297.856 46C285.568 46 275.545 36.3034 275.021 24.1443C275.007 23.8127 275 23.4794 275 23.1443H276ZM297.856 17.0258C301.923 17.0258 305.396 19.5649 306.778 23.1443H288.935C290.316 19.5649 293.79 17.0258 297.856 17.0258ZM121.096 45C118.041 45 115.565 42.524 115.565 39.4697V34.7692C115.565 31.7149 118.041 29.2389 121.096 29.2389C124.15 29.2389 126.626 31.7149 126.626 34.7692V39.4697C126.626 42.524 124.15 45 121.096 45ZM114.565 39.4697C114.565 43.0763 117.489 46 121.096 46C124.702 46 127.626 43.0763 127.626 39.4697V34.7692C127.626 31.1626 124.702 28.2389 121.096 28.2389C117.489 28.2389 114.565 31.1626 114.565 34.7692V39.4697ZM96.1455 36.358H85.0849V29.2388H96.1455V36.358ZM84.0849 37.358L85.0849 37.358H96.1455H97.1455V36.358V29.2388L97.1455 28.2388H96.1455L85.0849 28.2388H84.0849V29.2388V36.358V37.358ZM105.855 6.85562C100.575 6.85561 96.2955 11.1355 96.2955 16.4149C96.2955 17.2585 96.4047 18.0766 96.6099 18.8557H115.1C115.305 18.0766 115.414 17.2585 115.414 16.4149C115.414 11.1355 111.134 6.85562 105.855 6.85562ZM116.131 18.8557C116.316 18.0723 116.414 17.2551 116.414 16.4149C116.414 10.5832 111.687 5.85562 105.855 5.85562C100.023 5.85561 95.2955 10.5832 95.2955 16.4149C95.2955 17.255 95.3936 18.0723 95.579 18.8557L84.0221 18.8557C84.5447 7.2491 94.1196 -1.99997 105.855 -1.99997C117.591 -1.99997 127.166 7.24911 127.688 18.8557L116.131 18.8557ZM115.841 19.8557L127.711 19.8557H128.711C128.711 19.5206 128.704 19.1873 128.689 18.8557C128.166 6.69662 118.143 -2.99997 105.855 -2.99997C93.5673 -2.99997 83.5445 6.69662 83.0211 18.8557C83.0068 19.1873 82.9996 19.5206 82.9996 19.8557H83.9996L95.8687 19.8557C97.2958 23.9981 101.228 26.9742 105.855 26.9742C110.482 26.9742 114.414 23.9981 115.841 19.8557ZM96.9334 19.8557C98.3148 23.4351 101.788 25.9742 105.855 25.9742C109.921 25.9742 113.395 23.4351 114.776 19.8557H96.9334ZM243.565 39.4697C243.565 42.524 246.041 45 249.096 45C252.15 45 254.626 42.524 254.626 39.4697V34.7692C254.626 31.7149 252.15 29.2389 249.096 29.2389C246.041 29.2389 243.565 31.7149 243.565 34.7692V39.4697ZM249.096 46C245.489 46 242.565 43.0763 242.565 39.4697V34.7692C242.565 31.1626 245.489 28.2389 249.096 28.2389C252.702 28.2389 255.626 31.1626 255.626 34.7692V39.4697C255.626 43.0763 252.702 46 249.096 46ZM213.085 36.358H224.146V29.2388H213.085V36.358ZM213.085 37.358L212.085 37.358V36.358V29.2388L212.085 28.2388H213.085L224.146 28.2388H225.146V29.2388V36.358V37.358H224.146H213.085ZM224.295 16.4149C224.295 11.1355 228.575 6.85561 233.855 6.85562C239.134 6.85562 243.414 11.1355 243.414 16.4149C243.414 17.2585 243.305 18.0766 243.1 18.8557H224.61C224.405 18.0766 224.295 17.2585 224.295 16.4149ZM244.414 16.4149C244.414 17.2551 244.316 18.0723 244.131 18.8557L255.688 18.8557C255.166 7.24911 245.591 -1.99997 233.855 -1.99997C222.12 -1.99997 212.545 7.2491 212.022 18.8557L223.579 18.8557C223.394 18.0723 223.295 17.255 223.295 16.4149C223.295 10.5832 228.023 5.85561 233.855 5.85562C239.687 5.85562 244.414 10.5832 244.414 16.4149ZM255.711 19.8557L243.841 19.8557C242.414 23.9981 238.482 26.9742 233.855 26.9742C229.228 26.9742 225.296 23.9981 223.869 19.8557L212 19.8557H211C211 19.5206 211.007 19.1873 211.021 18.8557C211.545 6.69662 221.567 -2.99997 233.855 -2.99997C246.143 -2.99997 256.166 6.69662 256.689 18.8557C256.704 19.1873 256.711 19.5206 256.711 19.8557H255.711ZM233.855 25.9742C229.788 25.9742 226.315 23.4351 224.933 19.8557H242.776C241.395 23.4351 237.921 25.9742 233.855 25.9742ZM377.096 45C374.041 45 371.565 42.524 371.565 39.4697V34.7692C371.565 31.7149 374.041 29.2389 377.096 29.2389C380.15 29.2389 382.626 31.7149 382.626 34.7692V39.4697C382.626 42.524 380.15 45 377.096 45ZM370.565 39.4697C370.565 43.0763 373.489 46 377.096 46C380.702 46 383.626 43.0763 383.626 39.4697V34.7692C383.626 31.1626 380.702 28.2389 377.096 28.2389C373.489 28.2389 370.565 31.1626 370.565 34.7692V39.4697ZM352.146 36.358H341.085V29.2388H352.146V36.358ZM340.085 37.358L341.085 37.358H352.146H353.146V36.358V29.2388V28.2388H352.146L341.085 28.2388H340.085V29.2388V36.358V37.358ZM361.855 6.85562C356.575 6.85561 352.295 11.1355 352.295 16.4149C352.295 17.2585 352.405 18.0766 352.61 18.8557H371.1C371.305 18.0766 371.414 17.2585 371.414 16.4149C371.414 11.1355 367.134 6.85562 361.855 6.85562ZM372.131 18.8557C372.316 18.0723 372.414 17.2551 372.414 16.4149C372.414 10.5832 367.686 5.85562 361.855 5.85562C356.023 5.85561 351.295 10.5832 351.295 16.4149C351.295 17.255 351.394 18.0723 351.579 18.8557L340.022 18.8557C340.545 7.2491 350.12 -1.99997 361.855 -1.99997C373.591 -1.99997 383.166 7.24911 383.688 18.8557L372.131 18.8557ZM371.841 19.8557L383.711 19.8557H384.711C384.711 19.5206 384.704 19.1873 384.689 18.8557C384.166 6.69662 374.143 -2.99997 361.855 -2.99997C349.567 -2.99997 339.545 6.69662 339.021 18.8557C339.007 19.1873 339 19.5206 339 19.8557H340L351.869 19.8557C353.296 23.9981 357.228 26.9742 361.855 26.9742C366.482 26.9742 370.414 23.9981 371.841 19.8557ZM352.933 19.8557C354.315 23.4351 357.788 25.9742 361.855 25.9742C365.921 25.9742 369.395 23.4351 370.776 19.8557H352.933ZM26.6153 116C29.6696 116 32.1456 118.476 32.1456 121.53V126.231C32.1456 129.285 29.6696 131.761 26.6153 131.761C23.561 131.761 21.085 129.285 21.085 126.231V121.53C21.085 118.476 23.561 116 26.6153 116ZM33.1456 121.53C33.1456 117.924 30.2218 115 26.6153 115C23.0087 115 20.085 117.924 20.085 121.53V126.231C20.085 129.837 23.0087 132.761 26.6153 132.761C30.2218 132.761 33.1456 129.837 33.1456 126.231V121.53ZM51.5654 124.642H62.626V131.761H51.5654V124.642ZM63.626 123.642H62.626H51.5654H50.5654V124.642V131.761V132.761H51.5654H62.626H63.626V131.761V124.642V123.642ZM41.8562 154.144C47.1356 154.144 51.4155 149.865 51.4155 144.585C51.4155 143.742 51.3062 142.923 51.1011 142.144H32.6113C32.4061 142.923 32.2969 143.741 32.2969 144.585C32.2969 149.865 36.5767 154.144 41.8562 154.144ZM31.5804 142.144C31.395 142.928 31.2969 143.745 31.2969 144.585C31.2969 150.417 36.0244 155.144 41.8562 155.144C47.6879 155.144 52.4155 150.417 52.4155 144.585C52.4155 143.745 52.3174 142.928 52.132 142.144H63.6889C63.1662 153.751 53.5913 163 41.8557 163C30.12 163 20.5451 153.751 20.0225 142.144H31.5804ZM31.8702 141.144H20H19C19 141.479 19.0072 141.813 19.0215 142.144C19.5449 154.303 29.5677 164 41.8557 164C54.1437 164 64.1664 154.303 64.6899 142.144C64.7041 141.813 64.7113 141.479 64.7113 141.144H63.7113H51.8422C50.4152 137.002 46.4832 134.026 41.8562 134.026C37.2291 134.026 33.2972 137.002 31.8702 141.144ZM50.7775 141.144C49.3961 137.565 45.9227 135.026 41.8562 135.026C37.7897 135.026 34.3162 137.565 32.9348 141.144H50.7775ZM154.615 116C157.67 116 160.146 118.476 160.146 121.53V126.231C160.146 129.285 157.67 131.761 154.615 131.761C151.561 131.761 149.085 129.285 149.085 126.231V121.53C149.085 118.476 151.561 116 154.615 116ZM161.146 121.53C161.146 117.924 158.222 115 154.615 115C151.009 115 148.085 117.924 148.085 121.53V126.231C148.085 129.837 151.009 132.761 154.615 132.761C158.222 132.761 161.146 129.837 161.146 126.231V121.53ZM179.565 124.642H190.626V131.761H179.565V124.642ZM191.626 123.642H190.626H179.565H178.565V124.642V131.761V132.761H179.565H190.626H191.626V131.761V124.642V123.642ZM169.856 154.144C175.136 154.144 179.415 149.865 179.415 144.585C179.415 143.742 179.306 142.923 179.101 142.144H160.611C160.406 142.923 160.297 143.741 160.297 144.585C160.297 149.865 164.577 154.144 169.856 154.144ZM159.58 142.144C159.395 142.928 159.297 143.745 159.297 144.585C159.297 150.417 164.024 155.144 169.856 155.144C175.688 155.144 180.415 150.417 180.415 144.585C180.415 143.745 180.317 142.928 180.132 142.144H191.689C191.166 153.751 181.591 163 169.856 163C158.12 163 148.545 153.751 148.022 142.144H159.58ZM159.87 141.144H148H147C147 141.479 147.007 141.813 147.021 142.144C147.545 154.303 157.568 164 169.856 164C182.144 164 192.166 154.303 192.69 142.144C192.704 141.813 192.711 141.479 192.711 141.144H191.711H179.842C178.415 137.002 174.483 134.026 169.856 134.026C165.229 134.026 161.297 137.002 159.87 141.144ZM178.778 141.144C177.396 137.565 173.923 135.026 169.856 135.026C165.79 135.026 162.316 137.565 160.935 141.144H178.778ZM288.146 121.53C288.146 118.476 285.67 116 282.615 116C279.561 116 277.085 118.476 277.085 121.53V126.231C277.085 129.285 279.561 131.761 282.615 131.761C285.67 131.761 288.146 129.285 288.146 126.231V121.53ZM282.615 115C286.222 115 289.146 117.924 289.146 121.53V126.231C289.146 129.837 286.222 132.761 282.615 132.761C279.009 132.761 276.085 129.837 276.085 126.231V121.53C276.085 117.924 279.009 115 282.615 115ZM318.626 124.642H307.565V131.761H318.626V124.642ZM318.626 123.642H319.626V124.642V131.761V132.761H318.626H307.565H306.565V131.761V124.642V123.642H307.565H318.626ZM307.415 144.585C307.415 149.865 303.136 154.144 297.856 154.144C292.577 154.144 288.297 149.865 288.297 144.585C288.297 143.741 288.406 142.923 288.611 142.144H307.101C307.306 142.923 307.415 143.742 307.415 144.585ZM287.297 144.585C287.297 143.745 287.395 142.928 287.58 142.144H276.022C276.545 153.751 286.12 163 297.856 163C309.591 163 319.166 153.751 319.689 142.144H308.132C308.317 142.928 308.415 143.745 308.415 144.585C308.415 150.417 303.688 155.144 297.856 155.144C292.024 155.144 287.297 150.417 287.297 144.585ZM276 141.144H287.87C289.297 137.002 293.229 134.026 297.856 134.026C302.483 134.026 306.415 137.002 307.842 141.144H319.711H320.711C320.711 141.479 320.704 141.813 320.69 142.144C320.166 154.303 310.144 164 297.856 164C285.568 164 275.545 154.303 275.021 142.144C275.007 141.813 275 141.479 275 141.144H276ZM297.856 135.026C301.923 135.026 305.396 137.565 306.778 141.144H288.935C290.316 137.565 293.79 135.026 297.856 135.026ZM121.096 163C118.041 163 115.565 160.524 115.565 157.47V152.769C115.565 149.715 118.041 147.239 121.096 147.239C124.15 147.239 126.626 149.715 126.626 152.769V157.47C126.626 160.524 124.15 163 121.096 163ZM114.565 157.47C114.565 161.076 117.489 164 121.096 164C124.702 164 127.626 161.076 127.626 157.47V152.769C127.626 149.163 124.702 146.239 121.096 146.239C117.489 146.239 114.565 149.163 114.565 152.769V157.47ZM96.1455 154.358H85.0849V147.239H96.1455V154.358ZM84.0849 155.358H85.0849H96.1455H97.1455V154.358V147.239L97.1455 146.239H96.1455H85.0849H84.0849V147.239V154.358V155.358ZM105.855 124.856C100.575 124.856 96.2955 129.135 96.2955 134.415C96.2955 135.258 96.4047 136.077 96.6099 136.856H115.1C115.305 136.077 115.414 135.258 115.414 134.415C115.414 129.135 111.134 124.856 105.855 124.856ZM116.131 136.856C116.316 136.072 116.414 135.255 116.414 134.415C116.414 128.583 111.687 123.856 105.855 123.856C100.023 123.856 95.2955 128.583 95.2955 134.415C95.2955 135.255 95.3936 136.072 95.579 136.856H84.0221C84.5447 125.249 94.1196 116 105.855 116C117.591 116 127.166 125.249 127.688 136.856H116.131ZM115.841 137.856H127.711H128.711C128.711 137.521 128.704 137.187 128.689 136.856C128.166 124.697 118.143 115 105.855 115C93.5673 115 83.5445 124.697 83.0211 136.856C83.0068 137.187 82.9996 137.521 82.9996 137.856H83.9996H95.8687C97.2958 141.998 101.228 144.974 105.855 144.974C110.482 144.974 114.414 141.998 115.841 137.856ZM96.9334 137.856C98.3148 141.435 101.788 143.974 105.855 143.974C109.921 143.974 113.395 141.435 114.776 137.856H96.9334ZM243.565 157.47C243.565 160.524 246.041 163 249.096 163C252.15 163 254.626 160.524 254.626 157.47V152.769C254.626 149.715 252.15 147.239 249.096 147.239C246.041 147.239 243.565 149.715 243.565 152.769V157.47ZM249.096 164C245.489 164 242.565 161.076 242.565 157.47V152.769C242.565 149.163 245.489 146.239 249.096 146.239C252.702 146.239 255.626 149.163 255.626 152.769V157.47C255.626 161.076 252.702 164 249.096 164ZM213.085 154.358H224.146V147.239H213.085V154.358ZM213.085 155.358H212.085V154.358V147.239L212.085 146.239H213.085H224.146H225.146V147.239V154.358V155.358H224.146H213.085ZM224.295 134.415C224.295 129.135 228.575 124.856 233.855 124.856C239.134 124.856 243.414 129.135 243.414 134.415C243.414 135.258 243.305 136.077 243.1 136.856H224.61C224.405 136.077 224.295 135.258 224.295 134.415ZM244.414 134.415C244.414 135.255 244.316 136.072 244.131 136.856H255.688C255.166 125.249 245.591 116 233.855 116C222.12 116 212.545 125.249 212.022 136.856H223.579C223.394 136.072 223.295 135.255 223.295 134.415C223.295 128.583 228.023 123.856 233.855 123.856C239.687 123.856 244.414 128.583 244.414 134.415ZM255.711 137.856H243.841C242.414 141.998 238.482 144.974 233.855 144.974C229.228 144.974 225.296 141.998 223.869 137.856H212H211C211 137.521 211.007 137.187 211.021 136.856C211.545 124.697 221.567 115 233.855 115C246.143 115 256.166 124.697 256.689 136.856C256.704 137.187 256.711 137.521 256.711 137.856H255.711ZM233.855 143.974C229.788 143.974 226.315 141.435 224.933 137.856H242.776C241.395 141.435 237.921 143.974 233.855 143.974ZM377.096 163C374.041 163 371.565 160.524 371.565 157.47V152.769C371.565 149.715 374.041 147.239 377.096 147.239C380.15 147.239 382.626 149.715 382.626 152.769V157.47C382.626 160.524 380.15 163 377.096 163ZM370.565 157.47C370.565 161.076 373.489 164 377.096 164C380.702 164 383.626 161.076 383.626 157.47V152.769C383.626 149.163 380.702 146.239 377.096 146.239C373.489 146.239 370.565 149.163 370.565 152.769V157.47ZM352.146 154.358H341.085V147.239H352.146V154.358ZM340.085 155.358H341.085H352.146H353.146V154.358V147.239V146.239H352.146H341.085H340.085V147.239V154.358V155.358ZM361.855 124.856C356.575 124.856 352.295 129.135 352.295 134.415C352.295 135.258 352.405 136.077 352.61 136.856H371.1C371.305 136.077 371.414 135.258 371.414 134.415C371.414 129.135 367.134 124.856 361.855 124.856ZM372.131 136.856C372.316 136.072 372.414 135.255 372.414 134.415C372.414 128.583 367.686 123.856 361.855 123.856C356.023 123.856 351.295 128.583 351.295 134.415C351.295 135.255 351.394 136.072 351.579 136.856H340.022C340.545 125.249 350.12 116 361.855 116C373.591 116 383.166 125.249 383.688 136.856H372.131ZM371.841 137.856H383.711H384.711C384.711 137.521 384.704 137.187 384.689 136.856C384.166 124.697 374.143 115 361.855 115C349.567 115 339.545 124.697 339.021 136.856C339.007 137.187 339 137.521 339 137.856H340H351.869C353.296 141.998 357.228 144.974 361.855 144.974C366.482 144.974 370.414 141.998 371.841 137.856ZM352.933 137.856C354.315 141.435 357.788 143.974 361.855 143.974C365.921 143.974 369.395 141.435 370.776 137.856H352.933ZM-6.38474 57C-3.33044 57 -0.854442 59.476 -0.854443 62.5303V67.2308C-0.854443 70.2851 -3.33044 72.7611 -6.38474 72.7611C-9.43904 72.7611 -11.915 70.2851 -11.915 67.2308L-11.915 62.5303C-11.915 59.476 -9.43904 57 -6.38474 57ZM0.145557 62.5303C0.145558 58.9237 -2.77816 56 -6.38474 56C-9.99132 56 -12.915 58.9237 -12.915 62.5303L-12.915 67.2308C-12.915 70.8374 -9.99133 73.7611 -6.38474 73.7611C-2.77816 73.7611 0.145557 70.8374 0.145557 67.2308V62.5303ZM18.5654 65.642H29.626V72.7612H18.5654V65.642ZM30.626 64.642H29.626H18.5654H17.5654V65.642V72.7612V73.7612H18.5654H29.626H30.626V72.7612V65.642V64.642ZM8.85618 95.1444C14.1356 95.1444 18.4155 90.8645 18.4155 85.5851C18.4155 84.7415 18.3062 83.9234 18.1011 83.1443H-0.3887C-0.593857 83.9234 -0.703126 84.7415 -0.703126 85.5851C-0.703126 90.8645 3.57672 95.1444 8.85618 95.1444ZM-1.41962 83.1443C-1.60501 83.9277 -1.70313 84.7449 -1.70313 85.5851C-1.70313 91.4168 3.02444 96.1444 8.85618 96.1444C14.6879 96.1444 19.4155 91.4168 19.4155 85.5851C19.4155 84.7449 19.3174 83.9277 19.132 83.1443H30.6889C30.1662 94.7509 20.5913 104 8.85567 104C-2.87996 104 -12.4549 94.7509 -12.9775 83.1443H-1.41962ZM-1.12985 82.1443H-13H-14C-14 82.4794 -13.9928 82.8127 -13.9785 83.1443C-13.4551 95.3034 -3.43233 105 8.85567 105C21.1437 105 31.1664 95.3034 31.6899 83.1443C31.7041 82.8127 31.7113 82.4794 31.7113 82.1443H30.7113H18.8422C17.4152 78.0019 13.4832 75.0258 8.85618 75.0258C4.22913 75.0258 0.297186 78.0019 -1.12985 82.1443ZM17.7775 82.1443C16.3961 78.5649 12.9227 76.0258 8.85618 76.0258C4.78967 76.0258 1.31622 78.5649 -0.065176 82.1443H17.7775ZM121.615 57C124.67 57 127.146 59.476 127.146 62.5303V67.2308C127.146 70.2851 124.67 72.7611 121.615 72.7611C118.561 72.7611 116.085 70.2851 116.085 67.2308V62.5303C116.085 59.476 118.561 57 121.615 57ZM128.146 62.5303C128.146 58.9237 125.222 56 121.615 56C118.009 56 115.085 58.9237 115.085 62.5303V67.2308C115.085 70.8374 118.009 73.7611 121.615 73.7611C125.222 73.7611 128.146 70.8374 128.146 67.2308V62.5303ZM146.565 65.642H157.626V72.7612H146.565V65.642ZM158.626 64.642H157.626H146.565H145.565V65.642V72.7612V73.7612H146.565H157.626H158.626V72.7612V65.642V64.642ZM136.856 95.1444C142.136 95.1444 146.415 90.8645 146.415 85.5851C146.415 84.7415 146.306 83.9234 146.101 83.1443H127.611C127.406 83.9234 127.297 84.7415 127.297 85.5851C127.297 90.8645 131.577 95.1444 136.856 95.1444ZM126.58 83.1443C126.395 83.9277 126.297 84.7449 126.297 85.5851C126.297 91.4168 131.024 96.1444 136.856 96.1444C142.688 96.1444 147.415 91.4168 147.415 85.5851C147.415 84.7449 147.317 83.9277 147.132 83.1443H158.689C158.166 94.7509 148.591 104 136.856 104C125.12 104 115.545 94.7509 115.022 83.1443H126.58ZM126.87 82.1443H115H114C114 82.4794 114.007 82.8127 114.021 83.1443C114.545 95.3034 124.568 105 136.856 105C149.144 105 159.166 95.3034 159.69 83.1443C159.704 82.8127 159.711 82.4794 159.711 82.1443H158.711H146.842C145.415 78.0019 141.483 75.0258 136.856 75.0258C132.229 75.0258 128.297 78.0019 126.87 82.1443ZM145.778 82.1443C144.396 78.5649 140.923 76.0258 136.856 76.0258C132.79 76.0258 129.316 78.5649 127.935 82.1443H145.778ZM255.146 62.5303C255.146 59.476 252.67 57 249.615 57C246.561 57 244.085 59.476 244.085 62.5303V67.2308C244.085 70.2851 246.561 72.7611 249.615 72.7611C252.67 72.7611 255.146 70.2851 255.146 67.2308V62.5303ZM249.615 56C253.222 56 256.146 58.9237 256.146 62.5303V67.2308C256.146 70.8374 253.222 73.7611 249.615 73.7611C246.009 73.7611 243.085 70.8374 243.085 67.2308V62.5303C243.085 58.9237 246.009 56 249.615 56ZM285.626 65.642H274.565V72.7612H285.626V65.642ZM285.626 64.642H286.626V65.642V72.7612V73.7612H285.626H274.565H273.565V72.7612V65.642V64.642H274.565H285.626ZM274.415 85.5851C274.415 90.8645 270.136 95.1444 264.856 95.1444C259.577 95.1444 255.297 90.8645 255.297 85.5851C255.297 84.7415 255.406 83.9234 255.611 83.1443H274.101C274.306 83.9234 274.415 84.7415 274.415 85.5851ZM254.297 85.5851C254.297 84.7449 254.395 83.9277 254.58 83.1443H243.022C243.545 94.7509 253.12 104 264.856 104C276.591 104 286.166 94.7509 286.689 83.1443H275.132C275.317 83.9277 275.415 84.7449 275.415 85.5851C275.415 91.4168 270.688 96.1444 264.856 96.1444C259.024 96.1444 254.297 91.4168 254.297 85.5851ZM243 82.1443H254.87C256.297 78.0019 260.229 75.0258 264.856 75.0258C269.483 75.0258 273.415 78.0019 274.842 82.1443H286.711H287.711C287.711 82.4794 287.704 82.8127 287.69 83.1443C287.166 95.3034 277.144 105 264.856 105C252.568 105 242.545 95.3034 242.021 83.1443C242.007 82.8127 242 82.4794 242 82.1443H243ZM264.856 76.0258C268.923 76.0258 272.396 78.5649 273.778 82.1443H255.935C257.316 78.5649 260.79 76.0258 264.856 76.0258ZM377.615 57C380.67 57 383.146 59.476 383.146 62.5303V67.2308C383.146 70.2851 380.67 72.7611 377.615 72.7611C374.561 72.7611 372.085 70.2851 372.085 67.2308V62.5303C372.085 59.476 374.561 57 377.615 57ZM384.146 62.5303C384.146 58.9237 381.222 56 377.615 56C374.009 56 371.085 58.9237 371.085 62.5303V67.2308C371.085 70.8374 374.009 73.7611 377.615 73.7611C381.222 73.7611 384.146 70.8374 384.146 67.2308V62.5303ZM402.565 65.642H413.626V72.7612H402.565V65.642ZM414.626 64.642H413.626H402.565H401.565V65.642V72.7612V73.7612H402.565H413.626H414.626V72.7612V65.642V64.642ZM392.856 95.1444C398.136 95.1444 402.415 90.8645 402.415 85.5851C402.415 84.7415 402.306 83.9234 402.101 83.1443H383.611C383.406 83.9234 383.297 84.7415 383.297 85.5851C383.297 90.8645 387.577 95.1444 392.856 95.1444ZM382.58 83.1443C382.395 83.9277 382.297 84.7449 382.297 85.5851C382.297 91.4168 387.024 96.1444 392.856 96.1444C398.688 96.1444 403.415 91.4168 403.415 85.5851C403.415 84.7449 403.317 83.9277 403.132 83.1443H414.689C414.166 94.7509 404.591 104 392.856 104C381.12 104 371.545 94.7509 371.022 83.1443H382.58ZM382.87 82.1443H371H370C370 82.4794 370.007 82.8127 370.021 83.1443C370.545 95.3034 380.568 105 392.856 105C405.144 105 415.166 95.3034 415.69 83.1443C415.704 82.8127 415.711 82.4794 415.711 82.1443H414.711H402.842C401.415 78.0019 397.483 75.0258 392.856 75.0258C388.229 75.0258 384.297 78.0019 382.87 82.1443ZM401.778 82.1443C400.396 78.5649 396.923 76.0258 392.856 76.0258C388.79 76.0258 385.316 78.5649 383.935 82.1443H401.778ZM82.5654 98.4697C82.5654 101.524 85.0414 104 88.0957 104C91.15 104 93.626 101.524 93.626 98.4697L93.626 93.7692C93.626 90.7149 91.15 88.2389 88.0957 88.2389C85.0414 88.2389 82.5654 90.7149 82.5654 93.7692V98.4697ZM88.0957 105C84.4891 105 81.5654 102.076 81.5654 98.4697V93.7692C81.5654 90.1626 84.4891 87.2389 88.0957 87.2389C91.7023 87.2389 94.626 90.1626 94.626 93.7692L94.626 98.4697C94.626 102.076 91.7023 105 88.0957 105ZM52.0849 95.358H63.1455V88.2388H52.0849V95.358ZM52.0849 96.358H51.0849V95.358V88.2388V87.2388H52.0849H63.1455H64.1455L64.1455 88.2388V95.358V96.358H63.1455H52.0849ZM63.2955 75.4149C63.2955 70.1355 67.5753 65.8556 72.8548 65.8556C78.1342 65.8556 82.4141 70.1355 82.4141 75.4149C82.4141 76.2585 82.3048 77.0766 82.0996 77.8557H63.6099C63.4047 77.0766 63.2955 76.2585 63.2955 75.4149ZM83.4141 75.4149C83.4141 76.2551 83.316 77.0723 83.1306 77.8557H94.6885C94.1658 66.2491 84.5909 57 72.8553 57C61.1196 57 51.5447 66.2491 51.0221 77.8557H62.579C62.3936 77.0723 62.2955 76.2551 62.2955 75.4149C62.2955 69.5832 67.023 64.8556 72.8548 64.8556C78.6865 64.8556 83.4141 69.5832 83.4141 75.4149ZM94.7109 78.8557H82.8408C81.4138 82.9981 77.4818 85.9742 72.8548 85.9742C68.2277 85.9742 64.2958 82.9981 62.8687 78.8557H50.9996H49.9996C49.9996 78.5206 50.0068 78.1873 50.0211 77.8557C50.5445 65.6966 60.5673 56 72.8553 56C85.1433 56 95.166 65.6966 95.6895 77.8557C95.7037 78.1873 95.7109 78.5206 95.7109 78.8557H94.7109ZM72.8548 84.9742C68.7883 84.9742 65.3148 82.4351 63.9334 78.8557H81.7761C80.3947 82.4351 76.9213 84.9742 72.8548 84.9742ZM216.096 104C213.041 104 210.565 101.524 210.565 98.4697V93.7692C210.565 90.7149 213.041 88.2389 216.096 88.2389C219.15 88.2389 221.626 90.7149 221.626 93.7692V98.4697C221.626 101.524 219.15 104 216.096 104ZM209.565 98.4697C209.565 102.076 212.489 105 216.096 105C219.702 105 222.626 102.076 222.626 98.4697V93.7692C222.626 90.1626 219.702 87.2389 216.096 87.2389C212.489 87.2389 209.565 90.1626 209.565 93.7692V98.4697ZM191.146 95.358H180.085V88.2388H191.146V95.358ZM179.085 96.358H180.085H191.146H192.146V95.358V88.2388V87.2388H191.146H180.085H179.085L179.085 88.2388V95.358V96.358ZM200.855 65.8556C195.575 65.8556 191.295 70.1355 191.295 75.4149C191.295 76.2585 191.405 77.0766 191.61 77.8557H210.1C210.305 77.0766 210.414 76.2585 210.414 75.4149C210.414 70.1355 206.134 65.8556 200.855 65.8556ZM211.131 77.8557C211.316 77.0723 211.414 76.2551 211.414 75.4149C211.414 69.5832 206.687 64.8556 200.855 64.8556C195.023 64.8556 190.295 69.5832 190.295 75.4149C190.295 76.2551 190.394 77.0723 190.579 77.8557H179.022C179.545 66.2491 189.12 57 200.855 57C212.591 57 222.166 66.2491 222.688 77.8557H211.131ZM210.841 78.8557H222.711H223.711C223.711 78.5206 223.704 78.1873 223.689 77.8557C223.166 65.6966 213.143 56 200.855 56C188.567 56 178.545 65.6966 178.021 77.8557C178.007 78.1873 178 78.5206 178 78.8557H179H190.869C192.296 82.9981 196.228 85.9742 200.855 85.9742C205.482 85.9742 209.414 82.9981 210.841 78.8557ZM191.933 78.8557C193.315 82.4351 196.788 84.9742 200.855 84.9742C204.921 84.9742 208.395 82.4351 209.776 78.8557H191.933ZM338.565 98.4697C338.565 101.524 341.041 104 344.096 104C347.15 104 349.626 101.524 349.626 98.4697V93.7692C349.626 90.7149 347.15 88.2389 344.096 88.2389C341.041 88.2389 338.565 90.7149 338.565 93.7692V98.4697ZM344.096 105C340.489 105 337.565 102.076 337.565 98.4697V93.7692C337.565 90.1626 340.489 87.2389 344.096 87.2389C347.702 87.2389 350.626 90.1626 350.626 93.7692V98.4697C350.626 102.076 347.702 105 344.096 105ZM308.085 95.358H319.146V88.2388H308.085V95.358ZM308.085 96.358H307.085V95.358V88.2388V87.2388H308.085H319.146H320.146V88.2388V95.358V96.358H319.146H308.085ZM319.295 75.4149C319.295 70.1355 323.575 65.8556 328.855 65.8556C334.134 65.8556 338.414 70.1355 338.414 75.4149C338.414 76.2585 338.305 77.0766 338.1 77.8557H319.61C319.405 77.0766 319.295 76.2585 319.295 75.4149ZM339.414 75.4149C339.414 76.2551 339.316 77.0723 339.131 77.8557H350.688C350.166 66.2491 340.591 57 328.855 57C317.12 57 307.545 66.2491 307.022 77.8557H318.579C318.394 77.0723 318.295 76.2551 318.295 75.4149C318.295 69.5832 323.023 64.8556 328.855 64.8556C334.686 64.8556 339.414 69.5832 339.414 75.4149ZM350.711 78.8557H338.841C337.414 82.9981 333.482 85.9742 328.855 85.9742C324.228 85.9742 320.296 82.9981 318.869 78.8557H307H306C306 78.5206 306.007 78.1873 306.021 77.8557C306.545 65.6966 316.567 56 328.855 56C341.143 56 351.166 65.6966 351.689 77.8557C351.704 78.1873 351.711 78.5206 351.711 78.8557H350.711ZM328.855 84.9742C324.788 84.9742 321.315 82.4351 319.933 78.8557H337.776C336.395 82.4351 332.921 84.9742 328.855 84.9742ZM-0.854443 180.53C-0.854442 177.476 -3.33044 175 -6.38474 175C-9.43904 175 -11.915 177.476 -11.915 180.53L-11.915 185.231C-11.915 188.285 -9.43904 190.761 -6.38474 190.761C-3.33044 190.761 -0.854443 188.285 -0.854443 185.231V180.53ZM-6.38474 174C-2.77816 174 0.145558 176.924 0.145557 180.53V185.231C0.145557 188.837 -2.77816 191.761 -6.38474 191.761C-9.99133 191.761 -12.915 188.837 -12.915 185.231L-12.915 180.53C-12.915 176.924 -9.99132 174 -6.38474 174ZM29.626 183.642H18.5654V190.761H29.626V183.642ZM29.626 182.642H30.626V183.642V190.761V191.761H29.626H18.5654H17.5654V190.761V183.642V182.642H18.5654H29.626ZM18.4155 203.585C18.4155 208.865 14.1356 213.144 8.85618 213.144C3.57672 213.144 -0.703126 208.865 -0.703126 203.585C-0.703126 202.741 -0.593857 201.923 -0.3887 201.144H18.1011C18.3062 201.923 18.4155 202.742 18.4155 203.585ZM-1.70313 203.585C-1.70313 202.745 -1.60501 201.928 -1.41962 201.144H-12.9775C-12.4549 212.751 -2.87996 222 8.85567 222C20.5913 222 30.1662 212.751 30.6889 201.144H19.132C19.3174 201.928 19.4155 202.745 19.4155 203.585C19.4155 209.417 14.6879 214.144 8.85618 214.144C3.02444 214.144 -1.70313 209.417 -1.70313 203.585ZM-13 200.144H-1.12985C0.297186 196.002 4.22913 193.026 8.85618 193.026C13.4832 193.026 17.4152 196.002 18.8422 200.144H30.7113H31.7113C31.7113 200.479 31.7041 200.813 31.6899 201.144C31.1664 213.303 21.1437 223 8.85567 223C-3.43233 223 -13.4551 213.303 -13.9785 201.144C-13.9928 200.813 -14 200.479 -14 200.144H-13ZM8.85618 194.026C12.9227 194.026 16.3961 196.565 17.7775 200.144H-0.065176C1.31622 196.565 4.78967 194.026 8.85618 194.026ZM127.146 180.53C127.146 177.476 124.67 175 121.615 175C118.561 175 116.085 177.476 116.085 180.53V185.231C116.085 188.285 118.561 190.761 121.615 190.761C124.67 190.761 127.146 188.285 127.146 185.231V180.53ZM121.615 174C125.222 174 128.146 176.924 128.146 180.53V185.231C128.146 188.837 125.222 191.761 121.615 191.761C118.009 191.761 115.085 188.837 115.085 185.231V180.53C115.085 176.924 118.009 174 121.615 174ZM157.626 183.642H146.565V190.761H157.626V183.642ZM157.626 182.642H158.626V183.642V190.761V191.761H157.626H146.565H145.565V190.761V183.642V182.642H146.565H157.626ZM146.415 203.585C146.415 208.865 142.136 213.144 136.856 213.144C131.577 213.144 127.297 208.865 127.297 203.585C127.297 202.741 127.406 201.923 127.611 201.144H146.101C146.306 201.923 146.415 202.742 146.415 203.585ZM126.297 203.585C126.297 202.745 126.395 201.928 126.58 201.144H115.022C115.545 212.751 125.12 222 136.856 222C148.591 222 158.166 212.751 158.689 201.144H147.132C147.317 201.928 147.415 202.745 147.415 203.585C147.415 209.417 142.688 214.144 136.856 214.144C131.024 214.144 126.297 209.417 126.297 203.585ZM115 200.144H126.87C128.297 196.002 132.229 193.026 136.856 193.026C141.483 193.026 145.415 196.002 146.842 200.144H158.711H159.711C159.711 200.479 159.704 200.813 159.69 201.144C159.166 213.303 149.144 223 136.856 223C124.568 223 114.545 213.303 114.021 201.144C114.007 200.813 114 200.479 114 200.144H115ZM136.856 194.026C140.923 194.026 144.396 196.565 145.778 200.144H127.935C129.316 196.565 132.79 194.026 136.856 194.026ZM249.615 175C252.67 175 255.146 177.476 255.146 180.53V185.231C255.146 188.285 252.67 190.761 249.615 190.761C246.561 190.761 244.085 188.285 244.085 185.231V180.53C244.085 177.476 246.561 175 249.615 175ZM256.146 180.53C256.146 176.924 253.222 174 249.615 174C246.009 174 243.085 176.924 243.085 180.53V185.231C243.085 188.837 246.009 191.761 249.615 191.761C253.222 191.761 256.146 188.837 256.146 185.231V180.53ZM274.565 183.642H285.626V190.761H274.565V183.642ZM286.626 182.642H285.626H274.565H273.565V183.642V190.761V191.761H274.565H285.626H286.626V190.761V183.642V182.642ZM264.856 213.144C270.136 213.144 274.415 208.865 274.415 203.585C274.415 202.742 274.306 201.923 274.101 201.144H255.611C255.406 201.923 255.297 202.741 255.297 203.585C255.297 208.865 259.577 213.144 264.856 213.144ZM254.58 201.144C254.395 201.928 254.297 202.745 254.297 203.585C254.297 209.417 259.024 214.144 264.856 214.144C270.688 214.144 275.415 209.417 275.415 203.585C275.415 202.745 275.317 201.928 275.132 201.144H286.689C286.166 212.751 276.591 222 264.856 222C253.12 222 243.545 212.751 243.022 201.144H254.58ZM254.87 200.144H243H242C242 200.479 242.007 200.813 242.021 201.144C242.545 213.303 252.568 223 264.856 223C277.144 223 287.166 213.303 287.69 201.144C287.704 200.813 287.711 200.479 287.711 200.144H286.711H274.842C273.415 196.002 269.483 193.026 264.856 193.026C260.229 193.026 256.297 196.002 254.87 200.144ZM273.778 200.144C272.396 196.565 268.923 194.026 264.856 194.026C260.79 194.026 257.316 196.565 255.935 200.144H273.778ZM383.146 180.53C383.146 177.476 380.67 175 377.615 175C374.561 175 372.085 177.476 372.085 180.53V185.231C372.085 188.285 374.561 190.761 377.615 190.761C380.67 190.761 383.146 188.285 383.146 185.231V180.53ZM377.615 174C381.222 174 384.146 176.924 384.146 180.53V185.231C384.146 188.837 381.222 191.761 377.615 191.761C374.009 191.761 371.085 188.837 371.085 185.231V180.53C371.085 176.924 374.009 174 377.615 174ZM413.626 183.642H402.565V190.761H413.626V183.642ZM413.626 182.642H414.626V183.642V190.761V191.761H413.626H402.565H401.565V190.761V183.642V182.642H402.565H413.626ZM402.415 203.585C402.415 208.865 398.136 213.144 392.856 213.144C387.577 213.144 383.297 208.865 383.297 203.585C383.297 202.741 383.406 201.923 383.611 201.144H402.101C402.306 201.923 402.415 202.742 402.415 203.585ZM382.297 203.585C382.297 202.745 382.395 201.928 382.58 201.144H371.022C371.545 212.751 381.12 222 392.856 222C404.591 222 414.166 212.751 414.689 201.144H403.132C403.317 201.928 403.415 202.745 403.415 203.585C403.415 209.417 398.688 214.144 392.856 214.144C387.024 214.144 382.297 209.417 382.297 203.585ZM371 200.144H382.87C384.297 196.002 388.229 193.026 392.856 193.026C397.483 193.026 401.415 196.002 402.842 200.144H414.711H415.711C415.711 200.479 415.704 200.813 415.69 201.144C415.166 213.303 405.144 223 392.856 223C380.568 223 370.545 213.303 370.021 201.144C370.007 200.813 370 200.479 370 200.144H371ZM392.856 194.026C396.923 194.026 400.396 196.565 401.778 200.144H383.935C385.316 196.565 388.79 194.026 392.856 194.026ZM88.0957 222C85.0414 222 82.5654 219.524 82.5654 216.47V211.769C82.5654 208.715 85.0414 206.239 88.0957 206.239C91.15 206.239 93.626 208.715 93.626 211.769L93.626 216.47C93.626 219.524 91.15 222 88.0957 222ZM81.5654 216.47C81.5654 220.076 84.4891 223 88.0957 223C91.7023 223 94.626 220.076 94.626 216.47L94.626 211.769C94.626 208.163 91.7023 205.239 88.0957 205.239C84.4891 205.239 81.5654 208.163 81.5654 211.769V216.47ZM63.1455 213.358H52.0849V206.239H63.1455V213.358ZM51.0849 214.358H52.0849H63.1455H64.1455V213.358V206.239L64.1455 205.239H63.1455H52.0849H51.0849V206.239V213.358V214.358ZM72.8548 183.856C67.5753 183.856 63.2955 188.135 63.2955 193.415C63.2955 194.258 63.4047 195.077 63.6099 195.856H82.0996C82.3048 195.077 82.4141 194.258 82.4141 193.415C82.4141 188.135 78.1342 183.856 72.8548 183.856ZM83.1306 195.856C83.316 195.072 83.4141 194.255 83.4141 193.415C83.4141 187.583 78.6865 182.856 72.8548 182.856C67.023 182.856 62.2955 187.583 62.2955 193.415C62.2955 194.255 62.3936 195.072 62.579 195.856H51.0221C51.5447 184.249 61.1196 175 72.8553 175C84.5909 175 94.1658 184.249 94.6885 195.856H83.1306ZM82.8408 196.856H94.7109H95.7109C95.7109 196.521 95.7037 196.187 95.6895 195.856C95.166 183.697 85.1433 174 72.8553 174C60.5673 174 50.5445 183.697 50.0211 195.856C50.0068 196.187 49.9996 196.521 49.9996 196.856H50.9996H62.8687C64.2958 200.998 68.2277 203.974 72.8548 203.974C77.4818 203.974 81.4138 200.998 82.8408 196.856ZM63.9334 196.856C65.3148 200.435 68.7883 202.974 72.8548 202.974C76.9213 202.974 80.3947 200.435 81.7761 196.856H63.9334ZM210.565 216.47C210.565 219.524 213.041 222 216.096 222C219.15 222 221.626 219.524 221.626 216.47V211.769C221.626 208.715 219.15 206.239 216.096 206.239C213.041 206.239 210.565 208.715 210.565 211.769V216.47ZM216.096 223C212.489 223 209.565 220.076 209.565 216.47V211.769C209.565 208.163 212.489 205.239 216.096 205.239C219.702 205.239 222.626 208.163 222.626 211.769V216.47C222.626 220.076 219.702 223 216.096 223ZM180.085 213.358H191.146V206.239H180.085V213.358ZM180.085 214.358H179.085V213.358V206.239L179.085 205.239H180.085H191.146H192.146V206.239V213.358V214.358H191.146H180.085ZM191.295 193.415C191.295 188.135 195.575 183.856 200.855 183.856C206.134 183.856 210.414 188.135 210.414 193.415C210.414 194.258 210.305 195.077 210.1 195.856H191.61C191.405 195.077 191.295 194.258 191.295 193.415ZM211.414 193.415C211.414 194.255 211.316 195.072 211.131 195.856H222.688C222.166 184.249 212.591 175 200.855 175C189.12 175 179.545 184.249 179.022 195.856H190.579C190.394 195.072 190.295 194.255 190.295 193.415C190.295 187.583 195.023 182.856 200.855 182.856C206.687 182.856 211.414 187.583 211.414 193.415ZM222.711 196.856H210.841C209.414 200.998 205.482 203.974 200.855 203.974C196.228 203.974 192.296 200.998 190.869 196.856H179H178C178 196.521 178.007 196.187 178.021 195.856C178.545 183.697 188.567 174 200.855 174C213.143 174 223.166 183.697 223.689 195.856C223.704 196.187 223.711 196.521 223.711 196.856H222.711ZM200.855 202.974C196.788 202.974 193.315 200.435 191.933 196.856H209.776C208.395 200.435 204.921 202.974 200.855 202.974ZM344.096 222C341.041 222 338.565 219.524 338.565 216.47V211.769C338.565 208.715 341.041 206.239 344.096 206.239C347.15 206.239 349.626 208.715 349.626 211.769V216.47C349.626 219.524 347.15 222 344.096 222ZM337.565 216.47C337.565 220.076 340.489 223 344.096 223C347.702 223 350.626 220.076 350.626 216.47V211.769C350.626 208.163 347.702 205.239 344.096 205.239C340.489 205.239 337.565 208.163 337.565 211.769V216.47ZM319.146 213.358H308.085V206.239H319.146V213.358ZM307.085 214.358H308.085H319.146H320.146V213.358V206.239V205.239H319.146H308.085H307.085V206.239V213.358V214.358ZM328.855 183.856C323.575 183.856 319.295 188.135 319.295 193.415C319.295 194.258 319.405 195.077 319.61 195.856H338.1C338.305 195.077 338.414 194.258 338.414 193.415C338.414 188.135 334.134 183.856 328.855 183.856ZM339.131 195.856C339.316 195.072 339.414 194.255 339.414 193.415C339.414 187.583 334.686 182.856 328.855 182.856C323.023 182.856 318.295 187.583 318.295 193.415C318.295 194.255 318.394 195.072 318.579 195.856H307.022C307.545 184.249 317.12 175 328.855 175C340.591 175 350.166 184.249 350.688 195.856H339.131ZM338.841 196.856H350.711H351.711C351.711 196.521 351.704 196.187 351.689 195.856C351.166 183.697 341.143 174 328.855 174C316.567 174 306.545 183.697 306.021 195.856C306.007 196.187 306 196.521 306 196.856H307H318.869C320.296 200.998 324.228 203.974 328.855 203.974C333.482 203.974 337.414 200.998 338.841 196.856ZM319.933 196.856C321.315 200.435 324.788 202.974 328.855 202.974C332.921 202.974 336.395 200.435 337.776 196.856H319.933Z" fill="url(#paint2_linear_4_9848)" fill-opacity="0.5"/>
</g>
</g>
<defs>
<filter id="filter0_d_4_9848" x="-13" y="-453" width="401.182" height="709.5" filterUnits="userSpaceOnUse" color-interpolation-filters="sRGB">
<feFlood flood-opacity="0" result="BackgroundImageFix"/>
<feColorMatrix in="SourceAlpha" type="matrix" values="0 0 0 0 0 0 0 0 0 0 0 0 0 0 0 0 0 0 127 0" result="hardAlpha"/>
<feOffset dy="2"/>
<feGaussianBlur stdDeviation="2"/>
<feComposite in2="hardAlpha" operator="out"/>
<feColorMatrix type="matrix" values="0 0 0 0 0 0 0 0 0 0 0 0 0 0 0 0 0 0 0.25 0"/>
<feBlend mode="normal" in2="BackgroundImageFix" result="effect1_dropShadow_4_9848"/>
<feBlend mode="normal" in="SourceGraphic" in2="effect1_dropShadow_4_9848" result="shape"/>
</filter>
<radialGradient id="paint0_radial_4_9848" cx="0" cy="0" r="1" gradientUnits="userSpaceOnUse" gradientTransform="translate(187.591 93.5) rotate(90) scale(157 87.9965)">
<stop stop-color="#FBEBA5"/>
<stop offset="1" stop-color="#FFBE40"/>
</radialGradient>
<radialGradient id="paint1_radial_4_9848" cx="0" cy="0" r="1" gradientUnits="userSpaceOnUse" gradientTransform="translate(187.591 93.5) rotate(90) scale(157 87.9965)">
<stop stop-color="#FBEBA5"/>
<stop offset="1" stop-color="#FFBE40"/>
</radialGradient>
<linearGradient id="paint2_linear_4_9848" x1="200.856" y1="-3" x2="200.856" y2="256" gradientUnits="userSpaceOnUse">
<stop stop-color="#F9E0B7"/>
<stop offset="1" stop-color="#FFE5B9"/>
</linearGradient>
</defs>
</svg>
