<svg width="16" height="16" viewBox="0 0 16 16" fill="none" xmlns="http://www.w3.org/2000/svg">
<path fill-rule="evenodd" clip-rule="evenodd" d="M10.3773 4.75271V5.83714H12.5715C13.316 5.83714 13.3019 5.89545 13.3019 6.55576V14.2039C13.3019 14.6823 13.3171 14.9215 12.5715 14.9215H3.42768C2.58265 14.9215 2.71938 14.6161 2.69626 14.2039V6.55973C2.69626 5.90042 2.68314 5.84111 3.42768 5.84111H5.62293V4.75668H2.83894C2.09439 4.75668 1.6001 5.17683 1.6001 5.83714V14.8049C1.6001 15.4662 2.20296 16 2.94741 16H13.0528C13.7963 16 14.4001 15.4662 14.4001 14.8049V6.11096C14.4001 5.45163 13.9058 4.75271 13.1623 4.75271H10.3773ZM7.45054 2.07193V10.2449H8.54971V2.00666L9.78452 3.22255L10.5602 2.45941L8.06844 0L5.48532 2.33094L6.20874 3.14246L7.45054 2.07193Z" fill="#333333"/>
</svg>
