<svg width="32" height="32" viewBox="0 0 32 32" fill="none" xmlns="http://www.w3.org/2000/svg">
  <path d="M0 16C0 20.2435 1.68571 24.3131 4.68629 27.3137C7.68687 30.3143 11.7565 32 16 32C20.2435 32 24.3131 30.3143 27.3137 27.3137C30.3143 24.3131 32 20.2435 32 16C32 11.7565 30.3143 7.68687 27.3137 4.68629C24.3131 1.68571 20.2435 0 16 0C11.7565 0 7.68687 1.68571 4.68629 4.68629C1.68571 7.68687 0 11.7565 0 16Z" fill="black"/>
  <path d="M19.6975 14.5924C19.6873 14.572 19.6805 14.5515 19.6703 14.5311C19.6669 14.5276 19.6669 14.5242 19.6635 14.5174C19.4181 14.0233 18.8899 13.7029 18.3037 13.7472C17.5369 13.8086 16.961 14.4799 17.0223 15.2467C17.0394 15.4444 17.0939 15.625 17.1791 15.7886C17.5676 16.6644 17.3972 17.7311 16.6816 18.4501L12.9329 22.2056C12.0025 23.136 10.4894 23.136 9.55909 22.2056C8.62874 21.2753 8.62874 19.7622 9.55909 18.8318L10.9563 17.4346L10.9461 17.4243C11.2698 17.1449 11.4573 16.7189 11.4232 16.2623C11.3619 15.4955 10.6905 14.9196 9.92373 14.9809C9.55568 15.0082 9.23534 15.1786 9.00361 15.4307L9.0002 15.4273L7.57571 16.8518C5.55143 18.8761 5.55143 22.1545 7.57571 24.1788C9.59999 26.203 12.8784 26.203 14.9026 24.1788L18.6615 20.4199C20.236 18.842 20.5768 16.5076 19.6975 14.5924Z" fill="white"/>
  <path d="M24.6219 7.44302C22.5976 5.41873 19.3192 5.41873 17.2949 7.44302L13.536 11.2019C11.9616 12.7763 11.6208 15.1107 12.4966 17.026C12.5068 17.0464 12.5137 17.0669 12.5239 17.0873C12.5273 17.0907 12.5273 17.0941 12.5307 17.1009C12.7761 17.5951 13.3043 17.9154 13.8904 17.8711C14.6572 17.8098 15.2331 17.1384 15.1718 16.3717C15.1548 16.174 15.1002 15.9934 15.015 15.8298C14.6265 14.954 14.7969 13.8873 15.5126 13.1683L19.2647 9.41618C20.195 8.48583 21.7081 8.48583 22.6385 9.41618C23.5688 10.3465 23.5688 11.8596 22.6385 12.79L21.2412 14.1872L21.2515 14.1974C20.9277 14.4769 20.7403 14.9029 20.7744 15.3595C20.8357 16.1263 21.507 16.7022 22.2738 16.6409C22.6419 16.6136 22.9622 16.4432 23.1939 16.191L23.1974 16.1945L24.6219 14.77C26.6427 12.7457 26.6427 9.46389 24.6219 7.44302Z" fill="white"/>
</svg>
