<svg width="18" height="18" viewBox="0 0 18 18" fill="none" xmlns="http://www.w3.org/2000/svg">
<path d="M0.817077 11.4548C0.327056 11.4548 0 11.781 0 12.2715V15.5441C0 16.8536 1.14413 18 2.45236 18H5.72291C6.21293 18 6.53999 17.6715 6.53999 17.181C6.53999 16.6905 6.21181 16.3631 5.72179 16.3631H2.45123C1.96009 16.3631 1.63415 16.0346 1.63415 15.5441V12.2715C1.63528 11.781 1.30822 11.4548 0.817077 11.4548ZM5.72179 0H2.45123C1.14413 0 0 1.14525 0 2.45475V5.72625C0 6.219 0.327056 6.54413 0.817077 6.54413C1.3071 6.54413 1.63528 6.219 1.63528 5.72625V2.45475C1.63528 1.96425 1.96233 1.63462 2.45236 1.63462H5.72291C6.21293 1.63462 6.53999 1.3095 6.53999 0.819C6.53886 0.327375 6.21181 0 5.72179 0ZM15.5301 0H12.2618C11.7695 0 11.4425 0.327375 11.4425 0.820126C11.4425 1.31063 11.7695 1.63575 12.2618 1.63575H15.5301C16.0224 1.63575 16.3472 1.96537 16.3472 2.45587V5.72625C16.3472 6.219 16.6742 6.54413 17.1665 6.54413C17.6565 6.54413 17.9836 6.219 17.9836 5.72625V2.45475C17.9824 1.14525 16.8361 0 15.5301 0ZM17.1654 11.4548C16.6731 11.4548 16.346 11.781 16.346 12.2715V15.5441C16.346 16.0357 16.0212 16.3631 15.529 16.3631H12.2618C11.7695 16.3631 11.4425 16.6894 11.4425 17.181C11.4425 17.6726 11.7706 18 12.2618 18H15.5301C16.8361 18 17.9824 16.8536 17.9824 15.5441V12.2715C17.9824 11.781 17.6554 11.4548 17.1654 11.4548ZM17.1654 8.17987H0.817077C0.327056 8.17987 0 8.50838 0 9C0 9.49162 0.327056 9.819 0.817077 9.819H17.1654C17.6554 9.819 17.9824 9.4905 17.9824 9C17.9824 8.5095 17.6554 8.17987 17.1654 8.17987Z" fill="#D0A741"/>
</svg>
