<svg width="52" height="49" viewBox="0 0 52 49" fill="none" xmlns="http://www.w3.org/2000/svg">
<g clip-path="url(#clip0)">
<path d="M51.7164 16.5769L51.6062 16.2715L44.7489 2.46472C44.3841 1.73208 43.821 1.11385 43.1223 0.678746C42.4236 0.243638 41.6167 0.00868609 40.7911 0L11.1242 0C10.2954 0.000352976 9.48346 0.231766 8.78149 0.667703C8.07953 1.10364 7.51596 1.72645 7.15542 2.46472L0.386386 16.3588C0.386386 16.4351 0.309214 16.566 0.287165 16.6423C0.0892174 17.3526 -0.00726409 18.0868 0.000528461 18.8235C-0.0159917 20.8478 0.642562 22.8211 1.87423 24.4377C3.10589 26.0544 4.84197 27.2243 6.81366 27.7663C8.62495 28.2745 10.5486 28.2344 12.3366 27.6513C14.1247 27.0681 15.6953 25.9687 16.8459 24.4945C16.9492 24.3672 17.0801 24.2644 17.229 24.1937C17.3778 24.1231 17.5408 24.0864 17.7059 24.0864C17.8709 24.0864 18.0339 24.1231 18.1827 24.1937C18.3316 24.2644 18.4625 24.3672 18.5658 24.4945C19.4446 25.6175 20.5717 26.5266 21.8606 27.152C23.1496 27.7774 24.5661 28.1026 26.0018 28.1026C27.4374 28.1026 28.854 27.7774 30.1429 27.152C31.4319 26.5266 32.559 25.6175 33.4378 24.4945C33.5405 24.366 33.6711 24.262 33.82 24.1903C33.9688 24.1185 34.1321 24.0809 34.2977 24.0801C34.4633 24.0809 34.6266 24.1185 34.7755 24.1903C34.9243 24.262 35.055 24.366 35.1576 24.4945C36.2193 25.8685 37.6476 26.9221 39.2817 27.5367C40.9158 28.1513 42.6909 28.3026 44.4072 27.9735C46.5612 27.4597 48.4794 26.2474 49.856 24.5298C51.2326 22.8122 51.9885 20.6882 52.003 18.4963C51.9686 17.8742 51.8726 17.2569 51.7164 16.6532V16.5769Z" fill="#3C59E8"/>
<path d="M34.926 29.4458C34.7151 29.2875 34.4577 29.2018 34.1929 29.2018C33.9281 29.2018 33.6707 29.2875 33.4598 29.4458C31.3529 31.2529 28.6579 32.2477 25.8694 32.2477C23.0809 32.2477 20.3859 31.2529 18.2791 29.4458C18.0818 29.2854 17.8344 29.1978 17.579 29.1978C17.3236 29.1978 17.0762 29.2854 16.8789 29.4458C15.3329 30.7441 13.4697 31.6187 11.4753 31.9823C9.48093 32.3459 7.42502 32.1858 5.5127 31.518C5.3363 31.518 5.07172 31.398 5.07172 31.3435V44.1797C5.07172 47.146 7.38686 49 10.4076 49H41.3974C44.4071 49 46.9096 47.146 46.9096 44.1797V31.3653C44.9261 32.1619 42.7594 32.4042 40.6461 32.0657C38.5328 31.7272 36.5541 30.8209 34.926 29.4458ZM17.5294 42.8928C17.5293 43.6158 17.2389 44.3092 16.722 44.8204C16.2051 45.3317 15.5042 45.6189 14.7733 45.6189C14.0424 45.6189 13.3414 45.3317 12.8245 44.8204C12.3077 44.3092 12.0172 43.6158 12.0171 42.8928V37.4398C12.0172 36.7168 12.3077 36.0234 12.8245 35.5122C13.3414 35.0009 14.0424 34.7137 14.7733 34.7137C15.5042 34.7137 16.2051 35.0009 16.722 35.5122C17.2389 36.0234 17.5293 36.7168 17.5294 37.4398V42.8928Z" fill="#3C59E8"/>
</g>
<defs>
<clipPath id="clip0">
<rect width="52" height="49" fill="white"/>
</clipPath>
</defs>
</svg>
