<svg width="40" height="33" viewBox="0 0 40 33" fill="none" xmlns="http://www.w3.org/2000/svg">
<path fill-rule="evenodd" clip-rule="evenodd" d="M19.9562 12.2294C18.2296 12.2294 16.673 13.2694 16.0126 14.8647C15.352 16.4595 15.7169 18.2955 16.9379 19.5164C18.1588 20.7371 19.9946 21.1023 21.5896 20.4417C23.1849 19.781 24.2249 18.2247 24.2249 16.4981C24.2233 14.141 22.3133 12.2299 19.9562 12.2278V12.2294ZM19.9562 23.5732C16.055 23.5732 12.8809 20.3996 12.8809 16.4981C12.8809 12.5967 16.055 9.42285 19.9562 9.42285C23.8576 9.42285 27.0314 12.5967 27.0314 16.4981C27.0314 20.3996 23.8571 23.5732 19.9562 23.5732Z" fill="white"/>
<path fill-rule="evenodd" clip-rule="evenodd" d="M5.12539 17.9383C4.72199 17.9383 4.33794 17.7647 4.07127 17.4622L0.349706 13.2319C-0.162189 12.65 -0.105457 11.7632 0.476242 11.2513C1.0582 10.7394 1.945 10.7958 2.4569 11.3778L3.72147 12.8152V5.75008C3.72592 2.71924 6.18291 0.26381 9.21428 0.261719H30.7006C33.7306 0.264856 36.1868 2.72002 36.191 5.75008C36.191 6.52525 35.5623 7.15374 34.7874 7.15374C34.0122 7.15374 33.3837 6.52525 33.3837 5.75008C33.3824 4.26878 32.1816 3.06799 30.7 3.06642H9.21428C7.73167 3.06695 6.52984 4.26773 6.52801 5.75008V16.5331C6.52827 16.9051 6.38056 17.2622 6.11755 17.5255C5.85454 17.7888 5.49768 17.9365 5.12539 17.9365V17.9383ZM30.7006 32.7302H9.21428C6.18265 32.7279 3.72513 30.2717 3.72147 27.24C3.72147 26.4649 4.34997 25.8366 5.12513 25.8366C5.90029 25.8366 6.52853 26.4649 6.52853 27.24C6.53036 28.7221 7.73219 29.9229 9.21428 29.9234H30.7006C32.1821 29.9224 33.3826 28.7216 33.3842 27.24V16.5331C33.3845 15.9488 33.7471 15.4256 34.294 15.2201C34.8412 15.0147 35.4582 15.1694 35.8433 15.6089L39.5372 19.8285C40.0433 20.412 39.9826 21.2949 39.4012 21.8037C38.8203 22.3124 37.9369 22.2557 37.4255 21.6769L36.191 20.2669V27.24C36.1876 30.2711 33.7314 32.7268 30.7006 32.7302Z" fill="white"/>
</svg>
