<svg width="9" height="9" viewBox="0 0 9 9" fill="none" xmlns="http://www.w3.org/2000/svg">
<path d="M4.5 0C2.01496 0 0 2.01496 0 4.5C0 6.98504 2.01496 9 4.5 9C6.98504 9 9 6.98504 9 4.5C9 2.01496 6.98504 0 4.5 0ZM4.17857 2.33036C4.17857 2.28616 4.21473 2.25 4.25893 2.25H4.74107C4.78527 2.25 4.82143 2.28616 4.82143 2.33036V5.0625C4.82143 5.1067 4.78527 5.14286 4.74107 5.14286H4.25893C4.21473 5.14286 4.17857 5.1067 4.17857 5.0625V2.33036ZM4.5 6.75C4.37383 6.74742 4.2537 6.6955 4.16538 6.60536C4.07706 6.51522 4.0276 6.39405 4.0276 6.26786C4.0276 6.14166 4.07706 6.0205 4.16538 5.93036C4.2537 5.84022 4.37383 5.78829 4.5 5.78571C4.62617 5.78829 4.7463 5.84022 4.83462 5.93036C4.92294 6.0205 4.9724 6.14166 4.9724 6.26786C4.9724 6.39405 4.92294 6.51522 4.83462 6.60536C4.7463 6.6955 4.62617 6.74742 4.5 6.75Z" fill="#FFA940"/>
</svg>
