<svg width="45" height="35" viewBox="0 0 37 25" fill="none" xmlns="http://www.w3.org/2000/svg">
<path d="M16.8112 7.69406L16.5408 8.1146L16.8112 7.69406ZM14.0777 18.4878L13.9319 18.9661L14.0777 18.4878ZM34.0351 0.701301C33.8702 0.479851 33.5569 0.434063 33.3355 0.59903L29.7267 3.28733C29.5053 3.4523 29.4595 3.76555 29.6244 3.987C29.7894 4.20845 30.1027 4.25424 30.3241 4.08927L33.5319 1.69967L35.9215 4.90744C36.0865 5.12889 36.3997 5.17468 36.6212 5.00972C36.8426 4.84475 36.8884 4.53149 36.7234 4.31004L34.0351 0.701301ZM0.193737 24.4965C0.519528 24.4574 0.847046 24.4141 1.17579 24.3668L1.03347 23.377C0.712285 23.4232 0.392495 23.4654 0.0745917 23.5036L0.193737 24.4965ZM3.13118 24.0411C3.77775 23.919 4.42551 23.7823 5.07077 23.6321L4.84406 22.6582C4.21227 22.8052 3.57819 22.939 2.94548 23.0585L3.13118 24.0411ZM6.99103 23.1429C7.63119 22.9655 8.26536 22.7753 8.88979 22.5729L8.58155 21.6216C7.97105 21.8194 7.35063 22.0056 6.724 22.1792L6.99103 23.1429ZM10.7616 21.9189C11.392 21.6818 12.0077 21.4322 12.6046 21.1713L12.2039 20.255C11.624 20.5086 11.0245 20.7516 10.4095 20.9829L10.7616 21.9189ZM14.4049 20.3185C15.0156 20.0047 15.5985 19.6778 16.1473 19.3388L15.6218 18.488C15.0975 18.8118 14.5377 19.126 13.9479 19.429L14.4049 20.3185ZM17.805 18.195C18.3698 17.7559 18.8783 17.299 19.3179 16.8258L18.5853 16.1452C18.1882 16.5725 17.721 16.9937 17.1912 17.4055L17.805 18.195ZM20.5392 15.1368C20.8867 14.4706 21.0943 13.7734 21.1237 13.0541L20.1245 13.0132C20.102 13.5635 19.9429 14.1177 19.6526 14.6743L20.5392 15.1368ZM20.6738 10.9225C20.3982 10.3378 19.9967 9.76277 19.4664 9.19898L18.738 9.88409C19.2089 10.3848 19.5457 10.8745 19.7693 11.3489L20.6738 10.9225ZM17.9224 7.85095C17.6594 7.65746 17.3793 7.46497 17.0817 7.27353L16.5408 8.1146C16.822 8.29549 17.0848 8.47613 17.3296 8.65636L17.9224 7.85095ZM17.0817 7.27353C16.7402 7.05391 16.3993 6.86542 16.0601 6.70656L15.6359 7.61216C15.933 7.75131 16.2351 7.91799 16.5408 8.1146L17.0817 7.27353ZM13.7989 6.06632C12.9595 5.98323 12.1615 6.07776 11.4312 6.31516L11.7404 7.26618C12.3396 7.07138 12.9988 6.99201 13.7003 7.06146L13.7989 6.06632ZM9.3673 7.51133C8.7733 8.04596 8.29162 8.69796 7.95155 9.42055L8.85635 9.84638C9.14049 9.24264 9.54255 8.69899 10.0363 8.25461L9.3673 7.51133ZM7.38602 11.7309C7.35668 12.5049 7.48042 13.3008 7.78161 14.0778L8.71401 13.7163C8.46318 13.0692 8.36101 12.4095 8.3853 11.7687L7.38602 11.7309ZM9.02961 16.0842C9.51019 16.6199 10.1006 17.1202 10.8079 17.5701L11.3446 16.7263C10.7081 16.3214 10.189 15.8791 9.774 15.4164L9.02961 16.0842ZM12.8593 18.5956C13.1994 18.728 13.5568 18.8518 13.9319 18.9661L14.2235 18.0095C13.8714 17.9022 13.5378 17.7867 13.2221 17.6637L12.8593 18.5956ZM13.9319 18.9661C14.2828 19.073 14.6361 19.1532 14.9909 19.208L15.1437 18.2198C14.8353 18.1721 14.5285 18.1025 14.2235 18.0095L13.9319 18.9661ZM17.1463 19.2445C17.8447 19.1651 18.5398 19.0018 19.2266 18.7684L18.905 17.8216C18.2779 18.0346 17.6528 18.1805 17.0334 18.2509L17.1463 19.2445ZM21.1569 17.9262C21.76 17.6062 22.3544 17.2388 22.9369 16.8331L22.3654 16.0125C21.812 16.3979 21.2519 16.7438 20.6883 17.0428L21.1569 17.9262ZM24.5811 15.5647C25.1023 15.1237 25.6116 14.6557 26.1063 14.1678L25.4041 13.4559C24.926 13.9274 24.4355 14.378 23.9352 14.8013L24.5811 15.5647ZM27.526 12.6712C27.9841 12.1564 28.426 11.6282 28.8492 11.093L28.0647 10.4728C27.6531 10.9935 27.2236 11.5068 26.779 12.0064L27.526 12.6712ZM30.0804 9.44372C30.4843 8.87037 30.8647 8.29612 31.2187 7.72851L30.3701 7.1994C30.0261 7.75104 29.656 8.30969 29.2629 8.8678L30.0804 9.44372ZM32.255 5.94782C32.6019 5.30503 32.9082 4.68124 33.1686 4.08887L32.2531 3.68652C32.0047 4.25161 31.7105 4.85115 31.375 5.47289L32.255 5.94782ZM33.8953 2.12326C34.0019 1.7508 34.0812 1.3984 34.1289 1.07232L33.1394 0.927684C33.0995 1.20041 33.0312 1.50837 32.9339 1.84795L33.8953 2.12326Z" fill="white"/>
</svg>
