<svg width="61" height="53" viewBox="0 0 61 53" fill="none" xmlns="http://www.w3.org/2000/svg">
<path d="M60.7443 28.3027C59.0876 28.3027 57.4987 27.6332 56.3272 26.4413C55.1557 25.2495 54.4975 23.6331 54.4975 21.9476C54.4975 20.2621 55.1557 18.6457 56.3272 17.4539C57.4987 16.2621 59.0876 15.5925 60.7443 15.5925C60.8312 15.5925 60.9156 15.603 61 15.6055V6.03516C61.0007 5.24286 60.8478 4.45819 60.5503 3.726C60.2527 2.99381 59.8162 2.32846 59.2658 1.76797C58.7153 1.20749 58.0617 0.762859 57.3422 0.4595C56.6228 0.156141 55.8516 -2.93759e-07 55.0728 0H5.92711C5.14853 9.26812e-06 4.37758 0.156072 3.6583 0.459275C2.93902 0.762478 2.28551 1.20688 1.73509 1.76709C1.18468 2.3273 0.748143 2.99235 0.450431 3.72424C0.152719 4.45613 -0.000339254 5.24052 5.64606e-07 6.0326V15.6055C0.0869089 15.603 0.168783 15.5925 0.255692 15.5925C1.9121 15.5925 3.50068 16.2619 4.67194 17.4535C5.8432 18.6451 6.50121 20.2612 6.50121 21.9463C6.50121 23.6315 5.8432 25.2476 4.67194 26.4392C3.50068 27.6307 1.9121 28.3002 0.255692 28.3002C0.168783 28.3002 0.0869089 28.2897 5.64606e-07 28.2871V37.8601C-0.000330067 38.6522 0.152735 39.4366 0.450451 40.1685C0.748167 40.9003 1.1847 41.5654 1.73512 42.1256C2.28553 42.6858 2.93904 43.1302 3.65831 43.4334C4.37759 43.7366 5.14853 43.8927 5.92711 43.8927H55.0728C56.6448 43.8927 58.1524 43.2574 59.264 42.1265C60.3755 40.9957 61 39.4619 61 37.8627V28.2897C60.9156 28.2897 60.8312 28.3002 60.7443 28.3002" fill="#7DBA32"/>
<path d="M56.1595 52.9999H5.06542C3.40332 52.9999 2.05579 51.6316 2.05579 49.9407V49.8965C2.05579 48.2082 3.40332 46.8399 5.06542 46.8399H56.1595C57.8216 46.8399 59.1666 48.2082 59.1666 49.8965V49.9407C59.1666 51.6316 57.8216 52.9999 56.1595 52.9999ZM36.9973 33.5522L31.1264 29.0935C30.9041 28.9246 30.635 28.8316 30.3575 28.8279C30.0801 28.8241 29.8086 28.9098 29.582 29.0726L23.5986 33.3727C23.372 33.5353 23.1005 33.6208 22.8232 33.6169C22.5459 33.613 22.2769 33.5199 22.0547 33.3511C21.8325 33.1822 21.6685 32.9461 21.5862 32.6767C21.5039 32.4072 21.5075 32.1182 21.5965 31.8509L23.9514 24.7961C24.0413 24.5284 24.0453 24.2387 23.9631 23.9685C23.8809 23.6983 23.7165 23.4617 23.4938 23.2925L17.6255 18.8337C17.4029 18.6649 17.2386 18.4287 17.1562 18.159C17.0738 17.8893 17.0774 17.6 17.1665 17.3325C17.2557 17.065 17.4258 16.8332 17.6524 16.6701C17.8791 16.5071 18.1507 16.4212 18.4283 16.4249L25.7541 16.5238C26.032 16.5278 26.304 16.442 26.5309 16.2789C26.7579 16.1158 26.9282 15.8837 27.0174 15.6159L29.3698 8.5611C29.4585 8.29327 29.6284 8.06096 29.8551 7.89751C30.0818 7.73406 30.3535 7.64788 30.6313 7.65135C30.9091 7.65481 31.1787 7.74775 31.4013 7.91681C31.624 8.08588 31.7882 8.32236 31.8705 8.59232L34.044 15.7096C34.1261 15.9794 34.29 16.2159 34.5123 16.385C34.7347 16.5542 35.0039 16.6474 35.2815 16.6513L42.6048 16.7502C42.8826 16.7536 43.1521 16.8465 43.3747 17.0155C43.5973 17.1844 43.7616 17.4208 43.844 17.6907C43.9263 17.9605 43.9225 18.25 43.8331 18.5175C43.7438 18.7851 43.5734 19.0169 43.3464 19.1798L37.363 23.4799C37.1365 23.6429 36.9666 23.8746 36.8775 24.1419C36.7884 24.4092 36.7847 24.6983 36.8669 24.9678L39.0403 32.0852C39.1235 32.3554 39.1202 32.6455 39.0308 32.9137C38.9415 33.1819 38.7708 33.4143 38.5433 33.5775C38.3158 33.7406 38.0433 33.8261 37.765 33.8216C37.4867 33.817 37.217 33.7227 36.9948 33.5523" fill="#F1F8EB"/>
</svg>
