<svg width="168" height="184" viewBox="0 0 168 184" fill="none" xmlns="http://www.w3.org/2000/svg">
<mask id="mask0" mask-type="alpha" maskUnits="userSpaceOnUse" x="0" y="0" width="168" height="184">
<rect width="168" height="184" rx="25" fill="#6A8BF4"/>
</mask>
<g mask="url(#mask0)">
<rect width="168" height="184" rx="25" fill="#6A8BF4"/>
<g opacity="0.4">
<path d="M167.114 152.187C164.601 152.187 162.192 151.189 160.415 149.413C158.639 147.636 157.641 145.227 157.641 142.714C157.641 140.202 158.639 137.793 160.415 136.016C162.192 134.24 164.601 133.242 167.114 133.242C167.246 133.242 167.373 133.257 167.501 133.261V118.996C167.502 117.815 167.271 116.645 166.819 115.554C166.368 114.462 165.706 113.471 164.872 112.635C164.037 111.8 163.046 111.137 161.955 110.685C160.864 110.233 159.694 110 158.513 110H83.988C82.8073 110 81.6382 110.233 80.5475 110.685C79.4568 111.137 78.4658 111.799 77.6311 112.634C76.7965 113.469 76.1345 114.46 75.683 115.551C75.2316 116.642 74.9995 117.811 75 118.992V133.261C75.1318 133.257 75.2559 133.242 75.3877 133.242C77.8995 133.242 80.3085 134.239 82.0846 136.016C83.8607 137.792 84.8585 140.201 84.8585 142.712C84.8585 145.224 83.8607 147.633 82.0846 149.409C80.3085 151.185 77.8995 152.183 75.3877 152.183C75.2559 152.183 75.1318 152.168 75 152.164V166.433C74.9995 167.614 75.2316 168.783 75.6831 169.874C76.1345 170.965 76.7965 171.956 77.6312 172.791C78.4658 173.626 79.4568 174.288 80.5475 174.74C81.6383 175.192 82.8073 175.425 83.988 175.425H158.513C160.897 175.425 163.183 174.478 164.869 172.792C166.554 171.107 167.501 168.821 167.501 166.437V152.168C167.373 152.168 167.246 152.183 167.114 152.183" fill="white"/>
<path d="M160.161 189H82.681C80.1606 189 78.1172 186.96 78.1172 184.44V184.374C78.1172 181.858 80.1606 179.818 82.681 179.818H160.161C162.681 179.818 164.721 181.858 164.721 184.374V184.44C164.721 186.96 162.681 189 160.161 189ZM131.103 160.012L122.2 153.366C121.863 153.114 121.455 152.976 121.034 152.97C120.614 152.964 120.202 153.092 119.858 153.335L110.785 159.744C110.441 159.987 110.03 160.114 109.609 160.108C109.189 160.103 108.781 159.964 108.444 159.712C108.107 159.46 107.858 159.109 107.733 158.707C107.609 158.305 107.614 157.874 107.749 157.476L111.32 146.96C111.456 146.561 111.463 146.129 111.338 145.727C111.213 145.324 110.964 144.971 110.626 144.719L101.727 138.073C101.39 137.821 101.141 137.469 101.016 137.067C100.891 136.665 100.896 136.234 101.031 135.835C101.167 135.437 101.424 135.091 101.768 134.848C102.112 134.605 102.524 134.477 102.945 134.482L114.054 134.63C114.475 134.636 114.888 134.508 115.232 134.265C115.576 134.022 115.834 133.676 115.969 133.277L119.537 122.761C119.671 122.362 119.929 122.015 120.273 121.772C120.616 121.528 121.028 121.4 121.45 121.405C121.871 121.41 122.28 121.549 122.617 121.801C122.955 122.053 123.204 122.405 123.329 122.808L126.625 133.416C126.749 133.818 126.998 134.171 127.335 134.423C127.672 134.675 128.08 134.814 128.501 134.82L139.606 134.967C140.028 134.973 140.436 135.111 140.774 135.363C141.111 135.615 141.361 135.967 141.485 136.369C141.61 136.771 141.605 137.203 141.469 137.602C141.334 138 141.075 138.346 140.731 138.589L131.658 144.998C131.314 145.241 131.057 145.587 130.921 145.985C130.786 146.384 130.781 146.815 130.905 147.216L134.201 157.825C134.327 158.228 134.322 158.66 134.187 159.06C134.051 159.46 133.793 159.806 133.448 160.05C133.103 160.293 132.689 160.42 132.267 160.413C131.845 160.407 131.436 160.266 131.099 160.012" fill="#3160F5"/>
</g>
</g>
</svg>
