<svg width="16" height="15" viewBox="0 0 16 15" fill="none" xmlns="http://www.w3.org/2000/svg">
<path d="M13.2331 8.27644L8.22243 13.1731C8.14852 13.2434 8.08958 13.3285 8.04928 13.423C8.00899 13.5176 7.98819 13.6196 7.98819 13.7226C7.98819 13.8257 8.00899 13.9277 8.04928 14.0223C8.08958 14.1168 8.14852 14.2019 8.22243 14.2722C8.37601 14.4186 8.57837 14.5 8.78857 14.5C8.99877 14.5 9.20113 14.4186 9.35471 14.2722L15.5605 8.20528C15.695 8.14093 15.8081 8.03803 15.8861 7.90915C15.9641 7.78027 16.0036 7.63099 15.9997 7.47958C16.0025 7.37402 15.9835 7.26905 15.9441 7.1714C15.9048 7.07375 15.8458 6.98558 15.771 6.91256L9.4382 0.727839C9.28462 0.581437 9.08226 0.5 8.87206 0.5C8.66186 0.5 8.4595 0.581437 8.30592 0.727839C8.23183 0.798155 8.17273 0.883292 8.13233 0.977939C8.09192 1.07258 8.07107 1.17471 8.07107 1.27794C8.07107 1.38117 8.09192 1.4833 8.13233 1.57794C8.17273 1.67259 8.23183 1.75773 8.30592 1.82805L13.3143 6.72822H0.73333C0.536267 6.73601 0.349818 6.82134 0.213095 6.96632C0.0763721 7.1113 0 7.30466 0 7.50583C0 7.70701 0.0763721 7.90037 0.213095 8.04534C0.349818 8.19032 0.536267 8.27566 0.73333 8.28345L13.2331 8.27644Z" fill="white"/>
</svg>
