<svg width="22" height="22" viewBox="0 0 22 22" fill="none" xmlns="http://www.w3.org/2000/svg">
<path d="M15.0332 6.64573C14.6665 6.41656 14.2082 6.55406 13.979 6.92073C13.7499 7.2874 13.8874 7.79156 14.2999 7.9749C14.2999 7.9749 15.9499 8.89156 15.9499 11.0457C15.9499 12.1916 15.6749 12.9707 14.2082 14.0249C13.8415 14.2999 13.7957 14.7582 14.0249 15.1249C14.1624 15.3541 14.3915 15.4457 14.6665 15.4457C14.8499 15.4457 14.9874 15.3999 15.1249 15.3082C17.0957 13.8416 17.4624 12.6041 17.4624 11.0457C17.5082 8.02073 15.1249 6.69156 15.0332 6.64573Z" fill="#FEA005"/>
<path d="M17.7834 4.30825C17.4167 4.07908 16.9584 4.21658 16.7292 4.58324C16.5001 4.94991 16.5917 5.40824 16.9584 5.63741C17.0501 5.68324 19.4334 7.24158 19.4334 11.0916C19.4334 12.8332 18.5626 15.3541 17.0501 16.4541C16.6834 16.7291 16.6376 17.1874 16.8667 17.5541C17.0042 17.7832 17.2334 17.8749 17.5084 17.8749C17.6917 17.8749 17.8292 17.8291 17.9667 17.7374C19.9834 16.2707 21.0376 13.1999 20.9917 11.0916C20.9917 6.32491 17.9209 4.35408 17.7834 4.30825ZM9.57922 4.07908L6.78339 6.32491C6.41672 6.59991 6.00422 6.73741 5.54589 6.73741H3.25422C2.20006 6.73741 1.32922 7.60825 1.32922 8.66241V13.2916C1.32922 14.3457 2.20006 15.2166 3.25422 15.2166H5.59172C6.05006 15.2166 6.46256 15.3541 6.82922 15.6291L9.62506 17.8749C10.9084 18.8832 12.7876 17.9666 12.7876 16.3624V5.59158C12.7876 3.94158 10.8626 3.02491 9.57922 4.07908Z" fill="#FEA005"/>
</svg>
