<svg width="30" height="30" viewBox="0 0 30 30" fill="none" xmlns="http://www.w3.org/2000/svg">
<path d="M15 2C7.82024 2 2 7.82024 2 15C2 22.1798 7.82024 28 15 28C22.1798 28 28 22.1798 28 15C28 7.82024 22.1798 2 15 2ZM15 26.2273C8.80007 26.2273 3.77272 21.2005 3.77272 15C3.77272 8.79948 8.80007 3.77272 15 3.77272C21.2011 3.77272 26.2273 8.79948 26.2273 15C26.2273 21.2005 21.2011 26.2273 15 26.2273Z" fill="black" stroke="black" stroke-width="0.25"/>
<path d="M13.7139 16.6384L12.368 18.0536V9.85714C12.368 9.38394 12.0029 9 11.5529 9C11.1029 9 10.7377 9.38394 10.7377 9.85714V18.1253L9.39245 16.7093C9.07351 16.3756 8.55716 16.3756 8.23981 16.7098C7.92087 17.0452 7.91979 17.5881 8.23822 17.9219L10.9283 20.7505C11.0535 20.8822 11.2101 20.9495 11.3719 20.9771C11.381 20.9794 11.39 20.9819 11.399 20.9835C11.4324 20.9883 11.4648 20.9942 11.4982 20.9942C11.5168 20.9956 11.5343 21 11.5529 21C11.831 21 12.0762 20.8532 12.2232 20.6297L14.8665 17.851C15.185 17.5162 15.185 16.9732 14.8671 16.639C14.5476 16.3042 14.0312 16.303 13.7139 16.6384ZM19.0717 9.24944C18.948 9.11943 18.7931 9.05301 18.6334 9.02455C18.6217 9.02178 18.61 9.01842 18.5978 9.01591C18.566 9.01174 18.5357 9.00614 18.5039 9.00587C18.4848 9.00476 18.4667 9 18.4471 9C18.1695 9 17.9254 9.14649 17.7779 9.36914L15.1335 12.1496C14.8151 12.4844 14.8151 13.0274 15.1329 13.3616C15.4524 13.6959 15.9688 13.697 16.2862 13.3622L17.632 11.947V20.1429C17.632 20.6166 17.9971 21 18.4471 21C18.8971 21 19.2622 20.6166 19.2622 20.1429V11.875L20.6076 13.2907C20.9265 13.6244 21.4428 13.6244 21.7602 13.2907C22.0791 12.9554 22.0802 12.4118 21.7618 12.0781L19.0717 9.24944Z" fill="black" stroke="black" stroke-width="0.25"/>
</svg>
