<svg width="67" height="53" viewBox="0 0 67 53" fill="none" xmlns="http://www.w3.org/2000/svg">
<g opacity="0.5">
<path d="M3.02808 13.6284L10.3008 52.9999H42.3995L3.02808 13.6284Z" fill="#FFCE53"/>
<path d="M63.5996 13.6284L56.3268 52.9999H27.257L63.5996 13.6284Z" fill="#FFCE53"/>
<path d="M33.3138 7.57153L10.3008 52.9999H56.3269L33.3138 7.57153Z" fill="#FFB700"/>
<path d="M2.89395e-07 10.6004C-0.000722974 12.2728 1.35434 13.6292 3.02699 13.6299C4.6997 13.6306 6.05615 12.2755 6.05687 10.6026V10.6004C6.05687 8.92742 4.70115 7.57163 3.02811 7.57163C1.35573 7.57156 2.89395e-07 8.92735 2.89395e-07 10.6004ZM60.5708 10.6004C60.5694 12.2728 61.9245 13.6299 63.5971 13.631C65.2698 13.6321 66.6266 12.2771 66.6277 10.6047V10.6004C66.6292 8.92742 65.2741 7.57058 63.6018 7.56946C61.9291 7.56808 60.5723 8.92308 60.5708 10.5957V10.6004Z" fill="#FFCE53"/>
<path d="M28.771 4.54282C28.771 7.05202 30.8049 9.08564 33.3138 9.08564C35.8226 9.08564 37.8566 7.05202 37.8566 4.54282C37.8566 2.03428 35.8226 0 33.3138 0C30.8049 0 28.771 2.03428 28.771 4.54282Z" fill="#FFB700"/>
</g>
</svg>
