<svg width="171" height="184" viewBox="0 0 171 184" fill="none" xmlns="http://www.w3.org/2000/svg">
<mask id="mask0" mask-type="alpha" maskUnits="userSpaceOnUse" x="0" y="0" width="168" height="184">
<rect width="168" height="184" rx="25" fill="#FDB80A"/>
</mask>
<g mask="url(#mask0)">
<rect width="168" height="184" rx="25" fill="#FDB80A"/>
<g opacity="0.5">
<path d="M75.5137 118.314L86.3542 177H134.199L75.5137 118.314Z" fill="white"/>
<path d="M165.8 118.314L154.959 177H111.628L165.8 118.314Z" fill="white"/>
<path d="M120.656 109.286L86.354 177H154.959L120.656 109.286Z" fill="#ECECEC"/>
<path d="M71 113.801C70.9989 116.293 73.0187 118.315 75.5119 118.316C78.0052 118.317 80.0271 116.297 80.0282 113.804V113.801C80.0282 111.307 78.0074 109.286 75.5136 109.286C73.0208 109.286 71 111.307 71 113.801ZM161.285 113.801C161.283 116.293 163.303 118.316 165.796 118.318C168.289 118.319 170.311 116.3 170.313 113.807V113.801C170.315 111.307 168.295 109.284 165.803 109.283C163.309 109.281 161.287 111.3 161.285 113.794V113.801Z" fill="white"/>
<path d="M113.885 104.771C113.885 108.512 116.917 111.543 120.657 111.543C124.396 111.543 127.428 108.512 127.428 104.771C127.428 101.032 124.396 98 120.657 98C116.917 98 113.885 101.032 113.885 104.771Z" fill="#ECECEC"/>
</g>
</g>
</svg>
