<svg width="15" height="15" viewBox="0 0 15 15" fill="none" xmlns="http://www.w3.org/2000/svg">
<path d="M7.38462 14.7692C3.31269 14.7692 0 11.4565 0 7.38462C0 3.31327 3.31269 0 7.38462 0C11.4565 0 14.7692 3.31269 14.7692 7.38462C14.7692 11.4565 11.4565 14.7692 7.38462 14.7692ZM7.38462 1.05981C3.89712 1.05981 1.05981 3.89712 1.05981 7.38462C1.05981 10.8721 3.89712 13.7094 7.38462 13.7094C10.8721 13.7094 13.7094 10.8721 13.7094 7.38462C13.7094 3.89712 10.8721 1.05981 7.38462 1.05981ZM6.58962 3.94038C6.58962 3.73269 6.67558 3.525 6.82269 3.37846C6.96981 3.23135 7.17635 3.14538 7.38462 3.14538C7.59231 3.14538 7.79942 3.23135 7.94654 3.37846C8.09365 3.52558 8.17904 3.73212 8.17904 3.94038C8.17904 4.14808 8.09365 4.35519 7.94654 4.50231C7.79688 4.65037 7.59513 4.73384 7.38462 4.73481C7.17692 4.73481 6.96981 4.64942 6.82269 4.50231C6.67442 4.35274 6.59074 4.15098 6.58962 3.94038ZM7.38462 11.6233C7.31502 11.6233 7.2461 11.6096 7.18181 11.5829C7.11751 11.5562 7.0591 11.5172 7.00992 11.4679C6.96073 11.4187 6.92173 11.3603 6.89515 11.2959C6.86857 11.2316 6.85492 11.1627 6.855 11.0931V6.32481C6.86136 6.18862 6.91993 6.06012 7.01856 5.96599C7.11719 5.87186 7.24828 5.81934 7.38462 5.81934C7.52095 5.81934 7.65205 5.87186 7.75067 5.96599C7.8493 6.06012 7.90787 6.18862 7.91423 6.32481V11.0931C7.91431 11.1627 7.90066 11.2316 7.87408 11.2959C7.8475 11.3603 7.8085 11.4187 7.75931 11.4679C7.71013 11.5172 7.65172 11.5562 7.58742 11.5829C7.52313 11.6096 7.45421 11.6233 7.38462 11.6233Z" fill="black"/>
</svg>
