<svg width="72" height="72" viewBox="0 0 72 72" fill="none" xmlns="http://www.w3.org/2000/svg">
<path d="M35.9999 0.959961C16.6399 0.959961 0.919922 16.64 0.919922 36C0.919922 55.36 16.5999 71.04 35.9999 71.04C55.3999 71.04 71.0799 55.36 71.0799 36C71.0799 16.64 55.3599 0.959961 35.9999 0.959961ZM35.9999 55.48C33.8399 55.48 32.1199 53.72 32.1199 51.6C32.1199 49.48 33.8799 47.72 35.9999 47.72C38.1599 47.72 39.8799 49.48 39.8799 51.6C39.8799 53.72 38.1599 55.48 35.9999 55.48ZM39.7199 39.88C39.5999 41.88 37.9999 43.48 36.0399 43.72C36.1999 43.72 36.3199 43.8 36.4399 43.8H35.6399C35.7999 43.8 35.9199 43.72 36.0399 43.72C34.0799 43.52 32.4799 41.96 32.3999 39.88L31.5199 20.44C31.3999 18.28 33.1199 16.52 35.2799 16.52H37.0799C39.2399 16.52 40.9199 18.24 40.7999 20.44L39.7199 39.88Z" fill="#45B26B"/>
</svg>
