<svg width="40" height="40" viewBox="0 0 52 47" fill="none" xmlns="http://www.w3.org/2000/svg">
<path d="M9.28523 39.7758L6.49337 43.4575C6.45315 43.5103 6.40106 43.5532 6.34121 43.5827C6.28137 43.6123 6.2154 43.6276 6.14853 43.6276V43.6276C6.08074 43.6277 6.0139 43.6119 5.95341 43.5816C5.89293 43.5514 5.8405 43.5074 5.80037 43.4534L3.09535 39.7946C3.03296 39.7137 2.94667 39.6539 2.84843 39.6236C2.75019 39.5933 2.64486 39.594 2.54702 39.6255C2.44919 39.6571 2.36368 39.7179 2.30235 39.7997C2.24102 39.8814 2.2069 39.98 2.2047 40.0818V46.483C2.2047 46.5509 2.19119 46.6181 2.16492 46.6808C2.13865 46.7436 2.10016 46.8006 2.05162 46.8486C2.00309 46.8966 1.94548 46.9347 1.88207 46.9607C1.81866 46.9867 1.75069 47 1.68206 47H0V35.9502C-8.6004e-08 35.8822 0.0135459 35.8149 0.039863 35.7521C0.0661801 35.6893 0.104752 35.6323 0.153372 35.5843C0.201992 35.5362 0.259705 35.4982 0.323211 35.4722C0.386717 35.4463 0.454768 35.433 0.523473 35.4331H2.27334C2.35573 35.4332 2.43694 35.4525 2.51037 35.4894C2.5838 35.5264 2.64738 35.58 2.69592 35.6458L6.19732 40.4074L9.69871 35.6458C9.74717 35.5799 9.81072 35.5262 9.88417 35.4892C9.95762 35.4523 10.0389 35.433 10.1213 35.4331H11.8579C11.9965 35.4331 12.1295 35.4876 12.2275 35.5846C12.3255 35.6815 12.3806 35.813 12.3806 35.9502V47H10.6952C10.6266 47 10.5586 46.9867 10.4952 46.9607C10.4318 46.9347 10.3742 46.8966 10.3256 46.8486C10.2771 46.8006 10.2386 46.7436 10.2124 46.6808C10.1861 46.6181 10.1726 46.5509 10.1726 46.483V40.0704C10.171 39.9688 10.1376 39.8702 10.077 39.7881C10.0165 39.7061 9.93163 39.6447 9.83427 39.6124C9.73691 39.5801 9.63181 39.5784 9.53347 39.6077C9.43513 39.637 9.3484 39.6957 9.28523 39.7758V39.7758Z" fill="#201C3D"/>
<path d="M13.4953 46.4664V35.9336C13.4953 35.7964 13.5504 35.6649 13.6484 35.568C13.7464 35.471 13.8793 35.4165 14.0179 35.4165H15.16C15.2986 35.4165 15.4315 35.471 15.5296 35.568C15.6276 35.6649 15.6826 35.7964 15.6826 35.9336V46.4664C15.6826 46.6035 15.6276 46.735 15.5296 46.832C15.4315 46.929 15.2986 46.9834 15.16 46.9834H14.0179C13.8793 46.9834 13.7464 46.929 13.6484 46.832C13.5504 46.735 13.4953 46.6035 13.4953 46.4664V46.4664Z" fill="#201C3D"/>
<path d="M28.1622 38.7768C28.1622 39.6685 27.728 40.5284 26.6422 41.0078C28.0117 41.4202 28.5161 42.8585 28.5161 43.5883C28.5161 46.1662 26.562 46.9926 24.1398 46.9926H18.5925V35.4224H24.1332C26.4421 35.4224 28.1622 36.4467 28.1622 38.7768ZM20.7624 40.0653H24.1332C25.52 40.0653 25.9707 39.4869 25.9707 38.8258C25.9707 38.2973 25.5365 37.4047 24.1332 37.4047H20.7591L20.7624 40.0653ZM20.7624 44.957H24.1332C25.0354 44.957 26.3213 44.6592 26.3213 43.5662C26.3246 42.5247 25.0428 41.9823 24.1332 41.9823H20.7591L20.7624 44.957Z" fill="#201C3D"/>
<path d="M37.7073 44.8081H31.5943L30.7318 46.6899C30.6902 46.7803 30.6232 46.8571 30.5387 46.9109C30.4543 46.9647 30.3559 46.9934 30.2554 46.9934H28.2037L33.3128 35.7275C33.3542 35.6366 33.4212 35.5595 33.5058 35.5053C33.5905 35.4512 33.6891 35.4224 33.7899 35.4224H35.5183C35.6191 35.4224 35.7177 35.4512 35.8024 35.5053C35.887 35.5595 35.9541 35.6366 35.9955 35.7275L41.1012 46.9893H39.0337C38.9329 46.9892 38.8342 46.9603 38.7495 46.906C38.6649 46.8517 38.5979 46.7744 38.5566 46.6833L37.7073 44.8081ZM34.6475 37.8539L32.4759 42.7775H36.8191L34.6475 37.8539Z" fill="#201C3D"/>
<path d="M51.5065 41.2535C51.4743 44.1268 49.6938 47.0002 45.7458 47.0002C41.7979 47.0002 39.9694 44.1906 39.9694 41.2691C39.9694 38.3475 41.8624 35.4111 45.7458 35.4111C49.6152 35.4111 51.5404 38.3524 51.5065 41.2535ZM42.0567 41.2977C42.1047 43.1238 43.0995 45.0759 45.7475 45.0759C48.3954 45.0759 49.3862 43.1074 49.4225 41.2821C49.454 39.4086 48.3954 37.3133 45.7475 37.3133C43.0995 37.3133 42.0087 39.4274 42.0567 41.2977Z" fill="#201C3D"/>
<path d="M38.632 5.10938H30.9059V10.5014H38.632V5.10938Z" fill="#E5CC6D"/>
<path d="M20.6008 3.86115C20.6008 1.72869 18.8712 0 16.7378 0C14.6043 0 12.8748 1.72869 12.8748 3.86115V6.64065C12.8748 8.7731 14.6043 10.5018 16.7378 10.5018C18.8712 10.5018 20.6008 8.7731 20.6008 6.64065V3.86115Z" fill="#FC6621"/>
<path opacity="0.86" d="M25.7533 23.7355C29.203 23.7355 31.9996 20.9403 31.9996 17.4923C31.9996 14.0442 29.203 11.249 25.7533 11.249C22.3036 11.249 19.5071 14.0442 19.5071 17.4923C19.5071 20.9403 22.3036 23.7355 25.7533 23.7355Z" fill="#06F4ED"/>
<path opacity="0.8" d="M12.233 15.4585C12.233 19.0426 13.6575 22.48 16.193 25.0143C18.7286 27.5487 22.1676 28.9725 25.7535 28.9725C29.3394 28.9725 32.7784 27.5487 35.3139 25.0143C37.8495 22.48 39.274 19.0426 39.274 15.4585H12.233Z" fill="url(#paint0_linear_1937:5047)"/>
<defs>
<linearGradient id="paint0_linear_1937:5047" x1="25.8873" y1="13.9068" x2="24.732" y2="29.5107" gradientUnits="userSpaceOnUse">
<stop stop-color="#683FD7"/>
<stop offset="1" stop-color="#3D45FB"/>
</linearGradient>
</defs>
</svg>
