<svg width="347" height="101" viewBox="0 0 347 101" fill="none" xmlns="http://www.w3.org/2000/svg">
<g opacity="0.5" clip-path="url(#clip0_0_1)" filter="url(#filter0_f_0_1)">
<path opacity="0.51" d="M177.193 12.4304C177.607 12.0579 177.814 11.5338 177.813 10.8581C177.813 10.1823 177.606 9.65848 177.193 9.28662C176.779 8.91659 176.158 8.73157 175.33 8.73157H173.105V12.9891H175.33C176.158 12.9891 176.779 12.8029 177.193 12.4304ZM180.092 4.83167C181.331 5.3855 182.288 6.18198 182.962 7.22111C183.636 8.26024 183.972 9.47346 183.97 10.8608C183.97 12.2463 183.634 13.4595 182.962 14.5005C182.289 15.5414 181.332 16.3382 180.09 16.8908C178.848 17.4459 177.391 17.7231 175.718 17.7225H173.105V22.1902H167V4H175.718C177.391 4 178.848 4.27722 180.09 4.83167H180.092Z" fill="white"/>
<path opacity="0.1" d="M173.932 9.39399C173.865 9.43585 173.81 10.3776 173.77 10.454C173.73 10.5305 173.71 11.626 173.71 11.7279C173.71 11.8298 173.73 12.9263 173.77 13.0018C173.811 13.0773 173.861 14.0264 173.932 14.0673C174.004 14.1083 176.055 14.1292 176.139 14.1292C176.954 14.1292 177.583 13.939 178.023 13.5714C178.272 13.3664 178.469 13.1051 178.598 12.8089C178.738 12.4684 178.806 12.1025 178.797 11.7343C178.807 11.364 178.739 10.9958 178.598 10.6533C178.47 10.3573 178.274 10.096 178.026 9.89081C177.587 9.52684 176.962 9.33212 176.142 9.33212C176.055 9.33212 174 9.35305 173.932 9.39399ZM167.746 5.0919C167.844 4.92994 171.702 4.80437 171.875 4.71337C172.048 4.62238 176.267 4.5778 176.484 4.5778C178.12 4.5778 179.559 4.84744 180.802 5.38671L180.976 5.46497C182.241 6.04731 183.22 6.87686 183.911 7.95359C184.559 8.95754 184.895 10.1225 184.919 11.4486C184.953 12.6768 184.656 13.8915 184.058 14.9636C183.438 16.0997 182.5 17.0278 181.359 17.6324C180.181 18.2639 178.776 18.6096 177.16 18.6934C177.13 18.7134 176.152 18.7316 176.119 18.7479C176.086 18.7643 174.651 18.7934 174.602 18.8107C174.467 18.859 174.32 22.8553 174.161 22.8553C173.944 22.8553 170.931 22.8107 170.758 22.7197C170.586 22.6287 167.844 22.5041 167.746 22.343C167.648 22.182 167.599 13.9181 167.599 13.717C167.599 13.5159 167.648 5.25114 167.746 5.0919Z" fill="white"/>
<path opacity="0.1" d="M176.113 11.0801C175.977 11.1629 175.868 12.0537 175.787 12.2056C175.707 12.3576 175.667 13.4167 175.667 13.6206C175.667 13.8244 175.708 14.8835 175.787 15.0355C175.867 15.1874 175.977 16.0837 176.113 16.1656C176.249 16.2475 178.131 16.2903 178.3 16.2903C179.115 16.2903 179.743 16.0974 180.203 15.7316C180.497 15.5028 180.731 15.2059 180.886 14.8662C181.058 14.475 181.143 14.0509 181.135 13.6233C181.144 13.1957 181.06 12.7713 180.89 12.3794C180.734 12.0401 180.5 11.7433 180.206 11.5141C179.743 11.1501 179.114 10.9554 178.304 10.9554C178.131 10.9554 176.249 10.9973 176.113 11.0801ZM169.843 7.20019C170.039 6.87898 173.567 6.62785 173.913 6.44677C174.258 6.2657 178.171 6.1738 178.602 6.1738C180.276 6.1738 181.754 6.46073 183.036 7.03458C183.097 7.06097 183.157 7.08918 183.217 7.11647C184.505 7.72794 185.502 8.59115 186.209 9.7061C186.833 10.6767 187.169 11.7938 187.217 13.0573C187.262 14.2305 187.016 15.3965 186.503 16.4513C185.937 17.6442 185.144 18.6597 183.976 19.3985C182.859 20.1046 181.509 20.5214 179.951 20.6906C179.891 20.7288 179 20.7652 178.936 20.7989C178.845 20.8471 177.546 20.8899 177.448 20.9245C177.176 21.0218 176.884 24.546 176.566 24.546C176.133 24.546 173.278 24.455 172.932 24.273C172.587 24.091 170.033 23.8417 169.84 23.5196C169.647 23.1975 169.547 15.7634 169.547 15.3594C169.547 14.9554 169.648 7.52139 169.843 7.20019Z" fill="white"/>
<path opacity="0.1" d="M179.352 13.4422C179.148 13.566 178.99 14.4049 178.864 14.6333C178.739 14.8617 178.683 15.8835 178.683 16.1893C178.683 16.495 178.744 17.5177 178.864 17.7452C178.985 17.9727 179.148 18.8171 179.352 18.9409C179.556 19.0646 181.267 19.1274 181.52 19.1274C182.326 19.1274 182.962 18.9336 183.448 18.5687C183.788 18.317 184.061 17.9843 184.242 17.6005C184.442 17.1589 184.54 16.6779 184.53 16.1929C184.541 15.7076 184.442 15.2263 184.242 14.7843C184.061 14.4006 183.788 14.0679 183.448 13.8162C182.962 13.4522 182.326 13.2575 181.52 13.2575C181.267 13.2557 179.556 13.3185 179.352 13.4422ZM173.001 9.98453C173.294 9.50227 176.492 9.12557 177.01 8.85441C177.527 8.58326 181.13 8.44677 181.779 8.44677C183.494 8.44677 185.011 8.75008 186.331 9.35669L186.512 9.44768C187.826 10.0864 188.847 10.9821 189.575 12.1347C190.181 13.099 190.528 14.2048 190.581 15.3439C190.652 16.535 190.416 17.606 190.015 18.6197C189.507 19.8935 188.793 21.0109 187.659 21.8453C186.603 22.6233 185.303 23.1146 183.806 23.3667C183.716 23.4249 182.914 23.4795 182.817 23.5296C182.679 23.6024 181.506 23.6651 181.358 23.7179C180.953 23.8635 180.512 26.9154 180.036 26.9154C179.386 26.9154 176.688 26.7798 176.171 26.5086C175.653 26.2375 173.292 25.8608 172.999 25.3785C172.707 24.8963 172.561 18.2857 172.561 17.6806C172.561 17.0755 172.708 10.4686 173.001 9.98726V9.98453Z" fill="white"/>
<path opacity="0.1" d="M183.358 16.1374C183.086 16.303 182.869 17.0901 182.708 17.394C182.547 17.6979 182.466 18.6843 182.466 19.0919C182.466 19.4995 182.547 20.485 182.708 20.7889C182.869 21.0928 183.085 21.8808 183.358 22.0491C183.63 22.2175 185.17 22.2975 185.508 22.2975C186.304 22.2975 186.949 22.1037 187.457 21.7389C187.844 21.4644 188.155 21.0963 188.363 20.6688C188.592 20.1762 188.705 19.6373 188.694 19.0937C188.705 18.5502 188.592 18.0112 188.363 17.5187C188.155 17.0908 187.844 16.7225 187.457 16.4477C186.949 16.0837 186.304 15.889 185.508 15.889C185.17 15.889 183.629 15.9718 183.358 16.1374ZM176.924 13.1065C177.316 12.4641 180.186 11.9618 180.873 11.5996C181.56 11.2375 184.86 11.0537 185.723 11.0537C187.475 11.0537 189.031 11.3749 190.391 12.0173L190.579 12.1083C191.915 12.7756 192.956 13.7037 193.703 14.8926C194.281 15.8176 194.626 16.8701 194.708 17.9591C194.799 19.0864 194.612 20.1183 194.289 21.1101C193.845 22.475 193.201 23.6815 192.107 24.6142C191.11 25.4613 189.872 26.0291 188.427 26.3658C188.309 26.4431 187.594 26.5159 187.465 26.5833C187.284 26.6797 186.232 26.7652 186.035 26.8344C185.492 27.0282 184.907 29.6087 184.272 29.6087C183.406 29.6087 180.865 29.4268 180.175 29.0628C179.486 28.6988 177.316 28.2038 176.924 27.5669C176.533 26.9299 176.338 21.1474 176.338 20.3394C176.338 19.5314 176.534 13.7498 176.924 13.1065Z" fill="white"/>
<path opacity="0.1" d="M187.84 18.8235C187.501 19.03 187.23 19.7652 187.025 20.1456C186.82 20.5259 186.723 21.4741 186.723 21.9845C186.723 22.495 186.824 23.4404 187.025 23.8226C187.226 24.2047 187.497 24.9409 187.84 25.1474C188.184 25.354 189.55 25.4577 189.972 25.4577C190.762 25.4577 191.413 25.2648 191.942 24.8999C192.376 24.6027 192.726 24.1985 192.959 23.7261C193.205 23.1791 193.332 22.5857 193.332 21.9854C193.332 21.3852 193.205 20.7918 192.959 20.2448C192.726 19.7727 192.376 19.3688 191.942 19.0719C191.413 18.7079 190.764 18.5132 189.972 18.5132C189.546 18.5132 188.176 18.6169 187.84 18.8235ZM181.325 16.2166C181.815 15.414 184.352 14.7862 185.214 14.333C186.075 13.8799 189.062 13.6551 190.145 13.6551C191.937 13.6551 193.532 13.9933 194.929 14.6697L195.122 14.7607C196.427 15.4105 197.528 16.41 198.303 17.6488C198.855 18.534 199.198 19.5338 199.308 20.5723C199.426 21.6342 199.286 22.6297 199.036 23.6024C198.663 25.0582 198.084 26.3512 197.027 27.3849C196.091 28.2994 194.909 28.9454 193.521 29.3667C193.373 29.4632 192.744 29.5532 192.584 29.6397C192.354 29.7598 191.428 29.8644 191.183 29.9527C190.508 30.1966 189.773 32.3039 188.978 32.3039C187.896 32.3039 185.513 32.0774 184.652 31.6251C183.79 31.1729 181.81 30.546 181.321 29.7425C180.832 28.939 180.592 23.9891 180.592 22.9782C180.592 21.9672 180.833 17.02 181.321 16.2166H181.325Z" fill="white"/>
<path opacity="0.1" d="M192.492 21.1565C192.084 21.4049 191.759 22.0883 191.518 22.5441C191.277 23 191.156 23.909 191.156 24.5241C191.156 25.1392 191.276 26.0473 191.518 26.5032C191.76 26.9591 192.084 27.6451 192.492 27.8935C192.9 28.1419 194.099 28.2657 194.605 28.2657C195.387 28.2657 196.047 28.0737 196.598 27.707C197.079 27.389 197.468 26.9497 197.727 26.4331C198.001 25.8353 198.142 25.185 198.142 24.5268C198.142 23.8687 198.001 23.2184 197.727 22.6206C197.468 22.1042 197.079 21.665 196.598 21.3467C196.048 20.9827 195.389 20.788 194.605 20.788C194.099 20.7834 192.901 20.9081 192.492 21.1565ZM185.896 18.9727C186.482 18.0091 188.689 17.2557 189.724 16.7125C190.759 16.1692 193.439 15.899 194.735 15.899C196.566 15.899 198.2 16.2545 199.636 16.9654C199.702 16.9982 199.767 17.0309 199.832 17.0655C201.166 17.7424 202.29 18.7733 203.082 20.0464C203.607 20.8924 203.949 21.8402 204.086 22.828C204.227 23.8289 204.143 24.7853 203.961 25.7398C203.666 27.2866 203.14 28.6661 202.125 29.8016C201.247 30.7825 200.122 31.5077 198.791 32.0127C198.61 32.1283 198.073 32.2375 197.88 32.3385C197.608 32.4832 196.803 32.6115 196.509 32.7143C195.698 33.0064 194.816 34.6424 193.863 34.6424C192.564 34.6424 190.34 34.3694 189.305 33.8235C188.271 33.2775 186.481 32.5296 185.896 31.5651C185.31 30.6005 185.016 26.4823 185.016 25.2693C185.016 24.0564 185.309 19.9381 185.896 18.9736V18.9727Z" fill="white"/>
<path opacity="0.1" d="M197.031 22.7925C196.554 23.0828 196.175 23.7143 195.893 24.2484C195.612 24.7825 195.471 25.6551 195.471 26.3694C195.471 27.0837 195.612 27.9581 195.893 28.4895C196.175 29.0209 196.554 29.6551 197.031 29.9454C197.507 30.2357 198.534 30.3803 199.125 30.3803C199.836 30.3953 200.535 30.2011 201.138 29.8217C201.666 29.4804 202.093 29.0043 202.378 28.4422C202.683 27.852 202.836 27.1614 202.835 26.3703C202.834 25.5793 202.682 24.8887 202.378 24.2985C202.094 23.7366 201.666 23.2608 201.138 22.9199C200.536 22.5401 199.836 22.3459 199.125 22.3612C198.532 22.3585 197.506 22.5032 197.031 22.7925ZM190.352 21.0346C191.036 19.9108 192.912 19.0328 194.119 18.3958C195.326 17.7589 197.695 17.4459 199.211 17.4459C201.083 17.4459 202.756 17.8186 204.229 18.5642C204.297 18.5981 204.364 18.6327 204.43 18.6679C205.791 19.3752 206.935 20.4396 207.742 21.748C208.241 22.5549 208.582 23.4507 208.745 24.3867C208.91 25.3194 208.885 26.2429 208.768 27.1738C208.562 28.8116 208.076 30.2757 207.104 31.5132C206.282 32.5596 205.218 33.3649 203.943 33.9545C203.737 34.0901 203.284 34.2166 203.058 34.3348C202.736 34.5032 202.061 34.6497 201.716 34.7734C200.771 35.1146 199.742 36.2775 198.63 36.2775C197.114 36.2775 195.048 35.9609 193.84 35.3276C192.632 34.6943 191.031 33.8162 190.352 32.6888C189.672 31.5614 189.325 28.2739 189.325 26.8599C189.325 25.4459 189.668 22.1601 190.352 21.0346Z" fill="white"/>
<path opacity="0.1" d="M201.152 23.3904C200.608 23.7216 200.174 24.3003 199.852 24.9099C199.531 25.5196 199.369 26.3558 199.369 27.1711C199.369 27.9864 199.53 28.8253 199.852 29.4331C200.175 30.0409 200.607 30.6224 201.152 30.9527C201.696 31.283 202.551 31.4495 203.227 31.4495C203.925 31.4652 204.614 31.2819 205.213 30.9208C205.812 30.5598 206.297 30.0358 206.612 29.4095C206.946 28.7719 207.113 28.0261 207.113 27.172C207.112 26.3179 206.945 25.572 206.612 24.9345C206.297 24.3079 205.812 23.7837 205.213 23.4225C204.614 23.0612 203.925 22.8779 203.227 22.8935C202.551 22.8935 201.695 23.0591 201.152 23.3904ZM194.39 22.0564C195.172 20.7716 196.719 19.7671 198.098 19.0437C199.477 18.3203 201.541 17.9581 203.27 17.9581C205.179 17.9581 206.89 18.3479 208.405 19.1274C208.474 19.1629 208.542 19.1993 208.61 19.2357C209.997 19.9736 211.163 21.0714 211.985 22.4149C212.457 23.1839 212.796 24.0279 212.987 24.9108C213.167 25.7869 213.225 26.684 213.157 27.576C213.05 29.3048 212.593 30.8517 211.666 32.1947C210.89 33.3073 209.866 34.2221 208.676 34.8662C208.439 35.0209 208.074 35.1656 207.817 35.3003C207.449 35.4932 206.896 35.6642 206.504 35.8016C205.423 36.1911 204.247 36.8817 202.976 36.8817C201.244 36.8817 199.336 36.5177 197.956 35.7971C196.576 35.0764 195.17 34.0682 194.388 32.7834C193.606 31.4986 193.215 29.0364 193.215 27.4204C193.215 25.8044 193.608 23.3421 194.39 22.0564Z" fill="white"/>
<path opacity="0.48" d="M208.668 30.5814C209.291 30.1974 209.796 29.6491 210.13 28.9964C210.493 28.3121 210.674 27.5111 210.674 26.5933C210.674 25.6755 210.493 24.8744 210.13 24.1902C209.797 23.5375 209.291 22.9893 208.669 22.6051C208.044 22.2398 207.335 22.0474 206.612 22.0474C205.889 22.0474 205.179 22.2398 204.555 22.6051C203.933 22.9893 203.427 23.5375 203.094 24.1902C202.731 24.8744 202.55 25.6755 202.55 26.5933C202.55 27.5111 202.731 28.3121 203.094 28.9964C203.427 29.649 203.933 30.1973 204.555 30.5814C205.179 30.9467 205.889 31.1392 206.612 31.1392C207.335 31.1392 208.044 30.9467 208.669 30.5814H208.668ZM201.359 34.8808C199.856 34.1103 198.596 32.9368 197.717 31.4904C196.837 30.0449 196.397 28.4125 196.397 26.5933C196.397 24.774 196.837 23.1416 197.717 21.6961C198.597 20.2491 199.859 19.0755 201.364 18.3057C202.916 17.4923 204.667 17.0852 206.619 17.0846C208.571 17.084 210.323 17.4911 211.874 18.3057C213.379 19.0758 214.642 20.2493 215.522 21.6961C216.401 23.1429 216.841 24.7753 216.842 26.5933C216.842 28.4113 216.403 30.0437 215.522 31.4904C214.642 32.9373 213.379 34.1108 211.874 34.8808C210.323 35.6943 208.571 36.1013 206.619 36.1019C204.667 36.1025 202.914 35.6955 201.359 34.8808Z" fill="white"/>
<path opacity="0.1" d="M207.015 20.7252C207.559 20.394 208.987 20.2284 209.661 20.2284C210.335 20.2284 211.763 20.394 212.308 20.7252C212.506 20.8462 212.69 21.4995 212.859 21.657C213.029 21.8144 212.678 21.9691 212.81 22.1483C212.924 22.303 212.594 22.4695 212.688 22.6479C212.699 22.6679 212.659 22.6879 212.669 22.7088C212.717 22.7998 212.76 23.1365 212.801 23.2357C212.872 23.4113 213.357 23.5942 213.404 23.7816C213.451 23.9691 213.91 24.1547 213.933 24.3512C213.958 24.5651 213.971 25.2775 213.971 25.5077C213.971 25.7379 213.533 25.9627 213.507 26.1793C213.479 26.4086 213.012 26.6278 212.954 26.838C212.917 26.9736 212.874 27.3712 212.824 27.4995C212.774 27.6278 212.993 27.7771 212.923 27.909C212.868 28.0118 213.029 28.111 212.968 28.2056C212.821 28.434 213.159 28.6397 212.976 28.8226C212.793 29.0055 212.575 29.6915 212.342 29.8317C211.798 30.1629 210.349 30.3276 209.677 30.3276C209.006 30.3276 207.557 30.1629 207.012 29.8317C206.468 29.5005 206.036 28.5578 205.713 27.9509C205.39 27.3439 205.237 26.0964 205.237 25.2803C205.237 24.4641 205.398 23.2147 205.719 22.606C206.041 21.9973 206.471 21.0564 207.015 20.7252ZM205.012 32.6451C203.674 31.9608 202.552 30.9176 201.77 29.6315C200.988 28.3461 200.597 26.8951 200.597 25.2784C200.597 23.6618 200.988 22.2105 201.77 20.9245C202.553 19.6388 203.675 18.5957 205.012 17.9108C206.392 17.1902 207.947 16.8298 209.677 16.8298C211.407 16.8298 212.963 17.1917 214.345 17.9154C215.683 18.5983 216.806 19.6398 217.59 20.9245C218.372 22.2099 218.763 23.6609 218.763 25.2775C218.762 26.8941 218.371 28.3452 217.59 29.6306C216.808 30.9169 215.686 31.9602 214.348 32.6442C212.968 33.3697 211.411 33.7322 209.677 33.7316C207.943 33.731 206.388 33.3694 205.012 32.6469V32.6451Z" fill="white"/>
<path opacity="0.1" d="M209.657 19.3485C210.134 19.0591 212.302 18.9136 212.893 18.9136C213.484 18.9136 215.652 19.0591 216.128 19.3485C216.302 19.454 216.463 20.6042 216.611 20.7416C216.758 20.879 215.907 21.0146 216.023 21.172C216.122 21.3066 215.346 21.4522 215.428 21.6087C215.438 21.626 215.346 21.6442 215.355 21.6615C215.396 21.7443 215.435 22.2985 215.471 22.3894C215.532 22.5432 216.435 22.7034 216.476 22.8699C216.518 23.0364 217.397 23.1965 217.418 23.3685C217.441 23.5505 217.451 24.7334 217.451 24.9327C217.451 25.1319 216.589 25.3312 216.566 25.5196C216.544 25.7079 215.654 25.9126 215.604 26.0964C215.571 26.2156 215.534 26.8626 215.491 26.9745C215.447 27.0864 215.959 27.2175 215.898 27.3321C215.85 27.4231 216.235 27.5086 216.182 27.5914C216.054 27.7916 216.916 27.9718 216.756 28.1319C216.595 28.2921 216.404 29.4704 216.203 29.5924C215.726 29.8826 213.52 30.0273 212.93 30.0273C212.34 30.0273 210.134 29.8826 209.657 29.5924C209.181 29.3021 208.803 27.9472 208.521 27.4149C208.239 26.8826 208.098 25.1847 208.098 24.4704C208.098 23.7561 208.239 22.0582 208.521 21.5259C208.803 20.9936 209.182 19.6379 209.657 19.3485ZM208.842 30.9163C207.671 30.3169 206.689 29.4035 206.005 28.2775C205.323 27.1541 204.982 25.886 204.983 24.4732C204.983 23.0604 205.325 21.7907 206.008 20.6642C206.693 19.5383 207.675 18.6249 208.845 18.0255C210.053 17.3934 211.415 17.077 212.93 17.0764C214.445 17.0758 215.807 17.3919 217.017 18.0246C218.187 18.6239 219.169 19.5373 219.854 20.6633C220.538 21.788 220.88 23.0576 220.879 24.4722C220.879 25.8869 220.537 27.1565 219.854 28.2812C219.169 29.4072 218.187 30.3205 217.017 30.9199C215.808 31.5532 214.447 31.8699 212.932 31.8699C211.417 31.8699 210.055 31.552 208.845 30.9163H208.842Z" fill="white"/>
<path opacity="0.1" d="M212.445 18.2721C212.854 18.0237 215.763 17.8999 216.27 17.8999C216.776 17.8999 219.686 18.0237 220.094 18.2721C220.243 18.3631 220.382 20.0082 220.508 20.1274C220.635 20.2466 219.283 20.3603 219.381 20.4914C219.466 20.6069 218.243 20.7316 218.315 20.8653C218.322 20.8799 218.179 20.8954 218.186 20.9108C218.222 20.9818 218.255 21.7643 218.285 21.8389C218.338 21.9709 219.659 22.1119 219.695 22.2511C219.73 22.3904 221.03 22.5305 221.049 22.6779C221.067 22.8253 221.078 24.4768 221.078 24.6497C221.078 24.8226 219.791 24.9918 219.772 25.1529C219.753 25.3139 218.443 25.4895 218.4 25.647C218.372 25.7498 218.339 26.6479 218.302 26.7389C218.265 26.8298 219.071 26.9472 219.019 27.0464C218.978 27.1237 219.588 27.1975 219.542 27.2684C219.432 27.4404 220.817 27.5942 220.681 27.7316C220.544 27.869 220.379 29.5387 220.206 29.6424C219.798 29.899 216.835 30.0237 216.326 30.0237C215.817 30.0237 212.854 29.8999 212.445 29.6515C212.037 29.4031 211.712 27.6342 211.471 27.1774C211.23 26.7207 211.109 24.5742 211.109 23.9618C211.109 23.3494 211.229 21.2029 211.471 20.747C211.713 20.2912 212.037 18.5205 212.445 18.2721ZM212.825 29.4859C211.822 28.973 210.98 28.1905 210.393 27.2257C209.807 26.2624 209.514 25.1741 209.514 23.9609C209.493 22.8207 209.793 21.6978 210.378 20.7208C210.964 19.7438 211.812 18.9522 212.825 18.4368C213.86 17.8908 215.027 17.6194 216.326 17.6224C217.625 17.6254 218.792 17.8969 219.825 18.4368C220.828 18.9497 221.67 19.7322 222.256 20.697C222.844 21.6603 223.137 22.7483 223.136 23.9609C223.136 25.1735 222.842 26.2618 222.256 27.2257C221.67 28.1905 220.828 28.973 219.825 29.4859C218.791 30.0282 217.623 30.3012 216.324 30.3048C215.025 30.3085 213.858 30.0355 212.825 29.4859Z" fill="white"/>
<path opacity="0.1" d="M215.344 17.293C215.684 17.0864 219.335 16.9827 219.757 16.9827C220.18 16.9827 223.835 17.0864 224.171 17.293C224.295 17.3685 224.41 19.5114 224.516 19.6096C224.622 19.7079 222.768 19.8044 222.851 19.9163C222.921 20.0136 221.252 20.1174 221.31 20.2284C221.318 20.2411 221.121 20.2539 221.129 20.2666C221.159 20.3258 221.186 21.333 221.212 21.3949C221.256 21.505 222.994 21.6187 223.024 21.7379C223.054 21.8571 224.775 21.9709 224.79 22.0946C224.804 22.2184 224.814 24.3294 224.814 24.4732C224.814 24.6169 223.105 24.758 223.093 24.8926C223.081 25.0273 221.348 25.1738 221.311 25.3048C221.288 25.3894 221.262 26.5341 221.23 26.6142C221.198 26.6943 222.299 26.788 222.256 26.8708C222.221 26.9345 223.056 26.9964 223.018 27.0528C222.927 27.1956 224.835 27.3258 224.721 27.4386C224.607 27.5514 224.47 29.7134 224.326 29.8044C223.985 30.0109 220.259 30.1147 219.837 30.1147C219.415 30.1147 215.689 30.0109 215.349 29.8044C215.009 29.5978 214.739 27.414 214.534 27.0337C214.329 26.6533 214.232 24.0582 214.232 23.5478C214.232 23.0373 214.333 20.4413 214.534 20.061C214.735 19.6806 215.003 17.4995 215.344 17.293ZM216.914 28.1538C216.072 27.7179 215.366 27.0577 214.873 26.2456C214.38 25.4334 214.12 24.5007 214.12 23.5496C214.12 22.5985 214.38 21.6657 214.873 20.8536C215.366 20.0415 216.072 19.3813 216.914 18.9454C217.777 18.4935 218.749 18.2675 219.832 18.2675C220.914 18.2675 221.887 18.4935 222.749 18.9454C223.591 19.381 224.298 20.0412 224.791 20.8533C225.284 21.6655 225.545 22.5984 225.545 23.5496C225.545 24.5008 225.284 25.4337 224.791 26.2459C224.298 27.058 223.591 27.7181 222.749 28.1538C221.888 28.6063 220.915 28.8323 219.832 28.8317C218.748 28.8311 217.775 28.6051 216.914 28.1538Z" fill="white"/>
<path opacity="0.1" d="M218.603 16.2084C218.875 16.0437 223.269 15.9609 223.606 15.9609C223.943 15.9609 228.336 16.0437 228.609 16.2084C228.708 16.2693 228.8 18.9081 228.881 18.9873C228.962 19.0664 226.611 19.1429 226.677 19.2329C226.733 19.3094 224.617 19.3931 224.664 19.4823C224.669 19.4923 224.422 19.5023 224.427 19.5123C224.451 19.5596 224.473 20.7916 224.493 20.8417C224.529 20.9327 226.685 21.0237 226.709 21.1147C226.733 21.2056 228.875 21.3012 228.884 21.3995C228.892 21.4977 228.904 24.071 228.904 24.1865C228.904 24.3021 226.77 24.414 226.757 24.5223C226.744 24.6306 224.594 24.7461 224.566 24.8517C224.547 24.919 224.525 26.313 224.501 26.3776C224.476 26.4422 225.87 26.5159 225.835 26.5823C225.807 26.6333 226.867 26.6824 226.837 26.7307C226.763 26.8444 229.193 26.9472 229.102 27.0382C229.011 27.1292 228.902 29.7853 228.787 29.859C228.515 30.0246 224.027 30.1074 223.69 30.1074C223.353 30.1074 218.866 30.0246 218.594 29.859C218.322 29.6934 218.105 27.0965 217.944 26.7925C217.784 26.4886 217.702 23.4431 217.702 23.0355C217.702 22.6278 217.783 19.5824 217.944 19.2784C218.106 18.9745 218.33 16.3749 218.603 16.2084ZM221.366 26.7161C220.691 26.3678 220.125 25.8397 219.73 25.1895C219.335 24.5394 219.126 23.7925 219.126 23.0309C219.126 22.2693 219.335 21.5225 219.73 20.8723C220.125 20.2222 220.691 19.694 221.366 19.3458C222.092 18.9884 222.891 18.8025 223.7 18.8025C224.509 18.8025 225.307 18.9884 226.034 19.3458C226.708 19.694 227.274 20.2222 227.669 20.8723C228.064 21.5225 228.273 22.2693 228.273 23.0309C228.273 23.7925 228.064 24.5394 227.669 25.1895C227.274 25.8397 226.708 26.3678 226.034 26.7161C225.307 27.0729 224.509 27.2584 223.7 27.2584C222.891 27.2584 222.093 27.0729 221.366 26.7161Z" fill="white"/>
<path opacity="0.1" d="M221.547 14.8162C221.751 14.6924 226.887 14.6297 227.139 14.6297C227.392 14.6297 232.528 14.6924 232.732 14.8162C232.806 14.8617 232.875 17.9964 232.938 18.0555C233.002 18.1146 230.147 18.1729 230.196 18.2375C230.245 18.3021 227.675 18.3576 227.71 18.4249C227.71 18.4322 227.415 18.4395 227.419 18.4477C227.437 18.4832 227.453 19.939 227.468 19.9763C227.495 20.0419 230.07 20.111 230.087 20.1829C230.104 20.2548 232.669 20.3221 232.678 20.3958C232.687 20.4695 232.693 23.5041 232.693 23.5896C232.693 23.6752 230.136 23.7607 230.126 23.8417C230.116 23.9227 227.547 24.01 227.525 24.0892C227.512 24.1401 227.496 25.7825 227.477 25.8308C227.458 25.879 229.146 25.9354 229.119 25.9845C229.093 26.0337 230.388 26.0601 230.361 26.0955C230.305 26.1811 233.26 26.2584 233.193 26.3267C233.126 26.3949 233.043 29.5432 232.956 29.5951C232.752 29.7197 227.505 29.7816 227.247 29.7816C226.99 29.7816 221.746 29.7197 221.539 29.5951C221.331 29.4704 221.176 26.4604 221.052 26.2284C220.928 25.9964 220.871 22.5068 220.871 22.2011C220.871 21.8954 220.931 18.4013 221.052 18.1729C221.174 17.9445 221.34 14.9409 221.547 14.8162ZM225.498 24.97C224.992 24.7086 224.568 24.3126 224.273 23.8253C223.977 23.338 223.82 22.7782 223.82 22.2075C223.82 21.6367 223.977 21.0769 224.273 20.5896C224.568 20.1023 224.992 19.7063 225.498 19.4449C226.043 19.1768 226.641 19.0373 227.248 19.0373C227.855 19.0373 228.454 19.1768 228.999 19.4449C229.504 19.7063 229.928 20.1023 230.224 20.5896C230.52 21.0769 230.676 21.6367 230.676 22.2075C230.676 22.7782 230.52 23.338 230.224 23.8253C229.928 24.3126 229.504 24.7086 228.999 24.97C228.454 25.2375 227.855 25.3766 227.248 25.3766C226.641 25.3766 226.043 25.2375 225.498 24.97Z" fill="white"/>
<path opacity="0.1" d="M224.488 12.9172C224.624 12.8344 230.501 12.7925 230.669 12.7925C230.838 12.7925 236.715 12.8262 236.851 12.9172C236.901 12.9472 236.946 16.5787 236.989 16.6187C237.031 16.6588 233.674 16.6961 233.707 16.7407C233.739 16.7853 230.726 16.8217 230.749 16.8662C230.749 16.8708 230.4 16.8762 230.402 16.8808C230.415 16.9045 230.426 18.586 230.436 18.6096C230.453 18.6533 233.446 18.7006 233.458 18.747C233.469 18.7934 236.456 18.838 236.461 18.8899C236.467 18.9418 236.471 22.4331 236.471 22.4904C236.471 22.5478 233.49 22.6051 233.481 22.6588C233.472 22.7125 230.486 22.7707 230.471 22.8235C230.462 22.8571 230.451 24.7498 230.438 24.7816C230.426 24.8135 232.407 24.8508 232.39 24.8835C232.373 24.9163 233.885 24.9345 233.87 24.9581C233.834 25.0155 237.313 25.0664 237.268 25.1119C237.222 25.1574 237.167 28.7971 237.109 28.8326C236.973 28.9154 230.966 28.9563 230.797 28.9563C230.629 28.9563 224.621 28.9154 224.485 28.8326C224.349 28.7498 224.241 25.3248 224.16 25.1729C224.079 25.0209 224.04 21.0782 224.04 20.8744C224.04 20.6706 224.079 16.7279 224.16 16.576C224.241 16.424 224.356 12.9954 224.488 12.9172ZM229.633 22.717C229.296 22.5427 229.014 22.2787 228.816 21.9538C228.619 21.6289 228.515 21.2558 228.515 20.8753C228.515 20.4949 228.619 20.1217 228.816 19.7969C229.014 19.472 229.296 19.208 229.633 19.0337C229.996 18.8552 230.395 18.7625 230.8 18.7625C231.204 18.7625 231.604 18.8552 231.967 19.0337C232.304 19.2077 232.587 19.4717 232.784 19.7966C232.982 20.1215 233.086 20.4947 233.086 20.8753C233.086 21.2559 232.982 21.6292 232.784 21.9541C232.587 22.279 232.304 22.5429 231.967 22.717C231.604 22.8955 231.204 22.9882 230.8 22.9882C230.395 22.9882 229.996 22.8955 229.633 22.717Z" fill="white"/>
<path opacity="0.1" d="M227.4 10.2948C227.468 10.2539 234.086 10.2329 234.171 10.2329C234.255 10.2329 240.876 10.2539 240.941 10.2948C240.966 10.3103 240.989 14.4377 241.01 14.4577C241.031 14.4777 237.174 14.4968 237.19 14.5187C237.206 14.5405 233.747 14.5587 233.759 14.5814C233.759 14.5814 233.357 14.5814 233.358 14.5887C233.359 14.596 233.37 16.5068 233.375 16.5187C233.381 16.5305 236.795 16.5641 236.8 16.5878C236.806 16.6115 240.213 16.6342 240.216 16.6588C240.219 16.6833 240.222 20.6388 240.222 20.6679C240.222 20.697 236.817 20.7243 236.813 20.7516C236.809 20.7789 233.401 20.808 233.394 20.8335C233.387 20.859 233.384 22.9918 233.378 23.0082C233.372 23.0246 235.643 23.0428 235.638 23.0591C235.632 23.0755 237.365 23.0846 237.359 23.0964C237.341 23.1247 241.346 23.1501 241.322 23.1729C241.297 23.1956 241.272 27.3285 241.243 27.3458C241.175 27.3867 234.407 27.4076 234.323 27.4076C234.239 27.4076 227.471 27.3867 227.403 27.3458C227.335 27.3048 227.281 23.4659 227.24 23.3894C227.199 23.313 227.18 18.9227 227.18 18.8198C227.18 18.717 227.2 14.3267 227.24 14.2511C227.28 14.1756 227.331 10.3367 227.4 10.2948ZM233.737 19.7416C233.568 19.6556 233.427 19.5236 233.329 19.3607C233.232 19.1979 233.182 19.0108 233.185 18.8207C233.182 18.6307 233.232 18.4436 233.329 18.2808C233.427 18.1179 233.568 17.9859 233.737 17.8999C233.918 17.8107 234.118 17.7643 234.32 17.7643C234.522 17.7643 234.722 17.8107 234.904 17.8999C235.072 17.9859 235.214 18.1179 235.311 18.2808C235.409 18.4436 235.459 18.6307 235.456 18.8207C235.459 19.0108 235.409 19.1979 235.311 19.3607C235.214 19.5236 235.072 19.6556 234.904 19.7416C234.722 19.8314 234.523 19.8781 234.32 19.8781C234.118 19.8781 233.918 19.8314 233.737 19.7416Z" fill="white"/>
<path opacity="0.49" d="M245.301 20.3212V24.9454H230.245V6.76069H244.964V11.3849H236.246V13.515H243.904V17.9308H236.246V20.3212H245.301Z" fill="white"/>
<path opacity="0.1" d="M233.713 4.62511H248.655V8.96997L243.536 9.26388H240.756L240.647 11.1574H246.115L247.122 11.2147V15.3649L240.316 15.7561V18.0009L248.367 18.4677V22.8135H234.303V12.0837L233.713 8.4222V4.62511Z" fill="white"/>
<path opacity="0.1" d="M236.9 4.77707H252.063V8.84258L247.584 9.42948H244.982L244.767 11.0864H249.177L250.059 11.202V15.0855L244.103 15.8671V17.9691L251.146 18.8954V22.9618H238.079V11.8981L236.901 8.69336L236.9 4.77707Z" fill="white"/>
<path opacity="0.1" d="M240.005 6.57234H255.389V10.3594L251.55 11.2402H249.127L248.804 12.6606H252.157L252.913 12.8326V16.4504L247.808 17.6233V19.5805L253.845 20.97V24.758H241.773V13.3558L240.005 10.6087V6.57234Z" fill="white"/>
<path opacity="0.1" d="M243.06 9.36852H258.665V12.8762L255.466 14.051H253.221L252.791 15.2338H255.089L255.723 15.4641V18.8144L251.465 20.3794V22.1911L256.495 24.0455V27.5541H245.417V15.8162L243.061 13.5268L243.06 9.36852Z" fill="white"/>
<path opacity="0.1" d="M246.097 12.5232H261.923V15.7516L259.364 17.2202H257.298L256.761 18.1665H258.001L258.506 18.454V21.5387L255.102 23.4941V25.162L259.126 27.4759V30.7061H249.042V18.6306L246.097 16.7998V12.5232Z" fill="white"/>
<path opacity="0.1" d="M249.147 15.3922H265.195V18.3412L263.275 20.1055H261.389L260.744 20.8162H260.925L261.303 21.1611V23.9818L258.75 26.3285V27.8517L261.769 30.6315V33.5833H252.682V21.1611L249.149 19.788L249.147 15.3922Z" fill="white"/>
<path opacity="0.1" d="M252.244 17.3321H268.513V20.0018L267.233 22.0573H265.525L264.772 22.5314H263.9L264.152 22.9336V25.4813L262.451 28.2193V29.5987L264.462 32.8408V35.5141H256.368V22.7625L252.244 21.8471V17.3321Z" fill="white"/>
<path opacity="0.1" d="M255.418 17.7006H271.909V20.091L271.269 22.4395H269.74L268.88 22.677H266.951L267.076 23.1365V25.4222L266.226 28.5514V29.7853L267.232 33.4914V35.8854H260.132V22.7925L255.42 22.3376L255.418 17.7006Z" fill="white"/>
<path opacity="0.5" d="M264.004 20.6069H258.697V15.8526H275.409V20.6069H270.114V34.0382H264.008L264.004 20.6069Z" fill="white"/>
<path opacity="0.1" d="M278.119 18.4895C278.165 18.5314 273.474 18.5887 273.474 18.6642C273.474 18.7398 273.452 30.7361 273.405 30.778C273.359 30.8198 267.864 30.8399 267.771 30.8399L267.524 18.9008L262.812 18.6642V14.2056H277.914C278.004 14.202 278.074 18.4486 278.119 18.4895ZM270.422 23.2712H270.24V23.7789H269.562V21.7589H270.53C270.697 21.755 270.862 21.786 271.016 21.8499C271.11 21.8933 271.193 21.9558 271.261 22.0334C271.329 22.111 271.381 22.2019 271.412 22.3004C271.443 22.399 271.454 22.503 271.443 22.6059C271.432 22.7087 271.401 22.8083 271.349 22.8981C271.281 23.0084 271.184 23.0973 271.068 23.1547L271.491 23.778H270.766L270.422 23.2712Z" fill="white"/>
<path opacity="0.1" d="M280.748 17.6087C280.838 17.6915 276.761 17.808 276.761 17.9581C276.761 18.1083 276.715 28.6715 276.623 28.7543C276.532 28.8371 271.644 28.8781 271.458 28.8781L270.965 18.4313L266.839 17.9581V13.7871H280.332C280.518 13.7871 280.655 17.5259 280.748 17.6087ZM273.708 22.8353H273.34V23.8517H271.981V19.8089H273.919C274.252 19.8003 274.583 19.8623 274.891 19.9909C275.077 20.0778 275.244 20.2026 275.38 20.3574C275.516 20.5122 275.619 20.6937 275.681 20.8904C275.744 21.0871 275.765 21.2947 275.744 21.5001C275.723 21.7055 275.659 21.9042 275.558 22.0837C275.422 22.3046 275.226 22.4825 274.994 22.5969L275.839 23.8444H274.39L273.708 22.8353Z" fill="white"/>
<path opacity="0.1" d="M283.334 17.5869C283.473 17.7106 280.006 17.8853 280.006 18.111C280.006 18.3367 279.937 27.465 279.799 27.5887C279.66 27.7125 275.384 27.7753 275.108 27.7753L274.367 18.8207L270.833 18.111V14.2311H282.716C282.99 14.2311 283.197 17.4668 283.334 17.5869ZM276.954 23.2548H276.402V24.7789H274.367V18.717H277.272C277.771 18.7045 278.267 18.7975 278.729 18.99C279.123 19.1519 279.458 19.4313 279.69 19.7905C279.921 20.1498 280.037 20.5715 280.023 20.9991C280.032 21.3974 279.93 21.7903 279.729 22.1338C279.525 22.465 279.232 22.7321 278.885 22.9045L280.153 24.7753H277.978L276.954 23.2548Z" fill="white"/>
<path opacity="0.1" d="M285.919 18.0446C286.1 18.2102 283.248 18.4431 283.248 18.7425C283.248 19.0419 283.158 26.7379 282.977 26.9036C282.795 27.0692 279.125 27.151 278.757 27.151L277.768 19.6897L274.817 18.7407V15.1547H285.09C285.458 15.1547 285.735 17.879 285.919 18.0446ZM280.196 24.1556H279.459V26.1874H276.746V18.1037H280.624C281.291 18.0891 281.953 18.2149 282.568 18.4732C282.942 18.647 283.275 18.897 283.548 19.2072C283.821 19.5174 284.026 19.881 284.151 20.2751C284.277 20.6692 284.319 21.0851 284.276 21.4966C284.233 21.908 284.105 22.3059 283.901 22.6652C283.629 23.107 283.238 23.463 282.774 23.6924L284.464 26.1865H281.565L280.196 24.1556Z" fill="white"/>
<path opacity="0.1" d="M288.409 18.0692C288.64 18.2766 286.398 18.5669 286.398 18.9427C286.398 19.3185 286.283 25.5778 286.053 25.7853C285.823 25.9927 282.764 26.0955 282.304 26.0955L281.068 20.1256L278.712 18.9427V15.6469H287.376C287.835 15.6469 288.18 17.8626 288.409 18.0692ZM283.345 24.6206H282.426V27.1601H279.033V17.0601H283.877C284.806 17.0601 285.616 17.2141 286.305 17.5223C286.773 17.7391 287.191 18.0513 287.532 18.4388C287.873 18.8264 288.13 19.281 288.287 19.7737C288.443 20.2664 288.497 20.7864 288.442 21.3008C288.388 21.8152 288.228 22.3126 287.973 22.7616C287.632 23.3136 287.144 23.7584 286.565 24.0455L288.677 27.1629H285.052L283.345 24.6206Z" fill="white"/>
<path opacity="0.1" d="M290.883 17.3958C291.155 17.6442 289.529 17.9927 289.529 18.4431C289.529 18.8935 289.392 23.7207 289.115 23.9682C288.839 24.2156 286.391 24.3403 285.839 24.3403L284.356 19.8635L282.588 18.4431V15.4404H289.642C290.194 15.4386 290.608 17.1474 290.883 17.3958ZM286.477 24.3922H285.373V27.4404H281.303V15.3176H287.116C288.23 15.3176 289.201 15.5023 290.03 15.8717C290.858 16.2411 291.496 16.7728 291.944 17.4668C292.392 18.1595 292.616 18.9678 292.616 19.8917C292.616 20.7567 292.421 21.5129 292.03 22.1601C291.622 22.8229 291.036 23.3571 290.34 23.7015L292.877 27.4422H288.528L286.477 24.3922Z" fill="white"/>
<path opacity="0.1" d="M293.629 16.7734C293.95 17.0628 292.933 17.4704 292.933 17.9955C292.933 18.5205 292.772 21.9136 292.45 22.2029C292.127 22.4923 290.289 22.6369 289.641 22.6369L287.91 19.6524L286.732 17.9955V15.283H292.176C292.824 15.283 293.31 16.4832 293.629 16.7734ZM289.88 24.2129H288.593V27.7698H283.844V13.6251H290.625C291.926 13.6251 293.06 13.8408 294.026 14.2721C294.991 14.7034 295.736 15.323 296.259 16.131C296.782 16.939 297.043 17.882 297.044 18.96C297.044 19.97 296.816 20.8523 296.36 21.6069C295.883 22.3797 295.2 23.0026 294.388 23.4049L297.345 27.7725H292.271L289.88 24.2129Z" fill="white"/>
<path opacity="0.1" d="M296.522 15.1165C296.89 15.4477 296.485 15.9136 296.485 16.5132C296.485 17.1128 296.303 19.0719 295.933 19.4031C295.562 19.7343 294.334 19.899 293.599 19.899L291.621 18.4067L291.032 16.5132V14.0919H294.866C295.602 14.0919 296.154 14.7853 296.522 15.1165ZM293.432 22.9991H291.96V27.0637H286.533V10.899H294.283C295.77 10.899 297.065 11.1453 298.169 11.6379C299.273 12.1304 300.123 12.8386 300.722 13.7625C301.32 14.6858 301.618 15.7634 301.618 16.9955C301.618 18.148 301.357 19.1565 300.837 20.0209C300.316 20.8854 299.565 21.5702 298.583 22.0755L301.963 27.0637H296.164L293.432 22.9991Z" fill="white"/>
<path opacity="0.61" d="M299.601 12.0473C299.186 11.6742 298.565 11.488 297.738 11.4886H295.513V15.7489H297.738C298.566 15.7489 299.187 15.5626 299.601 15.1902C300.014 14.8177 300.221 14.2939 300.221 13.6187C300.221 12.9436 300.014 12.4198 299.601 12.0473ZM297.169 20.3731H295.513V24.9454H289.408V6.76069H298.126C299.799 6.76069 301.256 7.03761 302.498 7.59144C303.74 8.14528 304.697 8.94207 305.37 9.9818C306.042 11.0209 306.378 12.2341 306.378 13.6215C306.378 14.9202 306.085 16.0546 305.499 17.0246C304.913 17.9945 304.068 18.7652 302.962 19.3367L306.768 24.9481H300.244L297.169 20.3731Z" fill="white"/>
<path opacity="0.1" d="M299.018 8.31483H300.635L302.058 9.01365L302.149 8.96906C302.504 8.96906 303.204 8.35396 303.474 8.4313C303.762 8.51411 304.652 8.64058 304.847 8.81165C305.151 9.08462 304.95 10.0955 305.003 10.5541C305.014 10.6451 304.929 10.9017 304.929 11.0091C304.929 11.3667 304.575 12.1665 304.445 12.4286C304.354 12.6106 304.237 13.1165 304.088 13.2475C303.938 13.3785 303.759 13.869 303.544 13.949C303.237 14.0655 302.185 14.1238 301.749 14.1238L299.834 13.3822L299.759 13.3612L299.397 10.849L299.018 8.31483ZM301.588 17.2229H300.116V21.2884H294.69V5.12284H302.439C303.926 5.12284 305.221 5.36913 306.325 5.86169C307.429 6.35426 308.279 7.06248 308.877 7.98635C309.475 8.90962 309.774 9.98726 309.774 11.2193C309.774 12.3719 309.514 13.38 308.992 14.2439C308.471 15.1077 307.72 15.7928 306.739 16.2994L310.121 21.2884H304.322L301.588 17.2229Z" fill="white"/>
<path opacity="0.1" d="M303.083 7.41857H305.302L307.01 8.8162L307.119 8.72521C307.431 8.72521 308.479 7.45132 308.715 7.51957C308.968 7.59145 310.487 7.70155 310.654 7.8526C310.92 8.0919 310.318 9.69973 310.363 10.101C310.373 10.1847 310.197 10.5778 310.197 10.6688C310.197 10.9809 309.563 12.2329 309.448 12.4622C309.37 12.6178 309.267 13.4632 309.136 13.5796C309.006 13.6961 308.848 14.5496 308.664 14.6197C308.392 14.7216 306.713 14.7725 306.33 14.7725L304.655 13.2894L304.576 13.2484L303.841 10.3531L303.083 7.41857ZM306.567 16.3494H305.278V19.9063H300.53V5.7616H307.311C308.612 5.7616 309.745 5.97725 310.711 6.40856C311.677 6.83986 312.422 7.45951 312.945 8.26752C313.467 9.07553 313.729 10.0185 313.729 11.0965C313.729 12.1065 313.501 12.9888 313.045 13.7434C312.569 14.5166 311.886 15.1396 311.074 15.5414L314.031 19.909H308.957L306.567 16.3494Z" fill="white"/>
<path opacity="0.1" d="M307.418 8.27661H310.241L312.234 10.3694L312.362 10.2348C312.634 10.2348 314.027 8.303 314.229 8.36032C314.444 8.4222 316.59 8.51774 316.733 8.64604C316.961 8.85168 315.957 11.0573 315.996 11.4013C316.005 11.4722 315.737 12.0064 315.737 12.0846C315.737 12.3521 314.821 14.0564 314.723 14.253C314.657 14.3858 314.568 15.5651 314.452 15.6651C314.336 15.7652 314.205 16.9845 314.047 17.0446C313.816 17.1356 311.502 17.1756 311.175 17.1756L309.738 14.95L309.656 14.889L308.553 11.6133L307.418 8.27661ZM311.817 17.2302H310.713V20.2784H306.643V8.15286H312.455C313.57 8.15286 314.541 8.33758 315.369 8.707C316.198 9.07643 316.836 9.60782 317.284 10.3012C317.732 10.9933 317.955 11.8013 317.955 12.7252C317.955 13.5914 317.76 14.3479 317.369 14.9945C316.96 15.6572 316.375 16.1912 315.678 16.5359L318.215 20.2766H313.866L311.817 17.2302Z" fill="white"/>
<path opacity="0.1" d="M312.029 11.0646H315.455L317.732 13.859L317.878 13.677C318.101 13.677 319.846 11.0864 320.014 11.1347C320.183 11.1829 322.965 11.2657 323.084 11.3722C323.274 11.5432 321.868 14.3476 321.901 14.6333C321.908 14.6934 321.55 15.3676 321.55 15.4331C321.55 15.6561 320.353 17.8116 320.272 17.9754C320.216 18.0864 320.142 19.5996 320.049 19.6834C319.955 19.7671 319.843 21.3521 319.712 21.4022C319.52 21.475 316.574 21.5114 316.3 21.5114L315.103 18.5441L315.013 18.4622L313.543 14.8026L312.029 11.0646ZM317.341 20.0419H316.422V22.5824H313.029V12.4823H317.873C318.802 12.4823 319.612 12.6363 320.301 12.9445C320.769 13.1613 321.187 13.4735 321.528 13.861C321.869 14.2486 322.126 14.7032 322.283 15.1959C322.439 15.6886 322.492 16.2086 322.438 16.723C322.384 17.2374 322.224 17.7348 321.969 18.1838C321.628 18.7361 321.141 19.1813 320.561 19.4686L322.673 22.5869H319.048L317.341 20.0419Z" fill="white"/>
<path opacity="0.1" d="M316.003 14.1356H320.031L322.593 17.6288L322.758 17.4049C322.939 17.4049 325.029 14.1556 325.164 14.1938C325.299 14.232 328.705 14.2985 328.8 14.384C328.952 14.5214 327.144 17.9227 327.169 18.152C327.174 18.2002 326.726 19.0155 326.726 19.0664C326.726 19.2484 325.247 21.8535 325.185 21.9845C325.141 22.0755 325.082 23.9199 325.004 23.9864C324.926 24.0528 324.839 26.0036 324.732 26.0437C324.579 26.1019 321.001 26.1347 320.783 26.1347L319.825 22.4258L319.734 22.3239L317.898 18.2821L316.003 14.1356ZM322.229 23.1365H321.489V25.1683H318.771V17.0855H322.646C323.389 17.0855 324.037 17.209 324.589 17.4559C325.11 17.6754 325.554 18.0449 325.866 18.5177C326.17 19.0003 326.326 19.5626 326.313 20.1338C326.326 20.6648 326.191 21.1889 325.923 21.647C325.651 22.0888 325.26 22.4448 324.796 22.6742L326.486 25.1683H323.587L322.229 23.1365Z" fill="white"/>
<path opacity="0.1" d="M319.394 16.8508H324.026L326.872 21.0419L327.054 20.7743C327.187 20.7743 329.629 16.8617 329.73 16.8944C329.832 16.9272 333.86 16.9727 333.931 17.0373C334.045 17.1401 331.836 21.1392 331.855 21.3139C331.855 21.3503 331.32 22.3057 331.32 22.3449C331.32 22.4786 329.561 25.5387 329.508 25.636C329.475 25.7034 329.43 27.8844 329.374 27.9354C329.318 27.9863 329.251 30.3012 329.172 30.3312C329.057 30.3758 324.847 30.3976 324.683 30.3976L323.965 25.9463L323.869 25.8235L321.67 21.3976L319.394 16.8508ZM326.534 25.8744H325.983V27.3985H323.947V21.3367H326.853C327.353 21.3255 327.849 21.4201 328.31 21.6142C328.59 21.7446 328.841 21.9321 329.045 22.1648C329.249 22.3974 329.403 22.6701 329.496 22.9656C329.59 23.2611 329.622 23.573 329.589 23.8813C329.556 24.1897 329.46 24.4879 329.307 24.757C329.103 25.0885 328.811 25.3556 328.462 25.5277L329.731 27.3985H327.556L326.534 25.8744Z" fill="white"/>
<path opacity="0.1" d="M321.92 19.2193H327.154L330.285 24.1092L330.487 23.7962C330.577 23.7962 333.365 19.2284 333.433 19.2466C333.501 19.2648 338.152 19.2985 338.2 19.3376C338.277 19.4058 335.663 24.0036 335.678 24.1183C335.678 24.142 335.051 25.2384 335.051 25.2648C335.051 25.3558 333.01 28.8653 332.978 28.9308C332.955 28.9754 332.925 31.4914 332.887 31.525C332.849 31.5587 332.806 34.2402 332.753 34.2602C332.676 34.2894 327.834 34.3039 327.725 34.3039L327.247 29.1137L327.147 28.9709L324.575 24.1656L321.92 19.2193ZM329.974 28.2657H329.606V29.2812H328.247V25.2402H330.188C330.521 25.2319 330.852 25.2939 331.16 25.4222C331.346 25.5093 331.513 25.6342 331.649 25.7891C331.785 25.9439 331.887 26.1254 331.95 26.322C332.012 26.5186 332.034 26.7261 332.013 26.9314C331.992 27.1367 331.928 27.3354 331.827 27.515C331.69 27.7358 331.495 27.9139 331.263 28.0291L332.108 29.2757H330.658L329.974 28.2657Z" fill="white"/>
<path opacity="0.1" d="M323.295 20.7152H329.133L332.548 26.3039L332.768 25.9454C332.813 25.9454 335.951 20.7197 335.985 20.7298C336.019 20.7398 341.294 20.7561 341.317 20.7771C341.355 20.8116 338.343 26.0073 338.349 26.0646C338.349 26.0764 337.624 27.3139 337.624 27.3267C337.624 27.3712 335.303 31.3303 335.286 31.3667C335.27 31.4031 335.261 34.2393 335.242 34.2566C335.223 34.2739 335.201 37.3212 335.175 37.3312C335.149 37.3412 329.663 37.353 329.608 37.353L329.372 31.4186L329.268 31.2548L326.33 26.0682L323.295 20.7152ZM332.265 29.7843H332.084V30.2966H331.406V28.2721H332.375C332.542 28.2678 332.707 28.2988 332.861 28.3631C332.991 28.418 333.102 28.5101 333.18 28.6278C333.256 28.7488 333.295 28.8896 333.292 29.0328C333.295 29.1653 333.261 29.2961 333.194 29.4104C333.126 29.5209 333.029 29.6099 332.912 29.667L333.335 30.2912H332.61L332.265 29.7843Z" fill="white"/>
<path opacity="0.55" d="M336.168 32.4013V39H330.063V32.323L326.654 26.566L323.239 20.8116H329.681L333.38 27.0992L337.106 20.8116H343.004L339.59 26.6051L336.168 32.4013Z" fill="white"/>
</g>
<g opacity="0.5" filter="url(#filter1_f_0_1)">
<path opacity="0.5" d="M10.4561 80.8351V84.0665H18.4444V88.86H10.4561V94.8919H4V76.0416H19.5654V80.8351H10.4561Z" fill="white"/>
<path opacity="0.1" d="M4.53369 75.354H20.0972V79.5872L20.0148 80.1474H12.5277L10.9812 80.3672V80.57L11.375 83.2657H15.4309L18.9809 83.7741L18.5315 84.4627L18.0812 85.1522V85.853L18.613 86.6661L19.1457 87.4782V88.843H11.5398L11.1565 94.2052H4.53369V75.354Z" fill="white"/>
<path opacity="0.1" d="M6.03809 73.5119H21.6035V77.8149L21.4396 78.3053H13.8232L12.4702 78.7449V78.9514L13.2588 81.3095H17.3789L20.4805 82.3272L19.5808 82.9299L18.6811 83.5327V84.4561L19.7446 85.1673L20.8082 85.8775V87.6696H13.5961L12.8296 92.3612H6.03809V73.5119Z" fill="white"/>
<path opacity="0.1" d="M8.37109 70.8454H23.9375V75.2182L23.6912 75.6388H15.9511L14.7908 76.2991V76.5094L15.977 78.5298H20.1556L22.8154 80.0522L21.4663 80.5681L20.1163 81.0897V82.2348L21.7126 82.8451L23.3079 83.4534V85.6757H16.4801L15.3303 89.6976H8.37109V70.8454Z" fill="white"/>
<path opacity="0.1" d="M11.3914 67.6837H26.9568V72.1291L26.6291 72.479H18.7654L17.7977 73.3553V73.5694L19.3748 75.254H23.6156L25.8347 77.2885L24.0353 77.7196L22.2359 78.1497V79.5174L24.363 80.0258L26.4911 80.5332V83.1837H20.0513L18.5182 86.535H11.3914V67.6837Z" fill="white"/>
<path opacity="0.1" d="M14.9546 64.3579H30.5209V68.8703L30.1108 69.1532H22.1236L21.3503 70.2502V70.4681L23.3213 71.816H27.6234L29.3989 74.3627L27.1492 74.7069L24.9003 75.0522V76.6415L27.5602 77.048L30.2191 77.4536V80.5238H24.1654L22.2491 83.2044H14.9546V64.3579Z" fill="white"/>
<path opacity="0.1" d="M18.9197 61.1962H34.4851V65.7793L33.9907 65.9897H25.8827L25.3078 67.3102V67.5328L27.6668 68.5392H32.0303L33.3621 71.5905L30.6649 71.8461L27.9657 72.1046V73.9212L31.1574 74.2259L34.3481 74.5296V78.0374H28.6805L26.3809 80.0484H18.9197V61.1962Z" fill="white"/>
<path opacity="0.1" d="M23.1289 58.5288H38.6943V63.1826L38.1194 63.3232H29.8868L29.5036 64.8587V65.0842L32.264 65.7586H36.6898L37.5771 69.3192L34.4237 69.4881L31.2752 69.6607V71.6943L34.9986 71.8971L38.7221 72.0999V76.0369H33.4407L30.7578 77.3772H23.1289V58.5288Z" fill="white"/>
<path opacity="0.1" d="M27.386 56.6876H42.9514V61.4103L42.296 61.4811H33.9379L33.7463 63.2355V63.4656L36.9015 63.8023H41.3886L41.8322 67.8723L38.2334 67.9582L34.6345 68.044V70.3002L38.8897 70.4011L43.1449 70.503V74.8644H38.2487L35.1826 75.5341H27.386V56.6876Z" fill="white"/>
<path opacity="0.5" d="M47.5371 70.054V74.8475H31.6162V56H47.1816V60.7935H37.9631V63.0015H46.0634V67.5799H37.9631V70.054H47.5371Z" fill="white"/>
<path opacity="0.1" d="M35.7881 57.0441C35.8628 56.9366 38.998 56.8555 39.1474 56.7895C39.2969 56.7235 43.372 56.6952 43.5847 56.6952C43.7303 56.6952 47.4777 56.7102 47.6186 56.7414C47.7594 56.7725 51.1973 56.8178 51.3056 56.8772L51.1312 61.5518L50.0581 61.6461C49.9555 61.5952 46.7898 61.5575 46.693 61.5311C46.5962 61.5046 43.6594 61.4905 43.5646 61.4905C43.5138 61.4905 42.2069 61.4905 42.1695 61.5009C42.0737 61.5188 42.0258 63.5222 42.0258 63.5854C42.0258 63.6269 43.3356 63.659 43.3902 63.6797C43.4448 63.7005 45.8335 63.7184 45.9408 63.7401C45.9523 63.7401 46.3078 63.7401 46.3193 63.7467C46.4458 63.7703 49.8128 63.7957 49.9086 63.825C49.9354 63.8335 49.9613 64.6097 49.9862 64.6192C50.0973 64.6578 50.1941 68.0214 50.2737 68.1091C50.3014 68.1402 46.7284 68.1742 46.7447 68.2119C46.761 68.2496 43.1765 68.2864 43.1851 68.3289C43.1909 68.3534 43.1938 70.5813 43.1966 70.6077C43.1995 70.6341 45.0277 70.6492 45.0277 70.6709C45.0277 70.6926 47.4528 70.7275 47.449 70.7539C47.4423 70.8039 51.686 70.8482 51.6649 70.8963C51.6438 70.9444 51.6237 75.2474 51.594 75.2889C51.5193 75.3955 48.3171 75.4775 48.1686 75.5436C48.02 75.6096 43.8568 75.6379 43.6393 75.6379C43.463 75.6379 39.4723 75.6181 39.3055 75.5794C39.1388 75.5407 35.744 75.4851 35.6367 75.4219L35.8676 73.2185C35.9692 73.277 36.0823 72.2319 36.2078 72.2668C36.3333 72.3017 36.454 71.2349 36.57 71.2349C36.6658 71.2349 36.7396 70.5879 36.7827 70.569C36.8258 70.5501 36.8459 70.1851 36.8459 70.1474C36.8459 70.1097 36.8181 69.6597 36.7626 69.6381C36.707 69.6164 36.615 68.7533 36.4876 68.7269C36.3237 68.6929 36.1867 67.4064 36.0775 67.3639C35.9682 67.3215 35.8724 66.2245 35.79 66.1378C35.7076 66.051 35.6693 61.7046 35.6693 61.5518C35.676 61.4235 35.7153 57.1517 35.7881 57.0441Z" fill="white"/>
<path opacity="0.1" d="M39.6638 59.339C39.8133 59.124 42.682 58.9542 42.98 58.8306C43.278 58.707 47.0484 58.642 47.4738 58.642C47.7612 58.642 51.2049 58.6731 51.4866 58.7363C51.7683 58.7995 54.9168 58.8891 55.1276 59.0079L54.7827 63.5646L53.7967 63.7618C53.5917 63.6599 50.7095 63.5835 50.516 63.5316C50.3224 63.4798 47.6415 63.4505 47.4498 63.4505C47.3483 63.4505 46.1554 63.4571 46.0816 63.4713C45.8899 63.5062 45.7941 65.3049 45.7941 65.4313C45.7941 65.5152 46.9717 65.5784 47.0809 65.6199C47.1902 65.6614 49.3623 65.6982 49.577 65.7407C49.6 65.7407 49.9238 65.7501 49.9487 65.7548C50.2007 65.802 53.2716 65.8491 53.4623 65.9104C53.5169 65.9274 53.5687 66.616 53.6175 66.6339C53.8408 66.7112 54.0344 69.7258 54.1982 69.9022C54.2557 69.9625 51.1531 70.0304 51.1905 70.1068C51.2279 70.1832 48.1023 70.2559 48.1196 70.3408C48.1301 70.3898 48.1368 72.3677 48.1416 72.4206C48.1464 72.4734 49.7466 72.5036 49.7466 72.547C49.7466 72.5903 51.867 72.6592 51.8545 72.7139C51.8421 72.8129 55.5415 72.9073 55.5061 72.9969C55.4706 73.0865 55.4227 76.9046 55.3643 76.9886C55.2139 77.2018 52.2867 77.3715 51.9887 77.497C51.6907 77.6224 47.8408 77.6856 47.4153 77.6856C47.0627 77.6856 43.3776 77.647 43.0432 77.5687C42.7088 77.4904 39.5843 77.3866 39.3696 77.2546L39.8353 74.7494C40.0384 74.8654 40.2655 74.0033 40.5166 74.0731C40.7676 74.1429 41.009 73.2242 41.24 73.2242C41.4383 73.2242 41.5801 72.6479 41.6654 72.6102C41.7507 72.5724 41.7928 72.2206 41.7928 72.1451C41.7928 72.0697 41.7373 71.632 41.6261 71.5877C41.515 71.5434 41.331 70.7624 41.0761 70.7096C40.7475 70.6426 40.4734 69.472 40.255 69.3947C40.0365 69.3174 39.8458 68.2826 39.6801 68.1044C39.5143 67.9261 39.4367 63.9891 39.4367 63.6863C39.4386 63.4279 39.5134 59.555 39.6638 59.339Z" fill="white"/>
<path opacity="0.1" d="M43.3126 62.528C43.5378 62.2055 46.1411 61.9508 46.5876 61.765C47.0341 61.5792 50.4979 61.4867 51.137 61.4867C51.5739 61.4867 54.7071 61.5339 55.1297 61.6263C55.5522 61.7188 58.4104 61.8555 58.7324 62.0347L58.2102 66.4679L57.3114 66.7641C57.0039 66.6122 54.4053 66.4962 54.114 66.4188C53.8227 66.3415 51.3928 66.2981 51.1083 66.2981C50.955 66.2981 49.8751 66.3075 49.7668 66.3283C49.4794 66.3811 49.3328 67.9742 49.3328 68.1647C49.3328 68.2902 50.3772 68.3845 50.541 68.4477C50.6895 68.5043 52.6614 68.5647 52.9824 68.6288C53.0179 68.6354 53.3101 68.643 53.3475 68.6496C53.7308 68.7203 56.5008 68.7976 56.7873 68.8835C56.8687 68.908 56.9464 69.5098 57.0201 69.5352C57.3545 69.6522 57.6449 72.3178 57.8911 72.5809C57.9764 72.6752 55.3472 72.7696 55.3999 72.8884C55.4526 73.0072 52.7927 73.1129 52.8186 73.2402C52.8339 73.3129 52.8454 75.0408 52.8512 75.121C52.8569 75.1823 54.2309 75.2446 54.2309 75.3097C54.2309 75.3955 56.0457 75.4794 56.0351 75.5606C56.016 75.7086 59.1712 75.8511 59.1185 75.9878C59.0658 76.1246 58.9987 79.4532 58.9029 79.5806C58.6778 79.9003 56.0284 80.155 55.5781 80.3436C55.1278 80.5323 51.5988 80.6266 50.9607 80.6266C50.4318 80.6266 47.0524 80.5691 46.5531 80.4521C46.0539 80.3351 43.1996 80.1786 42.8748 79.9805L43.5723 77.1687C43.876 77.3423 44.2162 76.6632 44.5927 76.7669C44.9693 76.8707 45.3315 76.1114 45.6783 76.1114C45.9763 76.1114 46.189 75.6049 46.3165 75.5455C46.4439 75.486 46.5081 75.1502 46.5081 75.0371C46.5081 74.905 46.4248 74.4985 46.2571 74.4325C46.0894 74.3664 45.8154 73.6656 45.4321 73.5883C44.9396 73.4864 44.5295 72.4366 44.2009 72.3196C43.8722 72.2027 43.5867 71.234 43.3443 70.968C43.1018 70.702 42.9792 67.1725 42.9792 66.7169C42.9754 66.3255 43.0875 62.8516 43.3126 62.528Z" fill="white"/>
<path opacity="0.1" d="M46.8061 66.2538C47.106 65.8227 49.443 65.4841 50.039 65.236C50.6349 64.988 53.7921 64.8663 54.6439 64.8663C55.2274 64.8663 58.0521 64.9285 58.6165 65.0549C59.1808 65.1813 61.7477 65.3596 62.177 65.5992L61.4804 69.9144L60.6688 70.3087C60.2597 70.1059 57.9448 69.9522 57.5558 69.8484C57.1667 69.7446 54.9898 69.6871 54.6104 69.6871C54.4063 69.6871 53.4405 69.7003 53.2929 69.7267C52.9096 69.7975 52.718 71.1859 52.718 71.4396C52.718 71.6075 53.6292 71.733 53.8477 71.8169C54.045 71.8924 55.8062 71.9735 56.2345 72.0584C56.2804 72.0678 56.543 72.0772 56.5919 72.0867C57.0958 72.181 59.5746 72.2838 59.9569 72.3989C60.0662 72.4309 60.1696 72.945 60.2683 72.9799C60.7139 73.1355 61.101 75.4521 61.4296 75.803C61.5427 75.9237 59.3868 76.0605 59.4616 76.2123C59.5363 76.3642 57.3344 76.5113 57.3699 76.6839C57.39 76.7783 57.4044 78.2591 57.413 78.3657C57.4197 78.4468 58.5628 78.5317 58.5628 78.6185C58.5628 78.7317 60.0729 78.843 60.0585 78.9524C60.0336 79.1495 62.6455 79.3391 62.5737 79.5183C62.5018 79.6975 62.4079 82.5366 62.2862 82.7083C61.9863 83.1356 59.6034 83.4742 59.0122 83.726C58.421 83.9779 55.2016 84.1033 54.3507 84.1033C53.6455 84.1033 50.5707 84.025 49.9029 83.8694C49.2351 83.7138 46.6452 83.5044 46.2197 83.2412L47.1434 80.1286C47.5487 80.3606 48.0057 79.8645 48.5049 80.0031C49.0042 80.1418 49.4899 79.5315 49.9518 79.5315C50.3494 79.5315 50.633 79.0957 50.8036 79.0193C50.9741 78.9429 51.0585 78.6194 51.0585 78.4676C51.0585 78.2931 50.9473 77.9016 50.7241 77.8167C50.5008 77.7318 50.1348 77.1084 49.6241 77.0046C48.9668 76.8688 48.4197 75.9397 47.9827 75.7841C47.5458 75.6285 47.1635 74.7258 46.8397 74.3693C46.5158 74.0127 46.3529 70.8925 46.3529 70.2861C46.3558 69.7588 46.5062 66.6848 46.8061 66.2538Z" fill="white"/>
<path opacity="0.1" d="M50.2133 70.1578C50.588 69.6192 52.6595 69.1957 53.404 68.8863C54.1485 68.5769 57.001 68.4222 58.0646 68.4222C58.7937 68.4222 61.3128 68.4996 62.017 68.6543C62.7213 68.809 64.9988 69.0363 65.5354 69.3353L64.6654 73.5298L63.941 74.024C63.4284 73.7694 61.3971 73.577 60.9122 73.4477C60.4082 73.3129 58.5015 73.2459 58.0272 73.2459C57.7714 73.2459 56.9196 73.2629 56.7356 73.2968C56.2565 73.3845 56.0131 74.5683 56.0131 74.8852C56.0131 75.0946 56.7912 75.2521 57.0671 75.3568C57.3143 75.4511 58.8637 75.5521 59.3993 75.6586C59.4568 75.67 59.6867 75.6822 59.749 75.6935C60.3805 75.8114 62.5632 75.9397 63.0403 76.084C63.1764 76.1246 63.3057 76.5509 63.4293 76.5943C63.986 76.7886 64.4699 78.7552 64.881 79.1938C65.0228 79.3457 63.3402 79.5164 63.4332 79.706C63.5261 79.8956 61.7861 80.0833 61.8302 80.2918C61.856 80.4144 61.8733 81.6424 61.8848 81.7754C61.8934 81.8773 62.8113 81.982 62.8113 82.0905C62.8113 82.2329 64.0157 82.3734 63.9985 82.5093C63.9669 82.7555 66.0346 82.9922 65.9455 83.2195C65.8564 83.4468 65.7376 85.7992 65.59 86.0086C65.2154 86.5425 63.1103 86.9669 62.3658 87.281C61.6213 87.5951 58.7247 87.7526 57.6602 87.7526C56.7787 87.7526 54.0106 87.6583 53.1741 87.4612C52.3376 87.2641 50.0236 87.0047 49.4871 86.6755L50.6388 83.2591C51.1456 83.5487 51.7129 83.2346 52.3405 83.4091C52.9681 83.5836 53.5717 83.1261 54.1495 83.1261C54.6458 83.1261 55.0004 82.7602 55.2131 82.6649C55.4258 82.5696 55.5321 82.2603 55.5321 82.0707C55.5321 81.8509 55.3932 81.4812 55.1144 81.3717C54.8355 81.2623 54.3775 80.7228 53.7394 80.5926C52.9183 80.4229 52.2341 79.6145 51.687 79.4202C51.1399 79.2259 50.6627 78.3893 50.2584 77.945C49.854 77.5008 49.6509 74.7871 49.6509 74.0297C49.6509 73.3713 49.8387 70.6964 50.2133 70.1578Z" fill="white"/>
<path opacity="0.1" d="M53.6041 73.8835C54.0544 73.2374 55.8596 72.7281 56.7536 72.3574C57.6476 71.9867 60.1924 71.8009 61.4697 71.8009C62.3445 71.8009 64.5559 71.8952 65.3982 72.0791C66.2404 72.263 68.2315 72.5366 68.8753 72.8959L67.8309 76.9716L67.1938 77.564C66.5796 77.2584 64.8309 77.0282 64.2493 76.8726C63.6447 76.7113 61.9948 76.6302 61.4246 76.6302C61.0019 76.628 60.5794 76.6481 60.1589 76.6905C59.584 76.7962 59.2966 77.7752 59.2966 78.1563C59.2966 78.4072 59.9414 78.5958 60.2701 78.7222C60.5661 78.8364 61.9047 78.9571 62.5476 79.0844C62.6166 79.0986 62.8169 79.1127 62.8906 79.1269C63.6476 79.2684 65.5342 79.4221 66.1072 79.5985C66.2701 79.6475 66.4253 79.9862 66.5738 80.038C67.2445 80.271 67.8194 81.8896 68.3148 82.4159C68.4854 82.5979 67.2762 82.8026 67.3873 83.0299C67.4985 83.2572 66.2212 83.4789 66.2739 83.7336C66.3046 83.8798 66.3266 84.8579 66.3391 85.0173C66.3496 85.1399 67.0405 85.2654 67.0405 85.3946C67.0405 85.5653 67.9402 85.7332 67.9191 85.8964C67.8808 86.1926 69.4042 86.4774 69.2979 86.75C69.1915 87.0226 69.0478 88.8864 68.8715 89.1382C68.4212 89.7787 66.5911 90.2871 65.6971 90.6644C64.8031 91.0417 62.2238 91.2303 60.9475 91.2303C59.8935 91.2303 57.4262 91.1143 56.424 90.8804C55.4217 90.6465 53.3751 90.3333 52.7312 89.9371L54.1119 86.2124C54.7204 86.5595 55.4007 86.4284 56.1547 86.6378C56.9088 86.8472 57.6322 86.5434 58.325 86.5434C58.921 86.5434 59.3464 86.2482 59.6022 86.1341C59.858 86.0199 59.9855 85.7238 59.9855 85.4965C59.9829 85.3379 59.9343 85.1834 59.8455 85.051C59.7568 84.9187 59.6315 84.8141 59.4844 84.7494C59.15 84.6183 58.6 84.1599 57.8334 84.0043C56.8484 83.8005 56.0283 83.112 55.3719 82.879C54.7156 82.646 54.1435 81.8735 53.6577 81.3406C53.172 80.8077 52.9276 78.5025 52.9276 77.5932C52.9295 76.8047 53.1538 74.5296 53.6041 73.8835Z" fill="white"/>
<path opacity="0.1" d="M57.0499 77.0725C57.574 76.318 59.1138 75.7247 60.1563 75.2917C61.1987 74.8588 63.4389 74.6428 64.9289 74.6428C65.9493 74.6428 67.8542 74.7513 68.8401 74.9673C69.8261 75.1833 71.523 75.5011 72.2751 75.9209L71.0563 79.8758L70.5064 80.5672C69.7896 80.2106 68.3246 79.9418 67.6453 79.7607C66.9401 79.5721 65.5469 79.4778 64.8819 79.4778C64.4675 79.4747 64.0533 79.4987 63.6421 79.5494C62.9713 79.6721 62.6302 80.4464 62.6302 80.8907C62.6302 81.184 63.1429 81.4038 63.5261 81.551C63.8711 81.683 64.9979 81.8245 65.7481 81.9735C65.8296 81.9896 65.9982 82.0065 66.0844 82.0226C66.9669 82.1876 68.5574 82.3678 69.2262 82.5687C69.4179 82.6262 69.598 82.8771 69.7705 82.9375C70.5504 83.2091 71.2279 84.4778 71.8028 85.0928C72.0011 85.305 71.2652 85.5436 71.3955 85.8096C71.5172 86.0586 70.7095 86.3322 70.7708 86.6293C70.8063 86.8 70.8321 87.5291 70.8475 87.7149C70.859 87.8573 71.3265 88.0045 71.3265 88.1563C71.3265 88.3554 71.9206 88.5506 71.8967 88.7421C71.8526 89.0873 72.8318 89.4184 72.7073 89.7372C72.5827 90.056 72.4198 91.435 72.21 91.7246C71.6849 92.4716 70.1288 93.0649 69.0864 93.5054C68.0439 93.9458 65.7816 94.1656 64.2955 94.1656C63.0614 94.1656 60.9046 94.0298 59.7347 93.7572C58.5647 93.4846 56.7883 93.1186 56.0371 92.6574L57.6459 88.6355C58.3549 89.0411 59.1492 89.093 60.0288 89.3373C60.9084 89.5816 61.7535 89.4316 62.5603 89.4316C63.0781 89.4247 63.5876 89.3021 64.0502 89.0732C64.1833 89.014 64.2963 88.9182 64.3755 88.7974C64.4547 88.6767 64.4968 88.5359 64.4967 88.3922C64.4914 88.2172 64.4328 88.0479 64.3284 87.9062C64.2239 87.7646 64.0786 87.6572 63.9113 87.598C63.5213 87.4442 62.8794 87.0669 61.9864 86.8858C60.8366 86.6481 59.8784 86.0803 59.1119 85.8077C58.3453 85.5351 57.6746 84.8296 57.1122 84.2042C56.5497 83.5789 56.2604 81.6849 56.2604 80.62C56.2623 79.7022 56.5248 77.8262 57.0499 77.0725Z" fill="white"/>
<path opacity="0.1" d="M60.6141 79.3674C61.2139 78.5062 62.4873 77.8281 63.6802 77.3329C64.8732 76.8377 66.8048 76.5905 68.5075 76.5905C69.6745 76.5905 71.2718 76.7151 72.3986 76.9622C73.5254 77.2093 74.932 77.5724 75.7915 78.0516L74.3983 81.8867L73.9365 82.6772C73.1172 82.2697 71.9358 81.9631 71.1578 81.7556C70.352 81.5396 69.2146 81.4321 68.4548 81.4321C68.0483 81.4285 67.6421 81.4556 67.2398 81.5132C66.4723 81.6557 66.0891 82.2216 66.0891 82.7309C66.0891 83.0658 66.4723 83.3176 66.9064 83.4855C67.3011 83.6374 68.2162 83.7977 69.0738 83.9684C69.1696 83.9873 69.3047 84.0062 69.4024 84.0241C70.4114 84.2127 71.702 84.4193 72.4685 84.6485C72.686 84.7145 72.893 84.8777 73.0904 84.9466C73.9815 85.2578 74.7557 86.1775 75.413 86.8792C75.6391 87.1216 75.3775 87.3952 75.526 87.6979C75.665 87.9809 75.32 88.2959 75.3909 88.6355C75.4312 88.8307 75.4599 89.3099 75.4772 89.5221C75.4906 89.6853 75.7263 89.8532 75.7263 90.0268C75.7263 90.2541 76.0138 90.4776 75.9879 90.6955C75.9371 91.0907 76.3712 91.4699 76.2303 91.834C76.0895 92.1981 75.8978 93.0837 75.6621 93.4195C75.0623 94.2741 73.7803 94.9523 72.5883 95.455C71.3964 95.9577 69.4522 96.2096 67.7496 96.2096C66.3391 96.2096 64.4918 96.0539 63.1504 95.7427C61.8089 95.4314 60.3075 95.0126 59.449 94.4863L61.2982 90.156C62.1088 90.6191 63.0172 90.854 64.0223 91.1322C65.0274 91.4105 65.9913 91.4152 66.916 91.4152C67.7103 91.4152 68.2775 91.2595 68.6177 91.1077C68.9578 90.9558 69.1284 90.687 69.1284 90.3833C69.1284 90.0324 68.9061 89.7183 68.4577 89.5419C67.7466 89.2473 67.0087 89.0199 66.2539 88.8628C64.9402 88.5921 63.846 88.1441 62.9712 87.8328C62.0964 87.5216 61.3327 86.8811 60.685 86.1709C60.0373 85.4606 59.7125 83.9713 59.7125 82.7583C59.7144 81.7056 60.0143 80.2295 60.6141 79.3674Z" fill="white"/>
<path opacity="0.5" d="M66.6046 96.4756C65.1003 96.1259 63.8646 95.6543 62.8975 95.0607L64.9767 90.4276C65.9413 90.9701 66.9714 91.3909 68.0428 91.6802C69.1015 91.9843 70.1978 92.143 71.3006 92.1518C72.1948 92.1518 72.8336 92.0666 73.2169 91.8962C73.6002 91.7258 73.7918 91.4699 73.7918 91.1284C73.7918 90.7342 73.5408 90.438 73.0387 90.2399C72.5366 90.0419 71.7116 89.8265 70.5637 89.5938C69.3112 89.3494 68.0771 89.021 66.87 88.611C65.8797 88.2576 64.9954 87.6651 64.2983 86.8877C63.5695 86.0885 63.2047 85.0066 63.2041 83.6421C63.1944 82.4878 63.5482 81.3589 64.2169 80.4106C64.8901 79.4416 65.8975 78.6789 67.2389 78.1224C68.5803 77.5658 70.2092 77.2876 72.1255 77.2876C73.4275 77.2866 74.7257 77.4267 75.9965 77.7054C77.1698 77.9487 78.3 78.3619 79.3501 78.9316L77.3954 83.5355C75.5174 82.603 73.7394 82.1361 72.0613 82.1348C70.4005 82.1348 69.5701 82.53 69.5701 83.3204C69.5701 83.6977 69.8164 83.9807 70.3089 84.1693C70.8014 84.358 71.6129 84.5598 72.7436 84.7749C73.9969 84.9918 75.2317 85.3021 76.4373 85.703C77.4383 86.0511 78.3365 86.6372 79.0521 87.4093C79.7899 88.1997 80.1591 89.2769 80.1597 90.6408C80.1705 91.7912 79.8164 92.9162 79.147 93.8591C78.4724 94.8205 77.4651 95.5836 76.1249 96.1483C74.7848 96.7129 73.1559 96.9959 71.2383 96.9972C69.6784 97.001 68.1234 96.8259 66.6046 96.4756Z" fill="white"/>
<path opacity="0.1" d="M67.9277 79.4362C68.5266 78.5751 69.8872 77.8969 71.0791 77.4017C72.2711 76.9065 74.3168 76.6566 76.0185 76.6566C77.1855 76.6566 78.7971 76.7811 79.9278 77.0282C81.0584 77.2753 82.4784 77.6385 83.3379 78.1167L81.6132 82.6441C81.2615 82.4696 80.9137 82.4234 80.5698 82.2857C79.2702 81.7902 77.8911 81.5276 76.4976 81.5104C75.1619 81.5104 74.1817 81.7981 74.0552 82.3734C74.0424 82.4422 74.036 82.512 74.036 82.5819C74.036 82.9167 74.2545 83.2733 74.6924 83.4402C75.1302 83.6072 75.8508 84.0062 76.8569 84.1948C78.1523 84.4382 79.2475 85.038 80.1395 85.3493C81.0316 85.6606 81.8048 86.4406 82.4612 87.1414C83.1175 87.8422 83.4462 89.1071 83.4462 90.3201C83.4462 91.3727 83.1463 92.6263 82.5464 93.4789C81.9466 94.3316 80.8917 95.0202 79.6997 95.521C78.5078 96.0219 76.8569 96.2756 75.1552 96.2756C73.7048 96.278 72.2586 96.1214 70.8434 95.8087C69.502 95.4974 68.2439 95.0787 67.3854 94.5523L69.2337 90.0069C70.0433 90.4701 70.9517 90.5644 71.9568 90.8436C72.9619 91.1228 73.9268 90.9888 74.8505 90.9888C75.4401 90.986 76.0215 90.8532 76.5522 90.6002C76.704 90.5351 76.8331 90.4277 76.9238 90.2913C77.0146 90.1549 77.0629 89.9955 77.0629 89.8324C77.0629 89.4816 76.8406 89.1137 76.3922 88.9383C75.9437 88.7628 75.2136 88.3535 74.1884 88.146C72.8747 87.8743 71.4586 87.58 70.5828 87.2725C69.707 86.965 68.6808 86.45 68.0322 85.7398C67.9362 85.6476 67.8451 85.5506 67.7591 85.4493C67.2685 84.7749 67.0242 83.6515 67.0242 82.597C67.0242 81.5425 67.3269 80.2983 67.9277 79.4362Z" fill="white"/>
<path opacity="0.1" d="M71.3465 77.3253C71.8715 76.5707 73.5838 75.9784 74.6263 75.5455C75.6688 75.1125 78.1341 74.8956 79.6231 74.8956C80.6445 74.8956 82.5858 75.004 83.5717 75.221C84.5577 75.4379 86.2881 75.7549 87.0403 76.1736L85.5292 80.6285C85.2217 80.4757 84.917 80.5606 84.6161 80.4398C83.4883 79.9871 81.6621 79.7617 80.6321 79.7617C79.4631 79.7617 78.3257 80.0135 78.2156 80.5162C78.2039 80.5835 78.1981 80.6517 78.1983 80.72C78.1983 81.0133 78.3899 81.4415 78.7732 81.5877C79.1565 81.7339 79.787 82.3272 80.6675 82.4923C81.801 82.7055 82.7592 83.6006 83.542 83.8732C84.3248 84.1458 84.9994 85.1361 85.5743 85.7502C86.1492 86.3642 86.4366 87.8149 86.4366 88.876C86.4366 89.7976 86.1741 91.2341 85.65 91.9764C85.1259 92.7187 84.0211 93.3177 82.9824 93.7572C81.9438 94.1967 80.266 94.4175 78.7761 94.4175C77.542 94.4175 75.9572 94.2816 74.7863 94.009C73.6154 93.7365 72.3276 93.3705 71.5764 92.9102L73.189 88.4469C73.8981 88.8524 74.6924 88.6242 75.572 88.8685C76.4516 89.1128 77.2967 88.6874 78.1035 88.6874C78.7981 88.6874 79.2954 88.2988 79.5934 88.1658C79.8914 88.0328 80.0399 87.6621 80.0399 87.3971C80.0399 87.0896 79.8483 86.651 79.4545 86.4972C79.0607 86.3435 78.4225 85.7426 77.5295 85.5597C76.3797 85.322 74.7777 85.0673 74.0121 84.7947C73.2465 84.5221 72.0498 84.076 71.4825 83.4544C71.4087 83.3733 71.2669 83.2884 71.2027 83.1997C70.7735 82.6102 70.5598 81.3359 70.5598 80.4125C70.5598 79.4891 70.8214 78.0799 71.3465 77.3253Z" fill="white"/>
<path opacity="0.1" d="M74.6254 74.4032C75.0758 73.7571 77.1406 73.2487 78.0336 72.8771C78.9266 72.5055 81.8117 72.3206 83.0879 72.3206C83.9637 72.3206 86.2288 72.4149 87.0749 72.5988C87.9209 72.7828 89.957 73.0572 90.6019 73.4157L89.3074 77.796C89.0429 77.6649 88.7823 77.8799 88.5236 77.7771C87.5578 77.3895 85.5111 77.1952 84.6287 77.1952C83.6264 77.1952 82.3291 77.4112 82.2332 77.8422C82.2235 77.9078 82.2187 77.974 82.2189 78.0403C82.2189 78.2921 82.3827 78.7949 82.7114 78.9184C83.04 79.042 83.5795 79.8315 84.3345 79.9729C85.3061 80.155 86.1272 81.3453 86.796 81.5764C87.4648 81.8075 88.0416 83.0101 88.538 83.5364C89.0343 84.0628 89.2767 85.703 89.2767 86.6123C89.2767 87.4018 89.0516 89.0147 88.606 89.6542C88.1605 90.2937 87.0097 90.8049 86.1148 91.1822C85.2199 91.5595 83.5277 91.7481 82.2467 91.7481C81.1927 91.7481 79.583 91.6312 78.5807 91.3982C77.5785 91.1652 76.2629 90.8502 75.619 90.455L77.0045 86.0841C77.613 86.4312 78.2933 85.8804 79.0474 86.0897C79.8014 86.2991 80.5248 85.5832 81.2176 85.5832C81.8136 85.5832 82.239 85.0428 82.4939 84.9286C82.7487 84.8145 82.8771 84.3863 82.8771 84.159C82.8771 83.8958 82.7095 83.3855 82.376 83.2535C82.0426 83.1214 81.4907 82.3253 80.7251 82.1697C79.7401 81.9669 77.9522 81.7481 77.2958 81.5151C76.6395 81.2821 75.2741 80.8982 74.7874 80.3653C74.7241 80.2965 74.5564 80.2238 74.4999 80.1474C74.132 79.6419 73.948 78.2167 73.948 77.4253C73.948 76.6339 74.176 75.0531 74.6254 74.4032Z" fill="white"/>
<path opacity="0.1" d="M77.8745 70.9972C78.2491 70.4587 80.6666 70.0352 81.4111 69.7258C82.1556 69.4164 85.4584 69.2617 86.5219 69.2617C87.2511 69.2617 89.843 69.3391 90.5462 69.4937C91.2495 69.6484 93.5951 69.8757 94.1327 70.1747L93.0528 74.4796C92.8334 74.3702 92.6159 74.7164 92.4003 74.6296C91.5954 74.307 89.3294 74.1448 88.5935 74.1448C87.7589 74.1448 86.3054 74.3249 86.2268 74.6843C86.2183 74.7484 86.2141 74.813 86.2144 74.8777C86.2144 75.0871 86.3504 75.6605 86.6245 75.7652C86.8985 75.8699 87.3488 76.8509 87.9774 76.9688C88.7871 77.1206 89.4712 78.6062 90.0288 78.8015C90.5865 78.9967 91.0694 80.4049 91.4805 80.8454C91.8915 81.2859 92.0956 83.1092 92.0956 83.8637C92.0956 84.524 91.904 86.3161 91.5332 86.8472C91.1623 87.3782 89.9666 87.8055 89.2221 88.1196C88.4776 88.4337 86.7567 88.5912 85.6922 88.5912C84.8107 88.5912 83.1856 88.4968 82.3501 88.2997C81.5146 88.1026 80.1731 87.8432 79.6366 87.514L80.7912 83.2299C81.298 83.5195 81.8653 82.646 82.4938 82.8205C83.1224 82.995 83.7251 81.9867 84.3019 81.9867C84.7982 81.9867 85.1537 81.2944 85.3664 81.2001C85.5791 81.1058 85.6855 80.6191 85.6855 80.4295C85.6855 80.2097 85.5456 79.6287 85.2677 79.5193C84.9898 79.4098 84.5299 78.4195 83.8918 78.2931C83.0716 78.1233 81.0968 77.9412 80.5497 77.7469C80.0026 77.5526 78.4686 77.2272 78.0661 76.783C78.0134 76.7254 77.8199 76.6641 77.7739 76.6009C77.4673 76.1793 77.314 74.6041 77.314 73.9448C77.314 73.2855 77.4989 71.533 77.8745 70.9972Z" fill="white"/>
<path opacity="0.1" d="M81.1467 67.4234C81.4466 66.9923 84.2129 66.6537 84.8117 66.4056C85.4106 66.1576 89.1282 66.0349 89.9791 66.0349C90.5626 66.0349 93.4793 66.0972 94.0427 66.2236C94.6061 66.35 97.2583 66.5283 97.6837 66.7678L96.8214 70.9982C96.645 70.9105 96.4707 71.3868 96.2992 71.3179C95.6553 71.0595 93.1679 70.9303 92.5796 70.9303C91.9088 70.9303 90.301 71.0736 90.2378 71.3613C90.2312 71.424 90.228 71.487 90.2282 71.55C90.2282 71.7179 90.3374 72.3649 90.5559 72.4479C90.7744 72.5309 91.1356 73.7071 91.6386 73.8014C92.2864 73.9222 92.8335 75.703 93.28 75.8586C93.7265 76.0142 94.1126 77.6356 94.4413 77.9865C94.7699 78.3374 94.9338 80.3446 94.9338 80.953C94.9338 81.4793 94.7833 83.4516 94.4834 83.8769C94.1835 84.3023 92.9504 84.6428 92.3506 84.8947C91.7507 85.1465 90.0098 85.272 89.1589 85.272C88.4537 85.272 86.8085 85.1937 86.1397 85.0381C85.4709 84.8824 84.1046 84.673 83.6744 84.4099L84.599 80.2125C85.0043 80.4446 85.4613 79.2476 85.9605 79.3872C86.4598 79.5268 86.9455 78.228 87.4074 78.228C87.8041 78.228 88.0877 77.3838 88.2582 77.3083C88.4288 77.2329 88.5141 76.6886 88.5141 76.5368C88.5141 76.3613 88.402 75.7086 88.1797 75.6209C87.9574 75.5332 87.5894 74.3495 87.0787 74.2457C86.4224 74.1099 84.2627 73.9627 83.821 73.809C83.3792 73.6552 81.6804 73.3977 81.3556 73.0421C81.3134 72.9959 81.0931 72.9478 81.0567 72.8969C80.8114 72.5602 80.6887 70.8331 80.6887 70.3059C80.6887 69.7786 80.8449 67.8544 81.1467 67.4234Z" fill="white"/>
<path opacity="0.1" d="M84.5012 64.0174C84.7254 63.6939 87.8481 63.4401 88.2946 63.2543C88.7411 63.0685 92.8813 62.9761 93.5195 62.9761C93.9573 62.9761 97.1988 63.0223 97.6214 63.1157C98.0439 63.2091 101.003 63.3439 101.325 63.5241L100.679 67.6762C100.547 67.6101 100.416 68.2166 100.287 68.1657C99.8079 67.9714 97.0972 67.8742 96.6565 67.8742C96.1554 67.8742 94.3866 67.9827 94.3396 68.1978C94.3349 68.2204 94.332 68.3553 94.332 68.3798C94.332 68.5062 94.4144 69.2287 94.5782 69.2881C94.7421 69.3475 95.0123 70.7199 95.3898 70.7907C95.8756 70.885 96.2866 72.9601 96.621 73.0742C96.9554 73.1883 97.2458 75.022 97.492 75.2851C97.7383 75.5483 97.8609 77.7441 97.8609 78.1987C97.8609 78.594 97.7488 80.7454 97.5236 81.0652C97.2985 81.385 96.0145 81.6396 95.568 81.8283C95.1215 82.0169 93.3537 82.1112 92.7156 82.1112C92.1866 82.1112 90.5214 82.0528 90.0193 81.9358C89.5172 81.8188 88.125 81.6623 87.803 81.4642L88.4958 77.3536C88.7995 77.5272 89.1406 76.0086 89.5172 76.1133C89.8938 76.218 90.2559 74.6277 90.6028 74.6277C90.8998 74.6277 91.1125 73.6317 91.2409 73.5751C91.3693 73.5185 91.4326 72.9148 91.4326 72.8026C91.4326 72.6715 91.3483 71.9471 91.1815 71.881C91.0148 71.815 90.7389 70.4379 90.3566 70.3596C89.8641 70.2587 87.5185 70.1493 87.1946 70.0323C86.8707 69.9154 84.9908 69.7239 84.7503 69.4579C84.7187 69.423 84.4725 69.3872 84.4447 69.3485C84.2607 69.0957 84.1697 67.2187 84.1697 66.8225C84.1697 66.4264 84.276 64.3381 84.5012 64.0174Z" fill="white"/>
<path opacity="0.1" d="M87.9928 61.0934C88.1432 60.8783 91.6175 60.7086 91.9155 60.585C92.2135 60.4614 96.7715 60.3964 97.1969 60.3964C97.4892 60.3964 101.055 60.4275 101.338 60.4907C101.621 60.5539 104.883 60.6435 105.1 60.7633L104.669 64.8437C104.581 64.7993 104.493 65.5369 104.407 65.5039C104.085 65.3747 101.159 65.3153 100.862 65.3153C100.528 65.3153 98.6016 65.387 98.57 65.5303C98.57 65.5454 98.57 65.6907 98.57 65.7076C98.57 65.7916 98.6246 66.5839 98.7338 66.6263C98.8431 66.6688 99.0213 68.2298 99.2752 68.277C99.5991 68.3383 99.8731 70.7086 100.095 70.7869C100.318 70.8652 100.512 72.9054 100.676 73.0808C100.84 73.2563 100.922 75.6379 100.922 75.9416C100.922 76.2048 100.848 78.5364 100.697 78.7496C100.547 78.9628 99.2177 79.1325 98.9197 79.2589C98.6217 79.3853 96.8309 79.4476 96.4055 79.4476C96.0529 79.4476 94.3675 79.4089 94.0331 79.3316C93.6987 79.2542 92.2796 79.1486 92.065 79.0175L92.5268 74.9937C92.73 75.1097 92.9571 73.2676 93.2081 73.3374C93.4591 73.4072 93.7006 71.5254 93.9315 71.5254C94.1298 71.5254 94.2717 70.3785 94.3569 70.3398C94.4422 70.3011 94.4844 69.6437 94.4844 69.5673C94.4844 69.4909 94.4288 68.6845 94.3176 68.6401C94.2065 68.5958 94.0225 67.0253 93.7677 66.9735C93.439 66.9055 90.9075 66.8329 90.6891 66.7556C90.4706 66.6782 88.4278 66.5499 88.2659 66.3717C88.2448 66.349 87.9727 66.3245 87.9545 66.299C87.8318 66.1312 87.7705 64.1023 87.7705 63.8391C87.7705 63.576 87.8395 61.3075 87.9928 61.0934Z" fill="white"/>
<path opacity="0.1" d="M91.6799 58.9815C91.7546 58.874 95.5815 58.7929 95.7301 58.7269C95.8786 58.6608 100.856 58.6325 101.069 58.6325C101.215 58.6325 105.107 58.6476 105.248 58.6788C105.388 58.7099 108.961 58.7552 109.069 58.8146L108.853 62.8204C108.809 62.7987 108.766 63.6693 108.723 63.6486C108.562 63.5835 105.415 63.5543 105.268 63.5543C105.101 63.5543 103.017 63.5901 103.002 63.6627C103.002 63.6703 103.002 63.8259 103.002 63.8335C103.002 63.8759 103.029 64.7408 103.084 64.7625C103.139 64.7842 103.229 66.5396 103.354 66.5631C103.516 66.5933 103.653 69.2589 103.765 69.2985C103.877 69.3381 103.973 71.5886 104.053 71.6764C104.132 71.7641 104.176 74.3315 104.176 74.4834C104.176 74.6145 104.139 77.1244 104.064 77.2329C103.989 77.3414 102.614 77.4215 102.464 77.4876C102.315 77.5536 100.501 77.5819 100.288 77.5819C100.112 77.5819 98.4062 77.5621 98.2395 77.5234C98.0728 77.4847 96.6269 77.4291 96.5196 77.3668L96.7505 73.4289C96.8521 73.4864 96.9651 71.3226 97.0907 71.3538C97.2162 71.3849 97.3369 69.2155 97.4528 69.2155C97.5487 69.2155 97.6224 67.9167 97.6656 67.895C97.7087 67.8733 97.7298 67.1602 97.7298 67.1215C97.7298 67.0829 97.701 66.2113 97.6454 66.1896C97.5899 66.1679 97.4979 64.3975 97.3704 64.3768C97.2066 64.3428 94.4892 64.306 94.38 64.2673C94.2708 64.2287 92.0593 64.1645 91.9789 64.0787C91.9683 64.0674 91.6694 64.0551 91.6598 64.0429C91.5985 63.958 91.564 61.7791 91.564 61.6471C91.564 61.515 91.6042 59.0891 91.6799 58.9815Z" fill="white"/>
<path opacity="0.5" d="M101.224 62.9346H95.616V58.0062H113.288V62.9346H107.68V76.8565H101.224V62.9346Z" fill="white"/>
<path opacity="0.1" d="M100 62.8742L100.359 58.4939H116.426V63.9231L111.444 64.97L111.085 77.3461H104.991V63.9231L100 62.8742Z" fill="white"/>
<path opacity="0.1" d="M103.542 63.6326L104.26 59.7993H118.721V65.7265L114.36 67.8214L113.642 78.6496H107.904V65.7275L103.542 63.6326Z" fill="white"/>
<path opacity="0.1" d="M106.524 64.9757L107.6 61.6895H120.457V68.1166L116.72 71.2585L115.644 80.5408H110.261V68.1166L106.524 64.9757Z" fill="white"/>
<path opacity="0.1" d="M109.231 66.6688L110.669 63.9334H121.921V70.8595L118.805 75.0493L117.368 82.7837H112.346V70.8576L109.231 66.6688Z" fill="white"/>
<path opacity="0.1" d="M111.948 68.4798L113.741 66.2896H123.387V73.7166L120.896 78.9524L119.102 85.1399H114.44V73.7166L111.948 68.4798Z" fill="white"/>
<path opacity="0.1" d="M114.956 70.1738L117.108 68.5307H125.15V76.4538L123.281 82.7366L121.129 87.3782H116.825V76.4576L114.956 70.1738Z" fill="white"/>
<path opacity="0.1" d="M118.549 71.517L121.059 70.4219H127.497V78.8477L126.251 86.1784L123.741 89.2722H119.794V78.8477L118.549 71.517Z" fill="white"/>
<path opacity="0.1" d="M123.004 72.2753L125.879 71.7273H130.712V80.653L130.089 89.0307L127.219 90.5776H123.632V80.653L123.004 72.2753Z" fill="white"/>
<path opacity="0.5" d="M128.6 72.2149H135.056V91.0652H128.6V72.2149Z" fill="white"/>
<path opacity="0.1" d="M132.945 71.7273H135.252L136.841 72.3394L137.799 72.9507L138.768 72.3394L139.742 71.7273H141.188L140.738 81.1529L140.288 90.5776H136.714L133.736 90.3144L133.399 81.1529L132.945 71.7273Z" fill="white"/>
<path opacity="0.1" d="M136.621 70.4219H139.508L141.183 71.6481L142.308 72.8743L143.448 71.6481L144.597 70.4219H146.655L145.756 79.8466L144.85 89.2722H140.929L138.191 88.744L137.52 79.8466L136.621 70.4219Z" fill="white"/>
<path opacity="0.1" d="M139.835 68.5307H143.302L145.065 70.3662L146.355 72.2027L147.666 70.3662L148.982 68.5307H151.653L150.303 77.9563L148.954 87.382H144.686L142.195 86.5897L141.185 77.9563L139.835 68.5307Z" fill="white"/>
<path opacity="0.1" d="M142.798 66.2896H146.846L148.695 68.7373L150.151 71.1897L151.634 68.7373L153.12 66.2896H156.404L154.604 75.7134L152.803 85.1399H148.188L145.942 84.0845L144.6 75.7152L142.798 66.2896Z" fill="white"/>
<path opacity="0.1" d="M145.72 63.9316H150.348L152.285 66.9904L153.906 70.054L155.56 66.9942L157.217 63.9353H161.113L158.863 73.3553L156.615 82.7809H151.653L149.652 81.4604L147.97 73.3553L145.72 63.9316Z" fill="white"/>
<path opacity="0.1" d="M148.81 61.6895H154.019L156.042 65.3615L157.83 69.0325L159.65 65.3615L161.477 61.6895H165.985L163.286 71.1152L160.587 80.5408H155.285L153.528 78.9562L151.509 71.1152L148.81 61.6895Z" fill="white"/>
<path opacity="0.1" d="M152.279 59.7993H158.067L160.175 64.0825L162.129 68.3656L164.125 64.0825L166.121 59.7993H171.243L168.094 69.2249L164.945 78.6496H159.292L157.785 76.8018L155.43 69.2249L152.279 59.7993Z" fill="white"/>
<path opacity="0.1" d="M156.335 58.4939H162.704L164.901 63.3883L167.019 68.2836L169.188 63.3883L171.357 58.4939H177.091L173.492 67.9186L169.893 77.3442H163.893L162.627 75.2323L159.935 67.9186L156.335 58.4939Z" fill="white"/>
<path opacity="0.5" d="M183.731 58.0062L179.682 67.4319L175.633 76.8565H169.284L165.234 67.4319L161.186 58.0062H168.134L170.418 63.5137L172.706 69.0165L175.045 63.5099L177.384 58.0025L183.731 58.0062Z" fill="white"/>
<path opacity="0.1" d="M175.111 64.1645L177.159 69.1051L179.256 64.256L181.356 59.406L187.016 59.4541L183.448 67.911L179.953 76.5519H174.108L172.395 73.0459L170.405 67.911L166.853 59.4154L173.06 59.3371L175.111 64.1645ZM177.326 68.6826H176.518L176.375 69.0476H175.646L176.576 66.9527H177.281L178.211 69.0476H177.469L177.326 68.6826Z" fill="white"/>
<path opacity="0.1" d="M179.736 65.6775L181.548 70.054L183.403 65.8623L185.258 61.6707L190.232 61.765L187.145 69.2523L184.202 77.1103H178.853L177.121 74.042L175.492 69.2523L172.445 61.6857L177.907 61.5301L179.736 65.6775ZM182.131 70.7954H180.513L180.226 71.5254H178.769L180.63 67.3366H182.039L183.9 71.5254H182.417L182.131 70.7954Z" fill="white"/>
<path opacity="0.1" d="M184.296 67.8063L185.873 71.6141L187.489 68.0808L189.102 64.5456L193.389 64.6899L190.783 71.2085L188.393 78.2827H183.542L181.792 75.653L180.533 71.2095L177.972 64.5729L182.696 64.34L184.296 67.8063ZM186.868 73.5241H184.443L184.013 74.6192H181.825L184.614 68.3355H186.73L189.52 74.6192H187.297L186.868 73.5241Z" fill="white"/>
<path opacity="0.1" d="M188.787 70.304L190.129 73.5468L191.5 70.6699L192.871 67.7931L196.472 67.9818L194.345 73.5317L192.51 79.8211H188.159L186.392 77.63L185.497 73.5317L183.432 67.8252L187.414 67.5139L188.787 70.304ZM191.537 76.6236H188.302L187.727 78.0837H184.81L188.529 69.705H191.35L195.071 78.0837H192.1L191.537 76.6236Z" fill="white"/>
<path opacity="0.1" d="M193.215 72.8356L194.319 75.5115L195.449 73.293L196.578 71.0736L199.493 71.3123L197.847 75.8935L196.564 81.3991H192.711L190.924 79.6466L190.394 75.8935L188.83 71.117L192.071 70.7284L193.215 72.8356ZM196.142 79.7541H192.099L191.386 81.5793H187.738L192.388 71.1095H195.914L200.565 81.5793H196.857L196.142 79.7541Z" fill="white"/>
<path opacity="0.1" d="M197.563 75.0889L198.431 77.1989L199.319 75.6379L200.206 74.0759L202.434 74.3589L201.269 77.9771L200.54 82.6932H197.186L195.381 81.3783L195.214 77.9771L194.141 74.1306L196.641 73.6637L197.563 75.0889ZM200.667 82.6074H195.816L194.954 84.7975H190.577L196.158 72.23H200.389L205.97 84.7975H201.52L200.667 82.6074Z" fill="white"/>
<path opacity="0.1" d="M201.833 77.1621L202.467 78.7053L203.113 77.8026L203.757 76.898L205.299 77.2329L204.615 79.8739L204.439 83.8119H201.581L199.761 82.9356L199.961 79.8739L199.386 76.9575L201.144 76.4123L201.833 77.1621ZM205.119 85.2795H199.456L198.456 87.8356H193.35L199.861 73.1733H204.797L211.313 87.8356H206.121L205.119 85.2795Z" fill="white"/>
<path opacity="0.1" d="M206.025 78.6194L206.422 79.5966L206.826 79.3514L207.227 79.109L208.089 79.4862L207.886 81.1614L208.263 84.3146H205.904L204.062 83.8769L204.627 81.1614L204.546 79.174L205.562 78.5515L206.025 78.6194ZM209.486 87.3367H203.018L201.875 90.2607H196.038L203.479 73.5043H209.121L216.562 90.2607H210.628L209.486 87.3367Z" fill="white"/>
<path opacity="0.5" d="M211.996 83.9543L211.065 81.5849L210.135 79.2146L209.206 81.5849L208.275 83.9543H211.996ZM213.774 88.5327H206.497L205.215 91.8179H198.649L207.021 72.9667H213.368L221.738 91.8179H215.064L213.774 88.5327Z" fill="white"/>
<path opacity="0.1" d="M214.235 78.0073L214.656 79.855L215.062 81.633L215.076 81.6972L215.813 82.3508L216.552 83.0111L216.85 84.3165H211.867L212.694 81.1633L213.188 78.859L214.235 78.0073ZM217.588 87.3367H211.12L209.977 90.2607H204.141L211.582 73.5043H217.223L224.665 90.2578H218.732L217.588 87.3367Z" fill="white"/>
<path opacity="0.1" d="M218.884 75.9388L219.253 78.4251L219.607 80.82L219.62 80.9067L220.805 81.4793L221.991 82.0556L222.252 83.8137H216.002L216.725 79.8758L217.157 76.682L218.884 75.9388ZM221.957 85.2767H216.297L215.296 87.8328H210.19L216.706 73.1704H221.642L228.153 87.8328H222.962L221.957 85.2767Z" fill="white"/>
<path opacity="0.1" d="M223.803 73.2534L224.119 76.3793L224.423 79.391L224.434 79.5013L226.062 79.9918L227.697 80.4861L227.923 82.6932H220.409L221.03 77.9714L221.4 73.8873L223.803 73.2534ZM226.593 82.6074H221.742L220.884 84.7975H216.508L222.089 72.23H226.319L231.9 84.7975H227.45L226.593 82.6074Z" fill="white"/>
<path opacity="0.1" d="M228.711 70.5586L228.974 74.324L229.227 77.9516L229.236 78.0856L231.318 78.494L233.4 78.9052L233.586 81.5698H224.808L225.325 76.0642L225.633 71.0916L228.711 70.5586ZM231.218 79.9239H227.176L226.461 81.75H222.814L227.464 71.2802H230.989L235.64 81.75H231.932L231.218 79.9239Z" fill="white"/>
<path opacity="0.1" d="M233.332 67.3809L233.543 71.7858L233.745 76.0303L233.752 76.1878L236.281 76.5151L238.812 76.8443L238.961 79.9569H228.918L229.332 73.6675L229.578 67.8025L233.332 67.3809ZM235.557 76.7584H232.322L231.747 78.2185H228.833L232.553 69.8409H235.374L239.094 78.2185H236.124L235.557 76.7584Z" fill="white"/>
<path opacity="0.1" d="M237.403 64.2372L237.561 69.2806L237.714 74.141L237.719 74.3221L240.697 74.5673L243.675 74.8145L243.787 78.3836H232.48L232.791 71.3094L232.976 64.555L237.403 64.2372ZM239.345 73.626H236.92L236.492 74.7211H234.304L237.094 68.4383H239.209L242 74.7211H239.775L239.345 73.626Z" fill="white"/>
<path opacity="0.1" d="M240.606 61.4622L240.711 67.1451L240.813 72.6224V72.8261L244.239 72.9903L247.665 73.1544L247.74 77.1772H235.171L235.378 69.3192L235.501 61.6744L240.606 61.4622ZM242.265 70.8633H240.648L240.36 71.5933H238.901L240.763 67.4045H242.173L244.033 71.5933H242.55L242.265 70.8633Z" fill="white"/>
<path opacity="0.1" d="M242.679 59.3013L242.732 65.6209L242.781 71.715V71.9423L246.656 72.0235L250.53 72.1065L250.567 76.5811H236.738L236.841 67.9403L236.903 59.405L242.679 59.3013ZM244.056 68.7146H243.254L243.111 69.0797H242.381L243.311 66.9857H244.016L244.947 69.0797H244.205L244.056 68.7146Z" fill="white"/>
<path opacity="0.5" d="M236.899 58.0062H243.356V71.9291H252V76.8565H236.899V58.0062Z" fill="white"/>
</g>
<defs>
<filter id="filter0_f_0_1" x="163" y="0" width="184" height="43" filterUnits="userSpaceOnUse" color-interpolation-filters="sRGB">
<feFlood flood-opacity="0" result="BackgroundImageFix"/>
<feBlend mode="normal" in="SourceGraphic" in2="BackgroundImageFix" result="shape"/>
<feGaussianBlur stdDeviation="2" result="effect1_foregroundBlur_0_1"/>
</filter>
<filter id="filter1_f_0_1" x="0" y="52" width="256" height="49" filterUnits="userSpaceOnUse" color-interpolation-filters="sRGB">
<feFlood flood-opacity="0" result="BackgroundImageFix"/>
<feBlend mode="normal" in="SourceGraphic" in2="BackgroundImageFix" result="shape"/>
<feGaussianBlur stdDeviation="2" result="effect1_foregroundBlur_0_1"/>
</filter>
<clipPath id="clip0_0_1">
<rect width="176" height="35" fill="white" transform="translate(167 4)"/>
</clipPath>
</defs>
</svg>
