<svg width="96" height="42" viewBox="0 0 96 42" fill="none" xmlns="http://www.w3.org/2000/svg">
<path d="M0 0L10.1405 7.50465L20.281 0L20.339 20.5882H0.0579458L0 0Z" fill="#F5C57B"/>
<path d="M33.7627 0V20.5882H23.1864V0H33.7627Z" fill="#F5C57B"/>
<path d="M47.2881 0C48.5789 0 49.7425 0.289216 50.779 0.867647C51.8155 1.44608 52.6271 2.20098 53.2138 3.13235C53.8005 4.06373 54.0939 5.03922 54.0939 6.05882C54.0939 7.39216 53.6343 8.55882 52.7151 9.55882C53.4583 10.1078 54.0108 10.75 54.3726 11.4853C54.7344 12.2206 54.9153 13 54.9153 13.8235C54.9153 14.9412 54.5877 16.0196 53.9325 17.0588C53.2774 18.098 52.3435 18.9461 51.131 19.6029C49.9185 20.2598 48.53 20.5882 46.9654 20.5882H36.6102V0H47.2881Z" fill="#F5C57B"/>
<path d="M65.6949 0.411743L77.2881 20.5882H54.1017L65.6949 0.411743Z" fill="#F5C57B"/>
<path d="M85.8305 0.411743C87.6663 0.411743 89.3657 0.871713 90.9289 1.79165C92.492 2.71159 93.728 3.96271 94.6368 5.545C95.5456 7.1273 96 8.84758 96 10.7059C96 12.5641 95.5456 14.2844 94.6368 15.8667C93.728 17.449 92.492 18.7001 90.9289 19.6201C89.3657 20.54 87.6663 21 85.8305 21C83.9947 21 82.2953 20.54 80.7321 19.6201C79.169 18.7001 77.933 17.449 77.0242 15.8667C76.1154 14.2844 75.661 12.5641 75.661 10.7059C75.661 8.84758 76.1154 7.1273 77.0242 5.545C77.933 3.96271 79.169 2.71159 80.7321 1.79165C82.2953 0.871713 83.9947 0.411743 85.8305 0.411743Z" fill="#F5C57B"/>
<path d="M13.6144 31.46C14.8024 31.46 15.7324 31.802 16.4044 32.486C17.0884 33.17 17.4304 34.178 17.4304 35.51V41H16.1524V35.636C16.1524 34.652 15.9124 33.902 15.4324 33.386C14.9644 32.87 14.2984 32.612 13.4344 32.612C12.4504 32.612 11.6764 32.918 11.1124 33.53C10.5484 34.13 10.2664 34.964 10.2664 36.032V41H8.98841V35.636C8.98841 34.652 8.74841 33.902 8.26841 33.386C7.80041 32.87 7.12841 32.612 6.25241 32.612C5.28041 32.612 4.50641 32.918 3.93041 33.53C3.36641 34.13 3.08441 34.964 3.08441 36.032V41H1.80641V31.532H3.03041V33.26C3.36641 32.684 3.83441 32.24 4.43441 31.928C5.03441 31.616 5.72441 31.46 6.50441 31.46C7.29641 31.46 7.98041 31.628 8.55641 31.964C9.14441 32.3 9.58241 32.798 9.87041 33.458C10.2184 32.834 10.7164 32.348 11.3644 32C12.0244 31.64 12.7744 31.46 13.6144 31.46Z" fill="#F5C57B"/>
<path d="M20.8963 31.532H22.1743V41H20.8963V31.532ZM21.5443 29.462C21.2803 29.462 21.0583 29.372 20.8783 29.192C20.6983 29.012 20.6083 28.796 20.6083 28.544C20.6083 28.304 20.6983 28.094 20.8783 27.914C21.0583 27.734 21.2803 27.644 21.5443 27.644C21.8083 27.644 22.0303 27.734 22.2103 27.914C22.3903 28.082 22.4803 28.286 22.4803 28.526C22.4803 28.79 22.3903 29.012 22.2103 29.192C22.0303 29.372 21.8083 29.462 21.5443 29.462Z" fill="#F5C57B"/>
<path d="M30.6082 31.46C31.4962 31.46 32.3002 31.664 33.0202 32.072C33.7402 32.468 34.3042 33.032 34.7122 33.764C35.1202 34.496 35.3242 35.33 35.3242 36.266C35.3242 37.202 35.1202 38.036 34.7122 38.768C34.3042 39.5 33.7402 40.07 33.0202 40.478C32.3002 40.886 31.4962 41.09 30.6082 41.09C29.8162 41.09 29.1022 40.922 28.4662 40.586C27.8422 40.25 27.3382 39.764 26.9542 39.128V41H25.7302V27.644H27.0082V33.332C27.4042 32.72 27.9082 32.258 28.5202 31.946C29.1442 31.622 29.8402 31.46 30.6082 31.46ZM30.5182 39.956C31.1782 39.956 31.7782 39.806 32.3182 39.506C32.8582 39.194 33.2782 38.756 33.5782 38.192C33.8902 37.628 34.0462 36.986 34.0462 36.266C34.0462 35.546 33.8902 34.904 33.5782 34.34C33.2782 33.776 32.8582 33.344 32.3182 33.044C31.7782 32.732 31.1782 32.576 30.5182 32.576C29.8462 32.576 29.2402 32.732 28.7002 33.044C28.1722 33.344 27.7522 33.776 27.4402 34.34C27.1402 34.904 26.9902 35.546 26.9902 36.266C26.9902 36.986 27.1402 37.628 27.4402 38.192C27.7522 38.756 28.1722 39.194 28.7002 39.506C29.2402 39.806 29.8462 39.956 30.5182 39.956Z" fill="#F5C57B"/>
<path d="M41.1887 31.46C42.4247 31.46 43.3727 31.772 44.0327 32.396C44.6927 33.008 45.0227 33.92 45.0227 35.132V41H43.7987V39.524C43.5107 40.016 43.0847 40.4 42.5207 40.676C41.9687 40.952 41.3087 41.09 40.5407 41.09C39.4847 41.09 38.6447 40.838 38.0207 40.334C37.3967 39.83 37.0847 39.164 37.0847 38.336C37.0847 37.532 37.3727 36.884 37.9487 36.392C38.5367 35.9 39.4667 35.654 40.7387 35.654H43.7447V35.078C43.7447 34.262 43.5167 33.644 43.0607 33.224C42.6047 32.792 41.9387 32.576 41.0627 32.576C40.4627 32.576 39.8867 32.678 39.3347 32.882C38.7827 33.074 38.3087 33.344 37.9127 33.692L37.3367 32.738C37.8167 32.33 38.3927 32.018 39.0647 31.802C39.7367 31.574 40.4447 31.46 41.1887 31.46ZM40.7387 40.082C41.4587 40.082 42.0767 39.92 42.5927 39.596C43.1087 39.26 43.4927 38.78 43.7447 38.156V36.608H40.7747C39.1547 36.608 38.3447 37.172 38.3447 38.3C38.3447 38.852 38.5547 39.29 38.9747 39.614C39.3947 39.926 39.9827 40.082 40.7387 40.082Z" fill="#F5C57B"/>
<path d="M52.3991 41.09C51.4871 41.09 50.6651 40.886 49.9331 40.478C49.2011 40.058 48.6251 39.482 48.2051 38.75C47.7851 38.018 47.5751 37.19 47.5751 36.266C47.5751 35.342 47.7851 34.514 48.2051 33.782C48.6251 33.05 49.2011 32.48 49.9331 32.072C50.6651 31.664 51.4871 31.46 52.3991 31.46C53.3111 31.46 54.1331 31.664 54.8651 32.072C55.5971 32.48 56.1671 33.05 56.5751 33.782C56.9951 34.514 57.2051 35.342 57.2051 36.266C57.2051 37.19 56.9951 38.018 56.5751 38.75C56.1671 39.482 55.5971 40.058 54.8651 40.478C54.1331 40.886 53.3111 41.09 52.3991 41.09ZM52.3991 39.956C53.0711 39.956 53.6711 39.806 54.1991 39.506C54.7391 39.194 55.1591 38.756 55.4591 38.192C55.7591 37.628 55.9091 36.986 55.9091 36.266C55.9091 35.546 55.7591 34.904 55.4591 34.34C55.1591 33.776 54.7391 33.344 54.1991 33.044C53.6711 32.732 53.0711 32.576 52.3991 32.576C51.7271 32.576 51.1211 32.732 50.5811 33.044C50.0531 33.344 49.6331 33.776 49.3211 34.34C49.0211 34.904 48.8711 35.546 48.8711 36.266C48.8711 36.986 49.0211 37.628 49.3211 38.192C49.6331 38.756 50.0531 39.194 50.5811 39.506C51.1211 39.806 51.7271 39.956 52.3991 39.956Z" fill="#F5C57B"/>
<path d="M59.6766 41.09C59.4126 41.09 59.1846 40.994 58.9926 40.802C58.8126 40.61 58.7226 40.376 58.7226 40.1C58.7226 39.824 58.8126 39.596 58.9926 39.416C59.1846 39.224 59.4126 39.128 59.6766 39.128C59.9406 39.128 60.1686 39.224 60.3606 39.416C60.5526 39.596 60.6486 39.824 60.6486 40.1C60.6486 40.376 60.5526 40.61 60.3606 40.802C60.1686 40.994 59.9406 41.09 59.6766 41.09Z" fill="#F5C57B"/>
<path d="M68.189 31.46C69.377 31.46 70.319 31.808 71.015 32.504C71.723 33.188 72.077 34.19 72.077 35.51V41H70.799V35.636C70.799 34.652 70.553 33.902 70.061 33.386C69.569 32.87 68.867 32.612 67.955 32.612C66.935 32.612 66.125 32.918 65.525 33.53C64.937 34.13 64.643 34.964 64.643 36.032V41H63.365V31.532H64.589V33.278C64.937 32.702 65.417 32.258 66.029 31.946C66.653 31.622 67.373 31.46 68.189 31.46Z" fill="#F5C57B"/>
<path d="M83.8258 36.662H75.9058C75.9778 37.646 76.3558 38.444 77.0398 39.056C77.7238 39.656 78.5878 39.956 79.6318 39.956C80.2198 39.956 80.7598 39.854 81.2518 39.65C81.7438 39.434 82.1698 39.122 82.5298 38.714L83.2498 39.542C82.8298 40.046 82.3018 40.43 81.6658 40.694C81.0418 40.958 80.3518 41.09 79.5958 41.09C78.6238 41.09 77.7598 40.886 77.0038 40.478C76.2598 40.058 75.6778 39.482 75.2578 38.75C74.8378 38.018 74.6278 37.19 74.6278 36.266C74.6278 35.342 74.8258 34.514 75.2218 33.782C75.6298 33.05 76.1818 32.48 76.8778 32.072C77.5858 31.664 78.3778 31.46 79.2538 31.46C80.1298 31.46 80.9158 31.664 81.6118 32.072C82.3078 32.48 82.8538 33.05 83.2498 33.782C83.6458 34.502 83.8438 35.33 83.8438 36.266L83.8258 36.662ZM79.2538 32.558C78.3418 32.558 77.5738 32.852 76.9498 33.44C76.3378 34.016 75.9898 34.772 75.9058 35.708H82.6198C82.5358 34.772 82.1818 34.016 81.5578 33.44C80.9458 32.852 80.1778 32.558 79.2538 32.558Z" fill="#F5C57B"/>
<path d="M91.4311 40.424C91.1911 40.64 90.8911 40.808 90.5311 40.928C90.1831 41.036 89.8171 41.09 89.4331 41.09C88.5451 41.09 87.8611 40.85 87.3811 40.37C86.9011 39.89 86.6611 39.212 86.6611 38.336V32.612H84.9691V31.532H86.6611V29.462H87.9391V31.532H90.8191V32.612H87.9391V38.264C87.9391 38.828 88.0771 39.26 88.3531 39.56C88.6411 39.848 89.0491 39.992 89.5771 39.992C89.8411 39.992 90.0931 39.95 90.3331 39.866C90.5851 39.782 90.8011 39.662 90.9811 39.506L91.4311 40.424Z" fill="#F5C57B"/>
</svg>
