<svg width="231" height="31" viewBox="0 0 231 31" fill="none" xmlns="http://www.w3.org/2000/svg">
<path d="M5.59272 19.7247C8.3118 10.6167 16.689 4.375 26.1943 4.375H230.319L226.84 15.4456C224.024 24.4048 215.72 30.5 206.329 30.5H2.37591L5.59272 19.7247Z" stroke="#EFD29F"/>
<path d="M3.40878 15.7067C6.19109 6.38681 14.7631 0 24.4894 0H229.295L225.612 11.7205C222.731 20.888 214.234 27.125 204.624 27.125H0L3.40878 15.7067Z" fill="url(#paint0_linear_38_198)"/>
<path d="M30.596 7.562V8.472H27.208V9.298H30.596V10.236H27.768V11.048H30.596V12H26.816V12.84H35.384V12H31.562V11.048H34.53V10.236H31.562V9.298H35.034V8.472H31.562V7.562H30.596ZM28.846 16.368H33.368V17.39H28.846V16.368ZM33.368 15.584H28.846V14.548H33.368V15.584ZM28.846 18.174H33.368V18.972C33.368 19.294 33.186 19.462 32.85 19.462L31.73 19.42L31.968 20.316H33.144C33.928 20.316 34.334 19.938 34.334 19.182V13.722H27.88V20.4H28.846V18.174ZM24.282 7.716L23.568 8.402C24.576 9.158 25.374 9.872 25.962 10.544L26.648 9.844C26.004 9.13 25.22 8.416 24.282 7.716ZM22.588 11.846V12.812H24.59V18.37C24.59 18.608 24.478 18.818 24.268 19.014L24.66 19.91C25.528 19.28 26.368 18.552 27.152 17.74L26.886 16.676C26.41 17.166 25.976 17.6 25.556 17.992V11.846H22.588ZM38.268 20.246C39.08 20.246 39.5 19.826 39.5 18.986V14.856C40.018 14.604 40.522 14.324 41.026 14.044V13.008C40.522 13.316 40.018 13.596 39.5 13.848V11.104H41.096V10.138H39.5V7.576H38.492V10.138H36.784V11.104H38.492V14.296C37.848 14.562 37.176 14.786 36.504 14.968L36.756 15.976C37.344 15.78 37.932 15.556 38.492 15.318V18.734C38.492 19.126 38.296 19.322 37.918 19.322C37.582 19.322 37.218 19.294 36.854 19.266L37.064 20.246H38.268ZM41.558 13.554V14.534H42.398C42.762 15.752 43.49 16.844 44.568 17.824C43.546 18.552 42.3 19.14 40.816 19.602L41.362 20.456C42.944 19.966 44.288 19.308 45.38 18.496C46.346 19.224 47.55 19.868 48.992 20.428L49.538 19.56C48.18 19.084 47.032 18.524 46.094 17.88C47.102 16.942 47.816 15.808 48.25 14.492V13.554H41.558ZM43.322 14.534H47.256C46.822 15.57 46.164 16.48 45.282 17.264C44.33 16.452 43.686 15.542 43.322 14.534ZM42.636 8.122V9.984C42.636 10.936 42.09 11.664 41.026 12.182L41.698 12.952C42.986 12.224 43.63 11.202 43.63 9.886V9.074H46.346V11.356C46.346 12.168 46.78 12.588 47.676 12.588H49.104V11.65H47.928C47.536 11.65 47.34 11.468 47.34 11.132V8.122H42.636ZM50.784 8.108V8.99H55.012V10.11H51.806V13.218H62.208V10.11H59.002V8.99H63.216V8.108H50.784ZM58.05 10.11H55.964V8.99H58.05V10.11ZM61.242 12.392H59.002V10.95H61.242V12.392ZM58.05 12.392H55.964V10.95H58.05V12.392ZM55.012 12.392H52.772V10.95H55.012V12.392ZM52.394 14.254V15.094H61.676V14.254H52.394ZM51.008 16.116V16.998H56.664V18.958C56.664 19.322 56.454 19.504 56.062 19.504C55.698 19.504 55.32 19.476 54.928 19.448L55.124 20.344H56.384C57.224 20.344 57.644 19.952 57.644 19.182V16.998H62.992V16.116H51.008ZM59.87 17.474L59.198 18.104C60.57 18.86 61.634 19.56 62.404 20.232L63.104 19.532C62.236 18.846 61.158 18.16 59.87 17.474ZM54.41 17.502C53.486 18.23 52.352 18.874 51.008 19.434L51.61 20.218C52.982 19.616 54.13 18.916 55.068 18.104L54.41 17.502ZM70.454 7.562V9.396H65.008V10.376H70.454V12.518H66.072V13.456H67.15C67.374 14.212 67.738 14.926 68.242 15.57C68.788 16.27 69.432 16.9 70.16 17.446C68.648 18.342 66.828 19.042 64.7 19.546L65.274 20.442C67.5 19.84 69.404 19.042 71 18.034C71.7 18.482 72.484 18.888 73.338 19.252C74.416 19.7 75.564 20.092 76.768 20.414L77.356 19.532C76.222 19.252 75.158 18.93 74.164 18.552C73.324 18.216 72.554 17.838 71.854 17.446C73.338 16.326 74.472 14.982 75.256 13.414V12.518H71.49V10.376H76.992V9.396H71.49V7.562H70.454ZM70.986 16.9C70.37 16.48 69.81 15.99 69.32 15.43C68.788 14.856 68.396 14.198 68.144 13.456H74.122C73.394 14.8 72.344 15.948 70.986 16.9ZM86.806 7.604V9.06H84.062V9.97H86.806V11.608H83.558V12.56H91.202V11.608H87.8V9.97H90.67V9.06H87.8V7.604H86.806ZM83.334 14.352V15.29H88.486V18.804C88.486 19.182 88.29 19.378 87.898 19.378C87.352 19.378 86.778 19.35 86.176 19.322L86.4 20.302H88.262C89.074 20.302 89.494 19.882 89.494 19.056V15.29H91.216V14.352H89.494V13.274H88.486V14.352H83.334ZM80.338 20.274C81.136 20.274 81.542 19.854 81.542 19.014V15.038C82.046 14.828 82.536 14.604 83.012 14.352V13.316C82.536 13.568 82.046 13.806 81.542 14.03V11.216H82.998V10.25H81.542V7.744H80.548V10.25H78.826V11.216H80.548V14.422C79.932 14.646 79.316 14.828 78.672 14.982L78.924 15.99C79.456 15.822 80.002 15.64 80.548 15.444V18.762C80.548 19.168 80.352 19.378 79.988 19.378C79.638 19.378 79.274 19.35 78.896 19.308L79.106 20.274H80.338ZM84.79 15.948L83.978 16.438C84.692 17.292 85.252 18.062 85.672 18.762L86.47 18.202C86.078 17.558 85.518 16.802 84.79 15.948ZM100.148 15.346C100.848 15.346 101.212 14.954 101.212 14.184V10.39H100.204V13.946C100.204 14.296 100.064 14.478 99.812 14.478C99.504 14.478 99.168 14.45 98.818 14.408L99.028 15.346H100.148ZM94.408 11.328V15.36H95.388V10.012C95.836 9.326 96.242 8.57 96.606 7.758L95.626 7.548C94.814 9.326 93.778 10.768 92.518 11.86L93.148 12.63C93.582 12.238 94.002 11.804 94.408 11.328ZM98.776 7.534C98.118 9.004 97.264 10.194 96.214 11.118L96.83 11.874C97.502 11.258 98.118 10.558 98.65 9.746H103.816C103.662 10.306 103.466 10.81 103.228 11.272L104.138 11.51C104.418 10.838 104.642 10.152 104.824 9.452V8.822H99.21C99.378 8.486 99.56 8.122 99.728 7.744L98.776 7.534ZM94.17 16.074C93.89 17.222 93.47 18.286 92.882 19.238L93.736 19.784C94.338 18.79 94.8 17.614 95.136 16.27L94.17 16.074ZM101.058 20.19C101.562 20.19 101.94 20.078 102.178 19.854C102.458 19.588 102.64 18.846 102.738 17.614L101.786 17.306C101.73 18.23 101.632 18.79 101.464 18.986C101.338 19.154 101.142 19.238 100.862 19.238H97.782C97.39 19.238 97.208 19.028 97.208 18.636V15.892H96.186V18.846C96.186 19.742 96.606 20.19 97.474 20.19H101.058ZM103.438 15.64L102.612 16.144C103.466 17.348 104.152 18.454 104.656 19.462L105.482 18.874C105.006 17.95 104.334 16.872 103.438 15.64ZM98.398 11.734C97.894 12.742 97.292 13.624 96.592 14.38L97.362 14.912C98.062 14.128 98.678 13.19 99.21 12.112L98.398 11.734ZM103.046 11.72L102.192 12.084C102.836 12.924 103.438 13.876 103.97 14.968L104.824 14.534C104.306 13.498 103.718 12.56 103.046 11.72ZM99.098 15.514L98.314 16.004C98.986 16.788 99.518 17.516 99.91 18.16L100.694 17.614C100.33 17.012 99.798 16.312 99.098 15.514ZM107.792 10.18V10.992H118.208V10.18H113.49V9.27H118.67V8.444H113.49V7.548H112.51V8.444H107.344V9.27H112.51V10.18H107.792ZM109.948 14.254L110.396 15.276H106.756V16.116H119.244V15.276H115.632L116.206 14.254H117.382V11.734H108.618V14.254H109.948ZM115.142 14.254L114.582 15.276H111.446L110.998 14.254H115.142ZM116.416 13.512H109.584V12.476H116.416V13.512ZM117.592 16.928H108.408V20.4H109.388V19.826H116.626V20.4H117.592V16.928ZM109.388 19V17.754H116.626V19H109.388ZM127.812 7.422C127.546 9.69 126.958 11.468 126.034 12.742L126.846 13.316C127.378 12.63 127.812 11.762 128.148 10.698H131.872C131.662 11.818 131.396 12.812 131.06 13.694L132.04 13.974C132.404 12.798 132.698 11.594 132.922 10.39V9.732H128.414C128.568 9.074 128.694 8.36 128.806 7.576L127.812 7.422ZM125.46 18.132L126.188 17.39C125.572 16.494 124.998 15.668 124.452 14.926C124.998 13.526 125.418 11.916 125.726 10.096V9.172H120.784V10.152H124.746C124.522 11.608 124.214 12.91 123.822 14.086C122.982 13.008 122.226 12.112 121.526 11.412L120.854 12.056C121.694 12.98 122.548 14.016 123.402 15.15C122.688 16.774 121.736 18.02 120.56 18.916L121.064 19.826C122.24 18.902 123.22 17.614 124.004 15.976C124.48 16.648 124.97 17.376 125.46 18.132ZM129.086 11.692C129.072 13.498 128.876 14.982 128.498 16.144C127.994 17.53 126.958 18.678 125.404 19.588L126.048 20.386C127.84 19.322 128.988 17.964 129.492 16.312L129.604 15.92C130.318 17.684 131.368 19.168 132.74 20.372L133.412 19.588C131.76 18.272 130.598 16.508 129.912 14.296C130.024 13.512 130.08 12.644 130.08 11.692H129.086ZM139.656 9.984H137.402C137.682 9.284 137.892 8.514 138.06 7.688L137.052 7.548C136.926 8.388 136.73 9.2 136.45 9.984H135.148V19.938H136.128V18.734H138.676V19.532H139.656V9.984ZM136.128 17.796V14.73H138.676V17.796H136.128ZM136.128 13.82V10.936H138.676V13.82H136.128ZM142.092 13.232L141.28 13.736C142.246 14.884 143.016 15.92 143.59 16.844L144.388 16.284C143.856 15.416 143.1 14.394 142.092 13.232ZM146.894 9.998H142.428C142.68 9.27 142.876 8.486 143.044 7.66L142.05 7.534C141.686 9.522 141.028 11.202 140.048 12.574L140.65 13.372C141.196 12.658 141.658 11.86 142.05 10.978H145.9C145.872 15.01 145.816 17.432 145.732 18.216C145.62 18.93 145.242 19.294 144.584 19.294C144.15 19.294 143.646 19.28 143.058 19.252L143.296 20.176C143.968 20.204 144.444 20.232 144.724 20.232C145.9 20.232 146.544 19.686 146.684 18.622C146.824 17.53 146.894 14.646 146.894 9.998ZM156.82 7.534V9.046H153.796V9.984H156.82V11.678H153.208V12.658H161.328V11.678H157.856V9.984H160.88V9.046H157.856V7.534H156.82ZM153.04 14.338V15.304H158.528V18.818C158.528 19.238 158.318 19.462 157.898 19.462C157.436 19.462 156.96 19.434 156.456 19.392L156.666 20.386H158.248C159.116 20.386 159.564 19.952 159.564 19.084V15.304H161.468V14.338H159.564V13.204H158.528V14.338H153.04ZM155.14 15.794L154.37 16.27C155.07 17.096 155.616 17.852 156.022 18.524L156.82 17.964C156.428 17.348 155.868 16.62 155.14 15.794ZM150.268 7.702L149.568 8.388C150.576 9.144 151.36 9.872 151.948 10.558L152.634 9.858C151.99 9.13 151.192 8.416 150.268 7.702ZM148.588 11.846V12.812H150.646V18.412C150.646 18.636 150.548 18.832 150.366 19L150.744 19.91C151.696 19.28 152.606 18.552 153.446 17.74L153.18 16.676C152.62 17.222 152.102 17.698 151.612 18.104V11.846H148.588ZM169.504 7.59H168.482C168.482 8.122 168.468 8.864 168.454 9.816C168.328 13.848 166.34 17.054 162.49 19.42L163.106 20.316C166.214 18.314 168.202 15.794 169.042 12.742C170.036 15.906 171.968 18.426 174.824 20.302L175.482 19.42C172.22 17.418 170.19 14.506 169.406 10.698C169.462 9.83 169.504 8.794 169.504 7.59ZM180.998 8.71H177.19V19.056H178.198V18.006H180.018V18.762H180.998V8.71ZM178.198 17.026V9.69H180.018V17.026H178.198ZM184.848 9.172V13.568H183.14V9.172H184.848ZM185.786 13.568V9.172H187.564V13.568H185.786ZM188.544 8.234H182.16V18.608C182.16 19.644 182.622 20.162 183.56 20.162H187.634C188.292 20.134 188.726 19.798 188.936 19.154C189.076 18.72 189.174 18.02 189.258 17.04L188.32 16.732C188.25 17.768 188.166 18.426 188.054 18.692C187.914 19.014 187.676 19.182 187.34 19.196H183.938C183.406 19.196 183.14 18.874 183.14 18.258V14.506H188.544V8.234ZM192.856 9.004L193.066 16.312H193.934L194.158 9.004H192.856ZM193.5 17.334C193.262 17.334 193.066 17.404 192.898 17.572C192.73 17.726 192.66 17.922 192.66 18.16C192.66 18.398 192.73 18.594 192.898 18.762C193.066 18.916 193.262 19 193.5 19C193.738 19 193.948 18.916 194.116 18.762C194.27 18.608 194.354 18.412 194.354 18.16C194.354 17.922 194.27 17.726 194.116 17.572C193.948 17.404 193.738 17.334 193.5 17.334Z" fill="black"/>
<defs>
<linearGradient id="paint0_linear_38_198" x1="114.648" y1="0" x2="114.648" y2="27.125" gradientUnits="userSpaceOnUse">
<stop stop-color="#F1D9AC"/>
<stop offset="1" stop-color="#E7BC7A"/>
</linearGradient>
</defs>
</svg>
