<svg width="216" height="225" viewBox="0 0 216 225" fill="none" xmlns="http://www.w3.org/2000/svg">
<path d="M71.725 172.025V165.725H96.925V189.35H91.4125V172.025H71.725Z" fill="white"/>
<path d="M71.725 198.8V192.5H96.925V213.762C96.925 214.55 96.7675 217.7 92.9875 220.85C89.2075 224 84.325 224 82.75 224V217.7C84.325 217.7 87.6244 217.194 89.05 216.125C92.2 213.762 91.675 212.45 92.2 211.4V198.8H71.725Z" fill="white"/>
<path d="M107.163 210.612V187.775H112.675V210.612C112.675 212.187 114.25 215.337 115.825 216.125C117.419 216.922 120.55 217.7 122.125 217.7V223.212C120.812 223.212 117.4 222.897 114.25 221.637C111.1 220.377 109.788 219.012 109.525 218.487C109.263 219.012 108.738 220.85 106.375 222.425C104.151 223.908 100.337 224 98.5 224V217.7C100.075 217.7 102.122 218.015 104.013 216.125C105.903 214.235 106.9 211.662 107.163 210.612Z" fill="white"/>
<path fill-rule="evenodd" clip-rule="evenodd" d="M79.9739 181.849C77.6808 184.142 77.6312 187.028 77.6312 188.562L72.1187 188.562C72.1187 188.543 72.1187 188.524 72.1187 188.504C72.1181 186.829 72.1163 181.911 76.076 177.951C80.0356 173.991 84.9539 173.993 86.6288 173.994C86.6488 173.994 86.6684 173.994 86.6874 173.994L86.6874 179.506C85.1534 179.506 82.267 179.556 79.9739 181.849Z" fill="white"/>
<path fill-rule="evenodd" clip-rule="evenodd" d="M79.9739 208.624C77.6808 210.917 77.6312 213.803 77.6312 215.337L72.1187 215.337C72.1187 215.318 72.1187 215.299 72.1187 215.279C72.1181 213.604 72.1163 208.686 76.076 204.726C80.0356 200.766 84.9539 200.768 86.6288 200.769C86.6488 200.769 86.6684 200.769 86.6874 200.769L86.6874 206.281C85.1534 206.281 82.267 206.331 79.9739 208.624Z" fill="white"/>
<path fill-rule="evenodd" clip-rule="evenodd" d="M109.131 164.15C109.131 165.684 109.082 168.57 106.788 170.864C104.495 173.157 101.609 173.206 100.075 173.206L100.075 178.719L100.134 178.719H100.134C101.749 178.719 106.382 178.721 110.262 175.168C111.703 175.709 113.443 176.688 114.597 178.688C116.254 181.558 116.235 184.082 116.221 185.995L116.221 185.995C116.22 186.166 116.219 186.332 116.219 186.492L121.731 186.492C121.731 186.348 121.733 186.188 121.735 186.012V186.012C121.759 184.034 121.806 180.148 119.371 175.932C117.742 173.11 115.453 171.5 113.505 170.561C114.645 167.836 114.644 165.315 114.644 164.209L114.644 164.15L109.131 164.15Z" fill="white"/>
<path d="M39.5875 161H33.2875V165.725H23.05V172.025H33.2875V183.05H18.325V189.35H56.125V183.05H40.375V172.025H51.3999V165.725H39.5875V161Z" fill="white"/>
<path fill-rule="evenodd" clip-rule="evenodd" d="M2.21631 203.876C1.79987 203.898 1.40209 203.919 1 203.919V198.406C1.06431 198.406 1.20102 198.399 1.39479 198.389C2.22188 198.346 4.08862 198.249 5.80239 198.42C8.04125 198.644 10.9578 199.347 13.1865 201.576C14.8077 203.197 15.3693 205.313 15.5964 207.116C15.7853 208.615 15.7762 210.258 15.7685 211.666C15.7671 211.935 15.7656 212.195 15.7656 212.443C15.7656 214.156 15.8294 215.411 16.0977 216.328C16.3246 217.104 16.6017 217.35 16.9861 217.503C19.5308 218.521 21.8245 218.315 23.4232 218.172C23.8855 218.13 24.2897 218.094 24.625 218.094V223.606C24.6439 223.606 24.6556 223.606 24.6556 223.606C24.6556 223.607 24.6029 223.61 24.4537 223.624C24.4052 223.629 24.3455 223.635 24.278 223.642C24.126 223.657 23.9345 223.676 23.7425 223.693C23.1551 223.747 22.3761 223.803 21.475 223.803C19.6863 223.803 17.3399 223.582 14.9389 222.622C12.567 221.673 11.3676 219.793 10.8069 217.876C10.2878 216.101 10.2531 214.097 10.2531 212.443C10.2531 212.13 10.2544 211.826 10.2557 211.531C10.2616 210.121 10.2667 208.913 10.1271 207.805C9.96041 206.482 9.63603 205.821 9.28854 205.474C8.36719 204.553 6.9525 204.075 5.25386 203.905C4.02434 203.782 3.08018 203.831 2.21631 203.876Z" fill="white"/>
<path fill-rule="evenodd" clip-rule="evenodd" d="M7.71354 183.03C5.42047 180.737 2.53405 180.688 1 180.688V175.175C1.01907 175.175 1.03862 175.175 1.05862 175.175C2.73358 175.174 7.65183 175.173 11.6115 179.132C15.5711 183.092 15.5694 188.01 15.5688 189.685C15.5688 189.705 15.5688 189.725 15.5688 189.744H10.0563C10.0563 188.21 10.0066 185.323 7.71354 183.03Z" fill="white"/>
<path fill-rule="evenodd" clip-rule="evenodd" d="M29.2157 205.537C28.1125 204.617 27.2899 204.313 26.9875 204.313V199.588C29.0477 199.588 30.9814 200.858 32.2406 201.907C33.5675 203.013 34.8105 204.438 35.4006 205.618C36.1252 207.068 36.3376 208.854 36.4133 210.138C36.4765 211.211 36.4528 212.258 36.4419 212.74C36.4394 212.85 36.4375 212.93 36.4375 212.975L31.7125 212.975C31.7126 212.832 31.7161 212.667 31.72 212.48C31.7312 211.954 31.746 211.256 31.6964 210.416C31.6274 209.245 31.446 208.275 31.1745 207.732C30.9771 207.337 30.2513 206.4 29.2157 205.537Z" fill="white"/>
<path d="M48.25 192.5H41.1625V195.65H18.325V201.95H41.9499V212.975C41.9499 218.062 38.0125 218.488 33.2875 218.488V224C36.4375 224 42.58 223.37 45.1 220.85C47.6199 218.33 48.25 215.338 48.25 212.975V201.95H56.125V195.65H48.25V192.5Z" fill="white"/>
<path fill-rule="evenodd" clip-rule="evenodd" d="M139.985 174.387H130V168.087H139.985V164.15H145.809L145.809 168.087L145.809 174.387L145.809 183.05H139.985V174.387Z" fill="white"/>
<path fill-rule="evenodd" clip-rule="evenodd" d="M158.291 164.15V168.087L146.641 168.087V174.387H158.291L158.291 183.05H164.947V174.387H174.1V168.087H164.947V164.15H158.291Z" fill="white"/>
<path d="M173.268 201.95V195.65V189.35H130V195.65H166.611V201.95C166.611 202.475 166.278 203.84 164.947 205.1C163.616 206.36 159.4 207.2 157.458 207.462V213.762C164.48 212.433 173.268 210.612 173.268 201.95Z" fill="white"/>
<path d="M146 190L152 190V225H146V190Z" fill="white"/>
<path d="M41.8319 110.2C41.8319 112.466 41.3468 114.599 40.3764 116.601C39.406 118.602 38.0646 120.301 36.3522 121.698C34.6397 123.095 32.718 124.058 30.587 124.587V137.501C30.587 138.898 30.939 140.201 31.643 141.409C32.347 142.617 33.3078 143.571 34.5256 144.269C35.7433 144.968 37.0562 145.317 38.4642 145.317H41.7749V150.358H38.4642C36.1048 150.358 33.9357 149.773 31.9569 148.602C29.9781 147.432 28.4084 145.865 27.2477 143.901C26.0871 141.938 25.5068 139.804 25.5068 137.501V93.888H30.587V119.319C32.4136 118.564 33.8977 117.356 35.0393 115.694C36.1809 114.033 36.7517 112.202 36.7517 110.2V106.745H41.8319V110.2ZM1.07605 104.82H11.2365V94.1146H16.3167V150.528H11.2365V136.085H1.07605V131.044H11.2365V109.804H1.07605V104.82Z" fill="white"/>
<path d="M59.1275 93.888H75.624V98.929H59.1275V93.888ZM46.5697 101.478H87.3827V106.519H46.5697V101.478ZM84.1291 116.148C84.1291 117.658 83.7485 119.064 82.9874 120.367C82.2263 121.67 81.1989 122.699 79.9051 123.454C78.6112 124.209 77.2032 124.587 75.6811 124.587H69.9729V141.012C69.9729 142.712 69.5448 144.298 68.6886 145.77C67.8324 147.243 66.6718 148.404 65.2067 149.254C63.7416 150.103 62.1338 150.528 60.3833 150.528H57.7576V145.43H60.3833C61.6011 145.43 62.6475 144.996 63.5228 144.128C64.398 143.259 64.8357 142.221 64.8357 141.012V124.587H50.5654V109.181H84.1291V116.148ZM55.7027 114.222V119.489H75.6811C76.5944 119.489 77.3745 119.168 78.0214 118.526C78.6683 117.884 78.9918 117.092 78.9918 116.148V114.222H55.7027ZM52.2778 127.419H57.358V136.651C57.358 138.577 56.8728 140.361 55.9025 142.004C54.9321 143.646 53.6287 144.949 51.9924 145.912C50.3561 146.875 48.5675 147.356 46.6268 147.356V142.259C48.187 142.259 49.5189 141.711 50.6225 140.616C51.726 139.521 52.2778 138.199 52.2778 136.651V127.419ZM82.0171 136.651C82.0171 138.199 82.5688 139.521 83.6724 140.616C84.776 141.711 86.1079 142.259 87.6681 142.259V147.356C85.7273 147.356 83.9388 146.875 82.3025 145.912C80.6661 144.949 79.3628 143.646 78.3924 142.004C77.422 140.361 76.9368 138.577 76.9368 136.651V127.419H82.0171V136.651Z" fill="white"/>
<mask id="path-18-outside-1_0_1" maskUnits="userSpaceOnUse" x="0" y="41" width="91" height="34" fill="black">
<rect fill="white" y="41" width="91" height="34"/>
<path d="M6.91399 42.2992C8.04882 42.2992 9.03742 42.4987 9.87976 42.8976C10.7221 43.2966 11.3714 43.8701 11.8277 44.6181C12.284 45.3661 12.5121 46.2388 12.5121 47.2362C12.5121 48.2336 12.284 49.1063 11.8277 49.8543C11.3714 50.6023 10.7221 51.1758 9.87976 51.5748C9.03742 51.9737 8.04882 52.1732 6.91399 52.1732H5.14155V55.3897H1V42.2992H6.91399ZM6.65076 48.7696C7.21233 48.7696 7.6335 48.6387 7.91428 48.3769C8.19507 48.1027 8.33546 47.7224 8.33546 47.2362C8.33546 46.75 8.19507 46.376 7.91428 46.1142C7.6335 45.8399 7.21233 45.7027 6.65076 45.7027H5.14155V48.7696H6.65076Z"/>
<path d="M22.4126 55.6889C21.0906 55.6889 19.9031 55.3959 18.8502 54.81C17.7972 54.224 16.9724 53.4137 16.3757 52.3789C15.7791 51.3316 15.4808 50.1535 15.4808 48.8445C15.4808 47.5354 15.7791 46.3635 16.3757 45.3287C16.9724 44.2815 17.7972 43.4649 18.8502 42.8789C19.9031 42.293 21.0906 42 22.4126 42C23.7346 42 24.9221 42.293 25.975 42.8789C27.028 43.4649 27.8528 44.2815 28.4494 45.3287C29.0461 46.3635 29.3444 47.5354 29.3444 48.8445C29.3444 50.1535 29.0461 51.3316 28.4494 52.3789C27.8528 53.4137 27.028 54.224 25.975 54.81C24.9221 55.3959 23.7346 55.6889 22.4126 55.6889ZM22.4126 52.1171C22.9274 52.1171 23.3895 51.9862 23.799 51.7244C24.2201 51.4501 24.5536 51.0698 24.7992 50.5836C25.0449 50.0849 25.1678 49.5052 25.1678 48.8445C25.1678 48.1837 25.0449 47.6102 24.7992 47.124C24.5536 46.6253 24.2201 46.2451 23.799 45.9832C23.3895 45.709 22.9274 45.5718 22.4126 45.5718C21.8978 45.5718 21.4298 45.709 21.0087 45.9832C20.5992 46.2451 20.2716 46.6253 20.0259 47.124C19.7802 47.6102 19.6574 48.1837 19.6574 48.8445C19.6574 49.5052 19.7802 50.0849 20.0259 50.5836C20.2716 51.0698 20.5992 51.4501 21.0087 51.7244C21.4298 51.9862 21.8978 52.1171 22.4126 52.1171Z"/>
<path d="M42.9915 52.061V55.3897H32.778V42.2992H42.7633V45.6279H36.8493V47.1614H42.0438V50.3405H36.8493V52.061H42.9915Z"/>
<path d="M49.1836 45.7214H45.5861V42.2992H56.9227V45.7214H53.3252V55.3897H49.1836V45.7214Z"/>
<path d="M65.1935 52.0984H64.0703V55.3897H59.9288V42.2992H65.8428C66.9776 42.2992 67.9662 42.4987 68.8085 42.8976C69.6509 43.2966 70.3002 43.8701 70.7565 44.6181C71.2128 45.3661 71.4409 46.2388 71.4409 47.2362C71.4409 48.1712 71.242 48.9878 70.8442 49.686C70.4464 50.3841 69.8732 50.9389 69.1244 51.3503L71.7041 55.3897H67.2818L65.1935 52.0984ZM67.2642 47.2362C67.2642 46.75 67.1238 46.376 66.8431 46.1142C66.5623 45.8399 66.1411 45.7027 65.5795 45.7027H64.0703V48.7696H65.5795C66.1411 48.7696 66.5623 48.6387 66.8431 48.3769C67.1238 48.1027 67.2642 47.7224 67.2642 47.2362Z"/>
<path d="M82.0642 50.6397V55.3897H77.9226V50.5836L73.2897 42.2992H77.6594L80.1689 46.8248L82.6959 42.2992H86.6971L82.0642 50.6397Z"/>
<path d="M5.14155 63.939V66.1831H10.2658V69.5118H5.14155V73.7008H1V60.6103H10.9853V63.939H5.14155Z"/>
<path d="M22.5072 70.3721V73.7008H12.2937V60.6103H22.2791V63.939H16.3651V65.4725H21.5595V68.6516H16.3651V70.3721H22.5072Z"/>
<path d="M28.6818 74C27.664 74 26.6695 73.8816 25.6985 73.6447C24.7391 73.3953 23.9494 73.065 23.3294 72.6536L24.6631 69.437C25.2481 69.7986 25.9032 70.0916 26.6286 70.316C27.3539 70.5279 28.05 70.6339 28.7169 70.6339C29.2902 70.6339 29.6996 70.5778 29.9453 70.4656C30.191 70.3409 30.3139 70.1601 30.3139 69.9233C30.3139 69.649 30.1501 69.4433 29.8225 69.3061C29.5066 69.169 28.9801 69.0194 28.2431 68.8573C27.2954 68.6454 26.5057 68.421 25.874 68.1841C25.2422 67.9347 24.6923 67.5358 24.2244 66.9872C23.7564 66.4262 23.5224 65.672 23.5224 64.7245C23.5224 63.9016 23.7389 63.1536 24.1717 62.4804C24.6046 61.8071 25.2481 61.2773 26.1021 60.8908C26.9679 60.5043 28.0149 60.3111 29.2434 60.3111C30.0857 60.3111 30.9105 60.4108 31.7178 60.6103C32.5367 60.7973 33.2562 61.0778 33.8763 61.4518L32.6303 64.6497C31.4253 64.0014 30.2846 63.6772 29.2083 63.6772C28.1436 63.6772 27.6113 63.9515 27.6113 64.5C27.6113 64.7619 27.7693 64.9613 28.0851 65.0985C28.401 65.2231 28.9216 65.3603 29.647 65.5099C30.5829 65.6969 31.3726 65.9151 32.0161 66.1644C32.6596 66.4013 33.2153 66.794 33.6833 67.3426C34.1629 67.8911 34.4028 68.6391 34.4028 69.5866C34.4028 70.4095 34.1863 71.1575 33.7535 71.8307C33.3206 72.4915 32.6713 73.0213 31.8055 73.4203C30.9515 73.8068 29.9102 74 28.6818 74Z"/>
<path d="M38.1312 64.0325H34.5337V60.6103H45.8703V64.0325H42.2728V73.7008H38.1312V64.0325Z"/>
<path d="M46.946 60.6103H51.0876V73.7008H46.946V60.6103Z"/>
<path d="M66.2079 60.6103L61.0134 73.7008H56.942L51.7476 60.6103H56.205L59.1357 68.2589L62.1365 60.6103H66.2079Z"/>
<path d="M74.5453 71.4193H69.8773L69.0525 73.7008H64.8407L70.2107 60.6103H74.282L79.652 73.7008H75.3701L74.5453 71.4193ZM73.4046 68.2402L72.2113 64.9489L71.0179 68.2402H73.4046Z"/>
<path d="M80.313 60.6103H84.4545V70.2786H90V73.7008H80.313V60.6103Z"/>
</mask>
<path d="M6.91399 42.2992C8.04882 42.2992 9.03742 42.4987 9.87976 42.8976C10.7221 43.2966 11.3714 43.8701 11.8277 44.6181C12.284 45.3661 12.5121 46.2388 12.5121 47.2362C12.5121 48.2336 12.284 49.1063 11.8277 49.8543C11.3714 50.6023 10.7221 51.1758 9.87976 51.5748C9.03742 51.9737 8.04882 52.1732 6.91399 52.1732H5.14155V55.3897H1V42.2992H6.91399ZM6.65076 48.7696C7.21233 48.7696 7.6335 48.6387 7.91428 48.3769C8.19507 48.1027 8.33546 47.7224 8.33546 47.2362C8.33546 46.75 8.19507 46.376 7.91428 46.1142C7.6335 45.8399 7.21233 45.7027 6.65076 45.7027H5.14155V48.7696H6.65076Z" stroke="#F5C57B" stroke-width="2" mask="url(#path-18-outside-1_0_1)"/>
<path d="M22.4126 55.6889C21.0906 55.6889 19.9031 55.3959 18.8502 54.81C17.7972 54.224 16.9724 53.4137 16.3757 52.3789C15.7791 51.3316 15.4808 50.1535 15.4808 48.8445C15.4808 47.5354 15.7791 46.3635 16.3757 45.3287C16.9724 44.2815 17.7972 43.4649 18.8502 42.8789C19.9031 42.293 21.0906 42 22.4126 42C23.7346 42 24.9221 42.293 25.975 42.8789C27.028 43.4649 27.8528 44.2815 28.4494 45.3287C29.0461 46.3635 29.3444 47.5354 29.3444 48.8445C29.3444 50.1535 29.0461 51.3316 28.4494 52.3789C27.8528 53.4137 27.028 54.224 25.975 54.81C24.9221 55.3959 23.7346 55.6889 22.4126 55.6889ZM22.4126 52.1171C22.9274 52.1171 23.3895 51.9862 23.799 51.7244C24.2201 51.4501 24.5536 51.0698 24.7992 50.5836C25.0449 50.0849 25.1678 49.5052 25.1678 48.8445C25.1678 48.1837 25.0449 47.6102 24.7992 47.124C24.5536 46.6253 24.2201 46.2451 23.799 45.9832C23.3895 45.709 22.9274 45.5718 22.4126 45.5718C21.8978 45.5718 21.4298 45.709 21.0087 45.9832C20.5992 46.2451 20.2716 46.6253 20.0259 47.124C19.7802 47.6102 19.6574 48.1837 19.6574 48.8445C19.6574 49.5052 19.7802 50.0849 20.0259 50.5836C20.2716 51.0698 20.5992 51.4501 21.0087 51.7244C21.4298 51.9862 21.8978 52.1171 22.4126 52.1171Z" stroke="#F5C57B" stroke-width="2" mask="url(#path-18-outside-1_0_1)"/>
<path d="M42.9915 52.061V55.3897H32.778V42.2992H42.7633V45.6279H36.8493V47.1614H42.0438V50.3405H36.8493V52.061H42.9915Z" stroke="#F5C57B" stroke-width="2" mask="url(#path-18-outside-1_0_1)"/>
<path d="M49.1836 45.7214H45.5861V42.2992H56.9227V45.7214H53.3252V55.3897H49.1836V45.7214Z" stroke="#F5C57B" stroke-width="2" mask="url(#path-18-outside-1_0_1)"/>
<path d="M65.1935 52.0984H64.0703V55.3897H59.9288V42.2992H65.8428C66.9776 42.2992 67.9662 42.4987 68.8085 42.8976C69.6509 43.2966 70.3002 43.8701 70.7565 44.6181C71.2128 45.3661 71.4409 46.2388 71.4409 47.2362C71.4409 48.1712 71.242 48.9878 70.8442 49.686C70.4464 50.3841 69.8732 50.9389 69.1244 51.3503L71.7041 55.3897H67.2818L65.1935 52.0984ZM67.2642 47.2362C67.2642 46.75 67.1238 46.376 66.8431 46.1142C66.5623 45.8399 66.1411 45.7027 65.5795 45.7027H64.0703V48.7696H65.5795C66.1411 48.7696 66.5623 48.6387 66.8431 48.3769C67.1238 48.1027 67.2642 47.7224 67.2642 47.2362Z" stroke="#F5C57B" stroke-width="2" mask="url(#path-18-outside-1_0_1)"/>
<path d="M82.0642 50.6397V55.3897H77.9226V50.5836L73.2897 42.2992H77.6594L80.1689 46.8248L82.6959 42.2992H86.6971L82.0642 50.6397Z" stroke="#F5C57B" stroke-width="2" mask="url(#path-18-outside-1_0_1)"/>
<path d="M5.14155 63.939V66.1831H10.2658V69.5118H5.14155V73.7008H1V60.6103H10.9853V63.939H5.14155Z" stroke="#F5C57B" stroke-width="2" mask="url(#path-18-outside-1_0_1)"/>
<path d="M22.5072 70.3721V73.7008H12.2937V60.6103H22.2791V63.939H16.3651V65.4725H21.5595V68.6516H16.3651V70.3721H22.5072Z" stroke="#F5C57B" stroke-width="2" mask="url(#path-18-outside-1_0_1)"/>
<path d="M28.6818 74C27.664 74 26.6695 73.8816 25.6985 73.6447C24.7391 73.3953 23.9494 73.065 23.3294 72.6536L24.6631 69.437C25.2481 69.7986 25.9032 70.0916 26.6286 70.316C27.3539 70.5279 28.05 70.6339 28.7169 70.6339C29.2902 70.6339 29.6996 70.5778 29.9453 70.4656C30.191 70.3409 30.3139 70.1601 30.3139 69.9233C30.3139 69.649 30.1501 69.4433 29.8225 69.3061C29.5066 69.169 28.9801 69.0194 28.2431 68.8573C27.2954 68.6454 26.5057 68.421 25.874 68.1841C25.2422 67.9347 24.6923 67.5358 24.2244 66.9872C23.7564 66.4262 23.5224 65.672 23.5224 64.7245C23.5224 63.9016 23.7389 63.1536 24.1717 62.4804C24.6046 61.8071 25.2481 61.2773 26.1021 60.8908C26.9679 60.5043 28.0149 60.3111 29.2434 60.3111C30.0857 60.3111 30.9105 60.4108 31.7178 60.6103C32.5367 60.7973 33.2562 61.0778 33.8763 61.4518L32.6303 64.6497C31.4253 64.0014 30.2846 63.6772 29.2083 63.6772C28.1436 63.6772 27.6113 63.9515 27.6113 64.5C27.6113 64.7619 27.7693 64.9613 28.0851 65.0985C28.401 65.2231 28.9216 65.3603 29.647 65.5099C30.5829 65.6969 31.3726 65.9151 32.0161 66.1644C32.6596 66.4013 33.2153 66.794 33.6833 67.3426C34.1629 67.8911 34.4028 68.6391 34.4028 69.5866C34.4028 70.4095 34.1863 71.1575 33.7535 71.8307C33.3206 72.4915 32.6713 73.0213 31.8055 73.4203C30.9515 73.8068 29.9102 74 28.6818 74Z" stroke="#F5C57B" stroke-width="2" mask="url(#path-18-outside-1_0_1)"/>
<path d="M38.1312 64.0325H34.5337V60.6103H45.8703V64.0325H42.2728V73.7008H38.1312V64.0325Z" stroke="#F5C57B" stroke-width="2" mask="url(#path-18-outside-1_0_1)"/>
<path d="M46.946 60.6103H51.0876V73.7008H46.946V60.6103Z" stroke="#F5C57B" stroke-width="2" mask="url(#path-18-outside-1_0_1)"/>
<path d="M66.2079 60.6103L61.0134 73.7008H56.942L51.7476 60.6103H56.205L59.1357 68.2589L62.1365 60.6103H66.2079Z" stroke="#F5C57B" stroke-width="2" mask="url(#path-18-outside-1_0_1)"/>
<path d="M74.5453 71.4193H69.8773L69.0525 73.7008H64.8407L70.2107 60.6103H74.282L79.652 73.7008H75.3701L74.5453 71.4193ZM73.4046 68.2402L72.2113 64.9489L71.0179 68.2402H73.4046Z" stroke="#F5C57B" stroke-width="2" mask="url(#path-18-outside-1_0_1)"/>
<path d="M80.313 60.6103H84.4545V70.2786H90V73.7008H80.313V60.6103Z" stroke="#F5C57B" stroke-width="2" mask="url(#path-18-outside-1_0_1)"/>
<path d="M116.246 48.706V52H106.148V49.39L110.702 45.178C111.098 44.806 111.362 44.488 111.494 44.224C111.626 43.96 111.692 43.702 111.692 43.45C111.692 43.138 111.584 42.898 111.368 42.73C111.164 42.55 110.864 42.46 110.468 42.46C110.084 42.46 109.724 42.562 109.388 42.766C109.052 42.97 108.794 43.258 108.614 43.63L105.41 42.028C105.89 41.128 106.592 40.42 107.516 39.904C108.44 39.376 109.556 39.112 110.864 39.112C111.86 39.112 112.742 39.274 113.51 39.598C114.278 39.922 114.878 40.384 115.31 40.984C115.742 41.584 115.958 42.274 115.958 43.054C115.958 43.75 115.808 44.404 115.508 45.016C115.22 45.616 114.65 46.3 113.798 47.068L111.998 48.706H116.246ZM122.823 52.288C121.707 52.288 120.717 52.03 119.853 51.514C119.001 50.986 118.329 50.23 117.837 49.246C117.357 48.25 117.117 47.068 117.117 45.7C117.117 44.332 117.357 43.156 117.837 42.172C118.329 41.176 119.001 40.42 119.853 39.904C120.717 39.376 121.707 39.112 122.823 39.112C123.939 39.112 124.923 39.376 125.775 39.904C126.639 40.42 127.311 41.176 127.791 42.172C128.283 43.156 128.529 44.332 128.529 45.7C128.529 47.068 128.283 48.25 127.791 49.246C127.311 50.23 126.639 50.986 125.775 51.514C124.923 52.03 123.939 52.288 122.823 52.288ZM122.823 48.886C123.783 48.886 124.263 47.824 124.263 45.7C124.263 43.576 123.783 42.514 122.823 42.514C121.863 42.514 121.383 43.576 121.383 45.7C121.383 47.824 121.863 48.886 122.823 48.886ZM139.484 48.706V52H129.386V49.39L133.94 45.178C134.336 44.806 134.6 44.488 134.732 44.224C134.864 43.96 134.93 43.702 134.93 43.45C134.93 43.138 134.822 42.898 134.606 42.73C134.402 42.55 134.102 42.46 133.706 42.46C133.322 42.46 132.962 42.562 132.626 42.766C132.29 42.97 132.032 43.258 131.852 43.63L128.648 42.028C129.128 41.128 129.83 40.42 130.754 39.904C131.678 39.376 132.794 39.112 134.102 39.112C135.098 39.112 135.98 39.274 136.748 39.598C137.516 39.922 138.116 40.384 138.548 40.984C138.98 41.584 139.196 42.274 139.196 43.054C139.196 43.75 139.046 44.404 138.746 45.016C138.458 45.616 137.888 46.3 137.036 47.068L135.236 48.706H139.484ZM146.331 39.4V52H142.083V42.604H139.923V39.4H146.331ZM111.561 61.4V74H107.313V64.604H105.153V61.4H111.561ZM123.189 70.706V74H113.091V71.39L117.645 67.178C118.041 66.806 118.305 66.488 118.437 66.224C118.569 65.96 118.635 65.702 118.635 65.45C118.635 65.138 118.527 64.898 118.311 64.73C118.107 64.55 117.807 64.46 117.411 64.46C117.027 64.46 116.667 64.562 116.331 64.766C115.995 64.97 115.737 65.258 115.557 65.63L112.353 64.028C112.833 63.128 113.535 62.42 114.459 61.904C115.383 61.376 116.499 61.112 117.807 61.112C118.803 61.112 119.685 61.274 120.453 61.598C121.221 61.922 121.821 62.384 122.253 62.984C122.685 63.584 122.901 64.274 122.901 65.054C122.901 65.75 122.751 66.404 122.451 67.016C122.163 67.616 121.593 68.3 120.741 69.068L118.941 70.706H123.189ZM126.45 74.18C125.766 74.18 125.196 73.964 124.74 73.532C124.296 73.088 124.074 72.524 124.074 71.84C124.074 71.156 124.296 70.604 124.74 70.184C125.196 69.752 125.766 69.536 126.45 69.536C127.134 69.536 127.698 69.752 128.142 70.184C128.598 70.604 128.826 71.156 128.826 71.84C128.826 72.524 128.598 73.088 128.142 73.532C127.698 73.964 127.134 74.18 126.45 74.18ZM136.952 66.386C137.924 66.626 138.668 67.064 139.184 67.7C139.712 68.324 139.976 69.08 139.976 69.968C139.976 70.724 139.766 71.432 139.346 72.092C138.938 72.74 138.302 73.268 137.438 73.676C136.574 74.084 135.5 74.288 134.216 74.288C133.328 74.288 132.44 74.192 131.552 74C130.676 73.808 129.908 73.526 129.248 73.154L130.688 70.022C131.204 70.322 131.756 70.55 132.344 70.706C132.944 70.862 133.52 70.94 134.072 70.94C134.564 70.94 134.96 70.856 135.26 70.688C135.56 70.52 135.71 70.28 135.71 69.968C135.71 69.392 135.212 69.104 134.216 69.104H132.542V66.494L134.396 64.604H129.896V61.4H139.292V64.01L136.952 66.386ZM146.911 61.4V74H142.663V64.604H140.503V61.4H146.911Z" fill="#F5C57B"/>
<path d="M181.032 47.706V51H170.934V48.39L175.488 44.178C175.884 43.806 176.148 43.488 176.28 43.224C176.412 42.96 176.478 42.702 176.478 42.45C176.478 42.138 176.37 41.898 176.154 41.73C175.95 41.55 175.65 41.46 175.254 41.46C174.87 41.46 174.51 41.562 174.174 41.766C173.838 41.97 173.58 42.258 173.4 42.63L170.196 41.028C170.676 40.128 171.378 39.42 172.302 38.904C173.226 38.376 174.342 38.112 175.65 38.112C176.646 38.112 177.528 38.274 178.296 38.598C179.064 38.922 179.664 39.384 180.096 39.984C180.528 40.584 180.744 41.274 180.744 42.054C180.744 42.75 180.594 43.404 180.294 44.016C180.006 44.616 179.436 45.3 178.584 46.068L176.784 47.706H181.032ZM187.609 51.288C186.493 51.288 185.503 51.03 184.639 50.514C183.787 49.986 183.115 49.23 182.623 48.246C182.143 47.25 181.903 46.068 181.903 44.7C181.903 43.332 182.143 42.156 182.623 41.172C183.115 40.176 183.787 39.42 184.639 38.904C185.503 38.376 186.493 38.112 187.609 38.112C188.725 38.112 189.709 38.376 190.561 38.904C191.425 39.42 192.097 40.176 192.577 41.172C193.069 42.156 193.315 43.332 193.315 44.7C193.315 46.068 193.069 47.25 192.577 48.246C192.097 49.23 191.425 49.986 190.561 50.514C189.709 51.03 188.725 51.288 187.609 51.288ZM187.609 47.886C188.569 47.886 189.049 46.824 189.049 44.7C189.049 42.576 188.569 41.514 187.609 41.514C186.649 41.514 186.169 42.576 186.169 44.7C186.169 46.824 186.649 47.886 187.609 47.886ZM204.27 47.706V51H194.172V48.39L198.726 44.178C199.122 43.806 199.386 43.488 199.518 43.224C199.65 42.96 199.716 42.702 199.716 42.45C199.716 42.138 199.608 41.898 199.392 41.73C199.188 41.55 198.888 41.46 198.492 41.46C198.108 41.46 197.748 41.562 197.412 41.766C197.076 41.97 196.818 42.258 196.638 42.63L193.434 41.028C193.914 40.128 194.616 39.42 195.54 38.904C196.464 38.376 197.58 38.112 198.888 38.112C199.884 38.112 200.766 38.274 201.534 38.598C202.302 38.922 202.902 39.384 203.334 39.984C203.766 40.584 203.982 41.274 203.982 42.054C203.982 42.75 203.832 43.404 203.532 44.016C203.244 44.616 202.674 45.3 201.822 46.068L200.022 47.706H204.27ZM215.221 47.706V51H205.123V48.39L209.677 44.178C210.073 43.806 210.337 43.488 210.469 43.224C210.601 42.96 210.667 42.702 210.667 42.45C210.667 42.138 210.559 41.898 210.343 41.73C210.139 41.55 209.839 41.46 209.443 41.46C209.059 41.46 208.699 41.562 208.363 41.766C208.027 41.97 207.769 42.258 207.589 42.63L204.385 41.028C204.865 40.128 205.567 39.42 206.491 38.904C207.415 38.376 208.531 38.112 209.839 38.112C210.835 38.112 211.717 38.274 212.485 38.598C213.253 38.922 213.853 39.384 214.285 39.984C214.717 40.584 214.933 41.274 214.933 42.054C214.933 42.75 214.783 43.404 214.483 44.016C214.195 44.616 213.625 45.3 212.773 46.068L210.973 47.706H215.221ZM181.199 60.4V73H176.951V63.604H174.791V60.4H181.199ZM190.357 73.18C189.673 73.18 189.103 72.964 188.647 72.532C188.203 72.088 187.981 71.524 187.981 70.84C187.981 70.156 188.203 69.604 188.647 69.184C189.103 68.752 189.673 68.536 190.357 68.536C191.041 68.536 191.605 68.752 192.049 69.184C192.505 69.604 192.733 70.156 192.733 70.84C192.733 71.524 192.505 72.088 192.049 72.532C191.605 72.964 191.041 73.18 190.357 73.18ZM211.228 70.84H209.554V73H205.432V70.84H198.898V68.14L204.244 60.4H208.6L203.848 67.546H205.558V65.62H209.554V67.546H211.228V70.84Z" fill="#F5C57B"/>
<path d="M148 44.628H166V46.968H148V44.628Z" fill="#F5C57B"/>
<path d="M13.4993 27.6503C14.4219 27.9854 15.1361 28.4736 15.642 29.1148C16.148 29.7559 16.4009 30.5282 16.4009 31.4317C16.4009 32.7723 15.8355 33.8142 14.7046 34.5574C13.5737 35.286 11.9369 35.6503 9.79415 35.6503H1V20.3497H9.34774C11.431 20.3497 13.0008 20.714 14.0573 21.4426C15.1287 22.1712 15.6644 23.1403 15.6644 24.3497C15.6644 25.0638 15.4783 25.7049 15.1063 26.2732C14.7492 26.8415 14.2135 27.3005 13.4993 27.6503ZM6.17828 23.9563V26.2295H8.6335C9.77927 26.2295 10.3522 25.8506 10.3522 25.0929C10.3522 24.3352 9.77927 23.9563 8.6335 23.9563H6.17828ZM9.34774 32.0437C10.5084 32.0437 11.0887 31.643 11.0887 30.8415C11.0887 30.0401 10.5084 29.6393 9.34774 29.6393H6.17828V32.0437H9.34774Z" fill="#F5C57B"/>
<path d="M31.2536 31.7596V35.6503H18.2633V20.3497H30.9634V24.2404H23.4415V26.0328H30.0483V29.7486H23.4415V31.7596H31.2536Z" fill="#F5C57B"/>
<path d="M33.2814 20.3497H38.549V35.6503H33.2814V20.3497Z" fill="#F5C57B"/>
<path d="M45.0354 36C43.8153 36 42.7067 35.8106 41.7097 35.4317C40.7276 35.0382 39.9167 34.4699 39.2768 33.7268L42.1115 30.4481C42.5281 30.9581 42.9373 31.337 43.3391 31.5847C43.7409 31.8324 44.1575 31.9563 44.589 31.9563C45.1396 31.9563 45.5562 31.796 45.839 31.4754C46.1366 31.1548 46.2854 30.6812 46.2854 30.0546V24.2404H40.9732V20.3497H51.486V29.7486C51.486 31.8324 50.9354 33.3989 49.8343 34.4481C48.748 35.4827 47.1484 36 45.0354 36Z" fill="#F5C57B"/>
<path d="M53.9014 20.3497H59.169V35.6503H53.9014V20.3497Z" fill="#F5C57B"/>
<path d="M77.1057 20.3497V35.6503H72.7756L66.8384 28.6995V35.6503H61.7048V20.3497H66.0349L71.972 27.3005V20.3497H77.1057Z" fill="#F5C57B"/>
<path d="M89.978 27.5847H94.5536V34.0546C93.631 34.6812 92.5597 35.1621 91.3395 35.4973C90.1193 35.8324 88.9215 36 87.7459 36C86.0794 36 84.5839 35.6648 83.2596 34.9945C81.9352 34.3097 80.8936 33.3625 80.1348 32.153C79.3908 30.929 79.0188 29.5446 79.0188 28C79.0188 26.4554 79.3908 25.0783 80.1348 23.8689C80.8936 22.6448 81.9427 21.6976 83.2819 21.0273C84.636 20.3424 86.1612 20 87.8575 20C89.3902 20 90.7592 20.255 91.9644 20.765C93.1846 21.2605 94.1965 21.9891 95 22.9508L91.6296 25.8579C90.6476 24.7359 89.4795 24.1749 88.1254 24.1749C86.9647 24.1749 86.0422 24.5173 85.3577 25.2022C84.6732 25.8871 84.331 26.8197 84.331 28C84.331 29.1512 84.6658 30.0765 85.3354 30.776C86.0198 31.4754 86.9275 31.8251 88.0584 31.8251C88.728 31.8251 89.3679 31.7013 89.978 31.4536V27.5847Z" fill="#F5C57B"/>
<path fill-rule="evenodd" clip-rule="evenodd" d="M13.9706 0.656854C13.1895 -0.124194 11.9232 -0.124194 11.1421 0.656854L8.31372 3.48528L5.48529 0.656854C4.70425 -0.124195 3.43792 -0.124195 2.65687 0.656854C1.87582 1.4379 1.87582 2.70423 2.65687 3.48528L5.48529 6.31371L2.65687 9.14214C1.87582 9.92318 1.87582 11.1895 2.65687 11.9706C3.43792 12.7516 4.70425 12.7516 5.48529 11.9706L8.31372 9.14214L11.1421 11.9706C11.9232 12.7516 13.1895 12.7516 13.9706 11.9706C14.7516 11.1895 14.7516 9.92318 13.9706 9.14214L11.1421 6.31371L13.9706 3.48528C14.7516 2.70423 14.7516 1.4379 13.9706 0.656854Z" fill="white"/>
</svg>
