<svg width="91" height="52" viewBox="0 0 91 52" fill="none" xmlns="http://www.w3.org/2000/svg">
<path fill-rule="evenodd" clip-rule="evenodd" d="M12.9706 0.656854C12.1895 -0.124194 10.9232 -0.124194 10.1421 0.656854L7.31372 3.48528L4.48529 0.656854C3.70425 -0.124195 2.43792 -0.124195 1.65687 0.656854C0.875819 1.4379 0.875819 2.70423 1.65687 3.48528L4.48529 6.31371L1.65687 9.14214C0.875818 9.92318 0.875818 11.1895 1.65687 11.9706C2.43792 12.7516 3.70425 12.7516 4.48529 11.9706L7.31372 9.14214L10.1421 11.9706C10.9232 12.7516 12.1895 12.7516 12.9706 11.9706C13.7516 11.1895 13.7516 9.92318 12.9706 9.14214L10.1421 6.31371L12.9706 3.48528C13.7516 2.70423 13.7516 1.4379 12.9706 0.656854Z" fill="white"/>
<path d="M7.14155 50.8897H7.64155V50.3897V47.6732H8.91399C10.107 47.6732 11.1716 47.4634 12.0938 47.0266C13.0183 46.5888 13.7442 45.9513 14.2546 45.1147C14.765 44.2778 15.0121 43.3124 15.0121 42.2362C15.0121 41.1599 14.765 40.1946 14.2546 39.3577C13.7442 38.5211 13.0183 37.8836 12.0938 37.4458C11.1716 37.009 10.107 36.7992 8.91399 36.7992H3H2.5V37.2992V50.3897V50.8897H3H7.14155ZM8.65076 43.2696H7.64155V41.2027H8.65076C9.13816 41.2027 9.41132 41.3218 9.5649 41.4718L9.5648 41.4719L9.5733 41.4798C9.7271 41.6233 9.83546 41.8493 9.83546 42.2362C9.83546 42.6186 9.72927 42.8564 9.56914 43.0151C9.41514 43.1561 9.13918 43.2696 8.65076 43.2696ZM17.9413 47.6264L17.9426 47.6286C18.5849 48.7426 19.4757 49.6173 20.607 50.2469C21.7414 50.8781 23.0139 51.1889 24.4126 51.1889C25.8112 51.1889 27.0838 50.8781 28.2182 50.2469C29.3495 49.6173 30.2403 48.7426 30.8826 47.6286L30.8839 47.6264C31.5271 46.4973 31.8444 45.2326 31.8444 43.8445C31.8444 42.4568 31.5273 41.1976 30.8831 40.0799C30.2413 38.9539 29.3506 38.0722 28.2182 37.442C27.0838 36.8108 25.8112 36.5 24.4126 36.5C23.0139 36.5 21.7414 36.8108 20.607 37.442C19.4746 38.0722 18.5838 38.954 17.942 40.0801C17.2978 41.1977 16.9808 42.4568 16.9808 43.8445C16.9808 45.2326 17.298 46.4973 17.9413 47.6264ZM26.3507 42.345L26.3507 42.345L26.353 42.3495C26.5566 42.7524 26.6678 43.2456 26.6678 43.8445C26.6678 44.4418 26.5571 44.9426 26.3519 45.3603C26.143 45.7729 25.8676 46.0825 25.5278 46.3043C25.204 46.5108 24.837 46.6171 24.4126 46.6171C23.9904 46.6171 23.6168 46.5119 23.2799 46.3042C22.9529 46.0834 22.6828 45.7741 22.4734 45.3604C22.268 44.9427 22.1574 44.4419 22.1574 43.8445C22.1574 43.2456 22.2686 42.7524 22.4722 42.3495L22.4722 42.3495L22.4745 42.345C22.6857 41.9161 22.956 41.6104 23.278 41.4045L23.278 41.4045L23.2815 41.4022C23.6195 41.1822 23.9922 41.0718 24.4126 41.0718C24.8329 41.0718 25.1973 41.1821 25.5207 41.3987L25.5278 41.4034L25.535 41.4079C25.8675 41.6146 26.1412 41.9196 26.3507 42.345ZM45.4915 47.061V46.561H44.9915H39.3493V45.8405H44.0438H44.5438V45.3405V42.1614V41.6614H44.0438H39.3493V41.1279H44.7633H45.2633V40.6279V37.2992V36.7992H44.7633H34.778H34.278V37.2992V50.3897V50.8897H34.778H44.9915H45.4915V50.3897V47.061ZM47.0861 40.7214V41.2214H47.5861H50.6836V50.3897V50.8897H51.1836H55.3252H55.8252V50.3897V41.2214H58.9227H59.4227V40.7214V37.2992V36.7992H58.9227H47.5861H47.0861V37.2992V40.7214ZM71.8194 46.5096C72.4289 46.0922 72.9179 45.5667 73.2787 44.9335C73.726 44.1484 73.9409 43.2437 73.9409 42.2362C73.9409 41.1599 73.6938 40.1946 73.1833 39.3577C72.673 38.5211 71.9471 37.8836 71.0226 37.4458C70.1004 37.009 69.0358 36.7992 67.8428 36.7992H61.9288H61.4288V37.2992V50.3897V50.8897H61.9288H66.0703H66.5703V50.3897V47.5984H66.9186L68.8596 50.6576L69.0069 50.8897H69.2818H73.7041H74.6167L74.1255 50.1206L71.8194 46.5096ZM68.4937 41.4718L68.4936 41.4719L68.5021 41.4798C68.6559 41.6233 68.7642 41.8494 68.7642 42.2362C68.7642 42.6186 68.658 42.8564 68.4979 43.0151C68.3439 43.1562 68.0679 43.2696 67.5795 43.2696H66.5703V41.2027H67.5795C68.0669 41.2027 68.3401 41.3218 68.4937 41.4718ZM82.1704 40.7965L80.0967 37.0567L79.9539 36.7992H79.6594H75.2897H74.4372L74.8533 37.5433L79.4226 45.7139V50.3897V50.8897H79.9226H84.0642H84.5642V50.3897V45.7693L89.1342 37.542L89.5468 36.7992H88.6971H84.6959H84.4025L84.2594 37.0554L82.1704 40.7965Z" stroke="#F5C57B"/>
<path d="M10.6478 22.226L7.91939 17.7402L7.77331 17.5H7.4922H2H1.10672L1.5738 18.2614L7.32306 27.634V33V33.5H7.82306H13.0285H13.5285V33V27.6975L19.2786 18.2602L19.7417 17.5H18.8516H13.8226H13.5425L13.3962 17.7388L10.6478 22.226ZM22.1389 33.5H22.4785L22.6037 33.1843L23.5152 30.8857H28.7032L29.6147 33.1843L29.7399 33.5H30.0795H35.4614H35.7921H36.2346H36.2921H41.3653H41.8653V33V27.5327L46.8535 33.3262L47.0031 33.5H47.2324H51.5115H52.0115V33V18V17.5H51.5115H46.4384H45.9384V18V23.4673L40.9501 17.6738L40.8005 17.5H40.5712H36.2921H35.7921V18V32.5166L29.1679 17.7948L29.0352 17.5H28.7119H23.5947H23.2714L23.1387 17.7948L16.3893 32.7948L16.072 33.5H16.8452H22.1389ZM52.3506 21.9214V22.4214H52.8506H56.8723V33V33.5H57.3723H62.5777H63.0777V33V22.4214H67.0994H67.5994V21.9214V18V17.5H67.0994H52.8506H52.3506V18V21.9214ZM68.4515 17.5H67.9515V18V33V33.5H68.4515H73.6569H74.1569V33V18V17.5H73.6569H68.4515ZM89.5 29.1857V28.6857H89H81.78V27.7143H87.8089H88.3089V27.2143V23.5714V23.0714H87.8089H81.78V22.3143H88.7133H89.2133V21.8143V18V17.5H88.7133H76.1628H75.6628V18V33V33.5H76.1628H89H89.5V33V29.1857ZM25.3463 26.2429L26.1092 24.3244L26.8721 26.2429H25.3463Z" stroke="#F5C57B"/>
</svg>
