<svg width="375" height="931" viewBox="0 0 375 931" fill="none" xmlns="http://www.w3.org/2000/svg">
<g filter="url(#filter0_f_3_1682)">
<path fill-rule="evenodd" clip-rule="evenodd" d="M371.5 462C432.527 462 482 412.527 482 351.5C482 290.473 432.527 241 371.5 241C310.473 241 261 290.473 261 351.5C261 412.527 310.473 462 371.5 462ZM371.5 405.465C401.304 405.465 425.465 381.304 425.465 351.5C425.465 321.696 401.304 297.535 371.5 297.535C341.696 297.535 317.535 321.696 317.535 351.5C317.535 381.304 341.696 405.465 371.5 405.465Z" fill="url(#paint0_linear_3_1682)" fill-opacity="0.5"/>
</g>
<g filter="url(#filter1_f_3_1682)">
<rect x="155.783" y="4" width="137.605" height="415.472" transform="rotate(45 155.783 4)" fill="url(#paint1_linear_3_1682)" fill-opacity="0.3"/>
</g>
<g filter="url(#filter2_f_3_1682)">
<rect x="265" y="564" width="69" height="415" transform="rotate(90 265 564)" fill="url(#paint2_linear_3_1682)" fill-opacity="0.3"/>
</g>
<g filter="url(#filter3_f_3_1682)">
<rect x="142" y="718" width="69" height="415" transform="rotate(-90 142 718)" fill="url(#paint3_linear_3_1682)" fill-opacity="0.3"/>
</g>
<g filter="url(#filter4_f_3_1682)">
<rect x="265" y="773" width="69" height="415" transform="rotate(90 265 773)" fill="url(#paint4_linear_3_1682)" fill-opacity="0.3"/>
</g>
<g filter="url(#filter5_f_3_1682)">
<rect x="142" y="927" width="69" height="415" transform="rotate(-90 142 927)" fill="url(#paint5_linear_3_1682)" fill-opacity="0.3"/>
</g>
<defs>
<filter id="filter0_f_3_1682" x="248" y="228" width="247" height="247" filterUnits="userSpaceOnUse" color-interpolation-filters="sRGB">
<feFlood flood-opacity="0" result="BackgroundImageFix"/>
<feBlend mode="normal" in="SourceGraphic" in2="BackgroundImageFix" result="shape"/>
<feGaussianBlur stdDeviation="6.5" result="effect1_foregroundBlur_3_1682"/>
</filter>
<filter id="filter1_f_3_1682" x="-142" y="0" width="399.084" height="399.084" filterUnits="userSpaceOnUse" color-interpolation-filters="sRGB">
<feFlood flood-opacity="0" result="BackgroundImageFix"/>
<feBlend mode="normal" in="SourceGraphic" in2="BackgroundImageFix" result="shape"/>
<feGaussianBlur stdDeviation="2" result="effect1_foregroundBlur_3_1682"/>
</filter>
<filter id="filter2_f_3_1682" x="-154" y="560" width="423" height="77" filterUnits="userSpaceOnUse" color-interpolation-filters="sRGB">
<feFlood flood-opacity="0" result="BackgroundImageFix"/>
<feBlend mode="normal" in="SourceGraphic" in2="BackgroundImageFix" result="shape"/>
<feGaussianBlur stdDeviation="2" result="effect1_foregroundBlur_3_1682"/>
</filter>
<filter id="filter3_f_3_1682" x="138" y="645" width="423" height="77" filterUnits="userSpaceOnUse" color-interpolation-filters="sRGB">
<feFlood flood-opacity="0" result="BackgroundImageFix"/>
<feBlend mode="normal" in="SourceGraphic" in2="BackgroundImageFix" result="shape"/>
<feGaussianBlur stdDeviation="2" result="effect1_foregroundBlur_3_1682"/>
</filter>
<filter id="filter4_f_3_1682" x="-154" y="769" width="423" height="77" filterUnits="userSpaceOnUse" color-interpolation-filters="sRGB">
<feFlood flood-opacity="0" result="BackgroundImageFix"/>
<feBlend mode="normal" in="SourceGraphic" in2="BackgroundImageFix" result="shape"/>
<feGaussianBlur stdDeviation="2" result="effect1_foregroundBlur_3_1682"/>
</filter>
<filter id="filter5_f_3_1682" x="138" y="854" width="423" height="77" filterUnits="userSpaceOnUse" color-interpolation-filters="sRGB">
<feFlood flood-opacity="0" result="BackgroundImageFix"/>
<feBlend mode="normal" in="SourceGraphic" in2="BackgroundImageFix" result="shape"/>
<feGaussianBlur stdDeviation="2" result="effect1_foregroundBlur_3_1682"/>
</filter>
<linearGradient id="paint0_linear_3_1682" x1="371.5" y1="241" x2="371.5" y2="462" gradientUnits="userSpaceOnUse">
<stop stop-color="#C4C4C4"/>
<stop offset="1" stop-color="#C4C4C4" stop-opacity="0"/>
</linearGradient>
<linearGradient id="paint1_linear_3_1682" x1="224.585" y1="4" x2="224.585" y2="419.472" gradientUnits="userSpaceOnUse">
<stop stop-color="#C4C4C4" stop-opacity="0"/>
<stop offset="1" stop-color="#C4C4C4"/>
</linearGradient>
<linearGradient id="paint2_linear_3_1682" x1="299.5" y1="564" x2="299.5" y2="979" gradientUnits="userSpaceOnUse">
<stop stop-color="#C4C4C4" stop-opacity="0"/>
<stop offset="1" stop-color="#C4C4C4"/>
</linearGradient>
<linearGradient id="paint3_linear_3_1682" x1="176.5" y1="718" x2="176.5" y2="1133" gradientUnits="userSpaceOnUse">
<stop stop-color="#C4C4C4" stop-opacity="0"/>
<stop offset="1" stop-color="#C4C4C4"/>
</linearGradient>
<linearGradient id="paint4_linear_3_1682" x1="299.5" y1="773" x2="299.5" y2="1188" gradientUnits="userSpaceOnUse">
<stop stop-color="#C4C4C4" stop-opacity="0"/>
<stop offset="1" stop-color="#C4C4C4"/>
</linearGradient>
<linearGradient id="paint5_linear_3_1682" x1="176.5" y1="927" x2="176.5" y2="1342" gradientUnits="userSpaceOnUse">
<stop stop-color="#C4C4C4" stop-opacity="0"/>
<stop offset="1" stop-color="#C4C4C4"/>
</linearGradient>
</defs>
</svg>
