<svg width="96" height="21" viewBox="0 0 96 21" fill="none" xmlns="http://www.w3.org/2000/svg">
<path d="M0 0L10.1405 7.50465L20.281 0L20.339 20.5882H0.0579458L0 0Z" fill="#F5C57B"/>
<path d="M33.7627 0V20.5882H23.1864V0H33.7627Z" fill="#F5C57B"/>
<path d="M47.2881 0C48.5788 0 49.7424 0.289216 50.7789 0.867647C51.8155 1.44608 52.6271 2.20098 53.2138 3.13235C53.8005 4.06373 54.0938 5.03922 54.0938 6.05882C54.0938 7.39216 53.6342 8.55882 52.7151 9.55882C53.4582 10.1078 54.0107 10.75 54.3725 11.4853C54.7343 12.2206 54.9152 13 54.9152 13.8235C54.9152 14.9412 54.5876 16.0196 53.9325 17.0588C53.2773 18.098 52.3435 18.9461 51.131 19.6029C49.9185 20.2598 48.5299 20.5882 46.9654 20.5882H36.6101V0H47.2881Z" fill="#F5C57B"/>
<path d="M65.6949 0.411774L77.2881 20.5882H54.1017L65.6949 0.411774Z" fill="#F5C57B"/>
<path d="M85.8305 0.411774C87.6663 0.411774 89.3657 0.871743 90.9289 1.79168C92.492 2.71162 93.728 3.96274 94.6368 5.54503C95.5456 7.12733 96 8.84761 96 10.7059C96 12.5642 95.5456 14.2845 94.6368 15.8667C93.728 17.449 92.492 18.7002 90.9289 19.6201C89.3657 20.54 87.6663 21 85.8305 21C83.9947 21 82.2953 20.54 80.7321 19.6201C79.169 18.7002 77.933 17.449 77.0242 15.8667C76.1154 14.2845 75.661 12.5642 75.661 10.7059C75.661 8.84761 76.1154 7.12733 77.0242 5.54503C77.933 3.96274 79.169 2.71162 80.7321 1.79168C82.2953 0.871743 83.9947 0.411774 85.8305 0.411774Z" fill="#F5C57B"/>
</svg>
