<svg width="303" height="266" viewBox="0 0 303 266" fill="none" xmlns="http://www.w3.org/2000/svg">
<g filter="url(#filter0_f_0_1)">
<circle cx="170" cy="133" r="129" fill="url(#paint0_linear_0_1)" fill-opacity="0.7"/>
<circle cx="170" cy="133" r="127" stroke="url(#paint1_linear_0_1)" stroke-width="4"/>
</g>
<path d="M97.2588 82.8762C97.2588 84.9474 96.8152 86.8978 95.9281 88.7273C95.041 90.5569 93.8147 92.1103 92.2492 93.3875C90.6837 94.6648 88.9269 95.545 86.9787 96.0283V107.834C86.9787 109.111 87.3005 110.302 87.9441 111.407C88.5877 112.512 89.4661 113.383 90.5793 114.022C91.6926 114.66 92.8928 114.98 94.18 114.98H97.2066V119.588H94.18C92.0231 119.588 90.0401 119.053 88.2311 117.983C86.4221 116.913 84.987 115.48 83.926 113.685C82.8649 111.89 82.3344 109.94 82.3344 107.834V67.9636H86.9787V91.2128C88.6486 90.5224 90.0053 89.4177 91.049 87.8989C92.0926 86.38 92.6145 84.7058 92.6145 82.8762V79.7176H97.2588V82.8762ZM60 77.9571H69.2886V68.1707H73.9329V119.744H69.2886V106.54H60V101.931H69.2886V82.5138H60V77.9571Z" fill="white"/>
<path d="M113.07 67.9636H128.151V72.572H113.07V67.9636ZM101.59 74.9021H138.901V79.5105H101.59V74.9021ZM135.927 88.3131C135.927 89.6939 135.579 90.9798 134.883 92.1707C134.187 93.3616 133.248 94.3023 132.065 94.9927C130.882 95.6831 129.595 96.0283 128.203 96.0283H122.985V111.044C122.985 112.598 122.594 114.048 121.811 115.394C121.028 116.74 119.967 117.802 118.628 118.578C117.289 119.355 115.819 119.744 114.218 119.744H111.818V115.083H114.218C115.332 115.083 116.288 114.686 117.088 113.892C117.889 113.098 118.289 112.149 118.289 111.044V96.0283H105.243V81.9442H135.927V88.3131ZM109.939 86.5526V91.3681H128.203C129.038 91.3681 129.752 91.0747 130.343 90.4879C130.934 89.901 131.23 89.1761 131.23 88.3131V86.5526H109.939ZM106.808 98.6173H111.453V107.057C111.453 108.818 111.009 110.449 110.122 111.951C109.235 113.452 108.043 114.643 106.547 115.523C105.052 116.404 103.416 116.844 101.642 116.844V112.184C103.069 112.184 104.286 111.683 105.295 110.682C106.304 109.681 106.808 108.473 106.808 107.057V98.6173ZM133.996 107.057C133.996 108.473 134.5 109.681 135.509 110.682C136.518 111.683 137.736 112.184 139.162 112.184V116.844C137.388 116.844 135.753 116.404 134.257 115.523C132.761 114.643 131.569 113.452 130.682 111.951C129.795 110.449 129.352 108.818 129.352 107.057V98.6173H133.996V107.057Z" fill="white"/>
<path d="M204.604 76.9339V71.808H225.107V91.0302H220.622V76.9339H204.604Z" fill="white"/>
<path d="M204.604 98.7191V93.5932H225.107V110.893C225.107 111.534 224.979 114.097 221.904 116.66C218.828 119.223 214.856 119.223 213.574 119.223V114.097C214.856 114.097 217.54 113.685 218.7 112.815C221.263 110.893 220.836 109.825 221.263 108.971V98.7191H204.604Z" fill="white"/>
<path d="M233.437 108.33V89.7487H237.922V108.33C237.922 109.612 239.204 112.175 240.485 112.815C241.782 113.464 244.33 114.097 245.611 114.097V118.582C244.543 118.582 241.767 118.326 239.204 117.301C236.641 116.275 235.573 115.165 235.359 114.738C235.146 115.165 234.719 116.66 232.796 117.941C230.987 119.148 227.884 119.223 226.389 119.223V114.097C227.67 114.097 229.336 114.353 230.874 112.815C232.412 111.278 233.224 109.185 233.437 108.33Z" fill="white"/>
<path fill-rule="evenodd" clip-rule="evenodd" d="M211.315 84.9271C209.45 86.7928 209.409 89.1413 209.409 90.3895L204.924 90.3895C204.924 90.374 204.924 90.3581 204.924 90.3418C204.924 88.979 204.922 84.9773 208.144 81.7556C211.366 78.5339 215.367 78.5353 216.73 78.5358C216.746 78.5358 216.762 78.5358 216.778 78.5358L216.778 83.021C215.53 83.021 213.181 83.0614 211.315 84.9271Z" fill="white"/>
<path fill-rule="evenodd" clip-rule="evenodd" d="M211.315 106.712C209.45 108.578 209.409 110.926 209.409 112.175L204.924 112.175C204.924 112.159 204.924 112.143 204.924 112.127C204.924 110.764 204.922 106.762 208.144 103.541C211.366 100.319 215.367 100.32 216.73 100.321C216.746 100.321 216.762 100.321 216.778 100.321L216.778 104.806C215.53 104.806 213.181 104.847 211.315 106.712Z" fill="white"/>
<path fill-rule="evenodd" clip-rule="evenodd" d="M235.039 70.5266C235.039 71.7747 234.999 74.1232 233.133 75.9889C231.267 77.8547 228.919 77.8951 227.67 77.8951L227.67 82.3802L227.718 82.3803H227.718C229.033 82.3807 232.802 82.3821 235.959 79.491C237.131 79.9314 238.547 80.7279 239.486 82.3551C240.834 84.69 240.819 86.7437 240.808 88.3002L240.808 88.3005C240.807 88.4394 240.806 88.5743 240.806 88.7051H245.291C245.291 88.5879 245.292 88.4575 245.294 88.315L245.294 88.3146C245.313 86.705 245.351 83.543 243.371 80.1125C242.045 77.817 240.183 76.5069 238.597 75.7432C239.525 73.5257 239.524 71.4744 239.524 70.5743L239.524 70.5266L235.039 70.5266Z" fill="white"/>
<path d="M180.896 67.9636H175.771V71.808H167.441V76.934H175.771V85.9043H163.596V91.0302H194.352V85.9043H181.537V76.934H190.508V71.808H180.896V67.9636Z" fill="white"/>
<path fill-rule="evenodd" clip-rule="evenodd" d="M150.49 102.849C150.151 102.867 149.827 102.884 149.5 102.884V98.3987C149.553 98.3987 149.664 98.3929 149.821 98.3847C150.494 98.3496 152.013 98.2704 153.408 98.4099C155.229 98.592 157.602 99.1645 159.416 100.978C160.735 102.297 161.192 104.018 161.376 105.485C161.53 106.705 161.523 108.042 161.516 109.188C161.515 109.406 161.514 109.618 161.514 109.82C161.514 111.214 161.566 112.234 161.784 112.981C161.969 113.612 162.194 113.812 162.507 113.937C164.578 114.765 166.444 114.597 167.745 114.481C168.121 114.447 168.45 114.417 168.722 114.417V118.902C168.738 118.902 168.747 118.902 168.747 118.902C168.747 118.903 168.704 118.905 168.583 118.917C168.544 118.921 168.495 118.926 168.44 118.931C168.316 118.944 168.161 118.959 168.004 118.973C167.526 119.017 166.893 119.063 166.159 119.063C164.704 119.063 162.795 118.883 160.841 118.101C158.912 117.329 157.936 115.799 157.479 114.24C157.057 112.796 157.029 111.166 157.029 109.82C157.029 109.565 157.03 109.317 157.031 109.077C157.036 107.93 157.04 106.947 156.926 106.046C156.791 104.969 156.527 104.432 156.244 104.149C155.494 103.4 154.343 103.011 152.961 102.873C151.961 102.773 151.193 102.813 150.49 102.849Z" fill="white"/>
<path fill-rule="evenodd" clip-rule="evenodd" d="M154.963 85.8882C153.097 84.0225 150.748 83.9821 149.5 83.9821V79.4969C149.516 79.4969 149.532 79.4969 149.548 79.4969C150.911 79.4964 154.912 79.495 158.134 82.7167C161.356 85.9384 161.354 89.9401 161.354 91.3029C161.354 91.3192 161.354 91.3351 161.354 91.3506H156.869C156.869 90.1025 156.828 87.754 154.963 85.8882Z" fill="white"/>
<path fill-rule="evenodd" clip-rule="evenodd" d="M172.458 104.2C171.56 103.452 170.891 103.204 170.645 103.204V99.3598C172.321 99.3598 173.894 100.393 174.919 101.247C175.998 102.147 177.01 103.307 177.49 104.267C178.079 105.446 178.252 106.899 178.314 107.944C178.365 108.817 178.346 109.669 178.337 110.061C178.335 110.15 178.333 110.216 178.333 110.252L174.489 110.252C174.489 110.136 174.492 110.002 174.495 109.85C174.504 109.421 174.516 108.854 174.476 108.17C174.42 107.217 174.272 106.428 174.051 105.986C173.891 105.665 173.3 104.903 172.458 104.2Z" fill="white"/>
<path d="M187.945 93.5932H182.178V96.1561H163.596V101.282H182.819V110.252C182.819 114.391 179.615 114.738 175.771 114.738V119.223C178.334 119.223 183.331 118.71 185.382 116.66C187.432 114.609 187.945 112.175 187.945 110.252V101.282H194.352V96.1561H187.945V93.5932Z" fill="white"/>
<path fill-rule="evenodd" clip-rule="evenodd" d="M260.143 73.7303V70.5266H264.882V73.7303H264.882V85.9043H260.143V78.8562H260.143H252.019V73.7303H260.143Z" fill="white"/>
<path fill-rule="evenodd" clip-rule="evenodd" d="M275.037 78.8562H265.559V73.7303H275.037V70.5266H280.453V73.7303H287.9V78.8562H280.453V85.9043H275.037L275.037 78.8562Z" fill="white"/>
<path d="M287.223 101.282V96.1561V91.0302H252.019V96.1561H281.807V101.282C281.807 101.709 281.536 102.82 280.453 103.845C279.37 104.87 275.94 105.554 274.36 105.767V110.893C280.073 109.812 287.223 108.33 287.223 101.282Z" fill="white"/>
<path d="M265.037 91.5591L269.919 91.5591V120.036H265.037V91.5591Z" fill="white"/>
<path d="M25.582 82.0921L22.288 82.0921L22.288 71.9941L24.898 71.9941L29.11 76.5481C29.482 76.9441 29.8 77.2081 30.064 77.3401C30.328 77.4721 30.586 77.5381 30.838 77.5381C31.15 77.5381 31.39 77.4301 31.558 77.2141C31.738 77.0101 31.828 76.7101 31.828 76.3141C31.828 75.9301 31.726 75.5701 31.522 75.2341C31.318 74.8981 31.03 74.6401 30.658 74.4601L32.26 71.2561C33.16 71.7361 33.868 72.4381 34.384 73.3621C34.912 74.2861 35.176 75.4021 35.176 76.7101C35.176 77.7061 35.014 78.5881 34.69 79.3561C34.366 80.1241 33.904 80.7241 33.304 81.1561C32.704 81.5881 32.014 81.8041 31.234 81.8041C30.538 81.8041 29.884 81.6541 29.272 81.3541C28.672 81.0661 27.988 80.4961 27.22 79.6441L25.582 77.8441L25.582 82.0921Z" fill="white" fill-opacity="0.1"/>
<path d="M22 88.6692C22 87.5532 22.258 86.5632 22.774 85.6992C23.302 84.8472 24.058 84.1752 25.042 83.6832C26.038 83.2032 27.22 82.9632 28.588 82.9632C29.956 82.9632 31.132 83.2033 32.116 83.6833C33.112 84.1753 33.868 84.8473 34.384 85.6993C34.912 86.5633 35.176 87.5533 35.176 88.6693C35.176 89.7853 34.912 90.7692 34.384 91.6213C33.868 92.4852 33.112 93.1573 32.116 93.6373C31.132 94.1293 29.956 94.3752 28.588 94.3752C27.22 94.3752 26.038 94.1293 25.042 93.6373C24.058 93.1573 23.302 92.4852 22.774 91.6212C22.258 90.7692 22 89.7852 22 88.6692ZM25.402 88.6693C25.402 89.6293 26.464 90.1093 28.588 90.1093C30.712 90.1093 31.774 89.6293 31.774 88.6693C31.774 87.7093 30.712 87.2292 28.588 87.2292C26.464 87.2292 25.402 87.7092 25.402 88.6693Z" fill="white" fill-opacity="0.1"/>
<path d="M25.582 105.33L22.288 105.33L22.288 95.2324L24.898 95.2324L29.11 99.7864C29.482 100.182 29.8 100.446 30.064 100.578C30.328 100.71 30.586 100.776 30.838 100.776C31.15 100.776 31.39 100.668 31.558 100.452C31.738 100.248 31.828 99.9484 31.828 99.5524C31.828 99.1684 31.726 98.8084 31.522 98.4724C31.318 98.1364 31.03 97.8784 30.658 97.6984L32.26 94.4944C33.16 94.9744 33.868 95.6764 34.384 96.6004C34.912 97.5244 35.176 98.6404 35.176 99.9484C35.176 100.944 35.014 101.826 34.69 102.594C34.366 103.362 33.904 103.962 33.304 104.394C32.704 104.826 32.014 105.042 31.234 105.042C30.538 105.042 29.884 104.892 29.272 104.592C28.672 104.304 27.988 103.734 27.22 102.882L25.582 101.082L25.582 105.33Z" fill="white" fill-opacity="0.1"/>
<path d="M34.888 112.178L22.288 112.178L22.288 107.93L31.684 107.93L31.684 105.77L34.888 105.77L34.888 112.178Z" fill="white" fill-opacity="0.1"/>
<path d="M12.888 77.408L0.288025 77.408L0.288025 73.16L9.68402 73.16L9.68402 71L12.888 71L12.888 77.408Z" fill="white" fill-opacity="0.1"/>
<path d="M3.58202 89.0354L0.288024 89.0354L0.288025 78.9374L2.89803 78.9374L7.11002 83.4914C7.48202 83.8874 7.80003 84.1514 8.06403 84.2834C8.32803 84.4154 8.58603 84.4814 8.83803 84.4814C9.15003 84.4814 9.39002 84.3734 9.55802 84.1574C9.73802 83.9534 9.82803 83.6534 9.82803 83.2574C9.82803 82.8734 9.72603 82.5134 9.52203 82.1774C9.31803 81.8414 9.03003 81.5834 8.65803 81.4034L10.26 78.1994C11.16 78.6794 11.868 79.3814 12.384 80.3054C12.912 81.2294 13.176 82.3454 13.176 83.6534C13.176 84.6494 13.014 85.5314 12.69 86.2994C12.366 87.0674 11.904 87.6674 11.304 88.0994C10.704 88.5314 10.014 88.7474 9.23403 88.7474C8.53803 88.7474 7.88403 88.5974 7.27203 88.2974C6.67203 88.0094 5.98802 87.4394 5.22002 86.5874L3.58202 84.7874L3.58202 89.0354Z" fill="white" fill-opacity="0.1"/>
<path d="M0.108024 92.2964C0.108024 91.6124 0.324023 91.0424 0.756023 90.5864C1.20002 90.1424 1.76402 89.9204 2.44802 89.9204C3.13202 89.9204 3.68403 90.1424 4.10403 90.5864C4.53603 91.0424 4.75202 91.6124 4.75202 92.2964C4.75202 92.9804 4.53603 93.5444 4.10403 93.9884C3.68403 94.4444 3.13202 94.6724 2.44802 94.6724C1.76402 94.6724 1.20002 94.4444 0.756022 93.9884C0.324022 93.5444 0.108024 92.9804 0.108024 92.2964Z" fill="white" fill-opacity="0.1"/>
<path d="M7.90202 102.799C7.66202 103.771 7.22402 104.515 6.58802 105.031C5.96402 105.559 5.20802 105.823 4.32002 105.823C3.56402 105.823 2.85602 105.613 2.19602 105.193C1.54802 104.785 1.02002 104.149 0.612025 103.285C0.204025 102.421 2.53764e-05 101.347 2.54325e-05 100.063C2.54713e-05 99.175 0.0960237 98.287 0.288024 97.399C0.480024 96.523 0.762024 95.755 1.13402 95.095L4.26602 96.535C3.96602 97.051 3.73802 97.603 3.58202 98.191C3.42602 98.791 3.34803 99.367 3.34803 99.919C3.34802 100.411 3.43202 100.807 3.60002 101.107C3.76802 101.407 4.00803 101.557 4.32003 101.557C4.89603 101.557 5.18402 101.059 5.18402 100.063L5.18402 98.389L7.79402 98.389L9.68402 100.243L9.68402 95.743L12.888 95.743L12.888 105.139L10.278 105.139L7.90202 102.799Z" fill="white" fill-opacity="0.1"/>
<path d="M12.888 112.758L0.288023 112.758L0.288023 108.51L9.68402 108.51L9.68402 106.35L12.888 106.35L12.888 112.758Z" fill="white" fill-opacity="0.1"/>
<path d="M26.5819 150.878L23.2879 150.878L23.2879 140.78L25.8979 140.78L30.1099 145.334C30.4819 145.73 30.7999 145.994 31.0639 146.126C31.3279 146.258 31.5859 146.324 31.8379 146.324C32.1499 146.324 32.3899 146.216 32.5579 146C32.7379 145.796 32.8279 145.496 32.8279 145.1C32.8279 144.716 32.7259 144.356 32.5219 144.02C32.3179 143.684 32.0299 143.426 31.6579 143.246L33.2599 140.042C34.1599 140.522 34.8679 141.224 35.3839 142.148C35.9119 143.072 36.1759 144.188 36.1759 145.496C36.1759 146.492 36.0139 147.374 35.6899 148.142C35.3659 148.91 34.9039 149.51 34.3039 149.942C33.7039 150.374 33.0139 150.59 32.2339 150.59C31.5379 150.59 30.8839 150.44 30.2719 150.14C29.6719 149.852 28.9879 149.282 28.2199 148.43L26.5819 146.63L26.5819 150.878Z" fill="white" fill-opacity="0.1"/>
<path d="M22.9999 157.455C22.9999 156.339 23.2579 155.349 23.7739 154.485C24.3019 153.633 25.0579 152.961 26.0419 152.469C27.0379 151.989 28.2199 151.749 29.5879 151.749C30.9559 151.749 32.1319 151.989 33.1159 152.469C34.1119 152.961 34.8679 153.633 35.3839 154.485C35.9119 155.349 36.1759 156.339 36.1759 157.455C36.1759 158.571 35.9119 159.555 35.3839 160.407C34.8679 161.271 34.1119 161.943 33.1159 162.423C32.1319 162.915 30.9559 163.161 29.5879 163.161C28.2199 163.161 27.0379 162.915 26.0419 162.423C25.0579 161.943 24.3019 161.271 23.7739 160.407C23.2579 159.555 22.9999 158.571 22.9999 157.455ZM26.4019 157.455C26.4019 158.415 27.4639 158.895 29.5879 158.895C31.7119 158.895 32.7739 158.415 32.7739 157.455C32.7739 156.495 31.7119 156.015 29.5879 156.015C27.4639 156.015 26.4019 156.495 26.4019 157.455Z" fill="white" fill-opacity="0.1"/>
<path d="M26.5819 174.116L23.2879 174.116L23.2879 164.018L25.8979 164.018L30.1099 168.572C30.4819 168.968 30.7999 169.232 31.0639 169.364C31.3279 169.496 31.5859 169.562 31.8379 169.562C32.1499 169.562 32.3899 169.454 32.5579 169.238C32.7379 169.034 32.8279 168.734 32.8279 168.338C32.8279 167.954 32.7259 167.594 32.5219 167.258C32.3179 166.922 32.0299 166.664 31.6579 166.484L33.2599 163.28C34.1599 163.76 34.8679 164.462 35.3839 165.386C35.9119 166.31 36.1759 167.426 36.1759 168.734C36.1759 169.73 36.0139 170.612 35.6899 171.38C35.3659 172.148 34.9039 172.748 34.3039 173.18C33.7039 173.612 33.0139 173.828 32.2339 173.828C31.5379 173.828 30.8839 173.678 30.2719 173.378C29.6719 173.09 28.9879 172.52 28.2199 171.668L26.5819 169.868L26.5819 174.116Z" fill="white" fill-opacity="0.1"/>
<path d="M26.5819 185.068L23.2879 185.068L23.2879 174.97L25.8979 174.97L30.1099 179.524C30.4819 179.92 30.7999 180.184 31.0639 180.316C31.3279 180.448 31.5859 180.514 31.8379 180.514C32.1499 180.514 32.3899 180.406 32.5579 180.19C32.7379 179.986 32.8279 179.686 32.8279 179.29C32.8279 178.906 32.7259 178.546 32.5219 178.21C32.3179 177.874 32.0299 177.616 31.6579 177.436L33.2599 174.232C34.1599 174.712 34.8679 175.414 35.3839 176.338C35.9119 177.262 36.1759 178.378 36.1759 179.686C36.1759 180.682 36.0139 181.564 35.6899 182.332C35.3659 183.1 34.9039 183.7 34.3039 184.132C33.7039 184.564 33.0139 184.78 32.2339 184.78C31.5379 184.78 30.8839 184.63 30.2719 184.33C29.6719 184.042 28.9879 183.472 28.2199 182.62L26.5819 180.82L26.5819 185.068Z" fill="white" fill-opacity="0.1"/>
<path d="M13.8879 151.046L1.2879 151.046L1.2879 146.798L10.6839 146.798L10.6839 144.638L13.8879 144.638L13.8879 151.046Z" fill="white" fill-opacity="0.1"/>
<path d="M1.1079 160.204C1.1079 159.52 1.3239 158.95 1.7559 158.494C2.1999 158.05 2.7639 157.828 3.4479 157.828C4.1319 157.828 4.6839 158.05 5.1039 158.494C5.5359 158.95 5.7519 159.52 5.7519 160.204C5.7519 160.888 5.5359 161.452 5.1039 161.896C4.6839 162.352 4.1319 162.58 3.4479 162.58C2.7639 162.58 2.1999 162.352 1.7559 161.896C1.3239 161.452 1.1079 160.888 1.1079 160.204Z" fill="white" fill-opacity="0.1"/>
<path d="M3.4479 181.075L3.4479 179.401L1.2879 179.401L1.2879 175.279L3.4479 175.279L3.4479 168.745L6.1479 168.745L13.8879 174.091L13.8879 178.447L6.7419 173.695L6.7419 175.405L8.6679 175.405L8.6679 179.401L6.7419 179.401L6.7419 181.075L3.4479 181.075Z" fill="white" fill-opacity="0.1"/>
<path d="M29.66 117.847L29.66 135.847L27.32 135.847L27.32 117.847L29.66 117.847Z" fill="white" fill-opacity="0.1"/>
<path d="M145.016 155.728L143.072 156.28V152.824H145.256V150.208H143.072V145.696H140.48V150.208H137.96V152.824H140.48V156.976C139.4 157.24 138.392 157.504 137.576 157.672L138.2 160.408C138.896 160.216 139.688 160 140.48 159.76V165.064C140.48 165.376 140.36 165.472 140.072 165.472C139.784 165.496 138.944 165.496 138.08 165.448C138.416 166.216 138.728 167.392 138.8 168.088C140.384 168.112 141.392 168.016 142.136 167.56C142.856 167.104 143.072 166.384 143.072 165.064V158.992C143.84 158.776 144.608 158.536 145.376 158.296L145.016 155.728ZM149.12 149.584H145.568V152.152H149.12V154.624H145.784V157.12H149.096C149.072 157.888 149.024 158.656 148.928 159.4C147.2 159.952 145.544 160.456 144.32 160.768L145.4 163.24C146.288 162.904 147.248 162.544 148.208 162.136C147.608 163.672 146.6 165.04 144.944 166.192C145.52 166.624 146.504 167.512 146.984 168.088C151.16 165.088 151.664 160.6 151.664 155.776V145.672H149.12V149.584ZM160.184 159.76H156.032V157.12H159.536V154.624H156.032V152.152H159.776V149.584H156.032V145.672H153.344V168.064H156.032V162.328H160.184V159.76ZM183.392 147.04H171.728V149.752H183.392V147.04ZM167.12 145.672C165.968 147.352 163.688 149.512 161.696 150.784C162.2 151.336 162.92 152.488 163.28 153.112C165.56 151.528 168.152 149.056 169.88 146.8L167.12 145.672ZM168.032 150.856C166.496 153.568 163.88 156.352 161.432 158.032C162.008 158.632 162.968 159.928 163.376 160.504C164.024 159.976 164.672 159.376 165.344 158.728V168.112H168.2V155.584C169.16 154.384 170.048 153.136 170.768 151.912L168.032 150.856ZM183.992 153.64H170.72V156.352H177.8V164.704C177.8 165.064 177.632 165.16 177.2 165.16C176.768 165.184 175.184 165.184 173.816 165.112C174.2 165.952 174.56 167.176 174.68 168.016C176.816 168.016 178.352 167.968 179.36 167.536C180.416 167.104 180.704 166.312 180.704 164.776V156.352H183.992V153.64ZM194.504 158.8C194.12 158.128 192.296 155.344 191.624 154.432V153.256H194.024V150.616H191.624V145.672H189.032V150.616H186.152V153.256H188.816C188.216 156.088 186.944 159.424 185.6 161.296C186.008 161.944 186.584 163.024 186.848 163.816C187.664 162.616 188.408 160.936 189.032 159.088V168.064H191.624V157.84C192.176 158.92 192.728 160.072 193.04 160.84L194.504 158.8ZM202.376 155.128H199.592V157.12H194.576V159.472H198.032C197.768 162.568 196.976 164.728 193.472 166C194.024 166.528 194.768 167.488 195.056 168.16C197.912 167.008 199.328 165.304 200.072 163.096H203.648C203.504 164.608 203.312 165.328 203.072 165.568C202.88 165.76 202.688 165.784 202.328 165.784C201.944 165.784 201.104 165.76 200.216 165.688C200.576 166.336 200.888 167.32 200.912 168.064C202.04 168.112 203.072 168.088 203.696 168.016C204.368 167.944 204.92 167.752 205.376 167.224C205.976 166.624 206.24 165.088 206.48 161.776C206.528 161.44 206.552 160.792 206.552 160.792H200.6C200.648 160.36 200.696 159.928 200.744 159.472H207.656V157.12H202.376V155.128ZM202.928 150.04C202.76 150.808 202.544 151.696 202.304 152.368H199.4L199.712 152.296C199.616 151.72 199.352 150.784 199.064 150.04H202.928ZM204.872 152.368C205.16 151.696 205.448 150.88 205.784 150.04H207.656V147.76H202.376V145.672H199.592V147.76H194.624V150.04H197.24L196.52 150.184C196.736 150.832 196.976 151.696 197.096 152.368H194.336V156.4H196.832V154.576H205.28V156.352H207.872V152.368H204.872Z" fill="#F5C57B"/>
<path d="M83.5701 181.91H288.291L285.22 190.508C282.164 199.065 274.058 204.777 264.972 204.777H60.4025L63.2101 196.502C66.1698 187.778 74.3582 181.91 83.5701 181.91Z" stroke="#EFD29F"/>
<path d="M61.0317 192.931C64.0603 184.005 72.4391 178 81.8653 178H287.295L283.986 187.267C280.859 196.022 272.565 201.867 263.267 201.867H58L61.0317 192.931Z" fill="url(#paint2_linear_0_1)"/>
<path d="M87.204 186.432V187.284H90.228V195H91.2V187.284H94.224V186.432H87.204ZM97.8017 186.432L94.4297 195H95.4857L96.3977 192.6H100.334L101.246 195H102.314L98.9417 186.432H97.8017ZM96.7097 191.772L98.3537 187.488H98.4017L100.022 191.772H96.7097ZM107.164 187.272H105.232C105.472 186.672 105.652 186.012 105.796 185.304L104.932 185.184C104.824 185.904 104.656 186.6 104.416 187.272H103.3V195.804H104.14V194.772H106.324V195.456H107.164V187.272ZM104.14 193.968V191.34H106.324V193.968H104.14ZM104.14 190.56V188.088H106.324V190.56H104.14ZM109.252 190.056L108.556 190.488C109.384 191.472 110.044 192.36 110.536 193.152L111.22 192.672C110.764 191.928 110.116 191.052 109.252 190.056ZM113.368 187.284H109.54C109.756 186.66 109.924 185.988 110.068 185.28L109.216 185.172C108.904 186.876 108.34 188.316 107.5 189.492L108.016 190.176C108.484 189.564 108.88 188.88 109.216 188.124H112.516C112.492 191.58 112.444 193.656 112.372 194.328C112.276 194.94 111.952 195.252 111.388 195.252C111.016 195.252 110.584 195.24 110.08 195.216L110.284 196.008C110.86 196.032 111.268 196.056 111.508 196.056C112.516 196.056 113.068 195.588 113.188 194.676C113.308 193.74 113.368 191.268 113.368 187.284ZM164.548 193.572C164.308 193.572 164.128 193.632 163.984 193.776C163.84 193.908 163.768 194.088 163.768 194.316C163.768 194.52 163.84 194.7 163.984 194.844C164.128 194.988 164.296 195.06 164.5 195.06C164.62 195.06 164.716 195.036 164.764 195.012C164.764 195.3 164.68 195.564 164.5 195.816C164.308 196.056 164.056 196.236 163.744 196.344V196.932C164.248 196.8 164.668 196.536 164.98 196.152C165.292 195.744 165.448 195.276 165.448 194.748C165.448 194.4 165.364 194.124 165.208 193.908C165.04 193.68 164.812 193.572 164.548 193.572ZM181.708 185.148C181.684 185.532 181.648 185.928 181.612 186.324H178.456V187.116H181.528C181.48 187.464 181.42 187.812 181.372 188.16H179.176V195.048H177.94V195.84H185.8V195.048H184.66V188.16H182.224C182.272 187.824 182.332 187.476 182.38 187.116H185.452V186.324H182.476C182.5 185.988 182.536 185.628 182.56 185.268L181.708 185.148ZM180.004 195.048V193.992H183.832V195.048H180.004ZM180.004 193.296V192.288H183.832V193.296H180.004ZM180.004 191.592V190.608H183.832V191.592H180.004ZM180.004 189.912V188.94H183.832V189.912H180.004ZM176.464 189.228V196.2H177.304V187.752C177.652 187.044 177.952 186.3 178.192 185.52L177.412 185.16C176.884 187.008 176.02 188.652 174.832 190.08L175.12 190.992C175.612 190.44 176.056 189.852 176.464 189.228ZM188.452 191.16V196.2H189.292V190.248C189.712 189.72 190.06 189.168 190.348 188.58L189.604 188.244C189.028 189.444 188.092 190.524 186.82 191.472L187.072 192.3C187.576 191.94 188.032 191.556 188.452 191.16ZM189.556 185.184C188.98 186.288 188.056 187.272 186.784 188.136L187.036 188.976C188.536 187.968 189.616 186.816 190.276 185.52L189.556 185.184ZM191.128 185.616V189.444H196.804V185.616H191.128ZM195.976 188.748H191.956V187.86H195.976V188.748ZM191.956 187.2V186.312H195.976V187.2H191.956ZM190.6 190.296V191.052H195.22V192.072H190.168V192.828H195.22V194.928C195.22 195.216 195.052 195.372 194.728 195.372C194.344 195.372 193.948 195.348 193.516 195.312L193.696 196.128H195.028C195.724 196.128 196.072 195.792 196.072 195.132V192.828H197.8V192.072H196.072V191.052H197.524V190.296H190.6ZM191.86 193.188L191.236 193.632C191.86 194.256 192.376 194.856 192.772 195.408L193.432 194.952C193.072 194.436 192.544 193.848 191.86 193.188ZM200.308 189.54V196.2H201.172V188.208C201.652 187.368 202.048 186.468 202.36 185.52L201.556 185.136C200.968 187.032 200.02 188.724 198.724 190.188L199 191.1C199.468 190.608 199.9 190.092 200.308 189.54ZM208.036 189.972L207.268 190.224C207.856 191.568 208.396 193.128 208.876 194.88L209.632 194.544C209.176 192.912 208.648 191.388 208.036 189.972ZM203.908 187.5H208.456C208.276 188.124 208.048 188.676 207.772 189.18L208.6 189.42C208.9 188.7 209.14 187.968 209.332 187.224V186.66H204.22C204.364 186.24 204.508 185.796 204.628 185.328L203.812 185.16C203.404 186.78 202.744 188.256 201.832 189.588L202.576 190.044C203.08 189.276 203.524 188.436 203.908 187.5ZM205.408 196.116C206.068 196.116 206.404 195.78 206.404 195.108V188.508H205.564V194.892C205.564 195.204 205.408 195.36 205.108 195.36C204.652 195.36 204.16 195.336 203.656 195.3L203.836 196.116H205.408ZM203.608 190.068C203.116 191.82 202.54 193.26 201.892 194.388L202.696 194.676C203.392 193.416 203.956 191.952 204.388 190.284L203.608 190.068ZM212.26 196.068C212.956 196.068 213.316 195.708 213.316 194.988V191.448C213.76 191.232 214.192 190.992 214.624 190.752V189.864C214.192 190.128 213.76 190.368 213.316 190.584V188.232H214.684V187.404H213.316V185.208H212.452V187.404H210.988V188.232H212.452V190.968C211.9 191.196 211.324 191.388 210.748 191.544L210.964 192.408C211.468 192.24 211.972 192.048 212.452 191.844V194.772C212.452 195.108 212.284 195.276 211.96 195.276C211.672 195.276 211.36 195.252 211.048 195.228L211.228 196.068H212.26ZM215.08 190.332V191.172H215.8C216.112 192.216 216.736 193.152 217.66 193.992C216.784 194.616 215.716 195.12 214.444 195.516L214.912 196.248C216.268 195.828 217.42 195.264 218.356 194.568C219.184 195.192 220.216 195.744 221.452 196.224L221.92 195.48C220.756 195.072 219.772 194.592 218.968 194.04C219.832 193.236 220.444 192.264 220.816 191.136V190.332H215.08ZM216.592 191.172H219.964C219.592 192.06 219.028 192.84 218.272 193.512C217.456 192.816 216.904 192.036 216.592 191.172ZM216.004 185.676V187.272C216.004 188.088 215.536 188.712 214.624 189.156L215.2 189.816C216.304 189.192 216.856 188.316 216.856 187.188V186.492H219.184V188.448C219.184 189.144 219.556 189.504 220.324 189.504H221.548V188.7H220.54C220.204 188.7 220.036 188.544 220.036 188.256V185.676H216.004ZM227.308 185.196V194.88H222.988V195.72H233.668V194.88H228.196V189.744H232.648V188.904H228.196V185.196H227.308ZM234.916 190.164V191.028H245.704V190.164H234.916ZM246.988 185.664V186.42H250.612V187.38H247.864V190.044H256.78V187.38H254.032V186.42H257.644V185.664H246.988ZM253.216 187.38H251.428V186.42H253.216V187.38ZM255.952 189.336H254.032V188.1H255.952V189.336ZM253.216 189.336H251.428V188.1H253.216V189.336ZM250.612 189.336H248.692V188.1H250.612V189.336ZM248.368 190.932V191.652H256.324V190.932H248.368ZM247.18 192.528V193.284H252.028V194.964C252.028 195.276 251.848 195.432 251.512 195.432C251.2 195.432 250.876 195.408 250.54 195.384L250.708 196.152H251.788C252.508 196.152 252.868 195.816 252.868 195.156V193.284H257.452V192.528H247.18ZM254.776 193.692L254.2 194.232C255.376 194.88 256.288 195.48 256.948 196.056L257.548 195.456C256.804 194.868 255.88 194.28 254.776 193.692ZM250.096 193.716C249.304 194.34 248.332 194.892 247.18 195.372L247.696 196.044C248.872 195.528 249.856 194.928 250.66 194.232L250.096 193.716Z" fill="black"/>
<path d="M123.568 189.372H120.76V185.184H119.872V189.372H117.064V186.096H116.2V190.212H119.872V194.616H116.488V191.34H115.612V196.116H116.488V195.444H124.144V196.116H125.02V191.34H124.144V194.616H120.76V190.212H124.432V186.096H123.568V189.372ZM132.76 189.192C134.104 189.66 135.436 190.272 136.732 191.028L137.2 190.308C135.856 189.648 134.368 189.084 132.76 188.604V188.388H137.38V187.584H132.76V185.184H131.872V187.584H127.252V188.388H131.044C130.372 189.156 129.1 189.84 127.24 190.44L127.708 191.184C129.712 190.404 131.08 189.468 131.8 188.388H131.872V190.572H132.76V189.192ZM132.16 193.128C133.288 194.592 134.98 195.612 137.212 196.2L137.644 195.432C135.616 194.952 134.044 194.112 132.916 192.9H137.476V192.096H132.568C132.664 191.748 132.748 191.364 132.796 190.956H131.908C131.86 191.364 131.776 191.736 131.656 192.096H127.156V192.9H131.308C131.116 193.248 130.864 193.56 130.576 193.836C129.844 194.508 128.656 195.024 127.012 195.384L127.348 196.188C129.184 195.744 130.492 195.144 131.272 194.376C131.632 194.016 131.92 193.596 132.16 193.128ZM129.388 185.364L128.644 185.616C129.028 186.132 129.34 186.672 129.58 187.224L130.312 187.032C130.048 186.408 129.736 185.844 129.388 185.364ZM135.208 185.34C134.944 186 134.62 186.552 134.248 186.984L134.968 187.248C135.376 186.744 135.712 186.18 135.964 185.532L135.208 185.34ZM138.988 187.404V188.232H140.38V191.136C139.876 191.292 139.36 191.436 138.832 191.556L139.036 192.432C139.48 192.3 139.924 192.156 140.38 192.012V194.796C140.38 195.132 140.236 195.3 139.948 195.3C139.648 195.3 139.336 195.276 139.024 195.24L139.204 196.068H140.248C140.908 196.068 141.244 195.708 141.244 195.012V191.688C141.76 191.472 142.264 191.256 142.768 191.016V190.14C142.276 190.38 141.772 190.608 141.244 190.824V188.232H142.6V187.404H141.244V185.208H140.38V187.404H138.988ZM143.104 187.116V187.944H144.4C144.304 189.636 144.136 190.944 143.92 191.88C143.56 193.296 142.984 194.496 142.168 195.504L142.72 196.188C143.656 195.06 144.316 193.728 144.712 192.18C144.76 191.988 144.796 191.784 144.844 191.568C145.18 192.48 145.648 193.296 146.272 194.004C145.684 194.58 144.976 195.048 144.148 195.42L144.592 196.2C145.48 195.792 146.248 195.264 146.896 194.64C147.592 195.276 148.456 195.804 149.464 196.212L149.908 195.42C148.96 195.06 148.144 194.58 147.46 194.004C148.252 193.008 148.78 191.784 149.068 190.332V189.6H145.12C145.168 189.096 145.204 188.544 145.252 187.944H149.656V187.116H145.3C145.324 186.528 145.336 185.892 145.36 185.208H144.496C144.484 185.88 144.46 186.516 144.436 187.116H143.104ZM145.216 190.38H148.264C147.976 191.544 147.496 192.552 146.824 193.392C146.068 192.564 145.528 191.556 145.216 190.38ZM147.436 185.16L146.788 185.568C147.34 186.072 147.772 186.54 148.096 186.972L148.744 186.516C148.432 186.132 148 185.676 147.436 185.16ZM151.036 186.084V186.864H153.856V187.728H154.72V186.864H157.912V187.728H158.776V186.864H161.608V186.084H158.776V185.16H157.912V186.084H154.72V185.172H153.856V186.084H151.036ZM156.34 187.344L155.464 187.488C155.644 187.752 155.812 188.064 155.98 188.4H151.528V189.168H161.02V188.4H156.844C156.688 188.004 156.52 187.656 156.34 187.344ZM153.736 191.016C154.384 191.34 155.044 191.772 155.692 192.312L156.136 191.628C155.524 191.172 154.864 190.776 154.144 190.44C154.324 190.152 154.504 189.828 154.672 189.492L153.916 189.192C153.364 190.392 152.536 191.34 151.432 192.06L152.044 192.588C152.668 192.18 153.232 191.652 153.736 191.016ZM158.404 191.076C159.184 191.448 159.952 191.94 160.72 192.54L161.164 191.844C160.444 191.316 159.652 190.872 158.8 190.488C158.968 190.188 159.136 189.864 159.304 189.516L158.548 189.216C158.092 190.296 157.408 191.172 156.508 191.82L157.132 192.36C157.6 192.012 158.02 191.58 158.404 191.076ZM151.168 193.152V193.944H155.92V196.26H156.76V193.944H161.464V193.152H156.76V192.348H155.92V193.152H151.168Z" fill="#FF3D00"/>
<defs>
<filter id="filter0_f_0_1" x="37" y="0" width="266" height="266" filterUnits="userSpaceOnUse" color-interpolation-filters="sRGB">
<feFlood flood-opacity="0" result="BackgroundImageFix"/>
<feBlend mode="normal" in="SourceGraphic" in2="BackgroundImageFix" result="shape"/>
<feGaussianBlur stdDeviation="2" result="effect1_foregroundBlur_0_1"/>
</filter>
<linearGradient id="paint2_linear_0_1" x1="172.648" y1="178" x2="172.648" y2="201.867" gradientUnits="userSpaceOnUse">
<stop stop-color="#F1D9AC"/>
<stop offset="1" stop-color="#E7BC7A"/>
</linearGradient>
</defs>
</svg>
