<svg width="248" height="169" viewBox="0 0 248 169" fill="none" xmlns="http://www.w3.org/2000/svg">
<path d="M17.344 28.8H24.4V33.072H6.01599V28.8H13.072V20.064H6.01599V15.792H13.072V9.59998H17.344V15.792H24.4V20.064H17.344V28.8ZM27.76 9.59998H31.984V33.168H27.76V9.59998ZM37.264 22.464C37.264 23.296 37.568 24.016 38.176 24.624C38.784 25.232 39.52 25.536 40.384 25.536V29.808C39.04 29.808 37.808 29.48 36.688 28.824C35.568 28.168 34.68 27.272 34.024 26.136C33.368 25 33.04 23.776 33.04 22.464V15.504H37.264V22.464ZM7.31199 35.424H39.088V53.328H40.384V57.6H6.01599V53.328H7.31199V35.424ZM16.336 39.648H11.536V53.184H16.336V39.648ZM20.608 39.648V53.184H25.6V39.648H20.608ZM29.824 53.184H34.864V39.648H29.824V53.184Z" fill="white"/>
<path d="M71.008 37.584C71.104 40.272 71.464 42.816 72.088 45.216C72.712 47.616 73.6 49.56 74.752 51.048C75.904 52.536 77.232 53.28 78.736 53.28V57.552C76.496 57.552 74.544 56.776 72.88 55.224C71.216 53.672 69.872 51.568 68.848 48.912C67.92 51.472 66.64 53.552 65.008 55.152C63.376 56.752 61.312 57.552 58.816 57.552V53.28C60.96 53.28 62.6 52.16 63.736 49.92C64.872 47.68 65.616 45.376 65.968 43.008C66.32 40.64 66.496 38.976 66.496 38.016V37.584H58.672V33.312H66.544L66.736 19.584H64.672V22.416C64.672 23.472 64.4 24.456 63.856 25.368C63.312 26.28 62.584 27.008 61.672 27.552C60.76 28.096 59.76 28.368 58.672 28.368V24.144C59.152 24.144 59.56 23.968 59.896 23.616C60.232 23.264 60.4 22.864 60.4 22.416V9.64798H64.672V15.312H66.784L66.88 9.59998L71.152 9.64798L71.056 15.312H78.688V19.584H71.008V33.312H78.688V37.584H71.008ZM50.608 9.64798V13.632H57.616V17.904H50.416C50.096 19.248 49.384 20.368 48.28 21.264C47.176 22.16 45.904 22.608 44.464 22.608V18.336C44.976 18.336 45.416 18.152 45.784 17.784C46.152 17.416 46.336 16.96 46.336 16.416V9.64798H50.608ZM44.464 28.368V24.096H57.616V28.368H53.296V36.576H57.616V40.848H53.296V50.544C53.296 51.312 53.568 51.968 54.112 52.512C54.656 53.056 55.312 53.328 56.08 53.328H57.04V57.6H56.08C54.8 57.6 53.624 57.28 52.552 56.64C51.48 56 50.624 55.144 49.984 54.072C49.344 53 49.024 51.824 49.024 50.544V40.848H44.464V36.576H49.024V28.368H44.464Z" fill="white"/>
<path d="M117.088 14.016V18.24H107.248V24.48H117.088V28.752H93.136V24.48H102.976V18.24H93.136V14.016H102.976V9.59998H107.248V14.016H117.088ZM84.304 9.64798H91.168V13.872H84.304V9.64798ZM89.872 51.984C89.872 52.368 90.008 52.688 90.28 52.944C90.552 53.2 90.864 53.328 91.216 53.328V57.6C89.68 57.6 88.368 57.056 87.28 55.968C86.192 54.88 85.648 53.552 85.648 51.984V21.408H82.912V17.136H89.872V51.984ZM112.816 30.624V33.36H117.088V37.632H112.816V48.768C112.816 51.584 111.992 53.752 110.344 55.272C108.696 56.792 106.352 57.552 103.312 57.552V53.328C105.36 53.328 106.744 52.952 107.464 52.2C108.184 51.448 108.544 50.304 108.544 48.768V37.632H93.136V33.36H108.544V30.624H112.816ZM104.752 49.632C102.96 49.632 101.32 49.192 99.832 48.312C98.344 47.432 97.16 46.248 96.28 44.76C95.4 43.272 94.96 41.648 94.96 39.888V39.792H99.232V39.888C99.232 41.392 99.768 42.688 100.84 43.776C101.912 44.864 103.216 45.408 104.752 45.408V49.632Z" fill="white"/>
<path d="M145.6 11.568H155.488V24.864H151.264V15.84H145.6V20.112C145.6 21.712 145.024 23.088 143.872 24.24C142.72 25.392 141.344 25.968 139.744 25.968V21.696C140.192 21.696 140.568 21.544 140.872 21.24C141.176 20.936 141.328 20.56 141.328 20.112V9.59998H145.6V11.568ZM140.224 35.616H138.592V50.64C138.592 51.888 138.28 53.048 137.656 54.12C137.032 55.192 136.184 56.04 135.112 56.664C134.04 57.288 132.88 57.6 131.632 57.6V53.328C132.368 53.328 133 53.064 133.528 52.536C134.056 52.008 134.32 51.376 134.32 50.64V35.616H121.312V31.392H134.32V13.872H121.312V9.64798H140.224V13.872H138.592V31.392H140.224V35.616ZM132.736 24.048C132.736 25.552 132.192 26.84 131.104 27.912C130.016 28.984 128.72 29.52 127.216 29.52H121.648V15.84H132.736V24.048ZM128.464 20.112H125.872V25.296H127.216C127.568 25.296 127.864 25.168 128.104 24.912C128.344 24.656 128.464 24.368 128.464 24.048V20.112ZM149.68 38.496C149.68 41.152 150.008 43.616 150.664 45.888C151.32 48.16 152.112 49.968 153.04 51.312C153.968 52.656 154.784 53.328 155.488 53.328V57.552C153.856 57.552 152.352 56.856 150.976 55.464C149.6 54.072 148.448 52.208 147.52 49.872C146.592 52.208 145.448 54.072 144.088 55.464C142.728 56.856 141.232 57.552 139.6 57.552V53.328C140.304 53.328 141.12 52.656 142.048 51.312C142.976 49.968 143.768 48.16 144.424 45.888C145.08 43.616 145.408 41.152 145.408 38.496V24.048H149.68V38.496ZM132.736 37.536V45.744C132.736 47.28 132.192 48.584 131.104 49.656C130.016 50.728 128.72 51.264 127.216 51.264H121.648V37.536H132.736ZM128.464 41.808H125.872V46.992H127.216C127.568 46.992 127.864 46.872 128.104 46.632C128.344 46.392 128.464 46.096 128.464 45.744V41.808Z" fill="white"/>
<path d="M180.406 53.0104V57.7366H162.547C162.74 55.95 163.32 54.2569 164.287 52.6573C165.254 51.058 167.164 48.9361 170.017 46.2923C172.313 44.1554 173.722 42.7068 174.241 41.946C174.942 40.8958 175.293 39.858 175.293 38.8315C175.293 37.6969 174.987 36.8245 174.377 36.2148C173.767 35.6055 172.924 35.3003 171.848 35.3003C170.784 35.3003 169.938 35.6206 169.309 36.2601C168.681 36.8999 168.318 37.9622 168.222 39.4473L163.145 38.9404C163.447 36.1401 164.396 34.1301 165.992 32.9104C167.587 31.6913 169.582 31.0816 171.975 31.0816C174.598 31.0816 176.659 31.7878 178.158 33.2005C179.656 34.6129 180.406 36.3693 180.406 38.4701C180.406 39.665 180.191 40.803 179.762 41.883C179.333 42.9638 178.653 44.0954 177.723 45.2786C177.106 46.0635 175.994 47.1921 174.387 48.6648C172.779 50.1374 171.761 51.1153 171.332 51.5984C170.902 52.0811 170.555 52.5521 170.289 53.0107H180.406V53.0104ZM193.841 57.7369V52.395H182.962V47.9405L194.494 31.0813H198.773V47.9221H202.072V52.395H198.773V57.7369H193.841ZM193.841 47.9221V38.85L187.731 47.9221H193.841ZM207.037 57.7369V40.4519H209.162V46.6538C210.154 45.5061 211.405 44.9322 212.916 44.9322C213.845 44.9322 214.652 45.1151 215.336 45.4806C216.021 45.8461 216.511 46.3513 216.806 46.9955C217.101 47.6404 217.249 48.5757 217.249 49.8018V57.7369H215.124V49.8018C215.124 48.7405 214.893 47.968 214.433 47.4849C213.972 47.0015 213.321 46.7596 212.479 46.7596C211.85 46.7596 211.257 46.9228 210.702 47.2491C210.148 47.5754 209.752 48.0176 209.516 48.5757C209.28 49.1338 209.162 49.904 209.162 50.8865V57.7366H207.037V57.7369ZM222.167 33.3258H219.466C219.466 33.3258 220.221 23.3381 220.221 20.3315C220.397 18.6508 221.216 18.5218 221.411 20.3315C221.411 21.908 222.167 33.3258 222.167 33.3258Z" fill="#F5C57B"/>
<path d="M222.167 33.3258H219.466C219.466 33.3258 230.794 20.9194 233.398 18.3195C234.357 17.9879 235.117 18.8317 234.667 19.5868C231.703 22.5462 222.167 33.3258 222.167 33.3258Z" fill="#F5C57B"/>
<path d="M220.816 5.68933C207.393 5.68933 196.344 15.8284 194.919 28.8563H197.774C199.185 17.3956 208.959 8.51908 220.816 8.51908C233.642 8.51908 244.039 18.9034 244.039 31.7131C244.039 44.5229 233.642 54.9072 220.816 54.9072C220.362 54.9072 219.913 54.8908 219.465 54.8653V57.7024C219.913 57.7252 220.363 57.7369 220.816 57.7369C235.207 57.7369 246.873 46.0856 246.873 31.7131C246.873 17.3406 235.207 5.68933 220.816 5.68933Z" fill="#F5C57B"/>
<path d="M140.954 100.951V112.951H115.836V103.443L127.164 88.0984C128.149 86.7432 128.805 85.5847 129.134 84.623C129.462 83.6612 129.626 82.7213 129.626 81.8033C129.626 80.6667 129.358 79.7923 128.82 79.1803C128.313 78.5246 127.567 78.1967 126.582 78.1967C125.626 78.1967 124.731 78.5683 123.895 79.3115C123.059 80.0546 122.418 81.1038 121.97 82.459L114 76.623C115.194 73.3443 116.94 70.765 119.239 68.8852C121.537 66.9617 124.313 66 127.567 66C130.044 66 132.238 66.5902 134.149 67.7705C136.059 68.9508 137.551 70.6339 138.626 72.8197C139.701 75.0055 140.238 77.5191 140.238 80.3607C140.238 82.8962 139.865 85.2787 139.119 87.5082C138.402 89.694 136.984 92.1858 134.865 94.9836L130.388 100.951H140.954Z" fill="white"/>
<path d="M157.315 114C154.539 114 152.076 113.06 149.927 111.18C147.808 109.257 146.136 106.503 144.912 102.918C143.718 99.2896 143.121 94.9836 143.121 90C143.121 85.0164 143.718 80.7322 144.912 77.1475C146.136 73.5191 147.808 70.765 149.927 68.8852C152.076 66.9617 154.539 66 157.315 66C160.091 66 162.539 66.9617 164.658 68.8852C166.807 70.765 168.479 73.5191 169.673 77.1475C170.897 80.7322 171.509 85.0164 171.509 90C171.509 94.9836 170.897 99.2896 169.673 102.918C168.479 106.503 166.807 109.257 164.658 111.18C162.539 113.06 160.091 114 157.315 114ZM157.315 101.607C159.703 101.607 160.897 97.7377 160.897 90C160.897 82.2623 159.703 78.3934 157.315 78.3934C154.927 78.3934 153.733 82.2623 153.733 90C153.733 97.7377 154.927 101.607 157.315 101.607Z" fill="white"/>
<path d="M198.759 100.951V112.951H173.641V103.443L184.969 88.0984C185.954 86.7432 186.61 85.5847 186.939 84.623C187.267 83.6612 187.431 82.7213 187.431 81.8033C187.431 80.6667 187.163 79.7923 186.625 79.1803C186.118 78.5246 185.372 78.1967 184.386 78.1967C183.431 78.1967 182.536 78.5683 181.7 79.3115C180.864 80.0546 180.222 81.1038 179.775 82.459L171.805 76.623C172.999 73.3443 174.745 70.765 177.043 68.8852C179.342 66.9617 182.118 66 185.372 66C187.849 66 190.043 66.5902 191.953 67.7705C193.864 68.9508 195.356 70.6339 196.431 72.8197C197.505 75.0055 198.043 77.5191 198.043 80.3607C198.043 82.8962 197.67 85.2787 196.923 87.5082C196.207 89.694 194.789 92.1858 192.67 94.9836L188.192 100.951H198.759Z" fill="white"/>
<path d="M226 100.951V112.951H200.881V103.443L212.209 88.0984C213.194 86.7432 213.851 85.5847 214.179 84.623C214.508 83.6612 214.672 82.7213 214.672 81.8033C214.672 80.6667 214.403 79.7923 213.866 79.1803C213.359 78.5246 212.612 78.1967 211.627 78.1967C210.672 78.1967 209.777 78.5683 208.941 79.3115C208.105 80.0546 207.463 81.1038 207.016 82.459L199.046 76.623C200.24 73.3443 201.986 70.765 204.284 68.8852C206.583 66.9617 209.359 66 212.612 66C215.09 66 217.284 66.5902 219.194 67.7705C221.105 68.9508 222.597 70.6339 223.672 72.8197C224.746 75.0055 225.284 77.5191 225.284 80.3607C225.284 82.8962 224.91 85.2787 224.164 87.5082C223.448 89.694 222.03 92.1858 219.911 94.9836L215.433 100.951H226Z" fill="white"/>
<path d="M27.36 82.464V85.824H21.216V94.176H27.36V97.536H21.216V103.68H17.856V97.536H9.504V103.68H6.144V97.536H0V94.176H6.144V85.824H0V82.464H6.144V76.32H9.504V82.464H17.856V76.32H21.216V82.464H27.36ZM9.504 94.176H17.856V85.824H9.504V94.176Z" fill="#F5C57B"/>
<path d="M35.4239 66H39.6959V72.24H44.9279V76.512H39.6959V114H35.4239V76.512H30.1919V72.24H35.4239V66ZM47.2319 66.048H63.3119V70.32H47.2319V66.048ZM46.0319 74.688H64.4639V78.96H57.2639V106.656C57.2639 107.968 56.9599 109.184 56.3519 110.304C55.7439 111.424 54.9119 112.312 53.8559 112.968C52.7999 113.624 51.6639 113.952 50.4479 113.952V109.68C51.1519 109.68 51.7519 109.384 52.2479 108.792C52.7439 108.2 52.9919 107.488 52.9919 106.656V78.96H46.0319V74.688ZM30.6719 78.096H33.9359V104.448C33.9359 105.824 33.5759 106.976 32.8559 107.904C32.1359 108.832 31.2479 109.296 30.1919 109.296V106.032H30.0959C30.2239 105.968 30.3519 105.792 30.4799 105.504C30.6079 105.216 30.6719 104.864 30.6719 104.448V78.096ZM44.4959 108.912H41.1839V78.096H44.4959V108.912ZM50.8799 82.128V105.552C50.8799 107.12 50.3599 108.456 49.3199 109.56C48.2799 110.664 47.0239 111.216 45.5519 111.216V106.992C45.8399 106.992 46.0879 106.848 46.2959 106.56C46.5039 106.272 46.6079 105.936 46.6079 105.552V82.128H50.8799ZM63.5999 105.552C63.5999 105.968 63.6879 106.312 63.8639 106.584C64.0399 106.856 64.2239 106.992 64.4159 106.992V111.216C63.0079 111.216 61.8079 110.664 60.8159 109.56C59.8239 108.456 59.3279 107.12 59.3279 105.552V82.128H63.5999V105.552Z" fill="#F5C57B"/>
<path d="M73.8241 66H78.0481V72.24H83.2801V76.512H78.0481V113.952H73.8241V76.512H68.5921V72.24H73.8241V66ZM101.088 75.648C101.088 75.936 101.264 76.192 101.616 76.416C101.968 76.64 102.384 76.752 102.864 76.752V80.976C101.2 80.976 99.7761 80.456 98.5921 79.416C97.4081 78.376 96.8161 77.12 96.8161 75.648V70.368H90.3361V75.648C90.3361 77.12 89.7441 78.376 88.5601 79.416C87.3761 80.456 85.9521 80.976 84.2881 80.976H84.0961V76.752H84.2881C84.7681 76.752 85.1841 76.64 85.5361 76.416C85.8881 76.192 86.0641 75.936 86.0641 75.648V66.096H101.088V75.648ZM69.0721 78.048H72.3361V104.4C72.3361 105.776 71.9761 106.928 71.2561 107.856C70.5361 108.784 69.6481 109.248 68.5921 109.248V105.936L68.4961 105.984C68.6241 105.92 68.7521 105.744 68.8801 105.456C69.0081 105.168 69.0721 104.816 69.0721 104.4V78.048ZM82.8481 108.864H79.5841V78.048H82.8481V108.864ZM84.4321 82.944H102.816V94.656C102.816 95.872 102.472 96.992 101.784 98.016C101.096 99.04 100.16 99.856 98.9761 100.464C97.7921 101.072 96.5121 101.376 95.1361 101.376H92.4961V97.104H95.1361C96.0641 97.104 96.8641 96.864 97.5361 96.384C98.2081 95.904 98.5441 95.328 98.5441 94.656V87.216H88.7041V106.752C88.7041 107.584 89.0001 108.296 89.5921 108.888C90.1841 109.48 90.8961 109.776 91.7281 109.776H102.816V114H91.7281C90.4161 114 89.2001 113.672 88.0801 113.016C86.9601 112.36 86.0721 111.48 85.4161 110.376C84.7601 109.272 84.4321 108.064 84.4321 106.752V82.944Z" fill="#F5C57B"/>
<path d="M92.44 156.056L90.496 156.608V153.152H92.68V150.536H90.496V146.024H87.904V150.536H85.384V153.152H87.904V157.304C86.824 157.568 85.816 157.832 85 158L85.624 160.736C86.32 160.544 87.112 160.328 87.904 160.088V165.392C87.904 165.704 87.784 165.8 87.496 165.8C87.208 165.824 86.368 165.824 85.504 165.776C85.84 166.544 86.152 167.72 86.224 168.416C87.808 168.44 88.816 168.344 89.56 167.888C90.28 167.432 90.496 166.712 90.496 165.392V159.32C91.264 159.104 92.032 158.864 92.8 158.624L92.44 156.056ZM96.544 149.912H92.992V152.48H96.544V154.952H93.208V157.448H96.52C96.496 158.216 96.448 158.984 96.352 159.728C94.624 160.28 92.968 160.784 91.744 161.096L92.824 163.568C93.712 163.232 94.672 162.872 95.632 162.464C95.032 164 94.024 165.368 92.368 166.52C92.944 166.952 93.928 167.84 94.408 168.416C98.584 165.416 99.088 160.928 99.088 156.104V146H96.544V149.912ZM107.608 160.088H103.456V157.448H106.96V154.952H103.456V152.48H107.2V149.912H103.456V146H100.768V168.392H103.456V162.656H107.608V160.088Z" fill="#F5C57B"/>
<path d="M130.816 147.368H119.152V150.08H130.816V147.368ZM114.544 146C113.392 147.68 111.112 149.84 109.12 151.112C109.624 151.664 110.344 152.816 110.704 153.44C112.984 151.856 115.576 149.384 117.304 147.128L114.544 146ZM115.456 151.184C113.92 153.896 111.304 156.68 108.856 158.36C109.432 158.96 110.392 160.256 110.8 160.832C111.448 160.304 112.096 159.704 112.768 159.056V168.44H115.624V155.912C116.584 154.712 117.472 153.464 118.192 152.24L115.456 151.184ZM131.416 153.968H118.144V156.68H125.224V165.032C125.224 165.392 125.056 165.488 124.624 165.488C124.192 165.512 122.608 165.512 121.24 165.44C121.624 166.28 121.984 167.504 122.104 168.344C124.24 168.344 125.776 168.296 126.784 167.864C127.84 167.432 128.128 166.64 128.128 165.104V156.68H131.416V153.968Z" fill="#F5C57B"/>
<path d="M141.928 159.128C141.544 158.456 139.72 155.672 139.048 154.76V153.584H141.448V150.944H139.048V146H136.456V150.944H133.576V153.584H136.24C135.64 156.416 134.368 159.752 133.024 161.624C133.432 162.272 134.008 163.352 134.272 164.144C135.088 162.944 135.832 161.264 136.456 159.416V168.392H139.048V158.168C139.6 159.248 140.152 160.4 140.464 161.168L141.928 159.128ZM149.8 155.456H147.016V157.448H142V159.8H145.456C145.192 162.896 144.4 165.056 140.896 166.328C141.448 166.856 142.192 167.816 142.48 168.488C145.336 167.336 146.752 165.632 147.496 163.424H151.072C150.928 164.936 150.736 165.656 150.496 165.896C150.304 166.088 150.112 166.112 149.752 166.112C149.368 166.112 148.528 166.088 147.64 166.016C148 166.664 148.312 167.648 148.336 168.392C149.464 168.44 150.496 168.416 151.12 168.344C151.792 168.272 152.344 168.08 152.8 167.552C153.4 166.952 153.664 165.416 153.904 162.104C153.952 161.768 153.976 161.12 153.976 161.12H148.024C148.072 160.688 148.12 160.256 148.168 159.8H155.08V157.448H149.8V155.456ZM150.352 150.368C150.184 151.136 149.968 152.024 149.728 152.696H146.824L147.136 152.624C147.04 152.048 146.776 151.112 146.488 150.368H150.352ZM152.296 152.696C152.584 152.024 152.872 151.208 153.208 150.368H155.08V148.088H149.8V146H147.016V148.088H142.048V150.368H144.664L143.944 150.512C144.16 151.16 144.4 152.024 144.52 152.696H141.76V156.728H144.256V154.904H152.704V156.68H155.296V152.696H152.296Z" fill="#F5C57B"/>
</svg>
