<svg width="32" height="32" viewBox="0 0 32 32" fill="none" xmlns="http://www.w3.org/2000/svg">
<path fill-rule="evenodd" clip-rule="evenodd" d="M26.8192 0H5.18078C2.32492 0 0 2.32496 0 5.1991V26.8009C0 29.6751 2.32492 32 5.18078 32H26.8192C29.6751 32 32 29.6751 32 26.8009V5.1991C32 2.34322 29.6751 0 26.8192 0ZM12.0092 21.4554C11.0286 21.4554 10.2048 21.2866 9.27354 21.0958L9.27329 21.0957C9.05713 21.0514 8.83517 21.006 8.60411 20.9611L5.21739 22.6636L6.18764 19.7529C3.75287 18.0503 2.30663 15.8535 2.30663 13.1991C2.30663 8.58579 6.68192 4.94277 12.0092 4.94277C16.7872 4.94277 20.9611 7.85349 21.8032 11.7529C21.4933 11.7163 21.1816 11.698 20.8696 11.6979C16.2563 11.6979 12.6133 15.1396 12.6133 19.3684C12.6133 20.0824 12.7231 20.7597 12.9062 21.4004C12.6133 21.437 12.3204 21.4554 12.0092 21.4554V21.4554ZM26.3249 24.8421L27.0572 27.2586L24.4027 25.7941L24.2079 25.842C23.3026 26.0652 22.3973 26.2884 21.492 26.2884C16.8787 26.2884 13.2357 23.1396 13.2357 19.2403C13.2357 15.3593 16.8787 12.1922 21.492 12.1922C25.849 12.1922 29.73 15.3593 29.73 19.2403C29.7117 21.4554 28.2655 23.3959 26.3249 24.8421ZM7.37784 10.1236C7.37784 10.8742 7.98194 11.4782 8.73252 11.4782C9.48311 11.4782 10.0872 10.8742 10.0872 10.1236C10.0872 9.37298 9.48311 8.76889 8.73252 8.76889C7.98197 8.76889 7.37784 9.37298 7.37784 10.1236ZM17.8859 17.0984C17.8859 17.6842 18.3618 18.1602 18.9477 18.1602C19.5335 18.1602 20.0094 17.6842 20.0094 17.0984C20.0094 16.5126 19.5335 16.0366 18.9477 16.0366C18.3618 16.0366 17.8859 16.5126 17.8859 17.0984ZM14.2612 10.1236C14.2612 10.8742 14.8652 11.4782 15.6158 11.4782C16.3664 11.4782 16.9705 10.8742 16.9705 10.1236C16.9705 9.37298 16.3664 8.76889 15.6158 8.76889C14.8652 8.76889 14.2612 9.37298 14.2612 10.1236ZM24.2375 18.1602C23.6517 18.1602 23.1757 17.6842 23.1757 17.0984C23.1757 16.5126 23.6334 16.0366 24.2375 16.0366C24.8233 16.0366 25.2993 16.5126 25.2993 17.0984C25.2993 17.6842 24.8233 18.1602 24.2375 18.1602Z" fill="#28C445"/>
</svg>
