<svg width="29" height="33" viewBox="0 0 29 33" fill="none" xmlns="http://www.w3.org/2000/svg">
<path d="M25.1163 32.3734H3.58805C1.61462 32.3734 4.20475e-08 30.7547 0 28.7763V3.59704C0 1.61867 1.61462 0 3.58805 0H25.1163C27.0898 0 28.7044 1.61867 28.7044 3.59704V28.7763C28.7044 30.7547 27.0898 32.3734 25.1163 32.3734Z" fill="#5B71F7"/>
<path d="M9.25306 5.64565C11.0848 4.14731 13.5794 3.72552 15.8533 4.16448C17.9234 4.66556 19.7752 6.07888 20.7788 7.9892C21.474 9.24559 21.6907 10.7014 21.6995 12.1237C21.6979 15.8103 21.6995 19.4961 21.6979 23.1827C21.6383 23.6633 22.012 24.0066 22.2497 24.3745C23.379 26.0183 23.9074 28.012 24 29.9975C23.321 30.0016 22.6419 29.9992 21.9629 29.9975C21.8598 28.715 21.6359 27.4325 21.0438 26.2815C19.1904 26.2725 17.3378 26.3126 15.4843 26.2946C15.4731 24.8976 15.4787 23.5015 15.4771 22.1045C13.8959 21.7285 12.2253 22.0089 10.74 22.6317C7.90226 23.8456 5.98116 26.8864 5.99244 30H4.0061C3.91185 27.5387 4.91791 25.1134 6.50473 23.28C6.72785 23.0666 6.64811 22.7306 6.67147 22.4544C6.65133 19.6277 6.68435 16.7994 6.65535 13.9736C6.58608 12.566 6.62958 11.1567 6.69321 9.7483C6.85834 8.06441 7.87729 6.56443 9.25306 5.64565ZM15.755 6.21458C15.9838 6.86852 16.608 7.28131 16.8553 7.93362C17.6302 9.39681 17.4111 11.0897 17.4361 12.682C17.4489 16.5534 17.4449 20.4222 17.4473 24.2936C18.2077 24.2952 18.9705 24.2993 19.7317 24.2846C19.7261 20.231 19.7277 16.1757 19.7317 12.1221C19.7228 11.1436 19.6262 10.1358 19.196 9.24395C18.5581 7.78812 17.2508 6.6756 15.755 6.21458ZM10.0505 7.53799C9.04686 8.20337 8.54907 9.4524 8.58692 10.6426C10.889 10.6646 13.1895 10.6499 15.4916 10.6516C15.5729 9.09845 14.5838 7.52082 13.0695 7.12273C12.0602 6.7598 10.9655 7.0508 10.0505 7.53799ZM8.64653 12.6363C8.63525 13.4676 8.66506 14.3406 9.0968 15.0755C9.73958 16.3114 11.0719 17.0708 12.4356 17.1133C12.4372 17.773 12.4372 18.4326 12.4356 19.0939C11.0251 19.0629 9.67031 18.5046 8.60303 17.576C8.62317 18.8642 8.60303 20.1517 8.61753 21.4416C10.6272 20.137 13.1243 19.5901 15.4827 19.9735C15.4698 17.5285 15.4811 15.0812 15.4755 12.6363C13.2008 12.6338 10.9237 12.6338 8.64653 12.6363Z" fill="white"/>
</svg>
