<svg width="25" height="25" viewBox="0 0 25 25" fill="none" xmlns="http://www.w3.org/2000/svg">
  <g clip-path="url(#clip0)">
    <path d="M12.9688 6.70462L13.3383 7.06389C13.4155 7.13492 13.4771 7.2202 13.5197 7.31471C13.5623 7.40922 13.585 7.51104 13.5864 7.61417C13.5877 7.71731 13.5678 7.81966 13.5277 7.9152C13.4876 8.01074 13.4282 8.09754 13.353 8.17047C13.2778 8.2434 13.1883 8.30099 13.0898 8.33985C12.9913 8.3787 12.8857 8.39804 12.7793 8.39671C12.673 8.39538 12.568 8.37342 12.4705 8.33211C12.373 8.29081 12.2851 8.231 12.2118 8.15621L10.4887 6.48539C10.3397 6.34055 10.256 6.14431 10.256 5.93971C10.256 5.73512 10.3397 5.53888 10.4887 5.39404L12.2208 3.71452C12.3714 3.57571 12.572 3.49945 12.7798 3.50202C12.9876 3.50458 13.1862 3.58576 13.3331 3.72825C13.48 3.87074 13.5638 4.06326 13.5664 4.26475C13.5691 4.46624 13.4904 4.66077 13.3473 4.80684L12.9927 5.15066C17.7636 5.6741 21.4688 9.5991 21.4688 14.3634C21.4692 14.4652 21.449 14.566 21.4092 14.6602C21.3693 14.7543 21.3107 14.8399 21.2367 14.912C21.1626 14.9842 21.0746 15.0414 20.9777 15.0804C20.8808 15.1195 20.7769 15.1396 20.672 15.1396C20.567 15.1396 20.4631 15.1195 20.3662 15.0804C20.2693 15.0414 20.1813 14.9842 20.1072 14.912C20.0332 14.8399 19.9746 14.7543 19.9348 14.6602C19.8949 14.566 19.8747 14.4652 19.8751 14.3634C19.8751 12.4925 19.175 10.6851 17.9049 9.27663C16.6349 7.86819 14.881 6.95432 12.9688 6.70462H12.9688ZM7.92302 9.72757H14.2975C14.6114 9.72757 14.9222 9.78752 15.2123 9.90401C15.5023 10.0205 15.7658 10.1912 15.9878 10.4065C16.2098 10.6217 16.3858 10.8772 16.506 11.1585C16.6261 11.4397 16.6879 11.7411 16.6879 12.0455V16.6813C16.6879 17.2961 16.4361 17.8857 15.9878 18.3204C15.5395 18.7551 14.9315 18.9993 14.2975 18.9993H7.923C7.28902 18.9993 6.68101 18.755 6.23273 18.3204C5.78444 17.8857 5.53259 17.2961 5.53259 16.6813V12.0455C5.53259 11.7411 5.59442 11.4397 5.71455 11.1585C5.83468 10.8772 6.01075 10.6217 6.23273 10.4065C6.4547 10.1912 6.71822 10.0205 7.00824 9.90401C7.29826 9.78752 7.6091 9.72757 7.92302 9.72757V9.72757ZM7.92302 11.2729C7.81838 11.2729 7.71476 11.2928 7.61809 11.3317C7.52141 11.3705 7.43357 11.4274 7.35958 11.4992C7.28559 11.5709 7.2269 11.6561 7.18686 11.7498C7.14681 11.8436 7.1262 11.944 7.1262 12.0455V16.6813C7.1262 16.7828 7.14681 16.8833 7.18686 16.977C7.2269 17.0708 7.28559 17.1559 7.35958 17.2277C7.43357 17.2994 7.52141 17.3563 7.61809 17.3952C7.71476 17.434 7.81838 17.454 7.92302 17.454H14.2975C14.4021 17.454 14.5057 17.434 14.6024 17.3952C14.6991 17.3563 14.7869 17.2994 14.8609 17.2277C14.9349 17.1559 14.9936 17.0708 15.0336 16.977C15.0737 16.8833 15.0943 16.7828 15.0943 16.6813V12.0455C15.0943 11.8406 15.0104 11.6441 14.8609 11.4992C14.7115 11.3543 14.5088 11.2729 14.2975 11.2729H7.923H7.92302Z" fill="white"/>
  </g>
  <defs>
    <filter id="filter0_b" x="-40" y="-40" width="105" height="105" filterUnits="userSpaceOnUse" color-interpolation-filters="sRGB">
      <feFlood flood-opacity="0" result="BackgroundImageFix"/>
      <feGaussianBlur in="BackgroundImage" stdDeviation="20"/>
      <feComposite in2="SourceAlpha" operator="in" result="effect1_backgroundBlur"/>
      <feBlend mode="normal" in="SourceGraphic" in2="effect1_backgroundBlur" result="shape"/>
    </filter>
    <clipPath id="clip0">
      <rect width="17" height="16" fill="white" transform="translate(5 3)"/>
    </clipPath>
  </defs>
</svg>
