<svg width="40" height="40" viewBox="0 0 40 40" fill="none" xmlns="http://www.w3.org/2000/svg">
<path fill-rule="evenodd" clip-rule="evenodd" d="M20 0C31.0457 0 40 8.95431 40 20C40 31.0457 31.0457 40 20 40C8.95431 40 0 31.0457 0 20C0 8.95431 8.95431 0 20 0ZM20 2.66667C10.4271 2.66667 2.66667 10.4271 2.66667 20C2.66667 29.5729 10.4271 37.3333 20 37.3333C29.5729 37.3333 37.3333 29.5729 37.3333 20C37.3333 10.4271 29.5729 2.66667 20 2.66667ZM14.6541 12L20 17.3459L25.3459 12L28 14.6541L22.6541 20L28 25.3459L25.3459 28L20 22.6541L14.6541 28L12 25.3459L17.3459 20L12 14.6541L14.6541 12Z" fill="#D03A3A"/>
</svg>
