<svg xmlns="http://www.w3.org/2000/svg" width="109" height="18" viewBox="0 0 109 18">
    <defs>
        <linearGradient id="a" x1="97.204%" x2="0%" y1="2.796%" y2="100%">
            <stop offset="0%" stop-color="#11C4D1"/>
            <stop offset="100%" stop-color="#0062AD"/>
        </linearGradient>
    </defs>
    <g fill="none" fill-rule="nonzero">
        <path fill="url(#a)" d="M23.915.624c.791 10.714-6.096 15.778-12.27 16.318C5.905 17.444.502 13.917.028 8.498c-.391-4.477 2.376-6.383 4.55-6.573 2.236-.196 4.115 1.346 4.278 3.213.157 1.795-.963 2.612-1.742 2.68-.616.054-1.391-.32-1.461-1.123-.06-.69.202-.784.138-1.517-.114-1.305-1.252-1.457-1.875-1.403-.754.066-2.122.946-1.93 3.138.193 2.211 2.313 3.958 5.092 3.715 2.999-.262 5.087-2.597 5.244-5.872a1.19 1.19 0 0 1 .107-.503l.001-.004a1.411 1.411 0 0 1 .113-.197c.064-.096.146-.202.252-.318.001-.003.001-.003.003-.003.077-.087.17-.181.275-.282 1.31-1.236 6.028-4.151 10.49-3.228a.447.447 0 0 1 .352.403" transform="translate(0 .5)"/>
        <g fill="#11293B" transform="translate(33 1.5)">
            <rect width="2.182" height="10.329" x=".29" y="4.215" rx=".071"/>
            <path d="M31.445.567v1.606a.07.07 0 0 1-.07.068h-4.136a.07.07 0 0 0-.071.068v12.17a.07.07 0 0 1-.072.068h-2.132a.07.07 0 0 1-.071-.067V2.309a.07.07 0 0 0-.071-.068h-4.509a.07.07 0 0 1-.07-.068V.567a.07.07 0 0 1 .07-.068h11.055c.02-.001.04.005.054.018a.067.067 0 0 1 .023.05zM20.882 7.957l.022.004v6.518a.07.07 0 0 1-.07.068h-1.991a.07.07 0 0 1-.072-.068V9.48c0-.212.004-.425.004-.634 0-.108 0-.212-.004-.317 0-.303-.02-.606-.06-.908-.15-1.086-.593-1.874-2.168-1.853a2.94 2.94 0 0 0-1.303.352c-.467.272-.985.65-1.276 1.177a8.107 8.107 0 0 1 .071 1.048v.011c0 .058.004.116.004.17v6.096a.07.07 0 0 1-.071.068h-1.943a.07.07 0 0 1-.071-.068V9.474c0-1.135.06-2.317-.502-3.049-.34-.439-.823-.645-1.766-.645-.385 0-.887.136-1.272.32-.264.123-.51.278-.732.462-.317.28-.548.641-.548 1.052v6.868a.07.07 0 0 1-.07.068H5.081a.07.07 0 0 1-.07-.068V4.35a.07.07 0 0 1 .07-.068h.835c.338 0 .635.212.73.522l.126.41c0 .028.018.052.044.062.027.01.057.004.077-.014.883-.833 2.147-1.23 3.373-1.23 1.272 0 2.095.383 2.63.981l-.056-.072c.164.186.307.387.426.601a.073.073 0 0 0 .12.012c.805-.966 2.394-1.521 3.673-1.521 2.914 0 3.83 1.982 3.83 3.92l-.008.004zM53.454 14.564H51.29a.072.072 0 0 1-.057-.028c-.816-1.082-1.422-2.128-1.69-2.458l-.049-.06c-.445-.552-1.36-1.714-2.616-1.933a.073.073 0 0 0-.062.02l-.925.954a.066.066 0 0 0-.02.047v3.372a.07.07 0 0 1-.071.067h-2.014a.07.07 0 0 1-.07-.067V.336a.07.07 0 0 1 .07-.068H45.8c.04 0 .071.03.071.068V8.48c.001.027.018.05.044.06.026.01.055.006.076-.012l4.43-4.441a.073.073 0 0 1 .05-.02h2.376c.028.001.052.017.063.042a.066.066 0 0 1-.013.072l-4.525 4.51a.066.066 0 0 0-.018.059c.004.02.018.039.038.048 1.304.599 2.209 1.72 2.63 2.241l.047.059c.36.444 1.56 2.187 2.447 3.365a.065.065 0 0 1 0 .067.072.072 0 0 1-.06.034z"/>
            <ellipse cx="1.381" cy="1.309" rx="1.319" ry="1.26"/>
            <path d="M36.372 3.772c-3.147 0-5.208 2.003-5.208 5.42 0 3.43 2.07 5.421 5.208 5.421 3.137 0 5.206-1.992 5.206-5.42 0-3.412-2.077-5.421-5.206-5.421zm0 9.143c-2.126 0-3.146-1.393-3.146-3.825 0-2.418 1.02-3.622 3.146-3.622s3.139 1.304 3.139 3.722c0 2.419-1.02 3.725-3.139 3.725zM59.702 13.05c-1.138.153-2.269-.32-2.924-1.222-.35-.45-.535-.972-.66-1.657a.066.066 0 0 1 .013-.05.072.072 0 0 1 .046-.027l5.748-.775c1.576-.222 2.235-1.583 1.64-2.896a4.837 4.837 0 0 0-2.624-2.377c-1.56-.604-3.659-.251-4.778.64-1.493 1.19-2.003 2.621-2.082 4.142-.01.17-.014.34-.014.51 0 .352.03.703.092 1.05.394 2.28 2.069 4.374 4.875 4.384 3.176.01 4.676-1.834 4.933-3.216a.066.066 0 0 0-.02-.057.073.073 0 0 0-.06-.02l-1.98.293a.076.076 0 0 0-.05.034c-.544.755-1.177 1.1-2.155 1.244zm-2.97-6.464a3.162 3.162 0 0 1 2.248-1.154c.895-.072 1.62.049 2.256.65.228.214.421.46.574.728.23.396-.014.972-.535 1.043l-5.236.702a.073.073 0 0 1-.06-.018.066.066 0 0 1-.02-.055c.09-.774.332-1.344.773-1.896zM75.074 8.148v6.329a.07.07 0 0 1-.07.068H73.03a.07.07 0 0 1-.072-.068V9.216s.025-.888-.05-1.716c-.054-.582-.256-1.146-.72-1.513-.66-.524-1.594-.408-1.594-.408-1.159.12-2.158.815-2.782 1.516l-.036.041.036-.015v7.354a.07.07 0 0 1-.071.068h-1.98a.07.07 0 0 1-.072-.068V4.148a.07.07 0 0 1 .071-.068h1.625c.04 0 .072.03.072.068V5.16c0 .027.018.05.045.06.026.01.055.005.075-.014.839-.871 2.106-1.395 3.434-1.395 1.1.002 4.062.046 4.062 4.337z"/>
        </g>
    </g>
</svg>
