<svg width="14" height="12" viewBox="0 0 14 12" fill="none" xmlns="http://www.w3.org/2000/svg">
<path d="M0.469923 10.4947C6.18017 13.6608 12.6254 10.212 12.6254 3.48408V3.2014C13.1908 2.57949 13.5865 1.84451 13.7561 1.05299C13.9258 0.544155 13.3604 0.148395 12.9081 0.43108C12.5123 0.713766 12.06 0.939914 11.5512 1.05299C10.7031 0.318006 9.45932 0.0918577 8.38512 0.487617C7.19784 0.996451 6.40632 2.12719 6.40632 3.42755C4.76674 3.31447 3.29678 2.46642 2.33565 1.10953C2.1095 0.770303 1.54413 0.82684 1.37452 1.2226C1.31798 1.39221 1.20491 1.6749 1.09183 2.07066C0.752608 3.31447 0.696071 4.61483 1.09183 5.85864C1.48759 7.04592 2.27911 8.06359 3.52293 8.85511C2.67487 9.25087 1.71374 9.47702 0.752608 9.42048C0.52646 9.42048 0.300312 9.59009 0.243774 9.7597V10.212C0.300312 10.3251 0.356849 10.4381 0.469923 10.4947ZM5.10597 9.25087C5.44519 9.02472 5.38865 8.45935 4.99289 8.28974C3.46639 7.61129 2.61833 6.65016 2.22257 5.46288C1.93989 4.55829 1.93989 3.54062 2.16604 2.57949C3.40985 3.87984 5.1625 4.61483 7.02823 4.55829C7.36745 4.55829 7.5936 4.2756 7.5936 3.99292V3.42755C7.53706 2.57949 8.0459 1.84451 8.83741 1.56182C9.62893 1.27914 10.477 1.50529 11.0424 2.12719C11.1554 2.2968 11.3816 2.35334 11.6077 2.2968C11.7773 2.24027 11.8904 2.18373 12.06 2.18373C11.947 2.2968 11.8339 2.46642 11.7208 2.57949C11.5512 2.69256 11.4947 2.91871 11.5512 3.08832C11.6077 3.2014 11.6077 3.31447 11.6077 3.42755C11.6077 8.45935 7.42399 11.3427 3.07063 10.212C3.80561 9.98585 4.48406 9.70317 5.10597 9.25087Z" fill="black"/>
</svg>
