<svg width="40" height="40" viewBox="0 0 40 40" fill="none" xmlns="http://www.w3.org/2000/svg">
<path d="M34.2858 17.8625H31.2501V7.86248C31.2501 4.70623 28.6921 2.14819 25.5358 2.14819H14.4644C11.3081 2.14819 8.75011 4.70623 8.75011 7.86248V17.8625H5.7144C4.92422 17.8625 4.28583 18.5009 4.28583 19.291V36.4339C4.28583 37.2241 4.92422 37.8625 5.7144 37.8625H34.2858C35.076 37.8625 35.7144 37.2241 35.7144 36.4339V19.291C35.7144 18.5009 35.076 17.8625 34.2858 17.8625ZM11.9644 7.86248C11.9644 6.48302 13.0849 5.36248 14.4644 5.36248H25.5358C26.9153 5.36248 28.0358 6.48302 28.0358 7.86248V17.8625H11.9644V7.86248ZM32.5001 34.6482H7.50011V21.0768H32.5001V34.6482ZM18.7501 28.4428V30.8089C18.7501 31.0053 18.9108 31.1661 19.1073 31.1661H20.893C21.0894 31.1661 21.2501 31.0053 21.2501 30.8089V28.4428C21.6186 28.1783 21.8937 27.8036 22.0357 27.3727C22.1777 26.9419 22.1793 26.4771 22.0404 26.0452C21.9014 25.6134 21.629 25.2368 21.2624 24.9696C20.8957 24.7024 20.4538 24.5585 20.0001 24.5585C19.5465 24.5585 19.1045 24.7024 18.7379 24.9696C18.3712 25.2368 18.0988 25.6134 17.9598 26.0452C17.8209 26.4771 17.8225 26.9419 17.9645 27.3727C18.1065 27.8036 18.3816 28.1783 18.7501 28.4428Z" fill="white"/>
</svg>
