<svg width="20" height="20" viewBox="0 0 20 20" fill="none" xmlns="http://www.w3.org/2000/svg">
<path d="M16.8312 7.26214C16.4437 6.34608 15.8891 5.5235 15.1829 4.81723C14.4766 4.11095 13.654 3.5564 12.738 3.16894C11.7892 2.76766 10.7818 2.56421 9.74361 2.56421C8.7054 2.56421 7.69797 2.76766 6.74923 3.16894C5.83317 3.55642 5.01059 4.11097 4.30432 4.81723C3.59805 5.52348 3.04349 6.34606 2.65603 7.26214C2.25475 8.21088 2.0513 9.21831 2.0513 10.2565C2.0513 11.2947 2.25475 12.3022 2.65603 13.2509C3.04351 14.1669 3.59807 14.9895 4.30432 15.6958C5.01057 16.4021 5.83315 16.9566 6.74923 17.3441C7.69797 17.7454 8.7054 17.9488 9.74361 17.9488C10.7818 17.9488 11.7892 17.7454 12.738 17.3441C13.654 16.9566 14.4766 16.4021 15.1829 15.6958C15.8892 14.9896 16.4437 14.167 16.8312 13.2509C17.2325 12.3022 17.4359 11.2947 17.4359 10.2565C17.4359 9.21831 17.2325 8.21088 16.8312 7.26214ZM9.74361 16.7654C6.15459 16.7654 3.23473 13.8455 3.23473 10.2565C3.23473 6.6675 6.15459 3.74764 9.74361 3.74764C13.3326 3.74764 16.2525 6.6675 16.2525 10.2565C16.2525 13.8455 13.3326 16.7654 9.74361 16.7654Z" fill="#5065e5"/>
<path d="M9.74349 5.76025C8.39199 5.76025 7.29248 6.85978 7.29248 8.21128C7.29248 8.53806 7.55741 8.803 7.8842 8.803C8.21098 8.803 8.47591 8.53806 8.47591 8.21128C8.47591 7.51233 9.04455 6.94369 9.74349 6.94369C10.4424 6.94369 11.0111 7.51233 11.0111 8.21128C11.0111 8.66655 10.7668 9.08607 10.3734 9.30627C10.3439 9.32278 10.3158 9.34179 10.2896 9.36309C9.58372 9.80907 9.14899 10.5928 9.14899 11.4317C9.14899 11.4772 9.15132 11.5388 9.16944 11.6113C9.23666 11.8802 9.4779 12.0597 9.74305 12.0597C9.79057 12.0597 9.83885 12.0539 9.88702 12.0419C10.175 11.9699 10.3604 11.6982 10.3326 11.4114C10.3398 10.9695 10.5802 10.5595 10.9636 10.3379C10.9653 10.337 10.9669 10.3359 10.9686 10.3349C10.9791 10.3287 10.9895 10.3221 10.9997 10.3152C11.0039 10.3123 11.0081 10.3096 11.0122 10.3066C11.0193 10.3016 11.0261 10.2963 11.0329 10.291C11.7518 9.85087 12.1945 9.06276 12.1945 8.21128C12.1945 6.85978 11.095 5.76025 9.74349 5.76025Z" fill="#5065e5"/>
<path d="M9.03085 13.4513C9.03085 13.5445 9.04922 13.6369 9.0849 13.723C9.12059 13.8091 9.17289 13.8874 9.23883 13.9534C9.30476 14.0193 9.38304 14.0716 9.46918 14.1073C9.55533 14.143 9.64767 14.1613 9.74091 14.1613C9.83416 14.1613 9.92649 14.143 10.0126 14.1073C10.0988 14.0716 10.1771 14.0193 10.243 13.9534C10.3089 13.8874 10.3612 13.8091 10.3969 13.723C10.4326 13.6369 10.451 13.5445 10.451 13.4513C10.451 13.263 10.3762 13.0823 10.243 12.9492C10.1098 12.816 9.92923 12.7412 9.74091 12.7412C9.55259 12.7412 9.37199 12.816 9.23883 12.9492C9.10566 13.0823 9.03085 13.263 9.03085 13.4513Z" fill="#5065e5"/>
</svg>
