<svg width="8" height="9" viewBox="0 0 8 9" fill="none" xmlns="http://www.w3.org/2000/svg">
<path d="M3.99467 1.29536C4.1728 1.29536 4.34363 1.22712 4.46958 1.10566C4.59554 0.984193 4.6663 0.819454 4.6663 0.647678C4.6663 0.475903 4.59554 0.311164 4.46958 0.189701C4.34363 0.0682374 4.1728 0 3.99467 0H3.99267C3.81454 0 3.64371 0.0682374 3.51775 0.189701C3.3918 0.311164 3.32103 0.475903 3.32103 0.647678C3.32103 0.819454 3.3918 0.984193 3.51775 1.10566C3.64371 1.22712 3.81454 1.29536 3.99267 1.29536H3.99467ZM4 9C4.17199 9 4.34398 8.937 4.47531 8.81036L7.80314 5.60507C7.86555 5.545 7.91505 5.47366 7.94883 5.39512C7.98261 5.31658 8 5.23238 8 5.14736C8 5.06233 7.98261 4.97814 7.94883 4.8996C7.91505 4.82106 7.86555 4.74971 7.80314 4.68964C7.67691 4.56814 7.50585 4.49991 7.3275 4.49991C7.14915 4.49991 6.97809 4.56814 6.85186 4.68964L4.6653 6.79629V2.59071C4.6653 2.41885 4.5945 2.25403 4.46849 2.13251C4.34247 2.01099 4.17155 1.94271 3.99333 1.94271C3.81512 1.94271 3.6442 2.01099 3.51818 2.13251C3.39216 2.25403 3.32137 2.41885 3.32137 2.59071V6.78343L1.14814 4.68964C1.02191 4.56814 0.85085 4.49991 0.672501 4.49991C0.494152 4.49991 0.323089 4.56814 0.196858 4.68964C0.134454 4.74971 0.0849457 4.82106 0.0511664 4.8996C0.0173872 4.97814 0 5.06233 0 5.14736C0 5.23238 0.0173872 5.31658 0.0511664 5.39512C0.0849457 5.47366 0.134454 5.545 0.196858 5.60507L3.52469 8.81036C3.65602 8.937 3.82801 9 4 9Z" fill="#5065E5"/>
</svg>
